<svg width="850" height="483" viewBox="0 0 850 483" fill="none" xmlns="http://www.w3.org/2000/svg">
<path d="M263.203 181.119C261.938 182.607 260.08 183.352 257.631 183.352C255.604 183.352 254.057 182.766 252.99 181.594C251.936 180.41 251.402 178.664 251.391 176.355V163.98H254.643V176.268C254.643 179.15 255.814 180.592 258.158 180.592C260.643 180.592 262.295 179.666 263.115 177.814V163.98H266.367V183H263.273L263.203 181.119ZM287.391 173.701C287.391 176.596 286.729 178.928 285.404 180.697C284.08 182.467 282.287 183.352 280.025 183.352C277.717 183.352 275.9 182.619 274.576 181.154V190.312H271.324V163.98H274.295L274.453 166.09C275.777 164.449 277.617 163.629 279.973 163.629C282.258 163.629 284.062 164.49 285.387 166.213C286.723 167.936 287.391 170.332 287.391 173.402V173.701ZM284.139 173.332C284.139 171.188 283.682 169.494 282.768 168.252C281.854 167.01 280.6 166.389 279.006 166.389C277.037 166.389 275.561 167.262 274.576 169.008V178.096C275.549 179.83 277.037 180.697 279.041 180.697C280.6 180.697 281.836 180.082 282.75 178.852C283.676 177.609 284.139 175.77 284.139 173.332ZM300.732 166.898C300.24 166.816 299.707 166.775 299.133 166.775C297 166.775 295.553 167.684 294.791 169.5V183H291.539V163.98H294.703L294.756 166.178C295.822 164.479 297.334 163.629 299.291 163.629C299.924 163.629 300.404 163.711 300.732 163.875V166.898ZM302.525 173.314C302.525 171.451 302.889 169.775 303.615 168.287C304.354 166.799 305.373 165.65 306.674 164.842C307.986 164.033 309.48 163.629 311.156 163.629C313.746 163.629 315.838 164.525 317.432 166.318C319.037 168.111 319.84 170.496 319.84 173.473V173.701C319.84 175.553 319.482 177.217 318.768 178.693C318.064 180.158 317.051 181.301 315.727 182.121C314.414 182.941 312.902 183.352 311.191 183.352C308.613 183.352 306.521 182.455 304.916 180.662C303.322 178.869 302.525 176.496 302.525 173.543V173.314ZM305.795 173.701C305.795 175.811 306.281 177.504 307.254 178.781C308.238 180.059 309.551 180.697 311.191 180.697C312.844 180.697 314.156 180.053 315.129 178.764C316.102 177.463 316.588 175.646 316.588 173.314C316.588 171.229 316.09 169.541 315.094 168.252C314.109 166.951 312.797 166.301 311.156 166.301C309.551 166.301 308.256 166.939 307.271 168.217C306.287 169.494 305.795 171.322 305.795 173.701ZM340.02 173.701C340.02 176.607 339.352 178.945 338.016 180.715C336.68 182.473 334.887 183.352 332.637 183.352C330.234 183.352 328.377 182.502 327.064 180.803L326.906 183H323.918V156H327.17V166.072C328.482 164.443 330.293 163.629 332.602 163.629C334.91 163.629 336.721 164.502 338.033 166.248C339.357 167.994 340.02 170.385 340.02 173.42V173.701ZM336.768 173.332C336.768 171.117 336.34 169.406 335.484 168.199C334.629 166.992 333.398 166.389 331.793 166.389C329.648 166.389 328.107 167.385 327.17 169.377V177.604C328.166 179.596 329.719 180.592 331.828 180.592C333.387 180.592 334.6 179.988 335.467 178.781C336.334 177.574 336.768 175.758 336.768 173.332ZM352.025 183.352C349.447 183.352 347.35 182.508 345.732 180.82C344.115 179.121 343.307 176.854 343.307 174.018V173.42C343.307 171.533 343.664 169.852 344.379 168.375C345.105 166.887 346.113 165.727 347.402 164.895C348.703 164.051 350.109 163.629 351.621 163.629C354.094 163.629 356.016 164.443 357.387 166.072C358.758 167.701 359.443 170.033 359.443 173.068V174.422H346.559C346.605 176.297 347.15 177.814 348.193 178.975C349.248 180.123 350.584 180.697 352.201 180.697C353.35 180.697 354.322 180.463 355.119 179.994C355.916 179.525 356.613 178.904 357.211 178.131L359.197 179.678C357.604 182.127 355.213 183.352 352.025 183.352ZM351.621 166.301C350.309 166.301 349.207 166.781 348.316 167.742C347.426 168.691 346.875 170.027 346.664 171.75H356.191V171.504C356.098 169.852 355.652 168.574 354.855 167.672C354.059 166.758 352.98 166.301 351.621 166.301ZM373.752 183V166.494H370.746V163.98H373.752V162.029C373.752 159.99 374.297 158.414 375.387 157.301C376.477 156.188 378.018 155.631 380.01 155.631C380.76 155.631 381.504 155.73 382.242 155.93L382.066 158.566C381.516 158.461 380.93 158.408 380.309 158.408C379.254 158.408 378.439 158.719 377.865 159.34C377.291 159.949 377.004 160.828 377.004 161.977V163.98H381.064V166.494H377.004V183H373.752ZM396.41 181.119C395.145 182.607 393.287 183.352 390.838 183.352C388.811 183.352 387.264 182.766 386.197 181.594C385.143 180.41 384.609 178.664 384.598 176.355V163.98H387.85V176.268C387.85 179.15 389.021 180.592 391.365 180.592C393.85 180.592 395.502 179.666 396.322 177.814V163.98H399.574V183H396.48L396.41 181.119ZM407.607 163.98L407.713 166.371C409.166 164.543 411.064 163.629 413.408 163.629C417.428 163.629 419.455 165.896 419.49 170.432V183H416.238V170.414C416.227 169.043 415.91 168.029 415.289 167.373C414.68 166.717 413.725 166.389 412.424 166.389C411.369 166.389 410.443 166.67 409.646 167.232C408.85 167.795 408.229 168.533 407.783 169.447V183H404.531V163.98H407.607ZM432.023 180.697C433.184 180.697 434.197 180.346 435.064 179.643C435.932 178.939 436.412 178.061 436.506 177.006H439.582C439.523 178.096 439.148 179.133 438.457 180.117C437.766 181.102 436.84 181.887 435.68 182.473C434.531 183.059 433.312 183.352 432.023 183.352C429.434 183.352 427.371 182.49 425.836 180.768C424.312 179.033 423.551 176.666 423.551 173.666V173.121C423.551 171.27 423.891 169.623 424.57 168.182C425.25 166.74 426.223 165.621 427.488 164.824C428.766 164.027 430.271 163.629 432.006 163.629C434.139 163.629 435.908 164.268 437.314 165.545C438.732 166.822 439.488 168.48 439.582 170.52H436.506C436.412 169.289 435.943 168.281 435.1 167.496C434.268 166.699 433.236 166.301 432.006 166.301C430.354 166.301 429.07 166.898 428.156 168.094C427.254 169.277 426.803 170.994 426.803 173.244V173.859C426.803 176.051 427.254 177.738 428.156 178.922C429.059 180.105 430.348 180.697 432.023 180.697Z" fill="#FF5E6C"/>
<rect x="56" y="322" width="741" height="118" fill="#FFD29E"/>
<path d="M335.363 396.24H347.492V399H331.971V373.406H335.363V396.24ZM354.365 399H351.113V379.98H354.365V399ZM350.85 374.936C350.85 374.408 351.008 373.963 351.324 373.6C351.652 373.236 352.133 373.055 352.766 373.055C353.398 373.055 353.879 373.236 354.207 373.6C354.535 373.963 354.699 374.408 354.699 374.936C354.699 375.463 354.535 375.902 354.207 376.254C353.879 376.605 353.398 376.781 352.766 376.781C352.133 376.781 351.652 376.605 351.324 376.254C351.008 375.902 350.85 375.463 350.85 374.936ZM362.662 379.98L362.768 382.371C364.221 380.543 366.119 379.629 368.463 379.629C372.482 379.629 374.51 381.896 374.545 386.432V399H371.293V386.414C371.281 385.043 370.965 384.029 370.344 383.373C369.734 382.717 368.779 382.389 367.479 382.389C366.424 382.389 365.498 382.67 364.701 383.232C363.904 383.795 363.283 384.533 362.838 385.447V399H359.586V379.98H362.662ZM391.191 397.119C389.926 398.607 388.068 399.352 385.619 399.352C383.592 399.352 382.045 398.766 380.979 397.594C379.924 396.41 379.391 394.664 379.379 392.355V379.98H382.631V392.268C382.631 395.15 383.803 396.592 386.146 396.592C388.631 396.592 390.283 395.666 391.104 393.814V379.98H394.355V399H391.262L391.191 397.119ZM405.693 386.924L409.912 379.98H413.709L407.486 389.385L413.902 399H410.141L405.746 391.881L401.352 399H397.572L403.988 389.385L397.766 379.98H401.527L405.693 386.924ZM433.115 387.1L429.986 390.352V399H426.611V373.406H429.986V386.062L441.359 373.406H445.438L435.365 384.709L446.229 399H442.186L433.115 387.1ZM456.107 399.352C453.529 399.352 451.432 398.508 449.814 396.82C448.197 395.121 447.389 392.854 447.389 390.018V389.42C447.389 387.533 447.746 385.852 448.461 384.375C449.188 382.887 450.195 381.727 451.484 380.895C452.785 380.051 454.191 379.629 455.703 379.629C458.176 379.629 460.098 380.443 461.469 382.072C462.84 383.701 463.525 386.033 463.525 389.068V390.422H450.641C450.688 392.297 451.232 393.814 452.275 394.975C453.33 396.123 454.666 396.697 456.283 396.697C457.432 396.697 458.404 396.463 459.201 395.994C459.998 395.525 460.695 394.904 461.293 394.131L463.279 395.678C461.686 398.127 459.295 399.352 456.107 399.352ZM455.703 382.301C454.391 382.301 453.289 382.781 452.398 383.742C451.508 384.691 450.957 386.027 450.746 387.75H460.273V387.504C460.18 385.852 459.734 384.574 458.938 383.672C458.141 382.758 457.062 382.301 455.703 382.301ZM476.498 382.898C476.006 382.816 475.473 382.775 474.898 382.775C472.766 382.775 471.318 383.684 470.557 385.5V399H467.305V379.98H470.469L470.521 382.178C471.588 380.479 473.1 379.629 475.057 379.629C475.689 379.629 476.17 379.711 476.498 379.875V382.898ZM482.58 379.98L482.686 382.371C484.139 380.543 486.037 379.629 488.381 379.629C492.4 379.629 494.428 381.896 494.463 386.432V399H491.211V386.414C491.199 385.043 490.883 384.029 490.262 383.373C489.652 382.717 488.697 382.389 487.396 382.389C486.342 382.389 485.416 382.67 484.619 383.232C483.822 383.795 483.201 384.533 482.756 385.447V399H479.504V379.98H482.58ZM507.26 399.352C504.682 399.352 502.584 398.508 500.967 396.82C499.35 395.121 498.541 392.854 498.541 390.018V389.42C498.541 387.533 498.898 385.852 499.613 384.375C500.34 382.887 501.348 381.727 502.637 380.895C503.938 380.051 505.344 379.629 506.855 379.629C509.328 379.629 511.25 380.443 512.621 382.072C513.992 383.701 514.678 386.033 514.678 389.068V390.422H501.793C501.84 392.297 502.385 393.814 503.428 394.975C504.482 396.123 505.818 396.697 507.436 396.697C508.584 396.697 509.557 396.463 510.354 395.994C511.15 395.525 511.848 394.904 512.445 394.131L514.432 395.678C512.838 398.127 510.447 399.352 507.26 399.352ZM506.855 382.301C505.543 382.301 504.441 382.781 503.551 383.742C502.66 384.691 502.109 386.027 501.898 387.75H511.426V387.504C511.332 385.852 510.887 384.574 510.09 383.672C509.293 382.758 508.215 382.301 506.855 382.301ZM521.99 399H518.738V372H521.99V399Z" fill="black"/>
<rect x="56" y="86" width="158" height="236" fill="#C4C4C4"/>
<path d="M120.104 230.32H109.381L106.973 237H103.492L113.266 211.406H116.219L126.01 237H122.547L120.104 230.32ZM110.4 227.543H119.102L114.742 215.572L110.4 227.543ZM145.012 227.701C145.012 230.596 144.35 232.928 143.025 234.697C141.701 236.467 139.908 237.352 137.646 237.352C135.338 237.352 133.521 236.619 132.197 235.154V244.312H128.945V217.98H131.916L132.074 220.09C133.398 218.449 135.238 217.629 137.594 217.629C139.879 217.629 141.684 218.49 143.008 220.213C144.344 221.936 145.012 224.332 145.012 227.402V227.701ZM141.76 227.332C141.76 225.188 141.303 223.494 140.389 222.252C139.475 221.01 138.221 220.389 136.627 220.389C134.658 220.389 133.182 221.262 132.197 223.008V232.096C133.17 233.83 134.658 234.697 136.662 234.697C138.221 234.697 139.457 234.082 140.371 232.852C141.297 231.609 141.76 229.77 141.76 227.332ZM165.227 227.701C165.227 230.596 164.564 232.928 163.24 234.697C161.916 236.467 160.123 237.352 157.861 237.352C155.553 237.352 153.736 236.619 152.412 235.154V244.312H149.16V217.98H152.131L152.289 220.09C153.613 218.449 155.453 217.629 157.809 217.629C160.094 217.629 161.898 218.49 163.223 220.213C164.559 221.936 165.227 224.332 165.227 227.402V227.701ZM161.975 227.332C161.975 225.188 161.518 223.494 160.604 222.252C159.689 221.01 158.436 220.389 156.842 220.389C154.873 220.389 153.396 221.262 152.412 223.008V232.096C153.385 233.83 154.873 234.697 156.877 234.697C158.436 234.697 159.672 234.082 160.586 232.852C161.512 231.609 161.975 229.77 161.975 227.332Z" fill="black"/>
<rect x="639" y="86" width="158" height="236" fill="#A4F4FF" fill-opacity="0.65"/>
<path d="M689.654 202.184H681.428V225H678.07V202.184H669.861V199.406H689.654V202.184ZM700.799 208.898C700.307 208.816 699.773 208.775 699.199 208.775C697.066 208.775 695.619 209.684 694.857 211.5V225H691.605V205.98H694.77L694.822 208.178C695.889 206.479 697.4 205.629 699.357 205.629C699.99 205.629 700.471 205.711 700.799 205.875V208.898ZM714.844 225C714.656 224.625 714.504 223.957 714.387 222.996C712.875 224.566 711.07 225.352 708.973 225.352C707.098 225.352 705.557 224.824 704.35 223.77C703.154 222.703 702.557 221.355 702.557 219.727C702.557 217.746 703.307 216.211 704.807 215.121C706.318 214.02 708.439 213.469 711.17 213.469H714.334V211.975C714.334 210.838 713.994 209.936 713.314 209.268C712.635 208.588 711.633 208.248 710.309 208.248C709.148 208.248 708.176 208.541 707.391 209.127C706.605 209.713 706.213 210.422 706.213 211.254H702.943C702.943 210.305 703.277 209.391 703.945 208.512C704.625 207.621 705.539 206.918 706.688 206.402C707.848 205.887 709.119 205.629 710.502 205.629C712.693 205.629 714.41 206.18 715.652 207.281C716.895 208.371 717.539 209.877 717.586 211.799V220.553C717.586 222.299 717.809 223.688 718.254 224.719V225H714.844ZM709.447 222.521C710.467 222.521 711.434 222.258 712.348 221.73C713.262 221.203 713.924 220.518 714.334 219.674V215.771H711.785C707.801 215.771 705.809 216.938 705.809 219.27C705.809 220.289 706.148 221.086 706.828 221.66C707.508 222.234 708.381 222.521 709.447 222.521ZM730.312 222.697C731.473 222.697 732.486 222.346 733.354 221.643C734.221 220.939 734.701 220.061 734.795 219.006H737.871C737.812 220.096 737.438 221.133 736.746 222.117C736.055 223.102 735.129 223.887 733.969 224.473C732.82 225.059 731.602 225.352 730.312 225.352C727.723 225.352 725.66 224.49 724.125 222.768C722.602 221.033 721.84 218.666 721.84 215.666V215.121C721.84 213.27 722.18 211.623 722.859 210.182C723.539 208.74 724.512 207.621 725.777 206.824C727.055 206.027 728.561 205.629 730.295 205.629C732.428 205.629 734.197 206.268 735.604 207.545C737.021 208.822 737.777 210.48 737.871 212.52H734.795C734.701 211.289 734.232 210.281 733.389 209.496C732.557 208.699 731.525 208.301 730.295 208.301C728.643 208.301 727.359 208.898 726.445 210.094C725.543 211.277 725.092 212.994 725.092 215.244V215.859C725.092 218.051 725.543 219.738 726.445 220.922C727.348 222.105 728.637 222.697 730.312 222.697ZM749.42 225.352C746.842 225.352 744.744 224.508 743.127 222.82C741.51 221.121 740.701 218.854 740.701 216.018V215.42C740.701 213.533 741.059 211.852 741.773 210.375C742.5 208.887 743.508 207.727 744.797 206.895C746.098 206.051 747.504 205.629 749.016 205.629C751.488 205.629 753.41 206.443 754.781 208.072C756.152 209.701 756.838 212.033 756.838 215.068V216.422H743.953C744 218.297 744.545 219.814 745.588 220.975C746.643 222.123 747.979 222.697 749.596 222.697C750.744 222.697 751.717 222.463 752.514 221.994C753.311 221.525 754.008 220.904 754.605 220.131L756.592 221.678C754.998 224.127 752.607 225.352 749.42 225.352ZM749.016 208.301C747.703 208.301 746.602 208.781 745.711 209.742C744.82 210.691 744.27 212.027 744.059 213.75H753.586V213.504C753.492 211.852 753.047 210.574 752.25 209.672C751.453 208.758 750.375 208.301 749.016 208.301ZM769.811 208.898C769.318 208.816 768.785 208.775 768.211 208.775C766.078 208.775 764.631 209.684 763.869 211.5V225H760.617V205.98H763.781L763.834 208.178C764.9 206.479 766.412 205.629 768.369 205.629C769.002 205.629 769.482 205.711 769.811 205.875V208.898Z" fill="black"/>
<rect x="349" y="276" width="207" height="71" fill="#B5FFFB"/>
<path d="M372.346 313.98V324H368.971V298.406H378.41C381.211 298.406 383.402 299.121 384.984 300.551C386.578 301.98 387.375 303.873 387.375 306.229C387.375 308.713 386.596 310.629 385.037 311.977C383.49 313.312 381.27 313.98 378.375 313.98H372.346ZM372.346 311.221H378.41C380.215 311.221 381.598 310.799 382.559 309.955C383.52 309.1 384 307.869 384 306.264C384 304.74 383.52 303.521 382.559 302.607C381.598 301.693 380.279 301.219 378.604 301.184H372.346V311.221ZM398.818 324.352C396.24 324.352 394.143 323.508 392.525 321.82C390.908 320.121 390.1 317.854 390.1 315.018V314.42C390.1 312.533 390.457 310.852 391.172 309.375C391.898 307.887 392.906 306.727 394.195 305.895C395.496 305.051 396.902 304.629 398.414 304.629C400.887 304.629 402.809 305.443 404.18 307.072C405.551 308.701 406.236 311.033 406.236 314.068V315.422H393.352C393.398 317.297 393.943 318.814 394.986 319.975C396.041 321.123 397.377 321.697 398.994 321.697C400.143 321.697 401.115 321.463 401.912 320.994C402.709 320.525 403.406 319.904 404.004 319.131L405.99 320.678C404.396 323.127 402.006 324.352 398.818 324.352ZM398.414 307.301C397.102 307.301 396 307.781 395.109 308.742C394.219 309.691 393.668 311.027 393.457 312.75H402.984V312.504C402.891 310.852 402.445 309.574 401.648 308.672C400.852 307.758 399.773 307.301 398.414 307.301ZM419.209 307.898C418.717 307.816 418.184 307.775 417.609 307.775C415.477 307.775 414.029 308.684 413.268 310.5V324H410.016V304.98H413.18L413.232 307.178C414.299 305.479 415.811 304.629 417.768 304.629C418.4 304.629 418.881 304.711 419.209 304.875V307.898ZM424.096 324V307.494H421.09V304.98H424.096V303.029C424.096 300.99 424.641 299.414 425.73 298.301C426.82 297.188 428.361 296.631 430.354 296.631C431.104 296.631 431.848 296.73 432.586 296.93L432.41 299.566C431.859 299.461 431.273 299.408 430.652 299.408C429.598 299.408 428.783 299.719 428.209 300.34C427.635 300.949 427.348 301.828 427.348 302.977V304.98H431.408V307.494H427.348V324H424.096ZM444.451 324V298.406H452.818C455.596 298.406 457.682 298.98 459.076 300.129C460.482 301.277 461.186 302.977 461.186 305.227C461.186 306.422 460.846 307.482 460.166 308.408C459.486 309.322 458.561 310.031 457.389 310.535C458.771 310.922 459.861 311.66 460.658 312.75C461.467 313.828 461.871 315.117 461.871 316.617C461.871 318.914 461.127 320.719 459.639 322.031C458.15 323.344 456.047 324 453.328 324H444.451ZM447.826 312.029V321.24H453.398C454.969 321.24 456.205 320.836 457.107 320.027C458.021 319.207 458.479 318.082 458.479 316.652C458.479 313.57 456.803 312.029 453.451 312.029H447.826ZM447.826 309.322H452.924C454.4 309.322 455.578 308.953 456.457 308.215C457.348 307.477 457.793 306.475 457.793 305.209C457.793 303.803 457.383 302.783 456.562 302.15C455.742 301.506 454.494 301.184 452.818 301.184H447.826V309.322ZM478.113 322.119C476.848 323.607 474.99 324.352 472.541 324.352C470.514 324.352 468.967 323.766 467.9 322.594C466.846 321.41 466.312 319.664 466.301 317.355V304.98H469.553V317.268C469.553 320.15 470.725 321.592 473.068 321.592C475.553 321.592 477.205 320.666 478.025 318.814V304.98H481.277V324H478.184L478.113 322.119ZM487.834 324V307.494H484.828V304.98H487.834V303.029C487.834 300.99 488.379 299.414 489.469 298.301C490.559 297.188 492.1 296.631 494.092 296.631C494.842 296.631 495.586 296.73 496.324 296.93L496.148 299.566C495.598 299.461 495.012 299.408 494.391 299.408C493.336 299.408 492.521 299.719 491.947 300.34C491.373 300.949 491.086 301.828 491.086 302.977V304.98H495.146V307.494H491.086V324H487.834ZM500.35 324V307.494H497.344V304.98H500.35V303.029C500.35 300.99 500.895 299.414 501.984 298.301C503.074 297.188 504.615 296.631 506.607 296.631C507.357 296.631 508.102 296.73 508.84 296.93L508.664 299.566C508.113 299.461 507.527 299.408 506.906 299.408C505.852 299.408 505.037 299.719 504.463 300.34C503.889 300.949 503.602 301.828 503.602 302.977V304.98H507.662V307.494H503.602V324H500.35ZM518.736 324.352C516.158 324.352 514.061 323.508 512.443 321.82C510.826 320.121 510.018 317.854 510.018 315.018V314.42C510.018 312.533 510.375 310.852 511.09 309.375C511.816 307.887 512.824 306.727 514.113 305.895C515.414 305.051 516.82 304.629 518.332 304.629C520.805 304.629 522.727 305.443 524.098 307.072C525.469 308.701 526.154 311.033 526.154 314.068V315.422H513.27C513.316 317.297 513.861 318.814 514.904 319.975C515.959 321.123 517.295 321.697 518.912 321.697C520.061 321.697 521.033 321.463 521.83 320.994C522.627 320.525 523.324 319.904 523.922 319.131L525.908 320.678C524.314 323.127 521.924 324.352 518.736 324.352ZM518.332 307.301C517.02 307.301 515.918 307.781 515.027 308.742C514.137 309.691 513.586 311.027 513.375 312.75H522.902V312.504C522.809 310.852 522.363 309.574 521.566 308.672C520.77 307.758 519.691 307.301 518.332 307.301ZM539.127 307.898C538.635 307.816 538.102 307.775 537.527 307.775C535.395 307.775 533.947 308.684 533.186 310.5V324H529.934V304.98H533.098L533.15 307.178C534.217 305.479 535.729 304.629 537.686 304.629C538.318 304.629 538.799 304.711 539.127 304.875V307.898Z" fill="black"/>
<path d="M351.386 272.962C352.469 272.749 353.175 271.698 352.962 270.614L349.492 252.952C349.279 251.868 348.227 251.162 347.144 251.375C346.06 251.588 345.354 252.64 345.567 253.723L348.652 269.423L332.952 272.508C331.868 272.721 331.162 273.773 331.375 274.856C331.588 275.94 332.64 276.646 333.723 276.433L351.386 272.962ZM212.885 180.66L349.885 272.66L352.115 269.34L215.115 177.34L212.885 180.66Z" fill="#FF5E6C"/>
<path d="M641 191.988C640.993 190.883 640.093 189.993 638.988 190L620.988 190.108C619.884 190.114 618.994 191.015 619 192.12C619.007 193.224 619.908 194.114 621.012 194.108L637.012 194.012L637.108 210.012C637.114 211.116 638.015 212.006 639.12 212C640.224 211.993 641.114 211.092 641.108 209.988L641 191.988ZM557.423 277.406L640.423 193.406L637.577 190.594L554.577 274.594L557.423 277.406Z" fill="#FF5E6C"/>
</svg>
