<svg width="966" height="1362" viewBox="0 0 966 1362" fill="none" xmlns="http://www.w3.org/2000/svg">
<path d="M299.51 755.589C347.083 782.312 373.497 780.887 390.403 757.025C407.309 733.164 389.126 689.393 355.742 648.461C322.357 607.528 247.028 511.741 213.545 515.461C180.062 519.181 119.988 592.92 140.902 618.873C192.137 682.449 251.937 728.865 299.51 755.589Z" fill="url(#paint0_linear)"/>
<path opacity="0.1" d="M169.681 543.724C292.694 642.326 354.441 721.204 380.333 768.105C381.689 766.57 383.006 764.935 384.287 763.201C404.034 736.471 387.652 690.882 354.818 649.394C352.777 646.815 350.578 644.021 348.239 641.049C312.949 596.213 245.894 511.018 212.072 516.95C200.109 519.048 184.48 529.599 169.681 543.724Z" fill="url(#paint1_linear)"/>
<path d="M866.437 682.772C850.095 656.429 815.492 648.321 789.148 664.663C762.805 681.005 754.697 715.608 771.039 741.951C810.736 805.942 827.9 866.407 822.733 944.973C820.699 975.907 844.127 1002.63 875.061 1004.67C905.994 1006.7 932.72 983.273 934.754 952.34C941.443 850.623 918.603 766.864 866.437 682.772Z" fill="url(#paint2_linear)"/>
<path opacity="0.1" d="M898.809 1001.09C878.342 981.705 857.583 946.394 856.02 888.826C853.732 804.563 817.397 733.198 797.837 705.422C796.677 703.774 794.908 702.666 792.93 702.28L766.677 697.158C766.022 697.03 765.375 696.984 764.746 697.012C760.581 711.677 762.369 727.977 771.039 741.952C810.735 805.943 827.899 866.408 822.733 944.974C820.699 975.908 844.126 1002.63 875.06 1004.67C883.418 1005.22 891.47 1003.91 898.809 1001.09Z" fill="#262626"/>
<path d="M817.067 615.566C858.927 642.726 876.785 776.064 832.463 823.743C788.142 871.422 732.142 656.306 737.294 656.306C740.729 656.306 767.319 642.726 817.067 615.566Z" fill="url(#paint3_linear)"/>
<path d="M394.508 615.566C352.647 642.726 334.789 776.064 379.111 823.743C423.433 871.422 479.432 656.306 474.28 656.306C470.846 656.306 444.255 642.726 394.508 615.566Z" fill="url(#paint4_linear)"/>
<path fill-rule="evenodd" clip-rule="evenodd" d="M421.785 854.786C417.128 854.236 412.985 857.766 412.807 862.452C409.122 959.334 413.357 1039.58 425.512 1103.2C444.286 1201.46 472.38 1223.27 505.425 1234.35C538.47 1245.44 590.406 1226.01 594.739 1198.46C598.952 1171.68 601.955 1098.58 609.525 1072.95C609.931 1071.57 610.772 1070.33 611.931 1069.48C637.292 1050.91 649.77 1112.39 654.506 1151.45C659.349 1191.4 674.652 1241.44 728.375 1234.35C782.098 1227.27 799.558 1177.64 807.498 1119.95C815.241 1063.68 818.213 1002.15 818.355 908.821C818.361 904.736 815.304 901.281 811.248 900.802L421.785 854.786Z" fill="url(#paint5_linear)"/>
<path fill-rule="evenodd" clip-rule="evenodd" d="M703.276 1233.11C677.856 1193.29 663.282 1138.67 712.929 1096.39C774.076 1044.32 798.692 989.097 805.284 960.66C806.408 955.813 802.463 951.571 797.495 951.849C679.835 958.42 463.113 977.495 467.819 1005.73C472.363 1033 496.651 1055.71 525.838 1083C535.466 1092 545.628 1101.51 555.79 1111.83C579.488 1135.92 590.567 1170.82 594.97 1196.94C596.456 1186.8 597.801 1171.02 599.267 1153.81C601.842 1123.59 604.79 1088.98 609.525 1072.95C609.932 1071.57 610.772 1070.33 611.931 1069.48C637.292 1050.91 649.77 1112.39 654.506 1151.45C658.491 1184.32 669.556 1224.02 703.276 1233.11Z" fill="url(#paint6_linear)"/>
<path fill-rule="evenodd" clip-rule="evenodd" d="M407.287 646.03C403.752 646.286 400.794 648.816 400.045 652.281C385.561 719.323 380.291 805.991 401.336 918.432C468.49 1121.24 644.432 1105.12 727.031 1062.14C809.63 1019.16 829.777 947.981 829.777 815.689C832.641 781.299 821.895 686.739 810.901 624.014C810.191 619.963 806.524 617.139 802.422 617.435L407.287 646.03Z" fill="url(#paint7_linear)"/>
<path opacity="0.1" d="M421.49 967.082C460.173 944.602 486.744 917.253 495.977 905.134L397.438 896.066C398.622 903.405 399.92 910.858 401.336 918.428C407.255 936.303 414.019 952.477 421.49 967.082Z" fill="url(#paint8_linear)"/>
<path fill-rule="evenodd" clip-rule="evenodd" d="M631.175 1088.52C638.873 939.816 629.113 779.517 621.368 701.823C621.093 699.068 622.253 696.46 624.433 694.753L715.103 623.751L802.423 617.432C806.525 617.135 810.192 619.959 810.902 624.01C821.896 686.735 832.642 781.295 829.778 815.685C829.778 947.977 809.632 1019.16 727.033 1062.14C701.848 1075.24 667.986 1085.85 631.175 1088.52Z" fill="url(#paint9_linear)"/>
<path opacity="0.5" d="M497.476 759.541C493.444 759.985 490.535 763.613 490.979 767.645C493.778 793.087 493.662 815.643 490.659 835.3C490.046 839.31 492.8 843.057 496.81 843.669C500.819 844.282 504.566 841.528 505.179 837.518C508.388 816.509 508.511 792.686 505.579 766.038C505.136 762.007 501.508 759.098 497.476 759.541Z" fill="url(#paint10_linear)"/>
<path d="M761.123 821.029H744.894L745.109 791.836L715.374 791.836L716.03 775.414L761.123 775.414V821.029Z" fill="url(#paint11_linear)"/>
<path d="M730.737 802.31L715.221 802.31L715.221 851.323H730.737L730.737 802.31Z" fill="url(#paint12_linear)"/>
<path fill-rule="evenodd" clip-rule="evenodd" d="M796.876 627.743C797.9 627.393 798.86 626.835 799.664 626.11C842.208 587.749 866.731 541.362 873.234 486.949C883.082 404.55 858.227 290.567 734.154 218.588C610.081 146.61 453.378 193.193 385.657 289.353C317.937 385.513 312.818 563.511 401.513 623.209C490.207 682.906 553.093 684.501 606.288 679.684C641.552 676.491 705.081 659.177 796.876 627.743Z" fill="url(#paint13_linear)"/>
<path fill-rule="evenodd" clip-rule="evenodd" d="M693.145 384.132C691.755 454.798 711.732 562.37 728.982 640.793C730.007 645.453 734.81 648.209 739.36 646.772L742.286 645.848C759.214 640.448 777.415 634.415 796.889 627.746C797.912 627.396 798.86 626.842 799.664 626.118C842.208 587.756 866.731 541.369 873.234 486.956L873.773 482.075C881.672 404.034 858.235 299.734 750.997 229.015C747.593 226.77 743.014 227.464 740.519 230.688C710.177 269.891 694.386 321.04 693.145 384.132Z" fill="url(#paint14_linear)"/>
<path opacity="0.2" d="M436.639 237.683L437.598 237.828C486.705 246.298 534.809 308.821 588.3 309.965C648.209 311.247 679.229 295.664 718.058 265.373C738.723 249.252 762.235 246.821 788.594 258.082C773.048 243.966 755.002 230.686 734.155 218.592C635.166 161.166 515.408 179.207 436.639 237.683Z" fill="url(#paint15_linear)"/>
<path d="M591.118 269.146C590.959 273.24 594.148 276.688 598.242 276.847C602.335 277.006 605.783 273.817 605.943 269.723C605.943 229.728 605.943 202.18 605.943 182.996C600.534 182.581 596.511 183.085 591.118 182.995C591.118 203.394 591.118 231.204 591.118 269.146Z" fill="url(#paint16_linear)"/>
<path d="M477.1 362.962C439.844 364.731 394.001 392.819 390.631 480.735C387.26 568.651 411.829 580.327 431.099 631.471C433.651 633.514 436.29 635.455 439.014 637.288C531.231 699.356 560.408 698.618 615.716 693.61L619.859 693.187C652.533 689.487 706.03 675.386 780.35 650.881C801.382 614.093 814.334 571.782 819.219 523.951C827.782 440.118 792.574 369.557 735.167 363.311C677.76 357.065 634.325 408.842 584.216 405.037C534.107 401.232 514.357 361.192 477.1 362.962Z" fill="url(#paint17_linear)"/>
<path d="M847.935 406.236C859.304 397.888 874.367 397.523 884.535 407.3C886.203 408.904 887.948 410.673 889.769 412.608C904.777 428.547 893.437 483.845 885.966 498.12C878.494 512.395 844.72 505.41 839.993 498.628C835.267 491.845 834.152 434.461 836.329 421.471C837.184 416.368 841.053 411.289 847.935 406.236Z" fill="url(#paint18_linear)"/>
<path d="M892.313 416.089C890.971 413.744 888.172 412.866 885.505 413.298L884.647 413.437C873.171 415.418 865.047 417.717 860.275 420.333C852.094 424.819 854.045 454.665 855.335 481.845C855.843 492.526 857.635 499.241 860.123 503.547C861.194 505.4 863.239 506.399 865.378 506.436C874.196 506.592 882.659 504.439 885.966 498.119C892.965 484.748 903.357 435.387 892.313 416.089Z" fill="url(#paint19_linear)"/>
<path d="M362.382 406.236C351.012 397.888 335.949 397.523 325.781 407.3C324.113 408.904 322.369 410.673 320.547 412.608C305.539 428.547 316.879 483.845 324.351 498.12C331.823 512.395 365.597 505.41 370.323 498.628C375.049 491.845 376.164 434.461 373.987 421.471C373.132 416.368 369.263 411.289 362.382 406.236Z" fill="url(#paint20_linear)"/>
<path d="M318.004 416.089C319.346 413.744 322.144 412.866 324.811 413.298L325.67 413.437C337.146 415.418 345.27 417.717 350.042 420.333C358.222 424.819 356.272 454.665 354.981 481.845C354.474 492.526 352.681 499.241 350.193 503.547C349.123 505.4 347.078 506.399 344.938 506.436C336.12 506.592 327.658 504.439 324.35 498.119C317.351 484.748 306.96 435.387 318.004 416.089Z" fill="url(#paint21_linear)"/>
<path d="M842.66 545.968C838.842 547.452 834.543 545.56 833.059 541.741C831.575 537.923 833.468 533.624 837.286 532.14C841.105 530.656 845.403 532.549 846.887 536.367C848.371 540.186 846.479 544.484 842.66 545.968Z" fill="white"/>
<path d="M829.983 574.769C826.164 576.253 821.866 574.361 820.382 570.542C818.897 566.724 820.79 562.425 824.608 560.941C828.427 559.457 832.726 561.349 834.21 565.168C835.694 568.986 833.801 573.285 829.983 574.769Z" fill="white"/>
<path d="M366.713 545.968C370.531 547.452 374.83 545.56 376.314 541.741C377.798 537.923 375.905 533.624 372.087 532.14C368.268 530.656 363.97 532.549 362.486 536.367C361.002 540.186 362.894 544.484 366.713 545.968Z" fill="white"/>
<path d="M379.391 574.773C383.21 576.257 387.508 574.365 388.992 570.546C390.477 566.728 388.584 562.429 384.766 560.945C380.947 559.461 376.648 561.353 375.164 565.172C373.68 568.99 375.573 573.289 379.391 574.773Z" fill="white"/>
<path d="M811.911 609.832C751.699 643.829 685.963 663.292 614.701 668.222C507.808 675.618 401.597 613.897 382.113 612.694C362.629 611.492 356.908 644.446 378.484 671.508C400.061 698.57 527.573 744.908 646.606 737.513C765.639 730.118 824.44 680.583 832.136 651.732C837.266 632.498 830.525 618.532 811.911 609.832Z" fill="url(#paint22_linear)"/>
<path d="M622.394 667.632L627.53 738.248C619.467 738.375 611.393 738.275 603.343 737.971L602.111 668.782C606.303 668.697 610.501 668.513 614.701 668.222C617.273 668.044 619.837 667.848 622.394 667.632ZM561.498 666.736C568.177 667.512 574.919 668.093 581.7 668.445L579.107 736.452C571.061 735.752 563.076 734.867 555.188 733.819L561.498 666.736ZM521.762 659.888C528.283 661.356 534.918 662.69 541.642 663.855L531.717 730.19C523.741 728.783 515.91 727.226 508.264 725.543L521.762 659.888ZM662.939 662.524L676.032 734.704C668.302 735.713 660.272 736.536 651.938 737.151L642.785 665.491C649.555 664.639 656.273 663.649 662.939 662.524ZM482.35 649.206C488.679 651.193 495.196 653.118 501.873 654.935L484.855 719.865C476.948 717.765 469.315 715.547 462.01 713.247L482.35 649.206ZM703.219 653.891L723.692 725.33C716.251 727.343 708.413 729.174 700.173 730.786L683.234 658.639C689.95 657.2 696.612 655.617 703.219 653.891ZM443.627 635.66C449.733 637.991 456.171 640.37 462.897 642.73L439.488 705.52C431.6 702.573 424.276 699.56 417.61 696.54L443.627 635.66ZM742.938 641.552L769.015 708.87C762.209 712.094 754.841 715.171 746.901 718.039L723.292 648.154C729.897 646.102 736.446 643.901 742.938 641.552ZM378.042 670.947L405.114 620.277L424.43 628.107L396.683 685.783C388.186 680.728 381.96 675.868 378.484 671.508L378.042 670.947ZM780.837 625.857L808.725 683.745C803.223 688.488 796.766 693.241 789.331 697.856L761.717 634.279C768.148 631.622 774.521 628.815 780.837 625.857ZM382.113 612.694C382.927 612.745 383.893 612.901 385.004 613.153L365.869 645.764C361.795 627.258 368.686 611.866 382.113 612.694ZM811.911 609.832C830.525 618.532 837.266 632.498 832.136 651.732C831.019 655.918 828.827 660.539 825.531 665.404L799.703 616.485C803.797 614.333 807.867 612.115 811.911 609.832Z" fill="url(#paint23_linear)"/>
<path opacity="0.3" fill-rule="evenodd" clip-rule="evenodd" d="M786.12 1014.35C733.165 1037.01 717.648 1020.28 699.03 1000.2C688.511 988.857 677.002 976.446 657.192 969.467C600.392 949.458 557.805 972.153 517.512 1004.39C496.608 1021.11 472.127 1020.66 453.043 1015.35C535.11 1113.72 660.946 1096.52 727.032 1062.14C752.076 1049.11 771.379 1033.48 786.12 1014.35Z" fill="url(#paint24_linear)"/>
<path fill-rule="evenodd" clip-rule="evenodd" d="M95.4289 0C42.725 0 0 42.725 0 95.4289V196.067C0 248.771 42.7249 291.496 95.4288 291.496H214.779L265.557 336.829V287.673C305.199 276.081 334.156 239.456 334.156 196.067V95.4289C334.156 42.725 291.431 0 238.727 0H95.4289Z" fill="#BAFEFF"/>
<path d="M188.009 205.934H164.515V157.066H118.702V205.934H95.208V91.9101H118.702V138.115H164.515V91.9101H188.009V205.934ZM231.003 205.934H208.292V121.199H231.003V205.934ZM206.96 99.2715C206.96 95.8779 208.083 93.0848 210.328 90.892C212.625 88.6993 215.731 87.6029 219.647 87.6029C223.511 87.6029 226.591 88.6993 228.888 90.892C231.185 93.0848 232.334 95.8779 232.334 99.2715C232.334 102.717 231.159 105.537 228.81 107.729C226.513 109.922 223.458 111.018 219.647 111.018C215.836 111.018 212.756 109.922 210.406 107.729C208.109 105.537 206.96 102.717 206.96 99.2715Z" fill="#011832"/>
<defs>
<linearGradient id="paint0_linear" x1="147.708" y1="763.218" x2="534.435" y2="670.132" gradientUnits="userSpaceOnUse">
<stop stop-color="#5DF1D7"/>
<stop offset="1" stop-color="#128698"/>
</linearGradient>
<linearGradient id="paint1_linear" x1="532.324" y1="872.867" x2="661.579" y2="756.119" gradientUnits="userSpaceOnUse">
<stop stop-color="#042635"/>
<stop offset="1" stop-color="#06565B"/>
</linearGradient>
<linearGradient id="paint2_linear" x1="989.78" y1="756.458" x2="851.887" y2="1042.78" gradientUnits="userSpaceOnUse">
<stop stop-color="#5DF1D7"/>
<stop offset="1" stop-color="#128698"/>
</linearGradient>
<linearGradient id="paint3_linear" x1="764.121" y1="683.751" x2="657.917" y2="877.938" gradientUnits="userSpaceOnUse">
<stop stop-color="#042635"/>
<stop offset="1" stop-color="#06565B"/>
</linearGradient>
<linearGradient id="paint4_linear" x1="447.453" y1="683.751" x2="553.657" y2="877.938" gradientUnits="userSpaceOnUse">
<stop stop-color="#042635"/>
<stop offset="1" stop-color="#06565B"/>
</linearGradient>
<linearGradient id="paint5_linear" x1="374.195" y1="605.966" x2="137.804" y2="1118.82" gradientUnits="userSpaceOnUse">
<stop stop-color="#5DF1D7"/>
<stop offset="1" stop-color="#128698"/>
</linearGradient>
<linearGradient id="paint6_linear" x1="265.686" y1="543.714" x2="287.025" y2="1238.54" gradientUnits="userSpaceOnUse">
<stop stop-color="#5DF1D7"/>
<stop offset="1" stop-color="#128698"/>
</linearGradient>
<linearGradient id="paint7_linear" x1="284.438" y1="497.79" x2="132.402" y2="1016.25" gradientUnits="userSpaceOnUse">
<stop stop-color="#5DF1D7"/>
<stop offset="1" stop-color="#128698"/>
</linearGradient>
<linearGradient id="paint8_linear" x1="369.994" y1="920.633" x2="356.139" y2="1009.75" gradientUnits="userSpaceOnUse">
<stop stop-color="#042635"/>
<stop offset="1" stop-color="#06565B"/>
</linearGradient>
<linearGradient id="paint9_linear" x1="498.734" y1="533.022" x2="815.965" y2="934.332" gradientUnits="userSpaceOnUse">
<stop stop-color="#5DF1D7"/>
<stop offset="1" stop-color="#128698"/>
</linearGradient>
<linearGradient id="paint10_linear" x1="361.516" y1="939.765" x2="365.073" y2="949.687" gradientUnits="userSpaceOnUse">
<stop stop-color="#BAFEFF"/>
<stop offset="1" stop-color="#A5FFFE"/>
</linearGradient>
<linearGradient id="paint11_linear" x1="895.387" y1="846.75" x2="899.347" y2="857.025" gradientUnits="userSpaceOnUse">
<stop stop-color="#BAFEFF"/>
<stop offset="1" stop-color="#A5FFFE"/>
</linearGradient>
<linearGradient id="paint12_linear" x1="895.387" y1="846.75" x2="899.347" y2="857.025" gradientUnits="userSpaceOnUse">
<stop stop-color="#BAFEFF"/>
<stop offset="1" stop-color="#A5FFFE"/>
</linearGradient>
<linearGradient id="paint13_linear" x1="1060.39" y1="191.096" x2="923.673" y2="816.26" gradientUnits="userSpaceOnUse">
<stop stop-color="#5DF1D7"/>
<stop offset="1" stop-color="#128698"/>
</linearGradient>
<linearGradient id="paint14_linear" x1="930.985" y1="241.517" x2="685.43" y2="636.297" gradientUnits="userSpaceOnUse">
<stop stop-color="#5DF1D7"/>
<stop offset="1" stop-color="#128698"/>
</linearGradient>
<linearGradient id="paint15_linear" x1="656.085" y1="232.963" x2="569.51" y2="335.52" gradientUnits="userSpaceOnUse">
<stop stop-color="#042635"/>
<stop offset="1" stop-color="#001431"/>
</linearGradient>
<linearGradient id="paint16_linear" x1="605.724" y1="177.065" x2="583.861" y2="204.53" gradientUnits="userSpaceOnUse">
<stop stop-color="#042635"/>
<stop offset="1" stop-color="#001431"/>
</linearGradient>
<linearGradient id="paint17_linear" x1="723.872" y1="464.381" x2="807.816" y2="787.278" gradientUnits="userSpaceOnUse">
<stop stop-color="#042635"/>
<stop offset="1" stop-color="#06565B"/>
</linearGradient>
<linearGradient id="paint18_linear" x1="866.725" y1="387.822" x2="831.304" y2="418.446" gradientUnits="userSpaceOnUse">
<stop stop-color="#042635"/>
<stop offset="1" stop-color="#001431"/>
</linearGradient>
<linearGradient id="paint19_linear" x1="933.499" y1="346.361" x2="838.346" y2="489.434" gradientUnits="userSpaceOnUse">
<stop stop-color="#5DF1D7"/>
<stop offset="1" stop-color="#128698"/>
</linearGradient>
<linearGradient id="paint20_linear" x1="343.592" y1="387.822" x2="379.013" y2="418.446" gradientUnits="userSpaceOnUse">
<stop stop-color="#042635"/>
<stop offset="1" stop-color="#001431"/>
</linearGradient>
<linearGradient id="paint21_linear" x1="276.818" y1="346.361" x2="371.97" y2="489.434" gradientUnits="userSpaceOnUse">
<stop stop-color="#5DF1D7"/>
<stop offset="1" stop-color="#128698"/>
</linearGradient>
<linearGradient id="paint22_linear" x1="-677.617" y1="531.947" x2="-592.889" y2="963.703" gradientUnits="userSpaceOnUse">
<stop stop-color="#33B7D5"/>
<stop offset="1" stop-color="#123635"/>
</linearGradient>
<linearGradient id="paint23_linear" x1="456.216" y1="658.674" x2="95.6291" y2="522.585" gradientUnits="userSpaceOnUse">
<stop stop-color="#28674F"/>
<stop offset="1" stop-color="#123635"/>
</linearGradient>
<linearGradient id="paint24_linear" x1="524.456" y1="1004.56" x2="511.046" y2="1131.73" gradientUnits="userSpaceOnUse">
<stop stop-color="#042635"/>
<stop offset="1" stop-color="#06565B"/>
</linearGradient>
</defs>
</svg>
