<svg xmlns="http://www.w3.org/2000/svg" xmlns:xlink="http://www.w3.org/1999/xlink" xmlns:lucid="lucid" width="631" height="389.67"><g transform="translate(-740 -340)" lucid:page-tab-id="0_0"><path d="M0 0h1760v1360H0z" fill="#fff"/><path d="M947.67 486c-24.86 0-45-16.12-45-36 0-15.9 12.18-29.32 31.1-34.24-1.1-46.76 73.9-55.76 103.9-37.76 15-27 90-18 90 9 45-9 90 27 60 72 30 36 0 81-60 63-15 23.4-75 23.4-90 0-30 18-90 9-90-36z" stroke="#000" stroke-width="3" fill-opacity="0"/><path d="M982.67 615.67c0-3.32 2.68-6 6-6h128c3.3 0 6 2.68 6 6v88c0 3.3-2.7 6-6 6h-128c-3.32 0-6-2.7-6-6z" stroke="#0c1714" stroke-width="3" fill-opacity="0"/><path d="M1246 576.33c-3.3 0-6-2.68-6-6v-94.66c0-3.32 2.7-6 6-6h13.33c3.32 0 6 2.68 6 6v94.66c0 3.32-2.68 6-6 6z" stroke="#000" stroke-opacity="0" stroke-width="3" fill-opacity="0"/><use xlink:href="#a" transform="matrix(6.123233995736766e-17,-1,1,6.123233995736766e-17,1245,571.3333333333333) translate(21.30555555555556 15.999999999999998)"/><path d="M1182.7 636.9c-3.3 0-6-2.7-6-6v-97.47c0-3.3 2.7-6 6-6h22.1c3.32 0 6 2.7 6 6v97.47c0 3.3-2.68 6-6 6z" stroke="#000" stroke-opacity="0" stroke-width="3" fill="#fff"/><use xlink:href="#b" transform="matrix(6.123233995736766e-17,-1,1,6.123233995736766e-17,1181.7072104860436,631.8966107793012) translate(5.027777777777786 17.5625)"/><path d="M1082.67 629.67c11.04 0 20 13.43 20 30s-8.96 30-20 30h-60c-11.05 0-20-13.43-20-30s8.95-30 20-30z" stroke="#0c1714" stroke-width="3" fill-opacity="0"/><use xlink:href="#c" transform="matrix(1,0,0,1,1007.6666666666472,634.6666666666666) translate(5.5864197530864175 30.27777777777778)"/><path d="M841 582.17h9.3m9.3 0h18.6m9.3 0h18.58m9.3 0h18.6m9.3 0h18.6m9.28 0h18.6m9.3 0h18.6m9.3 0h18.58m9.3 0h18.6m9.3 0h18.6m9.28 0h18.6m9.3 0h18.6m9.3 0h9.3" stroke="#c92d39" stroke-width="2" fill="none"/><path d="M841.03 583.17H840v-2h1.03zM1176.7 583.17h-1.02v-2h1.03z" fill="#c92d39"/><path d="M1211.8 582.17h12.27m12.27 0h24.53m12.27 0h24.53m12.27 0h24.53m12.26 0H1359" stroke="#c92d39" stroke-width="2" fill="none"/><path d="M1211.83 583.17h-1.02v-2h1.03z" fill="#c92d39"/><path d="M1358.97 582.17h1.03" stroke="#c92d39" stroke-width="2" fill="none"/><path d="M760 558.17c0-3.32 2.7-6 6-6h68c3.3 0 6 2.68 6 6v48c0 3.3-2.7 6-6 6h-68c-3.3 0-6-2.7-6-6z" stroke="#000" stroke-opacity="0" stroke-width="3" fill="#fff" fill-opacity="0"/><use xlink:href="#d" transform="matrix(1,0,0,1,765,557.1650802331699) translate(0.7222222222222285 28.5)"/><path d="M1180 645.67c0-3.32 2.7-6 6-6h128c3.3 0 6 2.68 6 6v28c0 3.3-2.7 6-6 6h-128c-3.3 0-6-2.7-6-6z" stroke="#000" stroke-width="3" fill="#fff"/><use xlink:href="#e" transform="matrix(1,0,0,1,1192,651.6666666666666) translate(47.41975308641975 17.77777777777778)"/><path d="M1236 637.17v-191.2c0-3.3-2.68-6-6-6h-13.74" stroke="#000" stroke-width="2" fill="none"/><path d="M1237 638.17h-2v-1.03h2z"/><path d="M1201 439.97l14.26-4.64v9.27z" stroke="#000" stroke-width="2"/><path d="M992.4 532.5v57.16" stroke="#000" stroke-width="2" fill="none"/><path d="M992.86 531.56l.55.05v.9h-2v-1.17z"/><path d="M992.4 604.93l-4.62-14.27h9.27z" stroke="#000" stroke-width="2"/><path d="M1065.38 607.17v-49.34" stroke="#000" stroke-width="2" fill="none"/><path d="M1066.38 608.17h-2v-1.03h2z"/><path d="M1065.38 542.56l4.63 14.27h-9.26z" stroke="#000" stroke-width="2"/><path d="M994.42 530.7v-3.1m0-4.17v-6.23m0-4.16v-6.24m0-4.16v-6.23m0-4.15V486m0-4.15v-6.23m0-4.16v-6.24m0-4.16v-6.23m0-4.16v-3.12l.73-2.7m2.58-2.57l2.7-.73h3m4.03 0h6.03m4 0h6.05m4.02 0h6.03m4.02 0h6.03m4.02 0h6.03m4.03 0h6.03m4.02 0h6.03m4.03 0h6.03m4.02 0h3.02l.35-.14.14-.34.14-.35.35-.14h2.85m3.82 0h5.73m3.82 0h5.72m3.82 0h5.73m3.8 0h5.74m3.82 0h5.73m3.8 0h5.73m3.82 0h5.73m3.82 0h5.73m3.82 0h5.73m3.82 0h2.86" stroke="#000" stroke-width="2" fill="none"/><path d="M995.42 531.8l-2-.2v-.92h2z"/><path d="M1187.33 440.56h1.03" stroke="#000" stroke-width="2" fill="none"/><path d="M936.7 382.14c0-3.3 2.7-6 6-6h228c3.32 0 6 2.7 6 6v48c0 3.3-2.68 6-6 6h-228c-3.3 0-6-2.7-6-6z" stroke="#000" stroke-opacity="0" stroke-width="3" fill="#fff" fill-opacity="0"/><use xlink:href="#f" transform="matrix(1,0,0,1,941.7072104860433,381.13969713448523) translate(86.0493827160494 30.27777777777778)"/><path d="M1065.38 539v-2.95m0-3.93v-5.9m0-3.92v-5.9m0-3.92v-5.9m0-3.93v-5.9m0-3.92v-5.9m0-3.92v-5.9m0-3.92v-2.95l.73-2.7m2.58-2.57l2.7-.73h3m4 0h6m4 0h6m4 0h6.02m4 0h6m4 0h6m4 0h6m4.02 0h6m4 0h6m4 0h6m4 0h6.02m4 0h3M1065.38 538.97V540M1181.42 464.23h1.02M1183.44 464.23h23.58c3.3 0 6 2.7 6 6v149.43M1183.47 464.23h-4.03" stroke="#000" stroke-width="2" fill="none"/><path d="M1213.02 634.93l-4.64-14.27h9.27z" stroke="#000" stroke-width="2"/><defs><path d="M140-251c81 0 123 46 123 126C263-53 228-8 163 1c7 30 30 48 69 40v23c-55 16-95-15-103-61C56-3 17-48 17-125c0-80 42-126 123-126zm0 227c63 0 89-41 89-101s-29-99-89-99c-61 0-89 39-89 99S79-25 140-24" id="g"/><path d="M84 4C-5 8 30-112 23-190h32v120c0 31 7 50 39 49 72-2 45-101 50-169h31l1 190h-30c-1-10 1-25-2-33-11 22-28 36-60 37" id="h"/><path d="M100-194c63 0 86 42 84 106H49c0 40 14 67 53 68 26 1 43-12 49-29l28 8c-11 28-37 45-77 45C44 4 14-33 15-96c1-61 26-98 85-98zm52 81c6-60-76-77-97-28-3 7-6 17-6 28h103" id="i"/><path d="M114-163C36-179 61-72 57 0H25l-1-190h30c1 12-1 29 2 39 6-27 23-49 58-41v29" id="j"/><path d="M179-190L93 31C79 59 56 82 12 73V49c39 6 53-20 64-50L1-190h34L92-34l54-156h33" id="k"/><g id="a"><use transform="matrix(0.055555555555555546,0,0,0.055555555555555546,0,0)" xlink:href="#g"/><use transform="matrix(0.055555555555555546,0,0,0.055555555555555546,15.555555555555554,0)" xlink:href="#h"/><use transform="matrix(0.055555555555555546,0,0,0.055555555555555546,26.666666666666664,0)" xlink:href="#i"/><use transform="matrix(0.055555555555555546,0,0,0.055555555555555546,37.77777777777777,0)" xlink:href="#j"/><use transform="matrix(0.055555555555555546,0,0,0.055555555555555546,44.38888888888888,0)" xlink:href="#k"/></g><path d="M233-177c-1 41-23 64-60 70L243 0h-38l-65-103H63V0H30v-248c88 3 205-21 203 71zM63-129c60-2 137 13 137-47 0-61-80-42-137-45v92" id="l"/><path d="M135-143c-3-34-86-38-87 0 15 53 115 12 119 90S17 21 10-45l28-5c4 36 97 45 98 0-10-56-113-15-118-90-4-57 82-63 122-42 12 7 21 19 24 35" id="m"/><path d="M115-194c55 1 70 41 70 98S169 2 115 4C84 4 66-9 55-30l1 105H24l-1-265h31l2 30c10-21 28-34 59-34zm-8 174c40 0 45-34 45-75s-6-73-45-74c-42 0-51 32-51 76 0 43 10 73 51 73" id="n"/><path d="M100-194c62-1 85 37 85 99 1 63-27 99-86 99S16-35 15-95c0-66 28-99 85-99zM99-20c44 1 53-31 53-75 0-43-8-75-51-75s-53 32-53 75 10 74 51 75" id="o"/><path d="M117-194c89-4 53 116 60 194h-32v-121c0-31-8-49-39-48C34-167 62-67 57 0H25l-1-190h30c1 10-1 24 2 32 11-22 29-35 61-36" id="p"/><g id="b"><use transform="matrix(0.055555555555555546,0,0,0.055555555555555546,0,0)" xlink:href="#l"/><use transform="matrix(0.055555555555555546,0,0,0.055555555555555546,14.388888888888886,0)" xlink:href="#i"/><use transform="matrix(0.055555555555555546,0,0,0.055555555555555546,25.499999999999993,0)" xlink:href="#m"/><use transform="matrix(0.055555555555555546,0,0,0.055555555555555546,35.49999999999999,0)" xlink:href="#n"/><use transform="matrix(0.055555555555555546,0,0,0.055555555555555546,46.6111111111111,0)" xlink:href="#o"/><use transform="matrix(0.055555555555555546,0,0,0.055555555555555546,57.722222222222214,0)" xlink:href="#p"/><use transform="matrix(0.055555555555555546,0,0,0.055555555555555546,68.83333333333331,0)" xlink:href="#m"/><use transform="matrix(0.055555555555555546,0,0,0.055555555555555546,78.83333333333331,0)" xlink:href="#i"/></g><path d="M185-189c-5-48-123-54-124 2 14 75 158 14 163 119 3 78-121 87-175 55-17-10-28-26-33-46l33-7c5 56 141 63 141-1 0-78-155-14-162-118-5-82 145-84 179-34 5 7 8 16 11 25" id="q"/><path d="M141-36C126-15 110 5 73 4 37 3 15-17 15-53c-1-64 63-63 125-63 3-35-9-54-41-54-24 1-41 7-42 31l-33-3c5-37 33-52 76-52 45 0 72 20 72 64v82c-1 20 7 32 28 27v20c-31 9-61-2-59-35zM48-53c0 20 12 33 32 33 41-3 63-29 60-74-43 2-92-5-92 41" id="r"/><path d="M59-47c-2 24 18 29 38 22v24C64 9 27 4 27-40v-127H5v-23h24l9-43h21v43h35v23H59v120" id="s"/><path d="M24 0v-261h32V0H24" id="t"/><path d="M24-231v-30h32v30H24zM24 0v-190h32V0H24" id="u"/><g id="c"><use transform="matrix(0.06172839506172839,0,0,0.06172839506172839,0,0)" xlink:href="#q"/><use transform="matrix(0.06172839506172839,0,0,0.06172839506172839,14.814814814814813,0)" xlink:href="#r"/><use transform="matrix(0.06172839506172839,0,0,0.06172839506172839,27.160493827160494,0)" xlink:href="#s"/><use transform="matrix(0.06172839506172839,0,0,0.06172839506172839,33.333333333333336,0)" xlink:href="#i"/><use transform="matrix(0.06172839506172839,0,0,0.06172839506172839,45.67901234567901,0)" xlink:href="#t"/><use transform="matrix(0.06172839506172839,0,0,0.06172839506172839,50.55555555555556,0)" xlink:href="#t"/><use transform="matrix(0.06172839506172839,0,0,0.06172839506172839,55.4320987654321,0)" xlink:href="#u"/><use transform="matrix(0.06172839506172839,0,0,0.06172839506172839,60.308641975308646,0)" xlink:href="#s"/><use transform="matrix(0.06172839506172839,0,0,0.06172839506172839,66.48148148148148,0)" xlink:href="#i"/></g><path fill="#c92d39" d="M63-220v92h138v28H63V0H30v-248h175v28H63" id="v"/><path fill="#c92d39" d="M24-231v-30h32v30H24zM24 0v-190h32V0H24" id="w"/><path fill="#c92d39" d="M114-163C36-179 61-72 57 0H25l-1-190h30c1 12-1 29 2 39 6-27 23-49 58-41v29" id="x"/><path fill="#c92d39" d="M100-194c63 0 86 42 84 106H49c0 40 14 67 53 68 26 1 43-12 49-29l28 8c-11 28-37 45-77 45C44 4 14-33 15-96c1-61 26-98 85-98zm52 81c6-60-76-77-97-28-3 7-6 17-6 28h103" id="y"/><path fill="#c92d39" d="M206 0h-36l-40-164L89 0H53L-1-190h32L70-26l43-164h34l41 164 42-164h31" id="z"/><path fill="#c92d39" d="M141-36C126-15 110 5 73 4 37 3 15-17 15-53c-1-64 63-63 125-63 3-35-9-54-41-54-24 1-41 7-42 31l-33-3c5-37 33-52 76-52 45 0 72 20 72 64v82c-1 20 7 32 28 27v20c-31 9-61-2-59-35zM48-53c0 20 12 33 32 33 41-3 63-29 60-74-43 2-92-5-92 41" id="A"/><path fill="#c92d39" d="M24 0v-261h32V0H24" id="B"/><g id="d"><use transform="matrix(0.055555555555555546,0,0,0.055555555555555546,0,0)" xlink:href="#v"/><use transform="matrix(0.055555555555555546,0,0,0.055555555555555546,12.166666666666664,0)" xlink:href="#w"/><use transform="matrix(0.055555555555555546,0,0,0.055555555555555546,16.555555555555554,0)" xlink:href="#x"/><use transform="matrix(0.055555555555555546,0,0,0.055555555555555546,23.166666666666664,0)" xlink:href="#y"/><use transform="matrix(0.055555555555555546,0,0,0.055555555555555546,34.27777777777777,0)" xlink:href="#z"/><use transform="matrix(0.055555555555555546,0,0,0.055555555555555546,48.66666666666666,0)" xlink:href="#A"/><use transform="matrix(0.055555555555555546,0,0,0.055555555555555546,59.777777777777764,0)" xlink:href="#B"/><use transform="matrix(0.055555555555555546,0,0,0.055555555555555546,64.16666666666666,0)" xlink:href="#B"/></g><path d="M232-93c-1 65-40 97-104 97C67 4 28-28 28-90v-158h33c8 89-33 224 67 224 102 0 64-133 71-224h33v155" id="C"/><path d="M33 0v-248h34V0H33" id="D"/><g id="e"><use transform="matrix(0.06172839506172839,0,0,0.06172839506172839,0,0)" xlink:href="#C"/><use transform="matrix(0.06172839506172839,0,0,0.06172839506172839,15.987654320987653,0)" xlink:href="#D"/></g><path d="M212-179c-10-28-35-45-73-45-59 0-87 40-87 99 0 60 29 101 89 101 43 0 62-24 78-52l27 14C228-24 195 4 139 4 59 4 22-46 18-125c-6-104 99-153 187-111 19 9 31 26 39 46" id="E"/><path d="M85-194c31 0 48 13 60 33l-1-100h32l1 261h-30c-2-10 0-23-3-31C134-8 116 4 85 4 32 4 16-35 15-94c0-66 23-100 70-100zm9 24c-40 0-46 34-46 75 0 40 6 74 45 74 42 0 51-32 51-76 0-42-9-74-50-73" id="F"/><g id="f"><use transform="matrix(0.06172839506172839,0,0,0.06172839506172839,0,0)" xlink:href="#E"/><use transform="matrix(0.06172839506172839,0,0,0.06172839506172839,15.987654320987653,0)" xlink:href="#t"/><use transform="matrix(0.06172839506172839,0,0,0.06172839506172839,20.864197530864196,0)" xlink:href="#o"/><use transform="matrix(0.06172839506172839,0,0,0.06172839506172839,33.20987654320987,0)" xlink:href="#h"/><use transform="matrix(0.06172839506172839,0,0,0.06172839506172839,45.55555555555555,0)" xlink:href="#F"/></g></defs></g></svg>