<svg xmlns="http://www.w3.org/2000/svg" xmlns:xlink="http://www.w3.org/1999/xlink" xmlns:lucid="lucid" width="807.89" height="600"><g transform="translate(-583.1093161078588 -220.66666666666663)" lucid:page-tab-id="0_0"><path d="M769.33 706.67c0-3.32 2.7-6 6-6h128c3.32 0 6 2.68 6 6v88c0 3.3-2.68 6-6 6h-128c-3.3 0-6-2.7-6-6zM939.33 446.67c0-3.32 2.7-6 6-6h228c3.32 0 6 2.68 6 6v168c0 3.3-2.68 6-6 6h-228c-3.3 0-6-2.7-6-6zM979.33 246.67c0-3.32 2.7-6 6-6h148c3.32 0 6 2.68 6 6v68c0 3.3-2.68 6-6 6h-148c-3.3 0-6-2.7-6-6z" stroke="#5e5e5e" stroke-width="3" fill="#fff"/><use xlink:href="#a" transform="matrix(1,0,0,1,991.3333333333333,252.66666666666663) translate(56.91975308641975 31.77777777777778)"/><path d="M1034 323.17V644c0 3.3-2.7 6-6 6H813.85c-3.3 0-6 2.7-6 6v24.66" stroke="#5e5e5e" stroke-width="2" fill="none"/><path d="M1035 323.2h-2v-1.03h2z" fill="#5e5e5e"/><path d="M807.85 695.93l-4.63-14.27h9.27z" stroke="#5e5e5e" stroke-width="2" fill="#5e5e5e"/><path d="M1089.1 340.67V664c0 3.3-2.7 6-6 6H889.97c-3.3 0-6 2.7-6 6v22.17" stroke="#5e5e5e" stroke-width="2" fill="none"/><path d="M1089.1 325.4l4.62 14.27h-9.27z" stroke="#5e5e5e" stroke-width="2" fill="#5e5e5e"/><path d="M884.98 699.17h-2v-1.03h2z" fill="#5e5e5e"/><path d="M1006 427.33c-3.3 0-6-2.68-6-6v-94.66c0-3.32 2.7-6 6-6h13.33c3.32 0 6 2.68 6 6v94.66c0 3.32-2.68 6-6 6z" stroke="#000" stroke-opacity="0" stroke-width="3" fill="#fff" fill-opacity="0"/><use xlink:href="#b" transform="matrix(6.123233995736766e-17,-1,1,6.123233995736766e-17,1005,422.33333333333314) translate(21.30555555555556 15.999999999999998)"/><path d="M1090.47 496c-3.3 0-6-2.68-6-6V262c0-3.3 2.7-6 6-6h48c3.3 0 6 2.7 6 6v228c0 3.32-2.7 6-6 6z" stroke="#000" stroke-opacity="0" stroke-width="3" fill="#fff" fill-opacity="0"/><use xlink:href="#c" transform="matrix(6.123233995736766e-17,-1,1,6.123233995736766e-17,1089.4708263196624,491.00335983289096) translate(70.02777777777779 28.5)"/><path d="M968.38 455.03c0-3.32 2.7-6 6-6h160.67c3.3 0 6 2.68 6 6v14c0 3.3-2.7 6-6 6H974.38c-3.3 0-6-2.7-6-6z" stroke="#000" stroke-opacity="0" stroke-width="3" fill="#fff"/><use xlink:href="#d" transform="matrix(1,0,0,1,973.3820509102534,454.0251987466827) translate(10.049382716049394 17.77777777777778)"/><use xlink:href="#e" transform="matrix(1,0,0,1,973.3820509102534,454.0251987466827) translate(87.64197530864199 17.77777777777778)"/><path d="M869.33 720.67c11.05 0 20 13.43 20 30s-8.95 30-20 30h-60c-11.04 0-20-13.43-20-30s8.96-30 20-30z" stroke="#5e5e5e" stroke-width="3" fill="#fff"/><use xlink:href="#f" transform="matrix(1,0,0,1,794.3333333333333,725.6666666666666) translate(5.5864197530864175 30.27777777777778)"/><path d="M992 706.67c0-3.32 2.7-6 6-6h128c3.3 0 6 2.68 6 6v88c0 3.3-2.7 6-6 6H998c-3.3 0-6-2.7-6-6z" stroke="#5e5e5e" stroke-width="3" fill="#fff"/><path d="M1092 720.67c11.05 0 20 13.43 20 30s-8.95 30-20 30h-60c-11.05 0-20-13.43-20-30s8.95-30 20-30z" stroke="#5e5e5e" stroke-width="3" fill="#fff"/><use xlink:href="#f" transform="matrix(1,0,0,1,1017,725.6666666666666) translate(5.5864197530864175 30.27777777777778)"/><path d="M1209.33 706.67c0-3.32 2.7-6 6-6h128c3.32 0 6 2.68 6 6v88c0 3.3-2.68 6-6 6h-128c-3.3 0-6-2.7-6-6z" stroke="#5e5e5e" stroke-width="3" fill="#fff"/><path d="M1309.33 720.67c11.05 0 20 13.43 20 30s-8.95 30-20 30h-60c-11.04 0-20-13.43-20-30s8.96-30 20-30z" stroke="#5e5e5e" stroke-width="3" fill="#fff"/><use xlink:href="#f" transform="matrix(1,0,0,1,1234.3333333333333,725.6666666666666) translate(5.5864197530864175 30.27777777777778)"/><path d="M684.1 659.8h9.66m9.65 0h19.3m9.65 0h19.3m9.65 0h19.3m9.64 0h19.3m9.65 0h19.28m9.65 0h19.3m9.65 0h19.3m9.64 0h19.3m9.65 0h19.3m9.64 0h19.3m9.66 0h19.3m9.64 0h9.65l.07.02.03.07.04.07.06.03h9.65m9.66 0h19.3m9.64 0h19.3m9.65 0h19.3m9.64 0h19.3m9.64 0h19.3m9.64 0h19.3m9.65 0h19.3m9.64 0h19.3m9.65 0h19.3m9.64 0h19.3m9.65 0h19.3m9.65 0h9.65" stroke="#c92d39" stroke-width="2" fill="none"/><path d="M684.13 660.8h-1.02v-2h1.03z" fill="#c92d39"/><path d="M1378.97 660h1.03" stroke="#c92d39" stroke-width="2" fill="none"/><path d="M603.1 635.8c0-3.32 2.7-6 6-6h68c3.32 0 6 2.68 6 6v48c0 3.3-2.68 6-6 6h-68c-3.3 0-6-2.7-6-6z" stroke="#000" stroke-opacity="0" stroke-width="3" fill="#fff" fill-opacity="0"/><use xlink:href="#g" transform="matrix(1,0,0,1,608.1093161078588,634.7892357518067) translate(0.7222222222222285 28.5)"/><defs><path fill="#333" d="M232-93c-1 65-40 97-104 97C67 4 28-28 28-90v-158h33c8 89-33 224 67 224 102 0 64-133 71-224h33v155" id="h"/><path fill="#333" d="M33 0v-248h34V0H33" id="i"/><g id="a"><use transform="matrix(0.06172839506172839,0,0,0.06172839506172839,0,0)" xlink:href="#h"/><use transform="matrix(0.06172839506172839,0,0,0.06172839506172839,15.987654320987653,0)" xlink:href="#i"/></g><path fill="#333" d="M140-251c81 0 123 46 123 126C263-53 228-8 163 1c7 30 30 48 69 40v23c-55 16-95-15-103-61C56-3 17-48 17-125c0-80 42-126 123-126zm0 227c63 0 89-41 89-101s-29-99-89-99c-61 0-89 39-89 99S79-25 140-24" id="j"/><path fill="#333" d="M84 4C-5 8 30-112 23-190h32v120c0 31 7 50 39 49 72-2 45-101 50-169h31l1 190h-30c-1-10 1-25-2-33-11 22-28 36-60 37" id="k"/><path fill="#333" d="M100-194c63 0 86 42 84 106H49c0 40 14 67 53 68 26 1 43-12 49-29l28 8c-11 28-37 45-77 45C44 4 14-33 15-96c1-61 26-98 85-98zm52 81c6-60-76-77-97-28-3 7-6 17-6 28h103" id="l"/><path fill="#333" d="M114-163C36-179 61-72 57 0H25l-1-190h30c1 12-1 29 2 39 6-27 23-49 58-41v29" id="m"/><path fill="#333" d="M179-190L93 31C79 59 56 82 12 73V49c39 6 53-20 64-50L1-190h34L92-34l54-156h33" id="n"/><g id="b"><use transform="matrix(0.055555555555555546,0,0,0.055555555555555546,0,0)" xlink:href="#j"/><use transform="matrix(0.055555555555555546,0,0,0.055555555555555546,15.555555555555554,0)" xlink:href="#k"/><use transform="matrix(0.055555555555555546,0,0,0.055555555555555546,26.666666666666664,0)" xlink:href="#l"/><use transform="matrix(0.055555555555555546,0,0,0.055555555555555546,37.77777777777777,0)" xlink:href="#m"/><use transform="matrix(0.055555555555555546,0,0,0.055555555555555546,44.38888888888888,0)" xlink:href="#n"/></g><path fill="#333" d="M233-177c-1 41-23 64-60 70L243 0h-38l-65-103H63V0H30v-248c88 3 205-21 203 71zM63-129c60-2 137 13 137-47 0-61-80-42-137-45v92" id="o"/><path fill="#333" d="M135-143c-3-34-86-38-87 0 15 53 115 12 119 90S17 21 10-45l28-5c4 36 97 45 98 0-10-56-113-15-118-90-4-57 82-63 122-42 12 7 21 19 24 35" id="p"/><path fill="#333" d="M115-194c55 1 70 41 70 98S169 2 115 4C84 4 66-9 55-30l1 105H24l-1-265h31l2 30c10-21 28-34 59-34zm-8 174c40 0 45-34 45-75s-6-73-45-74c-42 0-51 32-51 76 0 43 10 73 51 73" id="q"/><path fill="#333" d="M100-194c62-1 85 37 85 99 1 63-27 99-86 99S16-35 15-95c0-66 28-99 85-99zM99-20c44 1 53-31 53-75 0-43-8-75-51-75s-53 32-53 75 10 74 51 75" id="r"/><path fill="#333" d="M117-194c89-4 53 116 60 194h-32v-121c0-31-8-49-39-48C34-167 62-67 57 0H25l-1-190h30c1 10-1 24 2 32 11-22 29-35 61-36" id="s"/><g id="c"><use transform="matrix(0.055555555555555546,0,0,0.055555555555555546,0,0)" xlink:href="#o"/><use transform="matrix(0.055555555555555546,0,0,0.055555555555555546,14.388888888888886,0)" xlink:href="#l"/><use transform="matrix(0.055555555555555546,0,0,0.055555555555555546,25.499999999999993,0)" xlink:href="#p"/><use transform="matrix(0.055555555555555546,0,0,0.055555555555555546,35.49999999999999,0)" xlink:href="#q"/><use transform="matrix(0.055555555555555546,0,0,0.055555555555555546,46.6111111111111,0)" xlink:href="#r"/><use transform="matrix(0.055555555555555546,0,0,0.055555555555555546,57.722222222222214,0)" xlink:href="#s"/><use transform="matrix(0.055555555555555546,0,0,0.055555555555555546,68.83333333333331,0)" xlink:href="#p"/><use transform="matrix(0.055555555555555546,0,0,0.055555555555555546,78.83333333333331,0)" xlink:href="#l"/></g><path fill="#333" d="M212-179c-10-28-35-45-73-45-59 0-87 40-87 99 0 60 29 101 89 101 43 0 62-24 78-52l27 14C228-24 195 4 139 4 59 4 22-46 18-125c-6-104 99-153 187-111 19 9 31 26 39 46" id="t"/><path fill="#333" d="M59-47c-2 24 18 29 38 22v24C64 9 27 4 27-40v-127H5v-23h24l9-43h21v43h35v23H59v120" id="u"/><path fill="#333" d="M141-36C126-15 110 5 73 4 37 3 15-17 15-53c-1-64 63-63 125-63 3-35-9-54-41-54-24 1-41 7-42 31l-33-3c5-37 33-52 76-52 45 0 72 20 72 64v82c-1 20 7 32 28 27v20c-31 9-61-2-59-35zM48-53c0 20 12 33 32 33 41-3 63-29 60-74-43 2-92-5-92 41" id="v"/><path fill="#333" d="M24 0v-261h32V0H24" id="w"/><g id="d"><use transform="matrix(0.06172839506172839,0,0,0.06172839506172839,0,0)" xlink:href="#t"/><use transform="matrix(0.06172839506172839,0,0,0.06172839506172839,15.987654320987653,0)" xlink:href="#l"/><use transform="matrix(0.06172839506172839,0,0,0.06172839506172839,28.333333333333332,0)" xlink:href="#s"/><use transform="matrix(0.06172839506172839,0,0,0.06172839506172839,40.67901234567901,0)" xlink:href="#u"/><use transform="matrix(0.06172839506172839,0,0,0.06172839506172839,46.851851851851855,0)" xlink:href="#m"/><use transform="matrix(0.06172839506172839,0,0,0.06172839506172839,54.19753086419753,0)" xlink:href="#v"/><use transform="matrix(0.06172839506172839,0,0,0.06172839506172839,66.54320987654322,0)" xlink:href="#w"/></g><path fill="#333" d="M185-189c-5-48-123-54-124 2 14 75 158 14 163 119 3 78-121 87-175 55-17-10-28-26-33-46l33-7c5 56 141 63 141-1 0-78-155-14-162-118-5-82 145-84 179-34 5 7 8 16 11 25" id="x"/><path fill="#333" d="M108 0H70L1-190h34L89-25l56-165h34" id="y"/><g id="e"><use transform="matrix(0.06172839506172839,0,0,0.06172839506172839,0,0)" xlink:href="#x"/><use transform="matrix(0.06172839506172839,0,0,0.06172839506172839,14.814814814814813,0)" xlink:href="#l"/><use transform="matrix(0.06172839506172839,0,0,0.06172839506172839,27.160493827160494,0)" xlink:href="#m"/><use transform="matrix(0.06172839506172839,0,0,0.06172839506172839,34.50617283950617,0)" xlink:href="#y"/><use transform="matrix(0.06172839506172839,0,0,0.06172839506172839,45.61728395061728,0)" xlink:href="#l"/><use transform="matrix(0.06172839506172839,0,0,0.06172839506172839,57.962962962962955,0)" xlink:href="#m"/></g><path fill="#333" d="M24-231v-30h32v30H24zM24 0v-190h32V0H24" id="z"/><g id="f"><use transform="matrix(0.06172839506172839,0,0,0.06172839506172839,0,0)" xlink:href="#x"/><use transform="matrix(0.06172839506172839,0,0,0.06172839506172839,14.814814814814813,0)" xlink:href="#v"/><use transform="matrix(0.06172839506172839,0,0,0.06172839506172839,27.160493827160494,0)" xlink:href="#u"/><use transform="matrix(0.06172839506172839,0,0,0.06172839506172839,33.333333333333336,0)" xlink:href="#l"/><use transform="matrix(0.06172839506172839,0,0,0.06172839506172839,45.67901234567901,0)" xlink:href="#w"/><use transform="matrix(0.06172839506172839,0,0,0.06172839506172839,50.55555555555556,0)" xlink:href="#w"/><use transform="matrix(0.06172839506172839,0,0,0.06172839506172839,55.4320987654321,0)" xlink:href="#z"/><use transform="matrix(0.06172839506172839,0,0,0.06172839506172839,60.308641975308646,0)" xlink:href="#u"/><use transform="matrix(0.06172839506172839,0,0,0.06172839506172839,66.48148148148148,0)" xlink:href="#l"/></g><path fill="#c92d39" d="M63-220v92h138v28H63V0H30v-248h175v28H63" id="A"/><path fill="#c92d39" d="M24-231v-30h32v30H24zM24 0v-190h32V0H24" id="B"/><path fill="#c92d39" d="M114-163C36-179 61-72 57 0H25l-1-190h30c1 12-1 29 2 39 6-27 23-49 58-41v29" id="C"/><path fill="#c92d39" d="M100-194c63 0 86 42 84 106H49c0 40 14 67 53 68 26 1 43-12 49-29l28 8c-11 28-37 45-77 45C44 4 14-33 15-96c1-61 26-98 85-98zm52 81c6-60-76-77-97-28-3 7-6 17-6 28h103" id="D"/><path fill="#c92d39" d="M206 0h-36l-40-164L89 0H53L-1-190h32L70-26l43-164h34l41 164 42-164h31" id="E"/><path fill="#c92d39" d="M141-36C126-15 110 5 73 4 37 3 15-17 15-53c-1-64 63-63 125-63 3-35-9-54-41-54-24 1-41 7-42 31l-33-3c5-37 33-52 76-52 45 0 72 20 72 64v82c-1 20 7 32 28 27v20c-31 9-61-2-59-35zM48-53c0 20 12 33 32 33 41-3 63-29 60-74-43 2-92-5-92 41" id="F"/><path fill="#c92d39" d="M24 0v-261h32V0H24" id="G"/><g id="g"><use transform="matrix(0.055555555555555546,0,0,0.055555555555555546,0,0)" xlink:href="#A"/><use transform="matrix(0.055555555555555546,0,0,0.055555555555555546,12.166666666666664,0)" xlink:href="#B"/><use transform="matrix(0.055555555555555546,0,0,0.055555555555555546,16.555555555555554,0)" xlink:href="#C"/><use transform="matrix(0.055555555555555546,0,0,0.055555555555555546,23.166666666666664,0)" xlink:href="#D"/><use transform="matrix(0.055555555555555546,0,0,0.055555555555555546,34.27777777777777,0)" xlink:href="#E"/><use transform="matrix(0.055555555555555546,0,0,0.055555555555555546,48.66666666666666,0)" xlink:href="#F"/><use transform="matrix(0.055555555555555546,0,0,0.055555555555555546,59.777777777777764,0)" xlink:href="#G"/><use transform="matrix(0.055555555555555546,0,0,0.055555555555555546,64.16666666666666,0)" xlink:href="#G"/></g></defs></g></svg>