<?xml version="1.0" encoding="UTF-8" standalone="no"?><!DOCTYPE svg PUBLIC "-//W3C//DTD SVG 1.1//EN" "http://www.w3.org/Graphics/SVG/1.1/DTD/svg11.dtd"><!-- Generated by graphviz version 2.40.1 (20161225.0304)
 --><!-- Title: %0 Pages: 1 --><svg xmlns="http://www.w3.org/2000/svg" xmlns:xlink="http://www.w3.org/1999/xlink" width="3210pt" height="2234pt" viewBox="0.00 0.00 3210.00 2233.78">
<g id="graph0" class="graph" transform="scale(1 1) rotate(0) translate(4 2229.7766)">
<title>%0</title>
<polygon fill="#ffffff" stroke="transparent" points="-4,4 -4,-2229.7766 3206,-2229.7766 3206,4 -4,4"/>
<g id="clust1" class="cluster">
<title>cluster_s0</title>
<polygon fill="none" stroke="#d3d3d3" points="8,-8 8,-780.0504 1482,-780.0504 1482,-8 8,-8"/>
<text text-anchor="middle" x="745" y="-763.4504" font-family="Times,serif" font-size="14.00" fill="#000000">agent::09874527-996d-4552-964b-032a52b4beed</text>
<text text-anchor="middle" x="745" y="-746.6504" font-family="Times,serif" font-size="14.00" fill="#000000">20.781ms</text>
</g>
<g id="clust2" class="cluster">
<title>cluster_s2</title>
<polygon fill="none" stroke="#d3d3d3" points="91,-832.8504 91,-2147.7766 376,-2147.7766 376,-832.8504 91,-832.8504"/>
<text text-anchor="middle" x="233.5" y="-2131.1766" font-family="Times,serif" font-size="14.00" fill="#000000">agent::5efcf4b2-bf46-4dba-9286-a92a4799681a</text>
</g>
<g id="clust3" class="cluster">
<title>cluster_s1</title>
<polygon fill="none" stroke="#d3d3d3" points="384,-788.0504 384,-2217.7766 3194,-2217.7766 3194,-788.0504 384,-788.0504"/>
<text text-anchor="middle" x="1789" y="-2201.1766" font-family="Times,serif" font-size="14.00" fill="#000000">agent::df27ca6c-25fc-474d-b760-58d5bda94cb6</text>
<text text-anchor="middle" x="1789" y="-2184.3766" font-family="Times,serif" font-size="14.00" fill="#000000">5.833ms</text>
</g>
<!-- n4 -->
<g id="node1" class="node">
<title>n4</title>
<ellipse fill="none" stroke="#000000" cx="745" cy="-266.4126" rx="229.805" ry="88.6256"/>
<text text-anchor="middle" x="745" y="-312.6126" font-family="Times,serif" font-size="14.00" fill="#000000">limit_operator[107]</text>
<text text-anchor="middle" x="745" y="-295.8126" font-family="Times,serif" font-size="14.00" fill="#000000">self_time: 8µs</text>
<text text-anchor="middle" x="745" y="-279.0126" font-family="Times,serif" font-size="14.00" fill="#000000">total_time: 1.127ms</text>
<text text-anchor="middle" x="745" y="-262.2126" font-family="Times,serif" font-size="14.00" fill="#000000">bytes: 8.3 KiB</text>
<text text-anchor="middle" x="745" y="-245.4126" font-family="Times,serif" font-size="14.00" fill="#000000">records_processed: 31</text>
<text text-anchor="middle" x="745" y="-228.6126" font-family="Times,serif" font-size="14.00" fill="#000000">batches_output: 1</text>
<text text-anchor="middle" x="745" y="-211.8126" font-family="Times,serif" font-size="14.00" fill="#000000">DebugString: Op:Limit(100, cols: [0,1,2,3,4,5,6,7,8,9])</text>
</g>
<!-- n5 -->
<g id="node5" class="node">
<title>n5</title>
<polygon fill="none" stroke="#ffff00" points="963.7265,-141.4006 526.2735,-141.4006 526.2735,-16.1994 963.7265,-16.1994 963.7265,-141.4006"/>
<text text-anchor="middle" x="745" y="-125" font-family="Times,serif" font-size="14.00" fill="#000000">grpc_sink_operator[65]</text>
<text text-anchor="middle" x="745" y="-108.2" font-family="Times,serif" font-size="14.00" fill="#000000">self_time: 1.114ms</text>
<text text-anchor="middle" x="745" y="-91.4" font-family="Times,serif" font-size="14.00" fill="#000000">total_time: 1.114ms</text>
<text text-anchor="middle" x="745" y="-74.6" font-family="Times,serif" font-size="14.00" fill="#000000">bytes: 0 B</text>
<text text-anchor="middle" x="745" y="-57.8" font-family="Times,serif" font-size="14.00" fill="#000000">records_processed: 0</text>
<text text-anchor="middle" x="745" y="-41" font-family="Times,serif" font-size="14.00" fill="#000000">batches_output: 0</text>
<text text-anchor="middle" x="745" y="-24.2" font-family="Times,serif" font-size="14.00" fill="#000000">DebugString: Op:GRPCSink(10.44.17.19:50300, table_name=HTTP Data)</text>
</g>
<!-- n4&#45;&gt;n5 -->
<g id="edge1" class="edge">
<title>n4-&gt;n5</title>
<path fill="none" stroke="#000000" d="M745,-177.5511C745,-168.9324 745,-160.2578 745,-151.8196"/>
<polygon fill="#000000" stroke="#000000" points="748.5001,-151.6636 745,-141.6636 741.5001,-151.6637 748.5001,-151.6636"/>
</g>
<!-- n1 -->
<g id="node2" class="node">
<title>n1</title>
<polygon fill="none" stroke="#ff8c00" points="735.7045,-730.2511 16.2955,-730.2511 16.2955,-605.0498 735.7045,-605.0498 735.7045,-730.2511"/>
<text text-anchor="middle" x="376" y="-713.8504" font-family="Times,serif" font-size="14.00" fill="#000000">grpc_source_operator[108]</text>
<text text-anchor="middle" x="376" y="-697.0504" font-family="Times,serif" font-size="14.00" fill="#000000">self_time: 1.508ms</text>
<text text-anchor="middle" x="376" y="-680.2504" font-family="Times,serif" font-size="14.00" fill="#000000">total_time: 2.802ms</text>
<text text-anchor="middle" x="376" y="-663.4504" font-family="Times,serif" font-size="14.00" fill="#000000">bytes: 8.3 KiB</text>
<text text-anchor="middle" x="376" y="-646.6504" font-family="Times,serif" font-size="14.00" fill="#000000">records_processed: 31</text>
<text text-anchor="middle" x="376" y="-629.8504" font-family="Times,serif" font-size="14.00" fill="#000000">batches_output: 31</text>
<text text-anchor="middle" x="376" y="-613.0504" font-family="Times,serif" font-size="14.00" fill="#000000">DebugString: Op:GRPCSource(time_,remote_addr,remote_port,req_method,req_path,resp_status,resp_body,latency,svc,pod)</text>
</g>
<!-- n3 -->
<g id="node4" class="node">
<title>n3</title>
<ellipse fill="none" stroke="#000000" cx="745" cy="-480.0378" rx="522.975" ry="88.6256"/>
<text text-anchor="middle" x="745" y="-526.2378" font-family="Times,serif" font-size="14.00" fill="#000000">union_operator[110]</text>
<text text-anchor="middle" x="745" y="-509.4378" font-family="Times,serif" font-size="14.00" fill="#000000">self_time: 157µs</text>
<text text-anchor="middle" x="745" y="-492.6378" font-family="Times,serif" font-size="14.00" fill="#000000">total_time: 1.29ms</text>
<text text-anchor="middle" x="745" y="-475.8378" font-family="Times,serif" font-size="14.00" fill="#000000">bytes: 8.3 KiB</text>
<text text-anchor="middle" x="745" y="-459.0378" font-family="Times,serif" font-size="14.00" fill="#000000">records_processed: 31</text>
<text text-anchor="middle" x="745" y="-442.2378" font-family="Times,serif" font-size="14.00" fill="#000000">batches_output: 1</text>
<text text-anchor="middle" x="745" y="-425.4378" font-family="Times,serif" font-size="14.00" fill="#000000">DebugString: Op:Union(columns=(time_,remote_addr,remote_port,req_method,req_path,resp_status,resp_body,latency,svc,pod)</text>
</g>
<!-- n1&#45;&gt;n3 -->
<g id="edge2" class="edge">
<title>n1-&gt;n3</title>
<path fill="none" stroke="#000000" d="M499.1281,-605.0478C521.8937,-593.4729 546.0662,-581.1828 570.024,-569.0018"/>
<polygon fill="#000000" stroke="#000000" points="571.8645,-571.9925 579.1922,-564.3404 568.6919,-565.7527 571.8645,-571.9925"/>
</g>
<!-- n2 -->
<g id="node3" class="node">
<title>n2</title>
<polygon fill="none" stroke="#ff8c00" points="1473.7045,-730.2511 754.2955,-730.2511 754.2955,-605.0498 1473.7045,-605.0498 1473.7045,-730.2511"/>
<text text-anchor="middle" x="1114" y="-713.8504" font-family="Times,serif" font-size="14.00" fill="#000000">grpc_source_operator[109]</text>
<text text-anchor="middle" x="1114" y="-697.0504" font-family="Times,serif" font-size="14.00" fill="#000000">self_time: 467µs</text>
<text text-anchor="middle" x="1114" y="-680.2504" font-family="Times,serif" font-size="14.00" fill="#000000">total_time: 509µs</text>
<text text-anchor="middle" x="1114" y="-663.4504" font-family="Times,serif" font-size="14.00" fill="#000000">bytes: 0 B</text>
<text text-anchor="middle" x="1114" y="-646.6504" font-family="Times,serif" font-size="14.00" fill="#000000">records_processed: 0</text>
<text text-anchor="middle" x="1114" y="-629.8504" font-family="Times,serif" font-size="14.00" fill="#000000">batches_output: 29</text>
<text text-anchor="middle" x="1114" y="-613.0504" font-family="Times,serif" font-size="14.00" fill="#000000">DebugString: Op:GRPCSource(time_,remote_addr,remote_port,req_method,req_path,resp_status,resp_body,latency,svc,pod)</text>
</g>
<!-- n2&#45;&gt;n3 -->
<g id="edge3" class="edge">
<title>n2-&gt;n3</title>
<path fill="none" stroke="#000000" d="M990.8719,-605.0478C968.1063,-593.4729 943.9338,-581.1828 919.976,-569.0018"/>
<polygon fill="#000000" stroke="#000000" points="921.3081,-565.7527 910.8078,-564.3404 918.1355,-571.9925 921.3081,-565.7527"/>
</g>
<!-- n3&#45;&gt;n4 -->
<g id="edge4" class="edge">
<title>n3-&gt;n4</title>
<path fill="none" stroke="#000000" d="M745,-390.9884C745,-382.5129 745,-373.8839 745,-365.323"/>
<polygon fill="#000000" stroke="#000000" points="748.5001,-365.3178 745,-355.3178 741.5001,-365.3178 748.5001,-365.3178"/>
</g>
<!-- n18 -->
<g id="node6" class="node">
<title>n18</title>
<ellipse fill="none" stroke="#000000" cx="280" cy="-1046.4631" rx="87.3983" ry="18"/>
<text text-anchor="middle" x="280" y="-1042.2631" font-family="Times,serif" font-size="14.00" fill="#000000">limit_operator[104]</text>
</g>
<!-- n19 -->
<g id="node7" class="node">
<title>n19</title>
<polygon fill="none" stroke="#ffff00" points="362.6727,-876.8504 207.3273,-876.8504 207.3273,-840.8504 362.6727,-840.8504 362.6727,-876.8504"/>
<text text-anchor="middle" x="285" y="-854.6504" font-family="Times,serif" font-size="14.00" fill="#000000">grpc_sink_operator[105]</text>
</g>
<!-- n18&#45;&gt;n19 -->
<g id="edge5" class="edge">
<title>n18-&gt;n19</title>
<path fill="none" stroke="#000000" d="M280.4885,-1028.1324C281.3645,-995.2633 283.2077,-926.1011 284.2466,-887.1188"/>
<polygon fill="#000000" stroke="#000000" points="287.7491,-887.069 284.5169,-876.9793 280.7516,-886.8825 287.7491,-887.069"/>
</g>
<!-- n19&#45;&gt;n1 -->
<g id="edge17" class="edge">
<title>n19-&gt;n1</title>
<path fill="none" stroke="#000000" d="M293.7255,-840.5174C304.7572,-817.3387 324.4033,-776.0602 341.7313,-739.6524"/>
<polygon fill="#000000" stroke="#000000" points="344.9429,-741.0487 346.0801,-730.5151 338.6222,-738.0404 344.9429,-741.0487"/>
</g>
<!-- n13 -->
<g id="node8" class="node">
<title>n13</title>
<polygon fill="none" stroke="#0000ff" points="367.6531,-2114.9766 184.3469,-2114.9766 184.3469,-2078.9766 367.6531,-2078.9766 367.6531,-2114.9766"/>
<text text-anchor="middle" x="276" y="-2092.7766" font-family="Times,serif" font-size="14.00" fill="#000000">memory_source_operator[40]</text>
</g>
<!-- n14 -->
<g id="node10" class="node">
<title>n14</title>
<ellipse fill="none" stroke="#000000" cx="276" cy="-1900.964" rx="82.782" ry="18"/>
<text text-anchor="middle" x="276" y="-1896.764" font-family="Times,serif" font-size="14.00" fill="#000000">filter_operator[53]</text>
</g>
<!-- n13&#45;&gt;n14 -->
<g id="edge6" class="edge">
<title>n13-&gt;n14</title>
<path fill="none" stroke="#000000" d="M276,-2078.8875C276,-2044.6095 276,-1969.9744 276,-1929.1042"/>
<polygon fill="#000000" stroke="#000000" points="279.5001,-1929.0093 276,-1919.0093 272.5001,-1929.0093 279.5001,-1929.0093"/>
</g>
<!-- n15 -->
<g id="node9" class="node">
<title>n15</title>
<ellipse fill="none" stroke="#000000" cx="276" cy="-1687.3387" rx="80.5027" ry="18"/>
<text text-anchor="middle" x="276" y="-1683.1387" font-family="Times,serif" font-size="14.00" fill="#000000">map_operator[44]</text>
</g>
<!-- n16 -->
<g id="node11" class="node">
<title>n16</title>
<ellipse fill="none" stroke="#000000" cx="277" cy="-1473.7135" rx="82.782" ry="18"/>
<text text-anchor="middle" x="277" y="-1469.5135" font-family="Times,serif" font-size="14.00" fill="#000000">filter_operator[62]</text>
</g>
<!-- n15&#45;&gt;n16 -->
<g id="edge7" class="edge">
<title>n15-&gt;n16</title>
<path fill="none" stroke="#000000" d="M276.0853,-1669.1252C276.2598,-1631.8396 276.6589,-1546.5833 276.8675,-1502.0234"/>
<polygon fill="#000000" stroke="#000000" points="280.368,-1501.8973 276.915,-1491.881 273.3681,-1501.8644 280.368,-1501.8973"/>
</g>
<!-- n14&#45;&gt;n15 -->
<g id="edge8" class="edge">
<title>n14-&gt;n15</title>
<path fill="none" stroke="#000000" d="M276,-1882.7504C276,-1845.4649 276,-1760.2085 276,-1715.6487"/>
<polygon fill="#000000" stroke="#000000" points="279.5001,-1715.5062 276,-1705.5062 272.5001,-1715.5062 279.5001,-1715.5062"/>
</g>
<!-- n17 -->
<g id="node12" class="node">
<title>n17</title>
<ellipse fill="none" stroke="#000000" cx="278" cy="-1260.0883" rx="80.5027" ry="18"/>
<text text-anchor="middle" x="278" y="-1255.8883" font-family="Times,serif" font-size="14.00" fill="#000000">map_operator[85]</text>
</g>
<!-- n16&#45;&gt;n17 -->
<g id="edge9" class="edge">
<title>n16-&gt;n17</title>
<path fill="none" stroke="#000000" d="M277.0853,-1455.4999C277.2598,-1418.2144 277.6589,-1332.958 277.8675,-1288.3982"/>
<polygon fill="#000000" stroke="#000000" points="281.368,-1288.2721 277.915,-1278.2557 274.3681,-1288.2392 281.368,-1288.2721"/>
</g>
<!-- n17&#45;&gt;n18 -->
<g id="edge10" class="edge">
<title>n17-&gt;n18</title>
<path fill="none" stroke="#000000" d="M278.1705,-1241.8747C278.5196,-1204.5892 279.3178,-1119.3328 279.735,-1074.773"/>
<polygon fill="#000000" stroke="#000000" points="283.236,-1074.6629 279.8299,-1064.6305 276.2364,-1074.5973 283.236,-1074.6629"/>
</g>
<!-- n11 -->
<g id="node13" class="node">
<title>n11</title>
<ellipse fill="none" stroke="#000000" cx="1549" cy="-1046.4631" rx="229.805" ry="88.6256"/>
<text text-anchor="middle" x="1549" y="-1092.6631" font-family="Times,serif" font-size="14.00" fill="#000000">limit_operator[104]</text>
<text text-anchor="middle" x="1549" y="-1075.8631" font-family="Times,serif" font-size="14.00" fill="#000000">self_time: 20µs</text>
<text text-anchor="middle" x="1549" y="-1059.0631" font-family="Times,serif" font-size="14.00" fill="#000000">total_time: 1.803ms</text>
<text text-anchor="middle" x="1549" y="-1042.2631" font-family="Times,serif" font-size="14.00" fill="#000000">bytes: 0 B</text>
<text text-anchor="middle" x="1549" y="-1025.4631" font-family="Times,serif" font-size="14.00" fill="#000000">records_processed: 0</text>
<text text-anchor="middle" x="1549" y="-1008.6631" font-family="Times,serif" font-size="14.00" fill="#000000">batches_output: 28</text>
<text text-anchor="middle" x="1549" y="-991.8631" font-family="Times,serif" font-size="14.00" fill="#000000">DebugString: Op:Limit(100, cols: [0,1,2,3,4,5,6,7,8,9])</text>
</g>
<!-- n12 -->
<g id="node14" class="node">
<title>n12</title>
<polygon fill="none" stroke="#ffff00" points="1450.7005,-921.4511 1067.2995,-921.4511 1067.2995,-796.2498 1450.7005,-796.2498 1450.7005,-921.4511"/>
<text text-anchor="middle" x="1259" y="-905.0504" font-family="Times,serif" font-size="14.00" fill="#000000">grpc_sink_operator[105]</text>
<text text-anchor="middle" x="1259" y="-888.2504" font-family="Times,serif" font-size="14.00" fill="#000000">self_time: 1.777ms</text>
<text text-anchor="middle" x="1259" y="-871.4504" font-family="Times,serif" font-size="14.00" fill="#000000">total_time: 1.777ms</text>
<text text-anchor="middle" x="1259" y="-854.6504" font-family="Times,serif" font-size="14.00" fill="#000000">bytes: 0 B</text>
<text text-anchor="middle" x="1259" y="-837.8504" font-family="Times,serif" font-size="14.00" fill="#000000">records_processed: 0</text>
<text text-anchor="middle" x="1259" y="-821.0504" font-family="Times,serif" font-size="14.00" fill="#000000">batches_output: 0</text>
<text text-anchor="middle" x="1259" y="-804.2504" font-family="Times,serif" font-size="14.00" fill="#000000">DebugString: Op:GRPCSink(10.44.17.17:59300, source_id=109)</text>
</g>
<!-- n11&#45;&gt;n12 -->
<g id="edge11" class="edge">
<title>n11-&gt;n12</title>
<path fill="none" stroke="#000000" d="M1431.0459,-970.1538C1409.0345,-955.9138 1386.1611,-941.1161 1364.5527,-927.1367"/>
<polygon fill="#000000" stroke="#000000" points="1366.3167,-924.1094 1356.0194,-921.6162 1362.5144,-929.9867 1366.3167,-924.1094"/>
</g>
<!-- n12&#45;&gt;n2 -->
<g id="edge18" class="edge">
<title>n12-&gt;n2</title>
<path fill="none" stroke="#000000" d="M1211.5216,-796.2444C1197.5012,-777.7569 1182.058,-757.3931 1167.6764,-738.4292"/>
<polygon fill="#000000" stroke="#000000" points="1170.4165,-736.2501 1161.5851,-730.3971 1164.839,-740.48 1170.4165,-736.2501"/>
</g>
<!-- n6 -->
<g id="node15" class="node">
<title>n6</title>
<polygon fill="none" stroke="#0000ff" points="2153.8348,-2168.3771 1424.1652,-2168.3771 1424.1652,-2025.576 2153.8348,-2025.576 2153.8348,-2168.3771"/>
<text text-anchor="middle" x="1789" y="-2151.5766" font-family="Times,serif" font-size="14.00" fill="#000000">memory_source_operator[40]</text>
<text text-anchor="middle" x="1789" y="-2134.7766" font-family="Times,serif" font-size="14.00" fill="#000000">self_time: 1.504ms</text>
<text text-anchor="middle" x="1789" y="-2117.9766" font-family="Times,serif" font-size="14.00" fill="#000000">total_time: 4.951ms</text>
<text text-anchor="middle" x="1789" y="-2101.1766" font-family="Times,serif" font-size="14.00" fill="#000000">bytes: 1.1 MiB</text>
<text text-anchor="middle" x="1789" y="-2084.3766" font-family="Times,serif" font-size="14.00" fill="#000000">records_processed: 3197</text>
<text text-anchor="middle" x="1789" y="-2067.5766" font-family="Times,serif" font-size="14.00" fill="#000000">batches_output: 28</text>
<text text-anchor="middle" x="1789" y="-2050.7766" font-family="Times,serif" font-size="14.00" fill="#000000">DebugString: Op:MemorySource(http_events, [0,1,2,3,12,13,17,19,21], start=1721152595428666000, end=0, streaming=false)</text>
<text text-anchor="middle" x="1789" y="-2033.9766" font-family="Times,serif" font-size="14.00" fill="#000000">streaming: false</text>
</g>
<!-- n7 -->
<g id="node17" class="node">
<title>n7</title>
<ellipse fill="none" stroke="#000000" cx="1789" cy="-1900.964" rx="349.3215" ry="88.6256"/>
<text text-anchor="middle" x="1789" y="-1947.164" font-family="Times,serif" font-size="14.00" fill="#000000">filter_operator[53]</text>
<text text-anchor="middle" x="1789" y="-1930.364" font-family="Times,serif" font-size="14.00" fill="#000000">self_time: 527µs</text>
<text text-anchor="middle" x="1789" y="-1913.564" font-family="Times,serif" font-size="14.00" fill="#000000">total_time: 3.104ms</text>
<text text-anchor="middle" x="1789" y="-1896.764" font-family="Times,serif" font-size="14.00" fill="#000000">bytes: 1.7 KiB</text>
<text text-anchor="middle" x="1789" y="-1879.964" font-family="Times,serif" font-size="14.00" fill="#000000">records_processed: 13</text>
<text text-anchor="middle" x="1789" y="-1863.164" font-family="Times,serif" font-size="14.00" fill="#000000">batches_output: 28</text>
<text text-anchor="middle" x="1789" y="-1846.364" font-family="Times,serif" font-size="14.00" fill="#000000">DebugString: Op:Filter(fn:equal(node&lt;40&gt;::col[6],500), selected=[0,1,2,3,4,5,6,7,8])</text>
</g>
<!-- n6&#45;&gt;n7 -->
<g id="edge12" class="edge">
<title>n6-&gt;n7</title>
<path fill="none" stroke="#000000" d="M1789,-2025.657C1789,-2017.3173 1789,-2008.6986 1789,-2000.0685"/>
<polygon fill="#000000" stroke="#000000" points="1792.5001,-1999.9483 1789,-1989.9483 1785.5001,-1999.9484 1792.5001,-1999.9483"/>
</g>
<!-- n8 -->
<g id="node16" class="node">
<title>n8</title>
<ellipse fill="none" stroke="#000000" cx="1789" cy="-1687.3387" rx="1396.8287" ry="88.6256"/>
<text text-anchor="middle" x="1789" y="-1733.5387" font-family="Times,serif" font-size="14.00" fill="#000000">map_operator[44]</text>
<text text-anchor="middle" x="1789" y="-1716.7387" font-family="Times,serif" font-size="14.00" fill="#000000">self_time: 260µs</text>
<text text-anchor="middle" x="1789" y="-1699.9387" font-family="Times,serif" font-size="14.00" fill="#000000">total_time: 2.566ms</text>
<text text-anchor="middle" x="1789" y="-1683.1387" font-family="Times,serif" font-size="14.00" fill="#000000">bytes: 2.3 KiB</text>
<text text-anchor="middle" x="1789" y="-1666.3387" font-family="Times,serif" font-size="14.00" fill="#000000">records_processed: 13</text>
<text text-anchor="middle" x="1789" y="-1649.5387" font-family="Times,serif" font-size="14.00" fill="#000000">batches_output: 28</text>
<text text-anchor="middle" x="1789" y="-1632.7387" font-family="Times,serif" font-size="14.00" fill="#000000">DebugString: Op:Map(time_:node&lt;53&gt;::col[0],remote_addr:node&lt;53&gt;::col[2],remote_port:node&lt;53&gt;::col[3],req_method:node&lt;53&gt;::col[4],req_path:node&lt;53&gt;::col[5],resp_status:node&lt;53&gt;::col[6],resp_body:node&lt;53&gt;::col[7],latency:node&lt;53&gt;::col[8],svc:fn:upid_to_service_name(node&lt;53&gt;::col[1]),pod:fn:upid_to_pod_name(node&lt;53&gt;::col[1]))</text>
</g>
<!-- n9 -->
<g id="node18" class="node">
<title>n9</title>
<ellipse fill="none" stroke="#000000" cx="1738" cy="-1473.7135" rx="825.2617" ry="88.6256"/>
<text text-anchor="middle" x="1738" y="-1519.9135" font-family="Times,serif" font-size="14.00" fill="#000000">filter_operator[62]</text>
<text text-anchor="middle" x="1738" y="-1503.1135" font-family="Times,serif" font-size="14.00" fill="#000000">self_time: 422µs</text>
<text text-anchor="middle" x="1738" y="-1486.3135" font-family="Times,serif" font-size="14.00" fill="#000000">total_time: 2.294ms</text>
<text text-anchor="middle" x="1738" y="-1469.5135" font-family="Times,serif" font-size="14.00" fill="#000000">bytes: 0 B</text>
<text text-anchor="middle" x="1738" y="-1452.7135" font-family="Times,serif" font-size="14.00" fill="#000000">records_processed: 0</text>
<text text-anchor="middle" x="1738" y="-1435.9135" font-family="Times,serif" font-size="14.00" fill="#000000">batches_output: 28</text>
<text text-anchor="middle" x="1738" y="-1419.1135" font-family="Times,serif" font-size="14.00" fill="#000000">DebugString: Op:Filter(fn:logicalAnd(fn:contains(node&lt;44&gt;::col[8],"px-sock-shop/carts"),fn:logicalAnd(fn:contains(node&lt;44&gt;::col[9],""),fn:contains(node&lt;44&gt;::col[4],""))), selected=[0,1,2,3,4,5,6,7,8,9])</text>
</g>
<!-- n8&#45;&gt;n9 -->
<g id="edge13" class="edge">
<title>n8-&gt;n9</title>
<path fill="none" stroke="#000000" d="M1767.7407,-1598.2893C1765.7173,-1589.8138 1763.6573,-1581.1848 1761.6135,-1572.6239"/>
<polygon fill="#000000" stroke="#000000" points="1764.9514,-1571.5326 1759.2249,-1562.6187 1758.1427,-1573.1581 1764.9514,-1571.5326"/>
</g>
<!-- n7&#45;&gt;n8 -->
<g id="edge14" class="edge">
<title>n7-&gt;n8</title>
<path fill="none" stroke="#000000" d="M1789,-1811.9145C1789,-1803.4391 1789,-1794.8101 1789,-1786.2491"/>
<polygon fill="#000000" stroke="#000000" points="1792.5001,-1786.2439 1789,-1776.2439 1785.5001,-1786.2439 1792.5001,-1786.2439"/>
</g>
<!-- n10 -->
<g id="node19" class="node">
<title>n10</title>
<ellipse fill="none" stroke="#000000" cx="1688" cy="-1260.0883" rx="1195.8628" ry="88.6256"/>
<text text-anchor="middle" x="1688" y="-1306.2883" font-family="Times,serif" font-size="14.00" fill="#000000">map_operator[85]</text>
<text text-anchor="middle" x="1688" y="-1289.4883" font-family="Times,serif" font-size="14.00" fill="#000000">self_time: 56µs</text>
<text text-anchor="middle" x="1688" y="-1272.6883" font-family="Times,serif" font-size="14.00" fill="#000000">total_time: 1.866ms</text>
<text text-anchor="middle" x="1688" y="-1255.8883" font-family="Times,serif" font-size="14.00" fill="#000000">bytes: 0 B</text>
<text text-anchor="middle" x="1688" y="-1239.0883" font-family="Times,serif" font-size="14.00" fill="#000000">records_processed: 0</text>
<text text-anchor="middle" x="1688" y="-1222.2883" font-family="Times,serif" font-size="14.00" fill="#000000">batches_output: 28</text>
<text text-anchor="middle" x="1688" y="-1205.4883" font-family="Times,serif" font-size="14.00" fill="#000000">DebugString: Op:Map(time_:node&lt;62&gt;::col[0],remote_addr:node&lt;62&gt;::col[1],remote_port:node&lt;62&gt;::col[2],req_method:node&lt;62&gt;::col[3],req_path:node&lt;62&gt;::col[4],resp_status:node&lt;62&gt;::col[5],resp_body:node&lt;62&gt;::col[6],latency:node&lt;62&gt;::col[7],svc:node&lt;62&gt;::col[8],pod:node&lt;62&gt;::col[9])</text>
</g>
<!-- n9&#45;&gt;n10 -->
<g id="edge15" class="edge">
<title>n9-&gt;n10</title>
<path fill="none" stroke="#000000" d="M1717.1576,-1384.6641C1715.1738,-1376.1886 1713.1542,-1367.5596 1711.1505,-1358.9987"/>
<polygon fill="#000000" stroke="#000000" points="1714.4956,-1357.9327 1708.8087,-1348.9935 1707.6798,-1359.528 1714.4956,-1357.9327"/>
</g>
<!-- n10&#45;&gt;n11 -->
<g id="edge16" class="edge">
<title>n10-&gt;n11</title>
<path fill="none" stroke="#000000" d="M1630.2591,-1171.3478C1623.8554,-1161.5062 1617.3145,-1151.4538 1610.8626,-1141.5379"/>
<polygon fill="#000000" stroke="#000000" points="1613.6088,-1139.3409 1605.2212,-1132.8679 1607.7415,-1143.1586 1613.6088,-1139.3409"/>
</g>
</g>
</svg>