<svg width="960" height="240" viewBox="0 0 960 240" fill="none" xmlns="http://www.w3.org/2000/svg">
<rect width="960" height="240" fill="white"/>
<path d="M734.688 192.096C733.579 192.096 732.576 191.851 731.68 191.36C730.795 190.869 730.096 190.192 729.584 189.328C729.083 188.453 728.832 187.477 728.832 186.4C728.832 185.323 729.083 184.352 729.584 183.488C730.096 182.613 730.8 181.931 731.696 181.44C732.592 180.949 733.595 180.704 734.704 180.704C735.536 180.704 736.304 180.843 737.008 181.12C737.712 181.397 738.309 181.803 738.8 182.336L738.048 183.088C737.173 182.203 736.069 181.76 734.736 181.76C733.851 181.76 733.045 181.963 732.32 182.368C731.595 182.773 731.024 183.328 730.608 184.032C730.203 184.736 730 185.525 730 186.4C730 187.275 730.203 188.064 730.608 188.768C731.024 189.472 731.595 190.027 732.32 190.432C733.045 190.837 733.851 191.04 734.736 191.04C736.08 191.04 737.184 190.592 738.048 189.696L738.8 190.448C738.309 190.981 737.707 191.392 736.992 191.68C736.288 191.957 735.52 192.096 734.688 192.096ZM744.149 192.08C743.338 192.08 742.608 191.899 741.957 191.536C741.306 191.163 740.794 190.651 740.421 190C740.048 189.349 739.861 188.613 739.861 187.792C739.861 186.971 740.048 186.235 740.421 185.584C740.794 184.933 741.306 184.427 741.957 184.064C742.608 183.701 743.338 183.52 744.149 183.52C744.96 183.52 745.69 183.701 746.341 184.064C746.992 184.427 747.498 184.933 747.861 185.584C748.234 186.235 748.421 186.971 748.421 187.792C748.421 188.613 748.234 189.349 747.861 190C747.498 190.651 746.992 191.163 746.341 191.536C745.69 191.899 744.96 192.08 744.149 192.08ZM744.149 191.072C744.746 191.072 745.28 190.939 745.749 190.672C746.229 190.395 746.602 190.005 746.869 189.504C747.136 189.003 747.269 188.432 747.269 187.792C747.269 187.152 747.136 186.581 746.869 186.08C746.602 185.579 746.229 185.195 745.749 184.928C745.28 184.651 744.746 184.512 744.149 184.512C743.552 184.512 743.013 184.651 742.533 184.928C742.064 185.195 741.69 185.579 741.413 186.08C741.146 186.581 741.013 187.152 741.013 187.792C741.013 188.432 741.146 189.003 741.413 189.504C741.69 190.005 742.064 190.395 742.533 190.672C743.013 190.939 743.552 191.072 744.149 191.072ZM750.74 180.128H751.876V192H750.74V180.128ZM755.037 180.128H756.173V192H755.037V180.128ZM766.662 188.144H759.622C759.686 189.019 760.022 189.728 760.63 190.272C761.238 190.805 762.006 191.072 762.934 191.072C763.457 191.072 763.937 190.981 764.374 190.8C764.811 190.608 765.19 190.331 765.51 189.968L766.15 190.704C765.777 191.152 765.307 191.493 764.742 191.728C764.187 191.963 763.574 192.08 762.902 192.08C762.038 192.08 761.27 191.899 760.598 191.536C759.937 191.163 759.419 190.651 759.046 190C758.673 189.349 758.486 188.613 758.486 187.792C758.486 186.971 758.662 186.235 759.014 185.584C759.377 184.933 759.867 184.427 760.486 184.064C761.115 183.701 761.819 183.52 762.598 183.52C763.377 183.52 764.075 183.701 764.694 184.064C765.313 184.427 765.798 184.933 766.15 185.584C766.502 186.224 766.678 186.96 766.678 187.792L766.662 188.144ZM762.598 184.496C761.787 184.496 761.105 184.757 760.55 185.28C760.006 185.792 759.697 186.464 759.622 187.296H765.59C765.515 186.464 765.201 185.792 764.646 185.28C764.102 184.757 763.419 184.496 762.598 184.496ZM772.478 192.08C771.646 192.08 770.9 191.899 770.238 191.536C769.588 191.173 769.076 190.667 768.702 190.016C768.329 189.355 768.142 188.613 768.142 187.792C768.142 186.971 768.329 186.235 768.702 185.584C769.076 184.933 769.588 184.427 770.238 184.064C770.9 183.701 771.646 183.52 772.478 183.52C773.204 183.52 773.849 183.664 774.414 183.952C774.99 184.229 775.444 184.64 775.774 185.184L774.926 185.76C774.649 185.344 774.297 185.035 773.87 184.832C773.444 184.619 772.98 184.512 772.478 184.512C771.87 184.512 771.321 184.651 770.83 184.928C770.35 185.195 769.972 185.579 769.694 186.08C769.428 186.581 769.294 187.152 769.294 187.792C769.294 188.443 769.428 189.019 769.694 189.52C769.972 190.011 770.35 190.395 770.83 190.672C771.321 190.939 771.87 191.072 772.478 191.072C772.98 191.072 773.444 190.971 773.87 190.768C774.297 190.565 774.649 190.256 774.926 189.84L775.774 190.416C775.444 190.96 774.99 191.376 774.414 191.664C773.838 191.941 773.193 192.08 772.478 192.08ZM782.532 191.488C782.318 191.68 782.052 191.829 781.732 191.936C781.422 192.032 781.097 192.08 780.756 192.08C779.966 192.08 779.358 191.867 778.932 191.44C778.505 191.013 778.292 190.411 778.292 189.632V184.544H776.788V183.584H778.292V181.744H779.428V183.584H781.988V184.544H779.428V189.568C779.428 190.069 779.55 190.453 779.796 190.72C780.052 190.976 780.414 191.104 780.884 191.104C781.118 191.104 781.342 191.067 781.556 190.992C781.78 190.917 781.972 190.811 782.132 190.672L782.532 191.488ZM784.884 190.336C785.129 190.336 785.332 190.421 785.492 190.592C785.652 190.752 785.732 190.955 785.732 191.2C785.732 191.328 785.711 191.467 785.668 191.616C785.636 191.765 785.583 191.936 785.508 192.128L784.836 194.336H784.068L784.612 192.016C784.441 191.963 784.303 191.867 784.196 191.728C784.089 191.579 784.036 191.403 784.036 191.2C784.036 190.955 784.116 190.752 784.276 190.592C784.436 190.421 784.639 190.336 784.884 190.336ZM794.59 192.08C793.907 192.08 793.251 191.984 792.622 191.792C792.003 191.589 791.518 191.339 791.166 191.04L791.678 190.144C792.03 190.421 792.473 190.651 793.006 190.832C793.539 191.003 794.094 191.088 794.67 191.088C795.438 191.088 796.003 190.971 796.366 190.736C796.739 190.491 796.926 190.149 796.926 189.712C796.926 189.403 796.825 189.163 796.622 188.992C796.419 188.811 796.163 188.677 795.854 188.592C795.545 188.496 795.134 188.405 794.622 188.32C793.939 188.192 793.39 188.064 792.974 187.936C792.558 187.797 792.201 187.568 791.902 187.248C791.614 186.928 791.47 186.485 791.47 185.92C791.47 185.216 791.763 184.64 792.35 184.192C792.937 183.744 793.753 183.52 794.798 183.52C795.342 183.52 795.886 183.595 796.43 183.744C796.974 183.883 797.422 184.069 797.774 184.304L797.278 185.216C796.585 184.736 795.758 184.496 794.798 184.496C794.073 184.496 793.523 184.624 793.15 184.88C792.787 185.136 792.606 185.472 792.606 185.888C792.606 186.208 792.707 186.464 792.91 186.656C793.123 186.848 793.385 186.992 793.694 187.088C794.003 187.173 794.43 187.264 794.974 187.36C795.646 187.488 796.185 187.616 796.59 187.744C796.995 187.872 797.342 188.091 797.63 188.4C797.918 188.709 798.062 189.136 798.062 189.68C798.062 190.416 797.753 191.003 797.134 191.44C796.526 191.867 795.678 192.08 794.59 192.08ZM804.594 191.488C804.381 191.68 804.114 191.829 803.794 191.936C803.485 192.032 803.159 192.08 802.818 192.08C802.029 192.08 801.421 191.867 800.994 191.44C800.567 191.013 800.354 190.411 800.354 189.632V184.544H798.85V183.584H800.354V181.744H801.49V183.584H804.05V184.544H801.49V189.568C801.49 190.069 801.613 190.453 801.858 190.72C802.114 190.976 802.477 191.104 802.946 191.104C803.181 191.104 803.405 191.067 803.618 190.992C803.842 190.917 804.034 190.811 804.194 190.672L804.594 191.488ZM809.805 192.08C808.995 192.08 808.264 191.899 807.613 191.536C806.963 191.163 806.451 190.651 806.077 190C805.704 189.349 805.517 188.613 805.517 187.792C805.517 186.971 805.704 186.235 806.077 185.584C806.451 184.933 806.963 184.427 807.613 184.064C808.264 183.701 808.995 183.52 809.805 183.52C810.616 183.52 811.347 183.701 811.997 184.064C812.648 184.427 813.155 184.933 813.517 185.584C813.891 186.235 814.077 186.971 814.077 187.792C814.077 188.613 813.891 189.349 813.517 190C813.155 190.651 812.648 191.163 811.997 191.536C811.347 191.899 810.616 192.08 809.805 192.08ZM809.805 191.072C810.403 191.072 810.936 190.939 811.405 190.672C811.885 190.395 812.259 190.005 812.525 189.504C812.792 189.003 812.925 188.432 812.925 187.792C812.925 187.152 812.792 186.581 812.525 186.08C812.259 185.579 811.885 185.195 811.405 184.928C810.936 184.651 810.403 184.512 809.805 184.512C809.208 184.512 808.669 184.651 808.189 184.928C807.72 185.195 807.347 185.579 807.069 186.08C806.803 186.581 806.669 187.152 806.669 187.792C806.669 188.432 806.803 189.003 807.069 189.504C807.347 190.005 807.72 190.395 808.189 190.672C808.669 190.939 809.208 191.072 809.805 191.072ZM817.485 185.232C817.751 184.667 818.146 184.24 818.669 183.952C819.202 183.664 819.858 183.52 820.637 183.52V184.624L820.365 184.608C819.479 184.608 818.786 184.88 818.285 185.424C817.783 185.968 817.533 186.731 817.533 187.712V192H816.397V183.584H817.485V185.232ZM829.943 188.144H822.903C822.967 189.019 823.303 189.728 823.911 190.272C824.519 190.805 825.287 191.072 826.215 191.072C826.738 191.072 827.218 190.981 827.655 190.8C828.093 190.608 828.471 190.331 828.791 189.968L829.431 190.704C829.058 191.152 828.589 191.493 828.023 191.728C827.469 191.963 826.855 192.08 826.183 192.08C825.319 192.08 824.551 191.899 823.879 191.536C823.218 191.163 822.701 190.651 822.327 190C821.954 189.349 821.767 188.613 821.767 187.792C821.767 186.971 821.943 186.235 822.295 185.584C822.658 184.933 823.149 184.427 823.767 184.064C824.397 183.701 825.101 183.52 825.879 183.52C826.658 183.52 827.357 183.701 827.975 184.064C828.594 184.427 829.079 184.933 829.431 185.584C829.783 186.224 829.959 186.96 829.959 187.792L829.943 188.144ZM825.879 184.496C825.069 184.496 824.386 184.757 823.831 185.28C823.287 185.792 822.978 186.464 822.903 187.296H828.871C828.797 186.464 828.482 185.792 827.927 185.28C827.383 184.757 826.701 184.496 825.879 184.496ZM832.4 190.336C832.645 190.336 832.848 190.421 833.008 190.592C833.168 190.752 833.248 190.955 833.248 191.2C833.248 191.328 833.226 191.467 833.184 191.616C833.152 191.765 833.098 191.936 833.024 192.128L832.352 194.336H831.584L832.128 192.016C831.957 191.963 831.818 191.867 831.712 191.728C831.605 191.579 831.552 191.403 831.552 191.2C831.552 190.955 831.632 190.752 831.792 190.592C831.952 190.421 832.154 190.336 832.4 190.336ZM842.794 183.52C843.892 183.52 844.735 183.797 845.322 184.352C845.908 184.896 846.202 185.707 846.202 186.784V192H845.114V190.688C844.858 191.125 844.479 191.467 843.978 191.712C843.487 191.957 842.9 192.08 842.218 192.08C841.279 192.08 840.532 191.856 839.978 191.408C839.423 190.96 839.146 190.368 839.146 189.632C839.146 188.917 839.402 188.341 839.914 187.904C840.436 187.467 841.263 187.248 842.394 187.248H845.066V186.736C845.066 186.011 844.863 185.461 844.458 185.088C844.052 184.704 843.46 184.512 842.682 184.512C842.148 184.512 841.636 184.603 841.146 184.784C840.655 184.955 840.234 185.195 839.882 185.504L839.37 184.656C839.796 184.293 840.308 184.016 840.906 183.824C841.503 183.621 842.132 183.52 842.794 183.52ZM842.394 191.184C843.034 191.184 843.583 191.04 844.042 190.752C844.5 190.453 844.842 190.027 845.066 189.472V188.096H842.426C840.986 188.096 840.266 188.597 840.266 189.6C840.266 190.091 840.452 190.48 840.826 190.768C841.199 191.045 841.722 191.184 842.394 191.184ZM853.575 183.52C854.631 183.52 855.468 183.829 856.087 184.448C856.716 185.056 857.031 185.947 857.031 187.12V192H855.895V187.232C855.895 186.357 855.676 185.691 855.239 185.232C854.802 184.773 854.178 184.544 853.367 184.544C852.46 184.544 851.74 184.816 851.207 185.36C850.684 185.893 850.423 186.635 850.423 187.584V192H849.287V183.584H850.375V185.136C850.684 184.624 851.111 184.229 851.655 183.952C852.21 183.664 852.85 183.52 853.575 183.52ZM867.827 180.128V192H866.739V190.336C866.397 190.901 865.944 191.333 865.379 191.632C864.824 191.931 864.195 192.08 863.491 192.08C862.701 192.08 861.987 191.899 861.347 191.536C860.707 191.173 860.205 190.667 859.843 190.016C859.48 189.365 859.299 188.624 859.299 187.792C859.299 186.96 859.48 186.219 859.843 185.568C860.205 184.917 860.707 184.416 861.347 184.064C861.987 183.701 862.701 183.52 863.491 183.52C864.173 183.52 864.787 183.664 865.331 183.952C865.885 184.229 866.339 184.64 866.691 185.184V180.128H867.827ZM863.587 191.072C864.173 191.072 864.701 190.939 865.171 190.672C865.651 190.395 866.024 190.005 866.291 189.504C866.568 189.003 866.707 188.432 866.707 187.792C866.707 187.152 866.568 186.581 866.291 186.08C866.024 185.579 865.651 185.195 865.171 184.928C864.701 184.651 864.173 184.512 863.587 184.512C862.989 184.512 862.451 184.651 861.971 184.928C861.501 185.195 861.128 185.579 860.851 186.08C860.584 186.581 860.451 187.152 860.451 187.792C860.451 188.432 860.584 189.003 860.851 189.504C861.128 190.005 861.501 190.395 861.971 190.672C862.451 190.939 862.989 191.072 863.587 191.072ZM879.514 183.52C880.303 183.52 881.018 183.701 881.658 184.064C882.298 184.416 882.799 184.917 883.162 185.568C883.524 186.219 883.706 186.96 883.706 187.792C883.706 188.635 883.524 189.381 883.162 190.032C882.799 190.683 882.298 191.189 881.658 191.552C881.028 191.904 880.314 192.08 879.514 192.08C878.831 192.08 878.212 191.941 877.658 191.664C877.114 191.376 876.666 190.96 876.314 190.416V195.104H875.178V183.584H876.266V185.248C876.607 184.693 877.055 184.267 877.61 183.968C878.175 183.669 878.81 183.52 879.514 183.52ZM879.434 191.072C880.02 191.072 880.554 190.939 881.034 190.672C881.514 190.395 881.887 190.005 882.154 189.504C882.431 189.003 882.57 188.432 882.57 187.792C882.57 187.152 882.431 186.587 882.154 186.096C881.887 185.595 881.514 185.205 881.034 184.928C880.554 184.651 880.02 184.512 879.434 184.512C878.836 184.512 878.298 184.651 877.818 184.928C877.348 185.205 876.975 185.595 876.698 186.096C876.431 186.587 876.298 187.152 876.298 187.792C876.298 188.432 876.431 189.003 876.698 189.504C876.975 190.005 877.348 190.395 877.818 190.672C878.298 190.939 878.836 191.072 879.434 191.072ZM887.11 185.232C887.376 184.667 887.771 184.24 888.294 183.952C888.827 183.664 889.483 183.52 890.262 183.52V184.624L889.99 184.608C889.104 184.608 888.411 184.88 887.91 185.424C887.408 185.968 887.158 186.731 887.158 187.712V192H886.022V183.584H887.11V185.232ZM895.68 192.08C894.87 192.08 894.139 191.899 893.488 191.536C892.838 191.163 892.326 190.651 891.952 190C891.579 189.349 891.392 188.613 891.392 187.792C891.392 186.971 891.579 186.235 891.952 185.584C892.326 184.933 892.838 184.427 893.488 184.064C894.139 183.701 894.87 183.52 895.68 183.52C896.491 183.52 897.222 183.701 897.872 184.064C898.523 184.427 899.03 184.933 899.392 185.584C899.766 186.235 899.952 186.971 899.952 187.792C899.952 188.613 899.766 189.349 899.392 190C899.03 190.651 898.523 191.163 897.872 191.536C897.222 191.899 896.491 192.08 895.68 192.08ZM895.68 191.072C896.278 191.072 896.811 190.939 897.28 190.672C897.76 190.395 898.134 190.005 898.4 189.504C898.667 189.003 898.8 188.432 898.8 187.792C898.8 187.152 898.667 186.581 898.4 186.08C898.134 185.579 897.76 185.195 897.28 184.928C896.811 184.651 896.278 184.512 895.68 184.512C895.083 184.512 894.544 184.651 894.064 184.928C893.595 185.195 893.222 185.579 892.944 186.08C892.678 186.581 892.544 187.152 892.544 187.792C892.544 188.432 892.678 189.003 892.944 189.504C893.222 190.005 893.595 190.395 894.064 190.672C894.544 190.939 895.083 191.072 895.68 191.072ZM905.76 192.08C904.928 192.08 904.181 191.899 903.52 191.536C902.869 191.173 902.357 190.667 901.984 190.016C901.61 189.355 901.424 188.613 901.424 187.792C901.424 186.971 901.61 186.235 901.984 185.584C902.357 184.933 902.869 184.427 903.52 184.064C904.181 183.701 904.928 183.52 905.76 183.52C906.485 183.52 907.13 183.664 907.696 183.952C908.272 184.229 908.725 184.64 909.056 185.184L908.208 185.76C907.93 185.344 907.578 185.035 907.152 184.832C906.725 184.619 906.261 184.512 905.76 184.512C905.152 184.512 904.602 184.651 904.112 184.928C903.632 185.195 903.253 185.579 902.976 186.08C902.709 186.581 902.576 187.152 902.576 187.792C902.576 188.443 902.709 189.019 902.976 189.52C903.253 190.011 903.632 190.395 904.112 190.672C904.602 190.939 905.152 191.072 905.76 191.072C906.261 191.072 906.725 190.971 907.152 190.768C907.578 190.565 907.93 190.256 908.208 189.84L909.056 190.416C908.725 190.96 908.272 191.376 907.696 191.664C907.12 191.941 906.474 192.08 905.76 192.08ZM918.475 188.144H911.435C911.499 189.019 911.835 189.728 912.443 190.272C913.051 190.805 913.819 191.072 914.747 191.072C915.269 191.072 915.749 190.981 916.187 190.8C916.624 190.608 917.003 190.331 917.323 189.968L917.963 190.704C917.589 191.152 917.12 191.493 916.555 191.728C916 191.963 915.387 192.08 914.715 192.08C913.851 192.08 913.083 191.899 912.411 191.536C911.749 191.163 911.232 190.651 910.859 190C910.485 189.349 910.299 188.613 910.299 187.792C910.299 186.971 910.475 186.235 910.827 185.584C911.189 184.933 911.68 184.427 912.299 184.064C912.928 183.701 913.632 183.52 914.411 183.52C915.189 183.52 915.888 183.701 916.507 184.064C917.125 184.427 917.611 184.933 917.963 185.584C918.315 186.224 918.491 186.96 918.491 187.792L918.475 188.144ZM914.411 184.496C913.6 184.496 912.917 184.757 912.363 185.28C911.819 185.792 911.509 186.464 911.435 187.296H917.403C917.328 186.464 917.013 185.792 916.459 185.28C915.915 184.757 915.232 184.496 914.411 184.496ZM923.059 192.08C922.376 192.08 921.72 191.984 921.091 191.792C920.472 191.589 919.987 191.339 919.635 191.04L920.147 190.144C920.499 190.421 920.941 190.651 921.475 190.832C922.008 191.003 922.563 191.088 923.139 191.088C923.907 191.088 924.472 190.971 924.835 190.736C925.208 190.491 925.395 190.149 925.395 189.712C925.395 189.403 925.293 189.163 925.091 188.992C924.888 188.811 924.632 188.677 924.323 188.592C924.013 188.496 923.603 188.405 923.091 188.32C922.408 188.192 921.859 188.064 921.443 187.936C921.027 187.797 920.669 187.568 920.371 187.248C920.083 186.928 919.939 186.485 919.939 185.92C919.939 185.216 920.232 184.64 920.819 184.192C921.405 183.744 922.221 183.52 923.267 183.52C923.811 183.52 924.355 183.595 924.899 183.744C925.443 183.883 925.891 184.069 926.243 184.304L925.747 185.216C925.053 184.736 924.227 184.496 923.267 184.496C922.541 184.496 921.992 184.624 921.619 184.88C921.256 185.136 921.075 185.472 921.075 185.888C921.075 186.208 921.176 186.464 921.379 186.656C921.592 186.848 921.853 186.992 922.163 187.088C922.472 187.173 922.899 187.264 923.443 187.36C924.115 187.488 924.653 187.616 925.059 187.744C925.464 187.872 925.811 188.091 926.099 188.4C926.387 188.709 926.531 189.136 926.531 189.68C926.531 190.416 926.221 191.003 925.603 191.44C924.995 191.867 924.147 192.08 923.059 192.08ZM930.887 192.08C930.204 192.08 929.548 191.984 928.919 191.792C928.3 191.589 927.815 191.339 927.463 191.04L927.975 190.144C928.327 190.421 928.77 190.651 929.303 190.832C929.836 191.003 930.391 191.088 930.967 191.088C931.735 191.088 932.3 190.971 932.663 190.736C933.036 190.491 933.223 190.149 933.223 189.712C933.223 189.403 933.122 189.163 932.919 188.992C932.716 188.811 932.46 188.677 932.151 188.592C931.842 188.496 931.431 188.405 930.919 188.32C930.236 188.192 929.687 188.064 929.271 187.936C928.855 187.797 928.498 187.568 928.199 187.248C927.911 186.928 927.767 186.485 927.767 185.92C927.767 185.216 928.06 184.64 928.647 184.192C929.234 183.744 930.05 183.52 931.095 183.52C931.639 183.52 932.183 183.595 932.727 183.744C933.271 183.883 933.719 184.069 934.071 184.304L933.575 185.216C932.882 184.736 932.055 184.496 931.095 184.496C930.37 184.496 929.82 184.624 929.447 184.88C929.084 185.136 928.903 185.472 928.903 185.888C928.903 186.208 929.004 186.464 929.207 186.656C929.42 186.848 929.682 186.992 929.991 187.088C930.3 187.173 930.727 187.264 931.271 187.36C931.943 187.488 932.482 187.616 932.887 187.744C933.292 187.872 933.639 188.091 933.927 188.4C934.215 188.709 934.359 189.136 934.359 189.68C934.359 190.416 934.05 191.003 933.431 191.44C932.823 191.867 931.975 192.08 930.887 192.08ZM734.016 211.488C733.803 211.68 733.536 211.829 733.216 211.936C732.907 212.032 732.581 212.08 732.24 212.08C731.451 212.08 730.843 211.867 730.416 211.44C729.989 211.013 729.776 210.411 729.776 209.632V204.544H728.272V203.584H729.776V201.744H730.912V203.584H733.472V204.544H730.912V209.568C730.912 210.069 731.035 210.453 731.28 210.72C731.536 210.976 731.899 211.104 732.368 211.104C732.603 211.104 732.827 211.067 733.04 210.992C733.264 210.917 733.456 210.811 733.616 210.672L734.016 211.488ZM743.115 208.144H736.075C736.139 209.019 736.475 209.728 737.083 210.272C737.691 210.805 738.459 211.072 739.387 211.072C739.91 211.072 740.39 210.981 740.827 210.8C741.264 210.608 741.643 210.331 741.963 209.968L742.603 210.704C742.23 211.152 741.76 211.493 741.195 211.728C740.64 211.963 740.027 212.08 739.355 212.08C738.491 212.08 737.723 211.899 737.051 211.536C736.39 211.163 735.872 210.651 735.499 210C735.126 209.349 734.939 208.613 734.939 207.792C734.939 206.971 735.115 206.235 735.467 205.584C735.83 204.933 736.32 204.427 736.939 204.064C737.568 203.701 738.272 203.52 739.051 203.52C739.83 203.52 740.528 203.701 741.147 204.064C741.766 204.427 742.251 204.933 742.603 205.584C742.955 206.224 743.131 206.96 743.131 207.792L743.115 208.144ZM739.051 204.496C738.24 204.496 737.558 204.757 737.003 205.28C736.459 205.792 736.15 206.464 736.075 207.296H742.043C741.968 206.464 741.654 205.792 741.099 205.28C740.555 204.757 739.872 204.496 739.051 204.496ZM745.443 200.128H746.579V212H745.443V200.128ZM757.068 208.144H750.028C750.092 209.019 750.428 209.728 751.036 210.272C751.644 210.805 752.412 211.072 753.34 211.072C753.863 211.072 754.343 210.981 754.78 210.8C755.218 210.608 755.596 210.331 755.916 209.968L756.556 210.704C756.183 211.152 755.714 211.493 755.148 211.728C754.594 211.963 753.98 212.08 753.308 212.08C752.444 212.08 751.676 211.899 751.004 211.536C750.343 211.163 749.826 210.651 749.452 210C749.079 209.349 748.892 208.613 748.892 207.792C748.892 206.971 749.068 206.235 749.42 205.584C749.783 204.933 750.274 204.427 750.892 204.064C751.522 203.701 752.226 203.52 753.004 203.52C753.783 203.52 754.482 203.701 755.1 204.064C755.719 204.427 756.204 204.933 756.556 205.584C756.908 206.224 757.084 206.96 757.084 207.792L757.068 208.144ZM753.004 204.496C752.194 204.496 751.511 204.757 750.956 205.28C750.412 205.792 750.103 206.464 750.028 207.296H755.996C755.922 206.464 755.607 205.792 755.052 205.28C754.508 204.757 753.826 204.496 753.004 204.496ZM769.893 203.52C770.949 203.52 771.775 203.824 772.373 204.432C772.981 205.04 773.285 205.936 773.285 207.12V212H772.149V207.232C772.149 206.357 771.935 205.691 771.509 205.232C771.093 204.773 770.501 204.544 769.733 204.544C768.858 204.544 768.17 204.816 767.669 205.36C767.167 205.893 766.917 206.635 766.917 207.584V212H765.781V207.232C765.781 206.357 765.567 205.691 765.141 205.232C764.725 204.773 764.127 204.544 763.349 204.544C762.485 204.544 761.797 204.816 761.285 205.36C760.783 205.893 760.533 206.635 760.533 207.584V212H759.397V203.584H760.485V205.12C760.783 204.608 761.199 204.213 761.733 203.936C762.266 203.659 762.879 203.52 763.573 203.52C764.277 203.52 764.885 203.669 765.397 203.968C765.919 204.267 766.309 204.709 766.565 205.296C766.874 204.741 767.317 204.309 767.893 204C768.479 203.68 769.146 203.52 769.893 203.52ZM783.725 208.144H776.685C776.749 209.019 777.085 209.728 777.693 210.272C778.301 210.805 779.069 211.072 779.997 211.072C780.519 211.072 780.999 210.981 781.437 210.8C781.874 210.608 782.253 210.331 782.573 209.968L783.213 210.704C782.839 211.152 782.37 211.493 781.805 211.728C781.25 211.963 780.637 212.08 779.965 212.08C779.101 212.08 778.333 211.899 777.661 211.536C776.999 211.163 776.482 210.651 776.109 210C775.735 209.349 775.549 208.613 775.549 207.792C775.549 206.971 775.725 206.235 776.077 205.584C776.439 204.933 776.93 204.427 777.549 204.064C778.178 203.701 778.882 203.52 779.661 203.52C780.439 203.52 781.138 203.701 781.757 204.064C782.375 204.427 782.861 204.933 783.213 205.584C783.565 206.224 783.741 206.96 783.741 207.792L783.725 208.144ZM779.661 204.496C778.85 204.496 778.167 204.757 777.613 205.28C777.069 205.792 776.759 206.464 776.685 207.296H782.653C782.578 206.464 782.263 205.792 781.709 205.28C781.165 204.757 780.482 204.496 779.661 204.496ZM790.485 211.488C790.271 211.68 790.005 211.829 789.685 211.936C789.375 212.032 789.05 212.08 788.709 212.08C787.919 212.08 787.311 211.867 786.885 211.44C786.458 211.013 786.245 210.411 786.245 209.632V204.544H784.741V203.584H786.245V201.744H787.381V203.584H789.941V204.544H787.381V209.568C787.381 210.069 787.503 210.453 787.749 210.72C788.005 210.976 788.367 211.104 788.837 211.104C789.071 211.104 789.295 211.067 789.509 210.992C789.733 210.917 789.925 210.811 790.085 210.672L790.485 211.488ZM793.641 205.232C793.907 204.667 794.302 204.24 794.825 203.952C795.358 203.664 796.014 203.52 796.793 203.52V204.624L796.521 204.608C795.635 204.608 794.942 204.88 794.441 205.424C793.939 205.968 793.689 206.731 793.689 207.712V212H792.553V203.584H793.641V205.232ZM806.281 203.584L802.073 213.008C801.732 213.797 801.337 214.357 800.889 214.688C800.441 215.019 799.902 215.184 799.273 215.184C798.868 215.184 798.489 215.12 798.137 214.992C797.785 214.864 797.481 214.672 797.225 214.416L797.753 213.568C798.18 213.995 798.692 214.208 799.289 214.208C799.673 214.208 799.998 214.101 800.265 213.888C800.542 213.675 800.798 213.312 801.033 212.8L801.401 211.984L797.641 203.584H798.825L801.993 210.736L805.161 203.584H806.281ZM819.748 200.128V212H818.66V210.336C818.319 210.901 817.866 211.333 817.3 211.632C816.746 211.931 816.116 212.08 815.412 212.08C814.623 212.08 813.908 211.899 813.268 211.536C812.628 211.173 812.127 210.667 811.764 210.016C811.402 209.365 811.22 208.624 811.22 207.792C811.22 206.96 811.402 206.219 811.764 205.568C812.127 204.917 812.628 204.416 813.268 204.064C813.908 203.701 814.623 203.52 815.412 203.52C816.095 203.52 816.708 203.664 817.252 203.952C817.807 204.229 818.26 204.64 818.612 205.184V200.128H819.748ZM815.508 211.072C816.095 211.072 816.623 210.939 817.092 210.672C817.572 210.395 817.946 210.005 818.212 209.504C818.49 209.003 818.628 208.432 818.628 207.792C818.628 207.152 818.49 206.581 818.212 206.08C817.946 205.579 817.572 205.195 817.092 204.928C816.623 204.651 816.095 204.512 815.508 204.512C814.911 204.512 814.372 204.651 813.892 204.928C813.423 205.195 813.05 205.579 812.772 206.08C812.506 206.581 812.372 207.152 812.372 207.792C812.372 208.432 812.506 209.003 812.772 209.504C813.05 210.005 813.423 210.395 813.892 210.672C814.372 210.939 814.911 211.072 815.508 211.072ZM825.856 203.52C826.955 203.52 827.797 203.797 828.384 204.352C828.971 204.896 829.264 205.707 829.264 206.784V212H828.176V210.688C827.92 211.125 827.541 211.467 827.04 211.712C826.549 211.957 825.963 212.08 825.28 212.08C824.341 212.08 823.595 211.856 823.04 211.408C822.485 210.96 822.208 210.368 822.208 209.632C822.208 208.917 822.464 208.341 822.976 207.904C823.499 207.467 824.325 207.248 825.456 207.248H828.128V206.736C828.128 206.011 827.925 205.461 827.52 205.088C827.115 204.704 826.523 204.512 825.744 204.512C825.211 204.512 824.699 204.603 824.208 204.784C823.717 204.955 823.296 205.195 822.944 205.504L822.432 204.656C822.859 204.293 823.371 204.016 823.968 203.824C824.565 203.621 825.195 203.52 825.856 203.52ZM825.456 211.184C826.096 211.184 826.645 211.04 827.104 210.752C827.563 210.453 827.904 210.027 828.128 209.472V208.096H825.488C824.048 208.096 823.328 208.597 823.328 209.6C823.328 210.091 823.515 210.48 823.888 210.768C824.261 211.045 824.784 211.184 825.456 211.184ZM836.782 211.488C836.568 211.68 836.302 211.829 835.982 211.936C835.672 212.032 835.347 212.08 835.006 212.08C834.216 212.08 833.608 211.867 833.182 211.44C832.755 211.013 832.542 210.411 832.542 209.632V204.544H831.038V203.584H832.542V201.744H833.678V203.584H836.238V204.544H833.678V209.568C833.678 210.069 833.8 210.453 834.046 210.72C834.302 210.976 834.664 211.104 835.134 211.104C835.368 211.104 835.592 211.067 835.806 210.992C836.03 210.917 836.222 210.811 836.382 210.672L836.782 211.488ZM841.794 203.52C842.892 203.52 843.735 203.797 844.322 204.352C844.908 204.896 845.202 205.707 845.202 206.784V212H844.114V210.688C843.858 211.125 843.479 211.467 842.978 211.712C842.487 211.957 841.9 212.08 841.218 212.08C840.279 212.08 839.532 211.856 838.978 211.408C838.423 210.96 838.146 210.368 838.146 209.632C838.146 208.917 838.402 208.341 838.914 207.904C839.436 207.467 840.263 207.248 841.394 207.248H844.066V206.736C844.066 206.011 843.863 205.461 843.458 205.088C843.052 204.704 842.46 204.512 841.682 204.512C841.148 204.512 840.636 204.603 840.146 204.784C839.655 204.955 839.234 205.195 838.882 205.504L838.37 204.656C838.796 204.293 839.308 204.016 839.906 203.824C840.503 203.621 841.132 203.52 841.794 203.52ZM841.394 211.184C842.034 211.184 842.583 211.04 843.042 210.752C843.5 210.453 843.842 210.027 844.066 209.472V208.096H841.426C839.986 208.096 839.266 208.597 839.266 209.6C839.266 210.091 839.452 210.48 839.826 210.768C840.199 211.045 840.722 211.184 841.394 211.184ZM855.915 212.08C855.104 212.08 854.373 211.899 853.723 211.536C853.072 211.163 852.56 210.651 852.187 210C851.813 209.349 851.627 208.613 851.627 207.792C851.627 206.971 851.813 206.235 852.187 205.584C852.56 204.933 853.072 204.427 853.723 204.064C854.373 203.701 855.104 203.52 855.915 203.52C856.725 203.52 857.456 203.701 858.107 204.064C858.757 204.427 859.264 204.933 859.627 205.584C860 206.235 860.187 206.971 860.187 207.792C860.187 208.613 860 209.349 859.627 210C859.264 210.651 858.757 211.163 858.107 211.536C857.456 211.899 856.725 212.08 855.915 212.08ZM855.915 211.072C856.512 211.072 857.045 210.939 857.515 210.672C857.995 210.395 858.368 210.005 858.635 209.504C858.901 209.003 859.035 208.432 859.035 207.792C859.035 207.152 858.901 206.581 858.635 206.08C858.368 205.579 857.995 205.195 857.515 204.928C857.045 204.651 856.512 204.512 855.915 204.512C855.317 204.512 854.779 204.651 854.299 204.928C853.829 205.195 853.456 205.579 853.179 206.08C852.912 206.581 852.779 207.152 852.779 207.792C852.779 208.432 852.912 209.003 853.179 209.504C853.456 210.005 853.829 210.395 854.299 210.672C854.779 210.939 855.317 211.072 855.915 211.072ZM866.794 203.52C867.85 203.52 868.687 203.829 869.306 204.448C869.935 205.056 870.25 205.947 870.25 207.12V212H869.114V207.232C869.114 206.357 868.895 205.691 868.458 205.232C868.021 204.773 867.397 204.544 866.586 204.544C865.679 204.544 864.959 204.816 864.426 205.36C863.903 205.893 863.642 206.635 863.642 207.584V212H862.506V203.584H863.594V205.136C863.903 204.624 864.33 204.229 864.874 203.952C865.429 203.664 866.069 203.52 866.794 203.52ZM872.71 207.168H876.902V208.16H872.71V207.168ZM883.779 203.52C884.569 203.52 885.283 203.701 885.923 204.064C886.563 204.416 887.065 204.917 887.427 205.568C887.79 206.219 887.971 206.96 887.971 207.792C887.971 208.635 887.79 209.381 887.427 210.032C887.065 210.683 886.563 211.189 885.923 211.552C885.294 211.904 884.579 212.08 883.779 212.08C883.097 212.08 882.478 211.941 881.923 211.664C881.379 211.376 880.931 210.96 880.579 210.416V215.104H879.443V203.584H880.531V205.248C880.873 204.693 881.321 204.267 881.875 203.968C882.441 203.669 883.075 203.52 883.779 203.52ZM883.699 211.072C884.286 211.072 884.819 210.939 885.299 210.672C885.779 210.395 886.153 210.005 886.419 209.504C886.697 209.003 886.835 208.432 886.835 207.792C886.835 207.152 886.697 206.587 886.419 206.096C886.153 205.595 885.779 205.205 885.299 204.928C884.819 204.651 884.286 204.512 883.699 204.512C883.102 204.512 882.563 204.651 882.083 204.928C881.614 205.205 881.241 205.595 880.963 206.096C880.697 206.587 880.563 207.152 880.563 207.792C880.563 208.432 880.697 209.003 880.963 209.504C881.241 210.005 881.614 210.395 882.083 210.672C882.563 210.939 883.102 211.072 883.699 211.072ZM891.375 205.232C891.642 204.667 892.036 204.24 892.559 203.952C893.092 203.664 893.748 203.52 894.527 203.52V204.624L894.255 204.608C893.37 204.608 892.676 204.88 892.175 205.424C891.674 205.968 891.423 206.731 891.423 207.712V212H890.287V203.584H891.375V205.232ZM903.834 208.144H896.794C896.858 209.019 897.194 209.728 897.802 210.272C898.41 210.805 899.178 211.072 900.106 211.072C900.629 211.072 901.109 210.981 901.546 210.8C901.983 210.608 902.362 210.331 902.682 209.968L903.322 210.704C902.949 211.152 902.479 211.493 901.914 211.728C901.359 211.963 900.746 212.08 900.074 212.08C899.21 212.08 898.442 211.899 897.77 211.536C897.109 211.163 896.591 210.651 896.218 210C895.845 209.349 895.658 208.613 895.658 207.792C895.658 206.971 895.834 206.235 896.186 205.584C896.549 204.933 897.039 204.427 897.658 204.064C898.287 203.701 898.991 203.52 899.77 203.52C900.549 203.52 901.247 203.701 901.866 204.064C902.485 204.427 902.97 204.933 903.322 205.584C903.674 206.224 903.85 206.96 903.85 207.792L903.834 208.144ZM899.77 204.496C898.959 204.496 898.277 204.757 897.722 205.28C897.178 205.792 896.869 206.464 896.794 207.296H902.762C902.687 206.464 902.373 205.792 901.818 205.28C901.274 204.757 900.591 204.496 899.77 204.496ZM916.658 203.52C917.714 203.52 918.541 203.824 919.138 204.432C919.746 205.04 920.05 205.936 920.05 207.12V212H918.914V207.232C918.914 206.357 918.701 205.691 918.274 205.232C917.858 204.773 917.266 204.544 916.498 204.544C915.623 204.544 914.935 204.816 914.434 205.36C913.933 205.893 913.682 206.635 913.682 207.584V212H912.546V207.232C912.546 206.357 912.333 205.691 911.906 205.232C911.49 204.773 910.893 204.544 910.114 204.544C909.25 204.544 908.562 204.816 908.05 205.36C907.549 205.893 907.298 206.635 907.298 207.584V212H906.162V203.584H907.25V205.12C907.549 204.608 907.965 204.213 908.498 203.936C909.031 203.659 909.645 203.52 910.338 203.52C911.042 203.52 911.65 203.669 912.162 203.968C912.685 204.267 913.074 204.709 913.33 205.296C913.639 204.741 914.082 204.309 914.658 204C915.245 203.68 915.911 203.52 916.658 203.52Z" fill="black"/>
<path d="M728 55C728 43.9543 736.954 35 748 35H917C928.046 35 937 43.9543 937 55V135C937 146.046 928.046 155 917 155H748C736.954 155 728 146.046 728 135V55Z" fill="#3FE7E7"/>
<path d="M812.042 102.24C810.615 102.24 809.322 101.933 808.162 101.32C807.015 100.693 806.108 99.8333 805.442 98.74C804.788 97.6333 804.462 96.3867 804.462 95C804.462 93.6133 804.788 92.3733 805.442 91.28C806.108 90.1733 807.015 89.3133 808.162 88.7C809.322 88.0733 810.622 87.76 812.062 87.76C813.275 87.76 814.368 87.9733 815.342 88.4C816.328 88.8267 817.155 89.44 817.822 90.24L815.742 92.16C814.795 91.0667 813.622 90.52 812.222 90.52C811.355 90.52 810.582 90.7133 809.902 91.1C809.222 91.4733 808.688 92 808.302 92.68C807.928 93.36 807.742 94.1333 807.742 95C807.742 95.8667 807.928 96.64 808.302 97.32C808.688 98 809.222 98.5333 809.902 98.92C810.582 99.2933 811.355 99.48 812.222 99.48C813.622 99.48 814.795 98.9267 815.742 97.82L817.822 99.74C817.155 100.553 816.328 101.173 815.342 101.6C814.355 102.027 813.255 102.24 812.042 102.24ZM819.79 87.16H822.91V102H819.79V87.16ZM836.645 91.24V102H833.685V100.72C833.272 101.187 832.779 101.547 832.205 101.8C831.632 102.04 831.012 102.16 830.345 102.16C828.932 102.16 827.812 101.753 826.985 100.94C826.159 100.127 825.745 98.92 825.745 97.32V91.24H828.865V96.86C828.865 98.5933 829.592 99.46 831.045 99.46C831.792 99.46 832.392 99.22 832.845 98.74C833.299 98.2467 833.525 97.52 833.525 96.56V91.24H836.645ZM843.156 102.16C842.262 102.16 841.389 102.053 840.536 101.84C839.682 101.613 839.002 101.333 838.496 101L839.536 98.76C840.016 99.0667 840.596 99.32 841.276 99.52C841.956 99.7067 842.622 99.8 843.276 99.8C844.596 99.8 845.256 99.4733 845.256 98.82C845.256 98.5133 845.076 98.2933 844.716 98.16C844.356 98.0267 843.802 97.9133 843.056 97.82C842.176 97.6867 841.449 97.5333 840.876 97.36C840.302 97.1867 839.802 96.88 839.376 96.44C838.962 96 838.756 95.3733 838.756 94.56C838.756 93.88 838.949 93.28 839.336 92.76C839.736 92.2267 840.309 91.8133 841.056 91.52C841.816 91.2267 842.709 91.08 843.736 91.08C844.496 91.08 845.249 91.1667 845.996 91.34C846.756 91.5 847.382 91.7267 847.876 92.02L846.836 94.24C845.889 93.7067 844.856 93.44 843.736 93.44C843.069 93.44 842.569 93.5333 842.236 93.72C841.902 93.9067 841.736 94.1467 841.736 94.44C841.736 94.7733 841.916 95.0067 842.276 95.14C842.636 95.2733 843.209 95.4 843.996 95.52C844.876 95.6667 845.596 95.8267 846.156 96C846.716 96.16 847.202 96.46 847.616 96.9C848.029 97.34 848.236 97.9533 848.236 98.74C848.236 99.4067 848.036 100 847.636 100.52C847.236 101.04 846.649 101.447 845.876 101.74C845.116 102.02 844.209 102.16 843.156 102.16ZM857.101 101.48C856.794 101.707 856.414 101.88 855.961 102C855.521 102.107 855.054 102.16 854.561 102.16C853.281 102.16 852.287 101.833 851.581 101.18C850.887 100.527 850.541 99.5667 850.541 98.3V93.88H848.881V91.48H850.541V88.86H853.661V91.48H856.341V93.88H853.661V98.26C853.661 98.7133 853.774 99.0667 854.001 99.32C854.241 99.56 854.574 99.68 855.001 99.68C855.494 99.68 855.914 99.5467 856.261 99.28L857.101 101.48ZM869.06 96.66C869.06 96.7 869.04 96.98 869 97.5H860.86C861.007 98.1667 861.353 98.6933 861.9 99.08C862.447 99.4667 863.127 99.66 863.94 99.66C864.5 99.66 864.993 99.58 865.42 99.42C865.86 99.2467 866.267 98.98 866.64 98.62L868.3 100.42C867.287 101.58 865.807 102.16 863.86 102.16C862.647 102.16 861.573 101.927 860.64 101.46C859.707 100.98 858.987 100.32 858.48 99.48C857.973 98.64 857.72 97.6867 857.72 96.62C857.72 95.5667 857.967 94.62 858.46 93.78C858.967 92.9267 859.653 92.2667 860.52 91.8C861.4 91.32 862.38 91.08 863.46 91.08C864.513 91.08 865.467 91.3067 866.32 91.76C867.173 92.2133 867.84 92.8667 868.32 93.72C868.813 94.56 869.06 95.54 869.06 96.66ZM863.48 93.44C862.773 93.44 862.18 93.64 861.7 94.04C861.22 94.44 860.927 94.9867 860.82 95.68H866.12C866.013 95 865.72 94.46 865.24 94.06C864.76 93.6467 864.173 93.44 863.48 93.44ZM874.117 92.66C874.491 92.14 874.991 91.7467 875.617 91.48C876.257 91.2133 876.991 91.08 877.817 91.08V93.96C877.471 93.9333 877.237 93.92 877.117 93.92C876.224 93.92 875.524 94.1733 875.017 94.68C874.511 95.1733 874.257 95.92 874.257 96.92V102H871.137V91.24H874.117V92.66Z" fill="black"/>
<path d="M779 103H799V99H779V103ZM781 100H783V102H781V100ZM779 87V91H799V87H779ZM783 90H781V88H783V90ZM779 97H799V93H779V97ZM781 94H783V96H781V94Z" fill="black"/>
<path d="M253.939 106.939C253.354 107.525 253.354 108.475 253.939 109.061L263.485 118.607C264.071 119.192 265.021 119.192 265.607 118.607C266.192 118.021 266.192 117.071 265.607 116.485L257.121 108L265.607 99.5147C266.192 98.9289 266.192 97.9792 265.607 97.3934C265.021 96.8076 264.071 96.8076 263.485 97.3934L253.939 106.939ZM361.061 109.061C361.646 108.475 361.646 107.525 361.061 106.939L351.515 97.3934C350.929 96.8076 349.979 96.8076 349.393 97.3934C348.808 97.9792 348.808 98.9289 349.393 99.5147L357.879 108L349.393 116.485C348.808 117.071 348.808 118.021 349.393 118.607C349.979 119.192 350.929 119.192 351.515 118.607L361.061 109.061ZM255 109.5H360V106.5H255V109.5Z" fill="#9696A5"/>
<path d="M301.804 120.912H298.22V118.8H307.98V120.912H304.396V130H301.804V120.912ZM309.375 118.8H311.967V127.888H317.583V130H309.375V118.8ZM322.649 130.192C321.763 130.192 320.905 130.075 320.073 129.84C319.251 129.595 318.59 129.28 318.089 128.896L318.969 126.944C319.449 127.296 320.019 127.579 320.681 127.792C321.342 128.005 322.003 128.112 322.665 128.112C323.401 128.112 323.945 128.005 324.297 127.792C324.649 127.568 324.825 127.275 324.825 126.912C324.825 126.645 324.718 126.427 324.505 126.256C324.302 126.075 324.035 125.931 323.705 125.824C323.385 125.717 322.947 125.6 322.393 125.472C321.539 125.269 320.841 125.067 320.297 124.864C319.753 124.661 319.283 124.336 318.889 123.888C318.505 123.44 318.313 122.843 318.313 122.096C318.313 121.445 318.489 120.859 318.841 120.336C319.193 119.803 319.721 119.381 320.425 119.072C321.139 118.763 322.009 118.608 323.033 118.608C323.747 118.608 324.446 118.693 325.129 118.864C325.811 119.035 326.409 119.28 326.921 119.6L326.121 121.568C325.086 120.981 324.051 120.688 323.017 120.688C322.291 120.688 321.753 120.805 321.401 121.04C321.059 121.275 320.889 121.584 320.889 121.968C320.889 122.352 321.086 122.64 321.481 122.832C321.886 123.013 322.499 123.195 323.321 123.376C324.174 123.579 324.873 123.781 325.417 123.984C325.961 124.187 326.425 124.507 326.809 124.944C327.203 125.381 327.401 125.973 327.401 126.72C327.401 127.36 327.219 127.947 326.857 128.48C326.505 129.003 325.971 129.419 325.257 129.728C324.542 130.037 323.673 130.192 322.649 130.192Z" fill="#9696A5"/>
<path d="M295.617 121.654H295.344V120.377C295.344 118.016 293.47 116.043 291.128 116.001C291.064 116 290.936 116 290.872 116.001C288.53 116.043 286.656 118.016 286.656 120.377V121.654H286.383C285.963 121.654 285.62 122.088 285.62 122.623V129.027C285.62 129.562 285.963 130 286.383 130H295.617C296.037 130 296.38 129.562 296.38 129.027V122.623C296.38 122.088 296.037 121.654 295.617 121.654ZM291.865 125.819V127.754C291.865 127.975 291.679 128.163 291.458 128.163H290.542C290.32 128.163 290.135 127.975 290.135 127.754V125.819C289.92 125.607 289.795 125.314 289.795 124.99C289.795 124.377 290.269 123.85 290.872 123.825C290.936 123.823 291.064 123.823 291.128 123.825C291.731 123.85 292.205 124.377 292.205 124.99C292.205 125.314 292.08 125.607 291.865 125.819ZM293.546 121.654H291.128H290.872H288.454V120.377C288.454 118.97 289.597 117.807 291 117.807C292.403 117.807 293.546 118.97 293.546 120.377V121.654H293.546Z" fill="#9696A5"/>
<path d="M393.472 192L390.912 188.4C390.624 188.432 390.325 188.448 390.016 188.448H387.008V192H385.824V180.8H390.016C391.445 180.8 392.565 181.141 393.376 181.824C394.187 182.507 394.592 183.445 394.592 184.64C394.592 185.515 394.368 186.256 393.92 186.864C393.483 187.461 392.853 187.893 392.032 188.16L394.768 192H393.472ZM389.984 187.44C391.093 187.44 391.941 187.195 392.528 186.704C393.115 186.213 393.408 185.525 393.408 184.64C393.408 183.733 393.115 183.04 392.528 182.56C391.941 182.069 391.093 181.824 389.984 181.824H387.008V187.44H389.984ZM400.587 192.08C399.776 192.08 399.045 191.899 398.395 191.536C397.744 191.163 397.232 190.651 396.859 190C396.485 189.349 396.299 188.613 396.299 187.792C396.299 186.971 396.485 186.235 396.859 185.584C397.232 184.933 397.744 184.427 398.395 184.064C399.045 183.701 399.776 183.52 400.587 183.52C401.397 183.52 402.128 183.701 402.779 184.064C403.429 184.427 403.936 184.933 404.299 185.584C404.672 186.235 404.859 186.971 404.859 187.792C404.859 188.613 404.672 189.349 404.299 190C403.936 190.651 403.429 191.163 402.779 191.536C402.128 191.899 401.397 192.08 400.587 192.08ZM400.587 191.072C401.184 191.072 401.717 190.939 402.187 190.672C402.667 190.395 403.04 190.005 403.307 189.504C403.573 189.003 403.707 188.432 403.707 187.792C403.707 187.152 403.573 186.581 403.307 186.08C403.04 185.579 402.667 185.195 402.187 184.928C401.717 184.651 401.184 184.512 400.587 184.512C399.989 184.512 399.451 184.651 398.971 184.928C398.501 185.195 398.128 185.579 397.851 186.08C397.584 186.581 397.451 187.152 397.451 187.792C397.451 188.432 397.584 189.003 397.851 189.504C398.128 190.005 398.501 190.395 398.971 190.672C399.451 190.939 399.989 191.072 400.587 191.072ZM414.762 183.584V192H413.674V190.464C413.375 190.976 412.964 191.376 412.442 191.664C411.919 191.941 411.322 192.08 410.65 192.08C409.551 192.08 408.682 191.776 408.042 191.168C407.412 190.549 407.098 189.648 407.098 188.464V183.584H408.234V188.352C408.234 189.237 408.452 189.909 408.89 190.368C409.327 190.827 409.951 191.056 410.762 191.056C411.647 191.056 412.346 190.789 412.858 190.256C413.37 189.712 413.626 188.96 413.626 188V183.584H414.762ZM422.375 191.488C422.162 191.68 421.895 191.829 421.575 191.936C421.266 192.032 420.941 192.08 420.599 192.08C419.81 192.08 419.202 191.867 418.775 191.44C418.349 191.013 418.135 190.411 418.135 189.632V184.544H416.631V183.584H418.135V181.744H419.271V183.584H421.831V184.544H419.271V189.568C419.271 190.069 419.394 190.453 419.639 190.72C419.895 190.976 420.258 191.104 420.727 191.104C420.962 191.104 421.186 191.067 421.399 190.992C421.623 190.917 421.815 190.811 421.975 190.672L422.375 191.488ZM431.475 188.144H424.435C424.499 189.019 424.835 189.728 425.443 190.272C426.051 190.805 426.819 191.072 427.747 191.072C428.269 191.072 428.749 190.981 429.187 190.8C429.624 190.608 430.003 190.331 430.323 189.968L430.963 190.704C430.589 191.152 430.12 191.493 429.555 191.728C429 191.963 428.387 192.08 427.715 192.08C426.851 192.08 426.083 191.899 425.411 191.536C424.749 191.163 424.232 190.651 423.859 190C423.485 189.349 423.299 188.613 423.299 187.792C423.299 186.971 423.475 186.235 423.827 185.584C424.189 184.933 424.68 184.427 425.299 184.064C425.928 183.701 426.632 183.52 427.411 183.52C428.189 183.52 428.888 183.701 429.507 184.064C430.125 184.427 430.611 184.933 430.963 185.584C431.315 186.224 431.491 186.96 431.491 187.792L431.475 188.144ZM427.411 184.496C426.6 184.496 425.917 184.757 425.363 185.28C424.819 185.792 424.509 186.464 424.435 187.296H430.403C430.328 186.464 430.013 185.792 429.459 185.28C428.915 184.757 428.232 184.496 427.411 184.496ZM445.67 180.128V192H444.582V190.336C444.241 190.901 443.788 191.333 443.222 191.632C442.668 191.931 442.038 192.08 441.334 192.08C440.545 192.08 439.83 191.899 439.19 191.536C438.55 191.173 438.049 190.667 437.686 190.016C437.324 189.365 437.142 188.624 437.142 187.792C437.142 186.96 437.324 186.219 437.686 185.568C438.049 184.917 438.55 184.416 439.19 184.064C439.83 183.701 440.545 183.52 441.334 183.52C442.017 183.52 442.63 183.664 443.174 183.952C443.729 184.229 444.182 184.64 444.534 185.184V180.128H445.67ZM441.43 191.072C442.017 191.072 442.545 190.939 443.014 190.672C443.494 190.395 443.868 190.005 444.134 189.504C444.412 189.003 444.55 188.432 444.55 187.792C444.55 187.152 444.412 186.581 444.134 186.08C443.868 185.579 443.494 185.195 443.014 184.928C442.545 184.651 442.017 184.512 441.43 184.512C440.833 184.512 440.294 184.651 439.814 184.928C439.345 185.195 438.972 185.579 438.694 186.08C438.428 186.581 438.294 187.152 438.294 187.792C438.294 188.432 438.428 189.003 438.694 189.504C438.972 190.005 439.345 190.395 439.814 190.672C440.294 190.939 440.833 191.072 441.43 191.072ZM451.778 183.52C452.877 183.52 453.719 183.797 454.306 184.352C454.893 184.896 455.186 185.707 455.186 186.784V192H454.098V190.688C453.842 191.125 453.463 191.467 452.962 191.712C452.471 191.957 451.885 192.08 451.202 192.08C450.263 192.08 449.517 191.856 448.962 191.408C448.407 190.96 448.13 190.368 448.13 189.632C448.13 188.917 448.386 188.341 448.898 187.904C449.421 187.467 450.247 187.248 451.378 187.248H454.05V186.736C454.05 186.011 453.847 185.461 453.442 185.088C453.037 184.704 452.445 184.512 451.666 184.512C451.133 184.512 450.621 184.603 450.13 184.784C449.639 184.955 449.218 185.195 448.866 185.504L448.354 184.656C448.781 184.293 449.293 184.016 449.89 183.824C450.487 183.621 451.117 183.52 451.778 183.52ZM451.378 191.184C452.018 191.184 452.567 191.04 453.026 190.752C453.485 190.453 453.826 190.027 454.05 189.472V188.096H451.41C449.97 188.096 449.25 188.597 449.25 189.6C449.25 190.091 449.437 190.48 449.81 190.768C450.183 191.045 450.706 191.184 451.378 191.184ZM462.704 191.488C462.49 191.68 462.224 191.829 461.904 191.936C461.594 192.032 461.269 192.08 460.928 192.08C460.138 192.08 459.53 191.867 459.104 191.44C458.677 191.013 458.464 190.411 458.464 189.632V184.544H456.96V183.584H458.464V181.744H459.6V183.584H462.16V184.544H459.6V189.568C459.6 190.069 459.722 190.453 459.968 190.72C460.224 190.976 460.586 191.104 461.056 191.104C461.29 191.104 461.514 191.067 461.728 190.992C461.952 190.917 462.144 190.811 462.304 190.672L462.704 191.488ZM467.716 183.52C468.814 183.52 469.657 183.797 470.244 184.352C470.83 184.896 471.124 185.707 471.124 186.784V192H470.036V190.688C469.78 191.125 469.401 191.467 468.9 191.712C468.409 191.957 467.822 192.08 467.14 192.08C466.201 192.08 465.454 191.856 464.9 191.408C464.345 190.96 464.068 190.368 464.068 189.632C464.068 188.917 464.324 188.341 464.836 187.904C465.358 187.467 466.185 187.248 467.316 187.248H469.988V186.736C469.988 186.011 469.785 185.461 469.38 185.088C468.974 184.704 468.382 184.512 467.604 184.512C467.07 184.512 466.558 184.603 466.068 184.784C465.577 184.955 465.156 185.195 464.804 185.504L464.292 184.656C464.718 184.293 465.23 184.016 465.828 183.824C466.425 183.621 467.054 183.52 467.716 183.52ZM467.316 191.184C467.956 191.184 468.505 191.04 468.964 190.752C469.422 190.453 469.764 190.027 469.988 189.472V188.096H467.348C465.908 188.096 465.188 188.597 465.188 189.6C465.188 190.091 465.374 190.48 465.748 190.768C466.121 191.045 466.644 191.184 467.316 191.184ZM481.181 181.008C480.69 181.008 480.317 181.141 480.061 181.408C479.815 181.675 479.693 182.069 479.693 182.592V183.584H482.285V184.544H479.725V192H478.589V184.544H477.085V183.584H478.589V182.544C478.589 181.776 478.807 181.168 479.245 180.72C479.693 180.272 480.322 180.048 481.133 180.048C481.453 180.048 481.762 180.096 482.061 180.192C482.359 180.277 482.61 180.405 482.813 180.576L482.429 181.424C482.098 181.147 481.682 181.008 481.181 181.008ZM487.118 192.08C486.307 192.08 485.576 191.899 484.926 191.536C484.275 191.163 483.763 190.651 483.39 190C483.016 189.349 482.83 188.613 482.83 187.792C482.83 186.971 483.016 186.235 483.39 185.584C483.763 184.933 484.275 184.427 484.926 184.064C485.576 183.701 486.307 183.52 487.118 183.52C487.928 183.52 488.659 183.701 489.31 184.064C489.96 184.427 490.467 184.933 490.83 185.584C491.203 186.235 491.39 186.971 491.39 187.792C491.39 188.613 491.203 189.349 490.83 190C490.467 190.651 489.96 191.163 489.31 191.536C488.659 191.899 487.928 192.08 487.118 192.08ZM487.118 191.072C487.715 191.072 488.248 190.939 488.718 190.672C489.198 190.395 489.571 190.005 489.838 189.504C490.104 189.003 490.238 188.432 490.238 187.792C490.238 187.152 490.104 186.581 489.838 186.08C489.571 185.579 489.198 185.195 488.718 184.928C488.248 184.651 487.715 184.512 487.118 184.512C486.52 184.512 485.982 184.651 485.502 184.928C485.032 185.195 484.659 185.579 484.382 186.08C484.115 186.581 483.982 187.152 483.982 187.792C483.982 188.432 484.115 189.003 484.382 189.504C484.659 190.005 485.032 190.395 485.502 190.672C485.982 190.939 486.52 191.072 487.118 191.072ZM494.797 185.232C495.064 184.667 495.458 184.24 495.981 183.952C496.514 183.664 497.17 183.52 497.949 183.52V184.624L497.677 184.608C496.792 184.608 496.098 184.88 495.597 185.424C495.096 185.968 494.845 186.731 494.845 187.712V192H493.709V183.584H494.797V185.232ZM388.528 203.52C389.627 203.52 390.469 203.797 391.056 204.352C391.643 204.896 391.936 205.707 391.936 206.784V212H390.848V210.688C390.592 211.125 390.213 211.467 389.712 211.712C389.221 211.957 388.635 212.08 387.952 212.08C387.013 212.08 386.267 211.856 385.712 211.408C385.157 210.96 384.88 210.368 384.88 209.632C384.88 208.917 385.136 208.341 385.648 207.904C386.171 207.467 386.997 207.248 388.128 207.248H390.8V206.736C390.8 206.011 390.597 205.461 390.192 205.088C389.787 204.704 389.195 204.512 388.416 204.512C387.883 204.512 387.371 204.603 386.88 204.784C386.389 204.955 385.968 205.195 385.616 205.504L385.104 204.656C385.531 204.293 386.043 204.016 386.64 203.824C387.237 203.621 387.867 203.52 388.528 203.52ZM388.128 211.184C388.768 211.184 389.317 211.04 389.776 210.752C390.235 210.453 390.576 210.027 390.8 209.472V208.096H388.16C386.72 208.096 386 208.597 386 209.6C386 210.091 386.187 210.48 386.56 210.768C386.933 211.045 387.456 211.184 388.128 211.184ZM402.606 203.584V212H401.517V210.464C401.219 210.976 400.808 211.376 400.286 211.664C399.763 211.941 399.166 212.08 398.494 212.08C397.395 212.08 396.526 211.776 395.886 211.168C395.256 210.549 394.942 209.648 394.942 208.464V203.584H396.078V208.352C396.078 209.237 396.296 209.909 396.734 210.368C397.171 210.827 397.795 211.056 398.606 211.056C399.491 211.056 400.19 210.789 400.702 210.256C401.214 209.712 401.47 208.96 401.47 208V203.584H402.606ZM410.219 211.488C410.006 211.68 409.739 211.829 409.419 211.936C409.11 212.032 408.784 212.08 408.443 212.08C407.654 212.08 407.046 211.867 406.619 211.44C406.192 211.013 405.979 210.411 405.979 209.632V204.544H404.475V203.584H405.979V201.744H407.115V203.584H409.675V204.544H407.115V209.568C407.115 210.069 407.238 210.453 407.483 210.72C407.739 210.976 408.102 211.104 408.571 211.104C408.806 211.104 409.03 211.067 409.243 210.992C409.467 210.917 409.659 210.811 409.819 210.672L410.219 211.488ZM416.575 203.52C417.631 203.52 418.468 203.829 419.087 204.448C419.716 205.056 420.031 205.947 420.031 207.12V212H418.895V207.232C418.895 206.357 418.676 205.691 418.239 205.232C417.802 204.773 417.178 204.544 416.367 204.544C415.46 204.544 414.74 204.816 414.207 205.36C413.684 205.893 413.423 206.635 413.423 207.584V212H412.287V200.128H413.423V205.056C413.732 204.565 414.159 204.187 414.703 203.92C415.247 203.653 415.871 203.52 416.575 203.52ZM430.475 208.144H423.435C423.499 209.019 423.835 209.728 424.443 210.272C425.051 210.805 425.819 211.072 426.747 211.072C427.269 211.072 427.749 210.981 428.187 210.8C428.624 210.608 429.003 210.331 429.323 209.968L429.963 210.704C429.589 211.152 429.12 211.493 428.555 211.728C428 211.963 427.387 212.08 426.715 212.08C425.851 212.08 425.083 211.899 424.411 211.536C423.749 211.163 423.232 210.651 422.859 210C422.485 209.349 422.299 208.613 422.299 207.792C422.299 206.971 422.475 206.235 422.827 205.584C423.189 204.933 423.68 204.427 424.299 204.064C424.928 203.701 425.632 203.52 426.411 203.52C427.189 203.52 427.888 203.701 428.507 204.064C429.125 204.427 429.611 204.933 429.963 205.584C430.315 206.224 430.491 206.96 430.491 207.792L430.475 208.144ZM426.411 204.496C425.6 204.496 424.917 204.757 424.363 205.28C423.819 205.792 423.509 206.464 423.435 207.296H429.403C429.328 206.464 429.013 205.792 428.459 205.28C427.915 204.757 427.232 204.496 426.411 204.496ZM437.091 203.52C438.147 203.52 438.984 203.829 439.603 204.448C440.232 205.056 440.547 205.947 440.547 207.12V212H439.411V207.232C439.411 206.357 439.192 205.691 438.755 205.232C438.317 204.773 437.693 204.544 436.883 204.544C435.976 204.544 435.256 204.816 434.723 205.36C434.2 205.893 433.939 206.635 433.939 207.584V212H432.803V203.584H433.891V205.136C434.2 204.624 434.627 204.229 435.171 203.952C435.725 203.664 436.365 203.52 437.091 203.52ZM448.063 211.488C447.85 211.68 447.583 211.829 447.263 211.936C446.954 212.032 446.628 212.08 446.287 212.08C445.498 212.08 444.89 211.867 444.463 211.44C444.036 211.013 443.823 210.411 443.823 209.632V204.544H442.319V203.584H443.823V201.744H444.959V203.584H447.519V204.544H444.959V209.568C444.959 210.069 445.082 210.453 445.327 210.72C445.583 210.976 445.946 211.104 446.415 211.104C446.65 211.104 446.874 211.067 447.087 210.992C447.311 210.917 447.503 210.811 447.663 210.672L448.063 211.488ZM450.131 203.584H451.267V212H450.131V203.584ZM450.707 201.744C450.472 201.744 450.275 201.664 450.115 201.504C449.955 201.344 449.875 201.152 449.875 200.928C449.875 200.715 449.955 200.528 450.115 200.368C450.275 200.208 450.472 200.128 450.707 200.128C450.942 200.128 451.139 200.208 451.299 200.368C451.459 200.517 451.539 200.699 451.539 200.912C451.539 201.147 451.459 201.344 451.299 201.504C451.139 201.664 450.942 201.744 450.707 201.744ZM457.916 212.08C457.084 212.08 456.337 211.899 455.676 211.536C455.025 211.173 454.513 210.667 454.14 210.016C453.766 209.355 453.58 208.613 453.58 207.792C453.58 206.971 453.766 206.235 454.14 205.584C454.513 204.933 455.025 204.427 455.676 204.064C456.337 203.701 457.084 203.52 457.916 203.52C458.641 203.52 459.286 203.664 459.852 203.952C460.428 204.229 460.881 204.64 461.212 205.184L460.364 205.76C460.086 205.344 459.734 205.035 459.308 204.832C458.881 204.619 458.417 204.512 457.916 204.512C457.308 204.512 456.758 204.651 456.268 204.928C455.788 205.195 455.409 205.579 455.132 206.08C454.865 206.581 454.732 207.152 454.732 207.792C454.732 208.443 454.865 209.019 455.132 209.52C455.409 210.011 455.788 210.395 456.268 210.672C456.758 210.939 457.308 211.072 457.916 211.072C458.417 211.072 458.881 210.971 459.308 210.768C459.734 210.565 460.086 210.256 460.364 209.84L461.212 210.416C460.881 210.96 460.428 211.376 459.852 211.664C459.276 211.941 458.63 212.08 457.916 212.08ZM466.387 203.52C467.486 203.52 468.329 203.797 468.915 204.352C469.502 204.896 469.795 205.707 469.795 206.784V212H468.707V210.688C468.451 211.125 468.073 211.467 467.571 211.712C467.081 211.957 466.494 212.08 465.811 212.08C464.873 212.08 464.126 211.856 463.571 211.408C463.017 210.96 462.739 210.368 462.739 209.632C462.739 208.917 462.995 208.341 463.507 207.904C464.03 207.467 464.857 207.248 465.987 207.248H468.659V206.736C468.659 206.011 468.457 205.461 468.051 205.088C467.646 204.704 467.054 204.512 466.275 204.512C465.742 204.512 465.23 204.603 464.739 204.784C464.249 204.955 463.827 205.195 463.475 205.504L462.963 204.656C463.39 204.293 463.902 204.016 464.499 203.824C465.097 203.621 465.726 203.52 466.387 203.52ZM465.987 211.184C466.627 211.184 467.177 211.04 467.635 210.752C468.094 210.453 468.435 210.027 468.659 209.472V208.096H466.019C464.579 208.096 463.859 208.597 463.859 209.6C463.859 210.091 464.046 210.48 464.419 210.768C464.793 211.045 465.315 211.184 465.987 211.184ZM477.313 211.488C477.1 211.68 476.833 211.829 476.513 211.936C476.204 212.032 475.878 212.08 475.537 212.08C474.748 212.08 474.14 211.867 473.713 211.44C473.286 211.013 473.073 210.411 473.073 209.632V204.544H471.569V203.584H473.073V201.744H474.209V203.584H476.769V204.544H474.209V209.568C474.209 210.069 474.332 210.453 474.577 210.72C474.833 210.976 475.196 211.104 475.665 211.104C475.9 211.104 476.124 211.067 476.337 210.992C476.561 210.917 476.753 210.811 476.913 210.672L477.313 211.488ZM486.412 208.144H479.372C479.436 209.019 479.772 209.728 480.38 210.272C480.988 210.805 481.756 211.072 482.684 211.072C483.207 211.072 483.687 210.981 484.124 210.8C484.561 210.608 484.94 210.331 485.26 209.968L485.9 210.704C485.527 211.152 485.057 211.493 484.492 211.728C483.937 211.963 483.324 212.08 482.652 212.08C481.788 212.08 481.02 211.899 480.348 211.536C479.687 211.163 479.169 210.651 478.796 210C478.423 209.349 478.236 208.613 478.236 207.792C478.236 206.971 478.412 206.235 478.764 205.584C479.127 204.933 479.617 204.427 480.236 204.064C480.865 203.701 481.569 203.52 482.348 203.52C483.127 203.52 483.825 203.701 484.444 204.064C485.063 204.427 485.548 204.933 485.9 205.584C486.252 206.224 486.428 206.96 486.428 207.792L486.412 208.144ZM482.348 204.496C481.537 204.496 480.855 204.757 480.3 205.28C479.756 205.792 479.447 206.464 479.372 207.296H485.34C485.265 206.464 484.951 205.792 484.396 205.28C483.852 204.757 483.169 204.496 482.348 204.496ZM496.42 200.128V212H495.332V210.336C494.991 210.901 494.538 211.333 493.972 211.632C493.418 211.931 492.788 212.08 492.084 212.08C491.295 212.08 490.58 211.899 489.94 211.536C489.3 211.173 488.799 210.667 488.436 210.016C488.074 209.365 487.892 208.624 487.892 207.792C487.892 206.96 488.074 206.219 488.436 205.568C488.799 204.917 489.3 204.416 489.94 204.064C490.58 203.701 491.295 203.52 492.084 203.52C492.767 203.52 493.38 203.664 493.924 203.952C494.479 204.229 494.932 204.64 495.284 205.184V200.128H496.42ZM492.18 211.072C492.767 211.072 493.295 210.939 493.764 210.672C494.244 210.395 494.618 210.005 494.884 209.504C495.162 209.003 495.3 208.432 495.3 207.792C495.3 207.152 495.162 206.581 494.884 206.08C494.618 205.579 494.244 205.195 493.764 204.928C493.295 204.651 492.767 204.512 492.18 204.512C491.583 204.512 491.044 204.651 490.564 204.928C490.095 205.195 489.722 205.579 489.444 206.08C489.178 206.581 489.044 207.152 489.044 207.792C489.044 208.432 489.178 209.003 489.444 209.504C489.722 210.005 490.095 210.395 490.564 210.672C491.044 210.939 491.583 211.072 492.18 211.072ZM511.356 203.584V212H510.267V210.464C509.969 210.976 509.558 211.376 509.036 211.664C508.513 211.941 507.916 212.08 507.244 212.08C506.145 212.08 505.276 211.776 504.636 211.168C504.006 210.549 503.692 209.648 503.692 208.464V203.584H504.828V208.352C504.828 209.237 505.046 209.909 505.484 210.368C505.921 210.827 506.545 211.056 507.356 211.056C508.241 211.056 508.94 210.789 509.452 210.256C509.964 209.712 510.22 208.96 510.22 208V203.584H511.356ZM516.793 212.08C516.11 212.08 515.454 211.984 514.825 211.792C514.206 211.589 513.721 211.339 513.369 211.04L513.881 210.144C514.233 210.421 514.676 210.651 515.209 210.832C515.742 211.003 516.297 211.088 516.873 211.088C517.641 211.088 518.206 210.971 518.569 210.736C518.942 210.491 519.129 210.149 519.129 209.712C519.129 209.403 519.028 209.163 518.825 208.992C518.622 208.811 518.366 208.677 518.057 208.592C517.748 208.496 517.337 208.405 516.825 208.32C516.142 208.192 515.593 208.064 515.177 207.936C514.761 207.797 514.404 207.568 514.105 207.248C513.817 206.928 513.673 206.485 513.673 205.92C513.673 205.216 513.966 204.64 514.553 204.192C515.14 203.744 515.956 203.52 517.001 203.52C517.545 203.52 518.089 203.595 518.633 203.744C519.177 203.883 519.625 204.069 519.977 204.304L519.481 205.216C518.788 204.736 517.961 204.496 517.001 204.496C516.276 204.496 515.726 204.624 515.353 204.88C514.99 205.136 514.809 205.472 514.809 205.888C514.809 206.208 514.91 206.464 515.113 206.656C515.326 206.848 515.588 206.992 515.897 207.088C516.206 207.173 516.633 207.264 517.177 207.36C517.849 207.488 518.388 207.616 518.793 207.744C519.198 207.872 519.545 208.091 519.833 208.4C520.121 208.709 520.265 209.136 520.265 209.68C520.265 210.416 519.956 211.003 519.337 211.44C518.729 211.867 517.881 212.08 516.793 212.08ZM529.693 208.144H522.653C522.717 209.019 523.053 209.728 523.661 210.272C524.269 210.805 525.037 211.072 525.965 211.072C526.488 211.072 526.968 210.981 527.405 210.8C527.843 210.608 528.221 210.331 528.541 209.968L529.181 210.704C528.808 211.152 528.339 211.493 527.773 211.728C527.219 211.963 526.605 212.08 525.933 212.08C525.069 212.08 524.301 211.899 523.629 211.536C522.968 211.163 522.451 210.651 522.077 210C521.704 209.349 521.517 208.613 521.517 207.792C521.517 206.971 521.693 206.235 522.045 205.584C522.408 204.933 522.899 204.427 523.517 204.064C524.147 203.701 524.851 203.52 525.629 203.52C526.408 203.52 527.107 203.701 527.725 204.064C528.344 204.427 528.829 204.933 529.181 205.584C529.533 206.224 529.709 206.96 529.709 207.792L529.693 208.144ZM525.629 204.496C524.819 204.496 524.136 204.757 523.581 205.28C523.037 205.792 522.728 206.464 522.653 207.296H528.621C528.547 206.464 528.232 205.792 527.677 205.28C527.133 204.757 526.451 204.496 525.629 204.496ZM533.11 205.232C533.376 204.667 533.771 204.24 534.294 203.952C534.827 203.664 535.483 203.52 536.262 203.52V204.624L535.99 204.608C535.104 204.608 534.411 204.88 533.91 205.424C533.408 205.968 533.158 206.731 533.158 207.712V212H532.022V203.584H533.11V205.232ZM540.637 212.08C539.954 212.08 539.298 211.984 538.669 211.792C538.05 211.589 537.565 211.339 537.213 211.04L537.725 210.144C538.077 210.421 538.52 210.651 539.053 210.832C539.586 211.003 540.141 211.088 540.717 211.088C541.485 211.088 542.05 210.971 542.413 210.736C542.786 210.491 542.973 210.149 542.973 209.712C542.973 209.403 542.872 209.163 542.669 208.992C542.466 208.811 542.21 208.677 541.901 208.592C541.592 208.496 541.181 208.405 540.669 208.32C539.986 208.192 539.437 208.064 539.021 207.936C538.605 207.797 538.248 207.568 537.949 207.248C537.661 206.928 537.517 206.485 537.517 205.92C537.517 205.216 537.81 204.64 538.397 204.192C538.984 203.744 539.8 203.52 540.845 203.52C541.389 203.52 541.933 203.595 542.477 203.744C543.021 203.883 543.469 204.069 543.821 204.304L543.325 205.216C542.632 204.736 541.805 204.496 540.845 204.496C540.12 204.496 539.57 204.624 539.197 204.88C538.834 205.136 538.653 205.472 538.653 205.888C538.653 206.208 538.754 206.464 538.957 206.656C539.17 206.848 539.432 206.992 539.741 207.088C540.05 207.173 540.477 207.264 541.021 207.36C541.693 207.488 542.232 207.616 542.637 207.744C543.042 207.872 543.389 208.091 543.677 208.4C543.965 208.709 544.109 209.136 544.109 209.68C544.109 210.416 543.8 211.003 543.181 211.44C542.573 211.867 541.725 212.08 540.637 212.08Z" fill="black"/>
<path d="M538.8 80.3C533.36 54.425 509.12 35 480 35C456.88 35 436.8 47.3 426.8 65.3C402.72 67.7 384 86.825 384 110C384 134.825 405.52 155 432 155H536C558.08 155 576 138.2 576 117.5C576 97.7 559.6 81.65 538.8 80.3Z" fill="#3FE7E7" stroke="#3FE7E7"/>
<path d="M458.267 92C459.507 92 460.58 92.2067 461.487 92.62C462.407 93.0333 463.114 93.62 463.607 94.38C464.1 95.14 464.347 96.04 464.347 97.08C464.347 98.1067 464.1 99.0067 463.607 99.78C463.114 100.54 462.407 101.127 461.487 101.54C460.58 101.94 459.507 102.14 458.267 102.14H455.447V106H452.207V92H458.267ZM458.087 99.5C459.06 99.5 459.8 99.2933 460.307 98.88C460.814 98.4533 461.067 97.8533 461.067 97.08C461.067 96.2933 460.814 95.6933 460.307 95.28C459.8 94.8533 459.06 94.64 458.087 94.64H455.447V99.5H458.087ZM469.42 96.66C469.793 96.14 470.293 95.7467 470.92 95.48C471.56 95.2133 472.293 95.08 473.12 95.08V97.96C472.773 97.9333 472.54 97.92 472.42 97.92C471.527 97.92 470.827 98.1733 470.32 98.68C469.813 99.1733 469.56 99.92 469.56 100.92V106H466.44V95.24H469.42V96.66ZM479.998 106.16C478.864 106.16 477.844 105.927 476.938 105.46C476.044 104.98 475.344 104.32 474.838 103.48C474.331 102.64 474.078 101.687 474.078 100.62C474.078 99.5533 474.331 98.6 474.838 97.76C475.344 96.92 476.044 96.2667 476.938 95.8C477.844 95.32 478.864 95.08 479.998 95.08C481.131 95.08 482.144 95.32 483.038 95.8C483.931 96.2667 484.631 96.92 485.138 97.76C485.644 98.6 485.898 99.5533 485.898 100.62C485.898 101.687 485.644 102.64 485.138 103.48C484.631 104.32 483.931 104.98 483.038 105.46C482.144 105.927 481.131 106.16 479.998 106.16ZM479.998 103.6C480.798 103.6 481.451 103.333 481.958 102.8C482.478 102.253 482.738 101.527 482.738 100.62C482.738 99.7133 482.478 98.9933 481.958 98.46C481.451 97.9133 480.798 97.64 479.998 97.64C479.198 97.64 478.538 97.9133 478.018 98.46C477.498 98.9933 477.238 99.7133 477.238 100.62C477.238 101.527 477.498 102.253 478.018 102.8C478.538 103.333 479.198 103.6 479.998 103.6ZM494.491 106L492.131 102.7L489.691 106H486.291L490.431 100.58L486.431 95.24H489.931L492.211 98.38L494.551 95.24H497.871L493.871 100.5L498.031 106H494.491ZM509.62 95.24L504.76 106.66C504.267 107.9 503.653 108.773 502.92 109.28C502.2 109.787 501.327 110.04 500.3 110.04C499.74 110.04 499.187 109.953 498.64 109.78C498.093 109.607 497.647 109.367 497.3 109.06L498.44 106.84C498.68 107.053 498.953 107.22 499.26 107.34C499.58 107.46 499.893 107.52 500.2 107.52C500.627 107.52 500.973 107.413 501.24 107.2C501.507 107 501.747 106.66 501.96 106.18L502 106.08L497.34 95.24H500.56L503.58 102.54L506.62 95.24H509.62Z" fill="black"/>
<path d="M597.939 107.939C597.354 108.525 597.354 109.475 597.939 110.061L607.485 119.607C608.071 120.192 609.021 120.192 609.607 119.607C610.192 119.021 610.192 118.071 609.607 117.485L601.121 109L609.607 100.515C610.192 99.9289 610.192 98.9792 609.607 98.3934C609.021 97.8076 608.071 97.8076 607.485 98.3934L597.939 107.939ZM705.061 110.061C705.646 109.475 705.646 108.525 705.061 107.939L695.515 98.3934C694.929 97.8076 693.979 97.8076 693.393 98.3934C692.808 98.9792 692.808 99.9289 693.393 100.515L701.879 109L693.393 117.485C692.808 118.071 692.808 119.021 693.393 119.607C693.979 120.192 694.929 120.192 695.515 119.607L705.061 110.061ZM599 110.5H704V107.5H599V110.5Z" fill="#9696A5"/>
<path d="M645.804 121.912H642.22V119.8H651.98V121.912H648.396V131H645.804V121.912ZM653.375 119.8H655.967V128.888H661.583V131H653.375V119.8ZM666.649 131.192C665.763 131.192 664.905 131.075 664.073 130.84C663.251 130.595 662.59 130.28 662.089 129.896L662.969 127.944C663.449 128.296 664.019 128.579 664.681 128.792C665.342 129.005 666.003 129.112 666.665 129.112C667.401 129.112 667.945 129.005 668.297 128.792C668.649 128.568 668.825 128.275 668.825 127.912C668.825 127.645 668.718 127.427 668.505 127.256C668.302 127.075 668.035 126.931 667.705 126.824C667.385 126.717 666.947 126.6 666.393 126.472C665.539 126.269 664.841 126.067 664.297 125.864C663.753 125.661 663.283 125.336 662.889 124.888C662.505 124.44 662.313 123.843 662.313 123.096C662.313 122.445 662.489 121.859 662.841 121.336C663.193 120.803 663.721 120.381 664.425 120.072C665.139 119.763 666.009 119.608 667.033 119.608C667.747 119.608 668.446 119.693 669.129 119.864C669.811 120.035 670.409 120.28 670.921 120.6L670.121 122.568C669.086 121.981 668.051 121.688 667.017 121.688C666.291 121.688 665.753 121.805 665.401 122.04C665.059 122.275 664.889 122.584 664.889 122.968C664.889 123.352 665.086 123.64 665.481 123.832C665.886 124.013 666.499 124.195 667.321 124.376C668.174 124.579 668.873 124.781 669.417 124.984C669.961 125.187 670.425 125.507 670.809 125.944C671.203 126.381 671.401 126.973 671.401 127.72C671.401 128.36 671.219 128.947 670.857 129.48C670.505 130.003 669.971 130.419 669.257 130.728C668.542 131.037 667.673 131.192 666.649 131.192Z" fill="#9696A5"/>
<path d="M639.617 122.654H639.344V121.377C639.344 119.016 637.47 117.043 635.128 117.001C635.064 117 634.936 117 634.872 117.001C632.53 117.043 630.656 119.016 630.656 121.377V122.654H630.383C629.963 122.654 629.62 123.088 629.62 123.623V130.027C629.62 130.562 629.963 131 630.383 131H639.617C640.037 131 640.38 130.562 640.38 130.027V123.623C640.38 123.088 640.037 122.654 639.617 122.654ZM635.865 126.819V128.754C635.865 128.975 635.679 129.163 635.458 129.163H634.542C634.32 129.163 634.135 128.975 634.135 128.754V126.819C633.92 126.607 633.795 126.314 633.795 125.99C633.795 125.377 634.269 124.85 634.872 124.825C634.936 124.823 635.064 124.823 635.128 124.825C635.731 124.85 636.205 125.377 636.205 125.99C636.205 126.314 636.08 126.607 635.865 126.819ZM637.546 122.654H635.128H634.872H632.454V121.377C632.454 119.97 633.597 118.807 635 118.807C636.403 118.807 637.546 119.97 637.546 121.377V122.654H637.546Z" fill="#9696A5"/>
<path d="M24.824 180.8H29.384C30.568 180.8 31.6133 181.04 32.52 181.52C33.4267 181.989 34.1307 182.651 34.632 183.504C35.1333 184.347 35.384 185.312 35.384 186.4C35.384 187.488 35.1333 188.459 34.632 189.312C34.1307 190.155 33.4267 190.816 32.52 191.296C31.6133 191.765 30.568 192 29.384 192H24.824V180.8ZM29.32 190.976C30.3013 190.976 31.16 190.784 31.896 190.4C32.632 190.005 33.2027 189.467 33.608 188.784C34.0133 188.091 34.216 187.296 34.216 186.4C34.216 185.504 34.0133 184.715 33.608 184.032C33.2027 183.339 32.632 182.8 31.896 182.416C31.16 182.021 30.3013 181.824 29.32 181.824H26.008V190.976H29.32ZM37.8028 183.584H38.9388V192H37.8028V183.584ZM38.3788 181.744C38.1441 181.744 37.9468 181.664 37.7868 181.504C37.6268 181.344 37.5468 181.152 37.5468 180.928C37.5468 180.715 37.6268 180.528 37.7868 180.368C37.9468 180.208 38.1441 180.128 38.3788 180.128C38.6134 180.128 38.8108 180.208 38.9708 180.368C39.1308 180.517 39.2108 180.699 39.2108 180.912C39.2108 181.147 39.1308 181.344 38.9708 181.504C38.8108 181.664 38.6134 181.744 38.3788 181.744ZM44.3556 192.08C43.673 192.08 43.017 191.984 42.3876 191.792C41.769 191.589 41.2836 191.339 40.9316 191.04L41.4436 190.144C41.7956 190.421 42.2383 190.651 42.7716 190.832C43.305 191.003 43.8596 191.088 44.4356 191.088C45.2036 191.088 45.769 190.971 46.1316 190.736C46.505 190.491 46.6916 190.149 46.6916 189.712C46.6916 189.403 46.5903 189.163 46.3876 188.992C46.185 188.811 45.929 188.677 45.6196 188.592C45.3103 188.496 44.8996 188.405 44.3876 188.32C43.705 188.192 43.1556 188.064 42.7396 187.936C42.3236 187.797 41.9663 187.568 41.6676 187.248C41.3796 186.928 41.2356 186.485 41.2356 185.92C41.2356 185.216 41.529 184.64 42.1156 184.192C42.7023 183.744 43.5183 183.52 44.5636 183.52C45.1076 183.52 45.6516 183.595 46.1956 183.744C46.7396 183.883 47.1876 184.069 47.5396 184.304L47.0436 185.216C46.3503 184.736 45.5236 184.496 44.5636 184.496C43.8383 184.496 43.289 184.624 42.9156 184.88C42.553 185.136 42.3716 185.472 42.3716 185.888C42.3716 186.208 42.473 186.464 42.6756 186.656C42.889 186.848 43.1503 186.992 43.4596 187.088C43.769 187.173 44.1956 187.264 44.7396 187.36C45.4116 187.488 45.9503 187.616 46.3556 187.744C46.761 187.872 47.1076 188.091 47.3956 188.4C47.6836 188.709 47.8276 189.136 47.8276 189.68C47.8276 190.416 47.5183 191.003 46.8996 191.44C46.2916 191.867 45.4436 192.08 44.3556 192.08ZM54.2638 183.52C55.0531 183.52 55.7678 183.701 56.4078 184.064C57.0478 184.416 57.5491 184.917 57.9118 185.568C58.2744 186.219 58.4558 186.96 58.4558 187.792C58.4558 188.635 58.2744 189.381 57.9118 190.032C57.5491 190.683 57.0478 191.189 56.4078 191.552C55.7784 191.904 55.0638 192.08 54.2638 192.08C53.5811 192.08 52.9624 191.941 52.4078 191.664C51.8638 191.376 51.4158 190.96 51.0638 190.416V195.104H49.9278V183.584H51.0158V185.248C51.3571 184.693 51.8051 184.267 52.3598 183.968C52.9251 183.669 53.5598 183.52 54.2638 183.52ZM54.1838 191.072C54.7704 191.072 55.3038 190.939 55.7838 190.672C56.2638 190.395 56.6371 190.005 56.9038 189.504C57.1811 189.003 57.3198 188.432 57.3198 187.792C57.3198 187.152 57.1811 186.587 56.9038 186.096C56.6371 185.595 56.2638 185.205 55.7838 184.928C55.3038 184.651 54.7704 184.512 54.1838 184.512C53.5864 184.512 53.0478 184.651 52.5677 184.928C52.0984 185.205 51.7251 185.595 51.4478 186.096C51.1811 186.587 51.0478 187.152 51.0478 187.792C51.0478 188.432 51.1811 189.003 51.4478 189.504C51.7251 190.005 52.0984 190.395 52.5677 190.672C53.0478 190.939 53.5864 191.072 54.1838 191.072ZM60.7715 180.128H61.9075V192H60.7715V180.128ZM68.0124 183.52C69.111 183.52 69.9537 183.797 70.5404 184.352C71.127 184.896 71.4204 185.707 71.4204 186.784V192H70.3324V190.688C70.0764 191.125 69.6977 191.467 69.1964 191.712C68.7057 191.957 68.119 192.08 67.4364 192.08C66.4977 192.08 65.751 191.856 65.1964 191.408C64.6417 190.96 64.3644 190.368 64.3644 189.632C64.3644 188.917 64.6204 188.341 65.1324 187.904C65.655 187.467 66.4817 187.248 67.6124 187.248H70.2844V186.736C70.2844 186.011 70.0817 185.461 69.6764 185.088C69.271 184.704 68.679 184.512 67.9004 184.512C67.367 184.512 66.855 184.603 66.3644 184.784C65.8737 184.955 65.4524 185.195 65.1004 185.504L64.5884 184.656C65.015 184.293 65.527 184.016 66.1244 183.824C66.7217 183.621 67.351 183.52 68.0124 183.52ZM67.6124 191.184C68.2524 191.184 68.8017 191.04 69.2604 190.752C69.719 190.453 70.0604 190.027 70.2844 189.472V188.096H67.6444C66.2044 188.096 65.4844 188.597 65.4844 189.6C65.4844 190.091 65.671 190.48 66.0444 190.768C66.4177 191.045 66.9404 191.184 67.6124 191.184ZM81.4216 183.584L77.2136 193.008C76.8723 193.797 76.4776 194.357 76.0296 194.688C75.5816 195.019 75.043 195.184 74.4136 195.184C74.0083 195.184 73.6296 195.12 73.2776 194.992C72.9256 194.864 72.6216 194.672 72.3656 194.416L72.8936 193.568C73.3203 193.995 73.8323 194.208 74.4296 194.208C74.8136 194.208 75.139 194.101 75.4056 193.888C75.683 193.675 75.939 193.312 76.1736 192.8L76.5416 191.984L72.7816 183.584H73.9656L77.1336 190.736L80.3016 183.584H81.4216ZM94.889 180.128V192H93.801V190.336C93.4597 190.901 93.0063 191.333 92.441 191.632C91.8863 191.931 91.257 192.08 90.553 192.08C89.7637 192.08 89.049 191.899 88.409 191.536C87.769 191.173 87.2677 190.667 86.905 190.016C86.5423 189.365 86.361 188.624 86.361 187.792C86.361 186.96 86.5423 186.219 86.905 185.568C87.2677 184.917 87.769 184.416 88.409 184.064C89.049 183.701 89.7637 183.52 90.553 183.52C91.2357 183.52 91.849 183.664 92.393 183.952C92.9477 184.229 93.401 184.64 93.753 185.184V180.128H94.889ZM90.649 191.072C91.2357 191.072 91.7637 190.939 92.233 190.672C92.713 190.395 93.0863 190.005 93.353 189.504C93.6303 189.003 93.769 188.432 93.769 187.792C93.769 187.152 93.6303 186.581 93.353 186.08C93.0863 185.579 92.713 185.195 92.233 184.928C91.7637 184.651 91.2357 184.512 90.649 184.512C90.0517 184.512 89.513 184.651 89.033 184.928C88.5637 185.195 88.1903 185.579 87.913 186.08C87.6463 186.581 87.513 187.152 87.513 187.792C87.513 188.432 87.6463 189.003 87.913 189.504C88.1903 190.005 88.5637 190.395 89.033 190.672C89.513 190.939 90.0517 191.072 90.649 191.072ZM100.997 183.52C102.095 183.52 102.938 183.797 103.525 184.352C104.111 184.896 104.405 185.707 104.405 186.784V192H103.317V190.688C103.061 191.125 102.682 191.467 102.181 191.712C101.69 191.957 101.103 192.08 100.421 192.08C99.4821 192.08 98.7354 191.856 98.1808 191.408C97.6261 190.96 97.3488 190.368 97.3488 189.632C97.3488 188.917 97.6048 188.341 98.1168 187.904C98.6394 187.467 99.4661 187.248 100.597 187.248H103.269V186.736C103.269 186.011 103.066 185.461 102.661 185.088C102.255 184.704 101.663 184.512 100.885 184.512C100.351 184.512 99.8394 184.603 99.3488 184.784C98.8581 184.955 98.4368 185.195 98.0848 185.504L97.5728 184.656C97.9994 184.293 98.5114 184.016 99.1088 183.824C99.7061 183.621 100.335 183.52 100.997 183.52ZM100.597 191.184C101.237 191.184 101.786 191.04 102.245 190.752C102.703 190.453 103.045 190.027 103.269 189.472V188.096H100.629C99.1888 188.096 98.4688 188.597 98.4688 189.6C98.4688 190.091 98.6554 190.48 99.0288 190.768C99.4021 191.045 99.9248 191.184 100.597 191.184ZM111.922 191.488C111.709 191.68 111.442 191.829 111.122 191.936C110.813 192.032 110.488 192.08 110.146 192.08C109.357 192.08 108.749 191.867 108.322 191.44C107.896 191.013 107.682 190.411 107.682 189.632V184.544H106.178V183.584H107.682V181.744H108.818V183.584H111.378V184.544H108.818V189.568C108.818 190.069 108.941 190.453 109.186 190.72C109.442 190.976 109.805 191.104 110.274 191.104C110.509 191.104 110.733 191.067 110.946 190.992C111.17 190.917 111.362 190.811 111.522 190.672L111.922 191.488ZM116.934 183.52C118.033 183.52 118.876 183.797 119.462 184.352C120.049 184.896 120.342 185.707 120.342 186.784V192H119.254V190.688C118.998 191.125 118.62 191.467 118.118 191.712C117.628 191.957 117.041 192.08 116.358 192.08C115.42 192.08 114.673 191.856 114.118 191.408C113.564 190.96 113.286 190.368 113.286 189.632C113.286 188.917 113.542 188.341 114.054 187.904C114.577 187.467 115.404 187.248 116.534 187.248H119.206V186.736C119.206 186.011 119.004 185.461 118.598 185.088C118.193 184.704 117.601 184.512 116.822 184.512C116.289 184.512 115.777 184.603 115.286 184.784C114.796 184.955 114.374 185.195 114.022 185.504L113.51 184.656C113.937 184.293 114.449 184.016 115.046 183.824C115.644 183.621 116.273 183.52 116.934 183.52ZM116.534 191.184C117.174 191.184 117.724 191.04 118.182 190.752C118.641 190.453 118.982 190.027 119.206 189.472V188.096H116.566C115.126 188.096 114.406 188.597 114.406 189.6C114.406 190.091 114.593 190.48 114.966 190.768C115.34 191.045 115.862 191.184 116.534 191.184ZM132.047 191.488C131.834 191.68 131.567 191.829 131.247 191.936C130.938 192.032 130.613 192.08 130.271 192.08C129.482 192.08 128.874 191.867 128.447 191.44C128.021 191.013 127.807 190.411 127.807 189.632V184.544H126.303V183.584H127.807V181.744H128.943V183.584H131.503V184.544H128.943V189.568C128.943 190.069 129.066 190.453 129.311 190.72C129.567 190.976 129.93 191.104 130.399 191.104C130.634 191.104 130.858 191.067 131.071 190.992C131.295 190.917 131.487 190.811 131.647 190.672L132.047 191.488ZM137.258 192.08C136.448 192.08 135.717 191.899 135.066 191.536C134.416 191.163 133.904 190.651 133.53 190C133.157 189.349 132.97 188.613 132.97 187.792C132.97 186.971 133.157 186.235 133.53 185.584C133.904 184.933 134.416 184.427 135.066 184.064C135.717 183.701 136.448 183.52 137.258 183.52C138.069 183.52 138.8 183.701 139.45 184.064C140.101 184.427 140.608 184.933 140.97 185.584C141.344 186.235 141.53 186.971 141.53 187.792C141.53 188.613 141.344 189.349 140.97 190C140.608 190.651 140.101 191.163 139.45 191.536C138.8 191.899 138.069 192.08 137.258 192.08ZM137.258 191.072C137.856 191.072 138.389 190.939 138.858 190.672C139.338 190.395 139.712 190.005 139.978 189.504C140.245 189.003 140.378 188.432 140.378 187.792C140.378 187.152 140.245 186.581 139.978 186.08C139.712 185.579 139.338 185.195 138.858 184.928C138.389 184.651 137.856 184.512 137.258 184.512C136.661 184.512 136.122 184.651 135.642 184.928C135.173 185.195 134.8 185.579 134.522 186.08C134.256 186.581 134.122 187.152 134.122 187.792C134.122 188.432 134.256 189.003 134.522 189.504C134.8 190.005 135.173 190.395 135.642 190.672C136.122 190.939 136.661 191.072 137.258 191.072ZM27.528 203.52C28.6267 203.52 29.4693 203.797 30.056 204.352C30.6427 204.896 30.936 205.707 30.936 206.784V212H29.848V210.688C29.592 211.125 29.2133 211.467 28.712 211.712C28.2213 211.957 27.6347 212.08 26.952 212.08C26.0133 212.08 25.2667 211.856 24.712 211.408C24.1573 210.96 23.88 210.368 23.88 209.632C23.88 208.917 24.136 208.341 24.648 207.904C25.1707 207.467 25.9973 207.248 27.128 207.248H29.8V206.736C29.8 206.011 29.5973 205.461 29.192 205.088C28.7867 204.704 28.1947 204.512 27.416 204.512C26.8827 204.512 26.3707 204.603 25.88 204.784C25.3893 204.955 24.968 205.195 24.616 205.504L24.104 204.656C24.5307 204.293 25.0427 204.016 25.64 203.824C26.2373 203.621 26.8667 203.52 27.528 203.52ZM27.128 211.184C27.768 211.184 28.3173 211.04 28.776 210.752C29.2347 210.453 29.576 210.027 29.8 209.472V208.096H27.16C25.72 208.096 25 208.597 25 209.6C25 210.091 25.1867 210.48 25.56 210.768C25.9333 211.045 26.456 211.184 27.128 211.184ZM41.6055 203.584V212H40.5175V210.464C40.2188 210.976 39.8082 211.376 39.2855 211.664C38.7628 211.941 38.1655 212.08 37.4935 212.08C36.3948 212.08 35.5255 211.776 34.8855 211.168C34.2562 210.549 33.9415 209.648 33.9415 208.464V203.584H35.0775V208.352C35.0775 209.237 35.2962 209.909 35.7335 210.368C36.1708 210.827 36.7948 211.056 37.6055 211.056C38.4908 211.056 39.1895 210.789 39.7015 210.256C40.2135 209.712 40.4695 208.96 40.4695 208V203.584H41.6055ZM49.2191 211.488C49.0058 211.68 48.7391 211.829 48.4191 211.936C48.1098 212.032 47.7845 212.08 47.4431 212.08C46.6538 212.08 46.0458 211.867 45.6191 211.44C45.1925 211.013 44.9791 210.411 44.9791 209.632V204.544H43.4751V203.584H44.9791V201.744H46.1151V203.584H48.6751V204.544H46.1151V209.568C46.1151 210.069 46.2378 210.453 46.4831 210.72C46.7391 210.976 47.1018 211.104 47.5711 211.104C47.8058 211.104 48.0298 211.067 48.2431 210.992C48.4671 210.917 48.6591 210.811 48.8191 210.672L49.2191 211.488ZM55.5751 203.52C56.6311 203.52 57.4685 203.829 58.0871 204.448C58.7165 205.056 59.0311 205.947 59.0311 207.12V212H57.8951V207.232C57.8951 206.357 57.6765 205.691 57.2391 205.232C56.8018 204.773 56.1778 204.544 55.3671 204.544C54.4605 204.544 53.7405 204.816 53.2071 205.36C52.6845 205.893 52.4231 206.635 52.4231 207.584V212H51.2871V200.128H52.4231V205.056C52.7325 204.565 53.1591 204.187 53.7031 203.92C54.2471 203.653 54.8711 203.52 55.5751 203.52ZM69.4745 208.144H62.4345C62.4985 209.019 62.8345 209.728 63.4425 210.272C64.0505 210.805 64.8185 211.072 65.7465 211.072C66.2692 211.072 66.7492 210.981 67.1865 210.8C67.6238 210.608 68.0025 210.331 68.3225 209.968L68.9625 210.704C68.5892 211.152 68.1198 211.493 67.5545 211.728C66.9998 211.963 66.3865 212.08 65.7145 212.08C64.8505 212.08 64.0825 211.899 63.4105 211.536C62.7492 211.163 62.2318 210.651 61.8585 210C61.4852 209.349 61.2985 208.613 61.2985 207.792C61.2985 206.971 61.4745 206.235 61.8265 205.584C62.1892 204.933 62.6798 204.427 63.2985 204.064C63.9278 203.701 64.6318 203.52 65.4105 203.52C66.1892 203.52 66.8878 203.701 67.5065 204.064C68.1252 204.427 68.6105 204.933 68.9625 205.584C69.3145 206.224 69.4905 206.96 69.4905 207.792L69.4745 208.144ZM65.4105 204.496C64.5998 204.496 63.9172 204.757 63.3625 205.28C62.8185 205.792 62.5092 206.464 62.4345 207.296H68.4025C68.3278 206.464 68.0132 205.792 67.4585 205.28C66.9145 204.757 66.2318 204.496 65.4105 204.496ZM76.0908 203.52C77.1468 203.52 77.9841 203.829 78.6028 204.448C79.2321 205.056 79.5468 205.947 79.5468 207.12V212H78.4108V207.232C78.4108 206.357 78.1921 205.691 77.7548 205.232C77.3174 204.773 76.6934 204.544 75.8828 204.544C74.9761 204.544 74.2561 204.816 73.7228 205.36C73.2001 205.893 72.9388 206.635 72.9388 207.584V212H71.8028V203.584H72.8908V205.136C73.2001 204.624 73.6268 204.229 74.1708 203.952C74.7254 203.664 75.3654 203.52 76.0908 203.52ZM87.0629 211.488C86.8495 211.68 86.5829 211.829 86.2629 211.936C85.9535 212.032 85.6282 212.08 85.2869 212.08C84.4975 212.08 83.8895 211.867 83.4629 211.44C83.0362 211.013 82.8229 210.411 82.8229 209.632V204.544H81.3189V203.584H82.8229V201.744H83.9589V203.584H86.5189V204.544H83.9589V209.568C83.9589 210.069 84.0815 210.453 84.3269 210.72C84.5829 210.976 84.9455 211.104 85.4149 211.104C85.6495 211.104 85.8735 211.067 86.0869 210.992C86.3109 210.917 86.5029 210.811 86.6629 210.672L87.0629 211.488ZM89.1309 203.584H90.2669V212H89.1309V203.584ZM89.7069 201.744C89.4722 201.744 89.2749 201.664 89.1149 201.504C88.9549 201.344 88.8749 201.152 88.8749 200.928C88.8749 200.715 88.9549 200.528 89.1149 200.368C89.2749 200.208 89.4722 200.128 89.7069 200.128C89.9415 200.128 90.1389 200.208 90.2989 200.368C90.4589 200.517 90.5389 200.699 90.5389 200.912C90.5389 201.147 90.4589 201.344 90.2989 201.504C90.1389 201.664 89.9415 201.744 89.7069 201.744ZM96.9158 212.08C96.0838 212.08 95.3371 211.899 94.6758 211.536C94.0251 211.173 93.5131 210.667 93.1398 210.016C92.7664 209.355 92.5798 208.613 92.5798 207.792C92.5798 206.971 92.7664 206.235 93.1398 205.584C93.5131 204.933 94.0251 204.427 94.6758 204.064C95.3371 203.701 96.0838 203.52 96.9158 203.52C97.6411 203.52 98.2864 203.664 98.8518 203.952C99.4278 204.229 99.8811 204.64 100.212 205.184L99.3638 205.76C99.0864 205.344 98.7344 205.035 98.3078 204.832C97.8811 204.619 97.4171 204.512 96.9158 204.512C96.3078 204.512 95.7584 204.651 95.2678 204.928C94.7878 205.195 94.4091 205.579 94.1318 206.08C93.8651 206.581 93.7318 207.152 93.7318 207.792C93.7318 208.443 93.8651 209.019 94.1318 209.52C94.4091 210.011 94.7878 210.395 95.2678 210.672C95.7584 210.939 96.3078 211.072 96.9158 211.072C97.4171 211.072 97.8811 210.971 98.3078 210.768C98.7344 210.565 99.0864 210.256 99.3638 209.84L100.212 210.416C99.8811 210.96 99.4278 211.376 98.8518 211.664C98.2758 211.941 97.6304 212.08 96.9158 212.08ZM105.387 203.52C106.486 203.52 107.329 203.797 107.915 204.352C108.502 204.896 108.795 205.707 108.795 206.784V212H107.707V210.688C107.451 211.125 107.073 211.467 106.571 211.712C106.081 211.957 105.494 212.08 104.811 212.08C103.873 212.08 103.126 211.856 102.571 211.408C102.017 210.96 101.739 210.368 101.739 209.632C101.739 208.917 101.995 208.341 102.507 207.904C103.03 207.467 103.857 207.248 104.987 207.248H107.659V206.736C107.659 206.011 107.457 205.461 107.051 205.088C106.646 204.704 106.054 204.512 105.275 204.512C104.742 204.512 104.23 204.603 103.739 204.784C103.249 204.955 102.827 205.195 102.475 205.504L101.963 204.656C102.39 204.293 102.902 204.016 103.499 203.824C104.097 203.621 104.726 203.52 105.387 203.52ZM104.987 211.184C105.627 211.184 106.177 211.04 106.635 210.752C107.094 210.453 107.435 210.027 107.659 209.472V208.096H105.019C103.579 208.096 102.859 208.597 102.859 209.6C102.859 210.091 103.046 210.48 103.419 210.768C103.793 211.045 104.315 211.184 104.987 211.184ZM116.313 211.488C116.1 211.68 115.833 211.829 115.513 211.936C115.204 212.032 114.878 212.08 114.537 212.08C113.748 212.08 113.14 211.867 112.713 211.44C112.286 211.013 112.073 210.411 112.073 209.632V204.544H110.569V203.584H112.073V201.744H113.209V203.584H115.769V204.544H113.209V209.568C113.209 210.069 113.332 210.453 113.577 210.72C113.833 210.976 114.196 211.104 114.665 211.104C114.9 211.104 115.124 211.067 115.337 210.992C115.561 210.917 115.753 210.811 115.913 210.672L116.313 211.488ZM125.412 208.144H118.372C118.436 209.019 118.772 209.728 119.38 210.272C119.988 210.805 120.756 211.072 121.684 211.072C122.207 211.072 122.687 210.981 123.124 210.8C123.561 210.608 123.94 210.331 124.26 209.968L124.9 210.704C124.527 211.152 124.057 211.493 123.492 211.728C122.937 211.963 122.324 212.08 121.652 212.08C120.788 212.08 120.02 211.899 119.348 211.536C118.687 211.163 118.169 210.651 117.796 210C117.423 209.349 117.236 208.613 117.236 207.792C117.236 206.971 117.412 206.235 117.764 205.584C118.127 204.933 118.617 204.427 119.236 204.064C119.865 203.701 120.569 203.52 121.348 203.52C122.127 203.52 122.825 203.701 123.444 204.064C124.063 204.427 124.548 204.933 124.9 205.584C125.252 206.224 125.428 206.96 125.428 207.792L125.412 208.144ZM121.348 204.496C120.537 204.496 119.855 204.757 119.3 205.28C118.756 205.792 118.447 206.464 118.372 207.296H124.34C124.265 206.464 123.951 205.792 123.396 205.28C122.852 204.757 122.169 204.496 121.348 204.496ZM135.42 200.128V212H134.332V210.336C133.991 210.901 133.538 211.333 132.972 211.632C132.418 211.931 131.788 212.08 131.084 212.08C130.295 212.08 129.58 211.899 128.94 211.536C128.3 211.173 127.799 210.667 127.436 210.016C127.074 209.365 126.892 208.624 126.892 207.792C126.892 206.96 127.074 206.219 127.436 205.568C127.799 204.917 128.3 204.416 128.94 204.064C129.58 203.701 130.295 203.52 131.084 203.52C131.767 203.52 132.38 203.664 132.924 203.952C133.479 204.229 133.932 204.64 134.284 205.184V200.128H135.42ZM131.18 211.072C131.767 211.072 132.295 210.939 132.764 210.672C133.244 210.395 133.618 210.005 133.884 209.504C134.162 209.003 134.3 208.432 134.3 207.792C134.3 207.152 134.162 206.581 133.884 206.08C133.618 205.579 133.244 205.195 132.764 204.928C132.295 204.651 131.767 204.512 131.18 204.512C130.583 204.512 130.044 204.651 129.564 204.928C129.095 205.195 128.722 205.579 128.444 206.08C128.178 206.581 128.044 207.152 128.044 207.792C128.044 208.432 128.178 209.003 128.444 209.504C128.722 210.005 129.095 210.395 129.564 210.672C130.044 210.939 130.583 211.072 131.18 211.072ZM150.1 208.144H143.06C143.124 209.019 143.46 209.728 144.068 210.272C144.676 210.805 145.444 211.072 146.372 211.072C146.894 211.072 147.374 210.981 147.812 210.8C148.249 210.608 148.628 210.331 148.948 209.968L149.588 210.704C149.214 211.152 148.745 211.493 148.18 211.728C147.625 211.963 147.012 212.08 146.34 212.08C145.476 212.08 144.708 211.899 144.036 211.536C143.374 211.163 142.857 210.651 142.484 210C142.11 209.349 141.924 208.613 141.924 207.792C141.924 206.971 142.1 206.235 142.452 205.584C142.814 204.933 143.305 204.427 143.924 204.064C144.553 203.701 145.257 203.52 146.036 203.52C146.814 203.52 147.513 203.701 148.132 204.064C148.75 204.427 149.236 204.933 149.588 205.584C149.94 206.224 150.116 206.96 150.116 207.792L150.1 208.144ZM146.036 204.496C145.225 204.496 144.542 204.757 143.988 205.28C143.444 205.792 143.134 206.464 143.06 207.296H149.028C148.953 206.464 148.638 205.792 148.084 205.28C147.54 204.757 146.857 204.496 146.036 204.496ZM156.716 203.52C157.772 203.52 158.609 203.829 159.228 204.448C159.857 205.056 160.172 205.947 160.172 207.12V212H159.036V207.232C159.036 206.357 158.817 205.691 158.38 205.232C157.942 204.773 157.318 204.544 156.508 204.544C155.601 204.544 154.881 204.816 154.348 205.36C153.825 205.893 153.564 206.635 153.564 207.584V212H152.428V203.584H153.516V205.136C153.825 204.624 154.252 204.229 154.796 203.952C155.35 203.664 155.99 203.52 156.716 203.52ZM170.967 200.128V212H169.879V210.336C169.538 210.901 169.084 211.333 168.519 211.632C167.964 211.931 167.335 212.08 166.631 212.08C165.842 212.08 165.127 211.899 164.487 211.536C163.847 211.173 163.346 210.667 162.983 210.016C162.62 209.365 162.439 208.624 162.439 207.792C162.439 206.96 162.62 206.219 162.983 205.568C163.346 204.917 163.847 204.416 164.487 204.064C165.127 203.701 165.842 203.52 166.631 203.52C167.314 203.52 167.927 203.664 168.471 203.952C169.026 204.229 169.479 204.64 169.831 205.184V200.128H170.967ZM166.727 211.072C167.314 211.072 167.842 210.939 168.311 210.672C168.791 210.395 169.164 210.005 169.431 209.504C169.708 209.003 169.847 208.432 169.847 207.792C169.847 207.152 169.708 206.581 169.431 206.08C169.164 205.579 168.791 205.195 168.311 204.928C167.842 204.651 167.314 204.512 166.727 204.512C166.13 204.512 165.591 204.651 165.111 204.928C164.642 205.195 164.268 205.579 163.991 206.08C163.724 206.581 163.591 207.152 163.591 207.792C163.591 208.432 163.724 209.003 163.991 209.504C164.268 210.005 164.642 210.395 165.111 210.672C165.591 210.939 166.13 211.072 166.727 211.072ZM185.902 203.584V212H184.814V210.464C184.516 210.976 184.105 211.376 183.582 211.664C183.06 211.941 182.462 212.08 181.79 212.08C180.692 212.08 179.822 211.776 179.182 211.168C178.553 210.549 178.238 209.648 178.238 208.464V203.584H179.374V208.352C179.374 209.237 179.593 209.909 180.03 210.368C180.468 210.827 181.092 211.056 181.902 211.056C182.788 211.056 183.486 210.789 183.998 210.256C184.51 209.712 184.766 208.96 184.766 208V203.584H185.902ZM191.34 212.08C190.657 212.08 190.001 211.984 189.372 211.792C188.753 211.589 188.268 211.339 187.916 211.04L188.428 210.144C188.78 210.421 189.223 210.651 189.756 210.832C190.289 211.003 190.844 211.088 191.42 211.088C192.188 211.088 192.753 210.971 193.116 210.736C193.489 210.491 193.676 210.149 193.676 209.712C193.676 209.403 193.575 209.163 193.372 208.992C193.169 208.811 192.913 208.677 192.604 208.592C192.295 208.496 191.884 208.405 191.372 208.32C190.689 208.192 190.14 208.064 189.724 207.936C189.308 207.797 188.951 207.568 188.652 207.248C188.364 206.928 188.22 206.485 188.22 205.92C188.22 205.216 188.513 204.64 189.1 204.192C189.687 203.744 190.503 203.52 191.548 203.52C192.092 203.52 192.636 203.595 193.18 203.744C193.724 203.883 194.172 204.069 194.524 204.304L194.028 205.216C193.335 204.736 192.508 204.496 191.548 204.496C190.823 204.496 190.273 204.624 189.9 204.88C189.537 205.136 189.356 205.472 189.356 205.888C189.356 206.208 189.457 206.464 189.66 206.656C189.873 206.848 190.135 206.992 190.444 207.088C190.753 207.173 191.18 207.264 191.724 207.36C192.396 207.488 192.935 207.616 193.34 207.744C193.745 207.872 194.092 208.091 194.38 208.4C194.668 208.709 194.812 209.136 194.812 209.68C194.812 210.416 194.503 211.003 193.884 211.44C193.276 211.867 192.428 212.08 191.34 212.08ZM204.24 208.144H197.2C197.264 209.019 197.6 209.728 198.208 210.272C198.816 210.805 199.584 211.072 200.512 211.072C201.035 211.072 201.515 210.981 201.952 210.8C202.389 210.608 202.768 210.331 203.088 209.968L203.728 210.704C203.355 211.152 202.885 211.493 202.32 211.728C201.765 211.963 201.152 212.08 200.48 212.08C199.616 212.08 198.848 211.899 198.176 211.536C197.515 211.163 196.997 210.651 196.624 210C196.251 209.349 196.064 208.613 196.064 207.792C196.064 206.971 196.24 206.235 196.592 205.584C196.955 204.933 197.445 204.427 198.064 204.064C198.693 203.701 199.397 203.52 200.176 203.52C200.955 203.52 201.653 203.701 202.272 204.064C202.891 204.427 203.376 204.933 203.728 205.584C204.08 206.224 204.256 206.96 204.256 207.792L204.24 208.144ZM200.176 204.496C199.365 204.496 198.683 204.757 198.128 205.28C197.584 205.792 197.275 206.464 197.2 207.296H203.168C203.093 206.464 202.779 205.792 202.224 205.28C201.68 204.757 200.997 204.496 200.176 204.496ZM207.656 205.232C207.923 204.667 208.318 204.24 208.84 203.952C209.374 203.664 210.03 203.52 210.808 203.52V204.624L210.536 204.608C209.651 204.608 208.958 204.88 208.456 205.424C207.955 205.968 207.704 206.731 207.704 207.712V212H206.568V203.584H207.656V205.232ZM215.184 212.08C214.501 212.08 213.845 211.984 213.216 211.792C212.597 211.589 212.112 211.339 211.76 211.04L212.272 210.144C212.624 210.421 213.066 210.651 213.6 210.832C214.133 211.003 214.688 211.088 215.264 211.088C216.032 211.088 216.597 210.971 216.96 210.736C217.333 210.491 217.52 210.149 217.52 209.712C217.52 209.403 217.418 209.163 217.216 208.992C217.013 208.811 216.757 208.677 216.448 208.592C216.138 208.496 215.728 208.405 215.216 208.32C214.533 208.192 213.984 208.064 213.568 207.936C213.152 207.797 212.794 207.568 212.496 207.248C212.208 206.928 212.064 206.485 212.064 205.92C212.064 205.216 212.357 204.64 212.944 204.192C213.53 203.744 214.346 203.52 215.392 203.52C215.936 203.52 216.48 203.595 217.024 203.744C217.568 203.883 218.016 204.069 218.368 204.304L217.872 205.216C217.178 204.736 216.352 204.496 215.392 204.496C214.666 204.496 214.117 204.624 213.744 204.88C213.381 205.136 213.2 205.472 213.2 205.888C213.2 206.208 213.301 206.464 213.504 206.656C213.717 206.848 213.978 206.992 214.288 207.088C214.597 207.173 215.024 207.264 215.568 207.36C216.24 207.488 216.778 207.616 217.184 207.744C217.589 207.872 217.936 208.091 218.224 208.4C218.512 208.709 218.656 209.136 218.656 209.68C218.656 210.416 218.346 211.003 217.728 211.44C217.12 211.867 216.272 212.08 215.184 212.08Z" fill="black"/>
<path d="M23 55C23 43.9543 31.9543 35 43 35H212C223.046 35 232 43.9543 232 55V135C232 146.046 223.046 155 212 155H43C31.9543 155 23 146.046 23 135V55Z" fill="#3FE7E7"/>
<path d="M113.438 102.24C112.011 102.24 110.718 101.933 109.558 101.32C108.411 100.693 107.505 99.8333 106.838 98.74C106.185 97.6333 105.858 96.3867 105.858 95C105.858 93.6133 106.185 92.3733 106.838 91.28C107.505 90.1733 108.411 89.3133 109.558 88.7C110.718 88.0733 112.018 87.76 113.458 87.76C114.671 87.76 115.765 87.9733 116.738 88.4C117.725 88.8267 118.551 89.44 119.218 90.24L117.138 92.16C116.191 91.0667 115.018 90.52 113.618 90.52C112.751 90.52 111.978 90.7133 111.298 91.1C110.618 91.4733 110.085 92 109.698 92.68C109.325 93.36 109.138 94.1333 109.138 95C109.138 95.8667 109.325 96.64 109.698 97.32C110.085 98 110.618 98.5333 111.298 98.92C111.978 99.2933 112.751 99.48 113.618 99.48C115.018 99.48 116.191 98.9267 117.138 97.82L119.218 99.74C118.551 100.553 117.725 101.173 116.738 101.6C115.751 102.027 114.651 102.24 113.438 102.24ZM121.186 87.16H124.306V102H121.186V87.16ZM127.202 91.24H130.322V102H127.202V91.24ZM128.762 89.74C128.188 89.74 127.722 89.5733 127.362 89.24C127.002 88.9067 126.822 88.4933 126.822 88C126.822 87.5067 127.002 87.0933 127.362 86.76C127.722 86.4267 128.188 86.26 128.762 86.26C129.335 86.26 129.802 86.42 130.162 86.74C130.522 87.06 130.702 87.46 130.702 87.94C130.702 88.46 130.522 88.8933 130.162 89.24C129.802 89.5733 129.335 89.74 128.762 89.74ZM143.757 96.66C143.757 96.7 143.737 96.98 143.697 97.5H135.557C135.704 98.1667 136.051 98.6933 136.597 99.08C137.144 99.4667 137.824 99.66 138.637 99.66C139.197 99.66 139.691 99.58 140.117 99.42C140.557 99.2467 140.964 98.98 141.337 98.62L142.997 100.42C141.984 101.58 140.504 102.16 138.557 102.16C137.344 102.16 136.271 101.927 135.337 101.46C134.404 100.98 133.684 100.32 133.177 99.48C132.671 98.64 132.417 97.6867 132.417 96.62C132.417 95.5667 132.664 94.62 133.157 93.78C133.664 92.9267 134.351 92.2667 135.217 91.8C136.097 91.32 137.077 91.08 138.157 91.08C139.211 91.08 140.164 91.3067 141.017 91.76C141.871 92.2133 142.537 92.8667 143.017 93.72C143.511 94.56 143.757 95.54 143.757 96.66ZM138.177 93.44C137.471 93.44 136.877 93.64 136.397 94.04C135.917 94.44 135.624 94.9867 135.517 95.68H140.817C140.711 95 140.417 94.46 139.937 94.06C139.457 93.6467 138.871 93.44 138.177 93.44ZM152.375 91.08C153.708 91.08 154.781 91.48 155.595 92.28C156.421 93.08 156.835 94.2667 156.835 95.84V102H153.715V96.32C153.715 95.4667 153.528 94.8333 153.155 94.42C152.781 93.9933 152.241 93.78 151.535 93.78C150.748 93.78 150.121 94.0267 149.655 94.52C149.188 95 148.955 95.72 148.955 96.68V102H145.835V91.24H148.815V92.5C149.228 92.0467 149.741 91.7 150.355 91.46C150.968 91.2067 151.641 91.08 152.375 91.08ZM166.603 101.48C166.296 101.707 165.916 101.88 165.463 102C165.023 102.107 164.556 102.16 164.063 102.16C162.783 102.16 161.789 101.833 161.083 101.18C160.389 100.527 160.043 99.5667 160.043 98.3V93.88H158.383V91.48H160.043V88.86H163.163V91.48H165.843V93.88H163.163V98.26C163.163 98.7133 163.276 99.0667 163.503 99.32C163.743 99.56 164.076 99.68 164.503 99.68C164.996 99.68 165.416 99.5467 165.763 99.28L166.603 101.48Z" fill="black"/>
<path d="M92 87H76C74.9 87 74.01 87.9 74.01 89L74 101C74 102.1 74.9 103 76 103H92C93.1 103 94 102.1 94 101V89C94 87.9 93.1 87 92 87ZM87 101H76V97H87V101ZM87 96H76V92H87V96ZM92 101H88V92H92V101Z" fill="black"/>
</svg>
