<svg width="1096" height="320" viewBox="0 0 1096 320" fill="none" xmlns="http://www.w3.org/2000/svg">
<rect width="1096" height="320" fill="white"/>
<path d="M802.688 232.096C801.579 232.096 800.576 231.851 799.68 231.36C798.795 230.869 798.096 230.192 797.584 229.328C797.083 228.453 796.832 227.477 796.832 226.4C796.832 225.323 797.083 224.352 797.584 223.488C798.096 222.613 798.8 221.931 799.696 221.44C800.592 220.949 801.595 220.704 802.704 220.704C803.536 220.704 804.304 220.843 805.008 221.12C805.712 221.397 806.309 221.803 806.8 222.336L806.048 223.088C805.173 222.203 804.069 221.76 802.736 221.76C801.851 221.76 801.045 221.963 800.32 222.368C799.595 222.773 799.024 223.328 798.608 224.032C798.203 224.736 798 225.525 798 226.4C798 227.275 798.203 228.064 798.608 228.768C799.024 229.472 799.595 230.027 800.32 230.432C801.045 230.837 801.851 231.04 802.736 231.04C804.08 231.04 805.184 230.592 806.048 229.696L806.8 230.448C806.309 230.981 805.707 231.392 804.992 231.68C804.288 231.957 803.52 232.096 802.688 232.096ZM812.149 232.08C811.338 232.08 810.608 231.899 809.957 231.536C809.306 231.163 808.794 230.651 808.421 230C808.048 229.349 807.861 228.613 807.861 227.792C807.861 226.971 808.048 226.235 808.421 225.584C808.794 224.933 809.306 224.427 809.957 224.064C810.608 223.701 811.338 223.52 812.149 223.52C812.96 223.52 813.69 223.701 814.341 224.064C814.992 224.427 815.498 224.933 815.861 225.584C816.234 226.235 816.421 226.971 816.421 227.792C816.421 228.613 816.234 229.349 815.861 230C815.498 230.651 814.992 231.163 814.341 231.536C813.69 231.899 812.96 232.08 812.149 232.08ZM812.149 231.072C812.746 231.072 813.28 230.939 813.749 230.672C814.229 230.395 814.602 230.005 814.869 229.504C815.136 229.003 815.269 228.432 815.269 227.792C815.269 227.152 815.136 226.581 814.869 226.08C814.602 225.579 814.229 225.195 813.749 224.928C813.28 224.651 812.746 224.512 812.149 224.512C811.552 224.512 811.013 224.651 810.533 224.928C810.064 225.195 809.69 225.579 809.413 226.08C809.146 226.581 809.013 227.152 809.013 227.792C809.013 228.432 809.146 229.003 809.413 229.504C809.69 230.005 810.064 230.395 810.533 230.672C811.013 230.939 811.552 231.072 812.149 231.072ZM818.74 220.128H819.876V232H818.74V220.128ZM823.037 220.128H824.173V232H823.037V220.128ZM834.662 228.144H827.622C827.686 229.019 828.022 229.728 828.63 230.272C829.238 230.805 830.006 231.072 830.934 231.072C831.457 231.072 831.937 230.981 832.374 230.8C832.811 230.608 833.19 230.331 833.51 229.968L834.15 230.704C833.777 231.152 833.307 231.493 832.742 231.728C832.187 231.963 831.574 232.08 830.902 232.08C830.038 232.08 829.27 231.899 828.598 231.536C827.937 231.163 827.419 230.651 827.046 230C826.673 229.349 826.486 228.613 826.486 227.792C826.486 226.971 826.662 226.235 827.014 225.584C827.377 224.933 827.867 224.427 828.486 224.064C829.115 223.701 829.819 223.52 830.598 223.52C831.377 223.52 832.075 223.701 832.694 224.064C833.313 224.427 833.798 224.933 834.15 225.584C834.502 226.224 834.678 226.96 834.678 227.792L834.662 228.144ZM830.598 224.496C829.787 224.496 829.105 224.757 828.55 225.28C828.006 225.792 827.697 226.464 827.622 227.296H833.59C833.515 226.464 833.201 225.792 832.646 225.28C832.102 224.757 831.419 224.496 830.598 224.496ZM840.478 232.08C839.646 232.08 838.9 231.899 838.238 231.536C837.588 231.173 837.076 230.667 836.702 230.016C836.329 229.355 836.142 228.613 836.142 227.792C836.142 226.971 836.329 226.235 836.702 225.584C837.076 224.933 837.588 224.427 838.238 224.064C838.9 223.701 839.646 223.52 840.478 223.52C841.204 223.52 841.849 223.664 842.414 223.952C842.99 224.229 843.444 224.64 843.774 225.184L842.926 225.76C842.649 225.344 842.297 225.035 841.87 224.832C841.444 224.619 840.98 224.512 840.478 224.512C839.87 224.512 839.321 224.651 838.83 224.928C838.35 225.195 837.972 225.579 837.694 226.08C837.428 226.581 837.294 227.152 837.294 227.792C837.294 228.443 837.428 229.019 837.694 229.52C837.972 230.011 838.35 230.395 838.83 230.672C839.321 230.939 839.87 231.072 840.478 231.072C840.98 231.072 841.444 230.971 841.87 230.768C842.297 230.565 842.649 230.256 842.926 229.84L843.774 230.416C843.444 230.96 842.99 231.376 842.414 231.664C841.838 231.941 841.193 232.08 840.478 232.08ZM850.532 231.488C850.318 231.68 850.052 231.829 849.732 231.936C849.422 232.032 849.097 232.08 848.756 232.08C847.966 232.08 847.358 231.867 846.932 231.44C846.505 231.013 846.292 230.411 846.292 229.632V224.544H844.788V223.584H846.292V221.744H847.428V223.584H849.988V224.544H847.428V229.568C847.428 230.069 847.55 230.453 847.796 230.72C848.052 230.976 848.414 231.104 848.884 231.104C849.118 231.104 849.342 231.067 849.556 230.992C849.78 230.917 849.972 230.811 850.132 230.672L850.532 231.488ZM852.884 230.336C853.129 230.336 853.332 230.421 853.492 230.592C853.652 230.752 853.732 230.955 853.732 231.2C853.732 231.328 853.711 231.467 853.668 231.616C853.636 231.765 853.583 231.936 853.508 232.128L852.836 234.336H852.068L852.612 232.016C852.441 231.963 852.303 231.867 852.196 231.728C852.089 231.579 852.036 231.403 852.036 231.2C852.036 230.955 852.116 230.752 852.276 230.592C852.436 230.421 852.639 230.336 852.884 230.336ZM862.59 232.08C861.907 232.08 861.251 231.984 860.622 231.792C860.003 231.589 859.518 231.339 859.166 231.04L859.678 230.144C860.03 230.421 860.473 230.651 861.006 230.832C861.539 231.003 862.094 231.088 862.67 231.088C863.438 231.088 864.003 230.971 864.366 230.736C864.739 230.491 864.926 230.149 864.926 229.712C864.926 229.403 864.825 229.163 864.622 228.992C864.419 228.811 864.163 228.677 863.854 228.592C863.545 228.496 863.134 228.405 862.622 228.32C861.939 228.192 861.39 228.064 860.974 227.936C860.558 227.797 860.201 227.568 859.902 227.248C859.614 226.928 859.47 226.485 859.47 225.92C859.47 225.216 859.763 224.64 860.35 224.192C860.937 223.744 861.753 223.52 862.798 223.52C863.342 223.52 863.886 223.595 864.43 223.744C864.974 223.883 865.422 224.069 865.774 224.304L865.278 225.216C864.585 224.736 863.758 224.496 862.798 224.496C862.073 224.496 861.523 224.624 861.15 224.88C860.787 225.136 860.606 225.472 860.606 225.888C860.606 226.208 860.707 226.464 860.91 226.656C861.123 226.848 861.385 226.992 861.694 227.088C862.003 227.173 862.43 227.264 862.974 227.36C863.646 227.488 864.185 227.616 864.59 227.744C864.995 227.872 865.342 228.091 865.63 228.4C865.918 228.709 866.062 229.136 866.062 229.68C866.062 230.416 865.753 231.003 865.134 231.44C864.526 231.867 863.678 232.08 862.59 232.08ZM872.594 231.488C872.381 231.68 872.114 231.829 871.794 231.936C871.485 232.032 871.159 232.08 870.818 232.08C870.029 232.08 869.421 231.867 868.994 231.44C868.567 231.013 868.354 230.411 868.354 229.632V224.544H866.85V223.584H868.354V221.744H869.49V223.584H872.05V224.544H869.49V229.568C869.49 230.069 869.613 230.453 869.858 230.72C870.114 230.976 870.477 231.104 870.946 231.104C871.181 231.104 871.405 231.067 871.618 230.992C871.842 230.917 872.034 230.811 872.194 230.672L872.594 231.488ZM877.805 232.08C876.995 232.08 876.264 231.899 875.613 231.536C874.963 231.163 874.451 230.651 874.077 230C873.704 229.349 873.517 228.613 873.517 227.792C873.517 226.971 873.704 226.235 874.077 225.584C874.451 224.933 874.963 224.427 875.613 224.064C876.264 223.701 876.995 223.52 877.805 223.52C878.616 223.52 879.347 223.701 879.997 224.064C880.648 224.427 881.155 224.933 881.517 225.584C881.891 226.235 882.077 226.971 882.077 227.792C882.077 228.613 881.891 229.349 881.517 230C881.155 230.651 880.648 231.163 879.997 231.536C879.347 231.899 878.616 232.08 877.805 232.08ZM877.805 231.072C878.403 231.072 878.936 230.939 879.405 230.672C879.885 230.395 880.259 230.005 880.525 229.504C880.792 229.003 880.925 228.432 880.925 227.792C880.925 227.152 880.792 226.581 880.525 226.08C880.259 225.579 879.885 225.195 879.405 224.928C878.936 224.651 878.403 224.512 877.805 224.512C877.208 224.512 876.669 224.651 876.189 224.928C875.72 225.195 875.347 225.579 875.069 226.08C874.803 226.581 874.669 227.152 874.669 227.792C874.669 228.432 874.803 229.003 875.069 229.504C875.347 230.005 875.72 230.395 876.189 230.672C876.669 230.939 877.208 231.072 877.805 231.072ZM885.485 225.232C885.751 224.667 886.146 224.24 886.669 223.952C887.202 223.664 887.858 223.52 888.637 223.52V224.624L888.365 224.608C887.479 224.608 886.786 224.88 886.285 225.424C885.783 225.968 885.533 226.731 885.533 227.712V232H884.397V223.584H885.485V225.232ZM897.943 228.144H890.903C890.967 229.019 891.303 229.728 891.911 230.272C892.519 230.805 893.287 231.072 894.215 231.072C894.738 231.072 895.218 230.981 895.655 230.8C896.093 230.608 896.471 230.331 896.791 229.968L897.431 230.704C897.058 231.152 896.589 231.493 896.023 231.728C895.469 231.963 894.855 232.08 894.183 232.08C893.319 232.08 892.551 231.899 891.879 231.536C891.218 231.163 890.701 230.651 890.327 230C889.954 229.349 889.767 228.613 889.767 227.792C889.767 226.971 889.943 226.235 890.295 225.584C890.658 224.933 891.149 224.427 891.767 224.064C892.397 223.701 893.101 223.52 893.879 223.52C894.658 223.52 895.357 223.701 895.975 224.064C896.594 224.427 897.079 224.933 897.431 225.584C897.783 226.224 897.959 226.96 897.959 227.792L897.943 228.144ZM893.879 224.496C893.069 224.496 892.386 224.757 891.831 225.28C891.287 225.792 890.978 226.464 890.903 227.296H896.871C896.797 226.464 896.482 225.792 895.927 225.28C895.383 224.757 894.701 224.496 893.879 224.496ZM900.4 230.336C900.645 230.336 900.848 230.421 901.008 230.592C901.168 230.752 901.248 230.955 901.248 231.2C901.248 231.328 901.226 231.467 901.184 231.616C901.152 231.765 901.098 231.936 901.024 232.128L900.352 234.336H899.584L900.128 232.016C899.957 231.963 899.818 231.867 899.712 231.728C899.605 231.579 899.552 231.403 899.552 231.2C899.552 230.955 899.632 230.752 899.792 230.592C899.952 230.421 900.154 230.336 900.4 230.336ZM910.794 223.52C911.892 223.52 912.735 223.797 913.322 224.352C913.908 224.896 914.202 225.707 914.202 226.784V232H913.114V230.688C912.858 231.125 912.479 231.467 911.978 231.712C911.487 231.957 910.9 232.08 910.218 232.08C909.279 232.08 908.532 231.856 907.978 231.408C907.423 230.96 907.146 230.368 907.146 229.632C907.146 228.917 907.402 228.341 907.914 227.904C908.436 227.467 909.263 227.248 910.394 227.248H913.066V226.736C913.066 226.011 912.863 225.461 912.458 225.088C912.052 224.704 911.46 224.512 910.682 224.512C910.148 224.512 909.636 224.603 909.146 224.784C908.655 224.955 908.234 225.195 907.882 225.504L907.37 224.656C907.796 224.293 908.308 224.016 908.906 223.824C909.503 223.621 910.132 223.52 910.794 223.52ZM910.394 231.184C911.034 231.184 911.583 231.04 912.042 230.752C912.5 230.453 912.842 230.027 913.066 229.472V228.096H910.426C908.986 228.096 908.266 228.597 908.266 229.6C908.266 230.091 908.452 230.48 908.826 230.768C909.199 231.045 909.722 231.184 910.394 231.184ZM921.575 223.52C922.631 223.52 923.468 223.829 924.087 224.448C924.716 225.056 925.031 225.947 925.031 227.12V232H923.895V227.232C923.895 226.357 923.676 225.691 923.239 225.232C922.802 224.773 922.178 224.544 921.367 224.544C920.46 224.544 919.74 224.816 919.207 225.36C918.684 225.893 918.423 226.635 918.423 227.584V232H917.287V223.584H918.375V225.136C918.684 224.624 919.111 224.229 919.655 223.952C920.21 223.664 920.85 223.52 921.575 223.52ZM935.827 220.128V232H934.739V230.336C934.397 230.901 933.944 231.333 933.379 231.632C932.824 231.931 932.195 232.08 931.491 232.08C930.701 232.08 929.987 231.899 929.347 231.536C928.707 231.173 928.205 230.667 927.843 230.016C927.48 229.365 927.299 228.624 927.299 227.792C927.299 226.96 927.48 226.219 927.843 225.568C928.205 224.917 928.707 224.416 929.347 224.064C929.987 223.701 930.701 223.52 931.491 223.52C932.173 223.52 932.787 223.664 933.331 223.952C933.885 224.229 934.339 224.64 934.691 225.184V220.128H935.827ZM931.587 231.072C932.173 231.072 932.701 230.939 933.171 230.672C933.651 230.395 934.024 230.005 934.291 229.504C934.568 229.003 934.707 228.432 934.707 227.792C934.707 227.152 934.568 226.581 934.291 226.08C934.024 225.579 933.651 225.195 933.171 224.928C932.701 224.651 932.173 224.512 931.587 224.512C930.989 224.512 930.451 224.651 929.971 224.928C929.501 225.195 929.128 225.579 928.851 226.08C928.584 226.581 928.451 227.152 928.451 227.792C928.451 228.432 928.584 229.003 928.851 229.504C929.128 230.005 929.501 230.395 929.971 230.672C930.451 230.939 930.989 231.072 931.587 231.072ZM947.514 223.52C948.303 223.52 949.018 223.701 949.658 224.064C950.298 224.416 950.799 224.917 951.162 225.568C951.524 226.219 951.706 226.96 951.706 227.792C951.706 228.635 951.524 229.381 951.162 230.032C950.799 230.683 950.298 231.189 949.658 231.552C949.028 231.904 948.314 232.08 947.514 232.08C946.831 232.08 946.212 231.941 945.658 231.664C945.114 231.376 944.666 230.96 944.314 230.416V235.104H943.178V223.584H944.266V225.248C944.607 224.693 945.055 224.267 945.61 223.968C946.175 223.669 946.81 223.52 947.514 223.52ZM947.434 231.072C948.02 231.072 948.554 230.939 949.034 230.672C949.514 230.395 949.887 230.005 950.154 229.504C950.431 229.003 950.57 228.432 950.57 227.792C950.57 227.152 950.431 226.587 950.154 226.096C949.887 225.595 949.514 225.205 949.034 224.928C948.554 224.651 948.02 224.512 947.434 224.512C946.836 224.512 946.298 224.651 945.818 224.928C945.348 225.205 944.975 225.595 944.698 226.096C944.431 226.587 944.298 227.152 944.298 227.792C944.298 228.432 944.431 229.003 944.698 229.504C944.975 230.005 945.348 230.395 945.818 230.672C946.298 230.939 946.836 231.072 947.434 231.072ZM955.11 225.232C955.376 224.667 955.771 224.24 956.294 223.952C956.827 223.664 957.483 223.52 958.262 223.52V224.624L957.99 224.608C957.104 224.608 956.411 224.88 955.91 225.424C955.408 225.968 955.158 226.731 955.158 227.712V232H954.022V223.584H955.11V225.232ZM963.68 232.08C962.87 232.08 962.139 231.899 961.488 231.536C960.838 231.163 960.326 230.651 959.952 230C959.579 229.349 959.392 228.613 959.392 227.792C959.392 226.971 959.579 226.235 959.952 225.584C960.326 224.933 960.838 224.427 961.488 224.064C962.139 223.701 962.87 223.52 963.68 223.52C964.491 223.52 965.222 223.701 965.872 224.064C966.523 224.427 967.03 224.933 967.392 225.584C967.766 226.235 967.952 226.971 967.952 227.792C967.952 228.613 967.766 229.349 967.392 230C967.03 230.651 966.523 231.163 965.872 231.536C965.222 231.899 964.491 232.08 963.68 232.08ZM963.68 231.072C964.278 231.072 964.811 230.939 965.28 230.672C965.76 230.395 966.134 230.005 966.4 229.504C966.667 229.003 966.8 228.432 966.8 227.792C966.8 227.152 966.667 226.581 966.4 226.08C966.134 225.579 965.76 225.195 965.28 224.928C964.811 224.651 964.278 224.512 963.68 224.512C963.083 224.512 962.544 224.651 962.064 224.928C961.595 225.195 961.222 225.579 960.944 226.08C960.678 226.581 960.544 227.152 960.544 227.792C960.544 228.432 960.678 229.003 960.944 229.504C961.222 230.005 961.595 230.395 962.064 230.672C962.544 230.939 963.083 231.072 963.68 231.072ZM973.76 232.08C972.928 232.08 972.181 231.899 971.52 231.536C970.869 231.173 970.357 230.667 969.984 230.016C969.61 229.355 969.424 228.613 969.424 227.792C969.424 226.971 969.61 226.235 969.984 225.584C970.357 224.933 970.869 224.427 971.52 224.064C972.181 223.701 972.928 223.52 973.76 223.52C974.485 223.52 975.13 223.664 975.696 223.952C976.272 224.229 976.725 224.64 977.056 225.184L976.208 225.76C975.93 225.344 975.578 225.035 975.152 224.832C974.725 224.619 974.261 224.512 973.76 224.512C973.152 224.512 972.602 224.651 972.112 224.928C971.632 225.195 971.253 225.579 970.976 226.08C970.709 226.581 970.576 227.152 970.576 227.792C970.576 228.443 970.709 229.019 970.976 229.52C971.253 230.011 971.632 230.395 972.112 230.672C972.602 230.939 973.152 231.072 973.76 231.072C974.261 231.072 974.725 230.971 975.152 230.768C975.578 230.565 975.93 230.256 976.208 229.84L977.056 230.416C976.725 230.96 976.272 231.376 975.696 231.664C975.12 231.941 974.474 232.08 973.76 232.08ZM986.475 228.144H979.435C979.499 229.019 979.835 229.728 980.443 230.272C981.051 230.805 981.819 231.072 982.747 231.072C983.269 231.072 983.749 230.981 984.187 230.8C984.624 230.608 985.003 230.331 985.323 229.968L985.963 230.704C985.589 231.152 985.12 231.493 984.555 231.728C984 231.963 983.387 232.08 982.715 232.08C981.851 232.08 981.083 231.899 980.411 231.536C979.749 231.163 979.232 230.651 978.859 230C978.485 229.349 978.299 228.613 978.299 227.792C978.299 226.971 978.475 226.235 978.827 225.584C979.189 224.933 979.68 224.427 980.299 224.064C980.928 223.701 981.632 223.52 982.411 223.52C983.189 223.52 983.888 223.701 984.507 224.064C985.125 224.427 985.611 224.933 985.963 225.584C986.315 226.224 986.491 226.96 986.491 227.792L986.475 228.144ZM982.411 224.496C981.6 224.496 980.917 224.757 980.363 225.28C979.819 225.792 979.509 226.464 979.435 227.296H985.403C985.328 226.464 985.013 225.792 984.459 225.28C983.915 224.757 983.232 224.496 982.411 224.496ZM991.059 232.08C990.376 232.08 989.72 231.984 989.091 231.792C988.472 231.589 987.987 231.339 987.635 231.04L988.147 230.144C988.499 230.421 988.941 230.651 989.475 230.832C990.008 231.003 990.563 231.088 991.139 231.088C991.907 231.088 992.472 230.971 992.835 230.736C993.208 230.491 993.395 230.149 993.395 229.712C993.395 229.403 993.293 229.163 993.091 228.992C992.888 228.811 992.632 228.677 992.323 228.592C992.013 228.496 991.603 228.405 991.091 228.32C990.408 228.192 989.859 228.064 989.443 227.936C989.027 227.797 988.669 227.568 988.371 227.248C988.083 226.928 987.939 226.485 987.939 225.92C987.939 225.216 988.232 224.64 988.819 224.192C989.405 223.744 990.221 223.52 991.267 223.52C991.811 223.52 992.355 223.595 992.899 223.744C993.443 223.883 993.891 224.069 994.243 224.304L993.747 225.216C993.053 224.736 992.227 224.496 991.267 224.496C990.541 224.496 989.992 224.624 989.619 224.88C989.256 225.136 989.075 225.472 989.075 225.888C989.075 226.208 989.176 226.464 989.379 226.656C989.592 226.848 989.853 226.992 990.163 227.088C990.472 227.173 990.899 227.264 991.443 227.36C992.115 227.488 992.653 227.616 993.059 227.744C993.464 227.872 993.811 228.091 994.099 228.4C994.387 228.709 994.531 229.136 994.531 229.68C994.531 230.416 994.221 231.003 993.603 231.44C992.995 231.867 992.147 232.08 991.059 232.08ZM998.887 232.08C998.204 232.08 997.548 231.984 996.919 231.792C996.3 231.589 995.815 231.339 995.463 231.04L995.975 230.144C996.327 230.421 996.77 230.651 997.303 230.832C997.836 231.003 998.391 231.088 998.967 231.088C999.735 231.088 1000.3 230.971 1000.66 230.736C1001.04 230.491 1001.22 230.149 1001.22 229.712C1001.22 229.403 1001.12 229.163 1000.92 228.992C1000.72 228.811 1000.46 228.677 1000.15 228.592C999.842 228.496 999.431 228.405 998.919 228.32C998.236 228.192 997.687 228.064 997.271 227.936C996.855 227.797 996.498 227.568 996.199 227.248C995.911 226.928 995.767 226.485 995.767 225.92C995.767 225.216 996.06 224.64 996.647 224.192C997.234 223.744 998.05 223.52 999.095 223.52C999.639 223.52 1000.18 223.595 1000.73 223.744C1001.27 223.883 1001.72 224.069 1002.07 224.304L1001.57 225.216C1000.88 224.736 1000.05 224.496 999.095 224.496C998.37 224.496 997.82 224.624 997.447 224.88C997.084 225.136 996.903 225.472 996.903 225.888C996.903 226.208 997.004 226.464 997.207 226.656C997.42 226.848 997.682 226.992 997.991 227.088C998.3 227.173 998.727 227.264 999.271 227.36C999.943 227.488 1000.48 227.616 1000.89 227.744C1001.29 227.872 1001.64 228.091 1001.93 228.4C1002.21 228.709 1002.36 229.136 1002.36 229.68C1002.36 230.416 1002.05 231.003 1001.43 231.44C1000.82 231.867 999.975 232.08 998.887 232.08ZM802.016 251.488C801.803 251.68 801.536 251.829 801.216 251.936C800.907 252.032 800.581 252.08 800.24 252.08C799.451 252.08 798.843 251.867 798.416 251.44C797.989 251.013 797.776 250.411 797.776 249.632V244.544H796.272V243.584H797.776V241.744H798.912V243.584H801.472V244.544H798.912V249.568C798.912 250.069 799.035 250.453 799.28 250.72C799.536 250.976 799.899 251.104 800.368 251.104C800.603 251.104 800.827 251.067 801.04 250.992C801.264 250.917 801.456 250.811 801.616 250.672L802.016 251.488ZM811.115 248.144H804.075C804.139 249.019 804.475 249.728 805.083 250.272C805.691 250.805 806.459 251.072 807.387 251.072C807.91 251.072 808.39 250.981 808.827 250.8C809.264 250.608 809.643 250.331 809.963 249.968L810.603 250.704C810.23 251.152 809.76 251.493 809.195 251.728C808.64 251.963 808.027 252.08 807.355 252.08C806.491 252.08 805.723 251.899 805.051 251.536C804.39 251.163 803.872 250.651 803.499 250C803.126 249.349 802.939 248.613 802.939 247.792C802.939 246.971 803.115 246.235 803.467 245.584C803.83 244.933 804.32 244.427 804.939 244.064C805.568 243.701 806.272 243.52 807.051 243.52C807.83 243.52 808.528 243.701 809.147 244.064C809.766 244.427 810.251 244.933 810.603 245.584C810.955 246.224 811.131 246.96 811.131 247.792L811.115 248.144ZM807.051 244.496C806.24 244.496 805.558 244.757 805.003 245.28C804.459 245.792 804.15 246.464 804.075 247.296H810.043C809.968 246.464 809.654 245.792 809.099 245.28C808.555 244.757 807.872 244.496 807.051 244.496ZM813.443 240.128H814.579V252H813.443V240.128ZM825.068 248.144H818.028C818.092 249.019 818.428 249.728 819.036 250.272C819.644 250.805 820.412 251.072 821.34 251.072C821.863 251.072 822.343 250.981 822.78 250.8C823.218 250.608 823.596 250.331 823.916 249.968L824.556 250.704C824.183 251.152 823.714 251.493 823.148 251.728C822.594 251.963 821.98 252.08 821.308 252.08C820.444 252.08 819.676 251.899 819.004 251.536C818.343 251.163 817.826 250.651 817.452 250C817.079 249.349 816.892 248.613 816.892 247.792C816.892 246.971 817.068 246.235 817.42 245.584C817.783 244.933 818.274 244.427 818.892 244.064C819.522 243.701 820.226 243.52 821.004 243.52C821.783 243.52 822.482 243.701 823.1 244.064C823.719 244.427 824.204 244.933 824.556 245.584C824.908 246.224 825.084 246.96 825.084 247.792L825.068 248.144ZM821.004 244.496C820.194 244.496 819.511 244.757 818.956 245.28C818.412 245.792 818.103 246.464 818.028 247.296H823.996C823.922 246.464 823.607 245.792 823.052 245.28C822.508 244.757 821.826 244.496 821.004 244.496ZM837.893 243.52C838.949 243.52 839.775 243.824 840.373 244.432C840.981 245.04 841.285 245.936 841.285 247.12V252H840.149V247.232C840.149 246.357 839.935 245.691 839.509 245.232C839.093 244.773 838.501 244.544 837.733 244.544C836.858 244.544 836.17 244.816 835.669 245.36C835.167 245.893 834.917 246.635 834.917 247.584V252H833.781V247.232C833.781 246.357 833.567 245.691 833.141 245.232C832.725 244.773 832.127 244.544 831.349 244.544C830.485 244.544 829.797 244.816 829.285 245.36C828.783 245.893 828.533 246.635 828.533 247.584V252H827.397V243.584H828.485V245.12C828.783 244.608 829.199 244.213 829.733 243.936C830.266 243.659 830.879 243.52 831.573 243.52C832.277 243.52 832.885 243.669 833.397 243.968C833.919 244.267 834.309 244.709 834.565 245.296C834.874 244.741 835.317 244.309 835.893 244C836.479 243.68 837.146 243.52 837.893 243.52ZM851.725 248.144H844.685C844.749 249.019 845.085 249.728 845.693 250.272C846.301 250.805 847.069 251.072 847.997 251.072C848.519 251.072 848.999 250.981 849.437 250.8C849.874 250.608 850.253 250.331 850.573 249.968L851.213 250.704C850.839 251.152 850.37 251.493 849.805 251.728C849.25 251.963 848.637 252.08 847.965 252.08C847.101 252.08 846.333 251.899 845.661 251.536C844.999 251.163 844.482 250.651 844.109 250C843.735 249.349 843.549 248.613 843.549 247.792C843.549 246.971 843.725 246.235 844.077 245.584C844.439 244.933 844.93 244.427 845.549 244.064C846.178 243.701 846.882 243.52 847.661 243.52C848.439 243.52 849.138 243.701 849.757 244.064C850.375 244.427 850.861 244.933 851.213 245.584C851.565 246.224 851.741 246.96 851.741 247.792L851.725 248.144ZM847.661 244.496C846.85 244.496 846.167 244.757 845.613 245.28C845.069 245.792 844.759 246.464 844.685 247.296H850.653C850.578 246.464 850.263 245.792 849.709 245.28C849.165 244.757 848.482 244.496 847.661 244.496ZM858.485 251.488C858.271 251.68 858.005 251.829 857.685 251.936C857.375 252.032 857.05 252.08 856.709 252.08C855.919 252.08 855.311 251.867 854.885 251.44C854.458 251.013 854.245 250.411 854.245 249.632V244.544H852.741V243.584H854.245V241.744H855.381V243.584H857.941V244.544H855.381V249.568C855.381 250.069 855.503 250.453 855.749 250.72C856.005 250.976 856.367 251.104 856.837 251.104C857.071 251.104 857.295 251.067 857.509 250.992C857.733 250.917 857.925 250.811 858.085 250.672L858.485 251.488ZM861.641 245.232C861.907 244.667 862.302 244.24 862.825 243.952C863.358 243.664 864.014 243.52 864.793 243.52V244.624L864.521 244.608C863.635 244.608 862.942 244.88 862.441 245.424C861.939 245.968 861.689 246.731 861.689 247.712V252H860.553V243.584H861.641V245.232ZM874.281 243.584L870.073 253.008C869.732 253.797 869.337 254.357 868.889 254.688C868.441 255.019 867.902 255.184 867.273 255.184C866.868 255.184 866.489 255.12 866.137 254.992C865.785 254.864 865.481 254.672 865.225 254.416L865.753 253.568C866.18 253.995 866.692 254.208 867.289 254.208C867.673 254.208 867.998 254.101 868.265 253.888C868.542 253.675 868.798 253.312 869.033 252.8L869.401 251.984L865.641 243.584H866.825L869.993 250.736L873.161 243.584H874.281ZM887.748 240.128V252H886.66V250.336C886.319 250.901 885.866 251.333 885.3 251.632C884.746 251.931 884.116 252.08 883.412 252.08C882.623 252.08 881.908 251.899 881.268 251.536C880.628 251.173 880.127 250.667 879.764 250.016C879.402 249.365 879.22 248.624 879.22 247.792C879.22 246.96 879.402 246.219 879.764 245.568C880.127 244.917 880.628 244.416 881.268 244.064C881.908 243.701 882.623 243.52 883.412 243.52C884.095 243.52 884.708 243.664 885.252 243.952C885.807 244.229 886.26 244.64 886.612 245.184V240.128H887.748ZM883.508 251.072C884.095 251.072 884.623 250.939 885.092 250.672C885.572 250.395 885.946 250.005 886.212 249.504C886.49 249.003 886.628 248.432 886.628 247.792C886.628 247.152 886.49 246.581 886.212 246.08C885.946 245.579 885.572 245.195 885.092 244.928C884.623 244.651 884.095 244.512 883.508 244.512C882.911 244.512 882.372 244.651 881.892 244.928C881.423 245.195 881.05 245.579 880.772 246.08C880.506 246.581 880.372 247.152 880.372 247.792C880.372 248.432 880.506 249.003 880.772 249.504C881.05 250.005 881.423 250.395 881.892 250.672C882.372 250.939 882.911 251.072 883.508 251.072ZM893.856 243.52C894.955 243.52 895.797 243.797 896.384 244.352C896.971 244.896 897.264 245.707 897.264 246.784V252H896.176V250.688C895.92 251.125 895.541 251.467 895.04 251.712C894.549 251.957 893.963 252.08 893.28 252.08C892.341 252.08 891.595 251.856 891.04 251.408C890.485 250.96 890.208 250.368 890.208 249.632C890.208 248.917 890.464 248.341 890.976 247.904C891.499 247.467 892.325 247.248 893.456 247.248H896.128V246.736C896.128 246.011 895.925 245.461 895.52 245.088C895.115 244.704 894.523 244.512 893.744 244.512C893.211 244.512 892.699 244.603 892.208 244.784C891.717 244.955 891.296 245.195 890.944 245.504L890.432 244.656C890.859 244.293 891.371 244.016 891.968 243.824C892.565 243.621 893.195 243.52 893.856 243.52ZM893.456 251.184C894.096 251.184 894.645 251.04 895.104 250.752C895.563 250.453 895.904 250.027 896.128 249.472V248.096H893.488C892.048 248.096 891.328 248.597 891.328 249.6C891.328 250.091 891.515 250.48 891.888 250.768C892.261 251.045 892.784 251.184 893.456 251.184ZM904.782 251.488C904.568 251.68 904.302 251.829 903.982 251.936C903.672 252.032 903.347 252.08 903.006 252.08C902.216 252.08 901.608 251.867 901.182 251.44C900.755 251.013 900.542 250.411 900.542 249.632V244.544H899.038V243.584H900.542V241.744H901.678V243.584H904.238V244.544H901.678V249.568C901.678 250.069 901.8 250.453 902.046 250.72C902.302 250.976 902.664 251.104 903.134 251.104C903.368 251.104 903.592 251.067 903.806 250.992C904.03 250.917 904.222 250.811 904.382 250.672L904.782 251.488ZM909.794 243.52C910.892 243.52 911.735 243.797 912.322 244.352C912.908 244.896 913.202 245.707 913.202 246.784V252H912.114V250.688C911.858 251.125 911.479 251.467 910.978 251.712C910.487 251.957 909.9 252.08 909.218 252.08C908.279 252.08 907.532 251.856 906.978 251.408C906.423 250.96 906.146 250.368 906.146 249.632C906.146 248.917 906.402 248.341 906.914 247.904C907.436 247.467 908.263 247.248 909.394 247.248H912.066V246.736C912.066 246.011 911.863 245.461 911.458 245.088C911.052 244.704 910.46 244.512 909.682 244.512C909.148 244.512 908.636 244.603 908.146 244.784C907.655 244.955 907.234 245.195 906.882 245.504L906.37 244.656C906.796 244.293 907.308 244.016 907.906 243.824C908.503 243.621 909.132 243.52 909.794 243.52ZM909.394 251.184C910.034 251.184 910.583 251.04 911.042 250.752C911.5 250.453 911.842 250.027 912.066 249.472V248.096H909.426C907.986 248.096 907.266 248.597 907.266 249.6C907.266 250.091 907.452 250.48 907.826 250.768C908.199 251.045 908.722 251.184 909.394 251.184ZM923.915 252.08C923.104 252.08 922.373 251.899 921.723 251.536C921.072 251.163 920.56 250.651 920.187 250C919.813 249.349 919.627 248.613 919.627 247.792C919.627 246.971 919.813 246.235 920.187 245.584C920.56 244.933 921.072 244.427 921.723 244.064C922.373 243.701 923.104 243.52 923.915 243.52C924.725 243.52 925.456 243.701 926.107 244.064C926.757 244.427 927.264 244.933 927.627 245.584C928 246.235 928.187 246.971 928.187 247.792C928.187 248.613 928 249.349 927.627 250C927.264 250.651 926.757 251.163 926.107 251.536C925.456 251.899 924.725 252.08 923.915 252.08ZM923.915 251.072C924.512 251.072 925.045 250.939 925.515 250.672C925.995 250.395 926.368 250.005 926.635 249.504C926.901 249.003 927.035 248.432 927.035 247.792C927.035 247.152 926.901 246.581 926.635 246.08C926.368 245.579 925.995 245.195 925.515 244.928C925.045 244.651 924.512 244.512 923.915 244.512C923.317 244.512 922.779 244.651 922.299 244.928C921.829 245.195 921.456 245.579 921.179 246.08C920.912 246.581 920.779 247.152 920.779 247.792C920.779 248.432 920.912 249.003 921.179 249.504C921.456 250.005 921.829 250.395 922.299 250.672C922.779 250.939 923.317 251.072 923.915 251.072ZM934.794 243.52C935.85 243.52 936.687 243.829 937.306 244.448C937.935 245.056 938.25 245.947 938.25 247.12V252H937.114V247.232C937.114 246.357 936.895 245.691 936.458 245.232C936.021 244.773 935.397 244.544 934.586 244.544C933.679 244.544 932.959 244.816 932.426 245.36C931.903 245.893 931.642 246.635 931.642 247.584V252H930.506V243.584H931.594V245.136C931.903 244.624 932.33 244.229 932.874 243.952C933.429 243.664 934.069 243.52 934.794 243.52ZM940.71 247.168H944.902V248.16H940.71V247.168ZM951.779 243.52C952.569 243.52 953.283 243.701 953.923 244.064C954.563 244.416 955.065 244.917 955.427 245.568C955.79 246.219 955.971 246.96 955.971 247.792C955.971 248.635 955.79 249.381 955.427 250.032C955.065 250.683 954.563 251.189 953.923 251.552C953.294 251.904 952.579 252.08 951.779 252.08C951.097 252.08 950.478 251.941 949.923 251.664C949.379 251.376 948.931 250.96 948.579 250.416V255.104H947.443V243.584H948.531V245.248C948.873 244.693 949.321 244.267 949.875 243.968C950.441 243.669 951.075 243.52 951.779 243.52ZM951.699 251.072C952.286 251.072 952.819 250.939 953.299 250.672C953.779 250.395 954.153 250.005 954.419 249.504C954.697 249.003 954.835 248.432 954.835 247.792C954.835 247.152 954.697 246.587 954.419 246.096C954.153 245.595 953.779 245.205 953.299 244.928C952.819 244.651 952.286 244.512 951.699 244.512C951.102 244.512 950.563 244.651 950.083 244.928C949.614 245.205 949.241 245.595 948.963 246.096C948.697 246.587 948.563 247.152 948.563 247.792C948.563 248.432 948.697 249.003 948.963 249.504C949.241 250.005 949.614 250.395 950.083 250.672C950.563 250.939 951.102 251.072 951.699 251.072ZM959.375 245.232C959.642 244.667 960.036 244.24 960.559 243.952C961.092 243.664 961.748 243.52 962.527 243.52V244.624L962.255 244.608C961.37 244.608 960.676 244.88 960.175 245.424C959.674 245.968 959.423 246.731 959.423 247.712V252H958.287V243.584H959.375V245.232ZM971.834 248.144H964.794C964.858 249.019 965.194 249.728 965.802 250.272C966.41 250.805 967.178 251.072 968.106 251.072C968.629 251.072 969.109 250.981 969.546 250.8C969.983 250.608 970.362 250.331 970.682 249.968L971.322 250.704C970.949 251.152 970.479 251.493 969.914 251.728C969.359 251.963 968.746 252.08 968.074 252.08C967.21 252.08 966.442 251.899 965.77 251.536C965.109 251.163 964.591 250.651 964.218 250C963.845 249.349 963.658 248.613 963.658 247.792C963.658 246.971 963.834 246.235 964.186 245.584C964.549 244.933 965.039 244.427 965.658 244.064C966.287 243.701 966.991 243.52 967.77 243.52C968.549 243.52 969.247 243.701 969.866 244.064C970.485 244.427 970.97 244.933 971.322 245.584C971.674 246.224 971.85 246.96 971.85 247.792L971.834 248.144ZM967.77 244.496C966.959 244.496 966.277 244.757 965.722 245.28C965.178 245.792 964.869 246.464 964.794 247.296H970.762C970.687 246.464 970.373 245.792 969.818 245.28C969.274 244.757 968.591 244.496 967.77 244.496ZM984.658 243.52C985.714 243.52 986.541 243.824 987.138 244.432C987.746 245.04 988.05 245.936 988.05 247.12V252H986.914V247.232C986.914 246.357 986.701 245.691 986.274 245.232C985.858 244.773 985.266 244.544 984.498 244.544C983.623 244.544 982.935 244.816 982.434 245.36C981.933 245.893 981.682 246.635 981.682 247.584V252H980.546V247.232C980.546 246.357 980.333 245.691 979.906 245.232C979.49 244.773 978.893 244.544 978.114 244.544C977.25 244.544 976.562 244.816 976.05 245.36C975.549 245.893 975.298 246.635 975.298 247.584V252H974.162V243.584H975.25V245.12C975.549 244.608 975.965 244.213 976.498 243.936C977.031 243.659 977.645 243.52 978.338 243.52C979.042 243.52 979.65 243.669 980.162 243.968C980.685 244.267 981.074 244.709 981.33 245.296C981.639 244.741 982.082 244.309 982.658 244C983.245 243.68 983.911 243.52 984.658 243.52Z" fill="black"/>
<path d="M796 95C796 83.9543 804.954 75 816 75H985C996.046 75 1005 83.9543 1005 95V175C1005 186.046 996.046 195 985 195H816C804.954 195 796 186.046 796 175V95Z" fill="#3FE7E7"/>
<path d="M880.042 142.24C878.615 142.24 877.322 141.933 876.162 141.32C875.015 140.693 874.108 139.833 873.442 138.74C872.788 137.633 872.462 136.387 872.462 135C872.462 133.613 872.788 132.373 873.442 131.28C874.108 130.173 875.015 129.313 876.162 128.7C877.322 128.073 878.622 127.76 880.062 127.76C881.275 127.76 882.368 127.973 883.342 128.4C884.328 128.827 885.155 129.44 885.822 130.24L883.742 132.16C882.795 131.067 881.622 130.52 880.222 130.52C879.355 130.52 878.582 130.713 877.902 131.1C877.222 131.473 876.688 132 876.302 132.68C875.928 133.36 875.742 134.133 875.742 135C875.742 135.867 875.928 136.64 876.302 137.32C876.688 138 877.222 138.533 877.902 138.92C878.582 139.293 879.355 139.48 880.222 139.48C881.622 139.48 882.795 138.927 883.742 137.82L885.822 139.74C885.155 140.553 884.328 141.173 883.342 141.6C882.355 142.027 881.255 142.24 880.042 142.24ZM887.79 127.16H890.91V142H887.79V127.16ZM904.645 131.24V142H901.685V140.72C901.272 141.187 900.779 141.547 900.205 141.8C899.632 142.04 899.012 142.16 898.345 142.16C896.932 142.16 895.812 141.753 894.985 140.94C894.159 140.127 893.745 138.92 893.745 137.32V131.24H896.865V136.86C896.865 138.593 897.592 139.46 899.045 139.46C899.792 139.46 900.392 139.22 900.845 138.74C901.299 138.247 901.525 137.52 901.525 136.56V131.24H904.645ZM911.156 142.16C910.262 142.16 909.389 142.053 908.536 141.84C907.682 141.613 907.002 141.333 906.496 141L907.536 138.76C908.016 139.067 908.596 139.32 909.276 139.52C909.956 139.707 910.622 139.8 911.276 139.8C912.596 139.8 913.256 139.473 913.256 138.82C913.256 138.513 913.076 138.293 912.716 138.16C912.356 138.027 911.802 137.913 911.056 137.82C910.176 137.687 909.449 137.533 908.876 137.36C908.302 137.187 907.802 136.88 907.376 136.44C906.962 136 906.756 135.373 906.756 134.56C906.756 133.88 906.949 133.28 907.336 132.76C907.736 132.227 908.309 131.813 909.056 131.52C909.816 131.227 910.709 131.08 911.736 131.08C912.496 131.08 913.249 131.167 913.996 131.34C914.756 131.5 915.382 131.727 915.876 132.02L914.836 134.24C913.889 133.707 912.856 133.44 911.736 133.44C911.069 133.44 910.569 133.533 910.236 133.72C909.902 133.907 909.736 134.147 909.736 134.44C909.736 134.773 909.916 135.007 910.276 135.14C910.636 135.273 911.209 135.4 911.996 135.52C912.876 135.667 913.596 135.827 914.156 136C914.716 136.16 915.202 136.46 915.616 136.9C916.029 137.34 916.236 137.953 916.236 138.74C916.236 139.407 916.036 140 915.636 140.52C915.236 141.04 914.649 141.447 913.876 141.74C913.116 142.02 912.209 142.16 911.156 142.16ZM925.101 141.48C924.794 141.707 924.414 141.88 923.961 142C923.521 142.107 923.054 142.16 922.561 142.16C921.281 142.16 920.287 141.833 919.581 141.18C918.887 140.527 918.541 139.567 918.541 138.3V133.88H916.881V131.48H918.541V128.86H921.661V131.48H924.341V133.88H921.661V138.26C921.661 138.713 921.774 139.067 922.001 139.32C922.241 139.56 922.574 139.68 923.001 139.68C923.494 139.68 923.914 139.547 924.261 139.28L925.101 141.48ZM937.06 136.66C937.06 136.7 937.04 136.98 937 137.5H928.86C929.007 138.167 929.353 138.693 929.9 139.08C930.447 139.467 931.127 139.66 931.94 139.66C932.5 139.66 932.993 139.58 933.42 139.42C933.86 139.247 934.267 138.98 934.64 138.62L936.3 140.42C935.287 141.58 933.807 142.16 931.86 142.16C930.647 142.16 929.573 141.927 928.64 141.46C927.707 140.98 926.987 140.32 926.48 139.48C925.973 138.64 925.72 137.687 925.72 136.62C925.72 135.567 925.967 134.62 926.46 133.78C926.967 132.927 927.653 132.267 928.52 131.8C929.4 131.32 930.38 131.08 931.46 131.08C932.513 131.08 933.467 131.307 934.32 131.76C935.173 132.213 935.84 132.867 936.32 133.72C936.813 134.56 937.06 135.54 937.06 136.66ZM931.48 133.44C930.773 133.44 930.18 133.64 929.7 134.04C929.22 134.44 928.927 134.987 928.82 135.68H934.12C934.013 135 933.72 134.46 933.24 134.06C932.76 133.647 932.173 133.44 931.48 133.44ZM942.117 132.66C942.491 132.14 942.991 131.747 943.617 131.48C944.257 131.213 944.991 131.08 945.817 131.08V133.96C945.471 133.933 945.237 133.92 945.117 133.92C944.224 133.92 943.524 134.173 943.017 134.68C942.511 135.173 942.257 135.92 942.257 136.92V142H939.137V131.24H942.117V132.66Z" fill="black"/>
<path d="M847 143H867V139H847V143ZM849 140H851V142H849V140ZM847 127V131H867V127H847ZM851 130H849V128H851V130ZM847 137H867V133H847V137ZM849 134H851V136H849V134Z" fill="black"/>
<path d="M321.939 146.939C321.354 147.525 321.354 148.475 321.939 149.061L331.485 158.607C332.071 159.192 333.021 159.192 333.607 158.607C334.192 158.021 334.192 157.071 333.607 156.485L325.121 148L333.607 139.515C334.192 138.929 334.192 137.979 333.607 137.393C333.021 136.808 332.071 136.808 331.485 137.393L321.939 146.939ZM429.061 149.061C429.646 148.475 429.646 147.525 429.061 146.939L419.515 137.393C418.929 136.808 417.979 136.808 417.393 137.393C416.808 137.979 416.808 138.929 417.393 139.515L425.879 148L417.393 156.485C416.808 157.071 416.808 158.021 417.393 158.607C417.979 159.192 418.929 159.192 419.515 158.607L429.061 149.061ZM323 149.5H428V146.5H323V149.5Z" fill="#9696A5"/>
<path d="M369.804 160.912H366.22V158.8H375.98V160.912H372.396V170H369.804V160.912ZM377.375 158.8H379.967V167.888H385.583V170H377.375V158.8ZM390.649 170.192C389.763 170.192 388.905 170.075 388.073 169.84C387.251 169.595 386.59 169.28 386.089 168.896L386.969 166.944C387.449 167.296 388.019 167.579 388.681 167.792C389.342 168.005 390.003 168.112 390.665 168.112C391.401 168.112 391.945 168.005 392.297 167.792C392.649 167.568 392.825 167.275 392.825 166.912C392.825 166.645 392.718 166.427 392.505 166.256C392.302 166.075 392.035 165.931 391.705 165.824C391.385 165.717 390.947 165.6 390.393 165.472C389.539 165.269 388.841 165.067 388.297 164.864C387.753 164.661 387.283 164.336 386.889 163.888C386.505 163.44 386.313 162.843 386.313 162.096C386.313 161.445 386.489 160.859 386.841 160.336C387.193 159.803 387.721 159.381 388.425 159.072C389.139 158.763 390.009 158.608 391.033 158.608C391.747 158.608 392.446 158.693 393.129 158.864C393.811 159.035 394.409 159.28 394.921 159.6L394.121 161.568C393.086 160.981 392.051 160.688 391.017 160.688C390.291 160.688 389.753 160.805 389.401 161.04C389.059 161.275 388.889 161.584 388.889 161.968C388.889 162.352 389.086 162.64 389.481 162.832C389.886 163.013 390.499 163.195 391.321 163.376C392.174 163.579 392.873 163.781 393.417 163.984C393.961 164.187 394.425 164.507 394.809 164.944C395.203 165.381 395.401 165.973 395.401 166.72C395.401 167.36 395.219 167.947 394.857 168.48C394.505 169.003 393.971 169.419 393.257 169.728C392.542 170.037 391.673 170.192 390.649 170.192Z" fill="#9696A5"/>
<path d="M363.617 161.654H363.344V160.377C363.344 158.016 361.47 156.043 359.128 156.001C359.064 156 358.936 156 358.872 156.001C356.53 156.043 354.656 158.016 354.656 160.377V161.654H354.383C353.963 161.654 353.62 162.088 353.62 162.623V169.027C353.62 169.562 353.963 170 354.383 170H363.617C364.037 170 364.38 169.562 364.38 169.027V162.623C364.38 162.088 364.037 161.654 363.617 161.654ZM359.865 165.819V167.754C359.865 167.975 359.68 168.163 359.458 168.163H358.542C358.32 168.163 358.135 167.975 358.135 167.754V165.819C357.92 165.607 357.795 165.314 357.795 164.99C357.795 164.377 358.269 163.85 358.872 163.825C358.936 163.823 359.064 163.823 359.128 163.825C359.731 163.85 360.205 164.377 360.205 164.99C360.205 165.314 360.08 165.607 359.865 165.819ZM361.546 161.654H359.128H358.872H356.454V160.377C356.454 158.97 357.597 157.807 359 157.807C360.403 157.807 361.546 158.97 361.546 160.377V161.654H361.546Z" fill="#9696A5"/>
<path d="M461.472 232L458.912 228.4C458.624 228.432 458.325 228.448 458.016 228.448H455.008V232H453.824V220.8H458.016C459.445 220.8 460.565 221.141 461.376 221.824C462.187 222.507 462.592 223.445 462.592 224.64C462.592 225.515 462.368 226.256 461.92 226.864C461.483 227.461 460.853 227.893 460.032 228.16L462.768 232H461.472ZM457.984 227.44C459.093 227.44 459.941 227.195 460.528 226.704C461.115 226.213 461.408 225.525 461.408 224.64C461.408 223.733 461.115 223.04 460.528 222.56C459.941 222.069 459.093 221.824 457.984 221.824H455.008V227.44H457.984ZM468.587 232.08C467.776 232.08 467.045 231.899 466.395 231.536C465.744 231.163 465.232 230.651 464.859 230C464.485 229.349 464.299 228.613 464.299 227.792C464.299 226.971 464.485 226.235 464.859 225.584C465.232 224.933 465.744 224.427 466.395 224.064C467.045 223.701 467.776 223.52 468.587 223.52C469.397 223.52 470.128 223.701 470.779 224.064C471.429 224.427 471.936 224.933 472.299 225.584C472.672 226.235 472.859 226.971 472.859 227.792C472.859 228.613 472.672 229.349 472.299 230C471.936 230.651 471.429 231.163 470.779 231.536C470.128 231.899 469.397 232.08 468.587 232.08ZM468.587 231.072C469.184 231.072 469.717 230.939 470.187 230.672C470.667 230.395 471.04 230.005 471.307 229.504C471.573 229.003 471.707 228.432 471.707 227.792C471.707 227.152 471.573 226.581 471.307 226.08C471.04 225.579 470.667 225.195 470.187 224.928C469.717 224.651 469.184 224.512 468.587 224.512C467.989 224.512 467.451 224.651 466.971 224.928C466.501 225.195 466.128 225.579 465.851 226.08C465.584 226.581 465.451 227.152 465.451 227.792C465.451 228.432 465.584 229.003 465.851 229.504C466.128 230.005 466.501 230.395 466.971 230.672C467.451 230.939 467.989 231.072 468.587 231.072ZM482.762 223.584V232H481.674V230.464C481.375 230.976 480.964 231.376 480.442 231.664C479.919 231.941 479.322 232.08 478.65 232.08C477.551 232.08 476.682 231.776 476.042 231.168C475.412 230.549 475.098 229.648 475.098 228.464V223.584H476.234V228.352C476.234 229.237 476.452 229.909 476.89 230.368C477.327 230.827 477.951 231.056 478.762 231.056C479.647 231.056 480.346 230.789 480.858 230.256C481.37 229.712 481.626 228.96 481.626 228V223.584H482.762ZM490.375 231.488C490.162 231.68 489.895 231.829 489.575 231.936C489.266 232.032 488.941 232.08 488.599 232.08C487.81 232.08 487.202 231.867 486.775 231.44C486.349 231.013 486.135 230.411 486.135 229.632V224.544H484.631V223.584H486.135V221.744H487.271V223.584H489.831V224.544H487.271V229.568C487.271 230.069 487.394 230.453 487.639 230.72C487.895 230.976 488.258 231.104 488.727 231.104C488.962 231.104 489.186 231.067 489.399 230.992C489.623 230.917 489.815 230.811 489.975 230.672L490.375 231.488ZM499.475 228.144H492.435C492.499 229.019 492.835 229.728 493.443 230.272C494.051 230.805 494.819 231.072 495.747 231.072C496.269 231.072 496.749 230.981 497.187 230.8C497.624 230.608 498.003 230.331 498.323 229.968L498.963 230.704C498.589 231.152 498.12 231.493 497.555 231.728C497 231.963 496.387 232.08 495.715 232.08C494.851 232.08 494.083 231.899 493.411 231.536C492.749 231.163 492.232 230.651 491.859 230C491.485 229.349 491.299 228.613 491.299 227.792C491.299 226.971 491.475 226.235 491.827 225.584C492.189 224.933 492.68 224.427 493.299 224.064C493.928 223.701 494.632 223.52 495.411 223.52C496.189 223.52 496.888 223.701 497.507 224.064C498.125 224.427 498.611 224.933 498.963 225.584C499.315 226.224 499.491 226.96 499.491 227.792L499.475 228.144ZM495.411 224.496C494.6 224.496 493.917 224.757 493.363 225.28C492.819 225.792 492.509 226.464 492.435 227.296H498.403C498.328 226.464 498.013 225.792 497.459 225.28C496.915 224.757 496.232 224.496 495.411 224.496ZM513.67 220.128V232H512.582V230.336C512.241 230.901 511.788 231.333 511.222 231.632C510.668 231.931 510.038 232.08 509.334 232.08C508.545 232.08 507.83 231.899 507.19 231.536C506.55 231.173 506.049 230.667 505.686 230.016C505.324 229.365 505.142 228.624 505.142 227.792C505.142 226.96 505.324 226.219 505.686 225.568C506.049 224.917 506.55 224.416 507.19 224.064C507.83 223.701 508.545 223.52 509.334 223.52C510.017 223.52 510.63 223.664 511.174 223.952C511.729 224.229 512.182 224.64 512.534 225.184V220.128H513.67ZM509.43 231.072C510.017 231.072 510.545 230.939 511.014 230.672C511.494 230.395 511.868 230.005 512.134 229.504C512.412 229.003 512.55 228.432 512.55 227.792C512.55 227.152 512.412 226.581 512.134 226.08C511.868 225.579 511.494 225.195 511.014 224.928C510.545 224.651 510.017 224.512 509.43 224.512C508.833 224.512 508.294 224.651 507.814 224.928C507.345 225.195 506.972 225.579 506.694 226.08C506.428 226.581 506.294 227.152 506.294 227.792C506.294 228.432 506.428 229.003 506.694 229.504C506.972 230.005 507.345 230.395 507.814 230.672C508.294 230.939 508.833 231.072 509.43 231.072ZM519.778 223.52C520.877 223.52 521.719 223.797 522.306 224.352C522.893 224.896 523.186 225.707 523.186 226.784V232H522.098V230.688C521.842 231.125 521.463 231.467 520.962 231.712C520.471 231.957 519.885 232.08 519.202 232.08C518.263 232.08 517.517 231.856 516.962 231.408C516.407 230.96 516.13 230.368 516.13 229.632C516.13 228.917 516.386 228.341 516.898 227.904C517.421 227.467 518.247 227.248 519.378 227.248H522.05V226.736C522.05 226.011 521.847 225.461 521.442 225.088C521.037 224.704 520.445 224.512 519.666 224.512C519.133 224.512 518.621 224.603 518.13 224.784C517.639 224.955 517.218 225.195 516.866 225.504L516.354 224.656C516.781 224.293 517.293 224.016 517.89 223.824C518.487 223.621 519.117 223.52 519.778 223.52ZM519.378 231.184C520.018 231.184 520.567 231.04 521.026 230.752C521.485 230.453 521.826 230.027 522.05 229.472V228.096H519.41C517.97 228.096 517.25 228.597 517.25 229.6C517.25 230.091 517.437 230.48 517.81 230.768C518.183 231.045 518.706 231.184 519.378 231.184ZM530.704 231.488C530.49 231.68 530.224 231.829 529.904 231.936C529.594 232.032 529.269 232.08 528.928 232.08C528.138 232.08 527.53 231.867 527.104 231.44C526.677 231.013 526.464 230.411 526.464 229.632V224.544H524.96V223.584H526.464V221.744H527.6V223.584H530.16V224.544H527.6V229.568C527.6 230.069 527.722 230.453 527.968 230.72C528.224 230.976 528.586 231.104 529.056 231.104C529.29 231.104 529.514 231.067 529.728 230.992C529.952 230.917 530.144 230.811 530.304 230.672L530.704 231.488ZM535.716 223.52C536.814 223.52 537.657 223.797 538.244 224.352C538.83 224.896 539.124 225.707 539.124 226.784V232H538.036V230.688C537.78 231.125 537.401 231.467 536.9 231.712C536.409 231.957 535.822 232.08 535.14 232.08C534.201 232.08 533.454 231.856 532.9 231.408C532.345 230.96 532.068 230.368 532.068 229.632C532.068 228.917 532.324 228.341 532.836 227.904C533.358 227.467 534.185 227.248 535.316 227.248H537.988V226.736C537.988 226.011 537.785 225.461 537.38 225.088C536.974 224.704 536.382 224.512 535.604 224.512C535.07 224.512 534.558 224.603 534.068 224.784C533.577 224.955 533.156 225.195 532.804 225.504L532.292 224.656C532.718 224.293 533.23 224.016 533.828 223.824C534.425 223.621 535.054 223.52 535.716 223.52ZM535.316 231.184C535.956 231.184 536.505 231.04 536.964 230.752C537.422 230.453 537.764 230.027 537.988 229.472V228.096H535.348C533.908 228.096 533.188 228.597 533.188 229.6C533.188 230.091 533.374 230.48 533.748 230.768C534.121 231.045 534.644 231.184 535.316 231.184ZM549.181 221.008C548.69 221.008 548.317 221.141 548.061 221.408C547.815 221.675 547.693 222.069 547.693 222.592V223.584H550.285V224.544H547.725V232H546.589V224.544H545.085V223.584H546.589V222.544C546.589 221.776 546.807 221.168 547.245 220.72C547.693 220.272 548.322 220.048 549.133 220.048C549.453 220.048 549.762 220.096 550.061 220.192C550.359 220.277 550.61 220.405 550.813 220.576L550.429 221.424C550.098 221.147 549.682 221.008 549.181 221.008ZM555.118 232.08C554.307 232.08 553.576 231.899 552.926 231.536C552.275 231.163 551.763 230.651 551.39 230C551.016 229.349 550.83 228.613 550.83 227.792C550.83 226.971 551.016 226.235 551.39 225.584C551.763 224.933 552.275 224.427 552.926 224.064C553.576 223.701 554.307 223.52 555.118 223.52C555.928 223.52 556.659 223.701 557.31 224.064C557.96 224.427 558.467 224.933 558.83 225.584C559.203 226.235 559.39 226.971 559.39 227.792C559.39 228.613 559.203 229.349 558.83 230C558.467 230.651 557.96 231.163 557.31 231.536C556.659 231.899 555.928 232.08 555.118 232.08ZM555.118 231.072C555.715 231.072 556.248 230.939 556.718 230.672C557.198 230.395 557.571 230.005 557.838 229.504C558.104 229.003 558.238 228.432 558.238 227.792C558.238 227.152 558.104 226.581 557.838 226.08C557.571 225.579 557.198 225.195 556.718 224.928C556.248 224.651 555.715 224.512 555.118 224.512C554.52 224.512 553.982 224.651 553.502 224.928C553.032 225.195 552.659 225.579 552.382 226.08C552.115 226.581 551.982 227.152 551.982 227.792C551.982 228.432 552.115 229.003 552.382 229.504C552.659 230.005 553.032 230.395 553.502 230.672C553.982 230.939 554.52 231.072 555.118 231.072ZM562.797 225.232C563.064 224.667 563.458 224.24 563.981 223.952C564.514 223.664 565.17 223.52 565.949 223.52V224.624L565.677 224.608C564.792 224.608 564.098 224.88 563.597 225.424C563.096 225.968 562.845 226.731 562.845 227.712V232H561.709V223.584H562.797V225.232ZM456.528 243.52C457.627 243.52 458.469 243.797 459.056 244.352C459.643 244.896 459.936 245.707 459.936 246.784V252H458.848V250.688C458.592 251.125 458.213 251.467 457.712 251.712C457.221 251.957 456.635 252.08 455.952 252.08C455.013 252.08 454.267 251.856 453.712 251.408C453.157 250.96 452.88 250.368 452.88 249.632C452.88 248.917 453.136 248.341 453.648 247.904C454.171 247.467 454.997 247.248 456.128 247.248H458.8V246.736C458.8 246.011 458.597 245.461 458.192 245.088C457.787 244.704 457.195 244.512 456.416 244.512C455.883 244.512 455.371 244.603 454.88 244.784C454.389 244.955 453.968 245.195 453.616 245.504L453.104 244.656C453.531 244.293 454.043 244.016 454.64 243.824C455.237 243.621 455.867 243.52 456.528 243.52ZM456.128 251.184C456.768 251.184 457.317 251.04 457.776 250.752C458.235 250.453 458.576 250.027 458.8 249.472V248.096H456.16C454.72 248.096 454 248.597 454 249.6C454 250.091 454.187 250.48 454.56 250.768C454.933 251.045 455.456 251.184 456.128 251.184ZM470.606 243.584V252H469.517V250.464C469.219 250.976 468.808 251.376 468.286 251.664C467.763 251.941 467.166 252.08 466.494 252.08C465.395 252.08 464.526 251.776 463.886 251.168C463.256 250.549 462.942 249.648 462.942 248.464V243.584H464.078V248.352C464.078 249.237 464.296 249.909 464.734 250.368C465.171 250.827 465.795 251.056 466.606 251.056C467.491 251.056 468.19 250.789 468.702 250.256C469.214 249.712 469.47 248.96 469.47 248V243.584H470.606ZM478.219 251.488C478.006 251.68 477.739 251.829 477.419 251.936C477.11 252.032 476.784 252.08 476.443 252.08C475.654 252.08 475.046 251.867 474.619 251.44C474.192 251.013 473.979 250.411 473.979 249.632V244.544H472.475V243.584H473.979V241.744H475.115V243.584H477.675V244.544H475.115V249.568C475.115 250.069 475.238 250.453 475.483 250.72C475.739 250.976 476.102 251.104 476.571 251.104C476.806 251.104 477.03 251.067 477.243 250.992C477.467 250.917 477.659 250.811 477.819 250.672L478.219 251.488ZM484.575 243.52C485.631 243.52 486.468 243.829 487.087 244.448C487.716 245.056 488.031 245.947 488.031 247.12V252H486.895V247.232C486.895 246.357 486.676 245.691 486.239 245.232C485.802 244.773 485.178 244.544 484.367 244.544C483.46 244.544 482.74 244.816 482.207 245.36C481.684 245.893 481.423 246.635 481.423 247.584V252H480.287V240.128H481.423V245.056C481.732 244.565 482.159 244.187 482.703 243.92C483.247 243.653 483.871 243.52 484.575 243.52ZM498.475 248.144H491.435C491.499 249.019 491.835 249.728 492.443 250.272C493.051 250.805 493.819 251.072 494.747 251.072C495.269 251.072 495.749 250.981 496.187 250.8C496.624 250.608 497.003 250.331 497.323 249.968L497.963 250.704C497.589 251.152 497.12 251.493 496.555 251.728C496 251.963 495.387 252.08 494.715 252.08C493.851 252.08 493.083 251.899 492.411 251.536C491.749 251.163 491.232 250.651 490.859 250C490.485 249.349 490.299 248.613 490.299 247.792C490.299 246.971 490.475 246.235 490.827 245.584C491.189 244.933 491.68 244.427 492.299 244.064C492.928 243.701 493.632 243.52 494.411 243.52C495.189 243.52 495.888 243.701 496.507 244.064C497.125 244.427 497.611 244.933 497.963 245.584C498.315 246.224 498.491 246.96 498.491 247.792L498.475 248.144ZM494.411 244.496C493.6 244.496 492.917 244.757 492.363 245.28C491.819 245.792 491.509 246.464 491.435 247.296H497.403C497.328 246.464 497.013 245.792 496.459 245.28C495.915 244.757 495.232 244.496 494.411 244.496ZM505.091 243.52C506.147 243.52 506.984 243.829 507.603 244.448C508.232 245.056 508.547 245.947 508.547 247.12V252H507.411V247.232C507.411 246.357 507.192 245.691 506.755 245.232C506.317 244.773 505.693 244.544 504.883 244.544C503.976 244.544 503.256 244.816 502.723 245.36C502.2 245.893 501.939 246.635 501.939 247.584V252H500.803V243.584H501.891V245.136C502.2 244.624 502.627 244.229 503.171 243.952C503.725 243.664 504.365 243.52 505.091 243.52ZM516.063 251.488C515.85 251.68 515.583 251.829 515.263 251.936C514.954 252.032 514.628 252.08 514.287 252.08C513.498 252.08 512.89 251.867 512.463 251.44C512.036 251.013 511.823 250.411 511.823 249.632V244.544H510.319V243.584H511.823V241.744H512.959V243.584H515.519V244.544H512.959V249.568C512.959 250.069 513.082 250.453 513.327 250.72C513.583 250.976 513.946 251.104 514.415 251.104C514.65 251.104 514.874 251.067 515.087 250.992C515.311 250.917 515.503 250.811 515.663 250.672L516.063 251.488ZM518.131 243.584H519.267V252H518.131V243.584ZM518.707 241.744C518.472 241.744 518.275 241.664 518.115 241.504C517.955 241.344 517.875 241.152 517.875 240.928C517.875 240.715 517.955 240.528 518.115 240.368C518.275 240.208 518.472 240.128 518.707 240.128C518.942 240.128 519.139 240.208 519.299 240.368C519.459 240.517 519.539 240.699 519.539 240.912C519.539 241.147 519.459 241.344 519.299 241.504C519.139 241.664 518.942 241.744 518.707 241.744ZM525.916 252.08C525.084 252.08 524.337 251.899 523.676 251.536C523.025 251.173 522.513 250.667 522.14 250.016C521.766 249.355 521.58 248.613 521.58 247.792C521.58 246.971 521.766 246.235 522.14 245.584C522.513 244.933 523.025 244.427 523.676 244.064C524.337 243.701 525.084 243.52 525.916 243.52C526.641 243.52 527.286 243.664 527.852 243.952C528.428 244.229 528.881 244.64 529.212 245.184L528.364 245.76C528.086 245.344 527.734 245.035 527.308 244.832C526.881 244.619 526.417 244.512 525.916 244.512C525.308 244.512 524.758 244.651 524.268 244.928C523.788 245.195 523.409 245.579 523.132 246.08C522.865 246.581 522.732 247.152 522.732 247.792C522.732 248.443 522.865 249.019 523.132 249.52C523.409 250.011 523.788 250.395 524.268 250.672C524.758 250.939 525.308 251.072 525.916 251.072C526.417 251.072 526.881 250.971 527.308 250.768C527.734 250.565 528.086 250.256 528.364 249.84L529.212 250.416C528.881 250.96 528.428 251.376 527.852 251.664C527.276 251.941 526.63 252.08 525.916 252.08ZM534.387 243.52C535.486 243.52 536.329 243.797 536.915 244.352C537.502 244.896 537.795 245.707 537.795 246.784V252H536.707V250.688C536.451 251.125 536.073 251.467 535.571 251.712C535.081 251.957 534.494 252.08 533.811 252.08C532.873 252.08 532.126 251.856 531.571 251.408C531.017 250.96 530.739 250.368 530.739 249.632C530.739 248.917 530.995 248.341 531.507 247.904C532.03 247.467 532.857 247.248 533.987 247.248H536.659V246.736C536.659 246.011 536.457 245.461 536.051 245.088C535.646 244.704 535.054 244.512 534.275 244.512C533.742 244.512 533.23 244.603 532.739 244.784C532.249 244.955 531.827 245.195 531.475 245.504L530.963 244.656C531.39 244.293 531.902 244.016 532.499 243.824C533.097 243.621 533.726 243.52 534.387 243.52ZM533.987 251.184C534.627 251.184 535.177 251.04 535.635 250.752C536.094 250.453 536.435 250.027 536.659 249.472V248.096H534.019C532.579 248.096 531.859 248.597 531.859 249.6C531.859 250.091 532.046 250.48 532.419 250.768C532.793 251.045 533.315 251.184 533.987 251.184ZM545.313 251.488C545.1 251.68 544.833 251.829 544.513 251.936C544.204 252.032 543.878 252.08 543.537 252.08C542.748 252.08 542.14 251.867 541.713 251.44C541.286 251.013 541.073 250.411 541.073 249.632V244.544H539.569V243.584H541.073V241.744H542.209V243.584H544.769V244.544H542.209V249.568C542.209 250.069 542.332 250.453 542.577 250.72C542.833 250.976 543.196 251.104 543.665 251.104C543.9 251.104 544.124 251.067 544.337 250.992C544.561 250.917 544.753 250.811 544.913 250.672L545.313 251.488ZM554.412 248.144H547.372C547.436 249.019 547.772 249.728 548.38 250.272C548.988 250.805 549.756 251.072 550.684 251.072C551.207 251.072 551.687 250.981 552.124 250.8C552.561 250.608 552.94 250.331 553.26 249.968L553.9 250.704C553.527 251.152 553.057 251.493 552.492 251.728C551.937 251.963 551.324 252.08 550.652 252.08C549.788 252.08 549.02 251.899 548.348 251.536C547.687 251.163 547.169 250.651 546.796 250C546.423 249.349 546.236 248.613 546.236 247.792C546.236 246.971 546.412 246.235 546.764 245.584C547.127 244.933 547.617 244.427 548.236 244.064C548.865 243.701 549.569 243.52 550.348 243.52C551.127 243.52 551.825 243.701 552.444 244.064C553.063 244.427 553.548 244.933 553.9 245.584C554.252 246.224 554.428 246.96 554.428 247.792L554.412 248.144ZM550.348 244.496C549.537 244.496 548.855 244.757 548.3 245.28C547.756 245.792 547.447 246.464 547.372 247.296H553.34C553.265 246.464 552.951 245.792 552.396 245.28C551.852 244.757 551.169 244.496 550.348 244.496ZM564.42 240.128V252H563.332V250.336C562.991 250.901 562.538 251.333 561.972 251.632C561.418 251.931 560.788 252.08 560.084 252.08C559.295 252.08 558.58 251.899 557.94 251.536C557.3 251.173 556.799 250.667 556.436 250.016C556.074 249.365 555.892 248.624 555.892 247.792C555.892 246.96 556.074 246.219 556.436 245.568C556.799 244.917 557.3 244.416 557.94 244.064C558.58 243.701 559.295 243.52 560.084 243.52C560.767 243.52 561.38 243.664 561.924 243.952C562.479 244.229 562.932 244.64 563.284 245.184V240.128H564.42ZM560.18 251.072C560.767 251.072 561.295 250.939 561.764 250.672C562.244 250.395 562.618 250.005 562.884 249.504C563.162 249.003 563.3 248.432 563.3 247.792C563.3 247.152 563.162 246.581 562.884 246.08C562.618 245.579 562.244 245.195 561.764 244.928C561.295 244.651 560.767 244.512 560.18 244.512C559.583 244.512 559.044 244.651 558.564 244.928C558.095 245.195 557.722 245.579 557.444 246.08C557.178 246.581 557.044 247.152 557.044 247.792C557.044 248.432 557.178 249.003 557.444 249.504C557.722 250.005 558.095 250.395 558.564 250.672C559.044 250.939 559.583 251.072 560.18 251.072ZM579.356 243.584V252H578.267V250.464C577.969 250.976 577.558 251.376 577.036 251.664C576.513 251.941 575.916 252.08 575.244 252.08C574.145 252.08 573.276 251.776 572.636 251.168C572.006 250.549 571.692 249.648 571.692 248.464V243.584H572.828V248.352C572.828 249.237 573.046 249.909 573.484 250.368C573.921 250.827 574.545 251.056 575.356 251.056C576.241 251.056 576.94 250.789 577.452 250.256C577.964 249.712 578.22 248.96 578.22 248V243.584H579.356ZM584.793 252.08C584.11 252.08 583.454 251.984 582.825 251.792C582.206 251.589 581.721 251.339 581.369 251.04L581.881 250.144C582.233 250.421 582.676 250.651 583.209 250.832C583.742 251.003 584.297 251.088 584.873 251.088C585.641 251.088 586.206 250.971 586.569 250.736C586.942 250.491 587.129 250.149 587.129 249.712C587.129 249.403 587.028 249.163 586.825 248.992C586.622 248.811 586.366 248.677 586.057 248.592C585.748 248.496 585.337 248.405 584.825 248.32C584.142 248.192 583.593 248.064 583.177 247.936C582.761 247.797 582.404 247.568 582.105 247.248C581.817 246.928 581.673 246.485 581.673 245.92C581.673 245.216 581.966 244.64 582.553 244.192C583.14 243.744 583.956 243.52 585.001 243.52C585.545 243.52 586.089 243.595 586.633 243.744C587.177 243.883 587.625 244.069 587.977 244.304L587.481 245.216C586.788 244.736 585.961 244.496 585.001 244.496C584.276 244.496 583.726 244.624 583.353 244.88C582.99 245.136 582.809 245.472 582.809 245.888C582.809 246.208 582.91 246.464 583.113 246.656C583.326 246.848 583.588 246.992 583.897 247.088C584.206 247.173 584.633 247.264 585.177 247.36C585.849 247.488 586.388 247.616 586.793 247.744C587.198 247.872 587.545 248.091 587.833 248.4C588.121 248.709 588.265 249.136 588.265 249.68C588.265 250.416 587.956 251.003 587.337 251.44C586.729 251.867 585.881 252.08 584.793 252.08ZM597.693 248.144H590.653C590.717 249.019 591.053 249.728 591.661 250.272C592.269 250.805 593.037 251.072 593.965 251.072C594.488 251.072 594.968 250.981 595.405 250.8C595.843 250.608 596.221 250.331 596.541 249.968L597.181 250.704C596.808 251.152 596.339 251.493 595.773 251.728C595.219 251.963 594.605 252.08 593.933 252.08C593.069 252.08 592.301 251.899 591.629 251.536C590.968 251.163 590.451 250.651 590.077 250C589.704 249.349 589.517 248.613 589.517 247.792C589.517 246.971 589.693 246.235 590.045 245.584C590.408 244.933 590.899 244.427 591.517 244.064C592.147 243.701 592.851 243.52 593.629 243.52C594.408 243.52 595.107 243.701 595.725 244.064C596.344 244.427 596.829 244.933 597.181 245.584C597.533 246.224 597.709 246.96 597.709 247.792L597.693 248.144ZM593.629 244.496C592.819 244.496 592.136 244.757 591.581 245.28C591.037 245.792 590.728 246.464 590.653 247.296H596.621C596.547 246.464 596.232 245.792 595.677 245.28C595.133 244.757 594.451 244.496 593.629 244.496ZM601.11 245.232C601.376 244.667 601.771 244.24 602.294 243.952C602.827 243.664 603.483 243.52 604.262 243.52V244.624L603.99 244.608C603.104 244.608 602.411 244.88 601.91 245.424C601.408 245.968 601.158 246.731 601.158 247.712V252H600.022V243.584H601.11V245.232ZM608.637 252.08C607.954 252.08 607.298 251.984 606.669 251.792C606.05 251.589 605.565 251.339 605.213 251.04L605.725 250.144C606.077 250.421 606.52 250.651 607.053 250.832C607.586 251.003 608.141 251.088 608.717 251.088C609.485 251.088 610.05 250.971 610.413 250.736C610.786 250.491 610.973 250.149 610.973 249.712C610.973 249.403 610.872 249.163 610.669 248.992C610.466 248.811 610.21 248.677 609.901 248.592C609.592 248.496 609.181 248.405 608.669 248.32C607.986 248.192 607.437 248.064 607.021 247.936C606.605 247.797 606.248 247.568 605.949 247.248C605.661 246.928 605.517 246.485 605.517 245.92C605.517 245.216 605.81 244.64 606.397 244.192C606.984 243.744 607.8 243.52 608.845 243.52C609.389 243.52 609.933 243.595 610.477 243.744C611.021 243.883 611.469 244.069 611.821 244.304L611.325 245.216C610.632 244.736 609.805 244.496 608.845 244.496C608.12 244.496 607.57 244.624 607.197 244.88C606.834 245.136 606.653 245.472 606.653 245.888C606.653 246.208 606.754 246.464 606.957 246.656C607.17 246.848 607.432 246.992 607.741 247.088C608.05 247.173 608.477 247.264 609.021 247.36C609.693 247.488 610.232 247.616 610.637 247.744C611.042 247.872 611.389 248.091 611.677 248.4C611.965 248.709 612.109 249.136 612.109 249.68C612.109 250.416 611.8 251.003 611.181 251.44C610.573 251.867 609.725 252.08 608.637 252.08Z" fill="black"/>
<path d="M606.8 120.3C601.36 94.425 577.12 75 548 75C524.88 75 504.8 87.3 494.8 105.3C470.72 107.7 452 126.825 452 150C452 174.825 473.52 195 500 195H604C626.08 195 644 178.2 644 157.5C644 137.7 627.6 121.65 606.8 120.3Z" fill="#3FE7E7" stroke="#3FE7E7"/>
<path d="M526.267 132C527.507 132 528.58 132.207 529.487 132.62C530.407 133.033 531.114 133.62 531.607 134.38C532.1 135.14 532.347 136.04 532.347 137.08C532.347 138.107 532.1 139.007 531.607 139.78C531.114 140.54 530.407 141.127 529.487 141.54C528.58 141.94 527.507 142.14 526.267 142.14H523.447V146H520.207V132H526.267ZM526.087 139.5C527.06 139.5 527.8 139.293 528.307 138.88C528.814 138.453 529.067 137.853 529.067 137.08C529.067 136.293 528.814 135.693 528.307 135.28C527.8 134.853 527.06 134.64 526.087 134.64H523.447V139.5H526.087ZM537.42 136.66C537.793 136.14 538.293 135.747 538.92 135.48C539.56 135.213 540.293 135.08 541.12 135.08V137.96C540.773 137.933 540.54 137.92 540.42 137.92C539.527 137.92 538.827 138.173 538.32 138.68C537.813 139.173 537.56 139.92 537.56 140.92V146H534.44V135.24H537.42V136.66ZM547.998 146.16C546.864 146.16 545.844 145.927 544.938 145.46C544.044 144.98 543.344 144.32 542.838 143.48C542.331 142.64 542.078 141.687 542.078 140.62C542.078 139.553 542.331 138.6 542.838 137.76C543.344 136.92 544.044 136.267 544.938 135.8C545.844 135.32 546.864 135.08 547.998 135.08C549.131 135.08 550.144 135.32 551.038 135.8C551.931 136.267 552.631 136.92 553.138 137.76C553.644 138.6 553.898 139.553 553.898 140.62C553.898 141.687 553.644 142.64 553.138 143.48C552.631 144.32 551.931 144.98 551.038 145.46C550.144 145.927 549.131 146.16 547.998 146.16ZM547.998 143.6C548.798 143.6 549.451 143.333 549.958 142.8C550.478 142.253 550.738 141.527 550.738 140.62C550.738 139.713 550.478 138.993 549.958 138.46C549.451 137.913 548.798 137.64 547.998 137.64C547.198 137.64 546.538 137.913 546.018 138.46C545.498 138.993 545.238 139.713 545.238 140.62C545.238 141.527 545.498 142.253 546.018 142.8C546.538 143.333 547.198 143.6 547.998 143.6ZM562.491 146L560.131 142.7L557.691 146H554.291L558.431 140.58L554.431 135.24H557.931L560.211 138.38L562.551 135.24H565.871L561.871 140.5L566.031 146H562.491ZM577.62 135.24L572.76 146.66C572.267 147.9 571.653 148.773 570.92 149.28C570.2 149.787 569.327 150.04 568.3 150.04C567.74 150.04 567.187 149.953 566.64 149.78C566.093 149.607 565.647 149.367 565.3 149.06L566.44 146.84C566.68 147.053 566.953 147.22 567.26 147.34C567.58 147.46 567.893 147.52 568.2 147.52C568.627 147.52 568.973 147.413 569.24 147.2C569.507 147 569.747 146.66 569.96 146.18L570 146.08L565.34 135.24H568.56L571.58 142.54L574.62 135.24H577.62Z" fill="black"/>
<path d="M665.939 147.939C665.354 148.525 665.354 149.475 665.939 150.061L675.485 159.607C676.071 160.192 677.021 160.192 677.607 159.607C678.192 159.021 678.192 158.071 677.607 157.485L669.121 149L677.607 140.515C678.192 139.929 678.192 138.979 677.607 138.393C677.021 137.808 676.071 137.808 675.485 138.393L665.939 147.939ZM773.061 150.061C773.646 149.475 773.646 148.525 773.061 147.939L763.515 138.393C762.929 137.808 761.979 137.808 761.393 138.393C760.808 138.979 760.808 139.929 761.393 140.515L769.879 149L761.393 157.485C760.808 158.071 760.808 159.021 761.393 159.607C761.979 160.192 762.929 160.192 763.515 159.607L773.061 150.061ZM667 150.5H772V147.5H667V150.5Z" fill="#9696A5"/>
<path d="M713.804 161.912H710.22V159.8H719.98V161.912H716.396V171H713.804V161.912ZM721.375 159.8H723.967V168.888H729.583V171H721.375V159.8ZM734.649 171.192C733.763 171.192 732.905 171.075 732.073 170.84C731.251 170.595 730.59 170.28 730.089 169.896L730.969 167.944C731.449 168.296 732.019 168.579 732.681 168.792C733.342 169.005 734.003 169.112 734.665 169.112C735.401 169.112 735.945 169.005 736.297 168.792C736.649 168.568 736.825 168.275 736.825 167.912C736.825 167.645 736.718 167.427 736.505 167.256C736.302 167.075 736.035 166.931 735.705 166.824C735.385 166.717 734.947 166.6 734.393 166.472C733.539 166.269 732.841 166.067 732.297 165.864C731.753 165.661 731.283 165.336 730.889 164.888C730.505 164.44 730.313 163.843 730.313 163.096C730.313 162.445 730.489 161.859 730.841 161.336C731.193 160.803 731.721 160.381 732.425 160.072C733.139 159.763 734.009 159.608 735.033 159.608C735.747 159.608 736.446 159.693 737.129 159.864C737.811 160.035 738.409 160.28 738.921 160.6L738.121 162.568C737.086 161.981 736.051 161.688 735.017 161.688C734.291 161.688 733.753 161.805 733.401 162.04C733.059 162.275 732.889 162.584 732.889 162.968C732.889 163.352 733.086 163.64 733.481 163.832C733.886 164.013 734.499 164.195 735.321 164.376C736.174 164.579 736.873 164.781 737.417 164.984C737.961 165.187 738.425 165.507 738.809 165.944C739.203 166.381 739.401 166.973 739.401 167.72C739.401 168.36 739.219 168.947 738.857 169.48C738.505 170.003 737.971 170.419 737.257 170.728C736.542 171.037 735.673 171.192 734.649 171.192Z" fill="#9696A5"/>
<path d="M707.617 162.654H707.344V161.377C707.344 159.016 705.47 157.043 703.128 157.001C703.064 157 702.936 157 702.872 157.001C700.53 157.043 698.656 159.016 698.656 161.377V162.654H698.383C697.963 162.654 697.62 163.088 697.62 163.623V170.027C697.62 170.562 697.963 171 698.383 171H707.617C708.037 171 708.38 170.562 708.38 170.027V163.623C708.38 163.088 708.037 162.654 707.617 162.654ZM703.865 166.819V168.754C703.865 168.975 703.68 169.163 703.458 169.163H702.542C702.32 169.163 702.135 168.975 702.135 168.754V166.819C701.92 166.607 701.795 166.314 701.795 165.99C701.795 165.377 702.269 164.85 702.872 164.825C702.936 164.823 703.064 164.823 703.128 164.825C703.731 164.85 704.205 165.377 704.205 165.99C704.205 166.314 704.08 166.607 703.865 166.819ZM705.546 162.654H703.128H702.872H700.454V161.377C700.454 159.97 701.597 158.807 703 158.807C704.403 158.807 705.546 159.97 705.546 161.377V162.654H705.546Z" fill="#9696A5"/>
<path d="M92.824 220.8H97.384C98.568 220.8 99.6133 221.04 100.52 221.52C101.427 221.989 102.131 222.651 102.632 223.504C103.133 224.347 103.384 225.312 103.384 226.4C103.384 227.488 103.133 228.459 102.632 229.312C102.131 230.155 101.427 230.816 100.52 231.296C99.6133 231.765 98.568 232 97.384 232H92.824V220.8ZM97.32 230.976C98.3013 230.976 99.16 230.784 99.896 230.4C100.632 230.005 101.203 229.467 101.608 228.784C102.013 228.091 102.216 227.296 102.216 226.4C102.216 225.504 102.013 224.715 101.608 224.032C101.203 223.339 100.632 222.8 99.896 222.416C99.16 222.021 98.3013 221.824 97.32 221.824H94.008V230.976H97.32ZM105.803 223.584H106.939V232H105.803V223.584ZM106.379 221.744C106.144 221.744 105.947 221.664 105.787 221.504C105.627 221.344 105.547 221.152 105.547 220.928C105.547 220.715 105.627 220.528 105.787 220.368C105.947 220.208 106.144 220.128 106.379 220.128C106.613 220.128 106.811 220.208 106.971 220.368C107.131 220.517 107.211 220.699 107.211 220.912C107.211 221.147 107.131 221.344 106.971 221.504C106.811 221.664 106.613 221.744 106.379 221.744ZM112.356 232.08C111.673 232.08 111.017 231.984 110.388 231.792C109.769 231.589 109.284 231.339 108.932 231.04L109.444 230.144C109.796 230.421 110.238 230.651 110.772 230.832C111.305 231.003 111.86 231.088 112.436 231.088C113.204 231.088 113.769 230.971 114.132 230.736C114.505 230.491 114.692 230.149 114.692 229.712C114.692 229.403 114.59 229.163 114.388 228.992C114.185 228.811 113.929 228.677 113.62 228.592C113.31 228.496 112.9 228.405 112.388 228.32C111.705 228.192 111.156 228.064 110.74 227.936C110.324 227.797 109.966 227.568 109.668 227.248C109.38 226.928 109.236 226.485 109.236 225.92C109.236 225.216 109.529 224.64 110.116 224.192C110.702 223.744 111.518 223.52 112.564 223.52C113.108 223.52 113.652 223.595 114.196 223.744C114.74 223.883 115.188 224.069 115.54 224.304L115.044 225.216C114.35 224.736 113.524 224.496 112.564 224.496C111.838 224.496 111.289 224.624 110.916 224.88C110.553 225.136 110.372 225.472 110.372 225.888C110.372 226.208 110.473 226.464 110.676 226.656C110.889 226.848 111.15 226.992 111.46 227.088C111.769 227.173 112.196 227.264 112.74 227.36C113.412 227.488 113.95 227.616 114.356 227.744C114.761 227.872 115.108 228.091 115.396 228.4C115.684 228.709 115.828 229.136 115.828 229.68C115.828 230.416 115.518 231.003 114.9 231.44C114.292 231.867 113.444 232.08 112.356 232.08ZM122.264 223.52C123.053 223.52 123.768 223.701 124.408 224.064C125.048 224.416 125.549 224.917 125.912 225.568C126.274 226.219 126.456 226.96 126.456 227.792C126.456 228.635 126.274 229.381 125.912 230.032C125.549 230.683 125.048 231.189 124.408 231.552C123.778 231.904 123.064 232.08 122.264 232.08C121.581 232.08 120.962 231.941 120.408 231.664C119.864 231.376 119.416 230.96 119.064 230.416V235.104H117.928V223.584H119.016V225.248C119.357 224.693 119.805 224.267 120.36 223.968C120.925 223.669 121.56 223.52 122.264 223.52ZM122.184 231.072C122.77 231.072 123.304 230.939 123.784 230.672C124.264 230.395 124.637 230.005 124.904 229.504C125.181 229.003 125.32 228.432 125.32 227.792C125.32 227.152 125.181 226.587 124.904 226.096C124.637 225.595 124.264 225.205 123.784 224.928C123.304 224.651 122.77 224.512 122.184 224.512C121.586 224.512 121.048 224.651 120.568 224.928C120.098 225.205 119.725 225.595 119.448 226.096C119.181 226.587 119.048 227.152 119.048 227.792C119.048 228.432 119.181 229.003 119.448 229.504C119.725 230.005 120.098 230.395 120.568 230.672C121.048 230.939 121.586 231.072 122.184 231.072ZM128.772 220.128H129.908V232H128.772V220.128ZM136.012 223.52C137.111 223.52 137.954 223.797 138.54 224.352C139.127 224.896 139.42 225.707 139.42 226.784V232H138.332V230.688C138.076 231.125 137.698 231.467 137.196 231.712C136.706 231.957 136.119 232.08 135.436 232.08C134.498 232.08 133.751 231.856 133.196 231.408C132.642 230.96 132.364 230.368 132.364 229.632C132.364 228.917 132.62 228.341 133.132 227.904C133.655 227.467 134.482 227.248 135.612 227.248H138.284V226.736C138.284 226.011 138.082 225.461 137.676 225.088C137.271 224.704 136.679 224.512 135.9 224.512C135.367 224.512 134.855 224.603 134.364 224.784C133.874 224.955 133.452 225.195 133.1 225.504L132.588 224.656C133.015 224.293 133.527 224.016 134.124 223.824C134.722 223.621 135.351 223.52 136.012 223.52ZM135.612 231.184C136.252 231.184 136.802 231.04 137.26 230.752C137.719 230.453 138.06 230.027 138.284 229.472V228.096H135.644C134.204 228.096 133.484 228.597 133.484 229.6C133.484 230.091 133.671 230.48 134.044 230.768C134.418 231.045 134.94 231.184 135.612 231.184ZM149.422 223.584L145.214 233.008C144.872 233.797 144.478 234.357 144.03 234.688C143.582 235.019 143.043 235.184 142.414 235.184C142.008 235.184 141.63 235.12 141.278 234.992C140.926 234.864 140.622 234.672 140.366 234.416L140.894 233.568C141.32 233.995 141.832 234.208 142.43 234.208C142.814 234.208 143.139 234.101 143.406 233.888C143.683 233.675 143.939 233.312 144.174 232.8L144.542 231.984L140.782 223.584H141.966L145.134 230.736L148.302 223.584H149.422ZM162.889 220.128V232H161.801V230.336C161.46 230.901 161.006 231.333 160.441 231.632C159.886 231.931 159.257 232.08 158.553 232.08C157.764 232.08 157.049 231.899 156.409 231.536C155.769 231.173 155.268 230.667 154.905 230.016C154.542 229.365 154.361 228.624 154.361 227.792C154.361 226.96 154.542 226.219 154.905 225.568C155.268 224.917 155.769 224.416 156.409 224.064C157.049 223.701 157.764 223.52 158.553 223.52C159.236 223.52 159.849 223.664 160.393 223.952C160.948 224.229 161.401 224.64 161.753 225.184V220.128H162.889ZM158.649 231.072C159.236 231.072 159.764 230.939 160.233 230.672C160.713 230.395 161.086 230.005 161.353 229.504C161.63 229.003 161.769 228.432 161.769 227.792C161.769 227.152 161.63 226.581 161.353 226.08C161.086 225.579 160.713 225.195 160.233 224.928C159.764 224.651 159.236 224.512 158.649 224.512C158.052 224.512 157.513 224.651 157.033 224.928C156.564 225.195 156.19 225.579 155.913 226.08C155.646 226.581 155.513 227.152 155.513 227.792C155.513 228.432 155.646 229.003 155.913 229.504C156.19 230.005 156.564 230.395 157.033 230.672C157.513 230.939 158.052 231.072 158.649 231.072ZM168.997 223.52C170.095 223.52 170.938 223.797 171.525 224.352C172.111 224.896 172.405 225.707 172.405 226.784V232H171.317V230.688C171.061 231.125 170.682 231.467 170.181 231.712C169.69 231.957 169.103 232.08 168.421 232.08C167.482 232.08 166.735 231.856 166.181 231.408C165.626 230.96 165.349 230.368 165.349 229.632C165.349 228.917 165.605 228.341 166.117 227.904C166.639 227.467 167.466 227.248 168.597 227.248H171.269V226.736C171.269 226.011 171.066 225.461 170.661 225.088C170.255 224.704 169.663 224.512 168.885 224.512C168.351 224.512 167.839 224.603 167.349 224.784C166.858 224.955 166.437 225.195 166.085 225.504L165.573 224.656C165.999 224.293 166.511 224.016 167.109 223.824C167.706 223.621 168.335 223.52 168.997 223.52ZM168.597 231.184C169.237 231.184 169.786 231.04 170.245 230.752C170.703 230.453 171.045 230.027 171.269 229.472V228.096H168.629C167.189 228.096 166.469 228.597 166.469 229.6C166.469 230.091 166.655 230.48 167.029 230.768C167.402 231.045 167.925 231.184 168.597 231.184ZM179.922 231.488C179.709 231.68 179.442 231.829 179.122 231.936C178.813 232.032 178.488 232.08 178.146 232.08C177.357 232.08 176.749 231.867 176.322 231.44C175.896 231.013 175.682 230.411 175.682 229.632V224.544H174.178V223.584H175.682V221.744H176.818V223.584H179.378V224.544H176.818V229.568C176.818 230.069 176.941 230.453 177.186 230.72C177.442 230.976 177.805 231.104 178.274 231.104C178.509 231.104 178.733 231.067 178.946 230.992C179.17 230.917 179.362 230.811 179.522 230.672L179.922 231.488ZM184.934 223.52C186.033 223.52 186.876 223.797 187.462 224.352C188.049 224.896 188.342 225.707 188.342 226.784V232H187.254V230.688C186.998 231.125 186.62 231.467 186.118 231.712C185.628 231.957 185.041 232.08 184.358 232.08C183.42 232.08 182.673 231.856 182.118 231.408C181.564 230.96 181.286 230.368 181.286 229.632C181.286 228.917 181.542 228.341 182.054 227.904C182.577 227.467 183.404 227.248 184.534 227.248H187.206V226.736C187.206 226.011 187.004 225.461 186.598 225.088C186.193 224.704 185.601 224.512 184.822 224.512C184.289 224.512 183.777 224.603 183.286 224.784C182.796 224.955 182.374 225.195 182.022 225.504L181.51 224.656C181.937 224.293 182.449 224.016 183.046 223.824C183.644 223.621 184.273 223.52 184.934 223.52ZM184.534 231.184C185.174 231.184 185.724 231.04 186.182 230.752C186.641 230.453 186.982 230.027 187.206 229.472V228.096H184.566C183.126 228.096 182.406 228.597 182.406 229.6C182.406 230.091 182.593 230.48 182.966 230.768C183.34 231.045 183.862 231.184 184.534 231.184ZM200.047 231.488C199.834 231.68 199.567 231.829 199.247 231.936C198.938 232.032 198.613 232.08 198.271 232.08C197.482 232.08 196.874 231.867 196.447 231.44C196.021 231.013 195.807 230.411 195.807 229.632V224.544H194.303V223.584H195.807V221.744H196.943V223.584H199.503V224.544H196.943V229.568C196.943 230.069 197.066 230.453 197.311 230.72C197.567 230.976 197.93 231.104 198.399 231.104C198.634 231.104 198.858 231.067 199.071 230.992C199.295 230.917 199.487 230.811 199.647 230.672L200.047 231.488ZM205.258 232.08C204.448 232.08 203.717 231.899 203.066 231.536C202.416 231.163 201.904 230.651 201.53 230C201.157 229.349 200.97 228.613 200.97 227.792C200.97 226.971 201.157 226.235 201.53 225.584C201.904 224.933 202.416 224.427 203.066 224.064C203.717 223.701 204.448 223.52 205.258 223.52C206.069 223.52 206.8 223.701 207.45 224.064C208.101 224.427 208.608 224.933 208.97 225.584C209.344 226.235 209.53 226.971 209.53 227.792C209.53 228.613 209.344 229.349 208.97 230C208.608 230.651 208.101 231.163 207.45 231.536C206.8 231.899 206.069 232.08 205.258 232.08ZM205.258 231.072C205.856 231.072 206.389 230.939 206.858 230.672C207.338 230.395 207.712 230.005 207.978 229.504C208.245 229.003 208.378 228.432 208.378 227.792C208.378 227.152 208.245 226.581 207.978 226.08C207.712 225.579 207.338 225.195 206.858 224.928C206.389 224.651 205.856 224.512 205.258 224.512C204.661 224.512 204.122 224.651 203.642 224.928C203.173 225.195 202.8 225.579 202.522 226.08C202.256 226.581 202.122 227.152 202.122 227.792C202.122 228.432 202.256 229.003 202.522 229.504C202.8 230.005 203.173 230.395 203.642 230.672C204.122 230.939 204.661 231.072 205.258 231.072ZM95.528 243.52C96.6267 243.52 97.4693 243.797 98.056 244.352C98.6427 244.896 98.936 245.707 98.936 246.784V252H97.848V250.688C97.592 251.125 97.2133 251.467 96.712 251.712C96.2213 251.957 95.6347 252.08 94.952 252.08C94.0133 252.08 93.2667 251.856 92.712 251.408C92.1573 250.96 91.88 250.368 91.88 249.632C91.88 248.917 92.136 248.341 92.648 247.904C93.1707 247.467 93.9973 247.248 95.128 247.248H97.8V246.736C97.8 246.011 97.5973 245.461 97.192 245.088C96.7867 244.704 96.1947 244.512 95.416 244.512C94.8827 244.512 94.3707 244.603 93.88 244.784C93.3893 244.955 92.968 245.195 92.616 245.504L92.104 244.656C92.5307 244.293 93.0427 244.016 93.64 243.824C94.2373 243.621 94.8667 243.52 95.528 243.52ZM95.128 251.184C95.768 251.184 96.3173 251.04 96.776 250.752C97.2347 250.453 97.576 250.027 97.8 249.472V248.096H95.16C93.72 248.096 93 248.597 93 249.6C93 250.091 93.1867 250.48 93.56 250.768C93.9333 251.045 94.456 251.184 95.128 251.184ZM109.606 243.584V252H108.517V250.464C108.219 250.976 107.808 251.376 107.286 251.664C106.763 251.941 106.166 252.08 105.494 252.08C104.395 252.08 103.526 251.776 102.886 251.168C102.256 250.549 101.942 249.648 101.942 248.464V243.584H103.078V248.352C103.078 249.237 103.296 249.909 103.734 250.368C104.171 250.827 104.795 251.056 105.606 251.056C106.491 251.056 107.19 250.789 107.702 250.256C108.214 249.712 108.47 248.96 108.47 248V243.584H109.606ZM117.219 251.488C117.006 251.68 116.739 251.829 116.419 251.936C116.11 252.032 115.784 252.08 115.443 252.08C114.654 252.08 114.046 251.867 113.619 251.44C113.192 251.013 112.979 250.411 112.979 249.632V244.544H111.475V243.584H112.979V241.744H114.115V243.584H116.675V244.544H114.115V249.568C114.115 250.069 114.238 250.453 114.483 250.72C114.739 250.976 115.102 251.104 115.571 251.104C115.806 251.104 116.03 251.067 116.243 250.992C116.467 250.917 116.659 250.811 116.819 250.672L117.219 251.488ZM123.575 243.52C124.631 243.52 125.468 243.829 126.087 244.448C126.716 245.056 127.031 245.947 127.031 247.12V252H125.895V247.232C125.895 246.357 125.676 245.691 125.239 245.232C124.802 244.773 124.178 244.544 123.367 244.544C122.46 244.544 121.74 244.816 121.207 245.36C120.684 245.893 120.423 246.635 120.423 247.584V252H119.287V240.128H120.423V245.056C120.732 244.565 121.159 244.187 121.703 243.92C122.247 243.653 122.871 243.52 123.575 243.52ZM137.475 248.144H130.435C130.499 249.019 130.835 249.728 131.443 250.272C132.051 250.805 132.819 251.072 133.747 251.072C134.269 251.072 134.749 250.981 135.187 250.8C135.624 250.608 136.003 250.331 136.323 249.968L136.963 250.704C136.589 251.152 136.12 251.493 135.555 251.728C135 251.963 134.387 252.08 133.715 252.08C132.851 252.08 132.083 251.899 131.411 251.536C130.749 251.163 130.232 250.651 129.859 250C129.485 249.349 129.299 248.613 129.299 247.792C129.299 246.971 129.475 246.235 129.827 245.584C130.189 244.933 130.68 244.427 131.299 244.064C131.928 243.701 132.632 243.52 133.411 243.52C134.189 243.52 134.888 243.701 135.507 244.064C136.125 244.427 136.611 244.933 136.963 245.584C137.315 246.224 137.491 246.96 137.491 247.792L137.475 248.144ZM133.411 244.496C132.6 244.496 131.917 244.757 131.363 245.28C130.819 245.792 130.509 246.464 130.435 247.296H136.403C136.328 246.464 136.013 245.792 135.459 245.28C134.915 244.757 134.232 244.496 133.411 244.496ZM144.091 243.52C145.147 243.52 145.984 243.829 146.603 244.448C147.232 245.056 147.547 245.947 147.547 247.12V252H146.411V247.232C146.411 246.357 146.192 245.691 145.755 245.232C145.317 244.773 144.693 244.544 143.883 244.544C142.976 244.544 142.256 244.816 141.723 245.36C141.2 245.893 140.939 246.635 140.939 247.584V252H139.803V243.584H140.891V245.136C141.2 244.624 141.627 244.229 142.171 243.952C142.725 243.664 143.365 243.52 144.091 243.52ZM155.063 251.488C154.85 251.68 154.583 251.829 154.263 251.936C153.954 252.032 153.628 252.08 153.287 252.08C152.498 252.08 151.89 251.867 151.463 251.44C151.036 251.013 150.823 250.411 150.823 249.632V244.544H149.319V243.584H150.823V241.744H151.959V243.584H154.519V244.544H151.959V249.568C151.959 250.069 152.082 250.453 152.327 250.72C152.583 250.976 152.946 251.104 153.415 251.104C153.65 251.104 153.874 251.067 154.087 250.992C154.311 250.917 154.503 250.811 154.663 250.672L155.063 251.488ZM157.131 243.584H158.267V252H157.131V243.584ZM157.707 241.744C157.472 241.744 157.275 241.664 157.115 241.504C156.955 241.344 156.875 241.152 156.875 240.928C156.875 240.715 156.955 240.528 157.115 240.368C157.275 240.208 157.472 240.128 157.707 240.128C157.942 240.128 158.139 240.208 158.299 240.368C158.459 240.517 158.539 240.699 158.539 240.912C158.539 241.147 158.459 241.344 158.299 241.504C158.139 241.664 157.942 241.744 157.707 241.744ZM164.916 252.08C164.084 252.08 163.337 251.899 162.676 251.536C162.025 251.173 161.513 250.667 161.14 250.016C160.766 249.355 160.58 248.613 160.58 247.792C160.58 246.971 160.766 246.235 161.14 245.584C161.513 244.933 162.025 244.427 162.676 244.064C163.337 243.701 164.084 243.52 164.916 243.52C165.641 243.52 166.286 243.664 166.852 243.952C167.428 244.229 167.881 244.64 168.212 245.184L167.364 245.76C167.086 245.344 166.734 245.035 166.308 244.832C165.881 244.619 165.417 244.512 164.916 244.512C164.308 244.512 163.758 244.651 163.268 244.928C162.788 245.195 162.409 245.579 162.132 246.08C161.865 246.581 161.732 247.152 161.732 247.792C161.732 248.443 161.865 249.019 162.132 249.52C162.409 250.011 162.788 250.395 163.268 250.672C163.758 250.939 164.308 251.072 164.916 251.072C165.417 251.072 165.881 250.971 166.308 250.768C166.734 250.565 167.086 250.256 167.364 249.84L168.212 250.416C167.881 250.96 167.428 251.376 166.852 251.664C166.276 251.941 165.63 252.08 164.916 252.08ZM173.387 243.52C174.486 243.52 175.329 243.797 175.915 244.352C176.502 244.896 176.795 245.707 176.795 246.784V252H175.707V250.688C175.451 251.125 175.073 251.467 174.571 251.712C174.081 251.957 173.494 252.08 172.811 252.08C171.873 252.08 171.126 251.856 170.571 251.408C170.017 250.96 169.739 250.368 169.739 249.632C169.739 248.917 169.995 248.341 170.507 247.904C171.03 247.467 171.857 247.248 172.987 247.248H175.659V246.736C175.659 246.011 175.457 245.461 175.051 245.088C174.646 244.704 174.054 244.512 173.275 244.512C172.742 244.512 172.23 244.603 171.739 244.784C171.249 244.955 170.827 245.195 170.475 245.504L169.963 244.656C170.39 244.293 170.902 244.016 171.499 243.824C172.097 243.621 172.726 243.52 173.387 243.52ZM172.987 251.184C173.627 251.184 174.177 251.04 174.635 250.752C175.094 250.453 175.435 250.027 175.659 249.472V248.096H173.019C171.579 248.096 170.859 248.597 170.859 249.6C170.859 250.091 171.046 250.48 171.419 250.768C171.793 251.045 172.315 251.184 172.987 251.184ZM184.313 251.488C184.1 251.68 183.833 251.829 183.513 251.936C183.204 252.032 182.878 252.08 182.537 252.08C181.748 252.08 181.14 251.867 180.713 251.44C180.286 251.013 180.073 250.411 180.073 249.632V244.544H178.569V243.584H180.073V241.744H181.209V243.584H183.769V244.544H181.209V249.568C181.209 250.069 181.332 250.453 181.577 250.72C181.833 250.976 182.196 251.104 182.665 251.104C182.9 251.104 183.124 251.067 183.337 250.992C183.561 250.917 183.753 250.811 183.913 250.672L184.313 251.488ZM193.412 248.144H186.372C186.436 249.019 186.772 249.728 187.38 250.272C187.988 250.805 188.756 251.072 189.684 251.072C190.207 251.072 190.687 250.981 191.124 250.8C191.561 250.608 191.94 250.331 192.26 249.968L192.9 250.704C192.527 251.152 192.057 251.493 191.492 251.728C190.937 251.963 190.324 252.08 189.652 252.08C188.788 252.08 188.02 251.899 187.348 251.536C186.687 251.163 186.169 250.651 185.796 250C185.423 249.349 185.236 248.613 185.236 247.792C185.236 246.971 185.412 246.235 185.764 245.584C186.127 244.933 186.617 244.427 187.236 244.064C187.865 243.701 188.569 243.52 189.348 243.52C190.127 243.52 190.825 243.701 191.444 244.064C192.063 244.427 192.548 244.933 192.9 245.584C193.252 246.224 193.428 246.96 193.428 247.792L193.412 248.144ZM189.348 244.496C188.537 244.496 187.855 244.757 187.3 245.28C186.756 245.792 186.447 246.464 186.372 247.296H192.34C192.265 246.464 191.951 245.792 191.396 245.28C190.852 244.757 190.169 244.496 189.348 244.496ZM203.42 240.128V252H202.332V250.336C201.991 250.901 201.538 251.333 200.972 251.632C200.418 251.931 199.788 252.08 199.084 252.08C198.295 252.08 197.58 251.899 196.94 251.536C196.3 251.173 195.799 250.667 195.436 250.016C195.074 249.365 194.892 248.624 194.892 247.792C194.892 246.96 195.074 246.219 195.436 245.568C195.799 244.917 196.3 244.416 196.94 244.064C197.58 243.701 198.295 243.52 199.084 243.52C199.767 243.52 200.38 243.664 200.924 243.952C201.479 244.229 201.932 244.64 202.284 245.184V240.128H203.42ZM199.18 251.072C199.767 251.072 200.295 250.939 200.764 250.672C201.244 250.395 201.618 250.005 201.884 249.504C202.162 249.003 202.3 248.432 202.3 247.792C202.3 247.152 202.162 246.581 201.884 246.08C201.618 245.579 201.244 245.195 200.764 244.928C200.295 244.651 199.767 244.512 199.18 244.512C198.583 244.512 198.044 244.651 197.564 244.928C197.095 245.195 196.722 245.579 196.444 246.08C196.178 246.581 196.044 247.152 196.044 247.792C196.044 248.432 196.178 249.003 196.444 249.504C196.722 250.005 197.095 250.395 197.564 250.672C198.044 250.939 198.583 251.072 199.18 251.072ZM218.1 248.144H211.06C211.124 249.019 211.46 249.728 212.068 250.272C212.676 250.805 213.444 251.072 214.372 251.072C214.894 251.072 215.374 250.981 215.812 250.8C216.249 250.608 216.628 250.331 216.948 249.968L217.588 250.704C217.214 251.152 216.745 251.493 216.18 251.728C215.625 251.963 215.012 252.08 214.34 252.08C213.476 252.08 212.708 251.899 212.036 251.536C211.374 251.163 210.857 250.651 210.484 250C210.11 249.349 209.924 248.613 209.924 247.792C209.924 246.971 210.1 246.235 210.452 245.584C210.814 244.933 211.305 244.427 211.924 244.064C212.553 243.701 213.257 243.52 214.036 243.52C214.814 243.52 215.513 243.701 216.132 244.064C216.75 244.427 217.236 244.933 217.588 245.584C217.94 246.224 218.116 246.96 218.116 247.792L218.1 248.144ZM214.036 244.496C213.225 244.496 212.542 244.757 211.988 245.28C211.444 245.792 211.134 246.464 211.06 247.296H217.028C216.953 246.464 216.638 245.792 216.084 245.28C215.54 244.757 214.857 244.496 214.036 244.496ZM224.716 243.52C225.772 243.52 226.609 243.829 227.228 244.448C227.857 245.056 228.172 245.947 228.172 247.12V252H227.036V247.232C227.036 246.357 226.817 245.691 226.38 245.232C225.942 244.773 225.318 244.544 224.508 244.544C223.601 244.544 222.881 244.816 222.348 245.36C221.825 245.893 221.564 246.635 221.564 247.584V252H220.428V243.584H221.516V245.136C221.825 244.624 222.252 244.229 222.796 243.952C223.35 243.664 223.99 243.52 224.716 243.52ZM238.967 240.128V252H237.879V250.336C237.538 250.901 237.084 251.333 236.519 251.632C235.964 251.931 235.335 252.08 234.631 252.08C233.842 252.08 233.127 251.899 232.487 251.536C231.847 251.173 231.346 250.667 230.983 250.016C230.62 249.365 230.439 248.624 230.439 247.792C230.439 246.96 230.62 246.219 230.983 245.568C231.346 244.917 231.847 244.416 232.487 244.064C233.127 243.701 233.842 243.52 234.631 243.52C235.314 243.52 235.927 243.664 236.471 243.952C237.026 244.229 237.479 244.64 237.831 245.184V240.128H238.967ZM234.727 251.072C235.314 251.072 235.842 250.939 236.311 250.672C236.791 250.395 237.164 250.005 237.431 249.504C237.708 249.003 237.847 248.432 237.847 247.792C237.847 247.152 237.708 246.581 237.431 246.08C237.164 245.579 236.791 245.195 236.311 244.928C235.842 244.651 235.314 244.512 234.727 244.512C234.13 244.512 233.591 244.651 233.111 244.928C232.642 245.195 232.268 245.579 231.991 246.08C231.724 246.581 231.591 247.152 231.591 247.792C231.591 248.432 231.724 249.003 231.991 249.504C232.268 250.005 232.642 250.395 233.111 250.672C233.591 250.939 234.13 251.072 234.727 251.072ZM253.902 243.584V252H252.814V250.464C252.516 250.976 252.105 251.376 251.582 251.664C251.06 251.941 250.462 252.08 249.79 252.08C248.692 252.08 247.822 251.776 247.182 251.168C246.553 250.549 246.238 249.648 246.238 248.464V243.584H247.374V248.352C247.374 249.237 247.593 249.909 248.03 250.368C248.468 250.827 249.092 251.056 249.902 251.056C250.788 251.056 251.486 250.789 251.998 250.256C252.51 249.712 252.766 248.96 252.766 248V243.584H253.902ZM259.34 252.08C258.657 252.08 258.001 251.984 257.372 251.792C256.753 251.589 256.268 251.339 255.916 251.04L256.428 250.144C256.78 250.421 257.223 250.651 257.756 250.832C258.289 251.003 258.844 251.088 259.42 251.088C260.188 251.088 260.753 250.971 261.116 250.736C261.489 250.491 261.676 250.149 261.676 249.712C261.676 249.403 261.575 249.163 261.372 248.992C261.169 248.811 260.913 248.677 260.604 248.592C260.295 248.496 259.884 248.405 259.372 248.32C258.689 248.192 258.14 248.064 257.724 247.936C257.308 247.797 256.951 247.568 256.652 247.248C256.364 246.928 256.22 246.485 256.22 245.92C256.22 245.216 256.513 244.64 257.1 244.192C257.687 243.744 258.503 243.52 259.548 243.52C260.092 243.52 260.636 243.595 261.18 243.744C261.724 243.883 262.172 244.069 262.524 244.304L262.028 245.216C261.335 244.736 260.508 244.496 259.548 244.496C258.823 244.496 258.273 244.624 257.9 244.88C257.537 245.136 257.356 245.472 257.356 245.888C257.356 246.208 257.457 246.464 257.66 246.656C257.873 246.848 258.135 246.992 258.444 247.088C258.753 247.173 259.18 247.264 259.724 247.36C260.396 247.488 260.935 247.616 261.34 247.744C261.745 247.872 262.092 248.091 262.38 248.4C262.668 248.709 262.812 249.136 262.812 249.68C262.812 250.416 262.503 251.003 261.884 251.44C261.276 251.867 260.428 252.08 259.34 252.08ZM272.24 248.144H265.2C265.264 249.019 265.6 249.728 266.208 250.272C266.816 250.805 267.584 251.072 268.512 251.072C269.035 251.072 269.515 250.981 269.952 250.8C270.389 250.608 270.768 250.331 271.088 249.968L271.728 250.704C271.355 251.152 270.885 251.493 270.32 251.728C269.765 251.963 269.152 252.08 268.48 252.08C267.616 252.08 266.848 251.899 266.176 251.536C265.515 251.163 264.997 250.651 264.624 250C264.251 249.349 264.064 248.613 264.064 247.792C264.064 246.971 264.24 246.235 264.592 245.584C264.955 244.933 265.445 244.427 266.064 244.064C266.693 243.701 267.397 243.52 268.176 243.52C268.955 243.52 269.653 243.701 270.272 244.064C270.891 244.427 271.376 244.933 271.728 245.584C272.08 246.224 272.256 246.96 272.256 247.792L272.24 248.144ZM268.176 244.496C267.365 244.496 266.683 244.757 266.128 245.28C265.584 245.792 265.275 246.464 265.2 247.296H271.168C271.093 246.464 270.779 245.792 270.224 245.28C269.68 244.757 268.997 244.496 268.176 244.496ZM275.656 245.232C275.923 244.667 276.318 244.24 276.84 243.952C277.374 243.664 278.03 243.52 278.808 243.52V244.624L278.536 244.608C277.651 244.608 276.958 244.88 276.456 245.424C275.955 245.968 275.704 246.731 275.704 247.712V252H274.568V243.584H275.656V245.232ZM283.184 252.08C282.501 252.08 281.845 251.984 281.216 251.792C280.597 251.589 280.112 251.339 279.76 251.04L280.272 250.144C280.624 250.421 281.066 250.651 281.6 250.832C282.133 251.003 282.688 251.088 283.264 251.088C284.032 251.088 284.597 250.971 284.96 250.736C285.333 250.491 285.52 250.149 285.52 249.712C285.52 249.403 285.418 249.163 285.216 248.992C285.013 248.811 284.757 248.677 284.448 248.592C284.138 248.496 283.728 248.405 283.216 248.32C282.533 248.192 281.984 248.064 281.568 247.936C281.152 247.797 280.794 247.568 280.496 247.248C280.208 246.928 280.064 246.485 280.064 245.92C280.064 245.216 280.357 244.64 280.944 244.192C281.53 243.744 282.346 243.52 283.392 243.52C283.936 243.52 284.48 243.595 285.024 243.744C285.568 243.883 286.016 244.069 286.368 244.304L285.872 245.216C285.178 244.736 284.352 244.496 283.392 244.496C282.666 244.496 282.117 244.624 281.744 244.88C281.381 245.136 281.2 245.472 281.2 245.888C281.2 246.208 281.301 246.464 281.504 246.656C281.717 246.848 281.978 246.992 282.288 247.088C282.597 247.173 283.024 247.264 283.568 247.36C284.24 247.488 284.778 247.616 285.184 247.744C285.589 247.872 285.936 248.091 286.224 248.4C286.512 248.709 286.656 249.136 286.656 249.68C286.656 250.416 286.346 251.003 285.728 251.44C285.12 251.867 284.272 252.08 283.184 252.08Z" fill="black"/>
<path d="M91 95C91 83.9543 99.9543 75 111 75H280C291.046 75 300 83.9543 300 95V175C300 186.046 291.046 195 280 195H111C99.9543 195 91 186.046 91 175V95Z" fill="#3FE7E7"/>
<path d="M181.438 142.24C180.011 142.24 178.718 141.933 177.558 141.32C176.411 140.693 175.505 139.833 174.838 138.74C174.185 137.633 173.858 136.387 173.858 135C173.858 133.613 174.185 132.373 174.838 131.28C175.505 130.173 176.411 129.313 177.558 128.7C178.718 128.073 180.018 127.76 181.458 127.76C182.671 127.76 183.765 127.973 184.738 128.4C185.725 128.827 186.551 129.44 187.218 130.24L185.138 132.16C184.191 131.067 183.018 130.52 181.618 130.52C180.751 130.52 179.978 130.713 179.298 131.1C178.618 131.473 178.085 132 177.698 132.68C177.325 133.36 177.138 134.133 177.138 135C177.138 135.867 177.325 136.64 177.698 137.32C178.085 138 178.618 138.533 179.298 138.92C179.978 139.293 180.751 139.48 181.618 139.48C183.018 139.48 184.191 138.927 185.138 137.82L187.218 139.74C186.551 140.553 185.725 141.173 184.738 141.6C183.751 142.027 182.651 142.24 181.438 142.24ZM189.186 127.16H192.306V142H189.186V127.16ZM195.202 131.24H198.322V142H195.202V131.24ZM196.762 129.74C196.188 129.74 195.722 129.573 195.362 129.24C195.002 128.907 194.822 128.493 194.822 128C194.822 127.507 195.002 127.093 195.362 126.76C195.722 126.427 196.188 126.26 196.762 126.26C197.335 126.26 197.802 126.42 198.162 126.74C198.522 127.06 198.702 127.46 198.702 127.94C198.702 128.46 198.522 128.893 198.162 129.24C197.802 129.573 197.335 129.74 196.762 129.74ZM211.757 136.66C211.757 136.7 211.737 136.98 211.697 137.5H203.557C203.704 138.167 204.051 138.693 204.597 139.08C205.144 139.467 205.824 139.66 206.637 139.66C207.197 139.66 207.691 139.58 208.117 139.42C208.557 139.247 208.964 138.98 209.337 138.62L210.997 140.42C209.984 141.58 208.504 142.16 206.557 142.16C205.344 142.16 204.271 141.927 203.337 141.46C202.404 140.98 201.684 140.32 201.177 139.48C200.671 138.64 200.417 137.687 200.417 136.62C200.417 135.567 200.664 134.62 201.157 133.78C201.664 132.927 202.351 132.267 203.217 131.8C204.097 131.32 205.077 131.08 206.157 131.08C207.211 131.08 208.164 131.307 209.017 131.76C209.871 132.213 210.537 132.867 211.017 133.72C211.511 134.56 211.757 135.54 211.757 136.66ZM206.177 133.44C205.471 133.44 204.877 133.64 204.397 134.04C203.917 134.44 203.624 134.987 203.517 135.68H208.817C208.711 135 208.417 134.46 207.937 134.06C207.457 133.647 206.871 133.44 206.177 133.44ZM220.375 131.08C221.708 131.08 222.781 131.48 223.595 132.28C224.421 133.08 224.835 134.267 224.835 135.84V142H221.715V136.32C221.715 135.467 221.528 134.833 221.155 134.42C220.781 133.993 220.241 133.78 219.535 133.78C218.748 133.78 218.121 134.027 217.655 134.52C217.188 135 216.955 135.72 216.955 136.68V142H213.835V131.24H216.815V132.5C217.228 132.047 217.741 131.7 218.355 131.46C218.968 131.207 219.641 131.08 220.375 131.08ZM234.603 141.48C234.296 141.707 233.916 141.88 233.463 142C233.023 142.107 232.556 142.16 232.063 142.16C230.783 142.16 229.789 141.833 229.083 141.18C228.389 140.527 228.043 139.567 228.043 138.3V133.88H226.383V131.48H228.043V128.86H231.163V131.48H233.843V133.88H231.163V138.26C231.163 138.713 231.276 139.067 231.503 139.32C231.743 139.56 232.076 139.68 232.503 139.68C232.996 139.68 233.416 139.547 233.763 139.28L234.603 141.48Z" fill="black"/>
<path d="M160 127H144C142.9 127 142.01 127.9 142.01 129L142 141C142 142.1 142.9 143 144 143H160C161.1 143 162 142.1 162 141V129C162 127.9 161.1 127 160 127ZM155 141H144V137H155V141ZM155 136H144V132H155V136ZM160 141H156V132H160V141Z" fill="black"/>
</svg>
