<svg width="44" height="40" viewBox="0 0 44 40" fill="none" xmlns="http://www.w3.org/2000/svg">
<path fill-rule="evenodd" clip-rule="evenodd" d="M2.175 0.25H41.775C42.855 0.25 43.575 0.97 43.575 2.05V32.575C43.575 33.655 42.855 34.375 41.775 34.375H13.5L6.9375 39.625V34.375H2.175C1.095 34.375 0.375 33.655 0.375 32.575V2.05C0.375 0.97 1.095 0.25 2.175 0.25ZM30.1909 12.3099C31.3286 11.1722 31.3286 9.32767 30.1909 8.18999C29.0532 7.05231 27.2086 7.05231 26.071 8.18999L25.0643 9.19665L29.1842 13.3166L30.1909 12.3099ZM12.178 22.0829L24.3516 9.90933L28.4715 14.0292L16.2979 26.2029L11.4407 26.9402L12.178 22.0829Z" fill="#12D6D6"/>
</svg>
