<svg width="60" height="60" viewBox="0 0 60 60" fill="none" xmlns="http://www.w3.org/2000/svg">
<path fill-rule="evenodd" clip-rule="evenodd" d="M11.175 11.25H50.775C51.855 11.25 52.575 11.97 52.575 13.05V43.575C52.575 44.655 51.855 45.375 50.775 45.375H22.5L15.9375 50.625V45.375H11.175C10.095 45.375 9.375 44.655 9.375 43.575V13.05C9.375 11.97 10.095 11.25 11.175 11.25ZM39.1909 23.3099C40.3286 22.1722 40.3286 20.3277 39.1909 19.19C38.0532 18.0523 36.2086 18.0523 35.071 19.19L34.0643 20.1967L38.1842 24.3166L39.1909 23.3099ZM21.178 33.0829L33.3516 20.9093L37.4715 25.0292L25.2979 37.2029L20.4407 37.9402L21.178 33.0829Z" fill="#12D6D6"/>
</svg>
