<svg width="132" height="30" viewBox="0 0 132 30" fill="none" xmlns="http://www.w3.org/2000/svg">
<path d="M38.2185 11.2643C38.282 11.3278 38.3807 11.3278 38.4425 11.2643L41.6798 8.00267C41.7433 7.93917 41.7433 7.83892 41.6798 7.77543L34.9796 1.02662C34.9177 0.96313 34.8174 0.96313 34.7555 1.02662L31.5183 4.28824C31.4547 4.35174 31.4547 4.45199 31.5183 4.51548L38.2185 11.2643Z" fill="url(#paint0_linear_366_19)"/>
<path d="M55.5247 4.2934L52.2874 1.03345C52.2239 0.969957 52.1252 0.969957 52.0634 1.03345L31.5197 21.7293C31.4561 21.7912 31.4561 21.8931 31.5197 21.9566L34.7552 25.2182C34.8188 25.2817 34.9174 25.2817 34.9793 25.2182L55.523 4.52064C55.5849 4.45714 55.5849 4.35522 55.5247 4.2934Z" fill="url(#paint1_linear_366_19)"/>
<path d="M48.8278 14.9805C48.7643 14.917 48.6656 14.917 48.6038 14.9805L45.3665 18.2421C45.3047 18.3056 45.3047 18.4058 45.3665 18.4693L52.0667 25.2198C52.1286 25.2833 52.2289 25.2833 52.2908 25.2198L55.528 21.9582C55.5916 21.8964 55.5916 21.7944 55.528 21.7309L48.8278 14.9805Z" fill="url(#paint2_linear_366_19)"/>
<path d="M86.9706 1.51621C86.9388 1.48446 86.9003 1.45772 86.8569 1.43934C86.815 1.42096 86.7699 1.41261 86.7231 1.41261H71.7208C71.674 1.41261 71.6288 1.42096 71.587 1.43934C71.5435 1.45772 71.5051 1.48446 71.4733 1.51621C71.4415 1.54795 71.4148 1.58638 71.3981 1.62983C71.3797 1.6716 71.3713 1.71838 71.3713 1.76517V24.4812C71.3713 24.528 71.3797 24.5714 71.3981 24.6148C71.4165 24.6583 71.4415 24.6967 71.4733 24.7285C71.5051 24.7602 71.5435 24.787 71.587 24.8053C71.6288 24.8237 71.674 24.8321 71.7208 24.8321H86.7231C86.7699 24.8321 86.815 24.822 86.8569 24.8053C86.8987 24.787 86.9371 24.7602 86.9706 24.7285C87.0023 24.6967 87.0291 24.6583 87.0458 24.6148C87.0625 24.5731 87.0726 24.5263 87.0726 24.4812V20.5011C87.0726 20.4543 87.0642 20.4108 87.0458 20.3657C87.0274 20.3206 87.004 20.2839 86.9706 20.2521C86.9388 20.2204 86.9003 20.1936 86.8569 20.1752C86.8134 20.1569 86.7699 20.1485 86.7231 20.1485H76.6051V15.4649H86.7231C86.7699 15.4649 86.815 15.4566 86.8569 15.4382C86.8987 15.4198 86.9371 15.3931 86.9706 15.3614C87.0023 15.3296 87.0291 15.2912 87.0458 15.2477C87.0625 15.206 87.0726 15.1592 87.0726 15.1124V11.1323C87.0726 11.0855 87.0642 11.0421 87.0458 10.9969C87.0274 10.9518 87.004 10.9167 86.9706 10.8833C86.9388 10.8516 86.9003 10.8248 86.8569 10.8065C86.815 10.7881 86.7699 10.7797 86.7231 10.7797H76.6051V6.09617H86.7231C86.7699 6.09617 86.815 6.08781 86.8569 6.06943C86.8987 6.05105 86.9371 6.02431 86.9706 5.99257C87.0023 5.96082 87.0291 5.92239 87.0458 5.87895C87.0642 5.83717 87.0726 5.79039 87.0726 5.7436V1.7635C87.0726 1.71671 87.0642 1.67327 87.0458 1.62815C87.0274 1.58471 87.004 1.54795 86.9706 1.51621Z" fill="url(#paint3_linear_366_19)"/>
<path d="M15.3551 1.41261H0.349473C0.302654 1.41261 0.259181 1.42096 0.215705 1.43934C0.173902 1.45772 0.135445 1.48112 0.102002 1.51621C0.071904 1.54628 0.045148 1.58471 0.0267546 1.62983C0.00836123 1.67494 0 1.71671 0 1.7635V5.74528C0 5.83885 0.0367894 5.9274 0.102002 5.99424C0.167215 6.06108 0.255834 6.09783 0.349473 6.09783H10.4692V15.7022C10.4692 15.749 10.4775 15.7925 10.4959 15.8359C10.5143 15.8777 10.5377 15.9161 10.5712 15.9495C10.6029 15.9813 10.6414 16.008 10.6849 16.0264C10.7267 16.0448 10.7718 16.0531 10.8186 16.0531H15.3551C15.4488 16.0531 15.5374 16.0164 15.6026 15.9495C15.6678 15.8827 15.7046 15.7941 15.7046 15.7006V1.7635C15.7046 1.66993 15.6678 1.58137 15.6009 1.51453C15.5324 1.4477 15.4471 1.41261 15.3551 1.41261Z" fill="url(#paint4_linear_366_19)"/>
<path d="M5.07766 10.7798H0.159947C0.0729967 10.7798 0.00276713 10.85 0.00276713 10.9402V24.6734C0.00276713 24.762 0.0729967 24.8338 0.159947 24.8338H5.07599C5.16294 24.8338 5.23317 24.7636 5.23317 24.6734V10.9402C5.23651 10.8517 5.16461 10.7798 5.07766 10.7798Z" fill="url(#paint5_linear_366_19)"/>
<path d="M26.0149 1.41105H21.0989C21.0119 1.41105 20.9417 1.48123 20.9417 1.57146V24.6734C20.9417 24.762 21.0119 24.8339 21.0989 24.8339H26.0149C26.1018 24.8339 26.1721 24.7637 26.1721 24.6734V1.57146C26.1721 1.48457 26.1018 1.41105 26.0149 1.41105Z" fill="url(#paint6_linear_366_19)"/>
<path d="M65.9792 1.41105H61.0632C60.9762 1.41105 60.906 1.48123 60.906 1.57146V24.6734C60.906 24.762 60.9762 24.8339 61.0632 24.8339H65.9792C66.0662 24.8339 66.1364 24.7637 66.1364 24.6734V1.57146C66.1364 1.48457 66.0662 1.41105 65.9792 1.41105Z" fill="url(#paint7_linear_366_19)"/>
<path d="M108.721 11.2643H106.552C106.497 11.2643 106.453 11.3077 106.453 11.3645V25.741C106.453 25.7962 106.497 25.8396 106.552 25.8396H108.721C108.776 25.8396 108.819 25.7962 108.819 25.741V11.3645C108.819 11.3077 108.774 11.2643 108.721 11.2643Z" fill="url(#paint8_linear_366_19)"/>
<path d="M120.214 15.5334C120.172 15.4916 120.118 15.4699 120.06 15.4699H111.984C111.925 15.4699 111.872 15.4916 111.83 15.5334C111.79 15.5751 111.766 15.6303 111.766 15.6888V25.6206C111.766 25.6791 111.79 25.7343 111.83 25.776C111.872 25.8178 111.925 25.8395 111.984 25.8395H120.06C120.118 25.8395 120.172 25.8178 120.214 25.776C120.254 25.7343 120.277 25.6791 120.277 25.6206V15.6888C120.279 15.6303 120.254 15.5751 120.214 15.5334ZM114.144 17.5017H117.903V23.8077H114.144V17.5017Z" fill="url(#paint9_linear_366_19)"/>
<path d="M103.614 15.6539C103.626 15.6807 103.631 15.7091 103.631 15.7375V25.6226C103.631 25.651 103.626 25.6794 103.614 25.7061C103.604 25.7329 103.587 25.7562 103.567 25.7763C103.547 25.798 103.524 25.8131 103.497 25.8248C103.47 25.8365 103.442 25.8415 103.413 25.8415H95.3371C95.2785 25.8415 95.2234 25.8197 95.1832 25.778C95.1414 25.7362 95.1197 25.6811 95.1197 25.6226V11.4884C95.1197 11.4299 95.1414 11.3747 95.1832 11.333C95.2234 11.2912 95.2785 11.2695 95.3371 11.2695H97.2767C97.3052 11.2695 97.3336 11.2745 97.3603 11.2862C97.3871 11.2979 97.4105 11.3146 97.4306 11.3346C97.4506 11.3547 97.4657 11.3781 97.4774 11.4048C97.4891 11.4315 97.4941 11.46 97.4941 11.4884V15.5236H103.412C103.44 15.5236 103.469 15.5286 103.495 15.5403C103.522 15.552 103.546 15.5687 103.566 15.5888C103.586 15.6038 103.602 15.6272 103.614 15.6539ZM101.255 17.5538H97.4941V23.8046H101.255V17.5538Z" fill="url(#paint10_linear_366_19)"/>
<path d="M123.117 25.6156C123.105 25.5889 123.1 25.5605 123.1 25.5321V15.647C123.1 15.6186 123.105 15.5902 123.117 15.5634C123.127 15.5367 123.144 15.5133 123.164 15.4933C123.184 15.4715 123.207 15.4565 123.234 15.4448C123.261 15.4331 123.289 15.4281 123.318 15.4281H131.394C131.453 15.4281 131.508 15.4498 131.548 15.4916C131.59 15.5334 131.611 15.5885 131.611 15.647V29.7812C131.611 29.8397 131.59 29.8948 131.548 29.9366C131.508 29.9784 131.453 30.0001 131.394 30.0001H123.318C123.289 30.0001 123.261 29.9951 123.234 29.9834C123.207 29.9717 123.184 29.955 123.164 29.9349C123.144 29.9149 123.129 29.8915 123.117 29.8647C123.105 29.838 123.1 29.8096 123.1 29.7812V28.6299C123.1 28.5712 123.148 28.5237 123.207 28.5237H129.237V25.7459H123.319C123.291 25.7459 123.263 25.7409 123.236 25.7292C123.209 25.7175 123.186 25.7008 123.166 25.6808C123.146 25.6657 123.129 25.6423 123.117 25.6156ZM125.476 23.7158H129.237V17.4649H125.476V23.7158Z" fill="url(#paint11_linear_366_19)"/>
<defs>
<linearGradient id="paint0_linear_366_19" x1="70.3802" y1="51.7358" x2="13.8001" y2="-5.71344" gradientUnits="userSpaceOnUse">
<stop stop-color="#00DBA6"/>
<stop offset="1" stop-color="#24B2FF"/>
</linearGradient>
<linearGradient id="paint1_linear_366_19" x1="70.3802" y1="51.7358" x2="13.8001" y2="-5.71344" gradientUnits="userSpaceOnUse">
<stop stop-color="#00DBA6"/>
<stop offset="1" stop-color="#24B2FF"/>
</linearGradient>
<linearGradient id="paint2_linear_366_19" x1="70.3802" y1="51.7358" x2="13.8001" y2="-5.71344" gradientUnits="userSpaceOnUse">
<stop stop-color="#00DBA6"/>
<stop offset="1" stop-color="#24B2FF"/>
</linearGradient>
<linearGradient id="paint3_linear_366_19" x1="70.3802" y1="51.7358" x2="13.8001" y2="-5.71344" gradientUnits="userSpaceOnUse">
<stop stop-color="#00DBA6"/>
<stop offset="1" stop-color="#24B2FF"/>
</linearGradient>
<linearGradient id="paint4_linear_366_19" x1="70.3802" y1="51.7358" x2="13.8001" y2="-5.71344" gradientUnits="userSpaceOnUse">
<stop stop-color="#00DBA6"/>
<stop offset="1" stop-color="#24B2FF"/>
</linearGradient>
<linearGradient id="paint5_linear_366_19" x1="70.3802" y1="51.7358" x2="13.8001" y2="-5.71344" gradientUnits="userSpaceOnUse">
<stop stop-color="#00DBA6"/>
<stop offset="1" stop-color="#24B2FF"/>
</linearGradient>
<linearGradient id="paint6_linear_366_19" x1="70.3802" y1="51.7358" x2="13.8001" y2="-5.71344" gradientUnits="userSpaceOnUse">
<stop stop-color="#00DBA6"/>
<stop offset="1" stop-color="#24B2FF"/>
</linearGradient>
<linearGradient id="paint7_linear_366_19" x1="70.3802" y1="51.7358" x2="13.8001" y2="-5.71344" gradientUnits="userSpaceOnUse">
<stop stop-color="#00DBA6"/>
<stop offset="1" stop-color="#24B2FF"/>
</linearGradient>
<linearGradient id="paint8_linear_366_19" x1="70.3802" y1="51.7358" x2="13.8001" y2="-5.71344" gradientUnits="userSpaceOnUse">
<stop stop-color="#00DBA6"/>
<stop offset="1" stop-color="#24B2FF"/>
</linearGradient>
<linearGradient id="paint9_linear_366_19" x1="70.3802" y1="51.7358" x2="13.8001" y2="-5.71344" gradientUnits="userSpaceOnUse">
<stop stop-color="#00DBA6"/>
<stop offset="1" stop-color="#24B2FF"/>
</linearGradient>
<linearGradient id="paint10_linear_366_19" x1="70.3802" y1="51.7358" x2="13.8001" y2="-5.71344" gradientUnits="userSpaceOnUse">
<stop stop-color="#00DBA6"/>
<stop offset="1" stop-color="#24B2FF"/>
</linearGradient>
<linearGradient id="paint11_linear_366_19" x1="70.3802" y1="51.7358" x2="13.8001" y2="-5.71344" gradientUnits="userSpaceOnUse">
<stop stop-color="#00DBA6"/>
<stop offset="1" stop-color="#24B2FF"/>
</linearGradient>
</defs>
</svg>
