<svg xmlns="http://www.w3.org/2000/svg" xmlns:xlink="http://www.w3.org/1999/xlink" xmlns:lucid="lucid" width="540" height="295"><g transform="translate(-60 -80)" lucid:page-tab-id="0_0"><path d="M0 0h1760v1360H0z" fill="#fff"/><path d="M280 137.67c0-3.32 2.7-6 6-6h88c3.3 0 6 2.68 6 6v78c0 3.3-2.7 6-6 6h-88c-3.3 0-6-2.7-6-6z" stroke="#5e5e5e" stroke-width="3" fill="#fff"/><use xlink:href="#a" transform="matrix(1,0,0,1,285,136.66666666666669) translate(21.635802469135804 35.49652777777778)"/><use xlink:href="#b" transform="matrix(1,0,0,1,285,136.66666666666669) translate(22.997530864197525 57.896527777777784)"/><path d="M140 271c0-3.3 2.7-6 6-6h88c3.3 0 6 2.7 6 6v78c0 3.3-2.7 6-6 6h-88c-3.3 0-6-2.7-6-6z" stroke="#5e5e5e" stroke-width="3" fill="#fff"/><use xlink:href="#c" transform="matrix(1,0,0,1,145,270) translate(27.808641975308642 35.27777777777778)"/><use xlink:href="#d" transform="matrix(1,0,0,1,145,270) translate(0.9950617283950507 57.677777777777784)"/><use xlink:href="#e" transform="matrix(1,0,0,1,145,270) translate(49.69135802469136 57.677777777777784)"/><path d="M380 271c0-3.3 2.7-6 6-6h88c3.3 0 6 2.7 6 6v78c0 3.3-2.7 6-6 6h-88c-3.3 0-6-2.7-6-6z" stroke="#5e5e5e" stroke-width="3" fill="#fff"/><use xlink:href="#f" transform="matrix(1,0,0,1,385,270) translate(21.635802469135804 35.49652777777778)"/><use xlink:href="#g" transform="matrix(1,0,0,1,385,270) translate(22.997530864197525 57.896527777777784)"/><path d="M480 271c0-3.3 2.7-6 6-6h88c3.3 0 6 2.7 6 6v78c0 3.3-2.7 6-6 6h-88c-3.3 0-6-2.7-6-6z" stroke="#7ab648" stroke-width="3" fill="#fff"/><use xlink:href="#h" transform="matrix(1,0,0,1,485,270) translate(21.635802469135804 35.49652777777778)"/><use xlink:href="#i" transform="matrix(1,0,0,1,485,270) translate(22.997530864197525 57.896527777777784)"/><path d="M277.9 217.37H196c-3.3 0-6 2.7-6 6V245" stroke="#5e5e5e" stroke-width="2" fill="none"/><path d="M279.18 218.37h-1.3v-2h.76z" fill="#5e5e5e"/><path d="M190 260.26L185.36 246h9.28z" stroke="#5e5e5e" stroke-width="2" fill="#5e5e5e"/><path d="M379.33 221.67h87.32c3.3 0 6 2.68 6 6V245" stroke="#7ab648" stroke-width="2" fill="none"/><path d="M379.36 222.67h-3.3l1.75-.48 1.53-1.53h.03z" fill="#7ab648"/><path d="M472.65 260.26L468 246h9.28z" stroke="#7ab648" stroke-width="2" fill="#7ab648"/><path d="M80 106c0-3.3 2.7-6 6-6h228c3.3 0 6 2.7 6 6v48c0 3.3-2.7 6-6 6H86c-3.3 0-6-2.7-6-6z" stroke="#000" stroke-opacity="0" stroke-width="3" fill="#fff" fill-opacity="0"/><defs><path fill="#333" d="M121-226c-27-7-43 5-38 36h38v33H83V0H34v-157H6v-33h28c-9-59 32-81 87-68v32" id="j"/><path fill="#333" d="M110-194c64 0 96 36 96 99 0 64-35 99-97 99-61 0-95-36-95-99 0-62 34-99 96-99zm-1 164c35 0 45-28 45-65 0-40-10-65-43-65-34 0-45 26-45 65 0 36 10 65 43 65" id="k"/><path fill="#333" d="M23 0v-37h61v-169l-59 37v-38l62-41h46v211h57V0H23" id="l"/><g id="a"><use transform="matrix(0.06172839506172839,0,0,0.06172839506172839,0,0)" xlink:href="#j"/><use transform="matrix(0.06172839506172839,0,0,0.06172839506172839,7.345679012345679,0)" xlink:href="#k"/><use transform="matrix(0.06172839506172839,0,0,0.06172839506172839,20.864197530864196,0)" xlink:href="#k"/><use transform="matrix(0.06172839506172839,0,0,0.06172839506172839,34.382716049382715,0)" xlink:href="#l"/></g><path d="M26 75v-336h71v23H56V52h41v23H26" id="m"/><path d="M87 75C49 33 22-17 22-94c0-76 28-126 65-167h31c-38 41-64 92-64 168S80 34 118 75H87" id="n"/><path d="M126-127c33 6 58 20 58 59 0 88-139 92-164 29-3-8-5-16-6-25l32-3c6 27 21 44 54 44 32 0 52-15 52-46 0-38-36-46-79-43v-28c39 1 72-4 72-42 0-27-17-43-46-43-28 0-47 15-49 41l-32-3c6-42 35-63 81-64 48-1 79 21 79 65 0 36-21 52-52 59" id="o"/><path d="M68-38c1 34 0 65-14 84H32c9-13 17-26 17-46H33v-38h35" id="p"/><path d="M101-251c68 0 85 55 85 127S166 4 100 4C33 4 14-52 14-124c0-73 17-127 87-127zm-1 229c47 0 54-49 54-102s-4-102-53-102c-51 0-55 48-55 102 0 53 5 102 54 102" id="q"/><path d="M33-261c38 41 65 92 65 168S71 34 33 75H2C39 34 66-17 66-93S39-220 2-261h31" id="r"/><path d="M3 75V52h41v-290H3v-23h71V75H3" id="s"/><g id="b"><use transform="matrix(0.04691358024691358,0,0,0.04691358024691358,0,0)" xlink:href="#m"/><use transform="matrix(0.04691358024691358,0,0,0.04691358024691358,4.691358024691358,0)" xlink:href="#n"/><use transform="matrix(0.04691358024691358,0,0,0.04691358024691358,10.274074074074075,0)" xlink:href="#o"/><use transform="matrix(0.04691358024691358,0,0,0.04691358024691358,19.656790123456794,0)" xlink:href="#p"/><use transform="matrix(0.04691358024691358,0,0,0.04691358024691358,24.348148148148148,0)" xlink:href="#q"/><use transform="matrix(0.04691358024691358,0,0,0.04691358024691358,33.73086419753087,0)" xlink:href="#r"/><use transform="matrix(0.04691358024691358,0,0,0.04691358024691358,39.31358024691359,0)" xlink:href="#s"/></g><g id="c"><use transform="matrix(0.06172839506172839,0,0,0.06172839506172839,0,0)" xlink:href="#j"/><use transform="matrix(0.06172839506172839,0,0,0.06172839506172839,7.345679012345679,0)" xlink:href="#k"/><use transform="matrix(0.06172839506172839,0,0,0.06172839506172839,20.864197530864196,0)" xlink:href="#k"/></g><path d="M155-56V0h-30v-56H8v-25l114-167h33v167h35v25h-35zm-30-156c-27 46-58 90-88 131h88v-131" id="t"/><g id="d"><use transform="matrix(0.04691358024691358,0,0,0.04691358024691358,0,0)" xlink:href="#m"/><use transform="matrix(0.04691358024691358,0,0,0.04691358024691358,4.691358024691358,0)" xlink:href="#n"/><use transform="matrix(0.04691358024691358,0,0,0.04691358024691358,10.274074074074075,0)" xlink:href="#t"/><use transform="matrix(0.04691358024691358,0,0,0.04691358024691358,19.656790123456794,0)" xlink:href="#p"/><use transform="matrix(0.04691358024691358,0,0,0.04691358024691358,24.348148148148148,0)" xlink:href="#q"/><use transform="matrix(0.04691358024691358,0,0,0.04691358024691358,33.73086419753087,0)" xlink:href="#r"/><use transform="matrix(0.04691358024691358,0,0,0.04691358024691358,39.31358024691359,0)" xlink:href="#p"/></g><path d="M101-251c82-7 93 87 43 132L82-64C71-53 59-42 53-27h129V0H18c2-99 128-94 128-182 0-28-16-43-45-43s-46 15-49 41l-32-3c6-41 34-60 81-64" id="u"/><g id="e"><use transform="matrix(0.04691358024691358,0,0,0.04691358024691358,0,0)" xlink:href="#n"/><use transform="matrix(0.04691358024691358,0,0,0.04691358024691358,5.582716049382716,0)" xlink:href="#u"/><use transform="matrix(0.04691358024691358,0,0,0.04691358024691358,14.965432098765433,0)" xlink:href="#p"/><use transform="matrix(0.04691358024691358,0,0,0.04691358024691358,19.65679012345679,0)" xlink:href="#q"/><use transform="matrix(0.04691358024691358,0,0,0.04691358024691358,29.03950617283951,0)" xlink:href="#r"/><use transform="matrix(0.04691358024691358,0,0,0.04691358024691358,34.62222222222223,0)" xlink:href="#s"/></g><path fill="#333" d="M182-182c0 78-84 86-111 141h115V0H12c-6-101 99-100 120-180 1-22-12-31-33-32-23 0-32 14-35 34l-49-3c5-45 32-70 84-70 51 0 83 22 83 69" id="v"/><g id="f"><use transform="matrix(0.06172839506172839,0,0,0.06172839506172839,0,0)" xlink:href="#j"/><use transform="matrix(0.06172839506172839,0,0,0.06172839506172839,7.345679012345679,0)" xlink:href="#k"/><use transform="matrix(0.06172839506172839,0,0,0.06172839506172839,20.864197530864196,0)" xlink:href="#k"/><use transform="matrix(0.06172839506172839,0,0,0.06172839506172839,34.382716049382715,0)" xlink:href="#v"/></g><path d="M54-142c48-35 137-8 131 61C196 18 31 33 14-55l32-4c7 23 22 37 52 37 35-1 51-22 54-58 4-55-73-65-99-34H22l8-134h141v27H59" id="w"/><g id="g"><use transform="matrix(0.04691358024691358,0,0,0.04691358024691358,0,0)" xlink:href="#m"/><use transform="matrix(0.04691358024691358,0,0,0.04691358024691358,4.691358024691358,0)" xlink:href="#n"/><use transform="matrix(0.04691358024691358,0,0,0.04691358024691358,10.274074074074075,0)" xlink:href="#w"/><use transform="matrix(0.04691358024691358,0,0,0.04691358024691358,19.656790123456794,0)" xlink:href="#p"/><use transform="matrix(0.04691358024691358,0,0,0.04691358024691358,24.348148148148148,0)" xlink:href="#q"/><use transform="matrix(0.04691358024691358,0,0,0.04691358024691358,33.73086419753087,0)" xlink:href="#r"/><use transform="matrix(0.04691358024691358,0,0,0.04691358024691358,39.31358024691359,0)" xlink:href="#s"/></g><path fill="#333" d="M128-127c34 4 56 21 59 58 7 91-148 94-172 28-4-9-6-17-7-26l51-5c1 24 16 35 40 36 23 0 39-12 38-36-1-31-31-36-65-34v-40c32 2 59-3 59-33 0-20-13-33-34-33s-33 13-35 32l-50-3c6-44 37-68 86-68 50 0 83 20 83 66 0 35-22 52-53 58" id="x"/><g id="h"><use transform="matrix(0.06172839506172839,0,0,0.06172839506172839,0,0)" xlink:href="#j"/><use transform="matrix(0.06172839506172839,0,0,0.06172839506172839,7.345679012345679,0)" xlink:href="#k"/><use transform="matrix(0.06172839506172839,0,0,0.06172839506172839,20.864197530864196,0)" xlink:href="#k"/><use transform="matrix(0.06172839506172839,0,0,0.06172839506172839,34.382716049382715,0)" xlink:href="#x"/></g><path d="M27 0v-27h64v-190l-56 39v-29l58-41h29v221h61V0H27" id="y"/><g id="i"><use transform="matrix(0.04691358024691358,0,0,0.04691358024691358,0,0)" xlink:href="#m"/><use transform="matrix(0.04691358024691358,0,0,0.04691358024691358,4.691358024691358,0)" xlink:href="#n"/><use transform="matrix(0.04691358024691358,0,0,0.04691358024691358,10.274074074074075,0)" xlink:href="#w"/><use transform="matrix(0.04691358024691358,0,0,0.04691358024691358,19.656790123456794,0)" xlink:href="#p"/><use transform="matrix(0.04691358024691358,0,0,0.04691358024691358,24.348148148148148,0)" xlink:href="#y"/><use transform="matrix(0.04691358024691358,0,0,0.04691358024691358,33.73086419753087,0)" xlink:href="#r"/><use transform="matrix(0.04691358024691358,0,0,0.04691358024691358,39.31358024691359,0)" xlink:href="#s"/></g></defs></g></svg>