<svg xmlns="http://www.w3.org/2000/svg" xmlns:xlink="http://www.w3.org/1999/xlink" xmlns:lucid="lucid" width="860" height="588.5"><g transform="translate(-40 -100)" lucid:page-tab-id="0_0"><path d="M0 0h1760v1360H0z" fill="#fff"/><path d="M60 454.5c0-3.3 2.7-6 6-6h738c3.3 0 6 2.7 6 6v208c0 3.3-2.7 6-6 6H66c-3.3 0-6-2.7-6-6z" fill="#fff"/><path d="M83.85 448.5h11.9m11.9 0h11.9m11.92 0h11.9m11.9 0h11.9m11.9 0h11.9m11.92 0h11.9m11.9 0h11.9m11.9 0h11.9m11.9 0h11.9m11.9 0h11.92m11.9 0h11.9m11.9 0h11.9m11.9 0h11.92m11.9 0h11.9m11.9 0h11.9m11.9 0h11.9m11.92 0h11.9m11.9 0h11.9m11.9 0h11.9m11.92 0h11.9m11.9 0h11.9m11.9 0h11.9m11.92 0h11.9m11.9 0h11.9m11.9 0h11.9m11.92 0h11.9m11.9 0h11.9m11.9 0h11.9m11.92 0h11.9m11.9 0h11.9m11.9 0H804l3.03.82 2.15 2.15.82 3.03v5.78m0 11.55v11.56m0 11.54v11.56m0 11.56v11.55m0 11.57v11.55m0 11.56v11.55m0 11.56v11.54m0 11.56v11.56m0 11.55v11.57m0 11.55v5.78l-.82 3.03-2.15 2.15-3.03.82h-5.95m-11.9 0h-11.9m-11.9 0h-11.9m-11.92 0h-11.9m-11.9 0h-11.9m-11.9 0h-11.9m-11.92 0h-11.9m-11.9 0h-11.9m-11.9 0h-11.9m-11.9 0h-11.9m-11.9 0h-11.92m-11.9 0h-11.9m-11.9 0h-11.9m-11.9 0h-11.92m-11.9 0h-11.9m-11.9 0h-11.9m-11.9 0h-11.9m-11.92 0h-11.9m-11.9 0h-11.9m-11.9 0h-11.9m-11.92 0h-11.9m-11.9 0h-11.9m-11.9 0h-11.9m-11.92 0h-11.9m-11.9 0h-11.9m-11.9 0h-11.9m-11.92 0h-11.9m-11.9 0h-11.9m-11.9 0h-11.9m-11.92 0h-11.9m-11.9 0h-11.9m-11.9 0H66l-3.03-.82-2.15-2.15-.82-3.03v-5.78m0-11.55V633.6m0-11.54V610.5m0-11.56V587.4m0-11.57v-11.55m0-11.56v-11.55m0-11.56v-11.54m0-11.56v-11.56m0-11.55v-11.57m0-11.55v-5.78l.82-3.03 2.15-2.15 3.03-.82h5.95" stroke="#5e5e5e" stroke-width="3" fill="none"/><path d="M340 126c0-3.3 2.7-6 6-6h48c3.3 0 6 2.7 6 6v48c0 3.3-2.7 6-6 6h-48c-3.3 0-6-2.7-6-6z" stroke="#5e5e5e" stroke-width="3" fill="#fff"/><use xlink:href="#a" transform="matrix(1,0,0,1,345,125) translate(18.82716049382716 30.27777777777778)"/><path d="M400 126c0-3.3 2.7-6 6-6h48c3.3 0 6 2.7 6 6v48c0 3.3-2.7 6-6 6h-48c-3.3 0-6-2.7-6-6z" stroke="#5e5e5e" stroke-width="3" fill="#fff"/><use xlink:href="#b" transform="matrix(1,0,0,1,405,125) translate(18.82716049382716 30.27777777777778)"/><path d="M460 126c0-3.3 2.7-6 6-6h48c3.3 0 6 2.7 6 6v48c0 3.3-2.7 6-6 6h-48c-3.3 0-6-2.7-6-6zM100 306c0-3.3 2.7-6 6-6h48c3.3 0 6 2.7 6 6v48c0 3.3-2.7 6-6 6h-48c-3.3 0-6-2.7-6-6z" stroke="#5e5e5e" stroke-width="3" fill="#fff"/><use xlink:href="#c" transform="matrix(1,0,0,1,105,305) translate(18.82716049382716 30.27777777777778)"/><path d="M160 306c0-3.3 2.7-6 6-6h48c3.3 0 6 2.7 6 6v48c0 3.3-2.7 6-6 6h-48c-3.3 0-6-2.7-6-6z" stroke="#5e5e5e" stroke-width="3" fill="#fff"/><use xlink:href="#d" transform="matrix(1,0,0,1,165,305) translate(18.82716049382716 30.27777777777778)"/><path d="M220 306c0-3.3 2.7-6 6-6h48c3.3 0 6 2.7 6 6v48c0 3.3-2.7 6-6 6h-48c-3.3 0-6-2.7-6-6zM340 306c0-3.3 2.7-6 6-6h48c3.3 0 6 2.7 6 6v48c0 3.3-2.7 6-6 6h-48c-3.3 0-6-2.7-6-6z" stroke="#5e5e5e" stroke-width="3" fill="#fff"/><use xlink:href="#a" transform="matrix(1,0,0,1,345,305) translate(18.82716049382716 30.27777777777778)"/><path d="M460 306c0-3.3 2.7-6 6-6h48c3.3 0 6 2.7 6 6v48c0 3.3-2.7 6-6 6h-48c-3.3 0-6-2.7-6-6zM580 306c0-3.3 2.7-6 6-6h48c3.3 0 6 2.7 6 6v48c0 3.3-2.7 6-6 6h-48c-3.3 0-6-2.7-6-6z" stroke="#5e5e5e" stroke-width="3" fill="#fff"/><use xlink:href="#b" transform="matrix(1,0,0,1,585,305) translate(18.82716049382716 30.27777777777778)"/><path d="M640 306c0-3.3 2.7-6 6-6h48c3.3 0 6 2.7 6 6v48c0 3.3-2.7 6-6 6h-48c-3.3 0-6-2.7-6-6z" stroke="#5e5e5e" stroke-width="3" fill="#fff"/><use xlink:href="#e" transform="matrix(1,0,0,1,645,305) translate(18.82716049382716 30.27777777777778)"/><path d="M700 306c0-3.3 2.7-6 6-6h48c3.3 0 6 2.7 6 6v48c0 3.3-2.7 6-6 6h-48c-3.3 0-6-2.7-6-6z" stroke="#5e5e5e" stroke-width="3" fill="#fff"/><use xlink:href="#f" transform="matrix(1,0,0,1,705,305) translate(18.82716049382716 30.27777777777778)"/><path d="M340.83 180.17V214c0 3.3-2.68 6-6 6H196c-3.3 0-6 2.7-6 6v54" stroke="#5e5e5e" stroke-width="2" fill="none"/><path d="M341.83 180.17v.02h-2v-2.03z" fill="#5e5e5e"/><path d="M190 295.26L185.36 281h9.28z" stroke="#5e5e5e" stroke-width="2" fill="#5e5e5e"/><path d="M282.5 330H320" stroke="#5e5e5e" stroke-width="2" fill="none"/><path d="M282.53 331h-1.03v-2h1.03z" fill="#5e5e5e"/><path d="M335.26 330L321 334.64v-9.28z" stroke="#5e5e5e" stroke-width="2" fill="#5e5e5e"/><path d="M522.5 330H560" stroke="#5e5e5e" stroke-width="2" fill="none"/><path d="M522.53 331h-1.03v-2h1.03z" fill="#5e5e5e"/><path d="M575.26 330L561 334.64v-9.28z" stroke="#5e5e5e" stroke-width="2" fill="#5e5e5e"/><path d="M403.66 181.92v98.66" stroke="#7ab648" stroke-width="2" fill="none"/><path d="M404.66 181.2v.75h-2v-1.3z" fill="#7ab648"/><path d="M403.66 295.84l-4.63-14.26h9.27z" stroke="#7ab648" stroke-width="2" fill="#7ab648"/><path d="M459.33 180H464c3.3 0 6 2.7 6 6v48c0 3.3 2.7 6 6 6h188c3.3 0 6 2.7 6 6v34" stroke="#5e5e5e" stroke-width="2" fill="none"/><path d="M459.36 181h-3.3l1.75-.48 1.53-1.52h.03z" fill="#5e5e5e"/><path d="M670 295.26L665.36 281h9.28z" stroke="#5e5e5e" stroke-width="2" fill="#5e5e5e"/><path d="M182 362.5v96" stroke="#5e5e5e" stroke-width="2" fill="none"/><path d="M183 362.53h-2v-1.03h2z" fill="#5e5e5e"/><path d="M182 473.76l-4.64-14.26h9.28z" stroke="#5e5e5e" stroke-width="2" fill="#5e5e5e"/><path d="M102 484.5c0-3.3 2.7-6 6-6h148c3.3 0 6 2.7 6 6v148c0 3.3-2.7 6-6 6H108c-3.3 0-6-2.7-6-6z" stroke="#5e5e5e" stroke-width="3" fill="#fff"/><use xlink:href="#g" transform="matrix(1,0,0,1,107,483.5) translate(28.086419753086425 64.65277777777777)"/><use xlink:href="#h" transform="matrix(1,0,0,1,107,483.5) translate(52.777777777777786 64.65277777777777)"/><use xlink:href="#i" transform="matrix(1,0,0,1,107,483.5) translate(28.086419753086425 91.31944444444446)"/><use xlink:href="#j" transform="matrix(1,0,0,1,107,483.5) translate(52.777777777777786 91.31944444444446)"/><path d="M360 484.5c0-3.3 2.7-6 6-6h148c3.3 0 6 2.7 6 6v148c0 3.3-2.7 6-6 6H366c-3.3 0-6-2.7-6-6z" stroke="#7ab648" stroke-width="3" fill="#fff"/><use xlink:href="#k" transform="matrix(1,0,0,1,365.00000000000006,483.5) translate(28.086419753086425 64.65277777777777)"/><use xlink:href="#h" transform="matrix(1,0,0,1,365.00000000000006,483.5) translate(52.777777777777786 64.65277777777777)"/><use xlink:href="#l" transform="matrix(1,0,0,1,365.00000000000006,483.5) translate(28.086419753086425 91.31944444444446)"/><use xlink:href="#m" transform="matrix(1,0,0,1,365.00000000000006,483.5) translate(52.777777777777786 91.31944444444446)"/><path d="M600 484.5c0-3.3 2.7-6 6-6h148c3.3 0 6 2.7 6 6v148c0 3.3-2.7 6-6 6H606c-3.3 0-6-2.7-6-6z" stroke="#5e5e5e" stroke-width="3" fill="#fff"/><use xlink:href="#n" transform="matrix(1,0,0,1,605,483.5) translate(28.086419753086425 50.59027777777778)"/><use xlink:href="#h" transform="matrix(1,0,0,1,605,483.5) translate(52.777777777777786 50.59027777777778)"/><use xlink:href="#o" transform="matrix(1,0,0,1,605,483.5) translate(28.086419753086425 77.25694444444446)"/><use xlink:href="#p" transform="matrix(1,0,0,1,605,483.5) translate(52.777777777777786 77.25694444444446)"/><use xlink:href="#q" transform="matrix(1,0,0,1,605,483.5) translate(28.086419753086425 103.92361111111111)"/><use xlink:href="#j" transform="matrix(1,0,0,1,605,483.5) translate(52.777777777777786 103.92361111111111)"/><path d="M430 362.5v96" stroke="#7ab648" stroke-width="2" fill="none"/><path d="M431 362.53h-2v-1.03h2z" fill="#7ab648"/><path d="M430 473.76l-4.64-14.26h9.28z" stroke="#7ab648" stroke-width="2" fill="#7ab648"/><path d="M670 362.5v96" stroke="#5e5e5e" stroke-width="2" fill="none"/><path d="M671 362.53h-2v-1.03h2z" fill="#5e5e5e"/><path d="M670 473.76l-4.64-14.26h9.28z" stroke="#5e5e5e" stroke-width="2" fill="#5e5e5e"/><path d="M640 406c0-3.3 2.7-6 6-6h228c3.3 0 6 2.7 6 6v48c0 3.3-2.7 6-6 6H646c-3.3 0-6-2.7-6-6z" stroke="#000" stroke-opacity="0" stroke-width="3" fill="#fff" fill-opacity="0"/><g><use xlink:href="#r" transform="matrix(1,0,0,1,645,405) translate(93.45679012345678 30.27777777777778)"/></g><path d="M400 306c0-3.3 2.7-6 6-6h48c3.3 0 6 2.7 6 6v48c0 3.3-2.7 6-6 6h-48c-3.3 0-6-2.7-6-6z" stroke="#7ab648" stroke-width="3" fill="#fff"/><g><use xlink:href="#s" transform="matrix(1,0,0,1,405,305) translate(18.82716049382716 30.27777777777778)"/></g><defs><path fill="#333" d="M126-127c33 6 58 20 58 59 0 88-139 92-164 29-3-8-5-16-6-25l32-3c6 27 21 44 54 44 32 0 52-15 52-46 0-38-36-46-79-43v-28c39 1 72-4 72-42 0-27-17-43-46-43-28 0-47 15-49 41l-32-3c6-42 35-63 81-64 48-1 79 21 79 65 0 36-21 52-52 59" id="t"/><use transform="matrix(0.06172839506172839,0,0,0.06172839506172839,0,0)" xlink:href="#t" id="a"/><path fill="#333" d="M54-142c48-35 137-8 131 61C196 18 31 33 14-55l32-4c7 23 22 37 52 37 35-1 51-22 54-58 4-55-73-65-99-34H22l8-134h141v27H59" id="u"/><use transform="matrix(0.06172839506172839,0,0,0.06172839506172839,0,0)" xlink:href="#u" id="b"/><path fill="#333" d="M27 0v-27h64v-190l-56 39v-29l58-41h29v221h61V0H27" id="v"/><use transform="matrix(0.06172839506172839,0,0,0.06172839506172839,0,0)" xlink:href="#v" id="c"/><path fill="#333" d="M101-251c82-7 93 87 43 132L82-64C71-53 59-42 53-27h129V0H18c2-99 128-94 128-182 0-28-16-43-45-43s-46 15-49 41l-32-3c6-41 34-60 81-64" id="w"/><use transform="matrix(0.06172839506172839,0,0,0.06172839506172839,0,0)" xlink:href="#w" id="d"/><path fill="#333" d="M110-160c48 1 74 30 74 79 0 53-28 85-80 85-65 0-83-55-86-122-5-90 50-162 133-122 14 7 22 21 27 39l-31 6c-5-40-67-38-82-6-9 19-15 44-15 74 11-20 30-34 60-33zm-7 138c34 0 49-23 49-58s-16-56-50-56c-29 0-50 16-49 49 1 36 15 65 50 65" id="x"/><use transform="matrix(0.06172839506172839,0,0,0.06172839506172839,0,0)" xlink:href="#x" id="e"/><path fill="#333" d="M64 0c3-98 48-159 88-221H18v-27h164v26C143-157 98-101 97 0H64" id="y"/><use transform="matrix(0.06172839506172839,0,0,0.06172839506172839,0,0)" xlink:href="#y" id="f"/><path fill="#333" d="M33-154v-36h34v36H33zM33 0v-36h34V0H33" id="z"/><g id="g"><use transform="matrix(0.06172839506172839,0,0,0.06172839506172839,0,0)" xlink:href="#v"/><use transform="matrix(0.06172839506172839,0,0,0.06172839506172839,12.345679012345679,0)" xlink:href="#z"/></g><path fill="#333" d="M18-100v-36l175-74v27L42-118l151 64v27" id="A"/><path fill="#333" d="M85-194c31 0 48 13 60 33l-1-100h32l1 261h-30c-2-10 0-23-3-31C134-8 116 4 85 4 32 4 16-35 15-94c0-66 23-100 70-100zm9 24c-40 0-46 34-46 75 0 40 6 74 45 74 42 0 51-32 51-76 0-42-9-74-50-73" id="B"/><path fill="#333" d="M141-36C126-15 110 5 73 4 37 3 15-17 15-53c-1-64 63-63 125-63 3-35-9-54-41-54-24 1-41 7-42 31l-33-3c5-37 33-52 76-52 45 0 72 20 72 64v82c-1 20 7 32 28 27v20c-31 9-61-2-59-35zM48-53c0 20 12 33 32 33 41-3 63-29 60-74-43 2-92-5-92 41" id="C"/><path fill="#333" d="M59-47c-2 24 18 29 38 22v24C64 9 27 4 27-40v-127H5v-23h24l9-43h21v43h35v23H59v120" id="D"/><path fill="#333" d="M18-27v-27l151-64-151-65v-27l175 74v36" id="E"/><g id="h"><use transform="matrix(0.06172839506172839,0,0,0.06172839506172839,0,0)" xlink:href="#A"/><use transform="matrix(0.06172839506172839,0,0,0.06172839506172839,12.962962962962962,0)" xlink:href="#B"/><use transform="matrix(0.06172839506172839,0,0,0.06172839506172839,25.30864197530864,0)" xlink:href="#C"/><use transform="matrix(0.06172839506172839,0,0,0.06172839506172839,37.654320987654316,0)" xlink:href="#D"/><use transform="matrix(0.06172839506172839,0,0,0.06172839506172839,43.82716049382716,0)" xlink:href="#C"/><use transform="matrix(0.06172839506172839,0,0,0.06172839506172839,56.172839506172835,0)" xlink:href="#E"/></g><g id="i"><use transform="matrix(0.06172839506172839,0,0,0.06172839506172839,0,0)" xlink:href="#w"/><use transform="matrix(0.06172839506172839,0,0,0.06172839506172839,12.345679012345679,0)" xlink:href="#z"/></g><g id="j"><use transform="matrix(0.06172839506172839,0,0,0.06172839506172839,0,0)" xlink:href="#A"/><use transform="matrix(0.06172839506172839,0,0,0.06172839506172839,12.962962962962962,0)" xlink:href="#B"/><use transform="matrix(0.06172839506172839,0,0,0.06172839506172839,25.30864197530864,0)" xlink:href="#C"/><use transform="matrix(0.06172839506172839,0,0,0.06172839506172839,37.654320987654316,0)" xlink:href="#D"/><use transform="matrix(0.06172839506172839,0,0,0.06172839506172839,43.82716049382716,0)" xlink:href="#C"/><use transform="matrix(0.06172839506172839,0,0,0.06172839506172839,56.172839506172835,0)" xlink:href="#E"/></g><g id="k"><use transform="matrix(0.06172839506172839,0,0,0.06172839506172839,0,0)" xlink:href="#t"/><use transform="matrix(0.06172839506172839,0,0,0.06172839506172839,12.345679012345679,0)" xlink:href="#z"/></g><path fill="#7ab648" d="M155-56V0h-30v-56H8v-25l114-167h33v167h35v25h-35zm-30-156c-27 46-58 90-88 131h88v-131" id="F"/><path fill="#7ab648" d="M33-154v-36h34v36H33zM33 0v-36h34V0H33" id="G"/><g id="l"><use transform="matrix(0.06172839506172839,0,0,0.06172839506172839,0,0)" xlink:href="#F"/><use transform="matrix(0.06172839506172839,0,0,0.06172839506172839,12.345679012345679,0)" xlink:href="#G"/></g><path fill="#7ab648" d="M18-100v-36l175-74v27L42-118l151 64v27" id="H"/><path fill="#7ab648" d="M85-194c31 0 48 13 60 33l-1-100h32l1 261h-30c-2-10 0-23-3-31C134-8 116 4 85 4 32 4 16-35 15-94c0-66 23-100 70-100zm9 24c-40 0-46 34-46 75 0 40 6 74 45 74 42 0 51-32 51-76 0-42-9-74-50-73" id="I"/><path fill="#7ab648" d="M141-36C126-15 110 5 73 4 37 3 15-17 15-53c-1-64 63-63 125-63 3-35-9-54-41-54-24 1-41 7-42 31l-33-3c5-37 33-52 76-52 45 0 72 20 72 64v82c-1 20 7 32 28 27v20c-31 9-61-2-59-35zM48-53c0 20 12 33 32 33 41-3 63-29 60-74-43 2-92-5-92 41" id="J"/><path fill="#7ab648" d="M59-47c-2 24 18 29 38 22v24C64 9 27 4 27-40v-127H5v-23h24l9-43h21v43h35v23H59v120" id="K"/><path fill="#7ab648" d="M18-27v-27l151-64-151-65v-27l175 74v36" id="L"/><g id="m"><use transform="matrix(0.06172839506172839,0,0,0.06172839506172839,0,0)" xlink:href="#H"/><use transform="matrix(0.06172839506172839,0,0,0.06172839506172839,12.962962962962962,0)" xlink:href="#I"/><use transform="matrix(0.06172839506172839,0,0,0.06172839506172839,25.30864197530864,0)" xlink:href="#J"/><use transform="matrix(0.06172839506172839,0,0,0.06172839506172839,37.654320987654316,0)" xlink:href="#K"/><use transform="matrix(0.06172839506172839,0,0,0.06172839506172839,43.82716049382716,0)" xlink:href="#J"/><use transform="matrix(0.06172839506172839,0,0,0.06172839506172839,56.172839506172835,0)" xlink:href="#L"/></g><g id="n"><use transform="matrix(0.06172839506172839,0,0,0.06172839506172839,0,0)" xlink:href="#u"/><use transform="matrix(0.06172839506172839,0,0,0.06172839506172839,12.345679012345679,0)" xlink:href="#z"/></g><g id="o"><use transform="matrix(0.06172839506172839,0,0,0.06172839506172839,0,0)" xlink:href="#x"/><use transform="matrix(0.06172839506172839,0,0,0.06172839506172839,12.345679012345679,0)" xlink:href="#z"/></g><g id="p"><use transform="matrix(0.06172839506172839,0,0,0.06172839506172839,0,0)" xlink:href="#A"/><use transform="matrix(0.06172839506172839,0,0,0.06172839506172839,12.962962962962962,0)" xlink:href="#B"/><use transform="matrix(0.06172839506172839,0,0,0.06172839506172839,25.30864197530864,0)" xlink:href="#C"/><use transform="matrix(0.06172839506172839,0,0,0.06172839506172839,37.654320987654316,0)" xlink:href="#D"/><use transform="matrix(0.06172839506172839,0,0,0.06172839506172839,43.82716049382716,0)" xlink:href="#C"/><use transform="matrix(0.06172839506172839,0,0,0.06172839506172839,56.172839506172835,0)" xlink:href="#E"/></g><g id="q"><use transform="matrix(0.06172839506172839,0,0,0.06172839506172839,0,0)" xlink:href="#y"/><use transform="matrix(0.06172839506172839,0,0,0.06172839506172839,12.345679012345679,0)" xlink:href="#z"/></g><path fill="#333" d="M30-248c118-7 216 8 213 122C240-48 200 0 122 0H30v-248zM63-27c89 8 146-16 146-99s-60-101-146-95v194" id="M"/><path fill="#333" d="M24-231v-30h32v30H24zM24 0v-190h32V0H24" id="N"/><path fill="#333" d="M135-143c-3-34-86-38-87 0 15 53 115 12 119 90S17 21 10-45l28-5c4 36 97 45 98 0-10-56-113-15-118-90-4-57 82-63 122-42 12 7 21 19 24 35" id="O"/><path fill="#333" d="M143 0L79-87 56-68V0H24v-261h32v163l83-92h37l-77 82L181 0h-38" id="P"/><g id="r"><use transform="matrix(0.06172839506172839,0,0,0.06172839506172839,0,0)" xlink:href="#M"/><use transform="matrix(0.06172839506172839,0,0,0.06172839506172839,15.987654320987653,0)" xlink:href="#N"/><use transform="matrix(0.06172839506172839,0,0,0.06172839506172839,20.864197530864196,0)" xlink:href="#O"/><use transform="matrix(0.06172839506172839,0,0,0.06172839506172839,31.975308641975307,0)" xlink:href="#P"/></g><path fill="#333" d="M155-56V0h-30v-56H8v-25l114-167h33v167h35v25h-35zm-30-156c-27 46-58 90-88 131h88v-131" id="Q"/><use transform="matrix(0.06172839506172839,0,0,0.06172839506172839,0,0)" xlink:href="#Q" id="s"/></defs></g></svg>