<svg xmlns="http://www.w3.org/2000/svg" xmlns:xlink="http://www.w3.org/1999/xlink" xmlns:lucid="lucid" width="1397.33" height="802"><g transform="translate(-80 -418)" lucid:page-tab-id="0_0"><path d="M0 0h1760v1360H0z" fill="#fff"/><path d="M397.33 684c0-3.3 2.7-6 6-6h228c3.32 0 6 2.7 6 6v48c0 3.3-2.68 6-6 6h-228c-3.3 0-6-2.7-6-6z" stroke="#000" stroke-opacity="0" stroke-width="3" fill="#fff" fill-opacity="0"/><use xlink:href="#a" transform="matrix(1,0,0,1,402.33333333333337,683) translate(79.81481481481481 30.27777777777778)"/><use xlink:href="#b" transform="matrix(1,0,0,1,402.33333333333337,683) translate(137.8395061728395 30.27777777777778)"/><path d="M637.33 684c0-3.3 2.7-6 6-6h228c3.32 0 6 2.7 6 6v48c0 3.3-2.68 6-6 6h-228c-3.3 0-6-2.7-6-6z" stroke="#000" stroke-opacity="0" stroke-width="3" fill="#fff" fill-opacity="0"/><use xlink:href="#a" transform="matrix(1,0,0,1,642.3333333333334,683) translate(79.81481481481481 30.27777777777778)"/><use xlink:href="#c" transform="matrix(1,0,0,1,642.3333333333334,683) translate(137.8395061728395 30.27777777777778)"/><path d="M897.33 542.33c0-3.3 2.7-6 6-6h188c3.32 0 6 2.7 6 6v148c0 3.32-2.68 6-6 6h-188c-3.3 0-6-2.68-6-6z" stroke="#5e5e5e" stroke-width="3" fill="#fff"/><use xlink:href="#d" transform="matrix(1,0,0,1,902.3333333333334,541.3333333333333) translate(76.77777777777779 65.78472222222221)"/><use xlink:href="#e" transform="matrix(1,0,0,1,902.3333333333334,541.3333333333333) translate(74.25925925925927 87.11805555555553)"/><path d="M417.33 542.33c0-3.3 2.7-6 6-6h188c3.32 0 6 2.7 6 6v148c0 3.32-2.68 6-6 6h-188c-3.3 0-6-2.68-6-6z" stroke="#5e5e5e" stroke-width="3" fill="#fff"/><use xlink:href="#f" transform="matrix(1,0,0,1,422.33333333333337,541.3333333333333) translate(21.629629629629648 49.94444444444444)"/><use xlink:href="#g" transform="matrix(1,0,0,1,422.33333333333337,541.3333333333333) translate(85.45061728395063 49.94444444444444)"/><use xlink:href="#h" transform="matrix(1,0,0,1,422.33333333333337,541.3333333333333) translate(102.73456790123457 49.94444444444444)"/><use xlink:href="#i" transform="matrix(1,0,0,1,422.33333333333337,541.3333333333333) translate(137.30246913580245 49.94444444444444)"/><use xlink:href="#j" transform="matrix(1,0,0,1,422.33333333333337,541.3333333333333) translate(21.629629629629648 68.61111111111111)"/><use xlink:href="#k" transform="matrix(1,0,0,1,422.33333333333337,541.3333333333333) translate(85.45061728395063 68.61111111111111)"/><use xlink:href="#l" transform="matrix(1,0,0,1,422.33333333333337,541.3333333333333) translate(102.73456790123457 68.61111111111111)"/><use xlink:href="#m" transform="matrix(1,0,0,1,422.33333333333337,541.3333333333333) translate(137.30246913580245 68.61111111111111)"/><use xlink:href="#n" transform="matrix(1,0,0,1,422.33333333333337,541.3333333333333) translate(21.629629629629648 87.27777777777777)"/><use xlink:href="#o" transform="matrix(1,0,0,1,422.33333333333337,541.3333333333333) translate(85.45061728395063 87.27777777777777)"/><use xlink:href="#p" transform="matrix(1,0,0,1,422.33333333333337,541.3333333333333) translate(102.73456790123457 87.27777777777777)"/><use xlink:href="#q" transform="matrix(1,0,0,1,422.33333333333337,541.3333333333333) translate(137.30246913580245 87.27777777777777)"/><use xlink:href="#n" transform="matrix(1,0,0,1,422.33333333333337,541.3333333333333) translate(21.629629629629648 105.94444444444444)"/><use xlink:href="#r" transform="matrix(1,0,0,1,422.33333333333337,541.3333333333333) translate(85.45061728395063 105.94444444444444)"/><use xlink:href="#s" transform="matrix(1,0,0,1,422.33333333333337,541.3333333333333) translate(102.73456790123457 105.94444444444444)"/><use xlink:href="#t" transform="matrix(1,0,0,1,422.33333333333337,541.3333333333333) translate(137.30246913580245 105.94444444444444)"/><path d="M657.33 542.33c0-3.3 2.7-6 6-6h188c3.32 0 6 2.7 6 6v148c0 3.32-2.68 6-6 6h-188c-3.3 0-6-2.68-6-6z" stroke="#5e5e5e" stroke-width="3" fill="#fff"/><use xlink:href="#f" transform="matrix(1,0,0,1,662.3333333333334,541.3333333333333) translate(21.629629629629648 49.94444444444444)"/><use xlink:href="#u" transform="matrix(1,0,0,1,662.3333333333334,541.3333333333333) translate(85.45061728395063 49.94444444444444)"/><use xlink:href="#v" transform="matrix(1,0,0,1,662.3333333333334,541.3333333333333) translate(102.73456790123457 49.94444444444444)"/><use xlink:href="#w" transform="matrix(1,0,0,1,662.3333333333334,541.3333333333333) translate(137.30246913580245 49.94444444444444)"/><use xlink:href="#x" transform="matrix(1,0,0,1,662.3333333333334,541.3333333333333) translate(21.629629629629648 68.61111111111111)"/><use xlink:href="#y" transform="matrix(1,0,0,1,662.3333333333334,541.3333333333333) translate(85.45061728395063 68.61111111111111)"/><use xlink:href="#z" transform="matrix(1,0,0,1,662.3333333333334,541.3333333333333) translate(102.73456790123457 68.61111111111111)"/><use xlink:href="#A" transform="matrix(1,0,0,1,662.3333333333334,541.3333333333333) translate(137.30246913580245 68.61111111111111)"/><use xlink:href="#n" transform="matrix(1,0,0,1,662.3333333333334,541.3333333333333) translate(21.629629629629648 87.27777777777777)"/><use xlink:href="#B" transform="matrix(1,0,0,1,662.3333333333334,541.3333333333333) translate(85.45061728395063 87.27777777777777)"/><use xlink:href="#C" transform="matrix(1,0,0,1,662.3333333333334,541.3333333333333) translate(102.73456790123457 87.27777777777777)"/><use xlink:href="#D" transform="matrix(1,0,0,1,662.3333333333334,541.3333333333333) translate(137.30246913580245 87.27777777777777)"/><use xlink:href="#E" transform="matrix(1,0,0,1,662.3333333333334,541.3333333333333) translate(21.629629629629648 105.94444444444444)"/><use xlink:href="#F" transform="matrix(1,0,0,1,662.3333333333334,541.3333333333333) translate(85.45061728395063 105.94444444444444)"/><use xlink:href="#v" transform="matrix(1,0,0,1,662.3333333333334,541.3333333333333) translate(102.73456790123457 105.94444444444444)"/><use xlink:href="#G" transform="matrix(1,0,0,1,662.3333333333334,541.3333333333333) translate(137.30246913580245 105.94444444444444)"/><path d="M380 966c0-3.3 2.7-6 6-6h988c3.3 0 6 2.7 6 6v228c0 3.3-2.7 6-6 6H386c-3.3 0-6-2.7-6-6z" fill-opacity="0"/><path d="M400.97 960h6m11.96 0h6m11.97 0h5.98m11.98 0h6m11.96 0h6m11.97 0h5.98m11.97 0h6m11.97 0h5.98m11.98 0h6m11.96 0h6m11.97 0h6m11.97 0h6m11.96 0h6m11.97 0h5.98m11.98 0h6m11.96 0h6m11.97 0h5.98m11.97 0h6m11.97 0h5.98m11.98 0h6m11.96 0h6m11.97 0h6m11.97 0h6m11.96 0h6m11.97 0h5.98m11.98 0h6m11.96 0h6m11.97 0h5.98m11.97 0h6m11.97 0h5.98m11.98 0h6m11.96 0h6m11.97 0h6m11.97 0h6m11.96 0h6m11.97 0h5.98m11.98 0h6m11.96 0h6m11.97 0h5.98m11.97 0h6m11.97 0h5.98m11.98 0h6m11.96 0h6m11.97 0h6m11.97 0h6m11.96 0h6m11.97 0h5.98m11.98 0h6m11.96 0h6m11.97 0h5.98m11.97 0h6m11.97 0h5.98m11.98 0h6m11.96 0h6m11.97 0h3l3.03.82 2.15 2.15.82 3.03v2.92m0 11.7v5.84m0 11.7v5.84m0 11.7v5.84m0 11.7v5.84m0 11.7v5.84m0 11.7v5.83m0 11.7v5.84m0 11.68v5.85m0 11.7v5.84m0 11.7v5.84m0 11.7v5.85m0 11.7v5.83m0 11.7v2.92l-.82 3.03-2.15 2.15-3.03.82h-3m-11.97 0h-6m-11.96 0h-6m-11.97 0h-5.98m-11.98 0h-6m-11.96 0h-6m-11.97 0h-5.98m-11.97 0h-6m-11.97 0h-5.98m-11.98 0h-6m-11.96 0h-6m-11.97 0h-6m-11.97 0h-6m-11.96 0h-6m-11.97 0h-5.98m-11.98 0h-6m-11.96 0h-6m-11.97 0h-5.98m-11.97 0h-6m-11.97 0h-5.98m-11.98 0h-6m-11.96 0h-6m-11.97 0h-6m-11.97 0h-6m-11.96 0h-6m-11.97 0h-5.98m-11.98 0h-6m-11.96 0h-6m-11.97 0h-5.98m-11.97 0h-6m-11.97 0h-5.98m-11.98 0h-6m-11.96 0h-6m-11.97 0h-6m-11.97 0h-6m-11.96 0h-6m-11.97 0h-5.98m-11.98 0h-6m-11.96 0h-6m-11.97 0h-5.98m-11.97 0h-6m-11.97 0h-5.98m-11.98 0h-6m-11.96 0h-6m-11.97 0h-6m-11.97 0h-6m-11.96 0h-6m-11.97 0h-5.98m-11.98 0h-6m-11.96 0h-6m-11.97 0h-5.98m-11.97 0h-6m-11.97 0h-5.98m-11.98 0h-6m-11.96 0h-6m-11.97 0h-3l-3.03-.82-2.15-2.15-.82-3.03v-2.92m0-11.7v-5.84m0-11.7V1156m0-11.7v-5.84m0-11.7v-5.84m0-11.7v-5.84m0-11.7v-5.83m0-11.7v-5.84m0-11.68v-5.85m0-11.7v-5.84m0-11.7v-5.84m0-11.7v-5.85m0-11.7v-5.83m0-11.7V966l.82-3.03 2.15-2.15L386 960h3" stroke="#5e5e5e" stroke-width="3" fill="none"/><path d="M1217.33 444c0-3.3 2.7-6 6-6h228c3.32 0 6 2.7 6 6v48c0 3.3-2.68 6-6 6h-228c-3.3 0-6-2.7-6-6z" stroke="#000" stroke-opacity="0" stroke-width="3" fill="#fff" fill-opacity="0"/><g><use xlink:href="#H" transform="matrix(1,0,0,1,1222.3333333333335,443) translate(93.45679012345678 30.27777777777778)"/></g><path d="M397.33 1144c0-3.3 2.7-6 6-6h228c3.32 0 6 2.7 6 6v48c0 3.3-2.68 6-6 6h-228c-3.3 0-6-2.7-6-6z" stroke="#000" stroke-opacity="0" stroke-width="3" fill="#fff" fill-opacity="0"/><g><use xlink:href="#a" transform="matrix(1,0,0,1,402.33333333333337,1143) translate(79.81481481481481 30.27777777777778)"/><use xlink:href="#b" transform="matrix(1,0,0,1,402.33333333333337,1143) translate(137.8395061728395 30.27777777777778)"/></g><path d="M637.33 1144c0-3.3 2.7-6 6-6h228c3.32 0 6 2.7 6 6v48c0 3.3-2.68 6-6 6h-228c-3.3 0-6-2.7-6-6z" stroke="#000" stroke-opacity="0" stroke-width="3" fill="#fff" fill-opacity="0"/><g><use xlink:href="#a" transform="matrix(1,0,0,1,642.3333333333333,1143) translate(79.81481481481481 30.27777777777778)"/><use xlink:href="#c" transform="matrix(1,0,0,1,642.3333333333333,1143) translate(137.8395061728395 30.27777777777778)"/></g><path d="M897.33 1002.33c0-3.3 2.7-6 6-6h188c3.32 0 6 2.7 6 6v148c0 3.32-2.68 6-6 6h-188c-3.3 0-6-2.68-6-6z" stroke="#5e5e5e" stroke-width="3" fill="#fff"/><g><use xlink:href="#d" transform="matrix(1,0,0,1,902.3333333333333,1001.3333333333333) translate(76.77777777777779 65.78472222222221)"/><use xlink:href="#e" transform="matrix(1,0,0,1,902.3333333333333,1001.3333333333333) translate(74.25925925925927 87.11805555555553)"/></g><path d="M417.33 1002.33c0-3.3 2.7-6 6-6h188c3.32 0 6 2.7 6 6v148c0 3.32-2.68 6-6 6h-188c-3.3 0-6-2.68-6-6z" stroke="#5e5e5e" stroke-width="3" fill="#fff"/><g><use xlink:href="#f" transform="matrix(1,0,0,1,422.33333333333337,1001.3333333333333) translate(21.629629629629648 59.31944444444444)"/><use xlink:href="#I" transform="matrix(1,0,0,1,422.33333333333337,1001.3333333333333) translate(85.45061728395063 59.31944444444444)"/><use xlink:href="#J" transform="matrix(1,0,0,1,422.33333333333337,1001.3333333333333) translate(102.73456790123457 59.31944444444444)"/><use xlink:href="#m" transform="matrix(1,0,0,1,422.33333333333337,1001.3333333333333) translate(137.30246913580245 59.31944444444444)"/><use xlink:href="#n" transform="matrix(1,0,0,1,422.33333333333337,1001.3333333333333) translate(21.629629629629648 77.9861111111111)"/><use xlink:href="#o" transform="matrix(1,0,0,1,422.33333333333337,1001.3333333333333) translate(85.45061728395063 77.9861111111111)"/><use xlink:href="#p" transform="matrix(1,0,0,1,422.33333333333337,1001.3333333333333) translate(102.73456790123457 77.9861111111111)"/><use xlink:href="#q" transform="matrix(1,0,0,1,422.33333333333337,1001.3333333333333) translate(137.30246913580245 77.9861111111111)"/><use xlink:href="#n" transform="matrix(1,0,0,1,422.33333333333337,1001.3333333333333) translate(21.629629629629648 96.65277777777776)"/><use xlink:href="#r" transform="matrix(1,0,0,1,422.33333333333337,1001.3333333333333) translate(85.45061728395063 96.65277777777776)"/><use xlink:href="#s" transform="matrix(1,0,0,1,422.33333333333337,1001.3333333333333) translate(102.73456790123457 96.65277777777776)"/><use xlink:href="#K" transform="matrix(1,0,0,1,422.33333333333337,1001.3333333333333) translate(137.30246913580245 96.65277777777776)"/></g><path d="M657.33 1002.33c0-3.3 2.7-6 6-6h188c3.32 0 6 2.7 6 6v148c0 3.32-2.68 6-6 6h-188c-3.3 0-6-2.68-6-6z" stroke="#5e5e5e" stroke-width="3" fill="#fff"/><g><use xlink:href="#f" transform="matrix(1,0,0,1,662.3333333333333,1001.3333333333333) translate(21.629629629629648 59.31944444444444)"/><use xlink:href="#L" transform="matrix(1,0,0,1,662.3333333333333,1001.3333333333333) translate(85.45061728395063 59.31944444444444)"/><use xlink:href="#M" transform="matrix(1,0,0,1,662.3333333333333,1001.3333333333333) translate(102.73456790123457 59.31944444444444)"/><use xlink:href="#N" transform="matrix(1,0,0,1,662.3333333333333,1001.3333333333333) translate(137.30246913580245 59.31944444444444)"/><use xlink:href="#E" transform="matrix(1,0,0,1,662.3333333333333,1001.3333333333333) translate(21.629629629629648 77.9861111111111)"/><use xlink:href="#O" transform="matrix(1,0,0,1,662.3333333333333,1001.3333333333333) translate(85.45061728395063 77.9861111111111)"/><use xlink:href="#h" transform="matrix(1,0,0,1,662.3333333333333,1001.3333333333333) translate(102.73456790123457 77.9861111111111)"/><use xlink:href="#P" transform="matrix(1,0,0,1,662.3333333333333,1001.3333333333333) translate(137.30246913580245 77.9861111111111)"/><use xlink:href="#E" transform="matrix(1,0,0,1,662.3333333333333,1001.3333333333333) translate(21.629629629629648 96.65277777777776)"/><use xlink:href="#F" transform="matrix(1,0,0,1,662.3333333333333,1001.3333333333333) translate(85.45061728395063 96.65277777777776)"/><use xlink:href="#v" transform="matrix(1,0,0,1,662.3333333333333,1001.3333333333333) translate(102.73456790123457 96.65277777777776)"/><use xlink:href="#G" transform="matrix(1,0,0,1,662.3333333333333,1001.3333333333333) translate(137.30246913580245 96.65277777777776)"/></g><path d="M380 504c0-3.3 2.7-6 6-6h988c3.3 0 6 2.7 6 6v228c0 3.3-2.7 6-6 6H386c-3.3 0-6-2.7-6-6z" fill-opacity="0"/><path d="M400.97 498h6m11.96 0h6m11.97 0h5.98m11.98 0h6m11.96 0h6m11.97 0h5.98m11.97 0h6m11.97 0h5.98m11.98 0h6m11.96 0h6m11.97 0h6m11.97 0h6m11.96 0h6m11.97 0h5.98m11.98 0h6m11.96 0h6m11.97 0h5.98m11.97 0h6m11.97 0h5.98m11.98 0h6m11.96 0h6m11.97 0h6m11.97 0h6m11.96 0h6m11.97 0h5.98m11.98 0h6m11.96 0h6m11.97 0h5.98m11.97 0h6m11.97 0h5.98m11.98 0h6m11.96 0h6m11.97 0h6m11.97 0h6m11.96 0h6m11.97 0h5.98m11.98 0h6m11.96 0h6m11.97 0h5.98m11.97 0h6m11.97 0h5.98m11.98 0h6m11.96 0h6m11.97 0h6m11.97 0h6m11.96 0h6m11.97 0h5.98m11.98 0h6m11.96 0h6m11.97 0h5.98m11.97 0h6m11.97 0h5.98m11.98 0h6m11.96 0h6m11.97 0h3l3.03.82 2.15 2.15.82 3.03v2.92m0 11.7v5.84m0 11.7V542m0 11.7v5.84m0 11.7v5.84m0 11.7v5.84m0 11.7v5.83m0 11.7v5.84m0 11.68v5.85m0 11.7v5.84m0 11.7v5.84m0 11.7v5.85m0 11.7v5.83m0 11.7V732l-.82 3.03-2.15 2.15-3.03.82h-3m-11.97 0h-6m-11.96 0h-6m-11.97 0h-5.98m-11.98 0h-6m-11.96 0h-6m-11.97 0h-5.98m-11.97 0h-6m-11.97 0h-5.98m-11.98 0h-6m-11.96 0h-6m-11.97 0h-6m-11.97 0h-6m-11.96 0h-6m-11.97 0h-5.98m-11.98 0h-6m-11.96 0h-6m-11.97 0h-5.98m-11.97 0h-6m-11.97 0h-5.98m-11.98 0h-6m-11.96 0h-6m-11.97 0h-6m-11.97 0h-6m-11.96 0h-6m-11.97 0h-5.98m-11.98 0h-6M892 738h-6m-11.97 0h-5.98m-11.97 0h-6m-11.97 0h-5.98m-11.98 0h-6m-11.96 0h-6m-11.97 0h-6m-11.97 0h-6m-11.96 0h-6m-11.97 0h-5.98m-11.98 0h-6m-11.96 0h-6m-11.97 0h-5.98m-11.97 0h-6m-11.97 0h-5.98m-11.98 0h-6m-11.96 0h-6m-11.97 0h-6m-11.97 0h-6m-11.96 0h-6m-11.97 0h-5.98m-11.98 0h-6m-11.96 0h-6m-11.97 0h-5.98m-11.97 0h-6m-11.97 0h-5.98m-11.98 0h-6m-11.96 0h-6M389 738h-3l-3.03-.82-2.15-2.15L380 732v-2.92m0-11.7v-5.84m0-11.7V694m0-11.7v-5.84m0-11.7v-5.84m0-11.7v-5.84m0-11.7v-5.83m0-11.7v-5.84m0-11.68v-5.85m0-11.7v-5.84m0-11.7v-5.84m0-11.7v-5.85m0-11.7v-5.83m0-11.7V504l.82-3.03 2.15-2.15L386 498h3" stroke="#5e5e5e" stroke-width="3" fill="none"/><path d="M1217.33 904c0-3.3 2.7-6 6-6h228c3.32 0 6 2.7 6 6v48c0 3.3-2.68 6-6 6h-228c-3.3 0-6-2.7-6-6z" stroke="#000" stroke-opacity="0" stroke-width="3" fill="#fff" fill-opacity="0"/><g><use xlink:href="#H" transform="matrix(1,0,0,1,1222.3333333333335,903) translate(93.45679012345678 30.27777777777778)"/></g><path d="M880 740.5v161" stroke="#5e5e5e" stroke-width="2" fill="none"/><path d="M881 740.53h-2v-1.03h2z" fill="#5e5e5e"/><path d="M880 916.76l-4.64-14.26h9.28z" stroke="#5e5e5e" stroke-width="2" fill="#5e5e5e"/><path d="M600 821.5c0-3.3 2.7-6 6-6h294.67c3.3 0 6 2.7 6 6v51.33c0 3.32-2.7 6-6 6H606c-3.3 0-6-2.68-6-6z" stroke="#000" stroke-opacity="0" stroke-width="3" fill="#fff" fill-opacity="0"/><g><use xlink:href="#Q" transform="matrix(1,0,0,1,605,820.5) translate(58.623456790123456 31.27777777777778)"/><use xlink:href="#R" transform="matrix(1,0,0,1,605,820.5) translate(110.35185185185185 31.27777777777778)"/></g><path d="M100 564c0-3.3 2.7-6 6-6h188c3.3 0 6 2.7 6 6v104.67c0 3.3-2.7 6-6 6H106c-3.3 0-6-2.7-6-6z" stroke="#000" stroke-opacity="0" stroke-width="3" fill="#fff" fill-opacity="0"/><g><use xlink:href="#Q" transform="matrix(1,0,0,1,105,563) translate(33.425925925925924 31.15277777777778)"/><use xlink:href="#S" transform="matrix(1,0,0,1,105,563) translate(85.15432098765433 31.15277777777778)"/><use xlink:href="#T" transform="matrix(1,0,0,1,105,563) translate(20.4320987654321 57.81944444444445)"/><use xlink:href="#U" transform="matrix(1,0,0,1,105,563) translate(90.67901234567901 57.81944444444445)"/><use xlink:href="#V" transform="matrix(1,0,0,1,105,563) translate(48.73456790123457 84.48611111111111)"/><use xlink:href="#W" transform="matrix(1,0,0,1,105,563) translate(95.58641975308643 84.48611111111111)"/></g><defs><path fill="#333" d="M30-248c87 1 191-15 191 75 0 78-77 80-158 76V0H30v-248zm33 125c57 0 124 11 124-50 0-59-68-47-124-48v98" id="X"/><path fill="#333" d="M141-36C126-15 110 5 73 4 37 3 15-17 15-53c-1-64 63-63 125-63 3-35-9-54-41-54-24 1-41 7-42 31l-33-3c5-37 33-52 76-52 45 0 72 20 72 64v82c-1 20 7 32 28 27v20c-31 9-61-2-59-35zM48-53c0 20 12 33 32 33 41-3 63-29 60-74-43 2-92-5-92 41" id="Y"/><path fill="#333" d="M177-190C167-65 218 103 67 71c-23-6-38-20-44-43l32-5c15 47 100 32 89-28v-30C133-14 115 1 83 1 29 1 15-40 15-95c0-56 16-97 71-98 29-1 48 16 59 35 1-10 0-23 2-32h30zM94-22c36 0 50-32 50-73 0-42-14-75-50-75-39 0-46 34-46 75s6 73 46 73" id="Z"/><path fill="#333" d="M100-194c63 0 86 42 84 106H49c0 40 14 67 53 68 26 1 43-12 49-29l28 8c-11 28-37 45-77 45C44 4 14-33 15-96c1-61 26-98 85-98zm52 81c6-60-76-77-97-28-3 7-6 17-6 28h103" id="aa"/><g id="a"><use transform="matrix(0.06172839506172839,0,0,0.06172839506172839,0,0)" xlink:href="#X"/><use transform="matrix(0.06172839506172839,0,0,0.06172839506172839,14.814814814814813,0)" xlink:href="#Y"/><use transform="matrix(0.06172839506172839,0,0,0.06172839506172839,27.160493827160494,0)" xlink:href="#Z"/><use transform="matrix(0.06172839506172839,0,0,0.06172839506172839,39.50617283950617,0)" xlink:href="#aa"/></g><path fill="#333" d="M27 0v-27h64v-190l-56 39v-29l58-41h29v221h61V0H27" id="ab"/><use transform="matrix(0.06172839506172839,0,0,0.06172839506172839,0,0)" xlink:href="#ab" id="b"/><path fill="#333" d="M101-251c82-7 93 87 43 132L82-64C71-53 59-42 53-27h129V0H18c2-99 128-94 128-182 0-28-16-43-45-43s-46 15-49 41l-32-3c6-41 34-60 81-64" id="ac"/><use transform="matrix(0.06172839506172839,0,0,0.06172839506172839,0,0)" xlink:href="#ac" id="c"/><path fill="#333" d="M63-220v92h138v28H63V0H30v-248h175v28H63" id="ad"/><path fill="#333" d="M114-163C36-179 61-72 57 0H25l-1-190h30c1 12-1 29 2 39 6-27 23-49 58-41v29" id="ae"/><g id="d"><use transform="matrix(0.04938271604938268,0,0,0.04938271604938268,0,0)" xlink:href="#ad"/><use transform="matrix(0.04938271604938268,0,0,0.04938271604938268,10.814814814814806,0)" xlink:href="#ae"/><use transform="matrix(0.04938271604938268,0,0,0.04938271604938268,16.691358024691347,0)" xlink:href="#aa"/><use transform="matrix(0.04938271604938268,0,0,0.04938271604938268,26.567901234567888,0)" xlink:href="#aa"/></g><g id="e"><use transform="matrix(0.04938271604938268,0,0,0.04938271604938268,0,0)" xlink:href="#X"/><use transform="matrix(0.04938271604938268,0,0,0.04938271604938268,11.851851851851842,0)" xlink:href="#Y"/><use transform="matrix(0.04938271604938268,0,0,0.04938271604938268,21.728395061728378,0)" xlink:href="#Z"/><use transform="matrix(0.04938271604938268,0,0,0.04938271604938268,31.604938271604915,0)" xlink:href="#aa"/></g><path fill="#333" d="M233-177c-1 41-23 64-60 70L243 0h-38l-65-103H63V0H30v-248c88 3 205-21 203 71zM63-129c60-2 137 13 137-47 0-61-80-42-137-45v92" id="af"/><path fill="#333" d="M108 0H70L1-190h34L89-25l56-165h34" id="ag"/><path fill="#333" d="M24-231v-30h32v30H24zM24 0v-190h32V0H24" id="ah"/><path fill="#333" d="M135-143c-3-34-86-38-87 0 15 53 115 12 119 90S17 21 10-45l28-5c4 36 97 45 98 0-10-56-113-15-118-90-4-57 82-63 122-42 12 7 21 19 24 35" id="ai"/><path fill="#333" d="M100-194c62-1 85 37 85 99 1 63-27 99-86 99S16-35 15-95c0-66 28-99 85-99zM99-20c44 1 53-31 53-75 0-43-8-75-51-75s-53 32-53 75 10 74 51 75" id="aj"/><path fill="#333" d="M117-194c89-4 53 116 60 194h-32v-121c0-31-8-49-39-48C34-167 62-67 57 0H25l-1-190h30c1 10-1 24 2 32 11-22 29-35 61-36" id="ak"/><g id="f"><use transform="matrix(0.04320987654320987,0,0,0.04320987654320987,0,0)" xlink:href="#af"/><use transform="matrix(0.04320987654320987,0,0,0.04320987654320987,11.191358024691356,0)" xlink:href="#aa"/><use transform="matrix(0.04320987654320987,0,0,0.04320987654320987,19.83333333333333,0)" xlink:href="#ag"/><use transform="matrix(0.04320987654320987,0,0,0.04320987654320987,27.611111111111104,0)" xlink:href="#ah"/><use transform="matrix(0.04320987654320987,0,0,0.04320987654320987,31.024691358024686,0)" xlink:href="#ai"/><use transform="matrix(0.04320987654320987,0,0,0.04320987654320987,38.80246913580246,0)" xlink:href="#ah"/><use transform="matrix(0.04320987654320987,0,0,0.04320987654320987,42.216049382716044,0)" xlink:href="#aj"/><use transform="matrix(0.04320987654320987,0,0,0.04320987654320987,50.85802469135801,0)" xlink:href="#ak"/></g><path fill="#333" d="M33-154v-36h34v36H33zM33 0v-36h34V0H33" id="al"/><g id="g"><use transform="matrix(0.04320987654320987,0,0,0.04320987654320987,0,0)" xlink:href="#ab"/><use transform="matrix(0.04320987654320987,0,0,0.04320987654320987,8.641975308641973,0)" xlink:href="#al"/></g><path fill="#c92d39" d="M101-234c-31-9-42 10-38 44h38v23H63V0H32v-167H5v-23h27c-7-52 17-82 69-68v24" id="am"/><path fill="#c92d39" d="M100-194c62-1 85 37 85 99 1 63-27 99-86 99S16-35 15-95c0-66 28-99 85-99zM99-20c44 1 53-31 53-75 0-43-8-75-51-75s-53 32-53 75 10 74 51 75" id="an"/><path fill="#c92d39" d="M101-251c68 0 85 55 85 127S166 4 100 4C33 4 14-52 14-124c0-73 17-127 87-127zm-1 229c47 0 54-49 54-102s-4-102-53-102c-51 0-55 48-55 102 0 53 5 102 54 102" id="ao"/><g id="h"><use transform="matrix(0.04320987654320987,0,0,0.04320987654320987,0,0)" xlink:href="#am"/><use transform="matrix(0.04320987654320987,0,0,0.04320987654320987,4.320987654320986,0)" xlink:href="#an"/><use transform="matrix(0.04320987654320987,0,0,0.04320987654320987,12.962962962962958,0)" xlink:href="#an"/><use transform="matrix(0.04320987654320987,0,0,0.04320987654320987,21.60493827160493,0)" xlink:href="#ao"/></g><path fill="#333" d="M115-194c53 0 69 39 70 98 0 66-23 100-70 100C84 3 66-7 56-30L54 0H23l1-261h32v101c10-23 28-34 59-34zm-8 174c40 0 45-34 45-75 0-40-5-75-45-74-42 0-51 32-51 76 0 43 10 73 51 73" id="ap"/><path fill="#333" d="M101-251c68 0 85 55 85 127S166 4 100 4C33 4 14-52 14-124c0-73 17-127 87-127zm-1 229c47 0 54-49 54-102s-4-102-53-102c-51 0-55 48-55 102 0 53 5 102 54 102" id="aq"/><g id="i"><use transform="matrix(0.04320987654320987,0,0,0.04320987654320987,0,0)" xlink:href="#ap"/><use transform="matrix(0.04320987654320987,0,0,0.04320987654320987,8.641975308641973,0)" xlink:href="#Y"/><use transform="matrix(0.04320987654320987,0,0,0.04320987654320987,17.283950617283946,0)" xlink:href="#ae"/><use transform="matrix(0.04320987654320987,0,0,0.04320987654320987,22.42592592592592,0)" xlink:href="#aq"/></g><g id="j"><use transform="matrix(0.04320987654320987,0,0,0.04320987654320987,0,0)" xlink:href="#af"/><use transform="matrix(0.04320987654320987,0,0,0.04320987654320987,11.191358024691356,0)" xlink:href="#aa"/><use transform="matrix(0.04320987654320987,0,0,0.04320987654320987,19.83333333333333,0)" xlink:href="#ag"/><use transform="matrix(0.04320987654320987,0,0,0.04320987654320987,27.611111111111104,0)" xlink:href="#ah"/><use transform="matrix(0.04320987654320987,0,0,0.04320987654320987,31.024691358024686,0)" xlink:href="#ai"/><use transform="matrix(0.04320987654320987,0,0,0.04320987654320987,38.80246913580246,0)" xlink:href="#ah"/><use transform="matrix(0.04320987654320987,0,0,0.04320987654320987,42.216049382716044,0)" xlink:href="#aj"/><use transform="matrix(0.04320987654320987,0,0,0.04320987654320987,50.85802469135801,0)" xlink:href="#ak"/></g><g id="k"><use transform="matrix(0.04320987654320987,0,0,0.04320987654320987,0,0)" xlink:href="#ac"/><use transform="matrix(0.04320987654320987,0,0,0.04320987654320987,8.641975308641973,0)" xlink:href="#al"/></g><path fill="#333" d="M101-234c-31-9-42 10-38 44h38v23H63V0H32v-167H5v-23h27c-7-52 17-82 69-68v24" id="ar"/><g id="l"><use transform="matrix(0.04320987654320987,0,0,0.04320987654320987,0,0)" xlink:href="#ar"/><use transform="matrix(0.04320987654320987,0,0,0.04320987654320987,4.320987654320986,0)" xlink:href="#aj"/><use transform="matrix(0.04320987654320987,0,0,0.04320987654320987,12.962962962962958,0)" xlink:href="#aj"/><use transform="matrix(0.04320987654320987,0,0,0.04320987654320987,21.60493827160493,0)" xlink:href="#ab"/></g><g id="m"><use transform="matrix(0.04320987654320987,0,0,0.04320987654320987,0,0)" xlink:href="#ap"/><use transform="matrix(0.04320987654320987,0,0,0.04320987654320987,8.641975308641973,0)" xlink:href="#Y"/><use transform="matrix(0.04320987654320987,0,0,0.04320987654320987,17.283950617283946,0)" xlink:href="#ae"/><use transform="matrix(0.04320987654320987,0,0,0.04320987654320987,22.42592592592592,0)" xlink:href="#ab"/></g><g id="n"><use transform="matrix(0.04320987654320987,0,0,0.04320987654320987,0,0)" xlink:href="#af"/><use transform="matrix(0.04320987654320987,0,0,0.04320987654320987,11.191358024691356,0)" xlink:href="#aa"/><use transform="matrix(0.04320987654320987,0,0,0.04320987654320987,19.83333333333333,0)" xlink:href="#ag"/><use transform="matrix(0.04320987654320987,0,0,0.04320987654320987,27.611111111111104,0)" xlink:href="#ah"/><use transform="matrix(0.04320987654320987,0,0,0.04320987654320987,31.024691358024686,0)" xlink:href="#ai"/><use transform="matrix(0.04320987654320987,0,0,0.04320987654320987,38.80246913580246,0)" xlink:href="#ah"/><use transform="matrix(0.04320987654320987,0,0,0.04320987654320987,42.216049382716044,0)" xlink:href="#aj"/><use transform="matrix(0.04320987654320987,0,0,0.04320987654320987,50.85802469135801,0)" xlink:href="#ak"/></g><path fill="#333" d="M126-127c33 6 58 20 58 59 0 88-139 92-164 29-3-8-5-16-6-25l32-3c6 27 21 44 54 44 32 0 52-15 52-46 0-38-36-46-79-43v-28c39 1 72-4 72-42 0-27-17-43-46-43-28 0-47 15-49 41l-32-3c6-42 35-63 81-64 48-1 79 21 79 65 0 36-21 52-52 59" id="as"/><g id="o"><use transform="matrix(0.04320987654320987,0,0,0.04320987654320987,0,0)" xlink:href="#as"/><use transform="matrix(0.04320987654320987,0,0,0.04320987654320987,8.641975308641973,0)" xlink:href="#al"/></g><g id="p"><use transform="matrix(0.04320987654320987,0,0,0.04320987654320987,0,0)" xlink:href="#ar"/><use transform="matrix(0.04320987654320987,0,0,0.04320987654320987,4.320987654320986,0)" xlink:href="#aj"/><use transform="matrix(0.04320987654320987,0,0,0.04320987654320987,12.962962962962958,0)" xlink:href="#aj"/><use transform="matrix(0.04320987654320987,0,0,0.04320987654320987,21.60493827160493,0)" xlink:href="#ac"/></g><g id="q"><use transform="matrix(0.04320987654320987,0,0,0.04320987654320987,0,0)" xlink:href="#ap"/><use transform="matrix(0.04320987654320987,0,0,0.04320987654320987,8.641975308641973,0)" xlink:href="#Y"/><use transform="matrix(0.04320987654320987,0,0,0.04320987654320987,17.283950617283946,0)" xlink:href="#ae"/><use transform="matrix(0.04320987654320987,0,0,0.04320987654320987,22.42592592592592,0)" xlink:href="#ac"/></g><path fill="#333" d="M155-56V0h-30v-56H8v-25l114-167h33v167h35v25h-35zm-30-156c-27 46-58 90-88 131h88v-131" id="at"/><g id="r"><use transform="matrix(0.04320987654320987,0,0,0.04320987654320987,0,0)" xlink:href="#at"/><use transform="matrix(0.04320987654320987,0,0,0.04320987654320987,8.641975308641973,0)" xlink:href="#al"/></g><g id="s"><use transform="matrix(0.04320987654320987,0,0,0.04320987654320987,0,0)" xlink:href="#ar"/><use transform="matrix(0.04320987654320987,0,0,0.04320987654320987,4.320987654320986,0)" xlink:href="#aj"/><use transform="matrix(0.04320987654320987,0,0,0.04320987654320987,12.962962962962958,0)" xlink:href="#aj"/><use transform="matrix(0.04320987654320987,0,0,0.04320987654320987,21.60493827160493,0)" xlink:href="#as"/></g><g id="t"><use transform="matrix(0.04320987654320987,0,0,0.04320987654320987,0,0)" xlink:href="#ap"/><use transform="matrix(0.04320987654320987,0,0,0.04320987654320987,8.641975308641973,0)" xlink:href="#Y"/><use transform="matrix(0.04320987654320987,0,0,0.04320987654320987,17.283950617283946,0)" xlink:href="#ae"/><use transform="matrix(0.04320987654320987,0,0,0.04320987654320987,22.42592592592592,0)" xlink:href="#as"/></g><path fill="#333" d="M54-142c48-35 137-8 131 61C196 18 31 33 14-55l32-4c7 23 22 37 52 37 35-1 51-22 54-58 4-55-73-65-99-34H22l8-134h141v27H59" id="au"/><g id="u"><use transform="matrix(0.04320987654320987,0,0,0.04320987654320987,0,0)" xlink:href="#au"/><use transform="matrix(0.04320987654320987,0,0,0.04320987654320987,8.641975308641973,0)" xlink:href="#al"/></g><path fill="#0c7cba" d="M101-234c-31-9-42 10-38 44h38v23H63V0H32v-167H5v-23h27c-7-52 17-82 69-68v24" id="av"/><path fill="#0c7cba" d="M100-194c62-1 85 37 85 99 1 63-27 99-86 99S16-35 15-95c0-66 28-99 85-99zM99-20c44 1 53-31 53-75 0-43-8-75-51-75s-53 32-53 75 10 74 51 75" id="aw"/><path fill="#0c7cba" d="M155-56V0h-30v-56H8v-25l114-167h33v167h35v25h-35zm-30-156c-27 46-58 90-88 131h88v-131" id="ax"/><g id="v"><use transform="matrix(0.04320987654320987,0,0,0.04320987654320987,0,0)" xlink:href="#av"/><use transform="matrix(0.04320987654320987,0,0,0.04320987654320987,4.320987654320986,0)" xlink:href="#aw"/><use transform="matrix(0.04320987654320987,0,0,0.04320987654320987,12.962962962962958,0)" xlink:href="#aw"/><use transform="matrix(0.04320987654320987,0,0,0.04320987654320987,21.60493827160493,0)" xlink:href="#ax"/></g><g id="w"><use transform="matrix(0.04320987654320987,0,0,0.04320987654320987,0,0)" xlink:href="#ap"/><use transform="matrix(0.04320987654320987,0,0,0.04320987654320987,8.641975308641973,0)" xlink:href="#Y"/><use transform="matrix(0.04320987654320987,0,0,0.04320987654320987,17.283950617283946,0)" xlink:href="#ae"/><use transform="matrix(0.04320987654320987,0,0,0.04320987654320987,22.42592592592592,0)" xlink:href="#at"/></g><g id="x"><use transform="matrix(0.04320987654320987,0,0,0.04320987654320987,0,0)" xlink:href="#af"/><use transform="matrix(0.04320987654320987,0,0,0.04320987654320987,11.191358024691356,0)" xlink:href="#aa"/><use transform="matrix(0.04320987654320987,0,0,0.04320987654320987,19.83333333333333,0)" xlink:href="#ag"/><use transform="matrix(0.04320987654320987,0,0,0.04320987654320987,27.611111111111104,0)" xlink:href="#ah"/><use transform="matrix(0.04320987654320987,0,0,0.04320987654320987,31.024691358024686,0)" xlink:href="#ai"/><use transform="matrix(0.04320987654320987,0,0,0.04320987654320987,38.80246913580246,0)" xlink:href="#ah"/><use transform="matrix(0.04320987654320987,0,0,0.04320987654320987,42.216049382716044,0)" xlink:href="#aj"/><use transform="matrix(0.04320987654320987,0,0,0.04320987654320987,50.85802469135801,0)" xlink:href="#ak"/></g><path fill="#333" d="M110-160c48 1 74 30 74 79 0 53-28 85-80 85-65 0-83-55-86-122-5-90 50-162 133-122 14 7 22 21 27 39l-31 6c-5-40-67-38-82-6-9 19-15 44-15 74 11-20 30-34 60-33zm-7 138c34 0 49-23 49-58s-16-56-50-56c-29 0-50 16-49 49 1 36 15 65 50 65" id="ay"/><g id="y"><use transform="matrix(0.04320987654320987,0,0,0.04320987654320987,0,0)" xlink:href="#ay"/><use transform="matrix(0.04320987654320987,0,0,0.04320987654320987,8.641975308641973,0)" xlink:href="#al"/></g><g id="z"><use transform="matrix(0.04320987654320987,0,0,0.04320987654320987,0,0)" xlink:href="#ar"/><use transform="matrix(0.04320987654320987,0,0,0.04320987654320987,4.320987654320986,0)" xlink:href="#aj"/><use transform="matrix(0.04320987654320987,0,0,0.04320987654320987,12.962962962962958,0)" xlink:href="#aj"/><use transform="matrix(0.04320987654320987,0,0,0.04320987654320987,21.60493827160493,0)" xlink:href="#au"/></g><g id="A"><use transform="matrix(0.04320987654320987,0,0,0.04320987654320987,0,0)" xlink:href="#ap"/><use transform="matrix(0.04320987654320987,0,0,0.04320987654320987,8.641975308641973,0)" xlink:href="#Y"/><use transform="matrix(0.04320987654320987,0,0,0.04320987654320987,17.283950617283946,0)" xlink:href="#ae"/><use transform="matrix(0.04320987654320987,0,0,0.04320987654320987,22.42592592592592,0)" xlink:href="#au"/></g><path fill="#333" d="M64 0c3-98 48-159 88-221H18v-27h164v26C143-157 98-101 97 0H64" id="az"/><g id="B"><use transform="matrix(0.04320987654320987,0,0,0.04320987654320987,0,0)" xlink:href="#az"/><use transform="matrix(0.04320987654320987,0,0,0.04320987654320987,8.641975308641973,0)" xlink:href="#al"/></g><g id="C"><use transform="matrix(0.04320987654320987,0,0,0.04320987654320987,0,0)" xlink:href="#am"/><use transform="matrix(0.04320987654320987,0,0,0.04320987654320987,4.320987654320986,0)" xlink:href="#an"/><use transform="matrix(0.04320987654320987,0,0,0.04320987654320987,12.962962962962958,0)" xlink:href="#an"/><use transform="matrix(0.04320987654320987,0,0,0.04320987654320987,21.60493827160493,0)" xlink:href="#ao"/></g><g id="D"><use transform="matrix(0.04320987654320987,0,0,0.04320987654320987,0,0)" xlink:href="#ap"/><use transform="matrix(0.04320987654320987,0,0,0.04320987654320987,8.641975308641973,0)" xlink:href="#Y"/><use transform="matrix(0.04320987654320987,0,0,0.04320987654320987,17.283950617283946,0)" xlink:href="#ae"/><use transform="matrix(0.04320987654320987,0,0,0.04320987654320987,22.42592592592592,0)" xlink:href="#aq"/></g><g id="E"><use transform="matrix(0.04320987654320987,0,0,0.04320987654320987,0,0)" xlink:href="#af"/><use transform="matrix(0.04320987654320987,0,0,0.04320987654320987,11.191358024691356,0)" xlink:href="#aa"/><use transform="matrix(0.04320987654320987,0,0,0.04320987654320987,19.83333333333333,0)" xlink:href="#ag"/><use transform="matrix(0.04320987654320987,0,0,0.04320987654320987,27.611111111111104,0)" xlink:href="#ah"/><use transform="matrix(0.04320987654320987,0,0,0.04320987654320987,31.024691358024686,0)" xlink:href="#ai"/><use transform="matrix(0.04320987654320987,0,0,0.04320987654320987,38.80246913580246,0)" xlink:href="#ah"/><use transform="matrix(0.04320987654320987,0,0,0.04320987654320987,42.216049382716044,0)" xlink:href="#aj"/><use transform="matrix(0.04320987654320987,0,0,0.04320987654320987,50.85802469135801,0)" xlink:href="#ak"/></g><path fill="#333" d="M134-131c28 9 52 24 51 62-1 50-34 73-85 73S17-19 16-69c0-36 21-54 49-61-75-25-45-126 34-121 46 3 78 18 79 63 0 33-17 51-44 57zm-34-11c31 1 46-15 46-44 0-28-17-43-47-42-29 0-46 13-45 42 1 28 16 44 46 44zm1 122c35 0 51-18 51-52 0-30-18-46-53-46-33 0-51 17-51 47 0 34 19 51 53 51" id="aA"/><g id="F"><use transform="matrix(0.04320987654320987,0,0,0.04320987654320987,0,0)" xlink:href="#aA"/><use transform="matrix(0.04320987654320987,0,0,0.04320987654320987,8.641975308641973,0)" xlink:href="#al"/></g><g id="G"><use transform="matrix(0.04320987654320987,0,0,0.04320987654320987,0,0)" xlink:href="#ap"/><use transform="matrix(0.04320987654320987,0,0,0.04320987654320987,8.641975308641973,0)" xlink:href="#Y"/><use transform="matrix(0.04320987654320987,0,0,0.04320987654320987,17.283950617283946,0)" xlink:href="#ae"/><use transform="matrix(0.04320987654320987,0,0,0.04320987654320987,22.42592592592592,0)" xlink:href="#at"/></g><path fill="#333" d="M30-248c118-7 216 8 213 122C240-48 200 0 122 0H30v-248zM63-27c89 8 146-16 146-99s-60-101-146-95v194" id="aB"/><path fill="#333" d="M143 0L79-87 56-68V0H24v-261h32v163l83-92h37l-77 82L181 0h-38" id="aC"/><g id="H"><use transform="matrix(0.06172839506172839,0,0,0.06172839506172839,0,0)" xlink:href="#aB"/><use transform="matrix(0.06172839506172839,0,0,0.06172839506172839,15.987654320987653,0)" xlink:href="#ah"/><use transform="matrix(0.06172839506172839,0,0,0.06172839506172839,20.864197530864196,0)" xlink:href="#ai"/><use transform="matrix(0.06172839506172839,0,0,0.06172839506172839,31.975308641975307,0)" xlink:href="#aC"/></g><g id="I"><use transform="matrix(0.04320987654320987,0,0,0.04320987654320987,0,0)" xlink:href="#ac"/><use transform="matrix(0.04320987654320987,0,0,0.04320987654320987,8.641975308641973,0)" xlink:href="#al"/></g><g id="J"><use transform="matrix(0.04320987654320987,0,0,0.04320987654320987,0,0)" xlink:href="#ar"/><use transform="matrix(0.04320987654320987,0,0,0.04320987654320987,4.320987654320986,0)" xlink:href="#aj"/><use transform="matrix(0.04320987654320987,0,0,0.04320987654320987,12.962962962962958,0)" xlink:href="#aj"/><use transform="matrix(0.04320987654320987,0,0,0.04320987654320987,21.60493827160493,0)" xlink:href="#ab"/></g><g id="K"><use transform="matrix(0.04320987654320987,0,0,0.04320987654320987,0,0)" xlink:href="#ap"/><use transform="matrix(0.04320987654320987,0,0,0.04320987654320987,8.641975308641973,0)" xlink:href="#Y"/><use transform="matrix(0.04320987654320987,0,0,0.04320987654320987,17.283950617283946,0)" xlink:href="#ae"/><use transform="matrix(0.04320987654320987,0,0,0.04320987654320987,22.42592592592592,0)" xlink:href="#as"/></g><g id="L"><use transform="matrix(0.04320987654320987,0,0,0.04320987654320987,0,0)" xlink:href="#ay"/><use transform="matrix(0.04320987654320987,0,0,0.04320987654320987,8.641975308641973,0)" xlink:href="#al"/></g><g id="M"><use transform="matrix(0.04320987654320987,0,0,0.04320987654320987,0,0)" xlink:href="#ar"/><use transform="matrix(0.04320987654320987,0,0,0.04320987654320987,4.320987654320986,0)" xlink:href="#aj"/><use transform="matrix(0.04320987654320987,0,0,0.04320987654320987,12.962962962962958,0)" xlink:href="#aj"/><use transform="matrix(0.04320987654320987,0,0,0.04320987654320987,21.60493827160493,0)" xlink:href="#au"/></g><g id="N"><use transform="matrix(0.04320987654320987,0,0,0.04320987654320987,0,0)" xlink:href="#ap"/><use transform="matrix(0.04320987654320987,0,0,0.04320987654320987,8.641975308641973,0)" xlink:href="#Y"/><use transform="matrix(0.04320987654320987,0,0,0.04320987654320987,17.283950617283946,0)" xlink:href="#ae"/><use transform="matrix(0.04320987654320987,0,0,0.04320987654320987,22.42592592592592,0)" xlink:href="#au"/></g><g id="O"><use transform="matrix(0.04320987654320987,0,0,0.04320987654320987,0,0)" xlink:href="#az"/><use transform="matrix(0.04320987654320987,0,0,0.04320987654320987,8.641975308641973,0)" xlink:href="#al"/></g><g id="P"><use transform="matrix(0.04320987654320987,0,0,0.04320987654320987,0,0)" xlink:href="#ap"/><use transform="matrix(0.04320987654320987,0,0,0.04320987654320987,8.641975308641973,0)" xlink:href="#Y"/><use transform="matrix(0.04320987654320987,0,0,0.04320987654320987,17.283950617283946,0)" xlink:href="#ae"/><use transform="matrix(0.04320987654320987,0,0,0.04320987654320987,22.42592592592592,0)" xlink:href="#aq"/></g><path fill="#333" d="M185-48c-13 30-37 53-82 52C43 2 14-33 14-96s30-98 90-98c62 0 83 45 84 108H66c0 31 8 55 39 56 18 0 30-7 34-22zm-45-69c5-46-57-63-70-21-2 6-4 13-4 21h74" id="aD"/><path fill="#333" d="M115-3C79 11 28 4 28-45v-112H4v-33h27l15-45h31v45h36v33H77v99c-1 23 16 31 38 25v30" id="aE"/><path fill="#333" d="M190-63c-7 42-38 67-86 67-59 0-84-38-90-98-12-110 154-137 174-36l-49 2c-2-19-15-32-35-32-30 0-35 28-38 64-6 74 65 87 74 30" id="aF"/><path fill="#333" d="M88-194c31-1 46 15 58 34l-1-101h50l1 261h-48c-2-10 0-23-3-31C134-8 116 4 84 4 32 4 16-41 15-95c0-56 19-97 73-99zm17 164c33 0 40-30 41-66 1-37-9-64-41-64s-38 30-39 65c0 43 13 65 39 65" id="aG"/><g id="Q"><use transform="matrix(0.06172839506172839,0,0,0.06172839506172839,0,0)" xlink:href="#aD"/><use transform="matrix(0.06172839506172839,0,0,0.06172839506172839,12.345679012345679,0)" xlink:href="#aE"/><use transform="matrix(0.06172839506172839,0,0,0.06172839506172839,19.691358024691358,0)" xlink:href="#aF"/><use transform="matrix(0.06172839506172839,0,0,0.06172839506172839,32.03703703703704,0)" xlink:href="#aG"/></g><path fill="#333" d="M67-125c0 53 21 87 73 88 37 1 54-22 65-47l45 17C233-25 199 4 140 4 58 4 20-42 15-125 8-235 124-281 211-232c18 10 29 29 36 50l-46 12c-8-25-30-41-62-41-52 0-71 34-72 86" id="aH"/><path fill="#333" d="M110-194c64 0 96 36 96 99 0 64-35 99-97 99-61 0-95-36-95-99 0-62 34-99 96-99zm-1 164c35 0 45-28 45-65 0-40-10-65-43-65-34 0-45 26-45 65 0 36 10 65 43 65" id="aI"/><path fill="#333" d="M220-157c-53 9-28 100-34 157h-49v-107c1-27-5-49-29-50C55-147 81-57 75 0H25l-1-190h47c2 12-1 28 3 38 10-53 101-56 108 0 13-22 24-43 59-42 82 1 51 116 57 194h-49v-107c-1-25-5-48-29-50" id="aJ"/><path fill="#333" d="M135-194c53 0 70 44 70 98 0 56-19 98-73 100-31 1-45-17-59-34 3 33 2 69 2 105H25l-1-265h48c2 10 0 23 3 31 11-24 29-35 60-35zM114-30c33 0 39-31 40-66 0-38-9-64-40-64-56 0-55 130 0 130" id="aK"/><path fill="#333" d="M133-34C117-15 103 5 69 4 32 3 11-16 11-54c-1-60 55-63 116-61 1-26-3-47-28-47-18 1-26 9-28 27l-52-2c7-38 36-58 82-57s74 22 75 68l1 82c-1 14 12 18 25 15v27c-30 8-71 5-69-32zm-48 3c29 0 43-24 42-57-32 0-66-3-65 30 0 17 8 27 23 27" id="aL"/><path fill="#333" d="M25-224v-37h50v37H25zM25 0v-190h50V0H25" id="aM"/><path fill="#333" d="M135-194c87-1 58 113 63 194h-50c-7-57 23-157-34-157-59 0-34 97-39 157H25l-1-190h47c2 12-1 28 3 38 12-26 28-41 61-42" id="aN"/><g id="R"><use transform="matrix(0.06172839506172839,0,0,0.06172839506172839,0,0)" xlink:href="#aH"/><use transform="matrix(0.06172839506172839,0,0,0.06172839506172839,15.987654320987653,0)" xlink:href="#aI"/><use transform="matrix(0.06172839506172839,0,0,0.06172839506172839,29.50617283950617,0)" xlink:href="#aJ"/><use transform="matrix(0.06172839506172839,0,0,0.06172839506172839,49.25925925925925,0)" xlink:href="#aK"/><use transform="matrix(0.06172839506172839,0,0,0.06172839506172839,62.77777777777777,0)" xlink:href="#aL"/><use transform="matrix(0.06172839506172839,0,0,0.06172839506172839,75.12345679012346,0)" xlink:href="#aF"/><use transform="matrix(0.06172839506172839,0,0,0.06172839506172839,87.46913580246914,0)" xlink:href="#aE"/><use transform="matrix(0.06172839506172839,0,0,0.06172839506172839,94.81481481481482,0)" xlink:href="#aM"/><use transform="matrix(0.06172839506172839,0,0,0.06172839506172839,100.98765432098766,0)" xlink:href="#aI"/><use transform="matrix(0.06172839506172839,0,0,0.06172839506172839,114.50617283950618,0)" xlink:href="#aN"/></g><path fill="#333" d="M85 4C-2 5 27-109 22-190h50c7 57-23 150 33 157 60-5 35-97 40-157h50l1 190h-47c-2-12 1-28-3-38-12 25-28 42-61 42" id="aO"/><path fill="#333" d="M137-138c1-29-70-34-71-4 15 46 118 7 119 86 1 83-164 76-172 9l43-7c4 19 20 25 44 25 33 8 57-30 24-41C81-84 22-81 20-136c-2-80 154-74 161-7" id="aP"/><path fill="#333" d="M195-6C206 82 75 100 31 46c-4-6-6-13-8-21l49-6c3 16 16 24 34 25 40 0 42-37 40-79-11 22-30 35-61 35-53 0-70-43-70-97 0-56 18-96 73-97 30 0 46 14 59 34l2-30h47zm-90-29c32 0 41-27 41-63 0-35-9-62-40-62-32 0-39 29-40 63 0 36 9 62 39 62" id="aQ"/><path fill="#333" d="M35-132v-50h50v50H35zM35 0v-49h50V0H35" id="aR"/><g id="S"><use transform="matrix(0.06172839506172839,0,0,0.06172839506172839,0,0)" xlink:href="#aO"/><use transform="matrix(0.06172839506172839,0,0,0.06172839506172839,13.518518518518517,0)" xlink:href="#aP"/><use transform="matrix(0.06172839506172839,0,0,0.06172839506172839,25.864197530864196,0)" xlink:href="#aL"/><use transform="matrix(0.06172839506172839,0,0,0.06172839506172839,38.20987654320987,0)" xlink:href="#aQ"/><use transform="matrix(0.06172839506172839,0,0,0.06172839506172839,51.72839506172839,0)" xlink:href="#aD"/><use transform="matrix(0.06172839506172839,0,0,0.06172839506172839,64.07407407407408,0)" xlink:href="#aR"/></g><path fill="#333" d="M210-169c-67 3-38 105-44 169h-31v-121c0-29-5-50-35-48C34-165 62-65 56 0H25l-1-190h30c1 10-1 24 2 32 10-44 99-50 107 0 11-21 27-35 58-36 85-2 47 119 55 194h-31v-121c0-29-5-49-35-48" id="aS"/><path fill="#333" d="M59-47c-2 24 18 29 38 22v24C64 9 27 4 27-40v-127H5v-23h24l9-43h21v43h35v23H59v120" id="aT"/><path fill="#333" d="M24 0v-261h32V0H24" id="aU"/><path fill="#333" d="M179-190L93 31C79 59 56 82 12 73V49c39 6 53-20 64-50L1-190h34L92-34l54-156h33" id="aV"/><g id="T"><use transform="matrix(0.06172839506172839,0,0,0.06172839506172839,0,0)" xlink:href="#aS"/><use transform="matrix(0.06172839506172839,0,0,0.06172839506172839,18.456790123456788,0)" xlink:href="#aj"/><use transform="matrix(0.06172839506172839,0,0,0.06172839506172839,30.80246913580247,0)" xlink:href="#ai"/><use transform="matrix(0.06172839506172839,0,0,0.06172839506172839,41.91358024691358,0)" xlink:href="#aT"/><use transform="matrix(0.06172839506172839,0,0,0.06172839506172839,48.086419753086425,0)" xlink:href="#aU"/><use transform="matrix(0.06172839506172839,0,0,0.06172839506172839,52.96296296296297,0)" xlink:href="#aV"/></g><path fill="#333" d="M96-169c-40 0-48 33-48 73s9 75 48 75c24 0 41-14 43-38l32 2c-6 37-31 61-74 61-59 0-76-41-82-99-10-93 101-131 147-64 4 7 5 14 7 22l-32 3c-4-21-16-35-41-35" id="aW"/><g id="U"><use transform="matrix(0.06172839506172839,0,0,0.06172839506172839,0,0)" xlink:href="#aW"/><use transform="matrix(0.06172839506172839,0,0,0.06172839506172839,11.11111111111111,0)" xlink:href="#ae"/><use transform="matrix(0.06172839506172839,0,0,0.06172839506172839,18.45679012345679,0)" xlink:href="#aa"/><use transform="matrix(0.06172839506172839,0,0,0.06172839506172839,30.80246913580247,0)" xlink:href="#Y"/><use transform="matrix(0.06172839506172839,0,0,0.06172839506172839,43.148148148148145,0)" xlink:href="#aT"/><use transform="matrix(0.06172839506172839,0,0,0.06172839506172839,49.32098765432099,0)" xlink:href="#ah"/><use transform="matrix(0.06172839506172839,0,0,0.06172839506172839,54.19753086419753,0)" xlink:href="#ak"/><use transform="matrix(0.06172839506172839,0,0,0.06172839506172839,66.54320987654322,0)" xlink:href="#Z"/></g><path fill="#333" d="M206 0h-36l-40-164L89 0H53L-1-190h32L70-26l43-164h34l41 164 42-164h31" id="aX"/><g id="V"><use transform="matrix(0.06172839506172839,0,0,0.06172839506172839,0,0)" xlink:href="#ak"/><use transform="matrix(0.06172839506172839,0,0,0.06172839506172839,12.345679012345679,0)" xlink:href="#aa"/><use transform="matrix(0.06172839506172839,0,0,0.06172839506172839,24.691358024691358,0)" xlink:href="#aX"/></g><g id="W"><use transform="matrix(0.06172839506172839,0,0,0.06172839506172839,0,0)" xlink:href="#aC"/><use transform="matrix(0.06172839506172839,0,0,0.06172839506172839,11.11111111111111,0)" xlink:href="#aa"/><use transform="matrix(0.06172839506172839,0,0,0.06172839506172839,23.45679012345679,0)" xlink:href="#aV"/><use transform="matrix(0.06172839506172839,0,0,0.06172839506172839,34.5679012345679,0)" xlink:href="#ai"/></g></defs></g></svg>