<svg width="32" height="32" viewBox="0 0 32 32" fill="none" xmlns="http://www.w3.org/2000/svg">
<path d="M5.35945 27V11.6331H10.1391V27H5.35945ZM7.7457 9.53437C6.21476 9.53437 4.97852 8.29094 4.97852 6.76719C4.97852 5.24344 6.21476 4 7.7457 4C9.26945 4 10.5129 5.24344 10.5129 6.76719C10.5129 8.29812 9.27664 9.53437 7.7457 9.53437ZM28.0216 27H23.2491V19.525C23.2491 17.7425 23.2132 15.4497 20.7695 15.4497C18.2826 15.4497 17.9016 17.3903 17.9016 19.3956V27H13.1291V11.6331H17.7076V13.7319H17.7723C18.412 12.5244 19.9716 11.2522 22.2932 11.2522C27.1232 11.2522 28.0216 14.4362 28.0216 18.5762V27Z" fill="#B2B5BB"/>
</svg>
