<svg width="32" height="32" viewBox="0 0 32 32" fill="none" xmlns="http://www.w3.org/2000/svg">
<path d="M25.3241 12.8076C24.5661 12.8076 23.8991 13.1266 23.4081 13.6236C21.6032 12.3556 19.1693 11.5397 16.4724 11.4527L17.8734 5.04696L22.3342 6.06291C22.3342 7.17087 23.2242 8.07583 24.3161 8.07583C25.4291 8.07583 26.324 7.14687 26.324 6.03791C26.324 4.92896 25.4351 4 24.3171 4C23.5381 4 22.8662 4.47698 22.5312 5.12895L17.6044 4.021C17.3564 3.954 17.1134 4.13399 17.0474 4.38598L15.5095 11.4477C12.8336 11.5607 10.4257 12.3756 8.61477 13.6446C8.12379 13.1266 7.43082 12.8076 6.67285 12.8076C3.86097 12.8076 2.94001 16.6365 5.5149 17.9454C5.4239 18.3504 5.3829 18.7824 5.3829 19.2134C5.3829 23.5142 10.1577 26.999 16.0205 26.999C21.9082 26.999 26.683 23.5142 26.683 19.2134C26.683 18.7824 26.638 18.3304 26.527 17.9244C29.0499 16.6105 28.1209 12.8096 25.3241 12.8076ZM9.60073 18.2174C9.60073 17.0884 10.4907 16.1795 11.6086 16.1795C12.7006 16.1795 13.5916 17.0824 13.5916 18.2174C13.5916 19.3264 12.7016 20.2303 11.6086 20.2303C10.4957 20.2353 9.60073 19.3264 9.60073 18.2174ZM20.4393 23.0152C18.5983 24.8831 13.4036 24.8831 11.5616 23.0152C11.3587 22.8352 11.3587 22.5172 11.5616 22.3122C11.7386 22.1322 12.0526 22.1322 12.2296 22.3122C13.6356 23.7752 18.2994 23.8002 19.7663 22.3122C19.9433 22.1322 20.2573 22.1322 20.4343 22.3122C20.6413 22.5182 20.6413 22.8362 20.4393 23.0152ZM20.3983 20.2343C19.3063 20.2343 18.4164 19.3314 18.4164 18.2234C18.4164 17.0944 19.3063 16.1855 20.3983 16.1855C21.5112 16.1855 22.4062 17.0884 22.4062 18.2234C22.4012 19.3264 21.5112 20.2343 20.3983 20.2343Z" fill="#B2B5BB"/>
</svg>
