<svg width="32" height="32" viewBox="0 0 32 32" fill="none" xmlns="http://www.w3.org/2000/svg">
<path fill-rule="evenodd" clip-rule="evenodd" d="M11.8625 27C21.2962 27 26.4563 18.535 26.4563 11.195C26.4563 10.954 26.4563 10.7144 26.4412 10.4762C27.445 9.691 28.3112 8.7163 29 7.60081C28.065 8.05026 27.0712 8.34537 26.055 8.47533C27.125 7.78086 27.9262 6.68974 28.31 5.40233C27.3025 6.04942 26.2013 6.50563 25.0525 6.75066C23.11 4.51427 19.8612 4.40597 17.795 6.50969C16.4637 7.86615 15.8975 9.88864 16.3112 11.8177C12.1875 11.593 8.345 9.48387 5.74 6.01422C4.37875 8.5525 5.075 11.7988 7.32875 13.4287C6.5125 13.403 5.71375 13.1647 5 12.7342V12.8046C5.00125 15.4485 6.7225 17.7255 9.115 18.2494C8.36 18.4728 7.5675 18.5052 6.8 18.3441C7.47125 20.6076 9.3975 22.1576 11.5912 22.2023C9.775 23.7483 7.53125 24.5876 5.22125 24.5849C4.81375 24.5836 4.40625 24.5578 4 24.505C6.34625 26.135 9.075 27 11.8625 26.9959" fill="#B2B5BB"/>
</svg>
