<svg width="2395" height="1515" viewBox="0 0 2395 1515" fill="none" xmlns="http://www.w3.org/2000/svg">
<path d="M993.296 1091.12H1079.35L1284.25 1468.14H1198.2L993.296 1091.12Z" fill="url(#paint0_linear)"/>
<path d="M952.316 1091.12H1038.37L1243.27 1468.14H1157.22L952.316 1091.12Z" fill="url(#paint1_linear)"/>
<path d="M1038.37 1091.12L1072.09 1153.15L966.184 1116.64L952.316 1091.12H1038.37Z" fill="url(#paint2_linear)"/>
<rect x="1067.07" y="1447.65" width="282.761" height="40.9799" fill="url(#paint3_linear)"/>
<path d="M1718.64 1020.97C1718.64 996.886 1739.09 977.868 1763.12 979.615L2377.09 1024.27C2387.08 1024.99 2394.81 1033.31 2394.81 1043.33C2394.81 1053.88 2386.25 1062.44 2375.7 1062.44H1760.11C1737.21 1062.44 1718.64 1043.87 1718.64 1020.97Z" fill="url(#paint4_linear)"/>
<path d="M203.934 147.055C200.543 147.055 198.227 150.483 199.493 153.629L471.92 830.793L793.644 574.25L428.763 148.726C427.854 147.665 426.526 147.055 425.129 147.055H203.934Z" fill="url(#paint5_linear)"/>
<mask id="mask0" mask-type="alpha" maskUnits="userSpaceOnUse" x="199" y="147" width="595" height="684">
<path d="M203.934 147.055C200.543 147.055 198.227 150.483 199.493 153.629L471.92 830.793L793.644 574.25L428.763 148.726C427.854 147.665 426.526 147.055 425.129 147.055H203.934Z" fill="white"/>
</mask>
<g mask="url(#mask0)">
<path d="M267.942 106.962L625.023 798.115L446.482 942.344L145.182 106.962H267.942Z" fill="url(#paint6_linear)"/>
<mask id="mask1" mask-type="alpha" maskUnits="userSpaceOnUse" x="145" y="106" width="481" height="837">
<path d="M267.942 106.962L625.023 798.115L446.482 942.344L145.182 106.962H267.942Z" fill="white"/>
</mask>
<g mask="url(#mask1)">
<path d="M361.665 265.96V276.205H218.576V265.96H361.665Z" fill="url(#paint7_linear)"/>
<path d="M423.143 388.899V399.144H280.054V388.899H423.143Z" fill="url(#paint8_linear)"/>
<path d="M488.702 511.837V522.082H345.613V511.837H488.702Z" fill="url(#paint9_linear)"/>
</g>
<path opacity="0.198103" d="M555.02 282.412L280.244 664.93L442.454 730.498L566.446 281.296L555.02 282.412Z" fill="url(#paint10_linear)"/>
<path opacity="0.628837" fill-rule="evenodd" clip-rule="evenodd" d="M237.223 111.066L564.406 293.612L442.588 111.066H237.223Z" fill="url(#paint11_linear)"/>
</g>
<mask id="mask2" mask-type="alpha" maskUnits="userSpaceOnUse" x="385" y="293" width="646" height="489">
<path d="M556.022 293.614C553.977 293.614 552.157 294.913 551.493 296.848L385.121 781.722H1030.74L848.068 320.828C841.558 304.401 825.679 293.614 808.009 293.614H556.022Z" fill="white"/>
</mask>
<g mask="url(#mask2)">
<path d="M556.022 293.614C553.977 293.614 552.157 294.913 551.493 296.848L385.121 781.722H1030.74L866.643 367.696C848.921 322.979 805.695 293.614 757.594 293.614H556.022Z" fill="url(#paint12_linear)"/>
<path d="M592.94 387.837L613.749 388.299L577.516 485.243L556.706 484.781L592.94 387.837Z" fill="url(#paint13_linear)"/>
<path d="M603.76 350.703H670.568L640.193 428.107L615.188 427.883L637.193 373.238L595.564 373.242L603.76 350.703Z" fill="url(#paint14_linear)"/>
<path opacity="0.628837" fill-rule="evenodd" clip-rule="evenodd" d="M534.67 322.3L747.352 422.261L649.153 564.142L423.355 554.855L534.67 322.3Z" fill="url(#paint15_linear)"/>
<path d="M454.054 643.375C457.444 643.197 460.048 640.305 459.871 636.914C459.693 633.524 456.801 630.92 453.411 631.097C450.02 631.275 447.416 634.168 447.594 637.558C447.771 640.948 450.664 643.552 454.054 643.375Z" fill="#CAD4E2"/>
<path d="M492.338 625.391C495.729 625.213 498.333 622.321 498.155 618.931C497.978 615.54 495.085 612.936 491.695 613.114C488.305 613.291 485.7 616.184 485.878 619.574C486.056 622.964 488.948 625.569 492.338 625.391Z" fill="#CAD4E2"/>
<path d="M528.537 607.515C531.928 607.337 534.532 604.445 534.354 601.055C534.177 597.665 531.284 595.06 527.894 595.238C524.504 595.416 521.899 598.308 522.077 601.698C522.255 605.088 525.147 607.693 528.537 607.515Z" fill="#CAD4E2"/>
<path d="M564.736 589.641C568.127 589.463 570.731 586.571 570.553 583.181C570.375 579.79 567.483 577.186 564.093 577.364C560.703 577.541 558.098 580.434 558.276 583.824C558.454 587.214 561.346 589.819 564.736 589.641Z" fill="#CAD4E2"/>
<path d="M604.35 570.277C607.741 570.1 610.345 567.207 610.167 563.817C609.99 560.427 607.097 557.823 603.707 558C600.317 558.178 597.712 561.07 597.89 564.46C598.068 567.851 600.96 570.455 604.35 570.277Z" fill="#CAD4E2"/>
<path d="M742.953 325.051C750.586 305.15 769.695 292.014 791.009 292.014H1067.07L1083.46 890.32H526.138L742.953 325.051Z" fill="url(#paint16_linear)"/>
<path d="M801.259 334.514C803.553 328.395 812.165 328.272 814.633 334.323L1061.78 940.226H574.117L801.259 334.514Z" fill="url(#paint17_linear)"/>
<mask id="mask3" mask-type="alpha" maskUnits="userSpaceOnUse" x="574" y="329" width="488" height="612">
<path d="M801.259 334.514C803.553 328.395 812.165 328.272 814.633 334.323L1061.78 940.226H574.117L801.259 334.514Z" fill="white"/>
</mask>
<g mask="url(#mask3)">
<path d="M798.36 323.035L809.454 435.516L821.078 323.035H798.36Z" fill="url(#paint18_linear)"/>
<path d="M799.562 513.377L809.459 424.835L822.28 513.377H799.562Z" fill="url(#paint19_linear)"/>
<path d="M875.679 420.864L807.627 430.761L875.679 443.582V420.864Z" fill="url(#paint20_linear)"/>
<path d="M746.154 420.864L814.205 430.761L746.154 443.582V420.864Z" fill="url(#paint21_linear)"/>
<path d="M746.514 504.816L809.731 430.756L761.117 522.219L746.514 504.816Z" fill="url(#paint22_linear)"/>
<path d="M875.459 496.62L808.144 430.756L860.856 514.023L875.459 496.62Z" fill="url(#paint23_linear)"/>
<path d="M746.514 362.454L809.731 436.514L761.117 345.051L746.514 362.454Z" fill="url(#paint24_linear)"/>
<path d="M875.46 370.65L808.145 436.514L860.857 353.247L875.46 370.65Z" fill="url(#paint25_linear)"/>
<path d="M809.757 448.467C817.679 448.467 824.1 442.045 824.1 434.124C824.1 426.203 817.679 419.781 809.757 419.781C801.836 419.781 795.414 426.203 795.414 434.124C795.414 442.045 801.836 448.467 809.757 448.467Z" fill="url(#paint26_linear)"/>
</g>
<path opacity="0.198103" d="M768.499 431.757L727.519 547.557L428.366 683.477L438.611 646.249L660.565 533.463C661.071 533.206 661.469 532.778 661.688 532.255L689.22 466.695C689.46 466.124 689.911 465.669 690.479 465.423L768.499 431.757Z" fill="url(#paint27_linear)"/>
</g>
<path opacity="0.461682" d="M948.223 565.462C948.223 565.462 1222.72 0.000997305 1509.94 3.32016C1890.86 7.39063 1360.57 689.519 1360.57 689.519L948.223 565.462Z" fill="#172A47"/>
<path opacity="0.628837" fill-rule="evenodd" clip-rule="evenodd" d="M1509.93 3.31923C1656.2 5.00947 1692.04 94.3875 1617.46 271.453C1615.73 224.311 1608.48 178.125 1595.7 132.907C1579.79 76.6235 1538.34 34.1403 1471.36 5.45709C1484.2 3.87897 1497.06 3.17043 1509.93 3.31923Z" fill="url(#paint28_linear)"/>
<path opacity="0.628837" fill-rule="evenodd" clip-rule="evenodd" d="M1401.05 178.17C1451.29 220.275 1489.54 309.909 1515.79 447.073L1491.75 442.975C1454.51 336.861 1400.37 263.997 1329.33 224.38C1293.26 204.259 1242.73 194.357 1177.76 194.675C1204.76 162.826 1231.84 134.962 1259.02 111.07C1322.26 129.455 1369.61 151.82 1401.05 178.17Z" fill="url(#paint29_linear)"/>
<path d="M640.952 583.077L671.184 510.332C672.352 507.522 674.32 505.276 677.011 503.854C711.632 485.562 960.799 355.228 1070.18 334.647C1187.87 312.504 1319.55 313.505 1319.55 313.505V781.724H1154.31L640.952 583.077Z" fill="url(#paint30_linear)"/>
<mask id="mask4" mask-type="alpha" maskUnits="userSpaceOnUse" x="640" y="313" width="680" height="469">
<path d="M640.952 583.077L671.184 510.332C672.352 507.522 674.32 505.276 677.011 503.854C711.632 485.562 960.799 355.228 1070.18 334.647C1187.87 312.504 1319.55 313.505 1319.55 313.505V781.724H1154.31L640.952 583.077Z" fill="white"/>
</mask>
<g mask="url(#mask4)">
<path opacity="0.198103" d="M1298.93 312.505C1298.93 312.505 1157.8 321.5 1098.09 403.373C1038.38 485.246 1005.59 532.02 1005.59 532.02C1005.59 532.02 947.711 501.471 931.043 462.891C914.374 424.312 930.348 365.297 930.348 365.297L1021.99 321.213L1298.93 312.505Z" fill="url(#paint31_linear)"/>
</g>
<path opacity="0.461682" d="M1504.28 0C1547.46 0 1581.11 8.45755 1605.24 25.3726C1416.64 -59.0254 1217.33 112.602 1007.29 540.236L1001.32 537.669C964.246 510.549 940.791 485.108 930.957 461.344C921.124 437.58 919.525 412.139 926.159 385.019C1083.75 128.34 1276.46 0 1504.28 0Z" fill="#172A47"/>
<path d="M1509.95 3.31923C1545.17 3.72628 1573.99 9.21877 1596.4 19.7967L1597.23 20.2614C1600.01 21.8695 1602.68 23.5732 1605.25 25.3727C1416.65 -59.0254 1217.33 112.602 1007.3 540.236L1001.33 537.669C990.892 530.032 981.531 522.529 973.25 515.158C1148.29 171.815 1327.18 1.20722 1509.95 3.31923Z" fill="url(#paint32_linear)"/>
<path d="M992.604 504.052C1006.18 504.052 1017.19 493.043 1017.19 479.464C1017.19 465.884 1006.18 454.876 992.604 454.876C979.024 454.876 968.016 465.884 968.016 479.464C968.016 493.043 979.024 504.052 992.604 504.052Z" fill="url(#paint33_linear)"/>
<path d="M992.599 495.857C1001.65 495.857 1008.99 488.518 1008.99 479.465C1008.99 470.412 1001.65 463.073 992.599 463.073C983.546 463.073 976.207 470.412 976.207 479.465C976.207 488.518 983.546 495.857 992.599 495.857Z" fill="url(#paint34_linear)"/>
<path d="M988.508 495.857C997.561 495.857 1004.9 488.518 1004.9 479.465C1004.9 470.412 997.561 463.073 988.508 463.073C979.455 463.073 972.116 470.412 972.116 479.465C972.116 488.518 979.455 495.857 988.508 495.857Z" fill="url(#paint35_linear)"/>
<path fill-rule="evenodd" clip-rule="evenodd" d="M1513.92 513.58C1513.92 513.58 1559.27 588.835 1631.2 615.314C1703.13 641.792 1796.19 645.464 1796.19 645.464L1605.84 774.363H1513.92V513.58Z" stroke="#467FFF" stroke-width="0.598481"/>
<path d="M1091.65 434.972C1091.65 367.335 1146.48 312.505 1214.12 312.505H1424.06C1491.7 312.505 1546.53 367.335 1546.53 434.972V580.167V662.061V739.169C1546.53 806.805 1491.7 861.636 1424.06 861.636H1214.12C1146.48 861.636 1091.65 806.805 1091.65 739.169V434.972Z" fill="url(#paint36_linear)"/>
<path opacity="0.198103" d="M651.928 556.183L757.963 502.412C761.151 500.796 764.675 499.953 768.249 499.953H1051.2C1058.58 499.953 1065.5 503.534 1069.77 509.558L1138.37 606.502L1122.76 722.301L632.855 606.502L651.928 556.183Z" fill="url(#paint37_linear)"/>
<path d="M1112.14 435.425C1112.14 376.591 1159.83 328.896 1218.67 328.896H1423.61C1482.44 328.896 1530.13 376.591 1530.13 435.425V600.655V682.55V882.124H1112.14V435.425Z" fill="url(#paint38_linear)"/>
<path opacity="0.3" d="M1136.73 507.177C1136.73 499.244 1143.16 492.814 1151.1 492.814H1235.08V750.987H1136.73V507.177Z" fill="url(#paint39_linear)"/>
<path opacity="0.969457" d="M1192.55 430.452C1193.42 412.595 1208.15 398.562 1226.03 398.562H1440.21C1458.34 398.562 1473.18 412.979 1473.71 431.101L1485.06 820.655H1173.61L1192.55 430.452Z" fill="url(#paint40_linear)"/>
<mask id="mask5" mask-type="alpha" maskUnits="userSpaceOnUse" x="1173" y="398" width="313" height="423">
<path d="M1192.55 430.452C1193.42 412.595 1208.15 398.562 1226.03 398.562H1440.21C1458.34 398.562 1473.18 412.979 1473.71 431.101L1485.06 820.655H1173.61L1192.55 430.452Z" fill="white"/>
</mask>
<g mask="url(#mask5)">
<path d="M1222.79 440.271C1222.79 421.761 1237.79 406.756 1256.3 406.756H1454.77C1480.55 406.756 1501.45 427.656 1501.45 453.438V828.849H1222.79V440.271Z" fill="url(#paint41_linear)"/>
<path opacity="0.969457" d="M1271.96 460.904C1271.96 453.632 1277.86 447.737 1285.13 447.737H1431.26C1438.4 447.737 1444.23 453.418 1444.43 460.548L1448.14 598.134C1448.16 598.807 1447.62 599.363 1446.95 599.363H1273.16C1272.5 599.363 1271.96 598.827 1271.96 598.166L1271.96 460.904Z" fill="url(#paint42_linear)"/>
<path opacity="0.969457" d="M1271.96 618.15C1271.96 616.828 1273.04 615.756 1274.36 615.756H1445.83C1447.14 615.756 1448.2 616.797 1448.23 618.099L1452.25 807.139C1452.26 807.81 1451.72 808.361 1451.05 808.361H1273.16C1272.5 808.361 1271.96 807.825 1271.96 807.164L1271.96 618.15Z" fill="url(#paint43_linear)"/>
<path opacity="0.0966332" d="M1180.68 664.647C1180.68 664.647 1263.7 706.596 1341.3 712.204C1418.9 717.812 1481.51 714.792 1481.51 714.792L1485.06 742.774L1360.57 783.772L1173.61 758.128L1180.68 664.647Z" fill="url(#paint44_linear)"/>
</g>
<path d="M1540.39 632.147C1564.15 632.147 1583.41 612.882 1583.41 589.118C1583.41 565.353 1564.15 546.089 1540.39 546.089C1516.62 546.089 1497.36 565.353 1497.36 589.118C1497.36 612.882 1516.62 632.147 1540.39 632.147Z" fill="url(#paint45_linear)"/>
<path d="M1493.5 582.769C1499.73 582.769 1504.77 587.815 1504.77 594.039C1504.77 600.032 1500.09 604.933 1494.19 605.288L1493.5 605.308H1472.28C1466.06 605.308 1461.01 600.263 1461.01 594.039C1461.01 588.045 1465.69 583.145 1471.59 582.79L1472.28 582.769H1493.5Z" fill="url(#paint46_linear)"/>
<path d="M1470.2 531.52C1472.75 525.842 1479.42 523.307 1485.09 525.856C1490.77 528.406 1493.31 535.076 1490.76 540.753C1483.2 557.586 1479.45 574.271 1479.45 590.892C1479.45 607.512 1483.2 624.197 1490.76 641.03C1493.31 646.708 1490.77 653.377 1485.09 655.927C1479.42 658.477 1472.75 655.941 1470.2 650.263C1461.36 630.592 1456.91 610.774 1456.91 590.892C1456.91 571.009 1461.36 551.191 1470.2 531.52Z" fill="url(#paint47_linear)"/>
<path d="M1613.7 531.52C1611.15 525.842 1604.48 523.306 1598.8 525.856C1593.12 528.406 1590.59 535.075 1593.14 540.753C1600.7 557.586 1604.44 574.271 1604.44 590.891C1604.44 607.512 1600.7 624.197 1593.14 641.03C1590.59 646.708 1593.12 653.377 1598.8 655.927C1604.48 658.476 1611.15 655.941 1613.7 650.263C1622.53 630.592 1626.98 610.774 1626.98 590.891C1626.98 571.009 1622.53 551.191 1613.7 531.52Z" fill="url(#paint48_linear)"/>
<path d="M1600.06 582.769C1606.28 582.769 1611.33 587.815 1611.33 594.039C1611.33 600.032 1606.65 604.933 1600.74 605.288L1600.06 605.308H1554.25C1548.02 605.308 1542.98 600.263 1542.98 594.039C1542.98 588.045 1547.66 583.145 1553.56 582.79L1554.25 582.769H1600.06Z" fill="url(#paint49_linear)"/>
<path d="M1552.67 640.34C1576.43 640.34 1595.7 621.076 1595.7 597.312C1595.7 573.547 1576.43 554.283 1552.67 554.283C1528.91 554.283 1509.64 573.547 1509.64 597.312C1509.64 621.076 1528.91 640.34 1552.67 640.34Z" fill="url(#paint50_linear)"/>
<path d="M1538.46 587.612C1544.44 579.061 1556.04 576.786 1564.78 582.292L1565.56 582.814L1630.22 628.021C1639.03 634.181 1641.18 646.317 1635.02 655.128C1629.04 663.679 1617.43 665.954 1608.69 660.448L1607.91 659.926L1543.25 614.719C1534.44 608.559 1532.3 596.423 1538.46 587.612Z" fill="url(#paint51_linear)"/>
<path opacity="0.628837" fill-rule="evenodd" clip-rule="evenodd" d="M1536.83 592.481C1537.87 591.135 1539.8 590.883 1541.14 591.917L1613.2 647.307L1609.45 652.181L1537.4 596.791C1536.05 595.756 1535.8 593.827 1536.83 592.481Z" fill="url(#paint52_linear)"/>
<mask id="mask6" mask-type="alpha" maskUnits="userSpaceOnUse" x="335" y="513" width="1979" height="579">
<path d="M392.573 695.522C387.772 697.903 384.03 701.987 382.078 706.977L336.202 824.26C334.974 827.4 337.289 830.792 340.661 830.792H766.12C781.324 830.792 793.65 843.118 793.65 858.322V1091.56H2237.45C2264.51 1091.56 2288.72 1074.69 2298.09 1049.3L2309.52 1018.3C2319.84 990.347 2309.71 958.97 2285 942.322L1758.58 587.598C1758.06 587.244 1757.51 586.945 1756.91 586.735C1751.09 584.689 1716.59 574.414 1652.24 592.129C1588.74 609.611 1485.24 718.227 1464.37 740.666C1461.95 743.268 1458.58 744.632 1455.03 744.481L1199.35 733.621C1181.92 732.88 1166.19 722.944 1158.04 707.521L1063.97 529.522C1058.78 519.715 1048.6 513.58 1037.51 513.58H773.606C764.384 513.58 755.286 515.711 747.024 519.807L392.573 695.522Z" fill="white"/>
</mask>
<g mask="url(#mask6)">
<path d="M392.573 695.522C387.772 697.903 384.03 701.987 382.078 706.977L336.202 824.26C334.974 827.4 337.289 830.792 340.661 830.792H766.12C781.324 830.792 793.65 843.118 793.65 858.322V1091.56H2237.45C2264.51 1091.56 2288.72 1074.69 2298.09 1049.3L2309.52 1018.3C2319.84 990.347 2309.71 958.97 2285 942.322L1758.58 587.598C1758.06 587.244 1757.51 586.945 1756.91 586.735C1751.09 584.689 1716.59 574.414 1652.24 592.129C1588.74 609.611 1485.24 718.227 1464.37 740.666C1461.95 743.268 1458.58 744.632 1455.03 744.481L1199.35 733.621C1181.92 732.88 1166.19 722.944 1158.04 707.521L1063.97 529.522C1058.78 519.715 1048.6 513.58 1037.51 513.58H773.606C764.384 513.58 755.286 515.711 747.024 519.807L392.573 695.522Z" fill="url(#paint53_linear)"/>
<path d="M1122.38 582.969C1125.77 582.969 1128.53 580.217 1128.53 576.822C1128.53 573.427 1125.77 570.675 1122.38 570.675C1118.98 570.675 1116.23 573.427 1116.23 576.822C1116.23 580.217 1118.98 582.969 1122.38 582.969Z" fill="#21529A"/>
<path d="M819.127 718.204C822.522 718.204 825.274 715.451 825.274 712.057C825.274 708.662 822.522 705.91 819.127 705.91C815.732 705.91 812.98 708.662 812.98 712.057C812.98 715.451 815.732 718.204 819.127 718.204Z" fill="#CAD4E2"/>
<path d="M778.154 718.204C781.549 718.204 784.301 715.451 784.301 712.057C784.301 708.662 781.549 705.91 778.154 705.91C774.759 705.91 772.007 708.662 772.007 712.057C772.007 715.451 774.759 718.204 778.154 718.204Z" fill="#CAD4E2"/>
<path d="M737.172 718.204C740.567 718.204 743.319 715.451 743.319 712.057C743.319 708.662 740.567 705.91 737.172 705.91C733.777 705.91 731.025 708.662 731.025 712.057C731.025 715.451 733.777 718.204 737.172 718.204Z" fill="#CAD4E2"/>
<path d="M696.189 718.204C699.584 718.204 702.336 715.451 702.336 712.057C702.336 708.662 699.584 705.91 696.189 705.91C692.794 705.91 690.042 708.662 690.042 712.057C690.042 715.451 692.794 718.204 696.189 718.204Z" fill="#CAD4E2"/>
<path d="M655.21 718.204C658.605 718.204 661.357 715.451 661.357 712.057C661.357 708.662 658.605 705.91 655.21 705.91C651.815 705.91 649.063 708.662 649.063 712.057C649.063 715.451 651.815 718.204 655.21 718.204Z" fill="#CAD4E2"/>
<path d="M614.224 718.204C617.619 718.204 620.371 715.451 620.371 712.057C620.371 708.662 617.619 705.91 614.224 705.91C610.829 705.91 608.077 708.662 608.077 712.057C608.077 715.451 610.829 718.204 614.224 718.204Z" fill="#CAD4E2"/>
<path d="M573.246 718.204C576.641 718.204 579.393 715.452 579.393 712.057C579.393 708.662 576.641 705.91 573.246 705.91C569.851 705.91 567.099 708.662 567.099 712.057C567.099 715.452 569.851 718.204 573.246 718.204Z" fill="#CAD4E2"/>
<path d="M1028.13 619.851C1031.52 619.851 1034.27 617.099 1034.27 613.704C1034.27 610.309 1031.52 607.557 1028.13 607.557C1024.73 607.557 1021.98 610.309 1021.98 613.704C1021.98 617.099 1024.73 619.851 1028.13 619.851Z" fill="#CAD4E2"/>
<path d="M1015.82 664.931C1019.22 664.931 1021.97 662.179 1021.97 658.784C1021.97 655.39 1019.22 652.637 1015.82 652.637C1012.43 652.637 1009.68 655.39 1009.68 658.784C1009.68 662.179 1012.43 664.931 1015.82 664.931Z" fill="#CAD4E2"/>
<path d="M999.442 714.105C1002.84 714.105 1005.59 711.353 1005.59 707.958C1005.59 704.563 1002.84 701.811 999.442 701.811C996.047 701.811 993.295 704.563 993.295 707.958C993.295 711.353 996.047 714.105 999.442 714.105Z" fill="#CAD4E2"/>
<path d="M987.151 759.181C990.546 759.181 993.298 756.429 993.298 753.034C993.298 749.639 990.546 746.887 987.151 746.887C983.756 746.887 981.004 749.639 981.004 753.034C981.004 756.429 983.756 759.181 987.151 759.181Z" fill="#CAD4E2"/>
<path d="M978.953 804.262C982.348 804.262 985.1 801.51 985.1 798.115C985.1 794.72 982.348 791.968 978.953 791.968C975.558 791.968 972.806 794.72 972.806 798.115C972.806 801.51 975.558 804.262 978.953 804.262Z" fill="#CAD4E2"/>
<path d="M2118.2 865.731C2121.59 865.731 2124.34 862.979 2124.34 859.584C2124.34 856.19 2121.59 853.438 2118.2 853.438C2114.8 853.438 2112.05 856.19 2112.05 859.584C2112.05 862.979 2114.8 865.731 2118.2 865.731Z" fill="#CAD4E2"/>
<path d="M2077.22 898.516C2080.61 898.516 2083.36 895.764 2083.36 892.369C2083.36 888.974 2080.61 886.222 2077.22 886.222C2073.82 886.222 2071.07 888.974 2071.07 892.369C2071.07 895.764 2073.82 898.516 2077.22 898.516Z" fill="#CAD4E2"/>
<path d="M2040.33 947.69C2043.73 947.69 2046.48 944.937 2046.48 941.543C2046.48 938.148 2043.73 935.396 2040.33 935.396C2036.94 935.396 2034.19 938.148 2034.19 941.543C2034.19 944.937 2036.94 947.69 2040.33 947.69Z" fill="#CAD4E2"/>
<path d="M2015.74 1005.06C2019.14 1005.06 2021.89 1002.31 2021.89 998.917C2021.89 995.523 2019.14 992.771 2015.74 992.771C2012.35 992.771 2009.6 995.523 2009.6 998.917C2009.6 1002.31 2012.35 1005.06 2015.74 1005.06Z" fill="#CAD4E2"/>
<path opacity="0.969457" d="M1915.34 660.234C1915.34 660.234 1812.41 672.098 1746.35 724.942C1680.3 777.786 1664.05 824.748 1651.12 883.904C1638.19 943.059 1655.12 1095.22 1655.12 1095.22H1982.14C1982.14 1095.22 1989.58 962.735 2029.81 908.116C2070.03 853.497 2143.04 815.269 2143.04 815.269L1915.34 660.234Z" fill="url(#paint54_linear)"/>
<path opacity="0.969457" d="M1485.05 806.672L1868.01 912.88C1868.01 912.88 1844.44 965.497 1841.37 1018.11C1838.29 1070.73 1855.71 1123.35 1855.71 1123.35H1491.67L1433.83 1037.85L1485.05 806.672Z" fill="url(#paint55_linear)"/>
<path opacity="0.0966332" d="M1694.06 1031.72C1694.06 1021.83 1702.58 1014.09 1712.43 1015.04L2363.74 1078.2C2367.42 1078.56 2370.22 1081.65 2370.22 1085.35V1108.35C2370.22 1112.39 2366.9 1115.63 2362.87 1115.53L1710.41 1099.71C1701.31 1099.49 1694.06 1092.06 1694.06 1082.96V1031.72Z" fill="url(#paint56_linear)"/>
<path d="M1496.62 649.742L1542.68 659.707L1465 1002.4C1462.52 1013.84 1464.5 1042.18 1470.49 1052.2L1471.26 1053.44L1500.79 1099.45L1461.13 1124.91L1431.6 1078.89C1418.63 1058.68 1413.97 1017.87 1418.55 994.34L1418.94 992.434L1496.62 649.742Z" fill="url(#paint57_linear)"/>
<path d="M1488.41 649.742L1534.48 659.707L1456.8 1002.4C1454.32 1013.84 1456.3 1042.18 1462.29 1052.2L1463.06 1053.44L1492.59 1099.45L1452.93 1124.91L1423.4 1078.89C1410.42 1058.68 1405.76 1017.87 1410.34 994.34L1410.73 992.434L1488.41 649.742Z" fill="url(#paint58_linear)"/>
<path d="M1091.65 617.804L1158.32 726.836C1166.01 739.415 1179.33 747.485 1194.04 748.487L1457.62 766.431C1466.38 767.028 1474.86 763.459 1480.67 756.878C1510.78 722.802 1609.02 616.524 1677.66 599.363C1759.62 578.873 1802.65 595.265 1802.65 595.265L1759.62 546.089L1110.73 554.285L1091.65 617.804Z" fill="url(#paint59_linear)"/>
<path d="M1552.67 857.535C1556.07 857.535 1558.82 854.782 1558.82 851.388C1558.82 847.993 1556.07 845.241 1552.67 845.241C1549.28 845.241 1546.53 847.993 1546.53 851.388C1546.53 854.782 1549.28 857.535 1552.67 857.535Z" fill="#CAD4E2"/>
<path d="M1511.69 845.241C1515.09 845.241 1517.84 842.489 1517.84 839.094C1517.84 835.7 1515.09 832.948 1511.69 832.948C1508.3 832.948 1505.55 835.7 1505.55 839.094C1505.55 842.489 1508.3 845.241 1511.69 845.241Z" fill="#CAD4E2"/>
<path d="M1597.75 869.831C1601.15 869.831 1603.9 867.078 1603.9 863.684C1603.9 860.289 1601.15 857.537 1597.75 857.537C1594.36 857.537 1591.61 860.289 1591.61 863.684C1591.61 867.078 1594.36 869.831 1597.75 869.831Z" fill="#CAD4E2"/>
<path d="M1085.12 542.09L1130.95 553.092C1130.95 553.092 1079.91 697.421 1045.26 841.75C1033.43 891 1016.09 1000.89 1010.54 1036.83C1009.36 1044.4 1010.77 1052.08 1014.5 1058.78L1049.72 1122.21L1003.9 1119.41L967.65 1052.4C964.066 1045.77 962.723 1038.23 963.871 1030.79C969.454 994.563 987.241 881.527 999.431 830.749C1034.08 686.42 1085.12 542.09 1085.12 542.09Z" fill="url(#paint60_linear)"/>
<path d="M1076.93 542.09L1122.76 553.092C1122.76 553.092 1071.71 697.421 1037.06 841.75C1025.24 891 1007.9 1000.89 1002.34 1036.83C1001.17 1044.4 1002.58 1052.08 1006.31 1058.78L1041.53 1122.21L995.705 1119.41L959.458 1052.4C955.875 1045.77 954.532 1038.23 955.679 1030.79C961.263 994.563 979.049 881.527 991.24 830.749C1025.89 686.42 1076.93 542.09 1076.93 542.09Z" fill="url(#paint61_linear)"/>
<path d="M1642.83 878.024C1646.22 878.024 1648.98 875.272 1648.98 871.877C1648.98 868.483 1646.22 865.73 1642.83 865.73C1639.43 865.73 1636.68 868.483 1636.68 871.877C1636.68 875.272 1639.43 878.024 1642.83 878.024Z" fill="#CAD4E2"/>
<path opacity="0.628837" fill-rule="evenodd" clip-rule="evenodd" d="M1683.1 554.286L2218.45 942.014C2226.71 947.994 2227.08 960.166 2219.2 966.639L2179.91 998.924C2175.34 1002.68 2169.02 1003.52 2163.62 1001.08L1474.33 689.519L1683.1 554.286Z" fill="url(#paint62_linear)"/>
<path opacity="0.3" fill-rule="evenodd" clip-rule="evenodd" d="M636.83 470.572L1942.95 1084.97L1702.25 1122.21L237.221 576.821L636.83 470.572Z" fill="url(#paint63_linear)"/>
</g>
<path d="M1636.68 1086.54C1636.68 1062.45 1657.13 1043.43 1681.16 1045.18L2295.13 1089.83C2305.12 1090.56 2312.85 1098.88 2312.85 1108.89C2312.85 1119.45 2304.29 1128 2293.74 1128H1678.15C1655.25 1128 1636.68 1109.44 1636.68 1086.54Z" fill="url(#paint64_linear)"/>
<path opacity="0.628837" fill-rule="evenodd" clip-rule="evenodd" d="M1676.7 1044.96C1677.67 1044.96 1678.63 1045 1679.6 1045.07L2294.46 1089.78C2304.83 1090.54 2312.85 1099.17 2312.85 1109.56C2312.85 1110.89 2312.71 1112.19 2312.44 1113.45L1641.1 1066.68C1647.74 1053.78 1661.19 1044.96 1676.7 1044.96Z" fill="url(#paint65_linear)"/>
<path d="M833.464 1091.12H919.522L714.622 1468.14H628.564L833.464 1091.12Z" fill="url(#paint66_linear)"/>
<path d="M792.485 1091.12H878.543L673.644 1468.14H587.586L792.485 1091.12Z" fill="url(#paint67_linear)"/>
<rect x="509.731" y="1447.65" width="282.761" height="40.9799" fill="url(#paint68_linear)"/>
<path d="M1550.62 1091.12H1636.68L1759.62 1468.14H1673.56L1550.62 1091.12Z" fill="url(#paint69_linear)"/>
<path d="M1509.64 1091.12H1595.7L1718.64 1468.14H1632.58L1509.64 1091.12Z" fill="url(#paint70_linear)"/>
<path opacity="0.198103" d="M1595.7 1091.12L1629.03 1193.33L1530.52 1155.16L1509.64 1091.12H1595.7Z" fill="url(#paint71_linear)"/>
<rect x="1558.83" y="1447.65" width="282.761" height="40.9799" fill="url(#paint72_linear)"/>
<path d="M1808.79 1406.67H1898.95L1841.57 1488.63H1751.42L1808.79 1406.67Z" fill="url(#paint73_linear)"/>
<path d="M1825.19 1406.67H1915.35L1857.97 1488.63H1767.82L1825.19 1406.67Z" fill="url(#paint74_linear)"/>
<path d="M1106.81 1320.93H1451.86V1487.72H1057.22L1106.81 1320.93Z" fill="url(#paint75_linear)"/>
<path d="M1401.15 1033.75L1264.58 1485.56L1045.95 1487.72L1174.68 1033.75L1401.15 1033.75Z" fill="url(#paint76_linear)"/>
<path d="M1421.53 1513.22C1443.04 1513.22 1460.47 1495.79 1460.47 1474.29C1460.47 1452.79 1443.04 1435.36 1421.53 1435.36C1400.03 1435.36 1382.6 1452.79 1382.6 1474.29C1382.6 1495.79 1400.03 1513.22 1421.53 1513.22Z" fill="url(#paint77_linear)"/>
<path d="M1433.81 1513.22C1455.31 1513.22 1472.74 1495.79 1472.74 1474.29C1472.74 1452.78 1455.31 1435.35 1433.81 1435.35C1412.31 1435.35 1394.88 1452.78 1394.88 1474.29C1394.88 1495.79 1412.31 1513.22 1433.81 1513.22Z" fill="url(#paint78_linear)"/>
<path d="M1435.87 1496.82C1447.19 1496.82 1456.36 1487.65 1456.36 1476.33C1456.36 1465.02 1447.19 1455.84 1435.87 1455.84C1424.55 1455.84 1415.38 1465.02 1415.38 1476.33C1415.38 1487.65 1424.55 1496.82 1435.87 1496.82Z" fill="url(#paint79_linear)"/>
<path d="M1274 1513.22C1295.5 1513.22 1312.93 1495.79 1312.93 1474.29C1312.93 1452.79 1295.5 1435.36 1274 1435.36C1252.5 1435.36 1235.07 1452.79 1235.07 1474.29C1235.07 1495.79 1252.5 1513.22 1274 1513.22Z" fill="url(#paint80_linear)"/>
<path d="M1286.29 1513.22C1307.8 1513.22 1325.23 1495.79 1325.23 1474.29C1325.23 1452.78 1307.8 1435.35 1286.29 1435.35C1264.79 1435.35 1247.36 1452.78 1247.36 1474.29C1247.36 1495.79 1264.79 1513.22 1286.29 1513.22Z" fill="url(#paint81_linear)"/>
<path d="M1288.35 1496.82C1299.66 1496.82 1308.84 1487.65 1308.84 1476.33C1308.84 1465.02 1299.66 1455.84 1288.35 1455.84C1277.03 1455.84 1267.86 1465.02 1267.86 1476.33C1267.86 1487.65 1277.03 1496.82 1288.35 1496.82Z" fill="url(#paint82_linear)"/>
<path d="M1097.79 1513.22C1119.29 1513.22 1136.72 1495.79 1136.72 1474.29C1136.72 1452.79 1119.29 1435.36 1097.79 1435.36C1076.29 1435.36 1058.86 1452.79 1058.86 1474.29C1058.86 1495.79 1076.29 1513.22 1097.79 1513.22Z" fill="url(#paint83_linear)"/>
<path d="M1110.08 1513.22C1131.58 1513.22 1149.01 1495.79 1149.01 1474.29C1149.01 1452.78 1131.58 1435.35 1110.08 1435.35C1088.58 1435.35 1071.15 1452.78 1071.15 1474.29C1071.15 1495.79 1088.58 1513.22 1110.08 1513.22Z" fill="url(#paint84_linear)"/>
<path d="M1030.18 1371.83H1224.01V1487.72H1030.18V1371.83Z" fill="url(#paint85_linear)"/>
<path d="M1070.75 1259.14H1264.58V1375.03H1070.75V1259.14Z" fill="url(#paint86_linear)"/>
<path d="M1102.31 1146.45H1296.14V1262.33H1102.31V1146.45Z" fill="url(#paint87_linear)"/>
<path d="M1138.37 1033.75H1332.2V1149.64H1138.37V1033.75Z" fill="url(#paint88_linear)"/>
<path d="M443.774 748.364C448.99 739.812 458.283 734.595 468.3 734.595H931.787C947.653 734.595 960.514 747.456 960.514 763.322V1002.76C960.514 1020.9 943.902 1034.5 926.116 1030.92L415.138 928.013C410.968 927.173 407.46 924.371 405.721 920.489L380.214 863.549C378.441 859.591 378.731 855.014 380.989 851.311L443.774 748.364Z" fill="url(#paint89_linear)"/>
<path opacity="0.0966332" d="M607.412 969.219C607.843 968.557 608.571 968.182 609.36 968.182H927.843C954.946 968.182 976.918 990.154 976.918 1017.26V1086.33C976.918 1088.98 974.775 1091.12 972.13 1091.12H608.786C608.337 1091.12 607.904 1091 607.536 1090.74C603.866 1088.18 583.511 1072.52 583.511 1039.9C583.511 1007.62 603.433 975.344 607.412 969.219Z" fill="url(#paint90_linear)"/>
<path d="M595.111 981.515C595.541 980.853 596.269 980.478 597.059 980.478H915.541C942.645 980.478 964.616 1002.45 964.616 1029.55V1074.83C964.616 1101.94 942.645 1123.91 915.541 1123.91H597.059C596.269 1123.91 595.541 1123.53 595.111 1122.87C591.132 1116.75 571.209 1084.47 571.209 1052.19C571.209 1019.92 591.132 987.64 595.111 981.515Z" fill="url(#paint91_linear)"/>
<path opacity="0.198103" d="M838.079 980.472L597.043 1123.28C595.535 1122.66 594.223 1121.59 593.307 1120.18C578.575 1097.52 571.209 1074.85 571.209 1052.19C571.209 1029.53 578.575 1006.87 593.307 984.205C594.819 981.88 597.405 980.476 600.179 980.476L838.079 980.472Z" fill="url(#paint92_linear)"/>
<path opacity="0.628837" fill-rule="evenodd" clip-rule="evenodd" d="M862.166 734.595C916.484 734.595 960.518 778.629 960.518 832.947L960.514 846.085L661.024 734.595L862.166 734.595Z" fill="url(#paint93_linear)"/>
<path d="M451.891 824.822C450.996 824.797 450.124 825.107 449.446 825.692L89.1455 1136.2V1205.9L364.63 1204.18L888.915 933.704C890.109 933.088 890.859 931.856 890.859 930.513V840.539C890.859 838.594 889.312 837.003 887.368 836.949L451.891 824.822Z" fill="url(#paint94_linear)"/>
<mask id="mask7" mask-type="alpha" maskUnits="userSpaceOnUse" x="89" y="824" width="802" height="382">
<path d="M451.891 824.822C450.996 824.797 450.124 825.107 449.446 825.692L89.1455 1136.2V1205.9L364.63 1204.18L888.915 933.704C890.109 933.088 890.859 931.856 890.859 930.513V840.539C890.859 838.594 889.312 837.003 887.368 836.949L451.891 824.822Z" fill="white"/>
</mask>
<g mask="url(#mask7)">
<path opacity="0.315825" d="M526.618 1153.8V1064.48H333.536L532.904 917.755L714.649 924.586L707.893 1094.1L526.618 1153.8Z" fill="url(#paint95_linear)"/>
<path opacity="0.969457" d="M291.857 919.005L901.678 968.181L917.864 812.457L405.255 800.163L291.857 919.005Z" fill="url(#paint96_linear)"/>
<mask id="mask8" mask-type="alpha" maskUnits="userSpaceOnUse" x="291" y="800" width="627" height="169">
<path d="M291.857 919.005L901.678 968.181L917.864 812.457L405.255 800.163L291.857 919.005Z" fill="white"/>
</mask>
<g mask="url(#mask8)">
<path opacity="0.576335" d="M572.766 807.718L366.849 968.181L271.19 932.343L458.021 811.661L572.766 807.718Z" fill="url(#paint97_linear)"/>
</g>
<path d="M913.76 824.784L340.502 1179.8L379.279 1223.3L913.39 958.482L913.76 824.784Z" fill="url(#paint98_linear)"/>
<path opacity="0.628837" fill-rule="evenodd" clip-rule="evenodd" d="M345.621 796.392L796.778 968.18L702.349 1062.85L206.767 965.008L345.621 796.392Z" fill="url(#paint99_linear)"/>
</g>
<path d="M383.947 1194.92L305.034 1094.1H29.5747L89.1377 1204.18L360.524 1208.28L383.947 1194.92Z" fill="url(#paint100_linear)"/>
<path d="M353.221 1208.28L276.349 1094.1H4.8396C3.04197 1094.1 1.88568 1096.01 2.71713 1097.6L59.7824 1206.99C60.1949 1207.78 61.0129 1208.28 61.9048 1208.28H353.221Z" fill="url(#paint101_linear)"/>
<path opacity="0.116885" d="M315.74 1152.62L353.218 1208.28H65.4186C62.583 1208.28 59.9658 1206.82 58.4755 1204.44L58.152 1203.87L31.4089 1152.62H315.74Z" fill="url(#paint102_linear)"/>
<path d="M1855.92 701.814C1859.31 701.814 1862.07 699.062 1862.07 695.667C1862.07 692.272 1859.31 689.52 1855.92 689.52C1852.52 689.52 1849.77 692.272 1849.77 695.667C1849.77 699.062 1852.52 701.814 1855.92 701.814Z" fill="#CAD4E2"/>
<path d="M1802.65 722.305C1806.04 722.305 1808.8 719.553 1808.8 716.158C1808.8 712.763 1806.04 710.011 1802.65 710.011C1799.25 710.011 1796.5 712.763 1796.5 716.158C1796.5 719.553 1799.25 722.305 1802.65 722.305Z" fill="#CAD4E2"/>
<path d="M1757.57 759.186C1760.96 759.186 1763.71 756.434 1763.71 753.039C1763.71 749.644 1760.96 746.892 1757.57 746.892C1754.17 746.892 1751.42 749.644 1751.42 753.039C1751.42 756.434 1754.17 759.186 1757.57 759.186Z" fill="#CAD4E2"/>
<path d="M1724.78 800.166C1728.18 800.166 1730.93 797.414 1730.93 794.019C1730.93 790.624 1728.18 787.872 1724.78 787.872C1721.39 787.872 1718.64 790.624 1718.64 794.019C1718.64 797.414 1721.39 800.166 1724.78 800.166Z" fill="#CAD4E2"/>
<path d="M1700.2 845.243C1703.59 845.243 1706.34 842.491 1706.34 839.096C1706.34 835.702 1703.59 832.949 1700.2 832.949C1696.8 832.949 1694.05 835.702 1694.05 839.096C1694.05 842.491 1696.8 845.243 1700.2 845.243Z" fill="#CAD4E2"/>
<path d="M1425.63 787.869C1429.02 787.869 1431.77 785.117 1431.77 781.722C1431.77 778.328 1429.02 775.575 1425.63 775.575C1422.23 775.575 1419.48 778.328 1419.48 781.722C1419.48 785.117 1422.23 787.869 1425.63 787.869Z" fill="#CAD4E2"/>
<path d="M1413.34 837.045C1416.73 837.045 1419.48 834.292 1419.48 830.898C1419.48 827.503 1416.73 824.751 1413.34 824.751C1409.94 824.751 1407.19 827.503 1407.19 830.898C1407.19 834.292 1409.94 837.045 1413.34 837.045Z" fill="#CAD4E2"/>
<path d="M1401.04 890.318C1404.44 890.318 1407.19 887.565 1407.19 884.171C1407.19 880.776 1404.44 878.024 1401.04 878.024C1397.65 878.024 1394.9 880.776 1394.9 884.171C1394.9 887.565 1397.65 890.318 1401.04 890.318Z" fill="#CAD4E2"/>
<path d="M1388.75 943.593C1392.15 943.593 1394.9 940.841 1394.9 937.446C1394.9 934.051 1392.15 931.299 1388.75 931.299C1385.36 931.299 1382.6 934.051 1382.6 937.446C1382.6 940.841 1385.36 943.593 1388.75 943.593Z" fill="#CAD4E2"/>
<path d="M1376.46 1005.06C1379.85 1005.06 1382.6 1002.31 1382.6 998.915C1382.6 995.52 1379.85 992.768 1376.46 992.768C1373.06 992.768 1370.31 995.52 1370.31 998.915C1370.31 1002.31 1373.06 1005.06 1376.46 1005.06Z" fill="#CAD4E2"/>
<path d="M1526.04 445.456C1521.09 434.615 1515.3 424.231 1508.77 414.385C1559.5 333.044 1632.64 234.19 1644.4 135.869C1650.67 83.4421 1634.96 45.2427 1597.26 21.2707L1595.7 20.2935L1596.7 19.9426C1693.71 66.0425 1670.15 207.88 1526.04 445.456Z" fill="url(#paint103_linear)"/>
<path d="M1175.63 137.221C1179.69 141.943 1179.15 149.058 1174.43 153.112C1113.41 205.498 1049.33 277.098 991.121 368.926C987.788 374.182 980.826 375.742 975.569 372.41C970.312 369.078 968.752 362.115 972.085 356.858C1031.57 263.028 1097.12 189.778 1159.74 136.012C1164.46 131.957 1171.58 132.499 1175.63 137.221Z" fill="white" fill-opacity="0.326978"/>
<path d="M1245.23 88.4056C1248.47 93.7241 1246.78 100.656 1241.46 103.889C1228.92 111.512 1216.3 120.089 1203.61 129.619C1198.64 133.357 1191.57 132.353 1187.83 127.377C1184.1 122.401 1185.1 115.336 1190.08 111.598C1203.34 101.633 1216.57 92.6427 1229.75 84.6292C1235.07 81.3963 1242 83.0871 1245.23 88.4056Z" fill="white" fill-opacity="0.326978"/>
<path opacity="0.198103" d="M855.317 658.51C980.928 658.51 1082.76 760.338 1082.76 885.949C1082.76 947.897 1057.99 1004.06 1017.82 1045.08C1027.26 1042.03 1038.04 1044.66 1044.98 1052.63C1053.18 1062.03 1053.29 1075.73 1045.88 1085.21C1072.23 1068.01 1091.24 1040.63 1096.83 1006.54L1097.14 1004.52C1100.68 980.452 1123.07 963.811 1147.14 967.354C1171.21 970.897 1187.85 993.282 1184.31 1017.35C1171.04 1107.49 1079.3 1171.82 996.602 1188.86L686.045 1101.18C682.64 1098.68 679.441 1096.1 676.465 1093.44C665.915 1084.02 665.001 1067.83 674.423 1057.28C680.235 1050.77 688.623 1047.93 696.673 1048.92C654.236 1007.61 627.878 949.855 627.878 885.949C627.878 760.338 729.706 658.51 855.317 658.51Z" fill="url(#paint104_linear)"/>
<path d="M828.677 1305.99L988.498 1265.01L969.251 1454.28C966.218 1484.1 941.103 1506.79 911.123 1506.79C882.488 1506.79 858.073 1486.04 853.458 1457.78L828.677 1305.99Z" fill="url(#paint105_linear)"/>
<mask id="mask9" mask-type="alpha" maskUnits="userSpaceOnUse" x="828" y="1265" width="161" height="242">
<path d="M828.677 1305.99L988.498 1265.01L966.427 1482.05C964.998 1496.1 953.164 1506.79 939.038 1506.79H884.861C871.368 1506.79 859.864 1497.02 857.69 1483.7L828.677 1305.99Z" fill="white"/>
</mask>
<g mask="url(#mask9)">
<path opacity="0.696289" d="M994.225 1350.32L845.81 1438.3L830.729 1369.84L994.225 1275.86V1350.32Z" fill="url(#paint106_linear)"/>
</g>
<path d="M664.754 1305.99H840.967L809.653 1465.69C804.038 1494.33 778.936 1514.99 749.751 1514.99C719.691 1514.99 694.105 1493.11 689.446 1463.41L664.754 1305.99Z" fill="url(#paint107_linear)"/>
<mask id="mask10" mask-type="alpha" maskUnits="userSpaceOnUse" x="664" y="1305" width="177" height="210">
<path d="M664.754 1305.99H840.967L804.347 1492.76C801.814 1505.67 790.493 1514.99 777.331 1514.99H721.086C707.529 1514.99 695.989 1505.12 693.888 1491.73L664.754 1305.99Z" fill="white"/>
</mask>
<g mask="url(#mask10)">
<path opacity="0.696289" d="M697.53 1357.93L828.666 1446.49L834.999 1368.3L697.53 1357.93Z" fill="url(#paint108_linear)"/>
</g>
<path d="M1072.54 992.231C1076.09 968.161 1098.47 951.52 1122.54 955.063C1146.61 958.606 1163.25 980.991 1159.71 1005.06C1145.33 1102.77 1067.64 1170.14 975.473 1179.85C951.276 1182.39 929.596 1164.84 927.048 1140.65C924.541 1116.84 941.489 1095.47 965.08 1092.36L966.246 1092.22C1020.09 1086.55 1064.3 1048.21 1072.54 992.231Z" fill="url(#paint109_linear)"/>
<path opacity="0.227028" fill-rule="evenodd" clip-rule="evenodd" d="M960.777 1178.92L949.94 1097.25C954.531 1094.77 959.638 1093.07 965.101 1092.35L966.266 1092.21C1020.11 1086.54 1064.33 1048.2 1072.56 992.222C1074.07 982.025 1078.95 973.162 1085.91 966.601C1085.55 1016.99 1080.34 1093.97 1054.07 1131.82C1042.47 1148.55 1030.17 1161.23 1018.51 1170.83C1004.68 1175.24 990.271 1178.28 975.493 1179.84C970.427 1180.37 965.47 1180.02 960.777 1178.92Z" fill="url(#paint110_linear)"/>
<rect x="548.257" y="1061.84" width="96.2487" height="78.7512" rx="34.0186" fill="url(#paint111_linear)"/>
<rect x="574.604" y="1031.43" width="168.018" height="217.193" rx="34.0186" fill="url(#paint112_linear)"/>
<path opacity="0.4" d="M611.479 1060.48C611.479 1051.22 618.982 1043.72 628.236 1043.72H762.739C771.994 1043.72 779.497 1051.22 779.497 1060.48V1231.86C779.497 1241.12 771.994 1248.62 762.739 1248.62H628.236C618.982 1248.62 611.479 1241.12 611.479 1231.86V1060.48Z" fill="url(#paint113_linear)"/>
<path d="M664.755 1076.51H992.594L1001 1286.76C1003.12 1339.75 960.743 1383.86 907.716 1383.86H761.963C671.522 1383.86 605.657 1298.13 628.96 1210.74L664.755 1076.51Z" fill="url(#paint114_linear)"/>
<mask id="mask11" mask-type="alpha" maskUnits="userSpaceOnUse" x="596" y="1076" width="408" height="308">
<path d="M664.755 1076.51H992.594L1003 1336.55C1004.03 1362.37 983.381 1383.86 957.548 1383.86H641.998C612.114 1383.86 590.349 1355.53 598.05 1326.65L664.755 1076.51Z" fill="white"/>
</mask>
<g mask="url(#mask11)">
<path opacity="0.3" d="M900.135 1096.47C897.483 1096.47 895.302 1098.48 895.039 1101.07L895.013 1101.59V1264.88C895.013 1267.71 897.306 1270 900.135 1270C902.788 1270 904.969 1267.98 905.231 1265.4L905.258 1264.88V1101.59C905.258 1098.76 902.964 1096.47 900.135 1096.47Z" fill="#17413B"/>
<path opacity="0.522926" d="M665.715 1093.13C679.138 1071.49 707.558 1064.83 729.195 1078.25C750.831 1091.67 757.49 1120.09 744.068 1141.73C711.464 1194.29 697.367 1243.95 701.61 1308.48C703.281 1333.89 684.039 1355.84 658.632 1357.51C633.226 1359.18 611.275 1339.94 609.604 1314.53C604.11 1230.99 622.87 1162.19 665.715 1093.13Z" fill="url(#paint115_linear)"/>
<path opacity="0.3" d="M694.293 1394.46L882.724 1271.51C916.959 1249.17 962.32 1273.74 962.32 1314.62V1371.02L829.527 1409.29L694.293 1394.46Z" fill="url(#paint116_linear)"/>
</g>
<path d="M830.726 1101.09C956.337 1101.09 1058.16 999.266 1058.16 873.656C1058.16 748.045 956.337 646.217 830.726 646.217C705.115 646.217 603.288 748.045 603.288 873.656C603.288 999.266 705.115 1101.09 830.726 1101.09Z" fill="url(#paint117_linear)"/>
<mask id="mask12" mask-type="alpha" maskUnits="userSpaceOnUse" x="603" y="646" width="456" height="456">
<path d="M830.726 1101.09C956.337 1101.09 1058.16 999.266 1058.16 873.656C1058.16 748.045 956.337 646.217 830.726 646.217C705.115 646.217 603.288 748.045 603.288 873.656C603.288 999.266 705.115 1101.09 830.726 1101.09Z" fill="white"/>
</mask>
<g mask="url(#mask12)">
<path d="M608.179 747.703C608.179 747.703 689.516 698.967 740.796 698.967C792.075 698.967 859.393 734.888 924.663 734.888C989.933 734.888 990.484 664.69 990.484 664.69L780.521 624.79L645.988 664.69L608.179 747.703Z" fill="url(#paint118_linear)"/>
<path d="M1035.4 743.106C1035.4 743.106 1020.41 730.791 1004.21 736.949C988.003 743.106 985.918 763.647 946.559 775.303C907.2 786.959 840.792 756.079 799.331 775.303C744.572 800.693 708.187 882.916 730.383 974.197C753.579 1057.67 815.254 1117.43 815.254 1117.43L1006.97 1071.32L1093.64 888.995L1035.4 743.106Z" fill="url(#paint119_linear)"/>
<path d="M731.084 645.367L736.835 644.389C780.306 637.143 809.759 635.636 837.296 641.149C873.556 648.408 901.778 668.302 922.585 704.041C924.179 706.779 923.252 710.291 920.514 711.886C917.775 713.48 914.263 712.552 912.669 709.814C893.529 676.939 868.109 659.02 835.043 652.4C808.062 646.999 778.401 648.819 733.042 656.673C729.92 657.213 726.951 655.121 726.41 651.999C725.87 648.876 727.962 645.907 731.084 645.367Z" fill="#17413B"/>
<path d="M802.458 855.046C807.002 844.207 812.371 833.313 818.565 822.366C821.073 817.934 819.513 812.308 815.081 809.8C810.648 807.292 805.023 808.852 802.515 813.285C795.97 824.853 790.281 836.396 785.451 847.915C783.482 852.611 785.693 858.014 790.389 859.983C795.085 861.953 800.488 859.742 802.458 855.046Z" fill="white" fill-opacity="0.326978"/>
<path d="M793.889 1034.65C798.603 1032.72 800.863 1027.34 798.936 1022.63C789.711 1000.06 786.043 973.794 786.782 944.95C787.296 924.908 789.384 908.962 793.421 886.563C794.325 881.551 790.994 876.756 785.983 875.853C780.971 874.95 776.176 878.28 775.273 883.292C771.082 906.544 768.891 923.276 768.347 944.477C767.547 975.673 771.558 1004.38 781.866 1029.6C783.792 1034.32 789.175 1036.58 793.889 1034.65Z" fill="white" fill-opacity="0.326978"/>
</g>
<rect x="641.847" y="797.783" width="73.7638" height="90.1558" rx="13.1666" transform="rotate(7 641.847 797.783)" fill="url(#paint120_linear)"/>
<rect x="633.643" y="797.783" width="73.7638" height="90.1558" rx="13.1666" transform="rotate(7 633.643 797.783)" fill="url(#paint121_linear)"/>
<path opacity="0.482399" d="M702.365 843.378L700.368 859.648C699.559 866.236 697.06 872.204 693.358 877.17L674.243 873.756L680.66 822.268L698.242 821.41C701.741 827.901 703.332 835.502 702.365 843.378Z" fill="url(#paint122_linear)"/>
<path d="M683.598 820.45C683.752 819.309 682.362 818.63 681.557 819.454L677.7 823.396L671.144 871.807L673.82 876.877C674.364 877.908 675.91 877.633 676.065 876.478L683.598 820.45Z" fill="#17413B"/>
<path d="M653.431 1093.13C666.853 1071.49 695.274 1064.83 716.911 1078.25C738.547 1091.67 745.206 1120.1 731.784 1141.73C699.18 1194.29 685.083 1243.95 689.326 1308.48C690.997 1333.89 671.755 1355.84 646.348 1357.51C620.941 1359.18 598.991 1339.94 597.32 1314.53C591.826 1230.99 610.585 1162.19 653.431 1093.13Z" fill="url(#paint123_linear)"/>
<path fill-rule="evenodd" clip-rule="evenodd" d="M984.25 1037.85C994.914 1028.56 1011.09 1029.67 1020.39 1040.33C1029.68 1051 1028.57 1067.18 1017.91 1076.47C968.931 1119.16 897.596 1138.54 820.921 1135.63C752.259 1133.02 686.743 1112.29 651.868 1081.15C641.318 1071.72 640.404 1055.53 649.826 1044.98C659.018 1034.69 674.654 1033.57 685.208 1042.27L685.99 1042.94C710.747 1065.05 765.097 1082.24 822.867 1084.44C887.552 1086.9 946.295 1070.94 984.25 1037.85Z" fill="url(#paint124_linear)"/>
<mask id="mask13" mask-type="alpha" maskUnits="userSpaceOnUse" x="643" y="1031" width="384" height="105">
<path fill-rule="evenodd" clip-rule="evenodd" d="M984.25 1037.85C994.914 1028.56 1011.09 1029.67 1020.39 1040.33C1029.68 1051 1028.57 1067.18 1017.91 1076.47C968.931 1119.16 897.596 1138.54 820.921 1135.63C752.259 1133.02 686.743 1112.29 651.868 1081.15C641.318 1071.72 640.404 1055.53 649.826 1044.98C659.018 1034.69 674.654 1033.57 685.208 1042.27L685.99 1042.94C710.747 1065.05 765.097 1082.24 822.867 1084.44C887.552 1086.9 946.295 1070.94 984.25 1037.85Z" fill="white"/>
</mask>
<g mask="url(#mask13)">
<path opacity="0.969457" d="M705.341 1044.28L708.364 1049.63C683.66 1063.58 672.865 1085.2 676.171 1115.4L676.365 1117.05L670.266 1117.82C666.144 1084.89 677.579 1060.58 703.94 1045.09L705.341 1044.28Z" fill="url(#paint125_linear)"/>
<path opacity="0.969457" d="M748.674 1062.41L753.644 1066.02C739.752 1085.1 732.054 1107.03 729.517 1132.6L729.28 1135.17L723.155 1134.65C725.44 1107.78 733.118 1084.58 747.283 1064.35L748.674 1062.41Z" fill="url(#paint126_linear)"/>
<path opacity="0.969457" d="M802.447 1064.72L808.512 1065.72L807.834 1069.68L806.689 1075.94C801.613 1103.28 800.684 1119.46 804.738 1153.16L805.06 1155.79L798.96 1156.55L798.325 1151.26C794.652 1119.5 795.545 1102.9 800.255 1076.94L802.014 1067.29L802.447 1064.72Z" fill="url(#paint127_linear)"/>
<path opacity="0.969457" d="M857.226 1057.59L863.278 1056.51L864.726 1064.5C871.459 1101.28 873.149 1120.85 869.879 1153.65L869.586 1156.49L863.473 1155.84C866.955 1122.95 865.59 1103.98 859.236 1068.67L857.226 1057.59Z" fill="url(#paint128_linear)"/>
<path opacity="0.969457" d="M922.329 1055.58C933.639 1088.82 938.529 1111.59 938.541 1141.43L938.528 1144.25L932.381 1144.19C932.665 1114.68 928.25 1092.61 917.533 1060.59L916.51 1057.56L922.329 1055.58Z" fill="url(#paint129_linear)"/>
<path opacity="0.969457" d="M964.175 1036.78L969.38 1033.51L971.312 1036.58C991.565 1068.68 998.403 1085.95 997.227 1115.67L997.141 1117.59L991.002 1117.28C992.409 1089.16 986.691 1073.04 968.55 1043.75L964.175 1036.78Z" fill="url(#paint130_linear)"/>
</g>
<path fill-rule="evenodd" clip-rule="evenodd" d="M668.852 1006.84C671.115 1006.84 672.95 1005.01 672.95 1002.74C672.95 1000.48 671.115 998.645 668.852 998.645C666.588 998.645 664.754 1000.48 664.754 1002.74C664.754 1005.01 666.588 1006.84 668.852 1006.84Z" fill="url(#paint131_linear)"/>
<path fill-rule="evenodd" clip-rule="evenodd" d="M685.247 1023.23C687.51 1023.23 689.345 1021.4 689.345 1019.14C689.345 1016.87 687.51 1015.04 685.247 1015.04C682.983 1015.04 681.149 1016.87 681.149 1019.14C681.149 1021.4 682.983 1023.23 685.247 1023.23Z" fill="url(#paint132_linear)"/>
<path fill-rule="evenodd" clip-rule="evenodd" d="M701.639 1035.53C703.903 1035.53 705.737 1033.69 705.737 1031.43C705.737 1029.17 703.903 1027.33 701.639 1027.33C699.376 1027.33 697.542 1029.17 697.542 1031.43C697.542 1033.69 699.376 1035.53 701.639 1035.53Z" fill="url(#paint133_linear)"/>
<path fill-rule="evenodd" clip-rule="evenodd" d="M640.274 1095.07C675.766 1068.95 738.717 1099.56 738.699 1151.93C738.693 1167.47 717.368 1179.47 716.727 1172.15C713.407 1134.2 668.768 1107.63 637.69 1121.06L636.733 1121.49C630.059 1124.58 625.219 1106.15 640.274 1095.07Z" fill="url(#paint134_linear)"/>
<rect x="800.451" y="1156.32" width="13.1666" height="65.8329" rx="6.58329" fill="#A7DFFF"/>
<path fill-rule="evenodd" clip-rule="evenodd" d="M951.721 1166.44V1200.6H939.298V1166.44H951.721ZM976.566 1143.15V1177.31H964.143V1155.57H939.298V1143.15H976.566Z" fill="#A7DFFF"/>
<defs>
<linearGradient id="paint0_linear" x1="1467.58" y1="1438.73" x2="1914.67" y2="1080.69" gradientUnits="userSpaceOnUse">
<stop stop-color="#004A54"/>
<stop offset="1" stop-color="#97F5FF"/>
</linearGradient>
<linearGradient id="paint1_linear" x1="1287.01" y1="864.103" x2="445.699" y2="796.303" gradientUnits="userSpaceOnUse">
<stop stop-color="#004A54"/>
<stop offset="1" stop-color="#97F5FF"/>
</linearGradient>
<linearGradient id="paint2_linear" x1="1090.09" y1="1053.77" x2="755.136" y2="986.234" gradientUnits="userSpaceOnUse">
<stop stop-color="#004A54"/>
<stop offset="1" stop-color="#97F5FF"/>
</linearGradient>
<linearGradient id="paint3_linear" x1="1492.73" y1="1502.54" x2="1509.29" y2="1383.34" gradientUnits="userSpaceOnUse">
<stop stop-color="#004A54"/>
<stop offset="1" stop-color="#97F5FF"/>
</linearGradient>
<linearGradient id="paint4_linear" x1="1930.47" y1="985.401" x2="1934.29" y2="1077.36" gradientUnits="userSpaceOnUse">
<stop stop-color="#1F98CD"/>
<stop offset="1" stop-color="#1184C5"/>
</linearGradient>
<linearGradient id="paint5_linear" x1="-20.7414" y1="187.748" x2="254.58" y2="1007.96" gradientUnits="userSpaceOnUse">
<stop stop-color="#5DF1D7"/>
<stop offset="1" stop-color="#128698"/>
</linearGradient>
<linearGradient id="paint6_linear" x1="697.15" y1="-396.061" x2="-694.324" y2="-479.524" gradientUnits="userSpaceOnUse">
<stop stop-color="#004A54"/>
<stop offset="1" stop-color="#97F5FF"/>
</linearGradient>
<linearGradient id="paint7_linear" x1="-366.11" y1="253.865" x2="-365.118" y2="333.495" gradientUnits="userSpaceOnUse">
<stop stop-color="#5DF1D7"/>
<stop offset="1" stop-color="#128698"/>
</linearGradient>
<linearGradient id="paint8_linear" x1="-304.632" y1="376.805" x2="-303.64" y2="456.435" gradientUnits="userSpaceOnUse">
<stop stop-color="#5DF1D7"/>
<stop offset="1" stop-color="#128698"/>
</linearGradient>
<linearGradient id="paint9_linear" x1="-239.073" y1="499.743" x2="-238.08" y2="579.373" gradientUnits="userSpaceOnUse">
<stop stop-color="#5DF1D7"/>
<stop offset="1" stop-color="#128698"/>
</linearGradient>
<linearGradient id="paint10_linear" x1="297.032" y1="42.7307" x2="-76.2358" y2="365.712" gradientUnits="userSpaceOnUse">
<stop stop-color="#042635"/>
<stop offset="1" stop-color="#001431"/>
</linearGradient>
<linearGradient id="paint11_linear" x1="157.342" y1="363.099" x2="551.598" y2="512.5" gradientUnits="userSpaceOnUse">
<stop stop-color="white" stop-opacity="0.710173"/>
<stop offset="1" stop-color="white" stop-opacity="0.0379152"/>
</linearGradient>
<linearGradient id="paint12_linear" x1="305.978" y1="295.775" x2="402.405" y2="675.996" gradientUnits="userSpaceOnUse">
<stop stop-color="#5FD9C3"/>
<stop offset="1" stop-color="#128698"/>
</linearGradient>
<linearGradient id="paint13_linear" x1="562.632" y1="293.862" x2="562.632" y2="409.258" gradientUnits="userSpaceOnUse">
<stop stop-color="#DAF2FF"/>
<stop offset="1" stop-color="white"/>
</linearGradient>
<linearGradient id="paint14_linear" x1="562.632" y1="293.862" x2="562.632" y2="409.258" gradientUnits="userSpaceOnUse">
<stop stop-color="#DAF2FF"/>
<stop offset="1" stop-color="white"/>
</linearGradient>
<linearGradient id="paint15_linear" x1="359.017" y1="604.709" x2="639.014" y2="683.552" gradientUnits="userSpaceOnUse">
<stop stop-color="white" stop-opacity="0.710173"/>
<stop offset="1" stop-color="white" stop-opacity="0.0379152"/>
</linearGradient>
<linearGradient id="paint16_linear" x1="281.433" y1="-147.351" x2="281.433" y2="744.619" gradientUnits="userSpaceOnUse">
<stop stop-color="#B7E1FF"/>
<stop offset="1" stop-color="#B1DDBB"/>
</linearGradient>
<linearGradient id="paint17_linear" x1="936.209" y1="119.742" x2="570.833" y2="268.475" gradientUnits="userSpaceOnUse">
<stop stop-color="#1D6B7D"/>
<stop offset="1" stop-color="#123635"/>
</linearGradient>
<linearGradient id="paint18_linear" x1="783.718" y1="362.281" x2="885.65" y2="425.344" gradientUnits="userSpaceOnUse">
<stop stop-color="#33B7D5"/>
<stop offset="1" stop-color="#123635"/>
</linearGradient>
<linearGradient id="paint19_linear" x1="783.723" y1="498.07" x2="885.655" y2="435.007" gradientUnits="userSpaceOnUse">
<stop stop-color="#33B7D5"/>
<stop offset="1" stop-color="#123635"/>
</linearGradient>
<linearGradient id="paint20_linear" x1="863.915" y1="405.025" x2="795.068" y2="490.554" gradientUnits="userSpaceOnUse">
<stop stop-color="#33B7D5"/>
<stop offset="1" stop-color="#123635"/>
</linearGradient>
<linearGradient id="paint21_linear" x1="757.918" y1="405.025" x2="826.765" y2="490.554" gradientUnits="userSpaceOnUse">
<stop stop-color="#33B7D5"/>
<stop offset="1" stop-color="#123635"/>
</linearGradient>
<linearGradient id="paint22_linear" x1="731.487" y1="461.08" x2="903.088" y2="478.317" gradientUnits="userSpaceOnUse">
<stop stop-color="#33B7D5"/>
<stop offset="1" stop-color="#123635"/>
</linearGradient>
<linearGradient id="paint23_linear" x1="881.045" y1="464.709" x2="737.369" y2="496.509" gradientUnits="userSpaceOnUse">
<stop stop-color="#33B7D5"/>
<stop offset="1" stop-color="#123635"/>
</linearGradient>
<linearGradient id="paint24_linear" x1="731.488" y1="406.189" x2="903.088" y2="388.952" gradientUnits="userSpaceOnUse">
<stop stop-color="#33B7D5"/>
<stop offset="1" stop-color="#123635"/>
</linearGradient>
<linearGradient id="paint25_linear" x1="881.045" y1="402.561" x2="737.369" y2="370.76" gradientUnits="userSpaceOnUse">
<stop stop-color="#33B7D5"/>
<stop offset="1" stop-color="#123635"/>
</linearGradient>
<linearGradient id="paint26_linear" x1="775.414" y1="424.74" x2="801.533" y2="487.718" gradientUnits="userSpaceOnUse">
<stop stop-color="#33B7D5"/>
<stop offset="1" stop-color="#123635"/>
</linearGradient>
<linearGradient id="paint27_linear" x1="448.318" y1="298.072" x2="270.705" y2="624.009" gradientUnits="userSpaceOnUse">
<stop stop-color="#042635"/>
<stop offset="1" stop-color="#001431"/>
</linearGradient>
<linearGradient id="paint28_linear" x1="1250.24" y1="528.206" x2="1650.09" y2="454.665" gradientUnits="userSpaceOnUse">
<stop stop-color="white"/>
<stop offset="1" stop-color="white" stop-opacity="0.182255"/>
</linearGradient>
<linearGradient id="paint29_linear" x1="771.25" y1="768.791" x2="1479.62" y2="577.646" gradientUnits="userSpaceOnUse">
<stop stop-color="white"/>
<stop offset="1" stop-color="white" stop-opacity="0.182255"/>
</linearGradient>
<linearGradient id="paint30_linear" x1="638.46" y1="362.225" x2="659.858" y2="599.074" gradientUnits="userSpaceOnUse">
<stop stop-color="#5DF1D7"/>
<stop offset="1" stop-color="#128698"/>
</linearGradient>
<linearGradient id="paint31_linear" x1="944.61" y1="195.924" x2="810.954" y2="507.17" gradientUnits="userSpaceOnUse">
<stop stop-color="#042635"/>
<stop offset="1" stop-color="#001431"/>
</linearGradient>
<linearGradient id="paint32_linear" x1="695.759" y1="-390.997" x2="695.759" y2="409.48" gradientUnits="userSpaceOnUse">
<stop stop-color="#A1DAFA"/>
<stop offset="1" stop-color="#BCEAC9"/>
</linearGradient>
<linearGradient id="paint33_linear" x1="858.187" y1="459.758" x2="936.773" y2="550.238" gradientUnits="userSpaceOnUse">
<stop stop-color="#1D6B7D"/>
<stop offset="1" stop-color="#123635"/>
</linearGradient>
<linearGradient id="paint34_linear" x1="1025.63" y1="516.279" x2="1077.85" y2="458.189" gradientUnits="userSpaceOnUse">
<stop stop-color="#005763"/>
<stop offset="1" stop-color="#97F5FF"/>
</linearGradient>
<linearGradient id="paint35_linear" x1="960.163" y1="465.024" x2="971.97" y2="505.323" gradientUnits="userSpaceOnUse">
<stop stop-color="#5DF1D7"/>
<stop offset="1" stop-color="#128698"/>
</linearGradient>
<linearGradient id="paint36_linear" x1="891.931" y1="-90.747" x2="891.931" y2="727.91" gradientUnits="userSpaceOnUse">
<stop stop-color="#A1DAFA"/>
<stop offset="1" stop-color="#BCEAC9"/>
</linearGradient>
<linearGradient id="paint37_linear" x1="662.508" y1="381.867" x2="553.056" y2="719.817" gradientUnits="userSpaceOnUse">
<stop stop-color="#042635"/>
<stop offset="1" stop-color="#001431"/>
</linearGradient>
<linearGradient id="paint38_linear" x1="178.591" y1="383.826" x2="1062.88" y2="1153.07" gradientUnits="userSpaceOnUse">
<stop stop-color="#1D6B7D"/>
<stop offset="1" stop-color="#123635"/>
</linearGradient>
<linearGradient id="paint39_linear" x1="1100.21" y1="440.513" x2="960.842" y2="850.584" gradientUnits="userSpaceOnUse">
<stop stop-color="#5DF1D7"/>
<stop offset="1" stop-color="#021F24"/>
</linearGradient>
<linearGradient id="paint40_linear" x1="945.107" y1="367.993" x2="1197.77" y2="1001.2" gradientUnits="userSpaceOnUse">
<stop stop-color="#5DF1D7"/>
<stop offset="1" stop-color="#021F24"/>
</linearGradient>
<linearGradient id="paint41_linear" x1="1123.14" y1="514.43" x2="1564.93" y2="1075.47" gradientUnits="userSpaceOnUse">
<stop stop-color="#5DF1D7"/>
<stop offset="1" stop-color="#128698"/>
</linearGradient>
<linearGradient id="paint42_linear" x1="1086.29" y1="362.813" x2="1095.21" y2="855.812" gradientUnits="userSpaceOnUse">
<stop stop-color="#5DF1D7"/>
<stop offset="1" stop-color="#021F24"/>
</linearGradient>
<linearGradient id="paint43_linear" x1="1204.99" y1="498.004" x2="1197.95" y2="861.345" gradientUnits="userSpaceOnUse">
<stop stop-color="#5DF1D7"/>
<stop offset="1" stop-color="#021F24"/>
</linearGradient>
<linearGradient id="paint44_linear" x1="1065.52" y1="708.687" x2="1065.52" y2="910.499" gradientUnits="userSpaceOnUse">
<stop stop-opacity="0.689958"/>
<stop offset="1" stop-color="#001431"/>
</linearGradient>
<linearGradient id="paint45_linear" x1="1466.58" y1="568.042" x2="1542.43" y2="713.93" gradientUnits="userSpaceOnUse">
<stop stop-color="#5DF1D7"/>
<stop offset="1" stop-color="#128698"/>
</linearGradient>
<linearGradient id="paint46_linear" x1="1641.45" y1="658.973" x2="1637.42" y2="488.475" gradientUnits="userSpaceOnUse">
<stop stop-color="#00292F"/>
<stop offset="1" stop-color="#97F5FF"/>
</linearGradient>
<linearGradient id="paint47_linear" x1="1441.62" y1="427.891" x2="1441.62" y2="624.761" gradientUnits="userSpaceOnUse">
<stop stop-color="#A1DAFA"/>
<stop offset="1" stop-color="#BCEAC9"/>
</linearGradient>
<linearGradient id="paint48_linear" x1="1642.28" y1="427.891" x2="1642.28" y2="624.76" gradientUnits="userSpaceOnUse">
<stop stop-color="#A1DAFA"/>
<stop offset="1" stop-color="#BCEAC9"/>
</linearGradient>
<linearGradient id="paint49_linear" x1="1824.81" y1="658.973" x2="1822.22" y2="488.419" gradientUnits="userSpaceOnUse">
<stop stop-color="#00292F"/>
<stop offset="1" stop-color="#97F5FF"/>
</linearGradient>
<linearGradient id="paint50_linear" x1="1821.82" y1="847.301" x2="1796.07" y2="282.674" gradientUnits="userSpaceOnUse">
<stop stop-color="#004A54"/>
<stop offset="1" stop-color="#97F5FF"/>
</linearGradient>
<linearGradient id="paint51_linear" x1="1303.59" y1="587.654" x2="1431.53" y2="768.996" gradientUnits="userSpaceOnUse">
<stop stop-color="#1D6B7D"/>
<stop offset="1" stop-color="#123635"/>
</linearGradient>
<linearGradient id="paint52_linear" x1="1440.87" y1="711.676" x2="1598.76" y2="658.353" gradientUnits="userSpaceOnUse">
<stop stop-color="white"/>
<stop offset="1" stop-color="white" stop-opacity="0.182255"/>
</linearGradient>
<linearGradient id="paint53_linear" x1="32.1612" y1="406.331" x2="32.1612" y2="1147.61" gradientUnits="userSpaceOnUse">
<stop stop-color="#2CD3B6"/>
<stop offset="1" stop-color="#17636F"/>
</linearGradient>
<linearGradient id="paint54_linear" x1="1500.07" y1="430.986" x2="1475.82" y2="1208.72" gradientUnits="userSpaceOnUse">
<stop stop-color="#5DF1D7"/>
<stop offset="1" stop-color="#021F24"/>
</linearGradient>
<linearGradient id="paint55_linear" x1="1272.56" y1="613.067" x2="1264.66" y2="1210.58" gradientUnits="userSpaceOnUse">
<stop stop-color="#5DF1D7"/>
<stop offset="1" stop-color="#021F24"/>
</linearGradient>
<linearGradient id="paint56_linear" x1="1459.38" y1="1051.14" x2="1459.38" y2="1224.7" gradientUnits="userSpaceOnUse">
<stop stop-opacity="0.689958"/>
<stop offset="1" stop-color="#001431"/>
</linearGradient>
<linearGradient id="paint57_linear" x1="1606.55" y1="1420.91" x2="2019.25" y2="1299.31" gradientUnits="userSpaceOnUse">
<stop stop-color="#004A54"/>
<stop offset="1" stop-color="#97F5FF"/>
</linearGradient>
<linearGradient id="paint58_linear" x1="1553.39" y1="363.624" x2="1187.41" y2="353.502" gradientUnits="userSpaceOnUse">
<stop stop-color="#004A54"/>
<stop offset="1" stop-color="#97F5FF"/>
</linearGradient>
<linearGradient id="paint59_linear" x1="3670.82" y1="1299.56" x2="3650.18" y2="-155.061" gradientUnits="userSpaceOnUse">
<stop stop-color="#004A54"/>
<stop offset="1" stop-color="#97F5FF"/>
</linearGradient>
<linearGradient id="paint60_linear" x1="1216.26" y1="1319.11" x2="1694.11" y2="1174.13" gradientUnits="userSpaceOnUse">
<stop stop-color="#004A54"/>
<stop offset="1" stop-color="#97F5FF"/>
</linearGradient>
<linearGradient id="paint61_linear" x1="1148.13" y1="192.771" x2="657.27" y2="177.855" gradientUnits="userSpaceOnUse">
<stop stop-color="#004A54"/>
<stop offset="1" stop-color="#97F5FF"/>
</linearGradient>
<linearGradient id="paint62_linear" x1="559.844" y1="1436.68" x2="1978.91" y2="794.593" gradientUnits="userSpaceOnUse">
<stop stop-color="white"/>
<stop offset="1" stop-color="white" stop-opacity="0.182255"/>
</linearGradient>
<linearGradient id="paint63_linear" x1="-101.501" y1="1231.52" x2="1119.79" y2="1903.44" gradientUnits="userSpaceOnUse">
<stop stop-color="white" stop-opacity="0.710173"/>
<stop offset="1" stop-color="white" stop-opacity="0.0379152"/>
</linearGradient>
<linearGradient id="paint64_linear" x1="1848.51" y1="1050.97" x2="1852.34" y2="1142.92" gradientUnits="userSpaceOnUse">
<stop stop-color="#1F98CD"/>
<stop offset="1" stop-color="#1184C5"/>
</linearGradient>
<linearGradient id="paint65_linear" x1="1507.71" y1="1124.94" x2="1627.04" y2="1370.97" gradientUnits="userSpaceOnUse">
<stop stop-color="white" stop-opacity="0.710173"/>
<stop offset="1" stop-color="white" stop-opacity="0.0379152"/>
</linearGradient>
<linearGradient id="paint66_linear" x1="1102.85" y1="1438.73" x2="1549.94" y2="1080.69" gradientUnits="userSpaceOnUse">
<stop stop-color="#004A54"/>
<stop offset="1" stop-color="#97F5FF"/>
</linearGradient>
<linearGradient id="paint67_linear" x1="592.015" y1="697.414" x2="-9.3596" y2="981.138" gradientUnits="userSpaceOnUse">
<stop stop-color="#004A54"/>
<stop offset="1" stop-color="#97F5FF"/>
</linearGradient>
<linearGradient id="paint68_linear" x1="935.387" y1="1502.54" x2="951.957" y2="1383.34" gradientUnits="userSpaceOnUse">
<stop stop-color="#004A54"/>
<stop offset="1" stop-color="#97F5FF"/>
</linearGradient>
<linearGradient id="paint69_linear" x1="1891.31" y1="1438.73" x2="2287.36" y2="1210.9" gradientUnits="userSpaceOnUse">
<stop stop-color="#044149"/>
<stop offset="1" stop-color="#65C3CD"/>
</linearGradient>
<linearGradient id="paint70_linear" x1="1512.82" y1="697.414" x2="1039.1" y2="857.954" gradientUnits="userSpaceOnUse">
<stop stop-color="#004A54"/>
<stop offset="1" stop-color="#97F5FF"/>
</linearGradient>
<linearGradient id="paint71_linear" x1="1516.64" y1="1036.84" x2="1439.21" y2="1159.67" gradientUnits="userSpaceOnUse">
<stop stop-color="#042635"/>
<stop offset="1" stop-color="#001431"/>
</linearGradient>
<linearGradient id="paint72_linear" x1="1984.48" y1="1502.54" x2="2001.05" y2="1383.34" gradientUnits="userSpaceOnUse">
<stop stop-color="#004A54"/>
<stop offset="1" stop-color="#97F5FF"/>
</linearGradient>
<linearGradient id="paint73_linear" x1="1973.5" y1="1516.44" x2="2074.35" y2="1327.18" gradientUnits="userSpaceOnUse">
<stop stop-color="#004A54"/>
<stop offset="1" stop-color="#97F5FF"/>
</linearGradient>
<linearGradient id="paint74_linear" x1="1937.52" y1="1357.32" x2="1522.82" y2="1279.37" gradientUnits="userSpaceOnUse">
<stop stop-color="#004A54"/>
<stop offset="1" stop-color="#97F5FF"/>
</linearGradient>
<linearGradient id="paint75_linear" x1="1110.08" y1="1470.7" x2="1535.23" y2="1330.56" gradientUnits="userSpaceOnUse">
<stop stop-color="#004A54"/>
<stop offset="1" stop-color="#44AAB5"/>
</linearGradient>
<linearGradient id="paint76_linear" x1="1624.95" y1="1452.31" x2="2164.86" y2="1013.95" gradientUnits="userSpaceOnUse">
<stop stop-color="#004A54"/>
<stop offset="1" stop-color="#97F5FF"/>
</linearGradient>
<linearGradient id="paint77_linear" x1="1383.79" y1="1354.05" x2="1240.56" y2="1441.61" gradientUnits="userSpaceOnUse">
<stop stop-color="#004A54"/>
<stop offset="1" stop-color="#97F5FF"/>
</linearGradient>
<linearGradient id="paint78_linear" x1="1220.98" y1="1443.09" x2="1345.41" y2="1586.35" gradientUnits="userSpaceOnUse">
<stop stop-color="#1D6B7D"/>
<stop offset="1" stop-color="#123635"/>
</linearGradient>
<linearGradient id="paint79_linear" x1="1426.74" y1="1430.98" x2="1386.73" y2="1455.43" gradientUnits="userSpaceOnUse">
<stop stop-color="#042635"/>
<stop offset="1" stop-color="#001431"/>
</linearGradient>
<linearGradient id="paint80_linear" x1="1236.25" y1="1354.05" x2="1093.03" y2="1441.61" gradientUnits="userSpaceOnUse">
<stop stop-color="#004A54"/>
<stop offset="1" stop-color="#97F5FF"/>
</linearGradient>
<linearGradient id="paint81_linear" x1="1073.47" y1="1443.09" x2="1197.9" y2="1586.35" gradientUnits="userSpaceOnUse">
<stop stop-color="#1D6B7D"/>
<stop offset="1" stop-color="#123635"/>
</linearGradient>
<linearGradient id="paint82_linear" x1="1279.21" y1="1430.98" x2="1239.2" y2="1455.43" gradientUnits="userSpaceOnUse">
<stop stop-color="#042635"/>
<stop offset="1" stop-color="#001431"/>
</linearGradient>
<linearGradient id="paint83_linear" x1="1060.05" y1="1354.05" x2="916.821" y2="1441.61" gradientUnits="userSpaceOnUse">
<stop stop-color="#004A54"/>
<stop offset="1" stop-color="#97F5FF"/>
</linearGradient>
<linearGradient id="paint84_linear" x1="897.256" y1="1443.09" x2="1021.69" y2="1586.35" gradientUnits="userSpaceOnUse">
<stop stop-color="#1D6B7D"/>
<stop offset="1" stop-color="#123635"/>
</linearGradient>
<linearGradient id="paint85_linear" x1="1305.23" y1="1303.11" x2="771.019" y2="1368" gradientUnits="userSpaceOnUse">
<stop stop-color="#004A54"/>
<stop offset="1" stop-color="#97F5FF"/>
</linearGradient>
<linearGradient id="paint86_linear" x1="1345.8" y1="1190.42" x2="811.59" y2="1255.31" gradientUnits="userSpaceOnUse">
<stop stop-color="#004A54"/>
<stop offset="1" stop-color="#97F5FF"/>
</linearGradient>
<linearGradient id="paint87_linear" x1="1377.36" y1="1077.72" x2="843.149" y2="1142.61" gradientUnits="userSpaceOnUse">
<stop stop-color="#004A54"/>
<stop offset="1" stop-color="#97F5FF"/>
</linearGradient>
<linearGradient id="paint88_linear" x1="1413.42" y1="965.029" x2="879.207" y2="1029.92" gradientUnits="userSpaceOnUse">
<stop stop-color="#004A54"/>
<stop offset="1" stop-color="#97F5FF"/>
</linearGradient>
<linearGradient id="paint89_linear" x1="324.301" y1="707.279" x2="322.728" y2="1065.76" gradientUnits="userSpaceOnUse">
<stop stop-color="#1A8370"/>
<stop offset="1" stop-color="#00414B"/>
</linearGradient>
<linearGradient id="paint90_linear" x1="446.972" y1="1013.63" x2="446.972" y2="1221.91" gradientUnits="userSpaceOnUse">
<stop stop-opacity="0.689958"/>
<stop offset="1" stop-color="#001431"/>
</linearGradient>
<linearGradient id="paint91_linear" x1="511.711" y1="953.864" x2="511.711" y2="1137.82" gradientUnits="userSpaceOnUse">
<stop stop-color="#5DF1D7"/>
<stop offset="1" stop-color="#128698"/>
</linearGradient>
<linearGradient id="paint92_linear" x1="586.864" y1="904.627" x2="505.064" y2="1112.22" gradientUnits="userSpaceOnUse">
<stop stop-color="#042635"/>
<stop offset="1" stop-color="#001431"/>
</linearGradient>
<linearGradient id="paint93_linear" x1="587.904" y1="903.853" x2="990.914" y2="1093.26" gradientUnits="userSpaceOnUse">
<stop stop-color="white" stop-opacity="0.710173"/>
<stop offset="1" stop-color="white" stop-opacity="0.0379152"/>
</linearGradient>
<linearGradient id="paint94_linear" x1="-32.1755" y1="750.984" x2="39.4124" y2="1184.38" gradientUnits="userSpaceOnUse">
<stop stop-color="#5DF1D7"/>
<stop offset="1" stop-color="#128698"/>
</linearGradient>
<linearGradient id="paint95_linear" x1="-1200.38" y1="36346.7" x2="11413.6" y2="34047.8" gradientUnits="userSpaceOnUse">
<stop stop-color="#0A172A"/>
<stop offset="1" stop-color="#259EB1"/>
</linearGradient>
<linearGradient id="paint96_linear" x1="-641.557" y1="582.966" x2="-628.334" y2="1255.36" gradientUnits="userSpaceOnUse">
<stop stop-color="#5DF1D7"/>
<stop offset="1" stop-color="#021F24"/>
</linearGradient>
<linearGradient id="paint97_linear" x1="-942.605" y1="24892.1" x2="8926.28" y2="22798.5" gradientUnits="userSpaceOnUse">
<stop stop-color="#0A172A"/>
<stop offset="1" stop-color="#259EB1"/>
</linearGradient>
<linearGradient id="paint98_linear" x1="1203.46" y1="1358.56" x2="1748.83" y2="540.655" gradientUnits="userSpaceOnUse">
<stop stop-color="#004A54"/>
<stop offset="1" stop-color="#97F5FF"/>
</linearGradient>
<linearGradient id="paint99_linear" x1="89.6028" y1="1107.55" x2="541.943" y2="1318.07" gradientUnits="userSpaceOnUse">
<stop stop-color="white" stop-opacity="0.710173"/>
<stop offset="1" stop-color="white" stop-opacity="0.0379152"/>
</linearGradient>
<linearGradient id="paint100_linear" x1="700.212" y1="1290.54" x2="802.24" y2="940.044" gradientUnits="userSpaceOnUse">
<stop stop-color="#004A54"/>
<stop offset="1" stop-color="#97F5FF"/>
</linearGradient>
<linearGradient id="paint101_linear" x1="-52.3954" y1="1072.92" x2="-52.3954" y2="1219.35" gradientUnits="userSpaceOnUse">
<stop stop-color="#5DF1D7"/>
<stop offset="1" stop-color="#128698"/>
</linearGradient>
<linearGradient id="paint102_linear" x1="-1263.82" y1="9506.75" x2="6453.95" y2="4469.92" gradientUnits="userSpaceOnUse">
<stop stop-color="#0A172A"/>
<stop offset="1" stop-color="#259EB1"/>
</linearGradient>
<linearGradient id="paint103_linear" x1="1444.45" y1="-292.532" x2="1444.45" y2="341.834" gradientUnits="userSpaceOnUse">
<stop stop-color="#A1DAFA"/>
<stop offset="1" stop-color="#BCEAC9"/>
</linearGradient>
<linearGradient id="paint104_linear" x1="660.545" y1="376.849" x2="241.876" y2="973.907" gradientUnits="userSpaceOnUse">
<stop stop-color="#042635"/>
<stop offset="1" stop-color="#001431"/>
</linearGradient>
<linearGradient id="paint105_linear" x1="1012.49" y1="1211.84" x2="782.195" y2="1206.25" gradientUnits="userSpaceOnUse">
<stop stop-color="#25A0B3"/>
<stop offset="1" stop-color="#34D7E8"/>
</linearGradient>
<linearGradient id="paint106_linear" x1="813.083" y1="1701.93" x2="967.51" y2="1496.64" gradientUnits="userSpaceOnUse">
<stop stop-color="#2BB6C4"/>
<stop offset="0.85" stop-color="#259EB1"/>
<stop offset="1" stop-color="#2290A1"/>
</linearGradient>
<linearGradient id="paint107_linear" x1="867.421" y1="1260.03" x2="613.599" y2="1252.17" gradientUnits="userSpaceOnUse">
<stop stop-color="#25A0B3"/>
<stop offset="1" stop-color="#34D7E8"/>
</linearGradient>
<linearGradient id="paint108_linear" x1="682.693" y1="1590.24" x2="751.757" y2="1448.66" gradientUnits="userSpaceOnUse">
<stop stop-color="#2BB6C4"/>
<stop offset="0.85" stop-color="#259EB1"/>
<stop offset="1" stop-color="#2290A1"/>
</linearGradient>
<linearGradient id="paint109_linear" x1="1158.91" y1="752.955" x2="751.282" y2="1052.74" gradientUnits="userSpaceOnUse">
<stop stop-color="#A0F6FF"/>
<stop offset="1" stop-color="#25A0B3"/>
</linearGradient>
<linearGradient id="paint110_linear" x1="957.916" y1="853.224" x2="780.531" y2="1006.66" gradientUnits="userSpaceOnUse">
<stop stop-color="#042635"/>
<stop offset="1" stop-color="#001431"/>
</linearGradient>
<linearGradient id="paint111_linear" x1="505.997" y1="1004.01" x2="505.997" y2="1121.41" gradientUnits="userSpaceOnUse">
<stop stop-color="#00A5FF"/>
<stop offset="1" stop-color="#0F38CD"/>
</linearGradient>
<linearGradient id="paint112_linear" x1="379.525" y1="1357.36" x2="658.613" y2="1357.36" gradientUnits="userSpaceOnUse">
<stop stop-color="#77CEFF"/>
<stop offset="0.854221" stop-color="#20B0FF"/>
<stop offset="1" stop-color="#1070A5"/>
</linearGradient>
<linearGradient id="paint113_linear" x1="391.045" y1="1219.51" x2="569.42" y2="1368.19" gradientUnits="userSpaceOnUse">
<stop stop-color="#00A5FF"/>
<stop offset="1" stop-color="#0F38CD"/>
</linearGradient>
<linearGradient id="paint114_linear" x1="1068.25" y1="1008.91" x2="461.221" y2="978.313" gradientUnits="userSpaceOnUse">
<stop stop-color="#1CC9E3"/>
<stop offset="1" stop-color="#34D7E8"/>
</linearGradient>
<linearGradient id="paint115_linear" x1="581.732" y1="1877.31" x2="854.469" y2="1766.23" gradientUnits="userSpaceOnUse">
<stop stop-color="#34D7E8"/>
<stop offset="0.85" stop-color="#259EB1"/>
<stop offset="1" stop-color="#25A0B3"/>
</linearGradient>
<linearGradient id="paint116_linear" x1="770.589" y1="1110.59" x2="580.886" y2="1281.58" gradientUnits="userSpaceOnUse">
<stop stop-color="#165B7A"/>
<stop offset="1" stop-color="#001431"/>
</linearGradient>
<linearGradient id="paint117_linear" x1="603.287" y1="646.217" x2="603.287" y2="1101.09" gradientUnits="userSpaceOnUse">
<stop stop-color="#9CF6FF"/>
<stop offset="1" stop-color="#2BC3DB"/>
</linearGradient>
<linearGradient id="paint118_linear" x1="535.821" y1="970.826" x2="649.813" y2="680.367" gradientUnits="userSpaceOnUse">
<stop stop-color="#34D7E8"/>
<stop offset="0.85" stop-color="#259EB1"/>
<stop offset="1" stop-color="#25A0B3"/>
</linearGradient>
<linearGradient id="paint119_linear" x1="633.117" y1="1049.03" x2="1133.43" y2="1262.14" gradientUnits="userSpaceOnUse">
<stop stop-color="#165B7A"/>
<stop offset="1" stop-color="#001431"/>
</linearGradient>
<linearGradient id="paint120_linear" x1="627.885" y1="1051.6" x2="741.595" y2="975.382" gradientUnits="userSpaceOnUse">
<stop stop-color="#34D7E8"/>
<stop offset="0.85" stop-color="#259EB1"/>
<stop offset="1" stop-color="#25A0B3"/>
</linearGradient>
<linearGradient id="paint121_linear" x1="550.356" y1="982.026" x2="760.538" y2="1004.67" gradientUnits="userSpaceOnUse">
<stop stop-color="#B1F5FF"/>
<stop offset="1" stop-color="#34D7E8"/>
</linearGradient>
<linearGradient id="paint122_linear" x1="668.867" y1="978.391" x2="722.909" y2="955.841" gradientUnits="userSpaceOnUse">
<stop stop-color="#34D7E8"/>
<stop offset="0.85" stop-color="#259EB1"/>
<stop offset="1" stop-color="#25A0B3"/>
</linearGradient>
<linearGradient id="paint123_linear" x1="737.939" y1="815.337" x2="397.391" y2="935.646" gradientUnits="userSpaceOnUse">
<stop stop-color="#74F2FF"/>
<stop offset="1" stop-color="#39D9F2"/>
</linearGradient>
<linearGradient id="paint124_linear" x1="725.514" y1="1066.52" x2="717.631" y2="1171.4" gradientUnits="userSpaceOnUse">
<stop stop-color="#042635"/>
<stop offset="1" stop-color="#06565B"/>
</linearGradient>
<linearGradient id="paint125_linear" x1="654.99" y1="999.321" x2="650.239" y2="1137.93" gradientUnits="userSpaceOnUse">
<stop stop-color="#5DF1D7"/>
<stop offset="1" stop-color="#021F24"/>
</linearGradient>
<linearGradient id="paint126_linear" x1="711.831" y1="1017.92" x2="705.897" y2="1154.98" gradientUnits="userSpaceOnUse">
<stop stop-color="#5DF1D7"/>
<stop offset="1" stop-color="#021F24"/>
</linearGradient>
<linearGradient id="paint127_linear" x1="791.432" y1="1008.58" x2="768.66" y2="1178.83" gradientUnits="userSpaceOnUse">
<stop stop-color="#5DF1D7"/>
<stop offset="1" stop-color="#021F24"/>
</linearGradient>
<linearGradient id="paint128_linear" x1="851.927" y1="995.392" x2="828.324" y2="1181.06" gradientUnits="userSpaceOnUse">
<stop stop-color="#5DF1D7"/>
<stop offset="1" stop-color="#021F24"/>
</linearGradient>
<linearGradient id="paint129_linear" x1="909.606" y1="1001.05" x2="891.011" y2="1165.72" gradientUnits="userSpaceOnUse">
<stop stop-color="#5DF1D7"/>
<stop offset="1" stop-color="#021F24"/>
</linearGradient>
<linearGradient id="paint130_linear" x1="951.852" y1="982.107" x2="944.573" y2="1140.44" gradientUnits="userSpaceOnUse">
<stop stop-color="#5DF1D7"/>
<stop offset="1" stop-color="#021F24"/>
</linearGradient>
<linearGradient id="paint131_linear" x1="666.511" y1="1001.39" x2="664.386" y2="1009.09" gradientUnits="userSpaceOnUse">
<stop stop-color="#042635"/>
<stop offset="1" stop-color="#06565B"/>
</linearGradient>
<linearGradient id="paint132_linear" x1="682.906" y1="1017.78" x2="680.781" y2="1025.48" gradientUnits="userSpaceOnUse">
<stop stop-color="#042635"/>
<stop offset="1" stop-color="#06565B"/>
</linearGradient>
<linearGradient id="paint133_linear" x1="699.299" y1="1030.08" x2="697.174" y2="1037.78" gradientUnits="userSpaceOnUse">
<stop stop-color="#042635"/>
<stop offset="1" stop-color="#06565B"/>
</linearGradient>
<linearGradient id="paint134_linear" x1="653.292" y1="1118.12" x2="639.412" y2="1208.3" gradientUnits="userSpaceOnUse">
<stop stop-color="#042635"/>
<stop offset="1" stop-color="#06565B"/>
</linearGradient>
</defs>
</svg>
