<svg xmlns="http://www.w3.org/2000/svg" xmlns:xlink="http://www.w3.org/1999/xlink" xmlns:lucid="lucid" width="791" height="483.69"><g transform="translate(320 103.68889160156255)" lucid:page-tab-id="0_0"><path d="M-162.93-77.7c0-3.3 2.68-6 6-6h408c3.3 0 6 2.7 6 6v68c0 3.32-2.7 6-6 6h-408c-3.32 0-6-2.68-6-6z" stroke="#5e5e5e" stroke-width="3" fill="#fff"/><use xlink:href="#a" transform="matrix(1,0,0,1,-157.93332519531236,-78.68889160156255) translate(150.7716049382716 28.71527777777778)"/><use xlink:href="#b" transform="matrix(1,0,0,1,-157.93332519531236,-78.68889160156255) translate(151.61728395061732 51.826388888888886)"/><use xlink:href="#c" transform="matrix(1,0,0,1,-157.93332519531236,-78.68889160156255) translate(207.12345679012347 51.826388888888886)"/><path d="M-162.93 82.3c0-3.3 2.68-6 6-6H434c3.3 0 6 2.7 6 6V354c0 3.3-2.7 6-6 6h-590.93c-3.32 0-6-2.7-6-6z" stroke="#5e5e5e" stroke-width="3" fill="#fff"/><path d="M-42.93 62.3c0-3.3 2.68-6 6-6h68c3.3 0 6 2.7 6 6v28c0 3.32-2.7 6-6 6h-68c-3.32 0-6-2.68-6-6z" stroke="#5e5e5e" stroke-width="3" fill="#fff"/><use xlink:href="#d" transform="matrix(1,0,0,1,-37.933325195312364,61.311108398437455) translate(13.663194444444446 19.84375)"/><path d="M57.07 62.3c0-3.3 2.68-6 6-6h68c3.3 0 6 2.7 6 6v28c0 3.32-2.7 6-6 6h-68c-3.32 0-6-2.68-6-6z" stroke="#5e5e5e" stroke-width="3" fill="#fff"/><use xlink:href="#e" transform="matrix(1,0,0,1,62.066674804687636,61.311108398437455) translate(13.663194444444446 19.84375)"/><path d="M-2.93-1.2v37.5" stroke="#5e5e5e" stroke-width="2" fill="none"/><path d="M-1.93-1.16h-2V-2.2h2z" fill="#5e5e5e"/><path d="M-2.93 51.57L-7.57 37.3H1.7z" stroke="#5e5e5e" stroke-width="2" fill="#5e5e5e"/><path d="M97.3-1.2v37.5" stroke="#5e5e5e" stroke-width="2" fill="none"/><path d="M98.3-1.16h-2V-2.2h2z" fill="#5e5e5e"/><path d="M97.3 51.58L92.64 37.3h9.27z" stroke="#5e5e5e" stroke-width="2" fill="#5e5e5e"/><path d="M-142.93 62.3c0-3.3 2.68-6 6-6h68c3.3 0 6 2.7 6 6v28c0 3.32-2.7 6-6 6h-68c-3.32 0-6-2.68-6-6z" stroke="#5e5e5e" stroke-width="3" fill="#fff"/><use xlink:href="#f" transform="matrix(1,0,0,1,-137.93332519531236,61.311108398437455) translate(-2.3394097222222143 20.32986111111111)"/><path d="M157.07 62.3c0-3.3 2.68-6 6-6h68c3.3 0 6 2.7 6 6v28c0 3.32-2.7 6-6 6h-68c-3.32 0-6-2.68-6-6z" stroke="#5e5e5e" stroke-width="3" fill="#fff"/><use xlink:href="#g" transform="matrix(1,0,0,1,162.06667480468764,61.311108398437455) translate(8.328993055555557 19.84375)"/><path d="M197.66-1.2v37.5" stroke="#5e5e5e" stroke-width="2" fill="none"/><path d="M198.66-1.16h-2V-2.2h2z" fill="#5e5e5e"/><path d="M197.66 51.58l-4.64-14.27h9.28z" stroke="#5e5e5e" stroke-width="2" fill="#5e5e5e"/><path d="M-101.14-1.2v37.5" stroke="#5e5e5e" stroke-width="2" fill="none"/><path d="M-100.14-1.16h-2V-2.2h2z" fill="#5e5e5e"/><path d="M-101.14 51.58l-4.63-14.27h9.27z" stroke="#5e5e5e" stroke-width="2" fill="#5e5e5e"/><path d="M-142.93 186c0-3.3 2.68-6 6-6H-46c3.3 0 6 2.7 6 6v128c0 3.3-2.7 6-6 6h-90.93c-3.32 0-6-2.7-6-6z" stroke="#5e5e5e" stroke-width="3" fill="#c7e8ac"/><use xlink:href="#h" transform="matrix(1,0,0,1,-137.93332519531236,185) translate(24.925925925925927 54.34027777777778)"/><use xlink:href="#i" transform="matrix(1,0,0,1,-137.93332519531236,185) translate(5.23456790123457 81.00694444444446)"/><path d="M-21.67 98.8c0 .56-.44 1-1 1-.55 0-1-.44-1-1 0-.54.45-1 1-1 .56 0 1 .46 1 1zm0 4.18c0 .55-.44 1-1 1-.55 0-1-.45-1-1s.45-1 1-1c.56 0 1 .45 1 1zm0 4.17c0 .55-.44 1-1 1-.55 0-1-.45-1-1 0-.56.45-1 1-1 .56 0 1 .44 1 1zm0 4.17c0 .55-.44 1-1 1-.55 0-1-.45-1-1 0-.56.45-1 1-1 .56 0 1 .44 1 1zm0 4.16c0 .56-.44 1-1 1-.55 0-1-.44-1-1 0-.55.45-1 1-1 .56 0 1 .45 1 1zm0 4.17c0 .55-.44 1-1 1-.55 0-1-.45-1-1s.45-1 1-1c.56 0 1 .45 1 1zm0 4.17c0 .55-.44 1-1 1-.55 0-1-.45-1-1s.45-1 1-1c.56 0 1 .45 1 1zm0 4.17c0 .54-.44 1-1 1-.55 0-1-.46-1-1 0-.56.45-1 1-1 .56 0 1 .44 1 1zm0 4.16c0 .55-.44 1-1 1-.55 0-1-.45-1-1 0-.56.45-1 1-1 .56 0 1 .44 1 1zm-1.9 4.1c0 .55-.44 1-1 1-.54 0-1-.45-1-1s.46-1 1-1c.56 0 1 .45 1 1zm-4.1 1.9c0 .55-.44 1-1 1-.55 0-1-.45-1-1 0-.56.45-1 1-1 .56 0 1 .44 1 1zm-4.05 0c0 .55-.45 1-1 1-.56 0-1-.45-1-1 0-.56.44-1 1-1 .55 0 1 .44 1 1zm-4.06 0c0 .55-.45 1-1 1s-1-.45-1-1c0-.56.45-1 1-1s1 .44 1 1zm-4.06 0c0 .55-.45 1-1 1s-1-.45-1-1c0-.56.45-1 1-1s1 .44 1 1zm-4.06 0c0 .55-.44 1-1 1-.55 0-1-.45-1-1 0-.56.45-1 1-1 .56 0 1 .44 1 1zm-4.05 0c0 .55-.45 1-1 1s-1-.45-1-1c0-.56.45-1 1-1s1 .44 1 1zm-4.06 0c0 .55-.46 1-1 1-.56 0-1-.45-1-1 0-.56.44-1 1-1 .54 0 1 .44 1 1zm-4.07 0c0 .55-.44 1-1 1-.55 0-1-.45-1-1 0-.56.45-1 1-1 .56 0 1 .44 1 1zm-4.05 0c0 .55-.45 1-1 1-.56 0-1-.45-1-1 0-.56.44-1 1-1 .55 0 1 .44 1 1zm-4.06 0c0 .55-.45 1-1 1s-1-.45-1-1c0-.56.45-1 1-1s1 .44 1 1zm-4.06 0c0 .55-.45 1-1 1s-1-.45-1-1c0-.56.45-1 1-1s1 .44 1 1zm-4.06 0c0 .55-.44 1-1 1-.55 0-1-.45-1-1 0-.56.45-1 1-1 .56 0 1 .44 1 1zm-4.05 0c0 .55-.45 1-1 1s-1-.45-1-1c0-.56.45-1 1-1s1 .44 1 1zm-4.06 0c0 .55-.46 1-1 1-.56 0-1-.45-1-1 0-.56.44-1 1-1 .54 0 1 .44 1 1zm-4.07 0c0 .55-.44 1-1 1-.55 0-1-.45-1-1 0-.56.45-1 1-1 .56 0 1 .44 1 1zm-4.1 1.9c0 .54-.45 1-1 1s-1-.46-1-1c0-.56.45-1 1-1s1 .44 1 1zm-1.9 4.1c0 .55-.44 1-1 1-.55 0-1-.45-1-1 0-.56.45-1 1-1 .56 0 1 .44 1 1zm0 3.96c0 .55-.44 1-1 1-.55 0-1-.45-1-1 0-.56.45-1 1-1 .56 0 1 .44 1 1zm0 3.96c0 .55-.44 1-1 1-.55 0-1-.45-1-1 0-.56.45-1 1-1 .56 0 1 .44 1 1zm0 3.96c0 .55-.44 1-1 1-.55 0-1-.45-1-1s.45-1 1-1c.56 0 1 .45 1 1z" fill="#5e5e5e"/><path d="M-21.67 98.84h-2V97.8h2z" fill="#5e5e5e"/><path d="M-91.47 175.26L-96.1 161h9.27z" stroke="#5e5e5e" stroke-width="2" fill="#5e5e5e"/><path d="M-100 94c0-3.3 2.7-6 6-6h68c3.3 0 6 2.7 6 6v48c0 3.3-2.7 6-6 6h-68c-3.3 0-6-2.7-6-6z" stroke="#000" stroke-opacity="0" stroke-width="3" fill="#fff" fill-opacity="0"/><use xlink:href="#j" transform="matrix(1,0,0,1,-95,93) translate(5.444444444444457 29.847222222222218)"/><path d="M300 46c0-3.3 2.7-6 6-6h90.93c3.32 0 6 2.7 6 6v64.3c0 3.32-2.68 6-6 6H306c-3.3 0-6-2.68-6-6z" stroke="#5e5e5e" stroke-width="3" fill="#c7e8ac"/><use xlink:href="#k" transform="matrix(1,0,0,1,305,45) translate(13.166666666666671 24.05902777777778)"/><use xlink:href="#l" transform="matrix(1,0,0,1,305,45) translate(17.117283950617285 50.72569444444445)"/><path d="M-36.5 289.33c0 .56-.45 1-1 1s-1-.44-1-1c0-.55.45-1 1-1s1 .45 1 1zm4 0c0 .56-.46 1-1 1-.56 0-1-.44-1-1 0-.55.44-1 1-1 .54 0 1 .45 1 1zm3.98 0c0 .56-.45 1-1 1s-1-.44-1-1c0-.55.45-1 1-1s1 .45 1 1zm4 0c0 .56-.46 1-1 1-.56 0-1-.44-1-1 0-.55.44-1 1-1 .54 0 1 .45 1 1zm3.98 0c0 .56-.45 1-1 1-.56 0-1-.44-1-1 0-.55.44-1 1-1 .55 0 1 .45 1 1zm4 0c0 .56-.46 1-1 1-.57 0-1-.44-1-1 0-.55.43-1 1-1 .54 0 1 .45 1 1zm3.98 0c0 .56-.45 1-1 1-.56 0-1-.44-1-1 0-.55.44-1 1-1 .55 0 1 .45 1 1zm3.98 0c0 .56-.44 1-1 1-.55 0-1-.44-1-1 0-.55.45-1 1-1 .56 0 1 .45 1 1zm4 0c0 .56-.45 1-1 1-.56 0-1-.44-1-1 0-.55.44-1 1-1 .55 0 1 .45 1 1zm3.98 0c0 .56-.44 1-1 1-.55 0-1-.44-1-1 0-.55.45-1 1-1 .56 0 1 .45 1 1zm4 0c0 .56-.46 1-1 1-.56 0-1-.44-1-1 0-.55.44-1 1-1 .54 0 1 .45 1 1zm3.98 0c0 .56-.45 1-1 1s-1-.44-1-1c0-.55.45-1 1-1s1 .45 1 1zm4 0c0 .56-.46 1-1 1-.56 0-1-.44-1-1 0-.55.44-1 1-1 .54 0 1 .45 1 1zm3.98 0c0 .56-.45 1-1 1s-1-.44-1-1c0-.55.45-1 1-1s1 .45 1 1zm4 0c0 .56-.46 1-1 1-.56 0-1-.44-1-1 0-.55.44-1 1-1 .54 0 1 .45 1 1zm3.98 0c0 .56-.45 1-1 1s-1-.44-1-1c0-.55.45-1 1-1s1 .45 1 1zm4 0c0 .56-.46 1-1 1-.56 0-1-.44-1-1 0-.55.44-1 1-1 .54 0 1 .45 1 1zm3.98 0c0 .56-.45 1-1 1-.56 0-1-.44-1-1 0-.55.44-1 1-1 .55 0 1 .45 1 1zm4 0c0 .56-.46 1-1 1-.57 0-1-.44-1-1 0-.55.43-1 1-1 .54 0 1 .45 1 1zm3.98 0c0 .56-.45 1-1 1-.56 0-1-.44-1-1 0-.55.44-1 1-1 .55 0 1 .45 1 1zm3.98 0c0 .56-.44 1-1 1-.55 0-1-.44-1-1 0-.55.45-1 1-1 .56 0 1 .45 1 1zm4 0c0 .56-.45 1-1 1-.56 0-1-.44-1-1 0-.55.44-1 1-1 .55 0 1 .45 1 1zm3.98 0c0 .56-.44 1-1 1-.55 0-1-.44-1-1 0-.55.45-1 1-1 .56 0 1 .45 1 1zm4 0c0 .56-.46 1-1 1-.56 0-1-.44-1-1 0-.55.44-1 1-1 .54 0 1 .45 1 1zm3.98 0c0 .56-.45 1-1 1s-1-.44-1-1c0-.55.45-1 1-1s1 .45 1 1zm4 0c0 .56-.46 1-1 1-.56 0-1-.44-1-1 0-.55.44-1 1-1 .54 0 1 .45 1 1zm3.98 0c0 .56-.45 1-1 1s-1-.44-1-1c0-.55.45-1 1-1s1 .45 1 1zm4 0c0 .56-.46 1-1 1-.56 0-1-.44-1-1 0-.55.44-1 1-1 .54 0 1 .45 1 1zm3.98 0c0 .56-.45 1-1 1s-1-.44-1-1c0-.55.45-1 1-1s1 .45 1 1zm4 0c0 .56-.46 1-1 1-.56 0-1-.44-1-1 0-.55.44-1 1-1 .54 0 1 .45 1 1zm3.98 0c0 .56-.45 1-1 1-.56 0-1-.44-1-1 0-.55.44-1 1-1 .55 0 1 .45 1 1zm4 0c0 .56-.46 1-1 1-.57 0-1-.44-1-1 0-.55.43-1 1-1 .54 0 1 .45 1 1zm3.98 0c0 .56-.45 1-1 1-.56 0-1-.44-1-1 0-.55.44-1 1-1 .55 0 1 .45 1 1zm3.98 0c0 .56-.44 1-1 1-.55 0-1-.44-1-1 0-.55.45-1 1-1 .56 0 1 .45 1 1zm4 0c0 .56-.45 1-1 1-.56 0-1-.44-1-1 0-.55.44-1 1-1 .55 0 1 .45 1 1zm3.98 0c0 .56-.44 1-1 1-.55 0-1-.44-1-1 0-.55.45-1 1-1 .56 0 1 .45 1 1zm4 0c0 .56-.46 1-1 1-.56 0-1-.44-1-1 0-.55.44-1 1-1 .54 0 1 .45 1 1zm3.98 0c0 .56-.45 1-1 1s-1-.44-1-1c0-.55.45-1 1-1s1 .45 1 1zm4 0c0 .56-.46 1-1 1-.56 0-1-.44-1-1 0-.55.44-1 1-1 .54 0 1 .45 1 1zm3.98 0c0 .56-.45 1-1 1s-1-.44-1-1c0-.55.45-1 1-1s1 .45 1 1zm4 0c0 .56-.46 1-1 1-.56 0-1-.44-1-1 0-.55.44-1 1-1 .54 0 1 .45 1 1zm3.98 0c0 .56-.45 1-1 1s-1-.44-1-1c0-.55.45-1 1-1s1 .45 1 1zm4 0c0 .56-.46 1-1 1-.56 0-1-.44-1-1 0-.55.44-1 1-1 .54 0 1 .45 1 1zm3.98 0c0 .56-.45 1-1 1-.56 0-1-.44-1-1 0-.55.44-1 1-1 .55 0 1 .45 1 1zm4 0c0 .56-.46 1-1 1-.57 0-1-.44-1-1 0-.55.43-1 1-1 .54 0 1 .45 1 1zm3.98 0c0 .56-.45 1-1 1-.56 0-1-.44-1-1 0-.55.44-1 1-1 .55 0 1 .45 1 1zm3.98 0c0 .56-.44 1-1 1-.55 0-1-.44-1-1 0-.55.45-1 1-1 .56 0 1 .45 1 1zm4 0c0 .56-.45 1-1 1-.56 0-1-.44-1-1 0-.55.44-1 1-1 .55 0 1 .45 1 1zm3.98 0c0 .56-.44 1-1 1-.55 0-1-.44-1-1 0-.55.45-1 1-1 .56 0 1 .45 1 1zm4 0c0 .56-.46 1-1 1-.56 0-1-.44-1-1 0-.55.44-1 1-1 .54 0 1 .45 1 1zm3.98 0c0 .56-.45 1-1 1s-1-.44-1-1c0-.55.45-1 1-1s1 .45 1 1zm4 0c0 .56-.46 1-1 1-.56 0-1-.44-1-1 0-.55.44-1 1-1 .54 0 1 .45 1 1zm3.98 0c0 .56-.45 1-1 1s-1-.44-1-1c0-.55.45-1 1-1s1 .45 1 1zm4 0c0 .56-.46 1-1 1-.56 0-1-.44-1-1 0-.55.44-1 1-1 .54 0 1 .45 1 1zm3.98 0c0 .56-.45 1-1 1s-1-.44-1-1c0-.55.45-1 1-1s1 .45 1 1zm4 0c0 .56-.46 1-1 1-.56 0-1-.44-1-1 0-.55.44-1 1-1 .54 0 1 .45 1 1zm3.98 0c0 .56-.45 1-1 1-.56 0-1-.44-1-1 0-.55.44-1 1-1 .55 0 1 .45 1 1zm4 0c0 .56-.46 1-1 1-.57 0-1-.44-1-1 0-.55.43-1 1-1 .54 0 1 .45 1 1zm3.98 0c0 .56-.45 1-1 1-.56 0-1-.44-1-1 0-.55.44-1 1-1 .55 0 1 .45 1 1zm3.98 0c0 .56-.44 1-1 1-.55 0-1-.44-1-1 0-.55.45-1 1-1 .56 0 1 .45 1 1zm4 0c0 .56-.45 1-1 1-.56 0-1-.44-1-1 0-.55.44-1 1-1 .55 0 1 .45 1 1zm3.98 0c0 .56-.44 1-1 1-.55 0-1-.44-1-1 0-.55.45-1 1-1 .56 0 1 .45 1 1zm4 0c0 .56-.46 1-1 1-.56 0-1-.44-1-1 0-.55.44-1 1-1 .54 0 1 .45 1 1zm3.98 0c0 .56-.45 1-1 1s-1-.44-1-1c0-.55.45-1 1-1s1 .45 1 1zm4 0c0 .56-.46 1-1 1-.56 0-1-.44-1-1 0-.55.44-1 1-1 .54 0 1 .45 1 1zm3.98 0c0 .56-.45 1-1 1s-1-.44-1-1c0-.55.45-1 1-1s1 .45 1 1zm4 0c0 .56-.46 1-1 1-.56 0-1-.44-1-1 0-.55.44-1 1-1 .54 0 1 .45 1 1zm3.98 0c0 .56-.45 1-1 1s-1-.44-1-1c0-.55.45-1 1-1s1 .45 1 1zm4 0c0 .56-.46 1-1 1-.56 0-1-.44-1-1 0-.55.44-1 1-1 .54 0 1 .45 1 1zm3.98 0c0 .56-.45 1-1 1s-1-.44-1-1c0-.55.45-1 1-1s1 .45 1 1zm4 0c0 .56-.46 1-1 1-.57 0-1-.44-1-1 0-.55.43-1 1-1 .54 0 1 .45 1 1zm3.98 0c0 .56-.45 1-1 1-.56 0-1-.44-1-1 0-.55.44-1 1-1 .55 0 1 .45 1 1zm3.98 0c0 .56-.44 1-1 1-.55 0-1-.44-1-1 0-.55.45-1 1-1 .56 0 1 .45 1 1zm4 0c0 .56-.45 1-1 1-.56 0-1-.44-1-1 0-.55.44-1 1-1 .55 0 1 .45 1 1zm3.98 0c0 .56-.44 1-1 1-.55 0-1-.44-1-1 0-.55.45-1 1-1 .56 0 1 .45 1 1zm4 0c0 .56-.46 1-1 1-.56 0-1-.44-1-1 0-.55.44-1 1-1 .54 0 1 .45 1 1zm3.98 0c0 .56-.45 1-1 1s-1-.44-1-1c0-.55.45-1 1-1s1 .45 1 1zm4 0c0 .56-.46 1-1 1-.56 0-1-.44-1-1 0-.55.44-1 1-1 .54 0 1 .45 1 1zm3.98 0c0 .56-.45 1-1 1s-1-.44-1-1c0-.55.45-1 1-1s1 .45 1 1zm4 0c0 .56-.46 1-1 1-.56 0-1-.44-1-1 0-.55.44-1 1-1 .54 0 1 .45 1 1zm3.98 0c0 .56-.45 1-1 1s-1-.44-1-1c0-.55.45-1 1-1s1 .45 1 1zm4 0c0 .56-.46 1-1 1-.56 0-1-.44-1-1 0-.55.44-1 1-1 .54 0 1 .45 1 1zm3.98 0c0 .56-.45 1-1 1s-1-.44-1-1c0-.55.45-1 1-1s1 .45 1 1zm4 0c0 .56-.46 1-1 1-.57 0-1-.44-1-1 0-.55.43-1 1-1 .54 0 1 .45 1 1zm3.98 0c0 .56-.45 1-1 1-.56 0-1-.44-1-1 0-.55.44-1 1-1 .55 0 1 .45 1 1zm4 0c0 .56-.46 1-1 1-.57 0-1-.44-1-1 0-.55.43-1 1-1 .54 0 1 .45 1 1zm3.97 0c0 .56-.44 1-1 1-.55 0-1-.44-1-1 0-.55.45-1 1-1 .56 0 1 .45 1 1zm4 0c0 .56-.45 1-1 1-.56 0-1-.44-1-1 0-.55.44-1 1-1 .55 0 1 .45 1 1zm3.98 0c0 .56-.44 1-1 1-.55 0-1-.44-1-1 0-.55.45-1 1-1 .56 0 1 .45 1 1zm4 0c0 .56-.46 1-1 1-.56 0-1-.44-1-1 0-.55.44-1 1-1 .54 0 1 .45 1 1zm3.98 0c0 .56-.45 1-1 1s-1-.44-1-1c0-.55.45-1 1-1s1 .45 1 1zm4 0c0 .56-.46 1-1 1-.56 0-1-.44-1-1 0-.55.44-1 1-1 .54 0 1 .45 1 1zm3.98 0c0 .56-.44 1-1 1-.54 0-1-.44-1-1 0-.55.46-1 1-1 .56 0 1 .45 1 1zm4 0c0 .56-.45 1-1 1s-1-.44-1-1c0-.55.45-1 1-1s1 .45 1 1zm4 0c0 .56-.46 1-1 1-.56 0-1-.44-1-1 0-.55.44-1 1-1 .54 0 1 .45 1 1zm3.98 0c0 .56-.45 1-1 1s-1-.44-1-1c0-.55.45-1 1-1s1 .45 1 1zm4 0c0 .56-.46 1-1 1-.57 0-1-.44-1-1 0-.55.43-1 1-1 .54 0 1 .45 1 1zm4.1-1.9c0 .56-.46 1-1 1-.56 0-1-.44-1-1 0-.54.44-1 1-1 .54 0 1 .46 1 1zm1.9-4.1c0 .56-.46 1-1 1-.57 0-1-.44-1-1 0-.55.43-1 1-1 .54 0 1 .45 1 1zm0-3.97c0 .55-.46 1-1 1-.57 0-1-.45-1-1s.43-1 1-1c.54 0 1 .45 1 1zm0-3.97c0 .54-.46 1-1 1-.57 0-1-.46-1-1 0-.57.43-1 1-1 .54 0 1 .43 1 1zm0-4c0 .57-.46 1-1 1-.57 0-1-.43-1-1 0-.54.43-1 1-1 .54 0 1 .46 1 1zm0-3.96c0 .55-.46 1-1 1-.57 0-1-.45-1-1s.43-1 1-1c.54 0 1 .45 1 1zm0-3.97c0 .55-.46 1-1 1-.57 0-1-.45-1-1 0-.56.43-1 1-1 .54 0 1 .44 1 1zm0-3.98c0 .54-.46 1-1 1-.57 0-1-.46-1-1 0-.56.43-1 1-1 .54 0 1 .44 1 1zm0-3.98c0 .55-.46 1-1 1-.57 0-1-.45-1-1s.43-1 1-1c.54 0 1 .45 1 1zm0-3.97c0 .55-.46 1-1 1-.57 0-1-.45-1-1 0-.56.43-1 1-1 .54 0 1 .44 1 1zm0-3.98c0 .55-.46 1-1 1-.57 0-1-.45-1-1s.43-1 1-1c.54 0 1 .45 1 1zm0-3.97c0 .55-.46 1-1 1-.57 0-1-.45-1-1s.43-1 1-1c.54 0 1 .45 1 1zm0-3.98c0 .56-.46 1-1 1-.57 0-1-.44-1-1 0-.55.43-1 1-1 .54 0 1 .45 1 1zm0-3.97c0 .55-.46 1-1 1-.57 0-1-.45-1-1s.43-1 1-1c.54 0 1 .45 1 1zm0-3.97c0 .55-.46 1-1 1-.57 0-1-.45-1-1s.43-1 1-1c.54 0 1 .45 1 1zm0-3.98c0 .56-.46 1-1 1-.57 0-1-.44-1-1 0-.55.43-1 1-1 .54 0 1 .45 1 1zm0-3.97c0 .55-.46 1-1 1-.57 0-1-.45-1-1s.43-1 1-1c.54 0 1 .45 1 1zm0-3.97c0 .55-.46 1-1 1-.57 0-1-.45-1-1 0-.56.43-1 1-1 .54 0 1 .44 1 1zm0-3.98c0 .56-.46 1-1 1-.57 0-1-.44-1-1 0-.55.43-1 1-1 .54 0 1 .45 1 1zm0-3.97c0 .56-.46 1-1 1-.57 0-1-.44-1-1 0-.54.43-1 1-1 .54 0 1 .46 1 1zm0-3.96c0 .55-.46 1-1 1-.57 0-1-.45-1-1 0-.56.43-1 1-1 .54 0 1 .44 1 1zm0-3.98c0 .56-.46 1-1 1-.57 0-1-.44-1-1 0-.55.43-1 1-1 .54 0 1 .45 1 1zm0-3.97c0 .54-.46 1-1 1-.57 0-1-.46-1-1 0-.56.43-1 1-1 .54 0 1 .44 1 1zm0-3.98c0 .55-.46 1-1 1-.57 0-1-.45-1-1 0-.56.43-1 1-1 .54 0 1 .44 1 1zm0-3.98c0 .55-.46 1-1 1-.57 0-1-.45-1-1s.43-1 1-1c.54 0 1 .45 1 1zm0-3.97c0 .55-.46 1-1 1-.57 0-1-.45-1-1s.43-1 1-1c.54 0 1 .45 1 1zm0-3.97c0 .55-.46 1-1 1-.57 0-1-.45-1-1 0-.56.43-1 1-1 .54 0 1 .44 1 1zm0-3.98c0 .55-.46 1-1 1-.57 0-1-.45-1-1s.43-1 1-1c.54 0 1 .45 1 1zm0-3.97c0 .55-.46 1-1 1-.57 0-1-.45-1-1s.43-1 1-1c.54 0 1 .45 1 1zm0-3.98c0 .56-.46 1-1 1-.57 0-1-.44-1-1 0-.55.43-1 1-1 .54 0 1 .45 1 1zm0-3.97c0 .55-.46 1-1 1-.57 0-1-.45-1-1s.43-1 1-1c.54 0 1 .45 1 1zm0-3.97c0 .55-.46 1-1 1-.57 0-1-.45-1-1s.43-1 1-1c.54 0 1 .45 1 1zm0-3.98c0 .56-.46 1-1 1-.57 0-1-.44-1-1 0-.55.43-1 1-1 .54 0 1 .45 1 1zm0-3.97c0 .55-.46 1-1 1-.57 0-1-.45-1-1s.43-1 1-1c.54 0 1 .45 1 1zm0-3.97c0 .56-.46 1-1 1-.57 0-1-.44-1-1 0-.55.43-1 1-1 .54 0 1 .45 1 1zm0-3.97c0 .56-.46 1-1 1-.57 0-1-.44-1-1 0-.55.43-1 1-1 .54 0 1 .45 1 1zm0-3.97c0 .55-.46 1-1 1-.57 0-1-.45-1-1s.43-1 1-1c.54 0 1 .45 1 1zm0-3.97c0 .54-.46 1-1 1-.57 0-1-.46-1-1 0-.57.43-1 1-1 .54 0 1 .43 1 1z" fill="#5e5e5e"/><path d="M-37.47 290.33h-1.03v-2h1.03z" fill="#5e5e5e"/><path d="M351.47 121.05l4.63 14.26h-9.27z" stroke="#5e5e5e" stroke-width="2" fill="#5e5e5e"/><path d="M280-77.7c0-3.3 2.7-6 6-6h128c3.3 0 6 2.7 6 6v68c0 3.32-2.7 6-6 6H286c-3.3 0-6-2.68-6-6z" stroke="#5e5e5e" stroke-width="3" fill="#fff"/><use xlink:href="#m" transform="matrix(1,0,0,1,285,-78.68889160156255) translate(33.39506172839506 39.65277777777778)"/><path d="M351.47 37.5V16.3" stroke="#5e5e5e" stroke-width="2" fill="none"/><path d="M352.47 38.5h-2v-1.03h2z" fill="#5e5e5e"/><path d="M351.47 1.05l4.63 14.26h-9.27z" stroke="#5e5e5e" stroke-width="2" fill="#5e5e5e"/><path d="M-40 246c0-3.3 2.7-6 6-6h169.47c3.3 0 6 2.7 6 6v62c0 3.3-2.7 6-6 6H-34c-3.3 0-6-2.7-6-6z" stroke="#000" stroke-opacity="0" stroke-width="3" fill="#fff" fill-opacity="0"/><use xlink:href="#n" transform="matrix(1,0,0,1,-35,245) translate(3.1111111111111427 34.222222222222214)"/><use xlink:href="#o" transform="matrix(1,0,0,1,-35,245) translate(67.25925925925927 34.222222222222214)"/><use xlink:href="#p" transform="matrix(1,0,0,1,-35,245) translate(134.32098765432096 34.222222222222214)"/><path d="M71.88 98.8c0 .56-.45 1-1 1s-1-.44-1-1c0-.54.45-1 1-1s1 .46 1 1zm0 4.18c0 .55-.45 1-1 1s-1-.45-1-1 .45-1 1-1 1 .45 1 1zm0 4.17c0 .55-.45 1-1 1s-1-.45-1-1c0-.56.45-1 1-1s1 .44 1 1zm0 4.17c0 .55-.45 1-1 1s-1-.45-1-1c0-.56.45-1 1-1s1 .44 1 1zm0 4.16c0 .56-.45 1-1 1s-1-.44-1-1c0-.55.45-1 1-1s1 .45 1 1zm0 4.17c0 .55-.45 1-1 1s-1-.45-1-1 .45-1 1-1 1 .45 1 1zm0 4.17c0 .55-.45 1-1 1s-1-.45-1-1 .45-1 1-1 1 .45 1 1zm0 4.17c0 .54-.45 1-1 1s-1-.46-1-1c0-.56.45-1 1-1s1 .44 1 1zm0 4.16c0 .55-.45 1-1 1s-1-.45-1-1c0-.56.45-1 1-1s1 .44 1 1zm-1.9 4.1c0 .55-.45 1-1 1s-1-.45-1-1 .45-1 1-1 1 .45 1 1zm-4.1 1.9c0 .55-.45 1-1 1s-1-.45-1-1c0-.56.45-1 1-1s1 .44 1 1zm-3.96 0c0 .55-.45 1-1 1s-1-.45-1-1c0-.56.45-1 1-1s1 .44 1 1zm-3.96 0c0 .55-.44 1-1 1-.55 0-1-.45-1-1 0-.56.45-1 1-1 .56 0 1 .44 1 1zm-3.95 0c0 .55-.44 1-1 1-.54 0-1-.45-1-1 0-.56.46-1 1-1 .56 0 1 .44 1 1zm-3.95 0c0 .55-.45 1-1 1s-1-.45-1-1c0-.56.45-1 1-1s1 .44 1 1zm-3.95 0c0 .55-.45 1-1 1-.56 0-1-.45-1-1 0-.56.44-1 1-1 .55 0 1 .44 1 1zm-3.96 0c0 .55-.45 1-1 1s-1-.45-1-1c0-.56.45-1 1-1s1 .44 1 1zm-3.96 0c0 .55-.44 1-1 1-.55 0-1-.45-1-1 0-.56.45-1 1-1 .56 0 1 .44 1 1zm-3.95 0c0 .55-.45 1-1 1-.56 0-1-.45-1-1 0-.56.44-1 1-1 .55 0 1 .44 1 1zm-3.96 0c0 .55-.45 1-1 1s-1-.45-1-1c0-.56.45-1 1-1s1 .44 1 1zm-3.96 0c0 .55-.43 1-1 1-.54 0-1-.45-1-1 0-.56.46-1 1-1 .57 0 1 .44 1 1zm-3.94 0c0 .55-.45 1-1 1-.56 0-1-.45-1-1 0-.56.44-1 1-1 .55 0 1 .44 1 1zm-3.96 0c0 .55-.45 1-1 1s-1-.45-1-1c0-.56.45-1 1-1s1 .44 1 1zm-3.96 0c0 .55-.44 1-1 1-.55 0-1-.45-1-1 0-.56.45-1 1-1 .56 0 1 .44 1 1zm-3.95 0c0 .55-.46 1-1 1-.56 0-1-.45-1-1 0-.56.44-1 1-1 .54 0 1 .44 1 1zm-3.97 0c0 .55-.45 1-1 1s-1-.45-1-1c0-.56.45-1 1-1s1 .44 1 1zm-3.96 0c0 .55-.44 1-1 1-.55 0-1-.45-1-1 0-.56.45-1 1-1 .56 0 1 .44 1 1zm-3.95 0c0 .55-.45 1-1 1s-1-.45-1-1c0-.56.45-1 1-1s1 .44 1 1zm-3.96 0c0 .55-.45 1-1 1s-1-.45-1-1c0-.56.45-1 1-1s1 .44 1 1zm-3.95 0c0 .55-.44 1-1 1-.55 0-1-.45-1-1 0-.56.45-1 1-1 .56 0 1 .44 1 1zm-3.95 0c0 .55-.45 1-1 1s-1-.45-1-1c0-.56.45-1 1-1s1 .44 1 1zm-3.96 0c0 .55-.46 1-1 1-.56 0-1-.45-1-1 0-.56.44-1 1-1 .54 0 1 .44 1 1zm-3.96 0c0 .55-.45 1-1 1-.56 0-1-.45-1-1 0-.56.44-1 1-1 .55 0 1 .44 1 1zm-3.96 0c0 .55-.45 1-1 1s-1-.45-1-1c0-.56.45-1 1-1s1 .44 1 1zm-3.96 0c0 .55-.44 1-1 1-.55 0-1-.45-1-1 0-.56.45-1 1-1 .56 0 1 .44 1 1zm-3.95 0c0 .55-.45 1-1 1-.56 0-1-.45-1-1 0-.56.44-1 1-1 .55 0 1 .44 1 1zm-3.96 0c0 .55-.44 1-1 1-.54 0-1-.45-1-1 0-.56.46-1 1-1 .56 0 1 .44 1 1zm-3.95 0c0 .55-.44 1-1 1-.55 0-1-.45-1-1 0-.56.45-1 1-1 .56 0 1 .44 1 1zm-3.95 0c0 .55-.45 1-1 1s-1-.45-1-1c0-.56.45-1 1-1s1 .44 1 1zm-3.96 0c0 .55-.45 1-1 1s-1-.45-1-1c0-.56.45-1 1-1s1 .44 1 1zm-3.96 0c0 .55-.44 1-1 1-.55 0-1-.45-1-1 0-.56.45-1 1-1 .56 0 1 .44 1 1zm-3.95 0c0 .55-.45 1-1 1s-1-.45-1-1c0-.56.45-1 1-1s1 .44 1 1zm-3.96 0c0 .55-.45 1-1 1s-1-.45-1-1c0-.56.45-1 1-1s1 .44 1 1zm-3.95 0c0 .55-.45 1-1 1-.56 0-1-.45-1-1 0-.56.44-1 1-1 .55 0 1 .44 1 1zm-3.96 0c0 .55-.45 1-1 1s-1-.45-1-1c0-.56.45-1 1-1s1 .44 1 1zm-3.96 0c0 .55-.45 1-1 1s-1-.45-1-1c0-.56.45-1 1-1s1 .44 1 1zm-3.95 0c0 .55-.45 1-1 1-.56 0-1-.45-1-1 0-.56.44-1 1-1 .55 0 1 .44 1 1zm-3.96 0c0 .55-.46 1-1 1-.56 0-1-.45-1-1 0-.56.44-1 1-1 .54 0 1 .44 1 1zm-3.97 0c0 .55-.44 1-1 1-.55 0-1-.45-1-1 0-.56.45-1 1-1 .56 0 1 .44 1 1zm-4.1 1.9c0 .54-.45 1-1 1s-1-.46-1-1c0-.56.45-1 1-1s1 .44 1 1zm-1.9 4.1c0 .55-.44 1-1 1-.55 0-1-.45-1-1 0-.56.45-1 1-1 .56 0 1 .44 1 1zm0 3.96c0 .55-.44 1-1 1-.55 0-1-.45-1-1 0-.56.45-1 1-1 .56 0 1 .44 1 1zm0 3.96c0 .55-.44 1-1 1-.55 0-1-.45-1-1 0-.56.45-1 1-1 .56 0 1 .44 1 1zm0 3.96c0 .55-.44 1-1 1-.55 0-1-.45-1-1s.45-1 1-1c.56 0 1 .45 1 1z" fill="#5e5e5e"/><path d="M71.88 98.84h-2V97.8h2z" fill="#5e5e5e"/><path d="M-91.47 175.26L-96.1 161h9.27z" stroke="#5e5e5e" stroke-width="2" fill="#5e5e5e"/><path d="M-299 20h3m3.98 0h6m3.98 0h5.98m4 0h5.97m4 0h6m3.98 0h5.98m4 0h5.97m4 0h5.98m4 0h5.98m4 0h5.98m3.98 0h6m3.98 0h5.98m4 0h5.98m4 0h5.97m4 0h5.97m4 0h5.98m4 0h5.97m4 0h5.97m4 0h5.98m4 0h5.97m3.98 0h6m3.98 0h5.98m4 0h5.97m4 0h6m3.98 0h5.98m4 0h5.97m4 0h5.98m4 0h5.98m4 0h5.98m3.98 0h6m3.98 0H3.2m4 0h5.98m4 0h5.97m4 0h5.97m4 0h5.98m4 0h5.97m4 0h5.97m4 0H73m4 0h5.97m3.98 0h6m3.98 0h5.98m4 0h5.97m4 0h6m3.98 0h5.98m4 0h5.97m4 0h5.98m4 0h5.98m4 0h5.98m3.98 0h6m3.98 0h5.98m4 0h5.98m4 0h5.97m4 0h5.97m4 0h5.98m4 0h5.97m4 0h5.97m4 0h5.98m4 0h5.97m3.98 0h6m3.98 0h5.98m4 0h5.97m4 0h6m3.98 0h5.98m4 0h5.97m4 0h5.98m4 0h5.98m4 0h5.98m3.98 0h6m3.98 0h5.98m4 0h5.98m4 0h5.97m4 0h5.97m4 0h5.98m4 0h5.97m4 0h5.97m4 0H452m4 0H459M-298.97 20H-300M458.97 20H460" stroke="#5e5e5e" stroke-width="2" fill="none"/><path d="M-280.73 62.3c0-3.3 2.68-6 6-6h70.93c3.3 0 6 2.7 6 6v48c0 3.32-2.7 6-6 6h-70.93c-3.32 0-6-2.68-6-6z" stroke="#000" stroke-opacity="0" stroke-width="3" fill="#fff" fill-opacity="0"/><g><use xlink:href="#q" transform="matrix(1,0,0,1,-275.73333129886305,61.311108398437455) translate(9.987654320987659 17.77777777777778)"/><use xlink:href="#r" transform="matrix(1,0,0,1,-275.73333129886305,61.311108398437455) translate(4.462962962962969 44.44444444444444)"/></g><path d="M-300-54c0-3.3 2.7-6 6-6h109.47c3.3 0 6 2.7 6 6v48c0 3.3-2.7 6-6 6H-294c-3.3 0-6-2.7-6-6z" stroke="#000" stroke-opacity="0" stroke-width="3" fill="#fff" fill-opacity="0"/><g><use xlink:href="#s" transform="matrix(1,0,0,1,-295,-55) translate(2.975308641975303 30.27777777777778)"/></g><defs><path fill="#333" d="M205 0l-28-72H64L36 0H1l101-248h38L239 0h-34zm-38-99l-47-123c-12 45-31 82-46 123h93" id="t"/><path fill="#333" d="M115-194c55 1 70 41 70 98S169 2 115 4C84 4 66-9 55-30l1 105H24l-1-265h31l2 30c10-21 28-34 59-34zm-8 174c40 0 45-34 45-75s-6-73-45-74c-42 0-51 32-51 76 0 43 10 73 51 73" id="u"/><path fill="#333" d="M24 0v-261h32V0H24" id="v"/><path fill="#333" d="M24-231v-30h32v30H24zM24 0v-190h32V0H24" id="w"/><path fill="#333" d="M96-169c-40 0-48 33-48 73s9 75 48 75c24 0 41-14 43-38l32 2c-6 37-31 61-74 61-59 0-76-41-82-99-10-93 101-131 147-64 4 7 5 14 7 22l-32 3c-4-21-16-35-41-35" id="x"/><path fill="#333" d="M141-36C126-15 110 5 73 4 37 3 15-17 15-53c-1-64 63-63 125-63 3-35-9-54-41-54-24 1-41 7-42 31l-33-3c5-37 33-52 76-52 45 0 72 20 72 64v82c-1 20 7 32 28 27v20c-31 9-61-2-59-35zM48-53c0 20 12 33 32 33 41-3 63-29 60-74-43 2-92-5-92 41" id="y"/><path fill="#333" d="M59-47c-2 24 18 29 38 22v24C64 9 27 4 27-40v-127H5v-23h24l9-43h21v43h35v23H59v120" id="z"/><path fill="#333" d="M100-194c62-1 85 37 85 99 1 63-27 99-86 99S16-35 15-95c0-66 28-99 85-99zM99-20c44 1 53-31 53-75 0-43-8-75-51-75s-53 32-53 75 10 74 51 75" id="A"/><path fill="#333" d="M117-194c89-4 53 116 60 194h-32v-121c0-31-8-49-39-48C34-167 62-67 57 0H25l-1-190h30c1 10-1 24 2 32 11-22 29-35 61-36" id="B"/><g id="a"><use transform="matrix(0.06172839506172839,0,0,0.06172839506172839,0,0)" xlink:href="#t"/><use transform="matrix(0.06172839506172839,0,0,0.06172839506172839,14.814814814814813,0)" xlink:href="#u"/><use transform="matrix(0.06172839506172839,0,0,0.06172839506172839,27.160493827160494,0)" xlink:href="#u"/><use transform="matrix(0.06172839506172839,0,0,0.06172839506172839,39.50617283950617,0)" xlink:href="#v"/><use transform="matrix(0.06172839506172839,0,0,0.06172839506172839,44.382716049382715,0)" xlink:href="#w"/><use transform="matrix(0.06172839506172839,0,0,0.06172839506172839,49.25925925925926,0)" xlink:href="#x"/><use transform="matrix(0.06172839506172839,0,0,0.06172839506172839,60.37037037037037,0)" xlink:href="#y"/><use transform="matrix(0.06172839506172839,0,0,0.06172839506172839,72.71604938271605,0)" xlink:href="#z"/><use transform="matrix(0.06172839506172839,0,0,0.06172839506172839,78.88888888888889,0)" xlink:href="#w"/><use transform="matrix(0.06172839506172839,0,0,0.06172839506172839,83.76543209876543,0)" xlink:href="#A"/><use transform="matrix(0.06172839506172839,0,0,0.06172839506172839,96.11111111111111,0)" xlink:href="#B"/></g><path fill="#333" d="M87 75C49 33 22-17 22-94c0-76 28-126 65-167h31c-38 41-64 92-64 168S80 34 118 75H87" id="C"/><path fill="#333" d="M127-220V0H93v-220H8v-28h204v28h-85" id="D"/><path fill="#333" d="M114-163C36-179 61-72 57 0H25l-1-190h30c1 12-1 29 2 39 6-27 23-49 58-41v29" id="E"/><path fill="#333" d="M100-194c63 0 86 42 84 106H49c0 40 14 67 53 68 26 1 43-12 49-29l28 8c-11 28-37 45-77 45C44 4 14-33 15-96c1-61 26-98 85-98zm52 81c6-60-76-77-97-28-3 7-6 17-6 28h103" id="F"/><g id="b"><use transform="matrix(0.0493827160493827,0,0,0.0493827160493827,0,0)" xlink:href="#C"/><use transform="matrix(0.0493827160493827,0,0,0.0493827160493827,5.876543209876541,0)" xlink:href="#D"/><use transform="matrix(0.0493827160493827,0,0,0.0493827160493827,16.04938271604938,0)" xlink:href="#E"/><use transform="matrix(0.0493827160493827,0,0,0.0493827160493827,21.92592592592592,0)" xlink:href="#y"/><use transform="matrix(0.0493827160493827,0,0,0.0493827160493827,31.802469135802458,0)" xlink:href="#x"/><use transform="matrix(0.0493827160493827,0,0,0.0493827160493827,40.69135802469135,0)" xlink:href="#F"/></g><path fill="#333" d="M177-190C167-65 218 103 67 71c-23-6-38-20-44-43l32-5c15 47 100 32 89-28v-30C133-14 115 1 83 1 29 1 15-40 15-95c0-56 16-97 71-98 29-1 48 16 59 35 1-10 0-23 2-32h30zM94-22c36 0 50-32 50-73 0-42-14-75-50-75-39 0-46 34-46 75s6 73 46 73" id="G"/><path fill="#333" d="M33-261c38 41 65 92 65 168S71 34 33 75H2C39 34 66-17 66-93S39-220 2-261h31" id="H"/><g id="c"><use transform="matrix(0.0493827160493827,0,0,0.0493827160493827,0,0)" xlink:href="#z"/><use transform="matrix(0.0493827160493827,0,0,0.0493827160493827,4.9382716049382696,0)" xlink:href="#y"/><use transform="matrix(0.0493827160493827,0,0,0.0493827160493827,14.81481481481481,0)" xlink:href="#E"/><use transform="matrix(0.0493827160493827,0,0,0.0493827160493827,20.69135802469135,0)" xlink:href="#G"/><use transform="matrix(0.0493827160493827,0,0,0.0493827160493827,30.56790123456789,0)" xlink:href="#F"/><use transform="matrix(0.0493827160493827,0,0,0.0493827160493827,40.44444444444443,0)" xlink:href="#z"/><use transform="matrix(0.0493827160493827,0,0,0.0493827160493827,45.3827160493827,0)" xlink:href="#H"/></g><path fill="#333" d="M873-819c-18-114-119-146-250-146-163 0-245 50-245 151 0 151 170 148 294 185 182 54 388 94 388 320 0 240-189 325-439 329-245 4-410-69-454-268l159-31c24 133 136 168 295 165 144-2 270-31 270-171 0-164-195-160-331-202-167-52-350-87-350-299 0-218 173-315 413-313 220 2 373 77 412 260" id="I"/><path fill="#333" d="M617-1102c355 0 481 238 477 599H322c5 222 84 388 301 388 144 0 244-59 284-166l158 45C1002-72 854 20 623 20c-342 0-490-220-490-568 0-346 151-554 484-554zm291 461c-18-192-90-328-289-328-194 0-287 128-295 328h584" id="J"/><path fill="#333" d="M706-1102c241 0 344 136 343 381V0H868v-695c1-168-57-273-220-268-190 6-283 138-283 336V0H185c-3-360 6-732-6-1082h170c4 54 7 126 8 185h3c63-121 164-204 346-205" id="K"/><path fill="#333" d="M865-914c-3-187-2-380-2-570h180v1261c0 76 1 155 6 223H877c-8-49-9-116-10-174h-5C801-44 708 26 530 26c-135 0-234-46-297-139s-95-232-95-419c0-377 131-566 392-566 176 0 271 63 335 184zm-286-51c-222 0-255 197-255 427 0 229 31 425 253 425 237 0 286-195 286-441 0-238-52-411-284-411" id="L"/><g id="d"><use transform="matrix(0.008680555555555554,0,0,0.008680555555555554,0,0)" xlink:href="#I"/><use transform="matrix(0.008680555555555554,0,0,0.008680555555555554,10.668402777777777,0)" xlink:href="#J"/><use transform="matrix(0.008680555555555554,0,0,0.008680555555555554,21.336805555555554,0)" xlink:href="#K"/><use transform="matrix(0.008680555555555554,0,0,0.008680555555555554,32.00520833333333,0)" xlink:href="#L"/></g><path fill="#333" d="M839-1102c70 0 148 7 206 17v167c-112-18-268-36-363 15-129 69-208 203-208 395V0H294c-10-367 32-789-52-1082h171c21 75 41 161 48 250h5c67-152 152-270 373-270" id="M"/><path fill="#333" d="M631 20c-350 0-501-215-501-562 0-355 162-560 502-560 250 0 399 118 446 323l-192 14c-23-124-109-196-262-196-242 0-305 171-305 415 1 245 61 427 304 427 151 0 248-77 267-215l190 12C1039-107 883 20 631 20" id="N"/><path fill="#333" d="M715 0H502L69-1082h202c94 253 197 500 285 758 19 57 36 126 52 183 96-335 234-626 350-941h201" id="O"/><g id="e"><use transform="matrix(0.008680555555555554,0,0,0.008680555555555554,0,0)" xlink:href="#M"/><use transform="matrix(0.008680555555555554,0,0,0.008680555555555554,10.668402777777777,0)" xlink:href="#J"/><use transform="matrix(0.008680555555555554,0,0,0.008680555555555554,21.336805555555554,0)" xlink:href="#N"/><use transform="matrix(0.008680555555555554,0,0,0.008680555555555554,32.00520833333333,0)" xlink:href="#O"/></g><path fill="#333" d="M615-1102c343 0 484 203 482 560-1 347-147 562-488 562-336 0-475-219-479-562-4-349 156-560 485-560zm-8 989c240 0 301-180 301-429 0-245-55-427-290-427-236 0-299 181-299 427 0 243 61 429 288 429" id="P"/><path fill="#333" d="M682 16c-209 0-323-80-324-285v-671H190v-142h170l58-282h120v282h432v142H538v652c2 114 60 155 182 155 106 0 209-16 297-34v137C921-4 806 16 682 16" id="Q"/><g id="f"><use transform="matrix(0.008680555555555554,0,0,0.008680555555555554,0,0)" xlink:href="#N"/><use transform="matrix(0.008680555555555554,0,0,0.008680555555555554,10.668402777777777,0)" xlink:href="#P"/><use transform="matrix(0.008680555555555554,0,0,0.008680555555555554,21.336805555555554,0)" xlink:href="#K"/><use transform="matrix(0.008680555555555554,0,0,0.008680555555555554,32.00520833333333,0)" xlink:href="#K"/><use transform="matrix(0.008680555555555554,0,0,0.008680555555555554,42.67361111111111,0)" xlink:href="#J"/><use transform="matrix(0.008680555555555554,0,0,0.008680555555555554,53.342013888888886,0)" xlink:href="#N"/><use transform="matrix(0.008680555555555554,0,0,0.008680555555555554,64.01041666666666,0)" xlink:href="#Q"/></g><path fill="#333" d="M736-142h380V0H134v-142h422v-1200H267v-142h469v1342" id="R"/><g id="g"><use transform="matrix(0.008680555555555554,0,0,0.008680555555555554,0,0)" xlink:href="#N"/><use transform="matrix(0.008680555555555554,0,0,0.008680555555555554,10.668402777777777,0)" xlink:href="#R"/><use transform="matrix(0.008680555555555554,0,0,0.008680555555555554,21.336805555555554,0)" xlink:href="#P"/><use transform="matrix(0.008680555555555554,0,0,0.008680555555555554,32.00520833333333,0)" xlink:href="#I"/><use transform="matrix(0.008680555555555554,0,0,0.008680555555555554,42.67361111111111,0)" xlink:href="#J"/></g><path fill="#333" d="M160-131c35 5 61 23 61 61C221 17 115-2 30 0v-248c76 3 177-17 177 60 0 33-19 50-47 57zm-97-11c50-1 110 9 110-42 0-47-63-36-110-37v79zm0 115c55-2 124 14 124-45 0-56-70-42-124-44v89" id="S"/><path fill="#333" d="M30-248c87 1 191-15 191 75 0 78-77 80-158 76V0H30v-248zm33 125c57 0 124 11 124-50 0-59-68-47-124-48v98" id="T"/><path fill="#333" d="M63-220v92h138v28H63V0H30v-248h175v28H63" id="U"/><g id="h"><use transform="matrix(0.06172839506172839,0,0,0.06172839506172839,0,0)" xlink:href="#S"/><use transform="matrix(0.06172839506172839,0,0,0.06172839506172839,14.814814814814813,0)" xlink:href="#T"/><use transform="matrix(0.06172839506172839,0,0,0.06172839506172839,29.629629629629626,0)" xlink:href="#U"/></g><path fill="#333" d="M210-169c-67 3-38 105-44 169h-31v-121c0-29-5-50-35-48C34-165 62-65 56 0H25l-1-190h30c1 10-1 24 2 32 10-44 99-50 107 0 11-21 27-35 58-36 85-2 47 119 55 194h-31v-121c0-29-5-49-35-48" id="V"/><g id="i"><use transform="matrix(0.06172839506172839,0,0,0.06172839506172839,0,0)" xlink:href="#u"/><use transform="matrix(0.06172839506172839,0,0,0.06172839506172839,12.345679012345679,0)" xlink:href="#E"/><use transform="matrix(0.06172839506172839,0,0,0.06172839506172839,19.691358024691358,0)" xlink:href="#A"/><use transform="matrix(0.06172839506172839,0,0,0.06172839506172839,32.03703703703704,0)" xlink:href="#G"/><use transform="matrix(0.06172839506172839,0,0,0.06172839506172839,44.382716049382715,0)" xlink:href="#E"/><use transform="matrix(0.06172839506172839,0,0,0.06172839506172839,51.72839506172839,0)" xlink:href="#y"/><use transform="matrix(0.06172839506172839,0,0,0.06172839506172839,64.07407407407408,0)" xlink:href="#V"/></g><path fill="#333" d="M135-143c-3-34-86-38-87 0 15 53 115 12 119 90S17 21 10-45l28-5c4 36 97 45 98 0-10-56-113-15-118-90-4-57 82-63 122-42 12 7 21 19 24 35" id="W"/><g id="j"><use transform="matrix(0.0493827160493827,0,0,0.0493827160493827,0,0)" xlink:href="#z"/><use transform="matrix(0.0493827160493827,0,0,0.0493827160493827,4.9382716049382696,0)" xlink:href="#E"/><use transform="matrix(0.0493827160493827,0,0,0.0493827160493827,10.81481481481481,0)" xlink:href="#w"/><use transform="matrix(0.0493827160493827,0,0,0.0493827160493827,14.716049382716044,0)" xlink:href="#G"/><use transform="matrix(0.0493827160493827,0,0,0.0493827160493827,24.59259259259258,0)" xlink:href="#G"/><use transform="matrix(0.0493827160493827,0,0,0.0493827160493827,34.46913580246912,0)" xlink:href="#F"/><use transform="matrix(0.0493827160493827,0,0,0.0493827160493827,44.345679012345656,0)" xlink:href="#E"/><use transform="matrix(0.0493827160493827,0,0,0.0493827160493827,50.2222222222222,0)" xlink:href="#W"/></g><path fill="#333" d="M140-251c81 0 123 46 123 126C263-46 219 4 140 4 59 4 17-45 17-125s42-126 123-126zm0 227c63 0 89-41 89-101s-29-99-89-99c-61 0-89 39-89 99S79-25 140-24" id="X"/><path fill="#333" d="M84 4C-5 8 30-112 23-190h32v120c0 31 7 50 39 49 72-2 45-101 50-169h31l1 190h-30c-1-10 1-25-2-33-11 22-28 36-60 37" id="Y"/><g id="k"><use transform="matrix(0.06172839506172839,0,0,0.06172839506172839,0,0)" xlink:href="#X"/><use transform="matrix(0.06172839506172839,0,0,0.06172839506172839,17.28395061728395,0)" xlink:href="#Y"/><use transform="matrix(0.06172839506172839,0,0,0.06172839506172839,29.629629629629626,0)" xlink:href="#z"/><use transform="matrix(0.06172839506172839,0,0,0.06172839506172839,35.80246913580247,0)" xlink:href="#u"/><use transform="matrix(0.06172839506172839,0,0,0.06172839506172839,48.148148148148145,0)" xlink:href="#Y"/><use transform="matrix(0.06172839506172839,0,0,0.06172839506172839,60.49382716049382,0)" xlink:href="#z"/></g><path fill="#333" d="M101-234c-31-9-42 10-38 44h38v23H63V0H32v-167H5v-23h27c-7-52 17-82 69-68v24" id="Z"/><g id="l"><use transform="matrix(0.06172839506172839,0,0,0.06172839506172839,0,0)" xlink:href="#S"/><use transform="matrix(0.06172839506172839,0,0,0.06172839506172839,14.814814814814813,0)" xlink:href="#Y"/><use transform="matrix(0.06172839506172839,0,0,0.06172839506172839,27.160493827160494,0)" xlink:href="#Z"/><use transform="matrix(0.06172839506172839,0,0,0.06172839506172839,32.901234567901234,0)" xlink:href="#Z"/><use transform="matrix(0.06172839506172839,0,0,0.06172839506172839,39.074074074074076,0)" xlink:href="#F"/><use transform="matrix(0.06172839506172839,0,0,0.06172839506172839,51.41975308641975,0)" xlink:href="#E"/></g><g id="m"><use transform="matrix(0.06172839506172839,0,0,0.06172839506172839,0,0)" xlink:href="#D"/><use transform="matrix(0.06172839506172839,0,0,0.06172839506172839,12.716049382716047,0)" xlink:href="#E"/><use transform="matrix(0.06172839506172839,0,0,0.06172839506172839,20.061728395061728,0)" xlink:href="#y"/><use transform="matrix(0.06172839506172839,0,0,0.06172839506172839,32.407407407407405,0)" xlink:href="#x"/><use transform="matrix(0.06172839506172839,0,0,0.06172839506172839,43.51851851851852,0)" xlink:href="#F"/><use transform="matrix(0.06172839506172839,0,0,0.06172839506172839,55.864197530864196,0)" xlink:href="#E"/></g><g id="n"><use transform="matrix(0.0493827160493827,0,0,0.0493827160493827,0,0)" xlink:href="#x"/><use transform="matrix(0.0493827160493827,0,0,0.0493827160493827,8.888888888888886,0)" xlink:href="#y"/><use transform="matrix(0.0493827160493827,0,0,0.0493827160493827,18.765432098765423,0)" xlink:href="#u"/><use transform="matrix(0.0493827160493827,0,0,0.0493827160493827,28.64197530864196,0)" xlink:href="#z"/><use transform="matrix(0.0493827160493827,0,0,0.0493827160493827,33.58024691358023,0)" xlink:href="#Y"/><use transform="matrix(0.0493827160493827,0,0,0.0493827160493827,43.45679012345677,0)" xlink:href="#E"/><use transform="matrix(0.0493827160493827,0,0,0.0493827160493827,49.333333333333314,0)" xlink:href="#F"/></g><path fill="#333" d="M206 0h-36l-40-164L89 0H53L-1-190h32L70-26l43-164h34l41 164 42-164h31" id="aa"/><path fill="#333" d="M143 0L79-87 56-68V0H24v-261h32v163l83-92h37l-77 82L181 0h-38" id="ab"/><g id="o"><use transform="matrix(0.0493827160493827,0,0,0.0493827160493827,0,0)" xlink:href="#B"/><use transform="matrix(0.0493827160493827,0,0,0.0493827160493827,9.876543209876539,0)" xlink:href="#F"/><use transform="matrix(0.0493827160493827,0,0,0.0493827160493827,19.753086419753078,0)" xlink:href="#z"/><use transform="matrix(0.0493827160493827,0,0,0.0493827160493827,24.691358024691347,0)" xlink:href="#aa"/><use transform="matrix(0.0493827160493827,0,0,0.0493827160493827,37.48148148148147,0)" xlink:href="#A"/><use transform="matrix(0.0493827160493827,0,0,0.0493827160493827,47.358024691358004,0)" xlink:href="#E"/><use transform="matrix(0.0493827160493827,0,0,0.0493827160493827,53.23456790123454,0)" xlink:href="#ab"/></g><path fill="#333" d="M85-194c31 0 48 13 60 33l-1-100h32l1 261h-30c-2-10 0-23-3-31C134-8 116 4 85 4 32 4 16-35 15-94c0-66 23-100 70-100zm9 24c-40 0-46 34-46 75 0 40 6 74 45 74 42 0 51-32 51-76 0-42-9-74-50-73" id="ac"/><g id="p"><use transform="matrix(0.0493827160493827,0,0,0.0493827160493827,0,0)" xlink:href="#ac"/><use transform="matrix(0.0493827160493827,0,0,0.0493827160493827,9.876543209876539,0)" xlink:href="#y"/><use transform="matrix(0.0493827160493827,0,0,0.0493827160493827,19.753086419753078,0)" xlink:href="#z"/><use transform="matrix(0.0493827160493827,0,0,0.0493827160493827,24.691358024691347,0)" xlink:href="#y"/></g><path fill="#5e5e5e" d="M30 0v-248h33v221h125V0H30" id="ad"/><path fill="#5e5e5e" d="M24-231v-30h32v30H24zM24 0v-190h32V0H24" id="ae"/><path fill="#5e5e5e" d="M117-194c89-4 53 116 60 194h-32v-121c0-31-8-49-39-48C34-167 62-67 57 0H25l-1-190h30c1 10-1 24 2 32 11-22 29-35 61-36" id="af"/><path fill="#5e5e5e" d="M84 4C-5 8 30-112 23-190h32v120c0 31 7 50 39 49 72-2 45-101 50-169h31l1 190h-30c-1-10 1-25-2-33-11 22-28 36-60 37" id="ag"/><path fill="#5e5e5e" d="M141 0L90-78 38 0H4l68-98-65-92h35l48 74 47-74h35l-64 92 68 98h-35" id="ah"/><g id="q"><use transform="matrix(0.06172839506172839,0,0,0.06172839506172839,0,0)" xlink:href="#ad"/><use transform="matrix(0.06172839506172839,0,0,0.06172839506172839,12.345679012345679,0)" xlink:href="#ae"/><use transform="matrix(0.06172839506172839,0,0,0.06172839506172839,17.22222222222222,0)" xlink:href="#af"/><use transform="matrix(0.06172839506172839,0,0,0.06172839506172839,29.5679012345679,0)" xlink:href="#ag"/><use transform="matrix(0.06172839506172839,0,0,0.06172839506172839,41.913580246913575,0)" xlink:href="#ah"/></g><path fill="#5e5e5e" d="M194 0L95-120 63-95V0H30v-248h33v124l119-124h40L117-140 236 0h-42" id="ai"/><path fill="#5e5e5e" d="M100-194c63 0 86 42 84 106H49c0 40 14 67 53 68 26 1 43-12 49-29l28 8c-11 28-37 45-77 45C44 4 14-33 15-96c1-61 26-98 85-98zm52 81c6-60-76-77-97-28-3 7-6 17-6 28h103" id="aj"/><path fill="#5e5e5e" d="M114-163C36-179 61-72 57 0H25l-1-190h30c1 12-1 29 2 39 6-27 23-49 58-41v29" id="ak"/><path fill="#5e5e5e" d="M24 0v-261h32V0H24" id="al"/><g id="r"><use transform="matrix(0.06172839506172839,0,0,0.06172839506172839,0,0)" xlink:href="#ai"/><use transform="matrix(0.06172839506172839,0,0,0.06172839506172839,14.814814814814813,0)" xlink:href="#aj"/><use transform="matrix(0.06172839506172839,0,0,0.06172839506172839,27.160493827160494,0)" xlink:href="#ak"/><use transform="matrix(0.06172839506172839,0,0,0.06172839506172839,34.50617283950617,0)" xlink:href="#af"/><use transform="matrix(0.06172839506172839,0,0,0.06172839506172839,46.85185185185185,0)" xlink:href="#aj"/><use transform="matrix(0.06172839506172839,0,0,0.06172839506172839,59.197530864197525,0)" xlink:href="#al"/></g><path fill="#5e5e5e" d="M232-93c-1 65-40 97-104 97C67 4 28-28 28-90v-158h33c8 89-33 224 67 224 102 0 64-133 71-224h33v155" id="am"/><path fill="#5e5e5e" d="M135-143c-3-34-86-38-87 0 15 53 115 12 119 90S17 21 10-45l28-5c4 36 97 45 98 0-10-56-113-15-118-90-4-57 82-63 122-42 12 7 21 19 24 35" id="an"/><path fill="#5e5e5e" d="M115-194c55 1 70 41 70 98S169 2 115 4C84 4 66-9 55-30l1 105H24l-1-265h31l2 30c10-21 28-34 59-34zm-8 174c40 0 45-34 45-75s-6-73-45-74c-42 0-51 32-51 76 0 43 10 73 51 73" id="ao"/><path fill="#5e5e5e" d="M141-36C126-15 110 5 73 4 37 3 15-17 15-53c-1-64 63-63 125-63 3-35-9-54-41-54-24 1-41 7-42 31l-33-3c5-37 33-52 76-52 45 0 72 20 72 64v82c-1 20 7 32 28 27v20c-31 9-61-2-59-35zM48-53c0 20 12 33 32 33 41-3 63-29 60-74-43 2-92-5-92 41" id="ap"/><path fill="#5e5e5e" d="M96-169c-40 0-48 33-48 73s9 75 48 75c24 0 41-14 43-38l32 2c-6 37-31 61-74 61-59 0-76-41-82-99-10-93 101-131 147-64 4 7 5 14 7 22l-32 3c-4-21-16-35-41-35" id="aq"/><g id="s"><use transform="matrix(0.06172839506172839,0,0,0.06172839506172839,0,0)" xlink:href="#am"/><use transform="matrix(0.06172839506172839,0,0,0.06172839506172839,15.987654320987653,0)" xlink:href="#an"/><use transform="matrix(0.06172839506172839,0,0,0.06172839506172839,27.098765432098766,0)" xlink:href="#aj"/><use transform="matrix(0.06172839506172839,0,0,0.06172839506172839,39.44444444444444,0)" xlink:href="#ak"/><use transform="matrix(0.06172839506172839,0,0,0.06172839506172839,46.79012345679012,0)" xlink:href="#an"/><use transform="matrix(0.06172839506172839,0,0,0.06172839506172839,57.90123456790123,0)" xlink:href="#ao"/><use transform="matrix(0.06172839506172839,0,0,0.06172839506172839,70.24691358024691,0)" xlink:href="#ap"/><use transform="matrix(0.06172839506172839,0,0,0.06172839506172839,82.5925925925926,0)" xlink:href="#aq"/><use transform="matrix(0.06172839506172839,0,0,0.06172839506172839,93.70370370370371,0)" xlink:href="#aj"/></g></defs></g></svg>