<svg width="40" height="40" viewBox="0 0 40 40" fill="none" xmlns="http://www.w3.org/2000/svg">
<path d="M21.5879 16.802L16.4025 18.5304L18.1309 23.543L23.3163 21.8145L21.5879 16.802ZM25.2176 37.8892C29.7116 36.5929 32.9957 35.0373 35.2427 33.1359C37.4897 31.2346 38.7861 28.9012 39.1318 25.9628C39.4775 23.1109 38.9589 19.3947 37.5762 14.9007C36.1934 10.4066 34.6378 7.03614 32.7365 4.78914C30.8351 2.54214 28.5017 1.24579 25.6498 0.900095C22.7114 0.554402 18.9952 1.07294 14.5012 2.45571C10.0072 3.83848 6.63666 5.3941 4.38965 7.29541C2.14265 9.19672 0.932727 11.5301 0.587034 14.3821C0.241341 17.3205 0.673457 21.0367 2.05623 25.5307C3.439 30.0247 4.99462 33.3952 6.89593 35.6422C8.79724 37.8892 11.1307 39.0991 14.0691 39.4448C16.921 39.7905 20.6372 39.272 25.2176 37.8892ZM32.1315 20.9503C32.3043 21.4688 32.2179 21.9874 32.0451 22.5059C31.7858 23.0244 31.4401 23.3701 30.9216 23.543L28.4153 24.3208L29.1931 26.9135C29.366 27.5184 29.2795 28.037 29.1067 28.5555C28.8474 29.0741 28.4153 29.3333 27.8968 29.5062C27.3782 29.679 26.8597 29.679 26.3411 29.4197C25.8226 29.1605 25.5633 28.7284 25.3905 28.2098L24.5263 25.6171L19.4273 27.3456L20.2915 29.9383C20.4644 30.4568 20.3779 30.9754 20.1187 31.4939C19.8594 32.0124 19.4273 32.3581 18.9087 32.531C18.3902 32.7038 17.8717 32.6174 17.3531 32.3581C16.8346 32.0989 16.5753 31.7532 16.4889 31.2346L15.6247 28.6419L14.4147 28.9876C13.2048 29.4197 12.5999 29.5926 12.427 29.5926C11.9085 29.5926 11.5628 29.4197 11.2171 29.1605C10.8714 28.9876 10.6121 28.6419 10.5257 28.2098C10.3529 27.6913 10.3529 27.1727 10.6121 26.6542C10.8714 26.1357 11.3035 25.79 11.822 25.6171L14.3283 24.8393L12.6863 19.8268L11.4764 20.1725C10.2664 20.6046 9.66147 20.7774 9.48862 20.7774C8.97008 20.7774 8.62439 20.6046 8.2787 20.3453C7.933 20.1725 7.67373 19.8268 7.58731 19.3947C7.41446 18.8761 7.41446 18.3576 7.67373 17.839C7.933 17.3205 8.36512 16.9748 8.88366 16.802L11.3899 16.0242L10.5257 13.4315C10.3529 12.9129 10.3529 12.3944 10.6121 11.8758C10.785 11.3573 11.2171 11.0116 11.7356 10.8388C12.2542 10.6659 12.7727 10.7523 13.2912 11.0116C13.8098 11.2709 14.1555 11.6166 14.3283 12.1351L15.1926 14.7278L20.3779 12.9993L19.5137 10.4066C19.3409 9.88811 19.3409 9.36957 19.6001 8.85103C19.773 8.33249 20.2051 7.9868 20.7236 7.81395C21.2422 7.6411 21.7607 7.72753 22.2793 7.9868C22.7978 8.24607 23.1435 8.59176 23.3163 9.1103L24.1806 11.703L26.6868 10.8388C27.2054 10.7523 27.6375 10.8388 28.156 11.0116C28.6746 11.2709 29.0203 11.6166 29.1931 12.1351C29.366 12.6536 29.2795 13.1722 29.1067 13.6907C28.8474 14.2093 28.5017 14.555 27.9832 14.7278L25.4769 15.5056L27.119 20.5182L29.6252 19.6539C30.1438 19.4811 30.5759 19.5675 31.0944 19.8268C31.613 20.086 31.9586 20.4317 32.1315 20.9503Z" fill="#9696A5"/>
</svg>
