<svg width="1085" height="324" viewBox="0 0 1085 324" fill="none" xmlns="http://www.w3.org/2000/svg">
<rect x="830" y="96" width="255" height="174" rx="19" fill="#79D0FF"/>
<rect x="308" y="96" width="255" height="174" rx="19" fill="#79D0FF"/>
<path d="M892.372 188.691H882.245L879.971 195H876.684L885.914 170.828H888.703L897.95 195H894.68L892.372 188.691ZM883.208 186.068H891.426L887.309 174.763L883.208 186.068ZM911.613 193.224C910.418 194.629 908.664 195.332 906.351 195.332C904.436 195.332 902.975 194.779 901.968 193.672C900.972 192.554 900.468 190.905 900.457 188.725V177.037H903.528V188.642C903.528 191.364 904.635 192.726 906.849 192.726C909.195 192.726 910.756 191.851 911.53 190.103V177.037H914.602V195H911.68L911.613 193.224ZM923.45 172.688V177.037H926.804V179.411H923.45V190.551C923.45 191.27 923.6 191.812 923.898 192.178C924.197 192.532 924.706 192.709 925.426 192.709C925.78 192.709 926.267 192.643 926.887 192.51V195C926.079 195.221 925.293 195.332 924.529 195.332C923.157 195.332 922.122 194.917 921.425 194.087C920.728 193.257 920.379 192.078 920.379 190.551V179.411H917.108V177.037H920.379V172.688H923.45ZM929.261 185.853C929.261 184.093 929.604 182.51 930.29 181.104C930.987 179.699 931.95 178.614 933.179 177.851C934.418 177.087 935.829 176.705 937.412 176.705C939.858 176.705 941.834 177.552 943.339 179.245C944.855 180.938 945.613 183.191 945.613 186.002V186.218C945.613 187.966 945.276 189.538 944.601 190.933C943.937 192.316 942.979 193.395 941.729 194.17C940.489 194.945 939.061 195.332 937.445 195.332C935.01 195.332 933.035 194.485 931.519 192.792C930.013 191.099 929.261 188.857 929.261 186.068V185.853ZM932.349 186.218C932.349 188.21 932.808 189.809 933.727 191.016C934.656 192.222 935.896 192.825 937.445 192.825C939.006 192.825 940.245 192.216 941.164 190.999C942.083 189.771 942.542 188.055 942.542 185.853C942.542 183.882 942.072 182.289 941.131 181.071C940.201 179.843 938.962 179.229 937.412 179.229C935.896 179.229 934.673 179.832 933.743 181.038C932.813 182.244 932.349 183.971 932.349 186.218ZM959.924 190.235C959.924 189.405 959.608 188.763 958.978 188.31C958.358 187.845 957.268 187.446 955.707 187.114C954.158 186.782 952.924 186.384 952.005 185.919C951.097 185.454 950.422 184.901 949.979 184.259C949.548 183.617 949.332 182.853 949.332 181.968C949.332 180.496 949.952 179.251 951.191 178.232C952.442 177.214 954.036 176.705 955.973 176.705C958.009 176.705 959.658 177.231 960.92 178.282C962.193 179.334 962.829 180.678 962.829 182.316H959.741C959.741 181.475 959.382 180.75 958.662 180.142C957.954 179.533 957.057 179.229 955.973 179.229C954.855 179.229 953.98 179.472 953.35 179.959C952.719 180.446 952.403 181.082 952.403 181.868C952.403 182.61 952.697 183.169 953.283 183.545C953.87 183.921 954.927 184.281 956.454 184.624C957.993 184.967 959.238 185.377 960.189 185.853C961.141 186.328 961.844 186.904 962.298 187.579C962.763 188.243 962.995 189.057 962.995 190.02C962.995 191.624 962.353 192.914 961.069 193.888C959.785 194.851 958.12 195.332 956.072 195.332C954.633 195.332 953.361 195.077 952.254 194.568C951.147 194.059 950.278 193.351 949.647 192.443C949.028 191.525 948.718 190.534 948.718 189.472H951.789C951.844 190.501 952.254 191.32 953.018 191.929C953.792 192.526 954.811 192.825 956.072 192.825C957.234 192.825 958.164 192.593 958.861 192.128C959.57 191.652 959.924 191.021 959.924 190.235ZM974.201 192.825C975.297 192.825 976.254 192.493 977.073 191.829C977.892 191.165 978.346 190.335 978.435 189.339H981.34C981.285 190.368 980.93 191.348 980.277 192.277C979.624 193.207 978.75 193.949 977.654 194.502C976.57 195.055 975.419 195.332 974.201 195.332C971.755 195.332 969.807 194.519 968.357 192.892C966.919 191.254 966.199 189.018 966.199 186.185V185.67C966.199 183.921 966.52 182.366 967.162 181.005C967.804 179.644 968.723 178.587 969.918 177.834C971.124 177.081 972.547 176.705 974.185 176.705C976.199 176.705 977.87 177.308 979.198 178.515C980.537 179.721 981.251 181.287 981.34 183.213H978.435C978.346 182.051 977.903 181.099 977.106 180.357C976.321 179.605 975.347 179.229 974.185 179.229C972.624 179.229 971.412 179.793 970.549 180.922C969.697 182.04 969.271 183.661 969.271 185.786V186.367C969.271 188.437 969.697 190.031 970.549 191.148C971.401 192.266 972.618 192.825 974.201 192.825ZM995.883 195C995.706 194.646 995.562 194.015 995.451 193.107C994.023 194.59 992.319 195.332 990.338 195.332C988.567 195.332 987.112 194.834 985.972 193.838C984.843 192.831 984.278 191.558 984.278 190.02C984.278 188.149 984.987 186.699 986.403 185.67C987.831 184.63 989.834 184.109 992.413 184.109H995.401V182.698C995.401 181.625 995.08 180.772 994.438 180.142C993.797 179.5 992.85 179.179 991.6 179.179C990.504 179.179 989.585 179.455 988.844 180.009C988.102 180.562 987.731 181.232 987.731 182.018H984.644C984.644 181.121 984.959 180.258 985.59 179.428C986.232 178.587 987.095 177.923 988.18 177.436C989.275 176.949 990.476 176.705 991.782 176.705C993.852 176.705 995.473 177.225 996.646 178.266C997.82 179.295 998.428 180.717 998.473 182.532V190.8C998.473 192.449 998.683 193.76 999.104 194.734V195H995.883ZM990.786 192.659C991.749 192.659 992.662 192.41 993.525 191.912C994.389 191.414 995.014 190.767 995.401 189.97V186.284H992.994C989.231 186.284 987.35 187.385 987.35 189.588C987.35 190.551 987.671 191.303 988.312 191.846C988.954 192.388 989.779 192.659 990.786 192.659ZM1006.62 195H1003.55V169.5H1006.62V195ZM1019.01 195.332C1016.57 195.332 1014.59 194.535 1013.07 192.941C1011.54 191.337 1010.77 189.195 1010.77 186.517V185.952C1010.77 184.17 1011.11 182.582 1011.79 181.188C1012.47 179.782 1013.43 178.686 1014.64 177.9C1015.87 177.104 1017.2 176.705 1018.63 176.705C1020.96 176.705 1022.78 177.474 1024.07 179.013C1025.37 180.551 1026.01 182.754 1026.01 185.62V186.898H1013.85C1013.89 188.669 1014.4 190.103 1015.39 191.198C1016.39 192.283 1017.65 192.825 1019.17 192.825C1020.26 192.825 1021.18 192.604 1021.93 192.161C1022.68 191.718 1023.34 191.132 1023.91 190.401L1025.78 191.862C1024.28 194.175 1022.02 195.332 1019.01 195.332ZM1018.63 179.229C1017.39 179.229 1016.35 179.682 1015.51 180.59C1014.66 181.486 1014.14 182.748 1013.95 184.375H1022.94V184.143C1022.85 182.582 1022.43 181.376 1021.68 180.523C1020.93 179.66 1019.91 179.229 1018.63 179.229ZM1038.27 179.793C1037.8 179.715 1037.3 179.677 1036.76 179.677C1034.74 179.677 1033.37 180.535 1032.66 182.25V195H1029.58V177.037H1032.57L1032.62 179.112C1033.63 177.507 1035.06 176.705 1036.91 176.705C1037.5 176.705 1037.96 176.783 1038.27 176.938V179.793Z" fill="black"/>
<rect x="287" y="236" width="88" height="88" rx="19" fill="#129292"/>
<path d="M307.594 282.537V292H304.406V267.828H313.321C315.966 267.828 318.036 268.503 319.53 269.854C321.035 271.204 321.788 272.991 321.788 275.216C321.788 277.562 321.052 279.372 319.58 280.645C318.119 281.906 316.022 282.537 313.288 282.537H307.594ZM307.594 279.931H313.321C315.026 279.931 316.332 279.532 317.239 278.735C318.147 277.927 318.601 276.765 318.601 275.249C318.601 273.81 318.147 272.659 317.239 271.796C316.332 270.933 315.087 270.484 313.504 270.451H307.594V279.931ZM324.328 282.853C324.328 281.093 324.671 279.51 325.357 278.104C326.055 276.699 327.018 275.614 328.246 274.851C329.486 274.087 330.897 273.705 332.479 273.705C334.925 273.705 336.901 274.552 338.406 276.245C339.923 277.938 340.681 280.191 340.681 283.002V283.218C340.681 284.966 340.343 286.538 339.668 287.933C339.004 289.316 338.047 290.395 336.796 291.17C335.556 291.945 334.129 292.332 332.513 292.332C330.078 292.332 328.102 291.485 326.586 289.792C325.081 288.099 324.328 285.857 324.328 283.068V282.853ZM327.416 283.218C327.416 285.21 327.875 286.809 328.794 288.016C329.724 289.222 330.963 289.825 332.513 289.825C334.073 289.825 335.313 289.216 336.231 287.999C337.15 286.771 337.609 285.055 337.609 282.853C337.609 280.882 337.139 279.289 336.198 278.071C335.269 276.843 334.029 276.229 332.479 276.229C330.963 276.229 329.74 276.832 328.811 278.038C327.881 279.244 327.416 280.971 327.416 283.218ZM343.785 282.869C343.785 280.113 344.438 277.9 345.744 276.229C347.05 274.546 348.76 273.705 350.874 273.705C352.977 273.705 354.643 274.424 355.871 275.863V266.5H358.942V292H356.12L355.971 290.074C354.742 291.579 353.032 292.332 350.841 292.332C348.76 292.332 347.061 291.48 345.744 289.775C344.438 288.071 343.785 285.846 343.785 283.102V282.869ZM346.856 283.218C346.856 285.254 347.277 286.848 348.118 287.999C348.959 289.15 350.121 289.726 351.604 289.726C353.552 289.726 354.975 288.851 355.871 287.103V278.852C354.952 277.158 353.541 276.312 351.638 276.312C350.132 276.312 348.959 276.893 348.118 278.055C347.277 279.217 346.856 280.938 346.856 283.218Z" fill="black"/>
<rect x="390" y="236" width="88" height="88" rx="19" fill="#129292"/>
<path d="M410.594 282.537V292H407.406V267.828H416.321C418.966 267.828 421.036 268.503 422.53 269.854C424.035 271.204 424.788 272.991 424.788 275.216C424.788 277.562 424.052 279.372 422.58 280.645C421.119 281.906 419.022 282.537 416.288 282.537H410.594ZM410.594 279.931H416.321C418.026 279.931 419.332 279.532 420.239 278.735C421.147 277.927 421.601 276.765 421.601 275.249C421.601 273.81 421.147 272.659 420.239 271.796C419.332 270.933 418.087 270.484 416.504 270.451H410.594V279.931ZM427.328 282.853C427.328 281.093 427.671 279.51 428.357 278.104C429.055 276.699 430.018 275.614 431.246 274.851C432.486 274.087 433.897 273.705 435.479 273.705C437.925 273.705 439.901 274.552 441.406 276.245C442.923 277.938 443.681 280.191 443.681 283.002V283.218C443.681 284.966 443.343 286.538 442.668 287.933C442.004 289.316 441.047 290.395 439.796 291.17C438.556 291.945 437.129 292.332 435.513 292.332C433.078 292.332 431.102 291.485 429.586 289.792C428.081 288.099 427.328 285.857 427.328 283.068V282.853ZM430.416 283.218C430.416 285.21 430.875 286.809 431.794 288.016C432.724 289.222 433.963 289.825 435.513 289.825C437.073 289.825 438.313 289.216 439.231 287.999C440.15 286.771 440.609 285.055 440.609 282.853C440.609 280.882 440.139 279.289 439.198 278.071C438.269 276.843 437.029 276.229 435.479 276.229C433.963 276.229 432.74 276.832 431.811 278.038C430.881 279.244 430.416 280.971 430.416 283.218ZM446.785 282.869C446.785 280.113 447.438 277.9 448.744 276.229C450.05 274.546 451.76 273.705 453.874 273.705C455.977 273.705 457.643 274.424 458.871 275.863V266.5H461.942V292H459.12L458.971 290.074C457.742 291.579 456.032 292.332 453.841 292.332C451.76 292.332 450.061 291.48 448.744 289.775C447.438 288.071 446.785 285.846 446.785 283.102V282.869ZM449.856 283.218C449.856 285.254 450.277 286.848 451.118 287.999C451.959 289.15 453.121 289.726 454.604 289.726C456.552 289.726 457.975 288.851 458.871 287.103V278.852C457.952 277.158 456.541 276.312 454.638 276.312C453.132 276.312 451.959 276.893 451.118 278.055C450.277 279.217 449.856 280.938 449.856 283.218Z" fill="black"/>
<rect x="495" y="236" width="88" height="88" rx="19" fill="#129292"/>
<path d="M515.594 282.537V292H512.406V267.828H521.321C523.966 267.828 526.036 268.503 527.53 269.854C529.035 271.204 529.788 272.991 529.788 275.216C529.788 277.562 529.052 279.372 527.58 280.645C526.119 281.906 524.022 282.537 521.288 282.537H515.594ZM515.594 279.931H521.321C523.026 279.931 524.332 279.532 525.239 278.735C526.147 277.927 526.601 276.765 526.601 275.249C526.601 273.81 526.147 272.659 525.239 271.796C524.332 270.933 523.087 270.484 521.504 270.451H515.594V279.931ZM532.328 282.853C532.328 281.093 532.671 279.51 533.357 278.104C534.055 276.699 535.018 275.614 536.246 274.851C537.486 274.087 538.897 273.705 540.479 273.705C542.925 273.705 544.901 274.552 546.406 276.245C547.923 277.938 548.681 280.191 548.681 283.002V283.218C548.681 284.966 548.343 286.538 547.668 287.933C547.004 289.316 546.047 290.395 544.796 291.17C543.556 291.945 542.129 292.332 540.513 292.332C538.078 292.332 536.102 291.485 534.586 289.792C533.081 288.099 532.328 285.857 532.328 283.068V282.853ZM535.416 283.218C535.416 285.21 535.875 286.809 536.794 288.016C537.724 289.222 538.963 289.825 540.513 289.825C542.073 289.825 543.313 289.216 544.231 287.999C545.15 286.771 545.609 285.055 545.609 282.853C545.609 280.882 545.139 279.289 544.198 278.071C543.269 276.843 542.029 276.229 540.479 276.229C538.963 276.229 537.74 276.832 536.811 278.038C535.881 279.244 535.416 280.971 535.416 283.218ZM551.785 282.869C551.785 280.113 552.438 277.9 553.744 276.229C555.05 274.546 556.76 273.705 558.874 273.705C560.977 273.705 562.643 274.424 563.871 275.863V266.5H566.942V292H564.12L563.971 290.074C562.742 291.579 561.032 292.332 558.841 292.332C556.76 292.332 555.061 291.48 553.744 289.775C552.438 288.071 551.785 285.846 551.785 283.102V282.869ZM554.856 283.218C554.856 285.254 555.277 286.848 556.118 287.999C556.959 289.15 558.121 289.726 559.604 289.726C561.552 289.726 562.975 288.851 563.871 287.103V278.852C562.952 277.158 561.541 276.312 559.638 276.312C558.132 276.312 556.959 276.893 556.118 278.055C555.277 279.217 554.856 280.938 554.856 283.218Z" fill="black"/>
<path d="M347.977 195V170.828H354.8C356.903 170.828 358.762 171.293 360.378 172.223C361.994 173.152 363.239 174.475 364.113 176.19C364.999 177.906 365.447 179.876 365.458 182.101V183.645C365.458 185.924 365.015 187.922 364.13 189.638C363.256 191.353 361.999 192.67 360.361 193.589C358.734 194.507 356.836 194.978 354.667 195H347.977ZM351.164 173.451V192.394H354.518C356.975 192.394 358.884 191.63 360.245 190.103C361.618 188.575 362.304 186.4 362.304 183.578V182.167C362.304 179.422 361.656 177.292 360.361 175.775C359.077 174.248 357.251 173.473 354.883 173.451H351.164ZM377.262 195.332C374.827 195.332 372.846 194.535 371.318 192.941C369.791 191.337 369.027 189.195 369.027 186.517V185.952C369.027 184.17 369.365 182.582 370.04 181.188C370.726 179.782 371.678 178.686 372.896 177.9C374.124 177.104 375.452 176.705 376.88 176.705C379.215 176.705 381.03 177.474 382.325 179.013C383.62 180.551 384.268 182.754 384.268 185.62V186.898H372.099C372.143 188.669 372.658 190.103 373.643 191.198C374.639 192.283 375.9 192.825 377.428 192.825C378.512 192.825 379.431 192.604 380.184 192.161C380.936 191.718 381.595 191.132 382.159 190.401L384.035 191.862C382.53 194.175 380.272 195.332 377.262 195.332ZM376.88 179.229C375.64 179.229 374.6 179.682 373.759 180.59C372.918 181.486 372.397 182.748 372.198 184.375H381.196V184.143C381.108 182.582 380.687 181.376 379.935 180.523C379.182 179.66 378.164 179.229 376.88 179.229ZM403.011 186.218C403.011 188.951 402.385 191.154 401.135 192.825C399.884 194.496 398.191 195.332 396.055 195.332C393.874 195.332 392.159 194.64 390.908 193.257V201.906H387.837V177.037H390.643L390.792 179.029C392.043 177.48 393.78 176.705 396.005 176.705C398.163 176.705 399.868 177.519 401.118 179.146C402.38 180.772 403.011 183.036 403.011 185.936V186.218ZM399.939 185.869C399.939 183.844 399.508 182.244 398.645 181.071C397.781 179.898 396.597 179.312 395.092 179.312C393.232 179.312 391.838 180.136 390.908 181.785V190.368C391.827 192.006 393.232 192.825 395.125 192.825C396.597 192.825 397.765 192.244 398.628 191.082C399.502 189.909 399.939 188.171 399.939 185.869ZM410.266 195H407.194V169.5H410.266V195ZM414.383 185.853C414.383 184.093 414.726 182.51 415.412 181.104C416.109 179.699 417.072 178.614 418.301 177.851C419.54 177.087 420.951 176.705 422.534 176.705C424.98 176.705 426.956 177.552 428.461 179.245C429.977 180.938 430.735 183.191 430.735 186.002V186.218C430.735 187.966 430.398 189.538 429.723 190.933C429.059 192.316 428.101 193.395 426.851 194.17C425.611 194.945 424.183 195.332 422.567 195.332C420.132 195.332 418.157 194.485 416.641 192.792C415.135 191.099 414.383 188.857 414.383 186.068V185.853ZM417.471 186.218C417.471 188.21 417.93 189.809 418.849 191.016C419.778 192.222 421.018 192.825 422.567 192.825C424.128 192.825 425.368 192.216 426.286 190.999C427.205 189.771 427.664 188.055 427.664 185.853C427.664 183.882 427.194 182.289 426.253 181.071C425.323 179.843 424.084 179.229 422.534 179.229C421.018 179.229 419.795 179.832 418.865 181.038C417.936 182.244 417.471 183.971 417.471 186.218ZM440.198 190.501L444.382 177.037H447.669L440.447 197.772C439.329 200.761 437.553 202.255 435.118 202.255L434.537 202.205L433.392 201.989V199.499L434.222 199.565C435.262 199.565 436.07 199.355 436.646 198.935C437.232 198.514 437.714 197.745 438.09 196.627L438.771 194.801L432.362 177.037H435.716L440.198 190.501ZM453.313 177.037L453.396 179.029C454.714 177.48 456.49 176.705 458.726 176.705C461.238 176.705 462.948 177.668 463.855 179.594C464.453 178.73 465.228 178.033 466.18 177.502C467.143 176.971 468.277 176.705 469.583 176.705C473.523 176.705 475.526 178.791 475.593 182.964V195H472.521V183.146C472.521 181.863 472.228 180.905 471.642 180.274C471.055 179.632 470.07 179.312 468.687 179.312C467.547 179.312 466.6 179.655 465.848 180.341C465.095 181.016 464.658 181.929 464.536 183.08V195H461.448V183.229C461.448 180.618 460.17 179.312 457.613 179.312C455.599 179.312 454.221 180.169 453.479 181.885V195H450.408V177.037H453.313ZM487.695 195.332C485.26 195.332 483.279 194.535 481.752 192.941C480.225 191.337 479.461 189.195 479.461 186.517V185.952C479.461 184.17 479.799 182.582 480.474 181.188C481.16 179.782 482.112 178.686 483.329 177.9C484.558 177.104 485.886 176.705 487.313 176.705C489.649 176.705 491.464 177.474 492.759 179.013C494.054 180.551 494.701 182.754 494.701 185.62V186.898H482.532C482.576 188.669 483.091 190.103 484.076 191.198C485.072 192.283 486.334 192.825 487.861 192.825C488.946 192.825 489.865 192.604 490.617 192.161C491.37 191.718 492.028 191.132 492.593 190.401L494.469 191.862C492.964 194.175 490.706 195.332 487.695 195.332ZM487.313 179.229C486.074 179.229 485.034 179.682 484.192 180.59C483.351 181.486 482.831 182.748 482.632 184.375H491.63V184.143C491.541 182.582 491.121 181.376 490.368 180.523C489.616 179.66 488.597 179.229 487.313 179.229ZM501.176 177.037L501.275 179.295C502.648 177.568 504.441 176.705 506.654 176.705C510.451 176.705 512.365 178.847 512.398 183.13V195H509.327V183.113C509.316 181.818 509.017 180.861 508.431 180.241C507.855 179.621 506.953 179.312 505.725 179.312C504.729 179.312 503.854 179.577 503.102 180.108C502.349 180.64 501.762 181.337 501.342 182.2V195H498.271V177.037H501.176ZM521.197 172.688V177.037H524.551V179.411H521.197V190.551C521.197 191.27 521.347 191.812 521.646 192.178C521.944 192.532 522.453 192.709 523.173 192.709C523.527 192.709 524.014 192.643 524.634 192.51V195C523.826 195.221 523.04 195.332 522.276 195.332C520.904 195.332 519.869 194.917 519.172 194.087C518.475 193.257 518.126 192.078 518.126 190.551V179.411H514.855V177.037H518.126V172.688H521.197Z" fill="black"/>
<path d="M811.061 147.061C811.646 146.475 811.646 145.525 811.061 144.939L801.515 135.393C800.929 134.808 799.979 134.808 799.393 135.393C798.808 135.979 798.808 136.929 799.393 137.515L807.879 146L799.393 154.485C798.808 155.071 798.808 156.021 799.393 156.607C799.979 157.192 800.929 157.192 801.515 156.607L811.061 147.061ZM586 147.5H810V144.5H586V147.5Z" fill="white"/>
<path d="M288.061 147.061C288.646 146.475 288.646 145.525 288.061 144.939L278.515 135.393C277.929 134.808 276.979 134.808 276.393 135.393C275.808 135.979 275.808 136.929 276.393 137.515L284.879 146L276.393 154.485C275.808 155.071 275.808 156.021 276.393 156.607C276.979 157.192 277.929 157.192 278.515 156.607L288.061 147.061ZM63 147.5H287V144.5H63V147.5Z" fill="white"/>
<path d="M583.939 222.061C583.354 221.475 583.354 220.525 583.939 219.939L593.485 210.393C594.071 209.808 595.021 209.808 595.607 210.393C596.192 210.979 596.192 211.929 595.607 212.515L587.121 221L595.607 229.485C596.192 230.071 596.192 231.021 595.607 231.607C595.021 232.192 594.071 232.192 593.485 231.607L583.939 222.061ZM809 222.5H585V219.5H809V222.5Z" fill="white"/>
<path d="M633.025 261.226C630.292 260.44 628.299 259.477 627.049 258.337C625.809 257.186 625.189 255.769 625.189 254.087C625.189 252.183 625.948 250.612 627.464 249.372C628.991 248.121 630.972 247.496 633.407 247.496C635.067 247.496 636.545 247.817 637.84 248.459C639.146 249.101 640.153 249.986 640.861 251.115C641.581 252.244 641.94 253.478 641.94 254.817H638.736C638.736 253.356 638.271 252.211 637.342 251.381C636.412 250.54 635.101 250.119 633.407 250.119C631.836 250.119 630.607 250.468 629.722 251.165C628.847 251.851 628.41 252.809 628.41 254.037C628.41 255.022 628.825 255.858 629.655 256.544C630.496 257.219 631.919 257.839 633.922 258.403C635.936 258.968 637.508 259.593 638.637 260.279C639.777 260.954 640.618 261.746 641.16 262.653C641.714 263.561 641.99 264.629 641.99 265.857C641.99 267.816 641.227 269.388 639.699 270.572C638.172 271.745 636.13 272.332 633.573 272.332C631.913 272.332 630.364 272.017 628.925 271.386C627.486 270.744 626.374 269.869 625.588 268.763C624.813 267.656 624.426 266.4 624.426 264.994H627.63C627.63 266.455 628.167 267.612 629.24 268.464C630.325 269.305 631.769 269.726 633.573 269.726C635.256 269.726 636.545 269.382 637.441 268.696C638.338 268.01 638.786 267.075 638.786 265.891C638.786 264.706 638.371 263.793 637.541 263.151C636.711 262.498 635.206 261.856 633.025 261.226ZM652.814 269.825C653.91 269.825 654.868 269.493 655.687 268.829C656.506 268.165 656.959 267.335 657.048 266.339H659.953C659.898 267.368 659.544 268.348 658.891 269.277C658.238 270.207 657.363 270.949 656.268 271.502C655.183 272.055 654.032 272.332 652.814 272.332C650.368 272.332 648.421 271.519 646.971 269.892C645.532 268.254 644.812 266.018 644.812 263.185V262.67C644.812 260.921 645.133 259.366 645.775 258.005C646.417 256.644 647.336 255.587 648.531 254.834C649.738 254.081 651.16 253.705 652.798 253.705C654.812 253.705 656.483 254.308 657.812 255.515C659.151 256.721 659.865 258.287 659.953 260.213H657.048C656.959 259.051 656.517 258.099 655.72 257.357C654.934 256.605 653.96 256.229 652.798 256.229C651.237 256.229 650.025 256.793 649.162 257.922C648.31 259.04 647.884 260.661 647.884 262.786V263.367C647.884 265.437 648.31 267.031 649.162 268.148C650.014 269.266 651.232 269.825 652.814 269.825ZM674.496 272C674.319 271.646 674.175 271.015 674.064 270.107C672.637 271.59 670.932 272.332 668.951 272.332C667.18 272.332 665.725 271.834 664.585 270.838C663.456 269.831 662.892 268.558 662.892 267.02C662.892 265.149 663.6 263.699 665.017 262.67C666.444 261.63 668.448 261.109 671.026 261.109H674.015V259.698C674.015 258.625 673.694 257.772 673.052 257.142C672.41 256.5 671.464 256.179 670.213 256.179C669.117 256.179 668.199 256.455 667.457 257.009C666.715 257.562 666.345 258.232 666.345 259.018H663.257C663.257 258.121 663.572 257.258 664.203 256.428C664.845 255.587 665.708 254.923 666.793 254.436C667.889 253.949 669.09 253.705 670.396 253.705C672.465 253.705 674.087 254.225 675.26 255.266C676.433 256.295 677.042 257.717 677.086 259.532V267.8C677.086 269.449 677.296 270.76 677.717 271.734V272H674.496ZM669.399 269.659C670.362 269.659 671.275 269.41 672.139 268.912C673.002 268.414 673.627 267.767 674.015 266.97V263.284H671.607C667.844 263.284 665.963 264.385 665.963 266.588C665.963 267.551 666.284 268.303 666.926 268.846C667.568 269.388 668.392 269.659 669.399 269.659ZM685.237 272H682.166V246.5H685.237V272ZM697.622 272.332C695.187 272.332 693.206 271.535 691.679 269.941C690.151 268.337 689.388 266.195 689.388 263.517V262.952C689.388 261.17 689.725 259.582 690.4 258.188C691.087 256.782 692.038 255.686 693.256 254.9C694.484 254.104 695.812 253.705 697.24 253.705C699.576 253.705 701.391 254.474 702.686 256.013C703.98 257.551 704.628 259.754 704.628 262.62V263.898H692.459C692.503 265.669 693.018 267.103 694.003 268.198C694.999 269.283 696.261 269.825 697.788 269.825C698.873 269.825 699.791 269.604 700.544 269.161C701.297 268.718 701.955 268.132 702.52 267.401L704.396 268.862C702.89 271.175 700.632 272.332 697.622 272.332ZM697.24 256.229C696.001 256.229 694.96 256.682 694.119 257.59C693.278 258.486 692.758 259.748 692.559 261.375H701.557V261.143C701.468 259.582 701.048 258.376 700.295 257.523C699.542 256.66 698.524 256.229 697.24 256.229ZM727.007 265.193H722.624L721.296 272H718.922L720.25 265.193H716.282V262.919H720.682L721.827 257.042H717.544V254.734H722.275L723.637 247.828H726.011L724.649 254.734H729.032L730.394 247.828H732.784L731.423 254.734H734.81V257.042H730.975L729.829 262.919H733.564V265.193H729.397L728.069 272H725.679L727.007 265.193ZM723.056 262.919H727.438L728.584 257.042H724.201L723.056 262.919ZM745.202 262.853C745.202 261.093 745.545 259.51 746.231 258.104C746.929 256.699 747.892 255.614 749.12 254.851C750.36 254.087 751.771 253.705 753.354 253.705C755.799 253.705 757.775 254.552 759.28 256.245C760.797 257.938 761.555 260.191 761.555 263.002V263.218C761.555 264.966 761.217 266.538 760.542 267.933C759.878 269.316 758.921 270.395 757.67 271.17C756.43 271.945 755.003 272.332 753.387 272.332C750.952 272.332 748.976 271.485 747.46 269.792C745.955 268.099 745.202 265.857 745.202 263.068V262.853ZM748.29 263.218C748.29 265.21 748.749 266.809 749.668 268.016C750.598 269.222 751.837 269.825 753.387 269.825C754.947 269.825 756.187 269.216 757.105 267.999C758.024 266.771 758.483 265.055 758.483 262.853C758.483 260.882 758.013 259.289 757.072 258.071C756.143 256.843 754.903 256.229 753.354 256.229C751.837 256.229 750.614 256.832 749.685 258.038C748.755 259.244 748.29 260.971 748.29 263.218ZM766.917 272V256.411H764.078V254.037H766.917V252.194C766.917 250.269 767.432 248.78 768.461 247.729C769.49 246.677 770.946 246.151 772.827 246.151C773.535 246.151 774.238 246.245 774.936 246.434L774.77 248.924C774.249 248.824 773.696 248.774 773.109 248.774C772.113 248.774 771.344 249.068 770.802 249.654C770.259 250.23 769.988 251.06 769.988 252.145V254.037H773.823V256.411H769.988V272H766.917ZM678.896 303.218C678.896 305.951 678.27 308.154 677.02 309.825C675.769 311.496 674.076 312.332 671.939 312.332C669.759 312.332 668.044 311.64 666.793 310.257V318.906H663.722V294.037H666.527L666.677 296.029C667.927 294.48 669.665 293.705 671.89 293.705C674.048 293.705 675.752 294.519 677.003 296.146C678.265 297.772 678.896 300.036 678.896 302.936V303.218ZM675.824 302.869C675.824 300.844 675.393 299.244 674.529 298.071C673.666 296.898 672.482 296.312 670.977 296.312C669.117 296.312 667.723 297.136 666.793 298.785V307.368C667.712 309.006 669.117 309.825 671.01 309.825C672.482 309.825 673.649 309.244 674.513 308.082C675.387 306.909 675.824 305.171 675.824 302.869ZM682 302.853C682 301.093 682.343 299.51 683.029 298.104C683.727 296.699 684.689 295.614 685.918 294.851C687.158 294.087 688.569 293.705 690.151 293.705C692.597 293.705 694.573 294.552 696.078 296.245C697.594 297.938 698.353 300.191 698.353 303.002V303.218C698.353 304.966 698.015 306.538 697.34 307.933C696.676 309.316 695.718 310.395 694.468 311.17C693.228 311.945 691.8 312.332 690.185 312.332C687.75 312.332 685.774 311.485 684.258 309.792C682.753 308.099 682 305.857 682 303.068V302.853ZM685.088 303.218C685.088 305.21 685.547 306.809 686.466 308.016C687.396 309.222 688.635 309.825 690.185 309.825C691.745 309.825 692.985 309.216 693.903 307.999C694.822 306.771 695.281 305.055 695.281 302.853C695.281 300.882 694.811 299.289 693.87 298.071C692.94 296.843 691.701 296.229 690.151 296.229C688.635 296.229 687.412 296.832 686.482 298.038C685.553 299.244 685.088 300.971 685.088 303.218ZM701.457 302.869C701.457 300.113 702.11 297.9 703.416 296.229C704.722 294.546 706.432 293.705 708.546 293.705C710.649 293.705 712.314 294.424 713.543 295.863V286.5H716.614V312H713.792L713.643 310.074C712.414 311.579 710.704 312.332 708.513 312.332C706.432 312.332 704.733 311.48 703.416 309.775C702.11 308.071 701.457 305.846 701.457 303.102V302.869ZM704.528 303.218C704.528 305.254 704.949 306.848 705.79 307.999C706.631 309.15 707.793 309.726 709.276 309.726C711.224 309.726 712.646 308.851 713.543 307.103V298.852C712.624 297.158 711.213 296.312 709.31 296.312C707.804 296.312 706.631 296.893 705.79 298.055C704.949 299.217 704.528 300.938 704.528 303.218ZM731.854 307.235C731.854 306.405 731.539 305.763 730.908 305.31C730.288 304.845 729.198 304.446 727.638 304.114C726.088 303.782 724.854 303.384 723.936 302.919C723.028 302.454 722.353 301.901 721.91 301.259C721.479 300.617 721.263 299.853 721.263 298.968C721.263 297.496 721.882 296.251 723.122 295.232C724.373 294.214 725.966 293.705 727.903 293.705C729.94 293.705 731.589 294.231 732.851 295.282C734.123 296.334 734.76 297.678 734.76 299.316H731.672C731.672 298.475 731.312 297.75 730.593 297.142C729.884 296.533 728.988 296.229 727.903 296.229C726.785 296.229 725.911 296.472 725.28 296.959C724.649 297.446 724.334 298.082 724.334 298.868C724.334 299.61 724.627 300.169 725.214 300.545C725.8 300.921 726.857 301.281 728.385 301.624C729.923 301.967 731.168 302.377 732.12 302.853C733.072 303.328 733.775 303.904 734.229 304.579C734.693 305.243 734.926 306.057 734.926 307.02C734.926 308.624 734.284 309.914 733 310.888C731.716 311.851 730.05 312.332 728.003 312.332C726.564 312.332 725.291 312.077 724.185 311.568C723.078 311.059 722.209 310.351 721.578 309.443C720.958 308.525 720.648 307.534 720.648 306.472H723.72C723.775 307.501 724.185 308.32 724.948 308.929C725.723 309.526 726.741 309.825 728.003 309.825C729.165 309.825 730.095 309.593 730.792 309.128C731.5 308.652 731.854 308.021 731.854 307.235Z" fill="white"/>
<path d="M40.9814 26H37.7939V1.82812H40.9814V26ZM49.249 8.03711L49.3486 10.2949C50.721 8.56836 52.514 7.70508 54.7275 7.70508C58.5238 7.70508 60.4385 9.84668 60.4717 14.1299V26H57.4004V14.1133C57.3893 12.8184 57.0905 11.861 56.5039 11.2412C55.9284 10.6214 55.0264 10.3115 53.7979 10.3115C52.8018 10.3115 51.9274 10.5771 51.1748 11.1084C50.4222 11.6396 49.8356 12.3369 49.415 13.2002V26H46.3438V8.03711H49.249ZM80.2773 17.2178C80.2773 19.9515 79.652 22.154 78.4014 23.8252C77.1507 25.4964 75.4574 26.332 73.3213 26.332C71.141 26.332 69.4255 25.6403 68.1748 24.2568V32.9062H65.1035V8.03711H67.9092L68.0586 10.0293C69.3092 8.47982 71.0469 7.70508 73.2715 7.70508C75.4297 7.70508 77.1341 8.51855 78.3848 10.1455C79.6465 11.7725 80.2773 14.0358 80.2773 16.9355V17.2178ZM77.2061 16.8691C77.2061 14.8438 76.7744 13.2445 75.9111 12.0713C75.0479 10.8981 73.8636 10.3115 72.3584 10.3115C70.499 10.3115 69.1045 11.1361 68.1748 12.7852V21.3682C69.0934 23.0062 70.499 23.8252 72.3916 23.8252C73.8636 23.8252 75.0312 23.2441 75.8945 22.082C76.7689 20.9089 77.2061 19.1712 77.2061 16.8691ZM95.2852 24.2236C94.0898 25.6292 92.3356 26.332 90.0225 26.332C88.1077 26.332 86.6468 25.7786 85.6396 24.6719C84.6436 23.554 84.14 21.9049 84.1289 19.7246V8.03711H87.2002V19.6416C87.2002 22.3643 88.307 23.7256 90.5205 23.7256C92.8669 23.7256 94.4274 22.8512 95.2021 21.1025V8.03711H98.2734V26H95.3516L95.2852 24.2236ZM107.122 3.6875V8.03711H110.476V10.4111H107.122V21.5508C107.122 22.2702 107.271 22.8125 107.57 23.1777C107.869 23.5319 108.378 23.709 109.098 23.709C109.452 23.709 109.939 23.6426 110.559 23.5098V26C109.751 26.2214 108.965 26.332 108.201 26.332C106.829 26.332 105.794 25.917 105.097 25.0869C104.399 24.2568 104.051 23.0781 104.051 21.5508V10.4111H100.78V8.03711H104.051V3.6875H107.122ZM132.971 21.2354C132.971 20.4053 132.655 19.7633 132.024 19.3096C131.405 18.8447 130.314 18.4463 128.754 18.1143C127.204 17.7822 125.97 17.3838 125.052 16.9189C124.144 16.4541 123.469 15.9007 123.026 15.2588C122.595 14.6169 122.379 13.8532 122.379 12.9678C122.379 11.4958 122.999 10.2507 124.238 9.23242C125.489 8.21419 127.083 7.70508 129.02 7.70508C131.056 7.70508 132.705 8.23079 133.967 9.28223C135.24 10.3337 135.876 11.6784 135.876 13.3164H132.788C132.788 12.4753 132.428 11.7503 131.709 11.1416C131.001 10.5329 130.104 10.2285 129.02 10.2285C127.902 10.2285 127.027 10.472 126.396 10.959C125.766 11.446 125.45 12.0824 125.45 12.8682C125.45 13.6097 125.743 14.1686 126.33 14.5449C126.917 14.9212 127.974 15.2809 129.501 15.624C131.039 15.9671 132.285 16.3766 133.236 16.8525C134.188 17.3285 134.891 17.904 135.345 18.5791C135.81 19.2432 136.042 20.0566 136.042 21.0195C136.042 22.6243 135.4 23.9137 134.116 24.8877C132.832 25.8506 131.167 26.332 129.119 26.332C127.68 26.332 126.408 26.0775 125.301 25.5684C124.194 25.0592 123.325 24.3509 122.694 23.4434C122.075 22.5247 121.765 21.5342 121.765 20.4717H124.836C124.891 21.501 125.301 22.32 126.064 22.9287C126.839 23.5264 127.857 23.8252 129.119 23.8252C130.281 23.8252 131.211 23.5928 131.908 23.1279C132.617 22.652 132.971 22.0212 132.971 21.2354ZM144.21 3.6875V8.03711H147.563V10.4111H144.21V21.5508C144.21 22.2702 144.359 22.8125 144.658 23.1777C144.957 23.5319 145.466 23.709 146.186 23.709C146.54 23.709 147.027 23.6426 147.646 23.5098V26C146.839 26.2214 146.053 26.332 145.289 26.332C143.917 26.332 142.882 25.917 142.185 25.0869C141.487 24.2568 141.139 23.0781 141.139 21.5508V10.4111H137.868V8.03711H141.139V3.6875H144.21ZM154.503 26H151.432V8.03711H154.503V26ZM151.183 3.27246C151.183 2.77441 151.332 2.35384 151.631 2.01074C151.941 1.66764 152.395 1.49609 152.992 1.49609C153.59 1.49609 154.044 1.66764 154.354 2.01074C154.663 2.35384 154.818 2.77441 154.818 3.27246C154.818 3.77051 154.663 4.18555 154.354 4.51758C154.044 4.84961 153.59 5.01562 152.992 5.01562C152.395 5.01562 151.941 4.84961 151.631 4.51758C151.332 4.18555 151.183 3.77051 151.183 3.27246ZM162.322 8.03711L162.405 10.0293C163.722 8.47982 165.499 7.70508 167.734 7.70508C170.247 7.70508 171.957 8.66797 172.864 10.5938C173.462 9.73047 174.237 9.0332 175.188 8.50195C176.151 7.9707 177.286 7.70508 178.592 7.70508C182.532 7.70508 184.535 9.79134 184.602 13.9639V26H181.53V14.1465C181.53 12.8626 181.237 11.9053 180.65 11.2744C180.064 10.6325 179.079 10.3115 177.695 10.3115C176.555 10.3115 175.609 10.6546 174.856 11.3408C174.104 12.016 173.667 12.929 173.545 14.0801V26H170.457V14.2295C170.457 11.6175 169.179 10.3115 166.622 10.3115C164.608 10.3115 163.23 11.1693 162.488 12.8848V26H159.417V8.03711H162.322ZM200.34 24.2236C199.145 25.6292 197.39 26.332 195.077 26.332C193.162 26.332 191.701 25.7786 190.694 24.6719C189.698 23.554 189.195 21.9049 189.184 19.7246V8.03711H192.255V19.6416C192.255 22.3643 193.362 23.7256 195.575 23.7256C197.922 23.7256 199.482 22.8512 200.257 21.1025V8.03711H203.328V26H200.406L200.34 24.2236ZM211.347 26H208.275V0.5H211.347V26ZM227.367 24.2236C226.172 25.6292 224.418 26.332 222.104 26.332C220.19 26.332 218.729 25.7786 217.722 24.6719C216.726 23.554 216.222 21.9049 216.211 19.7246V8.03711H219.282V19.6416C219.282 22.3643 220.389 23.7256 222.603 23.7256C224.949 23.7256 226.509 22.8512 227.284 21.1025V8.03711H230.355V26H227.434L227.367 24.2236ZM245.496 21.2354C245.496 20.4053 245.181 19.7633 244.55 19.3096C243.93 18.8447 242.84 18.4463 241.279 18.1143C239.73 17.7822 238.496 17.3838 237.577 16.9189C236.67 16.4541 235.994 15.9007 235.552 15.2588C235.12 14.6169 234.904 13.8532 234.904 12.9678C234.904 11.4958 235.524 10.2507 236.764 9.23242C238.014 8.21419 239.608 7.70508 241.545 7.70508C243.581 7.70508 245.23 8.23079 246.492 9.28223C247.765 10.3337 248.401 11.6784 248.401 13.3164H245.313C245.313 12.4753 244.954 11.7503 244.234 11.1416C243.526 10.5329 242.63 10.2285 241.545 10.2285C240.427 10.2285 239.553 10.472 238.922 10.959C238.291 11.446 237.976 12.0824 237.976 12.8682C237.976 13.6097 238.269 14.1686 238.855 14.5449C239.442 14.9212 240.499 15.2809 242.026 15.624C243.565 15.9671 244.81 16.3766 245.762 16.8525C246.714 17.3285 247.416 17.904 247.87 18.5791C248.335 19.2432 248.567 20.0566 248.567 21.0195C248.567 22.6243 247.925 23.9137 246.642 24.8877C245.358 25.8506 243.692 26.332 241.645 26.332C240.206 26.332 238.933 26.0775 237.826 25.5684C236.719 25.0592 235.851 24.3509 235.22 23.4434C234.6 22.5247 234.29 21.5342 234.29 20.4717H237.361C237.417 21.501 237.826 22.32 238.59 22.9287C239.365 23.5264 240.383 23.8252 241.645 23.8252C242.807 23.8252 243.736 23.5928 244.434 23.1279C245.142 22.652 245.496 22.0212 245.496 21.2354ZM23.4336 56.1885C23.4336 53.6872 23.7656 51.2855 24.4297 48.9834C25.1048 46.6813 26.1064 44.5895 27.4346 42.708C28.7627 40.8265 30.1406 39.4984 31.5684 38.7236L32.1992 40.749C30.5833 41.9886 29.2552 43.8812 28.2148 46.4268C27.1855 48.9723 26.6211 51.8223 26.5215 54.9766L26.5049 56.3877C26.5049 60.6598 27.2852 64.3675 28.8457 67.5107C29.7865 69.3923 30.9043 70.8643 32.1992 71.9268L31.5684 73.8027C30.0964 72.9837 28.6908 71.6113 27.3516 69.6855C24.7396 65.9225 23.4336 61.4235 23.4336 56.1885ZM42.625 66.332C40.1901 66.332 38.209 65.5352 36.6816 63.9414C35.1543 62.3366 34.3906 60.195 34.3906 57.5166V56.9521C34.3906 55.1702 34.7282 53.582 35.4033 52.1875C36.0895 50.7819 37.0413 49.6862 38.2588 48.9004C39.4873 48.1035 40.8154 47.7051 42.2432 47.7051C44.5785 47.7051 46.3936 48.4743 47.6885 50.0127C48.9834 51.5511 49.6309 53.7536 49.6309 56.6201V57.8984H37.4619C37.5062 59.6693 38.0208 61.1025 39.0059 62.1982C40.002 63.2829 41.2637 63.8252 42.791 63.8252C43.8757 63.8252 44.7943 63.6038 45.5469 63.1611C46.2995 62.7184 46.958 62.1318 47.5225 61.4014L49.3984 62.8623C47.8932 65.1755 45.6354 66.332 42.625 66.332ZM42.2432 50.2285C41.0036 50.2285 39.9632 50.6823 39.1221 51.5898C38.2809 52.4863 37.7607 53.748 37.5615 55.375H46.5596V55.1426C46.471 53.582 46.0505 52.3757 45.2979 51.5234C44.5452 50.6602 43.527 50.2285 42.2432 50.2285ZM53.2666 64.3896C53.2666 63.8584 53.4215 63.4157 53.7314 63.0615C54.0524 62.7074 54.5283 62.5303 55.1592 62.5303C55.79 62.5303 56.266 62.7074 56.5869 63.0615C56.9189 63.4157 57.085 63.8584 57.085 64.3896C57.085 64.8988 56.9189 65.3249 56.5869 65.668C56.266 66.0111 55.79 66.1826 55.1592 66.1826C54.5283 66.1826 54.0524 66.0111 53.7314 65.668C53.4215 65.3249 53.2666 64.8988 53.2666 64.3896ZM61.4346 56.8691C61.4346 54.069 62.082 51.8444 63.377 50.1953C64.6719 48.5352 66.3874 47.7051 68.5234 47.7051C70.7148 47.7051 72.4248 48.4798 73.6533 50.0293L73.8027 48.0371H76.6084V65.5684C76.6084 67.8926 75.9167 69.7243 74.5332 71.0635C73.1608 72.4027 71.3125 73.0723 68.9883 73.0723C67.6934 73.0723 66.4261 72.7956 65.1865 72.2422C63.9469 71.6888 63.0007 70.9307 62.3477 69.9678L63.9414 68.125C65.2585 69.752 66.8688 70.5654 68.7725 70.5654C70.2666 70.5654 71.4287 70.1449 72.2588 69.3037C73.0999 68.4626 73.5205 67.2783 73.5205 65.751V64.207C72.292 65.6237 70.6152 66.332 68.4902 66.332C66.3874 66.332 64.6829 65.4854 63.377 63.792C62.082 62.0986 61.4346 59.791 61.4346 56.8691ZM64.5225 57.2178C64.5225 59.2432 64.9375 60.8369 65.7676 61.999C66.5977 63.1501 67.7598 63.7256 69.2539 63.7256C71.1908 63.7256 72.613 62.8457 73.5205 61.0859V52.8848C72.5798 51.1693 71.1686 50.3115 69.2871 50.3115C67.793 50.3115 66.6253 50.8926 65.7842 52.0547C64.943 53.2168 64.5225 54.9378 64.5225 57.2178ZM81.3232 64.3896C81.3232 63.8584 81.4782 63.4157 81.7881 63.0615C82.109 62.7074 82.585 62.5303 83.2158 62.5303C83.8467 62.5303 84.3226 62.7074 84.6436 63.0615C84.9756 63.4157 85.1416 63.8584 85.1416 64.3896C85.1416 64.8988 84.9756 65.3249 84.6436 65.668C84.3226 66.0111 83.8467 66.1826 83.2158 66.1826C82.585 66.1826 82.109 66.0111 81.7881 65.668C81.4782 65.3249 81.3232 64.8988 81.3232 64.3896ZM101.992 66H98.9209V48.0371H101.992V66ZM98.6719 43.2725C98.6719 42.7744 98.8213 42.3538 99.1201 42.0107C99.43 41.6676 99.8838 41.4961 100.481 41.4961C101.079 41.4961 101.533 41.6676 101.843 42.0107C102.153 42.3538 102.308 42.7744 102.308 43.2725C102.308 43.7705 102.153 44.1855 101.843 44.5176C101.533 44.8496 101.079 45.0156 100.481 45.0156C99.8838 45.0156 99.43 44.8496 99.1201 44.5176C98.8213 44.1855 98.6719 43.7705 98.6719 43.2725ZM109.828 48.0371L109.928 50.2949C111.3 48.5684 113.093 47.7051 115.307 47.7051C119.103 47.7051 121.018 49.8467 121.051 54.1299V66H117.979V54.1133C117.968 52.8184 117.67 51.861 117.083 51.2412C116.507 50.6214 115.605 50.3115 114.377 50.3115C113.381 50.3115 112.507 50.5771 111.754 51.1084C111.001 51.6396 110.415 52.3369 109.994 53.2002V66H106.923V48.0371H109.828ZM132.888 63.8252C133.983 63.8252 134.941 63.4932 135.76 62.8291C136.579 62.165 137.033 61.335 137.121 60.3389H140.026C139.971 61.3682 139.617 62.3477 138.964 63.2773C138.311 64.207 137.437 64.9486 136.341 65.502C135.256 66.0553 134.105 66.332 132.888 66.332C130.442 66.332 128.494 65.5186 127.044 63.8916C125.605 62.2536 124.886 60.0179 124.886 57.1846V56.6699C124.886 54.9212 125.207 53.3662 125.849 52.0049C126.491 50.6436 127.409 49.5866 128.604 48.834C129.811 48.0814 131.233 47.7051 132.871 47.7051C134.885 47.7051 136.557 48.3083 137.885 49.5146C139.224 50.721 139.938 52.2871 140.026 54.2129H137.121C137.033 53.0508 136.59 52.099 135.793 51.3574C135.007 50.6048 134.033 50.2285 132.871 50.2285C131.311 50.2285 130.099 50.793 129.235 51.9219C128.383 53.0397 127.957 54.6611 127.957 56.7861V57.3672C127.957 59.4368 128.383 61.0306 129.235 62.1484C130.088 63.2663 131.305 63.8252 132.888 63.8252ZM152.162 50.793C151.697 50.7155 151.194 50.6768 150.651 50.6768C148.637 50.6768 147.27 51.5345 146.551 53.25V66H143.479V48.0371H146.468L146.518 50.1123C147.525 48.5075 148.952 47.7051 150.801 47.7051C151.398 47.7051 151.852 47.7826 152.162 47.9375V50.793ZM162.123 66.332C159.688 66.332 157.707 65.5352 156.18 63.9414C154.652 62.3366 153.889 60.195 153.889 57.5166V56.9521C153.889 55.1702 154.226 53.582 154.901 52.1875C155.588 50.7819 156.539 49.6862 157.757 48.9004C158.985 48.1035 160.313 47.7051 161.741 47.7051C164.076 47.7051 165.892 48.4743 167.187 50.0127C168.481 51.5511 169.129 53.7536 169.129 56.6201V57.8984H156.96C157.004 59.6693 157.519 61.1025 158.504 62.1982C159.5 63.2829 160.762 63.8252 162.289 63.8252C163.374 63.8252 164.292 63.6038 165.045 63.1611C165.798 62.7184 166.456 62.1318 167.021 61.4014L168.896 62.8623C167.391 65.1755 165.133 66.332 162.123 66.332ZM161.741 50.2285C160.502 50.2285 159.461 50.6823 158.62 51.5898C157.779 52.4863 157.259 53.748 157.06 55.375H166.058V55.1426C165.969 53.582 165.549 52.3757 164.796 51.5234C164.043 50.6602 163.025 50.2285 161.741 50.2285ZM183.788 66C183.611 65.6458 183.467 65.015 183.356 64.1074C181.929 65.5905 180.224 66.332 178.243 66.332C176.472 66.332 175.017 65.834 173.877 64.8379C172.748 63.8307 172.184 62.5579 172.184 61.0195C172.184 59.1491 172.892 57.6992 174.309 56.6699C175.736 55.6296 177.74 55.1094 180.318 55.1094H183.307V53.6982C183.307 52.6247 182.986 51.7725 182.344 51.1416C181.702 50.4997 180.756 50.1787 179.505 50.1787C178.409 50.1787 177.491 50.4554 176.749 51.0088C176.007 51.5622 175.637 52.2318 175.637 53.0176H172.549C172.549 52.1211 172.864 51.2578 173.495 50.4277C174.137 49.5866 175 48.9225 176.085 48.4355C177.181 47.9486 178.382 47.7051 179.688 47.7051C181.757 47.7051 183.379 48.2253 184.552 49.2656C185.725 50.2949 186.334 51.7171 186.378 53.5322V61.7998C186.378 63.4489 186.588 64.7604 187.009 65.7344V66H183.788ZM178.691 63.6592C179.654 63.6592 180.567 63.4102 181.431 62.9121C182.294 62.4141 182.919 61.7666 183.307 60.9697V57.2842H180.899C177.136 57.2842 175.255 58.3854 175.255 60.5879C175.255 61.5508 175.576 62.3034 176.218 62.8457C176.86 63.388 177.684 63.6592 178.691 63.6592ZM201.651 61.2354C201.651 60.4053 201.336 59.7633 200.705 59.3096C200.085 58.8447 198.995 58.4463 197.435 58.1143C195.885 57.7822 194.651 57.3838 193.732 56.9189C192.825 56.4541 192.15 55.9007 191.707 55.2588C191.275 54.6169 191.06 53.8532 191.06 52.9678C191.06 51.4958 191.679 50.2507 192.919 49.2324C194.17 48.2142 195.763 47.7051 197.7 47.7051C199.737 47.7051 201.386 48.2308 202.647 49.2822C203.92 50.3337 204.557 51.6784 204.557 53.3164H201.469C201.469 52.4753 201.109 51.7503 200.39 51.1416C199.681 50.5329 198.785 50.2285 197.7 50.2285C196.582 50.2285 195.708 50.472 195.077 50.959C194.446 51.446 194.131 52.0824 194.131 52.8682C194.131 53.6097 194.424 54.1686 195.011 54.5449C195.597 54.9212 196.654 55.2809 198.182 55.624C199.72 55.9671 200.965 56.3766 201.917 56.8525C202.869 57.3285 203.572 57.904 204.025 58.5791C204.49 59.2432 204.723 60.0566 204.723 61.0195C204.723 62.6243 204.081 63.9137 202.797 64.8877C201.513 65.8506 199.847 66.332 197.8 66.332C196.361 66.332 195.088 66.0775 193.981 65.5684C192.875 65.0592 192.006 64.3509 191.375 63.4434C190.755 62.5247 190.445 61.5342 190.445 60.4717H193.517C193.572 61.501 193.981 62.32 194.745 62.9287C195.52 63.5264 196.538 63.8252 197.8 63.8252C198.962 63.8252 199.892 63.5928 200.589 63.1279C201.297 62.652 201.651 62.0212 201.651 61.2354ZM216.178 66.332C213.743 66.332 211.762 65.5352 210.234 63.9414C208.707 62.3366 207.943 60.195 207.943 57.5166V56.9521C207.943 55.1702 208.281 53.582 208.956 52.1875C209.642 50.7819 210.594 49.6862 211.812 48.9004C213.04 48.1035 214.368 47.7051 215.796 47.7051C218.131 47.7051 219.946 48.4743 221.241 50.0127C222.536 51.5511 223.184 53.7536 223.184 56.6201V57.8984H211.015C211.059 59.6693 211.574 61.1025 212.559 62.1982C213.555 63.2829 214.816 63.8252 216.344 63.8252C217.428 63.8252 218.347 63.6038 219.1 63.1611C219.852 62.7184 220.511 62.1318 221.075 61.4014L222.951 62.8623C221.446 65.1755 219.188 66.332 216.178 66.332ZM215.796 50.2285C214.556 50.2285 213.516 50.6823 212.675 51.5898C211.834 52.4863 211.313 53.748 211.114 55.375H220.112V55.1426C220.024 53.582 219.603 52.3757 218.851 51.5234C218.098 50.6602 217.08 50.2285 215.796 50.2285ZM234.373 56.8525C234.373 55.0928 234.716 53.5101 235.402 52.1045C236.1 50.6989 237.062 49.6143 238.291 48.8506C239.531 48.0869 240.942 47.7051 242.524 47.7051C244.97 47.7051 246.946 48.5518 248.451 50.2451C249.967 51.9385 250.726 54.1908 250.726 57.002V57.2178C250.726 58.9665 250.388 60.5381 249.713 61.9326C249.049 63.3161 248.091 64.3952 246.841 65.1699C245.601 65.9447 244.174 66.332 242.558 66.332C240.123 66.332 238.147 65.4854 236.631 63.792C235.126 62.0986 234.373 59.8574 234.373 57.0684V56.8525ZM237.461 57.2178C237.461 59.21 237.92 60.8092 238.839 62.0156C239.769 63.222 241.008 63.8252 242.558 63.8252C244.118 63.8252 245.358 63.2165 246.276 61.999C247.195 60.7705 247.654 59.055 247.654 56.8525C247.654 54.8825 247.184 53.2887 246.243 52.0713C245.313 50.8428 244.074 50.2285 242.524 50.2285C241.008 50.2285 239.785 50.8317 238.855 52.0381C237.926 53.2445 237.461 54.971 237.461 57.2178ZM263.26 50.793C262.795 50.7155 262.291 50.6768 261.749 50.6768C259.735 50.6768 258.368 51.5345 257.648 53.25V66H254.577V48.0371H257.565L257.615 50.1123C258.622 48.5075 260.05 47.7051 261.898 47.7051C262.496 47.7051 262.95 47.7826 263.26 47.9375V50.793ZM3.42871 96.8691C3.42871 94.1133 4.08171 91.8997 5.3877 90.2285C6.69368 88.5462 8.40365 87.7051 10.5176 87.7051C12.6204 87.7051 14.2861 88.4245 15.5146 89.8633V80.5H18.5859V106H15.7637L15.6143 104.074C14.3857 105.579 12.6758 106.332 10.4844 106.332C8.40365 106.332 6.70475 105.48 5.3877 103.775C4.08171 102.071 3.42871 99.8464 3.42871 97.1016V96.8691ZM6.5 97.2178C6.5 99.2542 6.92057 100.848 7.76172 101.999C8.60286 103.15 9.76497 103.726 11.248 103.726C13.196 103.726 14.6182 102.851 15.5146 101.103V92.8516C14.596 91.1582 13.1849 90.3115 11.2812 90.3115C9.77604 90.3115 8.60286 90.8926 7.76172 92.0547C6.92057 93.2168 6.5 94.9378 6.5 97.2178ZM30.8213 106.332C28.3864 106.332 26.4053 105.535 24.8779 103.941C23.3506 102.337 22.5869 100.195 22.5869 97.5166V96.9521C22.5869 95.1702 22.9245 93.582 23.5996 92.1875C24.2858 90.7819 25.2376 89.6862 26.4551 88.9004C27.6836 88.1035 29.0117 87.7051 30.4395 87.7051C32.7747 87.7051 34.5898 88.4743 35.8848 90.0127C37.1797 91.5511 37.8271 93.7536 37.8271 96.6201V97.8984H25.6582C25.7025 99.6693 26.2171 101.103 27.2021 102.198C28.1982 103.283 29.46 103.825 30.9873 103.825C32.0719 103.825 32.9906 103.604 33.7432 103.161C34.4958 102.718 35.1543 102.132 35.7188 101.401L37.5947 102.862C36.0895 105.175 33.8317 106.332 30.8213 106.332ZM30.4395 90.2285C29.1999 90.2285 28.1595 90.6823 27.3184 91.5898C26.4772 92.4863 25.957 93.748 25.7578 95.375H34.7559V95.1426C34.6673 93.582 34.2467 92.3757 33.4941 91.5234C32.7415 90.6602 31.7233 90.2285 30.4395 90.2285ZM48.6016 103.825C49.6973 103.825 50.6546 103.493 51.4736 102.829C52.2926 102.165 52.7464 101.335 52.835 100.339H55.7402C55.6849 101.368 55.3307 102.348 54.6777 103.277C54.0247 104.207 53.1504 104.949 52.0547 105.502C50.9701 106.055 49.819 106.332 48.6016 106.332C46.1556 106.332 44.2077 105.519 42.7578 103.892C41.319 102.254 40.5996 100.018 40.5996 97.1846V96.6699C40.5996 94.9212 40.9206 93.3662 41.5625 92.0049C42.2044 90.6436 43.123 89.5866 44.3184 88.834C45.5247 88.0814 46.9469 87.7051 48.585 87.7051C50.5993 87.7051 52.2705 88.3083 53.5986 89.5146C54.9378 90.721 55.6517 92.2871 55.7402 94.2129H52.835C52.7464 93.0508 52.3037 92.099 51.5068 91.3574C50.721 90.6048 49.7471 90.2285 48.585 90.2285C47.0244 90.2285 45.8125 90.793 44.9492 91.9219C44.097 93.0397 43.6709 94.6611 43.6709 96.7861V97.3672C43.6709 99.4368 44.097 101.031 44.9492 102.148C45.8014 103.266 47.0189 103.825 48.6016 103.825ZM67.876 90.793C67.4111 90.7155 66.9076 90.6768 66.3652 90.6768C64.3509 90.6768 62.984 91.5345 62.2646 93.25V106H59.1934V88.0371H62.1816L62.2314 90.1123C63.2386 88.5075 64.6663 87.7051 66.5146 87.7051C67.1123 87.7051 67.5661 87.7826 67.876 87.9375V90.793ZM77.8369 106.332C75.402 106.332 73.4209 105.535 71.8936 103.941C70.3662 102.337 69.6025 100.195 69.6025 97.5166V96.9521C69.6025 95.1702 69.9401 93.582 70.6152 92.1875C71.3014 90.7819 72.2533 89.6862 73.4707 88.9004C74.6992 88.1035 76.0273 87.7051 77.4551 87.7051C79.7904 87.7051 81.6055 88.4743 82.9004 90.0127C84.1953 91.5511 84.8428 93.7536 84.8428 96.6201V97.8984H72.6738C72.7181 99.6693 73.2327 101.103 74.2178 102.198C75.2139 103.283 76.4756 103.825 78.0029 103.825C79.0876 103.825 80.0062 103.604 80.7588 103.161C81.5114 102.718 82.1699 102.132 82.7344 101.401L84.6104 102.862C83.1051 105.175 80.8473 106.332 77.8369 106.332ZM77.4551 90.2285C76.2155 90.2285 75.1751 90.6823 74.334 91.5898C73.4928 92.4863 72.9727 93.748 72.7734 95.375H81.7715V95.1426C81.6829 93.582 81.2624 92.3757 80.5098 91.5234C79.7572 90.6602 78.7389 90.2285 77.4551 90.2285ZM99.502 106C99.3249 105.646 99.181 105.015 99.0703 104.107C97.6426 105.59 95.9382 106.332 93.957 106.332C92.1862 106.332 90.7308 105.834 89.5908 104.838C88.4619 103.831 87.8975 102.558 87.8975 101.02C87.8975 99.1491 88.6058 97.6992 90.0225 96.6699C91.4502 95.6296 93.4535 95.1094 96.0322 95.1094H99.0205V93.6982C99.0205 92.6247 98.6995 91.7725 98.0576 91.1416C97.4157 90.4997 96.4694 90.1787 95.2188 90.1787C94.123 90.1787 93.2044 90.4554 92.4629 91.0088C91.7214 91.5622 91.3506 92.2318 91.3506 93.0176H88.2627C88.2627 92.1211 88.5781 91.2578 89.209 90.4277C89.8509 89.5866 90.7142 88.9225 91.7988 88.4355C92.8945 87.9486 94.0954 87.7051 95.4014 87.7051C97.471 87.7051 99.0924 88.2253 100.266 89.2656C101.439 90.2949 102.048 91.7171 102.092 93.5322V101.8C102.092 103.449 102.302 104.76 102.723 105.734V106H99.502ZM94.4053 103.659C95.3682 103.659 96.2812 103.41 97.1445 102.912C98.0078 102.414 98.6331 101.767 99.0205 100.97V97.2842H96.6133C92.8503 97.2842 90.9688 98.3854 90.9688 100.588C90.9688 101.551 91.2897 102.303 91.9316 102.846C92.5736 103.388 93.3981 103.659 94.4053 103.659ZM117.365 101.235C117.365 100.405 117.05 99.7633 116.419 99.3096C115.799 98.8447 114.709 98.4463 113.148 98.1143C111.599 97.7822 110.365 97.3838 109.446 96.9189C108.539 96.4541 107.864 95.9007 107.421 95.2588C106.989 94.6169 106.773 93.8532 106.773 92.9678C106.773 91.4958 107.393 90.2507 108.633 89.2324C109.883 88.2142 111.477 87.7051 113.414 87.7051C115.451 87.7051 117.1 88.2308 118.361 89.2822C119.634 90.3337 120.271 91.6784 120.271 93.3164H117.183C117.183 92.4753 116.823 91.7503 116.104 91.1416C115.395 90.5329 114.499 90.2285 113.414 90.2285C112.296 90.2285 111.422 90.472 110.791 90.959C110.16 91.446 109.845 92.0824 109.845 92.8682C109.845 93.6097 110.138 94.1686 110.725 94.5449C111.311 94.9212 112.368 95.2809 113.896 95.624C115.434 95.9671 116.679 96.3766 117.631 96.8525C118.583 97.3285 119.285 97.904 119.739 98.5791C120.204 99.2432 120.437 100.057 120.437 101.02C120.437 102.624 119.795 103.914 118.511 104.888C117.227 105.851 115.561 106.332 113.514 106.332C112.075 106.332 110.802 106.077 109.695 105.568C108.589 105.059 107.72 104.351 107.089 103.443C106.469 102.525 106.159 101.534 106.159 100.472H109.23C109.286 101.501 109.695 102.32 110.459 102.929C111.234 103.526 112.252 103.825 113.514 103.825C114.676 103.825 115.605 103.593 116.303 103.128C117.011 102.652 117.365 102.021 117.365 101.235ZM131.892 106.332C129.457 106.332 127.476 105.535 125.948 103.941C124.421 102.337 123.657 100.195 123.657 97.5166V96.9521C123.657 95.1702 123.995 93.582 124.67 92.1875C125.356 90.7819 126.308 89.6862 127.525 88.9004C128.754 88.1035 130.082 87.7051 131.51 87.7051C133.845 87.7051 135.66 88.4743 136.955 90.0127C138.25 91.5511 138.897 93.7536 138.897 96.6201V97.8984H126.729C126.773 99.6693 127.287 101.103 128.272 102.198C129.269 103.283 130.53 103.825 132.058 103.825C133.142 103.825 134.061 103.604 134.813 103.161C135.566 102.718 136.225 102.132 136.789 101.401L138.665 102.862C137.16 105.175 134.902 106.332 131.892 106.332ZM131.51 90.2285C130.27 90.2285 129.23 90.6823 128.389 91.5898C127.548 92.4863 127.027 93.748 126.828 95.375H135.826V95.1426C135.738 93.582 135.317 92.3757 134.564 91.5234C133.812 90.6602 132.794 90.2285 131.51 90.2285ZM154.237 106H151.166V88.0371H154.237V106ZM150.917 83.2725C150.917 82.7744 151.066 82.3538 151.365 82.0107C151.675 81.6676 152.129 81.4961 152.727 81.4961C153.324 81.4961 153.778 81.6676 154.088 82.0107C154.398 82.3538 154.553 82.7744 154.553 83.2725C154.553 83.7705 154.398 84.1855 154.088 84.5176C153.778 84.8496 153.324 85.0156 152.727 85.0156C152.129 85.0156 151.675 84.8496 151.365 84.5176C151.066 84.1855 150.917 83.7705 150.917 83.2725ZM162.073 88.0371L162.173 90.2949C163.545 88.5684 165.338 87.7051 167.552 87.7051C171.348 87.7051 173.263 89.8467 173.296 94.1299V106H170.225V94.1133C170.214 92.8184 169.915 91.861 169.328 91.2412C168.753 90.6214 167.851 90.3115 166.622 90.3115C165.626 90.3115 164.752 90.5771 163.999 91.1084C163.246 91.6396 162.66 92.3369 162.239 93.2002V106H159.168V88.0371H162.073ZM190.528 83.6875V88.0371H193.882V90.4111H190.528V101.551C190.528 102.27 190.678 102.812 190.977 103.178C191.275 103.532 191.785 103.709 192.504 103.709C192.858 103.709 193.345 103.643 193.965 103.51V106C193.157 106.221 192.371 106.332 191.607 106.332C190.235 106.332 189.2 105.917 188.503 105.087C187.806 104.257 187.457 103.078 187.457 101.551V90.4111H184.187V88.0371H187.457V83.6875H190.528ZM206.167 90.793C205.702 90.7155 205.199 90.6768 204.656 90.6768C202.642 90.6768 201.275 91.5345 200.556 93.25V106H197.484V88.0371H200.473L200.522 90.1123C201.53 88.5075 202.957 87.7051 204.806 87.7051C205.403 87.7051 205.857 87.7826 206.167 87.9375V90.793ZM219.432 106C219.255 105.646 219.111 105.015 219 104.107C217.572 105.59 215.868 106.332 213.887 106.332C212.116 106.332 210.66 105.834 209.521 104.838C208.392 103.831 207.827 102.558 207.827 101.02C207.827 99.1491 208.535 97.6992 209.952 96.6699C211.38 95.6296 213.383 95.1094 215.962 95.1094H218.95V93.6982C218.95 92.6247 218.629 91.7725 217.987 91.1416C217.345 90.4997 216.399 90.1787 215.148 90.1787C214.053 90.1787 213.134 90.4554 212.393 91.0088C211.651 91.5622 211.28 92.2318 211.28 93.0176H208.192C208.192 92.1211 208.508 91.2578 209.139 90.4277C209.781 89.5866 210.644 88.9225 211.729 88.4355C212.824 87.9486 214.025 87.7051 215.331 87.7051C217.401 87.7051 219.022 88.2253 220.195 89.2656C221.368 90.2949 221.977 91.7171 222.021 93.5322V101.8C222.021 103.449 222.232 104.76 222.652 105.734V106H219.432ZM214.335 103.659C215.298 103.659 216.211 103.41 217.074 102.912C217.938 102.414 218.563 101.767 218.95 100.97V97.2842H216.543C212.78 97.2842 210.898 98.3854 210.898 100.588C210.898 101.551 211.219 102.303 211.861 102.846C212.503 103.388 213.328 103.659 214.335 103.659ZM228.347 106V90.4111H225.508V88.0371H228.347V86.1943C228.347 84.2686 228.861 82.7799 229.891 81.7285C230.92 80.6771 232.375 80.1514 234.257 80.1514C234.965 80.1514 235.668 80.2454 236.365 80.4336L236.199 82.9238C235.679 82.8242 235.126 82.7744 234.539 82.7744C233.543 82.7744 232.774 83.0677 232.231 83.6543C231.689 84.2298 231.418 85.0599 231.418 86.1445V88.0371H238.059V86.5098C238.059 84.5065 238.629 82.946 239.769 81.8281C240.92 80.7103 242.541 80.1514 244.633 80.1514C245.872 80.1514 247.438 80.4889 249.331 81.1641L248.816 83.7539C247.433 83.2005 246.11 82.9238 244.849 82.9238C243.532 82.9238 242.58 83.2171 241.993 83.8037C241.418 84.3903 241.13 85.2812 241.13 86.4766V88.0371H244.815V90.4111H241.13V106H238.059V90.4111H231.418V106H228.347ZM250.842 106H247.771V88.0371H250.842V106ZM263.061 103.825C264.156 103.825 265.114 103.493 265.933 102.829C266.752 102.165 267.205 101.335 267.294 100.339H270.199C270.144 101.368 269.79 102.348 269.137 103.277C268.484 104.207 267.609 104.949 266.514 105.502C265.429 106.055 264.278 106.332 263.061 106.332C260.615 106.332 258.667 105.519 257.217 103.892C255.778 102.254 255.059 100.018 255.059 97.1846V96.6699C255.059 94.9212 255.38 93.3662 256.021 92.0049C256.663 90.6436 257.582 89.5866 258.777 88.834C259.984 88.0814 261.406 87.7051 263.044 87.7051C265.058 87.7051 266.729 88.3083 268.058 89.5146C269.397 90.721 270.111 92.2871 270.199 94.2129H267.294C267.205 93.0508 266.763 92.099 265.966 91.3574C265.18 90.6048 264.206 90.2285 263.044 90.2285C261.483 90.2285 260.271 90.793 259.408 91.9219C258.556 93.0397 258.13 94.6611 258.13 96.7861V97.3672C258.13 99.4368 258.556 101.031 259.408 102.148C260.26 103.266 261.478 103.825 263.061 103.825ZM280.741 96.3545C280.741 98.8226 280.415 101.191 279.762 103.46C279.12 105.718 278.129 107.804 276.79 109.719C275.462 111.633 274.067 112.995 272.606 113.803L271.959 111.927C273.663 110.621 275.03 108.595 276.06 105.851C277.1 103.095 277.631 100.04 277.653 96.6865V96.1553C277.653 93.8311 277.41 91.6729 276.923 89.6807C276.436 87.6774 275.755 85.8844 274.881 84.3018C274.018 82.7191 273.044 81.485 271.959 80.5996L272.606 78.7236C274.067 79.5316 275.456 80.8818 276.773 82.7744C278.102 84.667 279.092 86.7533 279.745 89.0332C280.409 91.3132 280.741 93.7536 280.741 96.3545Z" fill="white"/>
<path d="M610.977 26V1.82812H617.8C619.903 1.82812 621.762 2.29297 623.378 3.22266C624.994 4.15234 626.239 5.47493 627.113 7.19043C627.999 8.90592 628.447 10.876 628.458 13.1006V14.6445C628.458 16.9245 628.015 18.9222 627.13 20.6377C626.256 22.3532 624.999 23.6702 623.361 24.5889C621.734 25.5075 619.836 25.9779 617.667 26H610.977ZM614.164 4.45117V23.3936H617.518C619.975 23.3936 621.884 22.6299 623.245 21.1025C624.618 19.5752 625.304 17.4004 625.304 14.5781V13.167C625.304 10.4222 624.656 8.29167 623.361 6.77539C622.077 5.24805 620.251 4.47331 617.883 4.45117H614.164ZM640.262 26.332C637.827 26.332 635.846 25.5352 634.318 23.9414C632.791 22.3366 632.027 20.195 632.027 17.5166V16.9521C632.027 15.1702 632.365 13.582 633.04 12.1875C633.726 10.7819 634.678 9.6862 635.896 8.90039C637.124 8.10352 638.452 7.70508 639.88 7.70508C642.215 7.70508 644.03 8.47428 645.325 10.0127C646.62 11.5511 647.268 13.7536 647.268 16.6201V17.8984H635.099C635.143 19.6693 635.658 21.1025 636.643 22.1982C637.639 23.2829 638.9 23.8252 640.428 23.8252C641.512 23.8252 642.431 23.6038 643.184 23.1611C643.936 22.7184 644.595 22.1318 645.159 21.4014L647.035 22.8623C645.53 25.1755 643.272 26.332 640.262 26.332ZM639.88 10.2285C638.64 10.2285 637.6 10.6823 636.759 11.5898C635.918 12.4863 635.397 13.748 635.198 15.375H644.196V15.1426C644.108 13.582 643.687 12.3757 642.935 11.5234C642.182 10.6602 641.164 10.2285 639.88 10.2285ZM666.011 17.2178C666.011 19.9515 665.385 22.154 664.135 23.8252C662.884 25.4964 661.191 26.332 659.055 26.332C656.874 26.332 655.159 25.6403 653.908 24.2568V32.9062H650.837V8.03711H653.643L653.792 10.0293C655.043 8.47982 656.78 7.70508 659.005 7.70508C661.163 7.70508 662.868 8.51855 664.118 10.1455C665.38 11.7725 666.011 14.0358 666.011 16.9355V17.2178ZM662.939 16.8691C662.939 14.8438 662.508 13.2445 661.645 12.0713C660.781 10.8981 659.597 10.3115 658.092 10.3115C656.232 10.3115 654.838 11.1361 653.908 12.7852V21.3682C654.827 23.0062 656.232 23.8252 658.125 23.8252C659.597 23.8252 660.765 23.2441 661.628 22.082C662.502 20.9089 662.939 19.1712 662.939 16.8691ZM673.266 26H670.194V0.5H673.266V26ZM677.383 16.8525C677.383 15.0928 677.726 13.5101 678.412 12.1045C679.109 10.6989 680.072 9.61426 681.301 8.85059C682.54 8.08691 683.951 7.70508 685.534 7.70508C687.98 7.70508 689.956 8.55176 691.461 10.2451C692.977 11.9385 693.735 14.1908 693.735 17.002V17.2178C693.735 18.9665 693.398 20.5381 692.723 21.9326C692.059 23.3161 691.101 24.3952 689.851 25.1699C688.611 25.9447 687.183 26.332 685.567 26.332C683.132 26.332 681.157 25.4854 679.641 23.792C678.135 22.0986 677.383 19.8574 677.383 17.0684V16.8525ZM680.471 17.2178C680.471 19.21 680.93 20.8092 681.849 22.0156C682.778 23.222 684.018 23.8252 685.567 23.8252C687.128 23.8252 688.368 23.2165 689.286 21.999C690.205 20.7705 690.664 19.055 690.664 16.8525C690.664 14.8825 690.194 13.2887 689.253 12.0713C688.323 10.8428 687.084 10.2285 685.534 10.2285C684.018 10.2285 682.795 10.8317 681.865 12.0381C680.936 13.2445 680.471 14.971 680.471 17.2178ZM703.198 21.501L707.382 8.03711H710.669L703.447 28.7725C702.329 31.7607 700.553 33.2549 698.118 33.2549L697.537 33.2051L696.392 32.9893V30.499L697.222 30.5654C698.262 30.5654 699.07 30.3551 699.646 29.9346C700.232 29.514 700.714 28.7448 701.09 27.627L701.771 25.8008L695.362 8.03711H698.716L703.198 21.501ZM716.313 8.03711L716.396 10.0293C717.714 8.47982 719.49 7.70508 721.726 7.70508C724.238 7.70508 725.948 8.66797 726.855 10.5938C727.453 9.73047 728.228 9.0332 729.18 8.50195C730.143 7.9707 731.277 7.70508 732.583 7.70508C736.523 7.70508 738.526 9.79134 738.593 13.9639V26H735.521V14.1465C735.521 12.8626 735.228 11.9053 734.642 11.2744C734.055 10.6325 733.07 10.3115 731.687 10.3115C730.547 10.3115 729.6 10.6546 728.848 11.3408C728.095 12.016 727.658 12.929 727.536 14.0801V26H724.448V14.2295C724.448 11.6175 723.17 10.3115 720.613 10.3115C718.599 10.3115 717.221 11.1693 716.479 12.8848V26H713.408V8.03711H716.313ZM750.695 26.332C748.26 26.332 746.279 25.5352 744.752 23.9414C743.225 22.3366 742.461 20.195 742.461 17.5166V16.9521C742.461 15.1702 742.799 13.582 743.474 12.1875C744.16 10.7819 745.112 9.6862 746.329 8.90039C747.558 8.10352 748.886 7.70508 750.313 7.70508C752.649 7.70508 754.464 8.47428 755.759 10.0127C757.054 11.5511 757.701 13.7536 757.701 16.6201V17.8984H745.532C745.576 19.6693 746.091 21.1025 747.076 22.1982C748.072 23.2829 749.334 23.8252 750.861 23.8252C751.946 23.8252 752.865 23.6038 753.617 23.1611C754.37 22.7184 755.028 22.1318 755.593 21.4014L757.469 22.8623C755.964 25.1755 753.706 26.332 750.695 26.332ZM750.313 10.2285C749.074 10.2285 748.034 10.6823 747.192 11.5898C746.351 12.4863 745.831 13.748 745.632 15.375H754.63V15.1426C754.541 13.582 754.121 12.3757 753.368 11.5234C752.616 10.6602 751.597 10.2285 750.313 10.2285ZM764.176 8.03711L764.275 10.2949C765.648 8.56836 767.441 7.70508 769.654 7.70508C773.451 7.70508 775.365 9.84668 775.398 14.1299V26H772.327V14.1133C772.316 12.8184 772.017 11.861 771.431 11.2412C770.855 10.6214 769.953 10.3115 768.725 10.3115C767.729 10.3115 766.854 10.5771 766.102 11.1084C765.349 11.6396 764.762 12.3369 764.342 13.2002V26H761.271V8.03711H764.176ZM784.197 3.6875V8.03711H787.551V10.4111H784.197V21.5508C784.197 22.2702 784.347 22.8125 784.646 23.1777C784.944 23.5319 785.453 23.709 786.173 23.709C786.527 23.709 787.014 23.6426 787.634 23.5098V26C786.826 26.2214 786.04 26.332 785.276 26.332C783.904 26.332 782.869 25.917 782.172 25.0869C781.475 24.2568 781.126 23.0781 781.126 21.5508V10.4111H777.855V8.03711H781.126V3.6875H784.197ZM618.729 57.2178C618.729 59.9515 618.104 62.154 616.854 63.8252C615.603 65.4964 613.91 66.332 611.773 66.332C609.593 66.332 607.878 65.6403 606.627 64.2568V72.9062H603.556V48.0371H606.361L606.511 50.0293C607.761 48.4798 609.499 47.7051 611.724 47.7051C613.882 47.7051 615.586 48.5186 616.837 50.1455C618.099 51.7725 618.729 54.0358 618.729 56.9355V57.2178ZM615.658 56.8691C615.658 54.8438 615.227 53.2445 614.363 52.0713C613.5 50.8981 612.316 50.3115 610.811 50.3115C608.951 50.3115 607.557 51.1361 606.627 52.7852V61.3682C607.546 63.0062 608.951 63.8252 610.844 63.8252C612.316 63.8252 613.483 63.2441 614.347 62.082C615.221 60.9089 615.658 59.1712 615.658 56.8691ZM630.102 66.332C627.667 66.332 625.686 65.5352 624.158 63.9414C622.631 62.3366 621.867 60.195 621.867 57.5166V56.9521C621.867 55.1702 622.205 53.582 622.88 52.1875C623.566 50.7819 624.518 49.6862 625.735 48.9004C626.964 48.1035 628.292 47.7051 629.72 47.7051C632.055 47.7051 633.87 48.4743 635.165 50.0127C636.46 51.5511 637.107 53.7536 637.107 56.6201V57.8984H624.938C624.983 59.6693 625.497 61.1025 626.482 62.1982C627.479 63.2829 628.74 63.8252 630.268 63.8252C631.352 63.8252 632.271 63.6038 633.023 63.1611C633.776 62.7184 634.435 62.1318 634.999 61.4014L636.875 62.8623C635.37 65.1755 633.112 66.332 630.102 66.332ZM629.72 50.2285C628.48 50.2285 627.44 50.6823 626.599 51.5898C625.757 52.4863 625.237 53.748 625.038 55.375H634.036V55.1426C633.948 53.582 633.527 52.3757 632.774 51.5234C632.022 50.6602 631.004 50.2285 629.72 50.2285ZM649.359 50.793C648.895 50.7155 648.391 50.6768 647.849 50.6768C645.834 50.6768 644.467 51.5345 643.748 53.25V66H640.677V48.0371H643.665L643.715 50.1123C644.722 48.5075 646.15 47.7051 647.998 47.7051C648.596 47.7051 649.049 47.7826 649.359 47.9375V50.793ZM653.975 66V50.4111H651.136V48.0371H653.975V46.1943C653.975 44.2686 654.489 42.7799 655.519 41.7285C656.548 40.6771 658.003 40.1514 659.885 40.1514C660.593 40.1514 661.296 40.2454 661.993 40.4336L661.827 42.9238C661.307 42.8242 660.754 42.7744 660.167 42.7744C659.171 42.7744 658.402 43.0677 657.859 43.6543C657.317 44.2298 657.046 45.0599 657.046 46.1445V48.0371H660.881V50.4111H657.046V66H653.975ZM663.471 56.8525C663.471 55.0928 663.814 53.5101 664.5 52.1045C665.197 50.6989 666.16 49.6143 667.389 48.8506C668.628 48.0869 670.039 47.7051 671.622 47.7051C674.068 47.7051 676.044 48.5518 677.549 50.2451C679.065 51.9385 679.823 54.1908 679.823 57.002V57.2178C679.823 58.9665 679.486 60.5381 678.811 61.9326C678.146 63.3161 677.189 64.3952 675.938 65.1699C674.699 65.9447 673.271 66.332 671.655 66.332C669.22 66.332 667.245 65.4854 665.729 63.792C664.223 62.0986 663.471 59.8574 663.471 57.0684V56.8525ZM666.559 57.2178C666.559 59.21 667.018 60.8092 667.937 62.0156C668.866 63.222 670.106 63.8252 671.655 63.8252C673.216 63.8252 674.455 63.2165 675.374 61.999C676.293 60.7705 676.752 59.055 676.752 56.8525C676.752 54.8825 676.282 53.2887 675.341 52.0713C674.411 50.8428 673.172 50.2285 671.622 50.2285C670.106 50.2285 668.883 50.8317 667.953 52.0381C667.023 53.2445 666.559 54.971 666.559 57.2178ZM692.357 50.793C691.893 50.7155 691.389 50.6768 690.847 50.6768C688.832 50.6768 687.465 51.5345 686.746 53.25V66H683.675V48.0371H686.663L686.713 50.1123C687.72 48.5075 689.148 47.7051 690.996 47.7051C691.594 47.7051 692.048 47.7826 692.357 47.9375V50.793ZM698.085 48.0371L698.168 50.0293C699.485 48.4798 701.261 47.7051 703.497 47.7051C706.009 47.7051 707.719 48.668 708.627 50.5938C709.225 49.7305 709.999 49.0332 710.951 48.502C711.914 47.9707 713.049 47.7051 714.354 47.7051C718.295 47.7051 720.298 49.7913 720.364 53.9639V66H717.293V54.1465C717.293 52.8626 717 51.9053 716.413 51.2744C715.826 50.6325 714.841 50.3115 713.458 50.3115C712.318 50.3115 711.372 50.6546 710.619 51.3408C709.867 52.016 709.429 52.929 709.308 54.0801V66H706.22V54.2295C706.22 51.6175 704.941 50.3115 702.385 50.3115C700.37 50.3115 698.993 51.1693 698.251 52.8848V66H695.18V48.0371H698.085ZM736.103 66C735.925 65.6458 735.782 65.015 735.671 64.1074C734.243 65.5905 732.539 66.332 730.558 66.332C728.787 66.332 727.331 65.834 726.191 64.8379C725.062 63.8307 724.498 62.5579 724.498 61.0195C724.498 59.1491 725.206 57.6992 726.623 56.6699C728.051 55.6296 730.054 55.1094 732.633 55.1094H735.621V53.6982C735.621 52.6247 735.3 51.7725 734.658 51.1416C734.016 50.4997 733.07 50.1787 731.819 50.1787C730.724 50.1787 729.805 50.4554 729.063 51.0088C728.322 51.5622 727.951 52.2318 727.951 53.0176H724.863C724.863 52.1211 725.179 51.2578 725.81 50.4277C726.451 49.5866 727.315 48.9225 728.399 48.4355C729.495 47.9486 730.696 47.7051 732.002 47.7051C734.072 47.7051 735.693 48.2253 736.866 49.2656C738.039 50.2949 738.648 51.7171 738.692 53.5322V61.7998C738.692 63.4489 738.903 64.7604 739.323 65.7344V66H736.103ZM731.006 63.6592C731.969 63.6592 732.882 63.4102 733.745 62.9121C734.608 62.4141 735.234 61.7666 735.621 60.9697V57.2842H733.214C729.451 57.2842 727.569 58.3854 727.569 60.5879C727.569 61.5508 727.89 62.3034 728.532 62.8457C729.174 63.388 729.999 63.6592 731.006 63.6592ZM746.412 48.0371L746.512 50.2949C747.884 48.5684 749.677 47.7051 751.891 47.7051C755.687 47.7051 757.602 49.8467 757.635 54.1299V66H754.563V54.1133C754.552 52.8184 754.254 51.861 753.667 51.2412C753.091 50.6214 752.189 50.3115 750.961 50.3115C749.965 50.3115 749.09 50.5771 748.338 51.1084C747.585 51.6396 746.999 52.3369 746.578 53.2002V66H743.507V48.0371H746.412ZM769.472 63.8252C770.567 63.8252 771.525 63.4932 772.344 62.8291C773.163 62.165 773.617 61.335 773.705 60.3389H776.61C776.555 61.3682 776.201 62.3477 775.548 63.2773C774.895 64.207 774.021 64.9486 772.925 65.502C771.84 66.0553 770.689 66.332 769.472 66.332C767.026 66.332 765.078 65.5186 763.628 63.8916C762.189 62.2536 761.47 60.0179 761.47 57.1846V56.6699C761.47 54.9212 761.791 53.3662 762.433 52.0049C763.075 50.6436 763.993 49.5866 765.188 48.834C766.395 48.0814 767.817 47.7051 769.455 47.7051C771.469 47.7051 773.141 48.3083 774.469 49.5146C775.808 50.721 776.522 52.2871 776.61 54.2129H773.705C773.617 53.0508 773.174 52.099 772.377 51.3574C771.591 50.6048 770.617 50.2285 769.455 50.2285C767.895 50.2285 766.683 50.793 765.819 51.9219C764.967 53.0397 764.541 54.6611 764.541 56.7861V57.3672C764.541 59.4368 764.967 61.0306 765.819 62.1484C766.672 63.2663 767.889 63.8252 769.472 63.8252ZM787.518 66.332C785.083 66.332 783.102 65.5352 781.574 63.9414C780.047 62.3366 779.283 60.195 779.283 57.5166V56.9521C779.283 55.1702 779.621 53.582 780.296 52.1875C780.982 50.7819 781.934 49.6862 783.151 48.9004C784.38 48.1035 785.708 47.7051 787.136 47.7051C789.471 47.7051 791.286 48.4743 792.581 50.0127C793.876 51.5511 794.523 53.7536 794.523 56.6201V57.8984H782.354C782.399 59.6693 782.913 61.1025 783.898 62.1982C784.895 63.2829 786.156 63.8252 787.684 63.8252C788.768 63.8252 789.687 63.6038 790.439 63.1611C791.192 62.7184 791.851 62.1318 792.415 61.4014L794.291 62.8623C792.786 65.1755 790.528 66.332 787.518 66.332ZM787.136 50.2285C785.896 50.2285 784.856 50.6823 784.015 51.5898C783.174 52.4863 782.653 53.748 782.454 55.375H791.452V55.1426C791.364 53.582 790.943 52.3757 790.19 51.5234C789.438 50.6602 788.42 50.2285 787.136 50.2285ZM643.814 103.825C644.91 103.825 645.868 103.493 646.687 102.829C647.506 102.165 647.959 101.335 648.048 100.339H650.953C650.898 101.368 650.544 102.348 649.891 103.277C649.238 104.207 648.363 104.949 647.268 105.502C646.183 106.055 645.032 106.332 643.814 106.332C641.368 106.332 639.421 105.519 637.971 103.892C636.532 102.254 635.812 100.018 635.812 97.1846V96.6699C635.812 94.9212 636.133 93.3662 636.775 92.0049C637.417 90.6436 638.336 89.5866 639.531 88.834C640.738 88.0814 642.16 87.7051 643.798 87.7051C645.812 87.7051 647.483 88.3083 648.812 89.5146C650.151 90.721 650.865 92.2871 650.953 94.2129H648.048C647.959 93.0508 647.517 92.099 646.72 91.3574C645.934 90.6048 644.96 90.2285 643.798 90.2285C642.237 90.2285 641.025 90.793 640.162 91.9219C639.31 93.0397 638.884 94.6611 638.884 96.7861V97.3672C638.884 99.4368 639.31 101.031 640.162 102.148C641.014 103.266 642.232 103.825 643.814 103.825ZM657.478 90.2119C658.839 88.5407 660.61 87.7051 662.79 87.7051C666.586 87.7051 668.501 89.8467 668.534 94.1299V106H665.463V94.1133C665.452 92.8184 665.153 91.861 664.566 91.2412C663.991 90.6214 663.089 90.3115 661.86 90.3115C660.864 90.3115 659.99 90.5771 659.237 91.1084C658.485 91.6396 657.898 92.3369 657.478 93.2002V106H654.406V80.5H657.478V90.2119ZM684.223 106C684.046 105.646 683.902 105.015 683.791 104.107C682.363 105.59 680.659 106.332 678.678 106.332C676.907 106.332 675.451 105.834 674.312 104.838C673.183 103.831 672.618 102.558 672.618 101.02C672.618 99.1491 673.326 97.6992 674.743 96.6699C676.171 95.6296 678.174 95.1094 680.753 95.1094H683.741V93.6982C683.741 92.6247 683.42 91.7725 682.778 91.1416C682.136 90.4997 681.19 90.1787 679.939 90.1787C678.844 90.1787 677.925 90.4554 677.184 91.0088C676.442 91.5622 676.071 92.2318 676.071 93.0176H672.983C672.983 92.1211 673.299 91.2578 673.93 90.4277C674.572 89.5866 675.435 88.9225 676.52 88.4355C677.615 87.9486 678.816 87.7051 680.122 87.7051C682.192 87.7051 683.813 88.2253 684.986 89.2656C686.16 90.2949 686.768 91.7171 686.812 93.5322V101.8C686.812 103.449 687.023 104.76 687.443 105.734V106H684.223ZM679.126 103.659C680.089 103.659 681.002 103.41 681.865 102.912C682.729 102.414 683.354 101.767 683.741 100.97V97.2842H681.334C677.571 97.2842 675.689 98.3854 675.689 100.588C675.689 101.551 676.01 102.303 676.652 102.846C677.294 103.388 678.119 103.659 679.126 103.659ZM694.532 88.0371L694.632 90.2949C696.004 88.5684 697.797 87.7051 700.011 87.7051C703.807 87.7051 705.722 89.8467 705.755 94.1299V106H702.684V94.1133C702.673 92.8184 702.374 91.861 701.787 91.2412C701.212 90.6214 700.31 90.3115 699.081 90.3115C698.085 90.3115 697.211 90.5771 696.458 91.1084C695.705 91.6396 695.119 92.3369 694.698 93.2002V106H691.627V88.0371H694.532ZM709.656 96.8691C709.656 94.069 710.304 91.8444 711.599 90.1953C712.894 88.5352 714.609 87.7051 716.745 87.7051C718.937 87.7051 720.646 88.4798 721.875 90.0293L722.024 88.0371H724.83V105.568C724.83 107.893 724.138 109.724 722.755 111.063C721.382 112.403 719.534 113.072 717.21 113.072C715.915 113.072 714.648 112.796 713.408 112.242C712.169 111.689 711.222 110.931 710.569 109.968L712.163 108.125C713.48 109.752 715.09 110.565 716.994 110.565C718.488 110.565 719.65 110.145 720.48 109.304C721.322 108.463 721.742 107.278 721.742 105.751V104.207C720.514 105.624 718.837 106.332 716.712 106.332C714.609 106.332 712.905 105.485 711.599 103.792C710.304 102.099 709.656 99.791 709.656 96.8691ZM712.744 97.2178C712.744 99.2432 713.159 100.837 713.989 101.999C714.819 103.15 715.981 103.726 717.476 103.726C719.412 103.726 720.835 102.846 721.742 101.086V92.8848C720.801 91.1693 719.39 90.3115 717.509 90.3115C716.015 90.3115 714.847 90.8926 714.006 92.0547C713.165 93.2168 712.744 94.9378 712.744 97.2178ZM736.933 106.332C734.498 106.332 732.517 105.535 730.989 103.941C729.462 102.337 728.698 100.195 728.698 97.5166V96.9521C728.698 95.1702 729.036 93.582 729.711 92.1875C730.397 90.7819 731.349 89.6862 732.566 88.9004C733.795 88.1035 735.123 87.7051 736.551 87.7051C738.886 87.7051 740.701 88.4743 741.996 90.0127C743.291 91.5511 743.938 93.7536 743.938 96.6201V97.8984H731.77C731.814 99.6693 732.328 101.103 733.313 102.198C734.31 103.283 735.571 103.825 737.099 103.825C738.183 103.825 739.102 103.604 739.854 103.161C740.607 102.718 741.266 102.132 741.83 101.401L743.706 102.862C742.201 105.175 739.943 106.332 736.933 106.332ZM736.551 90.2285C735.311 90.2285 734.271 90.6823 733.43 91.5898C732.589 92.4863 732.068 93.748 731.869 95.375H740.867V95.1426C740.779 93.582 740.358 92.3757 739.605 91.5234C738.853 90.6602 737.835 90.2285 736.551 90.2285ZM757.967 101.235C757.967 100.405 757.651 99.7633 757.021 99.3096C756.401 98.8447 755.311 98.4463 753.75 98.1143C752.201 97.7822 750.966 97.3838 750.048 96.9189C749.14 96.4541 748.465 95.9007 748.022 95.2588C747.591 94.6169 747.375 93.8532 747.375 92.9678C747.375 91.4958 747.995 90.2507 749.234 89.2324C750.485 88.2142 752.079 87.7051 754.016 87.7051C756.052 87.7051 757.701 88.2308 758.963 89.2822C760.236 90.3337 760.872 91.6784 760.872 93.3164H757.784C757.784 92.4753 757.424 91.7503 756.705 91.1416C755.997 90.5329 755.1 90.2285 754.016 90.2285C752.898 90.2285 752.023 90.472 751.393 90.959C750.762 91.446 750.446 92.0824 750.446 92.8682C750.446 93.6097 750.74 94.1686 751.326 94.5449C751.913 94.9212 752.97 95.2809 754.497 95.624C756.035 95.9671 757.281 96.3766 758.232 96.8525C759.184 97.3285 759.887 97.904 760.341 98.5791C760.806 99.2432 761.038 100.057 761.038 101.02C761.038 102.624 760.396 103.914 759.112 104.888C757.828 105.851 756.163 106.332 754.115 106.332C752.676 106.332 751.404 106.077 750.297 105.568C749.19 105.059 748.321 104.351 747.69 103.443C747.071 102.525 746.761 101.534 746.761 100.472H749.832C749.887 101.501 750.297 102.32 751.061 102.929C751.835 103.526 752.854 103.825 754.115 103.825C755.277 103.825 756.207 103.593 756.904 103.128C757.613 102.652 757.967 102.021 757.967 101.235Z" fill="white"/>
<rect x="111" y="168" width="18" height="81" fill="#00DBA6"/>
<rect x="131" y="159" width="18" height="90" fill="#00DBA6"/>
<rect x="151" y="176" width="18" height="73" fill="#00DBA6"/>
<rect x="171" y="187" width="18" height="62" fill="#00DBA6"/>
<rect x="191" y="203" width="18" height="46" fill="#00DBA6"/>
</svg>
