<svg width="872" height="617" viewBox="0 0 872 617" fill="none" xmlns="http://www.w3.org/2000/svg">
<rect x="278" width="255" height="174" rx="19" fill="#79D0FF"/>
<rect x="533" y="389" width="255" height="174" rx="19" fill="#79D0FF"/>
<rect x="23" y="389" width="255" height="174" rx="19" fill="#79D0FF"/>
<path d="M314.739 79H311.535V67.8271H299.35V79H296.162V54.8281H299.35V65.2207H311.535V54.8281H314.739V79ZM319.105 69.8525C319.105 68.0928 319.449 66.5101 320.135 65.1045C320.832 63.6989 321.795 62.6143 323.023 61.8506C324.263 61.0869 325.674 60.7051 327.257 60.7051C329.703 60.7051 331.678 61.5518 333.184 63.2451C334.7 64.9385 335.458 67.1908 335.458 70.002V70.2178C335.458 71.9665 335.12 73.5381 334.445 74.9326C333.781 76.3161 332.824 77.3952 331.573 78.1699C330.334 78.9447 328.906 79.332 327.29 79.332C324.855 79.332 322.88 78.4854 321.363 76.792C319.858 75.0986 319.105 72.8574 319.105 70.0684V69.8525ZM322.193 70.2178C322.193 72.21 322.653 73.8092 323.571 75.0156C324.501 76.222 325.741 76.8252 327.29 76.8252C328.851 76.8252 330.09 76.2165 331.009 74.999C331.927 73.7705 332.387 72.055 332.387 69.8525C332.387 67.8825 331.916 66.2887 330.976 65.0713C330.046 63.8428 328.806 63.2285 327.257 63.2285C325.741 63.2285 324.518 63.8317 323.588 65.0381C322.658 66.2445 322.193 67.971 322.193 70.2178ZM347.992 63.793C347.527 63.7155 347.024 63.6768 346.481 63.6768C344.467 63.6768 343.1 64.5345 342.381 66.25V79H339.31V61.0371H342.298L342.348 63.1123C343.355 61.5075 344.783 60.7051 346.631 60.7051C347.229 60.7051 347.682 60.7826 347.992 60.9375V63.793ZM354.168 79H351.097V61.0371H354.168V79ZM350.848 56.2725C350.848 55.7744 350.997 55.3538 351.296 55.0107C351.606 54.6676 352.06 54.4961 352.657 54.4961C353.255 54.4961 353.709 54.6676 354.019 55.0107C354.328 55.3538 354.483 55.7744 354.483 56.2725C354.483 56.7705 354.328 57.1855 354.019 57.5176C353.709 57.8496 353.255 58.0156 352.657 58.0156C352.06 58.0156 351.606 57.8496 351.296 57.5176C350.997 57.1855 350.848 56.7705 350.848 56.2725ZM361.987 76.4932H372.496V79H358.235V76.7422L368.146 63.5771H358.385V61.0371H371.998V63.2119L361.987 76.4932ZM374.887 69.8525C374.887 68.0928 375.23 66.5101 375.916 65.1045C376.613 63.6989 377.576 62.6143 378.805 61.8506C380.044 61.0869 381.455 60.7051 383.038 60.7051C385.484 60.7051 387.46 61.5518 388.965 63.2451C390.481 64.9385 391.239 67.1908 391.239 70.002V70.2178C391.239 71.9665 390.902 73.5381 390.227 74.9326C389.562 76.3161 388.605 77.3952 387.354 78.1699C386.115 78.9447 384.687 79.332 383.071 79.332C380.636 79.332 378.661 78.4854 377.145 76.792C375.639 75.0986 374.887 72.8574 374.887 70.0684V69.8525ZM377.975 70.2178C377.975 72.21 378.434 73.8092 379.353 75.0156C380.282 76.222 381.522 76.8252 383.071 76.8252C384.632 76.8252 385.871 76.2165 386.79 74.999C387.709 73.7705 388.168 72.055 388.168 69.8525C388.168 67.8825 387.698 66.2887 386.757 65.0713C385.827 63.8428 384.588 63.2285 383.038 63.2285C381.522 63.2285 380.299 63.8317 379.369 65.0381C378.439 66.2445 377.975 67.971 377.975 70.2178ZM397.996 61.0371L398.096 63.2949C399.468 61.5684 401.261 60.7051 403.475 60.7051C407.271 60.7051 409.186 62.8467 409.219 67.1299V79H406.147V67.1133C406.136 65.8184 405.838 64.861 405.251 64.2412C404.675 63.6214 403.773 63.3115 402.545 63.3115C401.549 63.3115 400.674 63.5771 399.922 64.1084C399.169 64.6396 398.583 65.3369 398.162 66.2002V79H395.091V61.0371H397.996ZM418.018 56.6875V61.0371H421.371V63.4111H418.018V74.5508C418.018 75.2702 418.167 75.8125 418.466 76.1777C418.765 76.5319 419.274 76.709 419.993 76.709C420.347 76.709 420.834 76.6426 421.454 76.5098V79C420.646 79.2214 419.86 79.332 419.097 79.332C417.724 79.332 416.689 78.917 415.992 78.0869C415.295 77.2568 414.946 76.0781 414.946 74.5508V63.4111H411.676V61.0371H414.946V56.6875H418.018ZM436.063 79C435.886 78.6458 435.743 78.015 435.632 77.1074C434.204 78.5905 432.5 79.332 430.519 79.332C428.748 79.332 427.292 78.834 426.152 77.8379C425.023 76.8307 424.459 75.5579 424.459 74.0195C424.459 72.1491 425.167 70.6992 426.584 69.6699C428.012 68.6296 430.015 68.1094 432.594 68.1094H435.582V66.6982C435.582 65.6247 435.261 64.7725 434.619 64.1416C433.977 63.4997 433.031 63.1787 431.78 63.1787C430.685 63.1787 429.766 63.4554 429.024 64.0088C428.283 64.5622 427.912 65.2318 427.912 66.0176H424.824C424.824 65.1211 425.14 64.2578 425.771 63.4277C426.412 62.5866 427.276 61.9225 428.36 61.4355C429.456 60.9486 430.657 60.7051 431.963 60.7051C434.033 60.7051 435.654 61.2253 436.827 62.2656C438 63.2949 438.609 64.7171 438.653 66.5322V74.7998C438.653 76.4489 438.864 77.7604 439.284 78.7344V79H436.063ZM430.967 76.6592C431.93 76.6592 432.843 76.4102 433.706 75.9121C434.569 75.4141 435.195 74.7666 435.582 73.9697V70.2842H433.175C429.412 70.2842 427.53 71.3854 427.53 73.5879C427.53 74.5508 427.851 75.3034 428.493 75.8457C429.135 76.388 429.96 76.6592 430.967 76.6592ZM446.805 79H443.733V53.5H446.805V79ZM463.838 69.5371V79H460.65V54.8281H469.565C472.211 54.8281 474.28 55.5033 475.774 56.8535C477.28 58.2038 478.032 59.9912 478.032 62.2158C478.032 64.5622 477.296 66.3717 475.824 67.6445C474.363 68.9062 472.266 69.5371 469.532 69.5371H463.838ZM463.838 66.9307H469.565C471.27 66.9307 472.576 66.5322 473.483 65.7354C474.391 64.9274 474.845 63.7653 474.845 62.249C474.845 60.8102 474.391 59.6592 473.483 58.7959C472.576 57.9326 471.331 57.4844 469.748 57.4512H463.838V66.9307ZM480.572 69.8525C480.572 68.0928 480.915 66.5101 481.602 65.1045C482.299 63.6989 483.262 62.6143 484.49 61.8506C485.73 61.0869 487.141 60.7051 488.724 60.7051C491.17 60.7051 493.145 61.5518 494.65 63.2451C496.167 64.9385 496.925 67.1908 496.925 70.002V70.2178C496.925 71.9665 496.587 73.5381 495.912 74.9326C495.248 76.3161 494.291 77.3952 493.04 78.1699C491.8 78.9447 490.373 79.332 488.757 79.332C486.322 79.332 484.346 78.4854 482.83 76.792C481.325 75.0986 480.572 72.8574 480.572 70.0684V69.8525ZM483.66 70.2178C483.66 72.21 484.119 73.8092 485.038 75.0156C485.968 76.222 487.207 76.8252 488.757 76.8252C490.317 76.8252 491.557 76.2165 492.476 74.999C493.394 73.7705 493.854 72.055 493.854 69.8525C493.854 67.8825 493.383 66.2887 492.442 65.0713C491.513 63.8428 490.273 63.2285 488.724 63.2285C487.207 63.2285 485.984 63.8317 485.055 65.0381C484.125 66.2445 483.66 67.971 483.66 70.2178ZM500.029 69.8691C500.029 67.1133 500.682 64.8997 501.988 63.2285C503.294 61.5462 505.004 60.7051 507.118 60.7051C509.221 60.7051 510.887 61.4245 512.115 62.8633V53.5H515.187V79H512.364L512.215 77.0742C510.986 78.5794 509.276 79.332 507.085 79.332C505.004 79.332 503.305 78.4798 501.988 76.7754C500.682 75.071 500.029 72.8464 500.029 70.1016V69.8691ZM503.101 70.2178C503.101 72.2542 503.521 73.848 504.362 74.999C505.203 76.1501 506.366 76.7256 507.849 76.7256C509.797 76.7256 511.219 75.8512 512.115 74.1025V65.8516C511.197 64.1582 509.785 63.3115 507.882 63.3115C506.377 63.3115 505.203 63.8926 504.362 65.0547C503.521 66.2168 503.101 67.9378 503.101 70.2178ZM340.372 112.691H330.245L327.971 119H324.684L333.914 94.8281H336.703L345.95 119H342.68L340.372 112.691ZM331.208 110.068H339.426L335.309 98.7627L331.208 110.068ZM359.613 117.224C358.418 118.629 356.664 119.332 354.351 119.332C352.436 119.332 350.975 118.779 349.968 117.672C348.972 116.554 348.468 114.905 348.457 112.725V101.037H351.528V112.642C351.528 115.364 352.635 116.726 354.849 116.726C357.195 116.726 358.756 115.851 359.53 114.103V101.037H362.602V119H359.68L359.613 117.224ZM371.45 96.6875V101.037H374.804V103.411H371.45V114.551C371.45 115.27 371.6 115.812 371.898 116.178C372.197 116.532 372.706 116.709 373.426 116.709C373.78 116.709 374.267 116.643 374.887 116.51V119C374.079 119.221 373.293 119.332 372.529 119.332C371.157 119.332 370.122 118.917 369.425 118.087C368.728 117.257 368.379 116.078 368.379 114.551V103.411H365.108V101.037H368.379V96.6875H371.45ZM377.261 109.853C377.261 108.093 377.604 106.51 378.29 105.104C378.987 103.699 379.95 102.614 381.179 101.851C382.418 101.087 383.829 100.705 385.412 100.705C387.858 100.705 389.834 101.552 391.339 103.245C392.855 104.938 393.613 107.191 393.613 110.002V110.218C393.613 111.966 393.276 113.538 392.601 114.933C391.937 116.316 390.979 117.395 389.729 118.17C388.489 118.945 387.061 119.332 385.445 119.332C383.01 119.332 381.035 118.485 379.519 116.792C378.013 115.099 377.261 112.857 377.261 110.068V109.853ZM380.349 110.218C380.349 112.21 380.808 113.809 381.727 115.016C382.656 116.222 383.896 116.825 385.445 116.825C387.006 116.825 388.245 116.216 389.164 114.999C390.083 113.771 390.542 112.055 390.542 109.853C390.542 107.882 390.072 106.289 389.131 105.071C388.201 103.843 386.962 103.229 385.412 103.229C383.896 103.229 382.673 103.832 381.743 105.038C380.813 106.244 380.349 107.971 380.349 110.218ZM407.924 114.235C407.924 113.405 407.608 112.763 406.978 112.31C406.358 111.845 405.268 111.446 403.707 111.114C402.158 110.782 400.924 110.384 400.005 109.919C399.097 109.454 398.422 108.901 397.979 108.259C397.548 107.617 397.332 106.853 397.332 105.968C397.332 104.496 397.952 103.251 399.191 102.232C400.442 101.214 402.036 100.705 403.973 100.705C406.009 100.705 407.658 101.231 408.92 102.282C410.193 103.334 410.829 104.678 410.829 106.316H407.741C407.741 105.475 407.382 104.75 406.662 104.142C405.954 103.533 405.057 103.229 403.973 103.229C402.855 103.229 401.98 103.472 401.35 103.959C400.719 104.446 400.403 105.082 400.403 105.868C400.403 106.61 400.697 107.169 401.283 107.545C401.87 107.921 402.927 108.281 404.454 108.624C405.993 108.967 407.238 109.377 408.189 109.853C409.141 110.328 409.844 110.904 410.298 111.579C410.763 112.243 410.995 113.057 410.995 114.02C410.995 115.624 410.353 116.914 409.069 117.888C407.785 118.851 406.12 119.332 404.072 119.332C402.633 119.332 401.361 119.077 400.254 118.568C399.147 118.059 398.278 117.351 397.647 116.443C397.028 115.525 396.718 114.534 396.718 113.472H399.789C399.844 114.501 400.254 115.32 401.018 115.929C401.792 116.526 402.811 116.825 404.072 116.825C405.234 116.825 406.164 116.593 406.861 116.128C407.57 115.652 407.924 115.021 407.924 114.235ZM422.201 116.825C423.297 116.825 424.254 116.493 425.073 115.829C425.892 115.165 426.346 114.335 426.435 113.339H429.34C429.285 114.368 428.93 115.348 428.277 116.277C427.624 117.207 426.75 117.949 425.654 118.502C424.57 119.055 423.419 119.332 422.201 119.332C419.755 119.332 417.807 118.519 416.357 116.892C414.919 115.254 414.199 113.018 414.199 110.185V109.67C414.199 107.921 414.52 106.366 415.162 105.005C415.804 103.644 416.723 102.587 417.918 101.834C419.124 101.081 420.547 100.705 422.185 100.705C424.199 100.705 425.87 101.308 427.198 102.515C428.537 103.721 429.251 105.287 429.34 107.213H426.435C426.346 106.051 425.903 105.099 425.106 104.357C424.321 103.605 423.347 103.229 422.185 103.229C420.624 103.229 419.412 103.793 418.549 104.922C417.697 106.04 417.271 107.661 417.271 109.786V110.367C417.271 112.437 417.697 114.031 418.549 115.148C419.401 116.266 420.618 116.825 422.201 116.825ZM443.883 119C443.706 118.646 443.562 118.015 443.451 117.107C442.023 118.59 440.319 119.332 438.338 119.332C436.567 119.332 435.112 118.834 433.972 117.838C432.843 116.831 432.278 115.558 432.278 114.02C432.278 112.149 432.987 110.699 434.403 109.67C435.831 108.63 437.834 108.109 440.413 108.109H443.401V106.698C443.401 105.625 443.08 104.772 442.438 104.142C441.797 103.5 440.85 103.179 439.6 103.179C438.504 103.179 437.585 103.455 436.844 104.009C436.102 104.562 435.731 105.232 435.731 106.018H432.644C432.644 105.121 432.959 104.258 433.59 103.428C434.232 102.587 435.095 101.923 436.18 101.436C437.275 100.949 438.476 100.705 439.782 100.705C441.852 100.705 443.473 101.225 444.646 102.266C445.82 103.295 446.428 104.717 446.473 106.532V114.8C446.473 116.449 446.683 117.76 447.104 118.734V119H443.883ZM438.786 116.659C439.749 116.659 440.662 116.41 441.525 115.912C442.389 115.414 443.014 114.767 443.401 113.97V110.284H440.994C437.231 110.284 435.35 111.385 435.35 113.588C435.35 114.551 435.671 115.303 436.312 115.846C436.954 116.388 437.779 116.659 438.786 116.659ZM454.624 119H451.553V93.5H454.624V119ZM467.009 119.332C464.574 119.332 462.593 118.535 461.065 116.941C459.538 115.337 458.774 113.195 458.774 110.517V109.952C458.774 108.17 459.112 106.582 459.787 105.188C460.473 103.782 461.425 102.686 462.643 101.9C463.871 101.104 465.199 100.705 466.627 100.705C468.962 100.705 470.777 101.474 472.072 103.013C473.367 104.551 474.015 106.754 474.015 109.62V110.898H461.846C461.89 112.669 462.405 114.103 463.39 115.198C464.386 116.283 465.647 116.825 467.175 116.825C468.259 116.825 469.178 116.604 469.931 116.161C470.683 115.718 471.342 115.132 471.906 114.401L473.782 115.862C472.277 118.175 470.019 119.332 467.009 119.332ZM466.627 103.229C465.387 103.229 464.347 103.682 463.506 104.59C462.665 105.486 462.145 106.748 461.945 108.375H470.943V108.143C470.855 106.582 470.434 105.376 469.682 104.523C468.929 103.66 467.911 103.229 466.627 103.229ZM486.267 103.793C485.802 103.715 485.298 103.677 484.756 103.677C482.742 103.677 481.375 104.535 480.655 106.25V119H477.584V101.037H480.572L480.622 103.112C481.629 101.507 483.057 100.705 484.905 100.705C485.503 100.705 485.957 100.783 486.267 100.938V103.793Z" fill="black"/>
<rect x="2" y="529" width="88" height="88" rx="19" fill="#129292"/>
<path d="M22.5938 575.537V585H19.4062V560.828H28.3213C30.9665 560.828 33.0361 561.503 34.5303 562.854C36.0355 564.204 36.7881 565.991 36.7881 568.216C36.7881 570.562 36.0521 572.372 34.5801 573.645C33.1191 574.906 31.0218 575.537 28.2881 575.537H22.5938ZM22.5938 572.931H28.3213C30.0257 572.931 31.3317 572.532 32.2393 571.735C33.1468 570.927 33.6006 569.765 33.6006 568.249C33.6006 566.81 33.1468 565.659 32.2393 564.796C31.3317 563.933 30.0866 563.484 28.5039 563.451H22.5938V572.931ZM39.3281 575.853C39.3281 574.093 39.6712 572.51 40.3574 571.104C41.0547 569.699 42.0176 568.614 43.2461 567.851C44.4857 567.087 45.8968 566.705 47.4795 566.705C49.9255 566.705 51.901 567.552 53.4062 569.245C54.9225 570.938 55.6807 573.191 55.6807 576.002V576.218C55.6807 577.966 55.3431 579.538 54.668 580.933C54.0039 582.316 53.0465 583.395 51.7959 584.17C50.5563 584.945 49.1286 585.332 47.5127 585.332C45.0778 585.332 43.1022 584.485 41.5859 582.792C40.0807 581.099 39.3281 578.857 39.3281 576.068V575.853ZM42.416 576.218C42.416 578.21 42.8753 579.809 43.7939 581.016C44.7236 582.222 45.9632 582.825 47.5127 582.825C49.0732 582.825 50.3128 582.216 51.2314 580.999C52.1501 579.771 52.6094 578.055 52.6094 575.853C52.6094 573.882 52.139 572.289 51.1982 571.071C50.2686 569.843 49.029 569.229 47.4795 569.229C45.9632 569.229 44.7402 569.832 43.8105 571.038C42.8809 572.244 42.416 573.971 42.416 576.218ZM58.7852 575.869C58.7852 573.113 59.4382 570.9 60.7441 569.229C62.0501 567.546 63.7601 566.705 65.874 566.705C67.9769 566.705 69.6426 567.424 70.8711 568.863V559.5H73.9424V585H71.1201L70.9707 583.074C69.7422 584.579 68.0322 585.332 65.8408 585.332C63.7601 585.332 62.0612 584.48 60.7441 582.775C59.4382 581.071 58.7852 578.846 58.7852 576.102V575.869ZM61.8564 576.218C61.8564 578.254 62.277 579.848 63.1182 580.999C63.9593 582.15 65.1214 582.726 66.6045 582.726C68.5524 582.726 69.9746 581.851 70.8711 580.103V571.852C69.9525 570.158 68.5413 569.312 66.6377 569.312C65.1325 569.312 63.9593 569.893 63.1182 571.055C62.277 572.217 61.8564 573.938 61.8564 576.218Z" fill="black"/>
<rect x="105" y="529" width="88" height="88" rx="19" fill="#129292"/>
<path d="M125.594 575.537V585H122.406V560.828H131.321C133.966 560.828 136.036 561.503 137.53 562.854C139.035 564.204 139.788 565.991 139.788 568.216C139.788 570.562 139.052 572.372 137.58 573.645C136.119 574.906 134.022 575.537 131.288 575.537H125.594ZM125.594 572.931H131.321C133.026 572.931 134.332 572.532 135.239 571.735C136.147 570.927 136.601 569.765 136.601 568.249C136.601 566.81 136.147 565.659 135.239 564.796C134.332 563.933 133.087 563.484 131.504 563.451H125.594V572.931ZM142.328 575.853C142.328 574.093 142.671 572.51 143.357 571.104C144.055 569.699 145.018 568.614 146.246 567.851C147.486 567.087 148.897 566.705 150.479 566.705C152.925 566.705 154.901 567.552 156.406 569.245C157.923 570.938 158.681 573.191 158.681 576.002V576.218C158.681 577.966 158.343 579.538 157.668 580.933C157.004 582.316 156.047 583.395 154.796 584.17C153.556 584.945 152.129 585.332 150.513 585.332C148.078 585.332 146.102 584.485 144.586 582.792C143.081 581.099 142.328 578.857 142.328 576.068V575.853ZM145.416 576.218C145.416 578.21 145.875 579.809 146.794 581.016C147.724 582.222 148.963 582.825 150.513 582.825C152.073 582.825 153.313 582.216 154.231 580.999C155.15 579.771 155.609 578.055 155.609 575.853C155.609 573.882 155.139 572.289 154.198 571.071C153.269 569.843 152.029 569.229 150.479 569.229C148.963 569.229 147.74 569.832 146.811 571.038C145.881 572.244 145.416 573.971 145.416 576.218ZM161.785 575.869C161.785 573.113 162.438 570.9 163.744 569.229C165.05 567.546 166.76 566.705 168.874 566.705C170.977 566.705 172.643 567.424 173.871 568.863V559.5H176.942V585H174.12L173.971 583.074C172.742 584.579 171.032 585.332 168.841 585.332C166.76 585.332 165.061 584.48 163.744 582.775C162.438 581.071 161.785 578.846 161.785 576.102V575.869ZM164.856 576.218C164.856 578.254 165.277 579.848 166.118 580.999C166.959 582.15 168.121 582.726 169.604 582.726C171.552 582.726 172.975 581.851 173.871 580.103V571.852C172.952 570.158 171.541 569.312 169.638 569.312C168.132 569.312 166.959 569.893 166.118 571.055C165.277 572.217 164.856 573.938 164.856 576.218Z" fill="black"/>
<rect x="210" y="529" width="88" height="88" rx="19" fill="#129292"/>
<path d="M230.594 575.537V585H227.406V560.828H236.321C238.966 560.828 241.036 561.503 242.53 562.854C244.035 564.204 244.788 565.991 244.788 568.216C244.788 570.562 244.052 572.372 242.58 573.645C241.119 574.906 239.022 575.537 236.288 575.537H230.594ZM230.594 572.931H236.321C238.026 572.931 239.332 572.532 240.239 571.735C241.147 570.927 241.601 569.765 241.601 568.249C241.601 566.81 241.147 565.659 240.239 564.796C239.332 563.933 238.087 563.484 236.504 563.451H230.594V572.931ZM247.328 575.853C247.328 574.093 247.671 572.51 248.357 571.104C249.055 569.699 250.018 568.614 251.246 567.851C252.486 567.087 253.897 566.705 255.479 566.705C257.925 566.705 259.901 567.552 261.406 569.245C262.923 570.938 263.681 573.191 263.681 576.002V576.218C263.681 577.966 263.343 579.538 262.668 580.933C262.004 582.316 261.047 583.395 259.796 584.17C258.556 584.945 257.129 585.332 255.513 585.332C253.078 585.332 251.102 584.485 249.586 582.792C248.081 581.099 247.328 578.857 247.328 576.068V575.853ZM250.416 576.218C250.416 578.21 250.875 579.809 251.794 581.016C252.724 582.222 253.963 582.825 255.513 582.825C257.073 582.825 258.313 582.216 259.231 580.999C260.15 579.771 260.609 578.055 260.609 575.853C260.609 573.882 260.139 572.289 259.198 571.071C258.269 569.843 257.029 569.229 255.479 569.229C253.963 569.229 252.74 569.832 251.811 571.038C250.881 572.244 250.416 573.971 250.416 576.218ZM266.785 575.869C266.785 573.113 267.438 570.9 268.744 569.229C270.05 567.546 271.76 566.705 273.874 566.705C275.977 566.705 277.643 567.424 278.871 568.863V559.5H281.942V585H279.12L278.971 583.074C277.742 584.579 276.032 585.332 273.841 585.332C271.76 585.332 270.061 584.48 268.744 582.775C267.438 581.071 266.785 578.846 266.785 576.102V575.869ZM269.856 576.218C269.856 578.254 270.277 579.848 271.118 580.999C271.959 582.15 273.121 582.726 274.604 582.726C276.552 582.726 277.975 581.851 278.871 580.103V571.852C277.952 570.158 276.541 569.312 274.638 569.312C273.132 569.312 271.959 569.893 271.118 571.055C270.277 572.217 269.856 573.938 269.856 576.218Z" fill="black"/>
<rect x="517.203" y="529" width="138.797" height="88" rx="19" fill="#1083C0"/>
<path d="M544.212 560.828L552.114 580.551L560.017 560.828H564.15V585H560.963V575.587L561.262 565.427L553.326 585H550.886L542.967 565.477L543.282 575.587V585H540.095V560.828H544.212ZM576.751 585.332C574.316 585.332 572.335 584.535 570.808 582.941C569.28 581.337 568.517 579.195 568.517 576.517V575.952C568.517 574.17 568.854 572.582 569.529 571.188C570.215 569.782 571.167 568.686 572.385 567.9C573.613 567.104 574.941 566.705 576.369 566.705C578.704 566.705 580.52 567.474 581.814 569.013C583.109 570.551 583.757 572.754 583.757 575.62V576.898H571.588C571.632 578.669 572.147 580.103 573.132 581.198C574.128 582.283 575.39 582.825 576.917 582.825C578.002 582.825 578.92 582.604 579.673 582.161C580.425 581.718 581.084 581.132 581.648 580.401L583.524 581.862C582.019 584.175 579.761 585.332 576.751 585.332ZM576.369 569.229C575.13 569.229 574.089 569.682 573.248 570.59C572.407 571.486 571.887 572.748 571.688 574.375H580.686V574.143C580.597 572.582 580.176 571.376 579.424 570.523C578.671 569.66 577.653 569.229 576.369 569.229ZM591.493 562.688V567.037H594.847V569.411H591.493V580.551C591.493 581.27 591.643 581.812 591.941 582.178C592.24 582.532 592.749 582.709 593.469 582.709C593.823 582.709 594.31 582.643 594.93 582.51V585C594.122 585.221 593.336 585.332 592.572 585.332C591.2 585.332 590.165 584.917 589.468 584.087C588.771 583.257 588.422 582.078 588.422 580.551V569.411H585.151V567.037H588.422V562.688H591.493ZM607.132 569.793C606.667 569.715 606.163 569.677 605.621 569.677C603.607 569.677 602.24 570.535 601.521 572.25V585H598.449V567.037H601.438L601.487 569.112C602.494 567.507 603.922 566.705 605.771 566.705C606.368 566.705 606.822 566.783 607.132 566.938V569.793ZM613.308 585H610.236V567.037H613.308V585ZM609.987 562.272C609.987 561.774 610.137 561.354 610.436 561.011C610.745 560.668 611.199 560.496 611.797 560.496C612.395 560.496 612.848 560.668 613.158 561.011C613.468 561.354 613.623 561.774 613.623 562.272C613.623 562.771 613.468 563.186 613.158 563.518C612.848 563.85 612.395 564.016 611.797 564.016C611.199 564.016 610.745 563.85 610.436 563.518C610.137 563.186 609.987 562.771 609.987 562.272ZM625.443 582.825C626.539 582.825 627.496 582.493 628.315 581.829C629.134 581.165 629.588 580.335 629.677 579.339H632.582C632.527 580.368 632.173 581.348 631.52 582.277C630.867 583.207 629.992 583.949 628.896 584.502C627.812 585.055 626.661 585.332 625.443 585.332C622.997 585.332 621.049 584.519 619.6 582.892C618.161 581.254 617.441 579.018 617.441 576.185V575.67C617.441 573.921 617.762 572.366 618.404 571.005C619.046 569.644 619.965 568.587 621.16 567.834C622.367 567.081 623.789 566.705 625.427 566.705C627.441 566.705 629.112 567.308 630.44 568.515C631.78 569.721 632.493 571.287 632.582 573.213H629.677C629.588 572.051 629.146 571.099 628.349 570.357C627.563 569.605 626.589 569.229 625.427 569.229C623.866 569.229 622.654 569.793 621.791 570.922C620.939 572.04 620.513 573.661 620.513 575.786V576.367C620.513 578.437 620.939 580.031 621.791 581.148C622.643 582.266 623.861 582.825 625.443 582.825Z" fill="black"/>
<rect x="674.203" y="529" width="138.797" height="88" rx="19" fill="#1083C0"/>
<path d="M701.212 560.828L709.114 580.551L717.017 560.828H721.15V585H717.963V575.587L718.262 565.427L710.326 585H707.886L699.967 565.477L700.282 575.587V585H697.095V560.828H701.212ZM733.751 585.332C731.316 585.332 729.335 584.535 727.808 582.941C726.28 581.337 725.517 579.195 725.517 576.517V575.952C725.517 574.17 725.854 572.582 726.529 571.188C727.215 569.782 728.167 568.686 729.385 567.9C730.613 567.104 731.941 566.705 733.369 566.705C735.704 566.705 737.52 567.474 738.814 569.013C740.109 570.551 740.757 572.754 740.757 575.62V576.898H728.588C728.632 578.669 729.147 580.103 730.132 581.198C731.128 582.283 732.39 582.825 733.917 582.825C735.002 582.825 735.92 582.604 736.673 582.161C737.425 581.718 738.084 581.132 738.648 580.401L740.524 581.862C739.019 584.175 736.761 585.332 733.751 585.332ZM733.369 569.229C732.13 569.229 731.089 569.682 730.248 570.59C729.407 571.486 728.887 572.748 728.688 574.375H737.686V574.143C737.597 572.582 737.176 571.376 736.424 570.523C735.671 569.66 734.653 569.229 733.369 569.229ZM748.493 562.688V567.037H751.847V569.411H748.493V580.551C748.493 581.27 748.643 581.812 748.941 582.178C749.24 582.532 749.749 582.709 750.469 582.709C750.823 582.709 751.31 582.643 751.93 582.51V585C751.122 585.221 750.336 585.332 749.572 585.332C748.2 585.332 747.165 584.917 746.468 584.087C745.771 583.257 745.422 582.078 745.422 580.551V569.411H742.151V567.037H745.422V562.688H748.493ZM764.132 569.793C763.667 569.715 763.163 569.677 762.621 569.677C760.607 569.677 759.24 570.535 758.521 572.25V585H755.449V567.037H758.438L758.487 569.112C759.494 567.507 760.922 566.705 762.771 566.705C763.368 566.705 763.822 566.783 764.132 566.938V569.793ZM770.308 585H767.236V567.037H770.308V585ZM766.987 562.272C766.987 561.774 767.137 561.354 767.436 561.011C767.745 560.668 768.199 560.496 768.797 560.496C769.395 560.496 769.848 560.668 770.158 561.011C770.468 561.354 770.623 561.774 770.623 562.272C770.623 562.771 770.468 563.186 770.158 563.518C769.848 563.85 769.395 564.016 768.797 564.016C768.199 564.016 767.745 563.85 767.436 563.518C767.137 563.186 766.987 562.771 766.987 562.272ZM782.443 582.825C783.539 582.825 784.496 582.493 785.315 581.829C786.134 581.165 786.588 580.335 786.677 579.339H789.582C789.527 580.368 789.173 581.348 788.52 582.277C787.867 583.207 786.992 583.949 785.896 584.502C784.812 585.055 783.661 585.332 782.443 585.332C779.997 585.332 778.049 584.519 776.6 582.892C775.161 581.254 774.441 579.018 774.441 576.185V575.67C774.441 573.921 774.762 572.366 775.404 571.005C776.046 569.644 776.965 568.587 778.16 567.834C779.367 567.081 780.789 566.705 782.427 566.705C784.441 566.705 786.112 567.308 787.44 568.515C788.78 569.721 789.493 571.287 789.582 573.213H786.677C786.588 572.051 786.146 571.099 785.349 570.357C784.563 569.605 783.589 569.229 782.427 569.229C780.866 569.229 779.654 569.793 778.791 570.922C777.939 572.04 777.513 573.661 777.513 575.786V576.367C777.513 578.437 777.939 580.031 778.791 581.148C779.643 582.266 780.861 582.825 782.443 582.825Z" fill="black"/>
<path d="M314.739 79H311.535V67.8271H299.35V79H296.162V54.8281H299.35V65.2207H311.535V54.8281H314.739V79ZM319.105 69.8525C319.105 68.0928 319.449 66.5101 320.135 65.1045C320.832 63.6989 321.795 62.6143 323.023 61.8506C324.263 61.0869 325.674 60.7051 327.257 60.7051C329.703 60.7051 331.678 61.5518 333.184 63.2451C334.7 64.9385 335.458 67.1908 335.458 70.002V70.2178C335.458 71.9665 335.12 73.5381 334.445 74.9326C333.781 76.3161 332.824 77.3952 331.573 78.1699C330.334 78.9447 328.906 79.332 327.29 79.332C324.855 79.332 322.88 78.4854 321.363 76.792C319.858 75.0986 319.105 72.8574 319.105 70.0684V69.8525ZM322.193 70.2178C322.193 72.21 322.653 73.8092 323.571 75.0156C324.501 76.222 325.741 76.8252 327.29 76.8252C328.851 76.8252 330.09 76.2165 331.009 74.999C331.927 73.7705 332.387 72.055 332.387 69.8525C332.387 67.8825 331.916 66.2887 330.976 65.0713C330.046 63.8428 328.806 63.2285 327.257 63.2285C325.741 63.2285 324.518 63.8317 323.588 65.0381C322.658 66.2445 322.193 67.971 322.193 70.2178ZM347.992 63.793C347.527 63.7155 347.024 63.6768 346.481 63.6768C344.467 63.6768 343.1 64.5345 342.381 66.25V79H339.31V61.0371H342.298L342.348 63.1123C343.355 61.5075 344.783 60.7051 346.631 60.7051C347.229 60.7051 347.682 60.7826 347.992 60.9375V63.793ZM354.168 79H351.097V61.0371H354.168V79ZM350.848 56.2725C350.848 55.7744 350.997 55.3538 351.296 55.0107C351.606 54.6676 352.06 54.4961 352.657 54.4961C353.255 54.4961 353.709 54.6676 354.019 55.0107C354.328 55.3538 354.483 55.7744 354.483 56.2725C354.483 56.7705 354.328 57.1855 354.019 57.5176C353.709 57.8496 353.255 58.0156 352.657 58.0156C352.06 58.0156 351.606 57.8496 351.296 57.5176C350.997 57.1855 350.848 56.7705 350.848 56.2725ZM361.987 76.4932H372.496V79H358.235V76.7422L368.146 63.5771H358.385V61.0371H371.998V63.2119L361.987 76.4932ZM374.887 69.8525C374.887 68.0928 375.23 66.5101 375.916 65.1045C376.613 63.6989 377.576 62.6143 378.805 61.8506C380.044 61.0869 381.455 60.7051 383.038 60.7051C385.484 60.7051 387.46 61.5518 388.965 63.2451C390.481 64.9385 391.239 67.1908 391.239 70.002V70.2178C391.239 71.9665 390.902 73.5381 390.227 74.9326C389.562 76.3161 388.605 77.3952 387.354 78.1699C386.115 78.9447 384.687 79.332 383.071 79.332C380.636 79.332 378.661 78.4854 377.145 76.792C375.639 75.0986 374.887 72.8574 374.887 70.0684V69.8525ZM377.975 70.2178C377.975 72.21 378.434 73.8092 379.353 75.0156C380.282 76.222 381.522 76.8252 383.071 76.8252C384.632 76.8252 385.871 76.2165 386.79 74.999C387.709 73.7705 388.168 72.055 388.168 69.8525C388.168 67.8825 387.698 66.2887 386.757 65.0713C385.827 63.8428 384.588 63.2285 383.038 63.2285C381.522 63.2285 380.299 63.8317 379.369 65.0381C378.439 66.2445 377.975 67.971 377.975 70.2178ZM397.996 61.0371L398.096 63.2949C399.468 61.5684 401.261 60.7051 403.475 60.7051C407.271 60.7051 409.186 62.8467 409.219 67.1299V79H406.147V67.1133C406.136 65.8184 405.838 64.861 405.251 64.2412C404.675 63.6214 403.773 63.3115 402.545 63.3115C401.549 63.3115 400.674 63.5771 399.922 64.1084C399.169 64.6396 398.583 65.3369 398.162 66.2002V79H395.091V61.0371H397.996ZM418.018 56.6875V61.0371H421.371V63.4111H418.018V74.5508C418.018 75.2702 418.167 75.8125 418.466 76.1777C418.765 76.5319 419.274 76.709 419.993 76.709C420.347 76.709 420.834 76.6426 421.454 76.5098V79C420.646 79.2214 419.86 79.332 419.097 79.332C417.724 79.332 416.689 78.917 415.992 78.0869C415.295 77.2568 414.946 76.0781 414.946 74.5508V63.4111H411.676V61.0371H414.946V56.6875H418.018ZM436.063 79C435.886 78.6458 435.743 78.015 435.632 77.1074C434.204 78.5905 432.5 79.332 430.519 79.332C428.748 79.332 427.292 78.834 426.152 77.8379C425.023 76.8307 424.459 75.5579 424.459 74.0195C424.459 72.1491 425.167 70.6992 426.584 69.6699C428.012 68.6296 430.015 68.1094 432.594 68.1094H435.582V66.6982C435.582 65.6247 435.261 64.7725 434.619 64.1416C433.977 63.4997 433.031 63.1787 431.78 63.1787C430.685 63.1787 429.766 63.4554 429.024 64.0088C428.283 64.5622 427.912 65.2318 427.912 66.0176H424.824C424.824 65.1211 425.14 64.2578 425.771 63.4277C426.412 62.5866 427.276 61.9225 428.36 61.4355C429.456 60.9486 430.657 60.7051 431.963 60.7051C434.033 60.7051 435.654 61.2253 436.827 62.2656C438 63.2949 438.609 64.7171 438.653 66.5322V74.7998C438.653 76.4489 438.864 77.7604 439.284 78.7344V79H436.063ZM430.967 76.6592C431.93 76.6592 432.843 76.4102 433.706 75.9121C434.569 75.4141 435.195 74.7666 435.582 73.9697V70.2842H433.175C429.412 70.2842 427.53 71.3854 427.53 73.5879C427.53 74.5508 427.851 75.3034 428.493 75.8457C429.135 76.388 429.96 76.6592 430.967 76.6592ZM446.805 79H443.733V53.5H446.805V79ZM463.838 69.5371V79H460.65V54.8281H469.565C472.211 54.8281 474.28 55.5033 475.774 56.8535C477.28 58.2038 478.032 59.9912 478.032 62.2158C478.032 64.5622 477.296 66.3717 475.824 67.6445C474.363 68.9062 472.266 69.5371 469.532 69.5371H463.838ZM463.838 66.9307H469.565C471.27 66.9307 472.576 66.5322 473.483 65.7354C474.391 64.9274 474.845 63.7653 474.845 62.249C474.845 60.8102 474.391 59.6592 473.483 58.7959C472.576 57.9326 471.331 57.4844 469.748 57.4512H463.838V66.9307ZM480.572 69.8525C480.572 68.0928 480.915 66.5101 481.602 65.1045C482.299 63.6989 483.262 62.6143 484.49 61.8506C485.73 61.0869 487.141 60.7051 488.724 60.7051C491.17 60.7051 493.145 61.5518 494.65 63.2451C496.167 64.9385 496.925 67.1908 496.925 70.002V70.2178C496.925 71.9665 496.587 73.5381 495.912 74.9326C495.248 76.3161 494.291 77.3952 493.04 78.1699C491.8 78.9447 490.373 79.332 488.757 79.332C486.322 79.332 484.346 78.4854 482.83 76.792C481.325 75.0986 480.572 72.8574 480.572 70.0684V69.8525ZM483.66 70.2178C483.66 72.21 484.119 73.8092 485.038 75.0156C485.968 76.222 487.207 76.8252 488.757 76.8252C490.317 76.8252 491.557 76.2165 492.476 74.999C493.394 73.7705 493.854 72.055 493.854 69.8525C493.854 67.8825 493.383 66.2887 492.442 65.0713C491.513 63.8428 490.273 63.2285 488.724 63.2285C487.207 63.2285 485.984 63.8317 485.055 65.0381C484.125 66.2445 483.66 67.971 483.66 70.2178ZM500.029 69.8691C500.029 67.1133 500.682 64.8997 501.988 63.2285C503.294 61.5462 505.004 60.7051 507.118 60.7051C509.221 60.7051 510.887 61.4245 512.115 62.8633V53.5H515.187V79H512.364L512.215 77.0742C510.986 78.5794 509.276 79.332 507.085 79.332C505.004 79.332 503.305 78.4798 501.988 76.7754C500.682 75.071 500.029 72.8464 500.029 70.1016V69.8691ZM503.101 70.2178C503.101 72.2542 503.521 73.848 504.362 74.999C505.203 76.1501 506.366 76.7256 507.849 76.7256C509.797 76.7256 511.219 75.8512 512.115 74.1025V65.8516C511.197 64.1582 509.785 63.3115 507.882 63.3115C506.377 63.3115 505.203 63.8926 504.362 65.0547C503.521 66.2168 503.101 67.9378 503.101 70.2178ZM340.372 112.691H330.245L327.971 119H324.684L333.914 94.8281H336.703L345.95 119H342.68L340.372 112.691ZM331.208 110.068H339.426L335.309 98.7627L331.208 110.068ZM359.613 117.224C358.418 118.629 356.664 119.332 354.351 119.332C352.436 119.332 350.975 118.779 349.968 117.672C348.972 116.554 348.468 114.905 348.457 112.725V101.037H351.528V112.642C351.528 115.364 352.635 116.726 354.849 116.726C357.195 116.726 358.756 115.851 359.53 114.103V101.037H362.602V119H359.68L359.613 117.224ZM371.45 96.6875V101.037H374.804V103.411H371.45V114.551C371.45 115.27 371.6 115.812 371.898 116.178C372.197 116.532 372.706 116.709 373.426 116.709C373.78 116.709 374.267 116.643 374.887 116.51V119C374.079 119.221 373.293 119.332 372.529 119.332C371.157 119.332 370.122 118.917 369.425 118.087C368.728 117.257 368.379 116.078 368.379 114.551V103.411H365.108V101.037H368.379V96.6875H371.45ZM377.261 109.853C377.261 108.093 377.604 106.51 378.29 105.104C378.987 103.699 379.95 102.614 381.179 101.851C382.418 101.087 383.829 100.705 385.412 100.705C387.858 100.705 389.834 101.552 391.339 103.245C392.855 104.938 393.613 107.191 393.613 110.002V110.218C393.613 111.966 393.276 113.538 392.601 114.933C391.937 116.316 390.979 117.395 389.729 118.17C388.489 118.945 387.061 119.332 385.445 119.332C383.01 119.332 381.035 118.485 379.519 116.792C378.013 115.099 377.261 112.857 377.261 110.068V109.853ZM380.349 110.218C380.349 112.21 380.808 113.809 381.727 115.016C382.656 116.222 383.896 116.825 385.445 116.825C387.006 116.825 388.245 116.216 389.164 114.999C390.083 113.771 390.542 112.055 390.542 109.853C390.542 107.882 390.072 106.289 389.131 105.071C388.201 103.843 386.962 103.229 385.412 103.229C383.896 103.229 382.673 103.832 381.743 105.038C380.813 106.244 380.349 107.971 380.349 110.218ZM407.924 114.235C407.924 113.405 407.608 112.763 406.978 112.31C406.358 111.845 405.268 111.446 403.707 111.114C402.158 110.782 400.924 110.384 400.005 109.919C399.097 109.454 398.422 108.901 397.979 108.259C397.548 107.617 397.332 106.853 397.332 105.968C397.332 104.496 397.952 103.251 399.191 102.232C400.442 101.214 402.036 100.705 403.973 100.705C406.009 100.705 407.658 101.231 408.92 102.282C410.193 103.334 410.829 104.678 410.829 106.316H407.741C407.741 105.475 407.382 104.75 406.662 104.142C405.954 103.533 405.057 103.229 403.973 103.229C402.855 103.229 401.98 103.472 401.35 103.959C400.719 104.446 400.403 105.082 400.403 105.868C400.403 106.61 400.697 107.169 401.283 107.545C401.87 107.921 402.927 108.281 404.454 108.624C405.993 108.967 407.238 109.377 408.189 109.853C409.141 110.328 409.844 110.904 410.298 111.579C410.763 112.243 410.995 113.057 410.995 114.02C410.995 115.624 410.353 116.914 409.069 117.888C407.785 118.851 406.12 119.332 404.072 119.332C402.633 119.332 401.361 119.077 400.254 118.568C399.147 118.059 398.278 117.351 397.647 116.443C397.028 115.525 396.718 114.534 396.718 113.472H399.789C399.844 114.501 400.254 115.32 401.018 115.929C401.792 116.526 402.811 116.825 404.072 116.825C405.234 116.825 406.164 116.593 406.861 116.128C407.57 115.652 407.924 115.021 407.924 114.235ZM422.201 116.825C423.297 116.825 424.254 116.493 425.073 115.829C425.892 115.165 426.346 114.335 426.435 113.339H429.34C429.285 114.368 428.93 115.348 428.277 116.277C427.624 117.207 426.75 117.949 425.654 118.502C424.57 119.055 423.419 119.332 422.201 119.332C419.755 119.332 417.807 118.519 416.357 116.892C414.919 115.254 414.199 113.018 414.199 110.185V109.67C414.199 107.921 414.52 106.366 415.162 105.005C415.804 103.644 416.723 102.587 417.918 101.834C419.124 101.081 420.547 100.705 422.185 100.705C424.199 100.705 425.87 101.308 427.198 102.515C428.537 103.721 429.251 105.287 429.34 107.213H426.435C426.346 106.051 425.903 105.099 425.106 104.357C424.321 103.605 423.347 103.229 422.185 103.229C420.624 103.229 419.412 103.793 418.549 104.922C417.697 106.04 417.271 107.661 417.271 109.786V110.367C417.271 112.437 417.697 114.031 418.549 115.148C419.401 116.266 420.618 116.825 422.201 116.825ZM443.883 119C443.706 118.646 443.562 118.015 443.451 117.107C442.023 118.59 440.319 119.332 438.338 119.332C436.567 119.332 435.112 118.834 433.972 117.838C432.843 116.831 432.278 115.558 432.278 114.02C432.278 112.149 432.987 110.699 434.403 109.67C435.831 108.63 437.834 108.109 440.413 108.109H443.401V106.698C443.401 105.625 443.08 104.772 442.438 104.142C441.797 103.5 440.85 103.179 439.6 103.179C438.504 103.179 437.585 103.455 436.844 104.009C436.102 104.562 435.731 105.232 435.731 106.018H432.644C432.644 105.121 432.959 104.258 433.59 103.428C434.232 102.587 435.095 101.923 436.18 101.436C437.275 100.949 438.476 100.705 439.782 100.705C441.852 100.705 443.473 101.225 444.646 102.266C445.82 103.295 446.428 104.717 446.473 106.532V114.8C446.473 116.449 446.683 117.76 447.104 118.734V119H443.883ZM438.786 116.659C439.749 116.659 440.662 116.41 441.525 115.912C442.389 115.414 443.014 114.767 443.401 113.97V110.284H440.994C437.231 110.284 435.35 111.385 435.35 113.588C435.35 114.551 435.671 115.303 436.312 115.846C436.954 116.388 437.779 116.659 438.786 116.659ZM454.624 119H451.553V93.5H454.624V119ZM467.009 119.332C464.574 119.332 462.593 118.535 461.065 116.941C459.538 115.337 458.774 113.195 458.774 110.517V109.952C458.774 108.17 459.112 106.582 459.787 105.188C460.473 103.782 461.425 102.686 462.643 101.9C463.871 101.104 465.199 100.705 466.627 100.705C468.962 100.705 470.777 101.474 472.072 103.013C473.367 104.551 474.015 106.754 474.015 109.62V110.898H461.846C461.89 112.669 462.405 114.103 463.39 115.198C464.386 116.283 465.647 116.825 467.175 116.825C468.259 116.825 469.178 116.604 469.931 116.161C470.683 115.718 471.342 115.132 471.906 114.401L473.782 115.862C472.277 118.175 470.019 119.332 467.009 119.332ZM466.627 103.229C465.387 103.229 464.347 103.682 463.506 104.59C462.665 105.486 462.145 106.748 461.945 108.375H470.943V108.143C470.855 106.582 470.434 105.376 469.682 104.523C468.929 103.66 467.911 103.229 466.627 103.229ZM486.267 103.793C485.802 103.715 485.298 103.677 484.756 103.677C482.742 103.677 481.375 104.535 480.655 106.25V119H477.584V101.037H480.572L480.622 103.112C481.629 101.507 483.057 100.705 484.905 100.705C485.503 100.705 485.957 100.783 486.267 100.938V103.793Z" fill="black"/>
<path d="M62.9766 488V463.828H69.7998C71.9027 463.828 73.762 464.293 75.3779 465.223C76.9938 466.152 78.2389 467.475 79.1133 469.19C79.9987 470.906 80.4469 472.876 80.458 475.101V476.645C80.458 478.924 80.0153 480.922 79.1299 482.638C78.2555 484.353 76.9993 485.67 75.3613 486.589C73.7344 487.507 71.8363 487.978 69.667 488H62.9766ZM66.1641 466.451V485.394H69.5176C71.9746 485.394 73.8838 484.63 75.2451 483.103C76.6175 481.575 77.3037 479.4 77.3037 476.578V475.167C77.3037 472.422 76.6562 470.292 75.3613 468.775C74.0775 467.248 72.2513 466.473 69.8828 466.451H66.1641ZM92.2617 488.332C89.8268 488.332 87.8457 487.535 86.3184 485.941C84.791 484.337 84.0273 482.195 84.0273 479.517V478.952C84.0273 477.17 84.3649 475.582 85.04 474.188C85.7262 472.782 86.6781 471.686 87.8955 470.9C89.124 470.104 90.4521 469.705 91.8799 469.705C94.2152 469.705 96.0303 470.474 97.3252 472.013C98.6201 473.551 99.2676 475.754 99.2676 478.62V479.898H87.0986C87.1429 481.669 87.6576 483.103 88.6426 484.198C89.6387 485.283 90.9004 485.825 92.4277 485.825C93.5124 485.825 94.431 485.604 95.1836 485.161C95.9362 484.718 96.5947 484.132 97.1592 483.401L99.0352 484.862C97.5299 487.175 95.2721 488.332 92.2617 488.332ZM91.8799 472.229C90.6403 472.229 89.5999 472.682 88.7588 473.59C87.9176 474.486 87.3975 475.748 87.1982 477.375H96.1963V477.143C96.1077 475.582 95.6872 474.376 94.9346 473.523C94.182 472.66 93.1637 472.229 91.8799 472.229ZM118.011 479.218C118.011 481.951 117.385 484.154 116.135 485.825C114.884 487.496 113.191 488.332 111.055 488.332C108.874 488.332 107.159 487.64 105.908 486.257V494.906H102.837V470.037H105.643L105.792 472.029C107.043 470.48 108.78 469.705 111.005 469.705C113.163 469.705 114.868 470.519 116.118 472.146C117.38 473.772 118.011 476.036 118.011 478.936V479.218ZM114.939 478.869C114.939 476.844 114.508 475.244 113.645 474.071C112.781 472.898 111.597 472.312 110.092 472.312C108.232 472.312 106.838 473.136 105.908 474.785V483.368C106.827 485.006 108.232 485.825 110.125 485.825C111.597 485.825 112.765 485.244 113.628 484.082C114.502 482.909 114.939 481.171 114.939 478.869ZM125.266 488H122.194V462.5H125.266V488ZM129.383 478.853C129.383 477.093 129.726 475.51 130.412 474.104C131.109 472.699 132.072 471.614 133.301 470.851C134.54 470.087 135.951 469.705 137.534 469.705C139.98 469.705 141.956 470.552 143.461 472.245C144.977 473.938 145.735 476.191 145.735 479.002V479.218C145.735 480.966 145.398 482.538 144.723 483.933C144.059 485.316 143.101 486.395 141.851 487.17C140.611 487.945 139.183 488.332 137.567 488.332C135.132 488.332 133.157 487.485 131.641 485.792C130.135 484.099 129.383 481.857 129.383 479.068V478.853ZM132.471 479.218C132.471 481.21 132.93 482.809 133.849 484.016C134.778 485.222 136.018 485.825 137.567 485.825C139.128 485.825 140.368 485.216 141.286 483.999C142.205 482.771 142.664 481.055 142.664 478.853C142.664 476.882 142.194 475.289 141.253 474.071C140.323 472.843 139.084 472.229 137.534 472.229C136.018 472.229 134.795 472.832 133.865 474.038C132.936 475.244 132.471 476.971 132.471 479.218ZM155.198 483.501L159.382 470.037H162.669L155.447 490.772C154.329 493.761 152.553 495.255 150.118 495.255L149.537 495.205L148.392 494.989V492.499L149.222 492.565C150.262 492.565 151.07 492.355 151.646 491.935C152.232 491.514 152.714 490.745 153.09 489.627L153.771 487.801L147.362 470.037H150.716L155.198 483.501ZM168.313 470.037L168.396 472.029C169.714 470.48 171.49 469.705 173.726 469.705C176.238 469.705 177.948 470.668 178.855 472.594C179.453 471.73 180.228 471.033 181.18 470.502C182.143 469.971 183.277 469.705 184.583 469.705C188.523 469.705 190.526 471.791 190.593 475.964V488H187.521V476.146C187.521 474.863 187.228 473.905 186.642 473.274C186.055 472.632 185.07 472.312 183.687 472.312C182.547 472.312 181.6 472.655 180.848 473.341C180.095 474.016 179.658 474.929 179.536 476.08V488H176.448V476.229C176.448 473.618 175.17 472.312 172.613 472.312C170.599 472.312 169.221 473.169 168.479 474.885V488H165.408V470.037H168.313ZM202.695 488.332C200.26 488.332 198.279 487.535 196.752 485.941C195.225 484.337 194.461 482.195 194.461 479.517V478.952C194.461 477.17 194.799 475.582 195.474 474.188C196.16 472.782 197.112 471.686 198.329 470.9C199.558 470.104 200.886 469.705 202.313 469.705C204.649 469.705 206.464 470.474 207.759 472.013C209.054 473.551 209.701 475.754 209.701 478.62V479.898H197.532C197.576 481.669 198.091 483.103 199.076 484.198C200.072 485.283 201.334 485.825 202.861 485.825C203.946 485.825 204.865 485.604 205.617 485.161C206.37 484.718 207.028 484.132 207.593 483.401L209.469 484.862C207.964 487.175 205.706 488.332 202.695 488.332ZM202.313 472.229C201.074 472.229 200.034 472.682 199.192 473.59C198.351 474.486 197.831 475.748 197.632 477.375H206.63V477.143C206.541 475.582 206.121 474.376 205.368 473.523C204.616 472.66 203.597 472.229 202.313 472.229ZM216.176 470.037L216.275 472.295C217.648 470.568 219.441 469.705 221.654 469.705C225.451 469.705 227.365 471.847 227.398 476.13V488H224.327V476.113C224.316 474.818 224.017 473.861 223.431 473.241C222.855 472.621 221.953 472.312 220.725 472.312C219.729 472.312 218.854 472.577 218.102 473.108C217.349 473.64 216.762 474.337 216.342 475.2V488H213.271V470.037H216.176ZM236.197 465.688V470.037H239.551V472.411H236.197V483.551C236.197 484.27 236.347 484.812 236.646 485.178C236.944 485.532 237.453 485.709 238.173 485.709C238.527 485.709 239.014 485.643 239.634 485.51V488C238.826 488.221 238.04 488.332 237.276 488.332C235.904 488.332 234.869 487.917 234.172 487.087C233.475 486.257 233.126 485.078 233.126 483.551V472.411H229.855V470.037H233.126V465.688H236.197Z" fill="black"/>
<path d="M569.44 460.33C569.142 462.887 568.195 464.862 566.602 466.257C565.019 467.64 562.91 468.332 560.276 468.332C557.421 468.332 555.13 467.308 553.403 465.261C551.688 463.213 550.83 460.474 550.83 457.043V454.719C550.83 452.472 551.229 450.496 552.025 448.792C552.833 447.088 553.973 445.782 555.445 444.874C556.917 443.955 558.622 443.496 560.559 443.496C563.126 443.496 565.185 444.215 566.734 445.654C568.284 447.082 569.186 449.063 569.44 451.598H566.236C565.96 449.672 565.356 448.277 564.427 447.414C563.508 446.551 562.219 446.119 560.559 446.119C558.522 446.119 556.923 446.872 555.761 448.377C554.61 449.882 554.034 452.024 554.034 454.802V457.143C554.034 459.766 554.582 461.852 555.678 463.401C556.773 464.951 558.306 465.726 560.276 465.726C562.047 465.726 563.403 465.327 564.344 464.53C565.296 463.722 565.926 462.322 566.236 460.33H569.44ZM584.415 466.224C583.22 467.629 581.465 468.332 579.152 468.332C577.238 468.332 575.777 467.779 574.77 466.672C573.773 465.554 573.27 463.905 573.259 461.725V450.037H576.33V461.642C576.33 464.364 577.437 465.726 579.65 465.726C581.997 465.726 583.557 464.851 584.332 463.103V450.037H587.403V468H584.481L584.415 466.224ZM602.544 463.235C602.544 462.405 602.229 461.763 601.598 461.31C600.978 460.845 599.888 460.446 598.327 460.114C596.778 459.782 595.544 459.384 594.625 458.919C593.717 458.454 593.042 457.901 592.6 457.259C592.168 456.617 591.952 455.853 591.952 454.968C591.952 453.496 592.572 452.251 593.812 451.232C595.062 450.214 596.656 449.705 598.593 449.705C600.629 449.705 602.278 450.231 603.54 451.282C604.813 452.334 605.449 453.678 605.449 455.316H602.361C602.361 454.475 602.002 453.75 601.282 453.142C600.574 452.533 599.677 452.229 598.593 452.229C597.475 452.229 596.601 452.472 595.97 452.959C595.339 453.446 595.023 454.082 595.023 454.868C595.023 455.61 595.317 456.169 595.903 456.545C596.49 456.921 597.547 457.281 599.074 457.624C600.613 457.967 601.858 458.377 602.81 458.853C603.761 459.328 604.464 459.904 604.918 460.579C605.383 461.243 605.615 462.057 605.615 463.02C605.615 464.624 604.973 465.914 603.689 466.888C602.406 467.851 600.74 468.332 598.692 468.332C597.254 468.332 595.981 468.077 594.874 467.568C593.767 467.059 592.898 466.351 592.268 465.443C591.648 464.525 591.338 463.534 591.338 462.472H594.409C594.465 463.501 594.874 464.32 595.638 464.929C596.412 465.526 597.431 465.825 598.692 465.825C599.854 465.825 600.784 465.593 601.481 465.128C602.19 464.652 602.544 464.021 602.544 463.235ZM613.783 445.688V450.037H617.137V452.411H613.783V463.551C613.783 464.27 613.933 464.812 614.231 465.178C614.53 465.532 615.039 465.709 615.759 465.709C616.113 465.709 616.6 465.643 617.22 465.51V468C616.412 468.221 615.626 468.332 614.862 468.332C613.49 468.332 612.455 467.917 611.758 467.087C611.061 466.257 610.712 465.078 610.712 463.551V452.411H607.441V450.037H610.712V445.688H613.783ZM619.594 458.853C619.594 457.093 619.937 455.51 620.623 454.104C621.32 452.699 622.283 451.614 623.512 450.851C624.751 450.087 626.162 449.705 627.745 449.705C630.191 449.705 632.167 450.552 633.672 452.245C635.188 453.938 635.946 456.191 635.946 459.002V459.218C635.946 460.966 635.609 462.538 634.934 463.933C634.27 465.316 633.312 466.395 632.062 467.17C630.822 467.945 629.394 468.332 627.778 468.332C625.343 468.332 623.368 467.485 621.852 465.792C620.346 464.099 619.594 461.857 619.594 459.068V458.853ZM622.682 459.218C622.682 461.21 623.141 462.809 624.06 464.016C624.989 465.222 626.229 465.825 627.778 465.825C629.339 465.825 630.578 465.216 631.497 463.999C632.416 462.771 632.875 461.055 632.875 458.853C632.875 456.882 632.405 455.289 631.464 454.071C630.534 452.843 629.295 452.229 627.745 452.229C626.229 452.229 625.006 452.832 624.076 454.038C623.146 455.244 622.682 456.971 622.682 459.218ZM642.687 450.037L642.77 452.029C644.087 450.48 645.863 449.705 648.099 449.705C650.611 449.705 652.321 450.668 653.229 452.594C653.826 451.73 654.601 451.033 655.553 450.502C656.516 449.971 657.65 449.705 658.956 449.705C662.896 449.705 664.899 451.791 664.966 455.964V468H661.895V456.146C661.895 454.863 661.601 453.905 661.015 453.274C660.428 452.632 659.443 452.312 658.06 452.312C656.92 452.312 655.973 452.655 655.221 453.341C654.468 454.016 654.031 454.929 653.909 456.08V468H650.821V456.229C650.821 453.618 649.543 452.312 646.986 452.312C644.972 452.312 643.594 453.169 642.853 454.885V468H639.781V450.037H642.687ZM682.646 443.828L690.549 463.551L698.451 443.828H702.585V468H699.397V458.587L699.696 448.427L691.761 468H689.32L681.401 448.477L681.717 458.587V468H678.529V443.828H682.646ZM715.186 468.332C712.751 468.332 710.77 467.535 709.242 465.941C707.715 464.337 706.951 462.195 706.951 459.517V458.952C706.951 457.17 707.289 455.582 707.964 454.188C708.65 452.782 709.602 451.686 710.819 450.9C712.048 450.104 713.376 449.705 714.804 449.705C717.139 449.705 718.954 450.474 720.249 452.013C721.544 453.551 722.191 455.754 722.191 458.62V459.898H710.022C710.067 461.669 710.581 463.103 711.566 464.198C712.562 465.283 713.824 465.825 715.352 465.825C716.436 465.825 717.355 465.604 718.107 465.161C718.86 464.718 719.519 464.132 720.083 463.401L721.959 464.862C720.454 467.175 718.196 468.332 715.186 468.332ZM714.804 452.229C713.564 452.229 712.524 452.682 711.683 453.59C710.841 454.486 710.321 455.748 710.122 457.375H719.12V457.143C719.032 455.582 718.611 454.376 717.858 453.523C717.106 452.66 716.088 452.229 714.804 452.229ZM729.928 445.688V450.037H733.281V452.411H729.928V463.551C729.928 464.27 730.077 464.812 730.376 465.178C730.675 465.532 731.184 465.709 731.903 465.709C732.257 465.709 732.744 465.643 733.364 465.51V468C732.556 468.221 731.771 468.332 731.007 468.332C729.634 468.332 728.6 467.917 727.902 467.087C727.205 466.257 726.856 465.078 726.856 463.551V452.411H723.586V450.037H726.856V445.688H729.928ZM745.566 452.793C745.102 452.715 744.598 452.677 744.056 452.677C742.041 452.677 740.674 453.535 739.955 455.25V468H736.884V450.037H739.872L739.922 452.112C740.929 450.507 742.357 449.705 744.205 449.705C744.803 449.705 745.257 449.783 745.566 449.938V452.793ZM751.742 468H748.671V450.037H751.742V468ZM748.422 445.272C748.422 444.774 748.571 444.354 748.87 444.011C749.18 443.668 749.634 443.496 750.231 443.496C750.829 443.496 751.283 443.668 751.593 444.011C751.903 444.354 752.058 444.774 752.058 445.272C752.058 445.771 751.903 446.186 751.593 446.518C751.283 446.85 750.829 447.016 750.231 447.016C749.634 447.016 749.18 446.85 748.87 446.518C748.571 446.186 748.422 445.771 748.422 445.272ZM763.878 465.825C764.974 465.825 765.931 465.493 766.75 464.829C767.569 464.165 768.023 463.335 768.111 462.339H771.017C770.961 463.368 770.607 464.348 769.954 465.277C769.301 466.207 768.427 466.949 767.331 467.502C766.246 468.055 765.095 468.332 763.878 468.332C761.432 468.332 759.484 467.519 758.034 465.892C756.595 464.254 755.876 462.018 755.876 459.185V458.67C755.876 456.921 756.197 455.366 756.839 454.005C757.481 452.644 758.399 451.587 759.595 450.834C760.801 450.081 762.223 449.705 763.861 449.705C765.876 449.705 767.547 450.308 768.875 451.515C770.214 452.721 770.928 454.287 771.017 456.213H768.111C768.023 455.051 767.58 454.099 766.783 453.357C765.997 452.605 765.023 452.229 763.861 452.229C762.301 452.229 761.089 452.793 760.226 453.922C759.373 455.04 758.947 456.661 758.947 458.786V459.367C758.947 461.437 759.373 463.031 760.226 464.148C761.078 465.266 762.295 465.825 763.878 465.825ZM622.516 497.226C619.782 496.44 617.79 495.477 616.539 494.337C615.299 493.186 614.68 491.769 614.68 490.087C614.68 488.183 615.438 486.612 616.954 485.372C618.481 484.121 620.463 483.496 622.897 483.496C624.558 483.496 626.035 483.817 627.33 484.459C628.636 485.101 629.643 485.986 630.352 487.115C631.071 488.244 631.431 489.478 631.431 490.817H628.227C628.227 489.356 627.762 488.211 626.832 487.381C625.902 486.54 624.591 486.119 622.897 486.119C621.326 486.119 620.097 486.468 619.212 487.165C618.338 487.851 617.9 488.809 617.9 490.037C617.9 491.022 618.315 491.858 619.146 492.544C619.987 493.219 621.409 493.839 623.412 494.403C625.426 494.968 626.998 495.593 628.127 496.279C629.267 496.954 630.108 497.746 630.65 498.653C631.204 499.561 631.48 500.629 631.48 501.857C631.48 503.816 630.717 505.388 629.189 506.572C627.662 507.745 625.62 508.332 623.063 508.332C621.403 508.332 619.854 508.017 618.415 507.386C616.976 506.744 615.864 505.869 615.078 504.763C614.303 503.656 613.916 502.4 613.916 500.994H617.12C617.12 502.455 617.657 503.612 618.73 504.464C619.815 505.305 621.259 505.726 623.063 505.726C624.746 505.726 626.035 505.382 626.932 504.696C627.828 504.01 628.276 503.075 628.276 501.891C628.276 500.706 627.861 499.793 627.031 499.151C626.201 498.498 624.696 497.856 622.516 497.226ZM642.554 508.332C640.119 508.332 638.138 507.535 636.61 505.941C635.083 504.337 634.319 502.195 634.319 499.517V498.952C634.319 497.17 634.657 495.582 635.332 494.188C636.018 492.782 636.97 491.686 638.188 490.9C639.416 490.104 640.744 489.705 642.172 489.705C644.507 489.705 646.322 490.474 647.617 492.013C648.912 493.551 649.56 495.754 649.56 498.62V499.898H637.391C637.435 501.669 637.95 503.103 638.935 504.198C639.931 505.283 641.192 505.825 642.72 505.825C643.804 505.825 644.723 505.604 645.476 505.161C646.228 504.718 646.887 504.132 647.451 503.401L649.327 504.862C647.822 507.175 645.564 508.332 642.554 508.332ZM642.172 492.229C640.932 492.229 639.892 492.682 639.051 493.59C638.21 494.486 637.689 495.748 637.49 497.375H646.488V497.143C646.4 495.582 645.979 494.376 645.227 493.523C644.474 492.66 643.456 492.229 642.172 492.229ZM661.812 492.793C661.347 492.715 660.843 492.677 660.301 492.677C658.286 492.677 656.92 493.535 656.2 495.25V508H653.129V490.037H656.117L656.167 492.112C657.174 490.507 658.602 489.705 660.45 489.705C661.048 489.705 661.502 489.783 661.812 489.938V492.793ZM670.876 503.833L675.325 490.037H678.463L672.021 508H669.681L663.173 490.037H666.311L670.876 503.833ZM688.64 508.332C686.205 508.332 684.224 507.535 682.696 505.941C681.169 504.337 680.405 502.195 680.405 499.517V498.952C680.405 497.17 680.743 495.582 681.418 494.188C682.104 492.782 683.056 491.686 684.273 490.9C685.502 490.104 686.83 489.705 688.258 489.705C690.593 489.705 692.408 490.474 693.703 492.013C694.998 493.551 695.646 495.754 695.646 498.62V499.898H683.477C683.521 501.669 684.035 503.103 685.021 504.198C686.017 505.283 687.278 505.825 688.806 505.825C689.89 505.825 690.809 505.604 691.562 505.161C692.314 504.718 692.973 504.132 693.537 503.401L695.413 504.862C693.908 507.175 691.65 508.332 688.64 508.332ZM688.258 492.229C687.018 492.229 685.978 492.682 685.137 493.59C684.296 494.486 683.775 495.748 683.576 497.375H692.574V497.143C692.486 495.582 692.065 494.376 691.312 493.523C690.56 492.66 689.542 492.229 688.258 492.229ZM707.897 492.793C707.433 492.715 706.929 492.677 706.387 492.677C704.372 492.677 703.006 493.535 702.286 495.25V508H699.215V490.037H702.203L702.253 492.112C703.26 490.507 704.688 489.705 706.536 489.705C707.134 489.705 707.588 489.783 707.897 489.938V492.793Z" fill="black"/>
<path d="M168.5 368.977C168.488 369.806 169.149 370.487 169.977 370.5L183.476 370.704C184.304 370.717 184.986 370.056 184.998 369.227C185.011 368.399 184.35 367.717 183.521 367.705L171.523 367.523L171.704 355.524C171.717 354.696 171.056 354.014 170.227 354.002C169.399 353.989 168.717 354.65 168.705 355.479L168.5 368.977ZM369.956 172.923L168.956 367.923L171.044 370.077L372.044 175.077L369.956 172.923Z" fill="black"/>
<path d="M656.056 370.499C656.883 370.468 657.53 369.772 657.499 368.944L656.999 355.454C656.969 354.626 656.273 353.98 655.445 354.01C654.617 354.041 653.971 354.737 654.001 355.565L654.446 367.557L642.454 368.001C641.626 368.031 640.98 368.727 641.01 369.555C641.041 370.383 641.737 371.029 642.565 370.999L656.056 370.499ZM444.979 175.099L654.979 370.099L657.021 367.901L447.021 172.901L444.979 175.099Z" fill="black"/>
<path d="M286.939 474.939C286.354 475.525 286.354 476.475 286.939 477.061L296.485 486.607C297.071 487.192 298.021 487.192 298.607 486.607C299.192 486.021 299.192 485.071 298.607 484.485L290.121 476L298.607 467.515C299.192 466.929 299.192 465.979 298.607 465.393C298.021 464.808 297.071 464.808 296.485 465.393L286.939 474.939ZM533 474.5L288 474.5V477.5L533 477.5V474.5Z" fill="black"/>
<path d="M42.7061 245.226C39.9723 244.44 37.9801 243.477 36.7295 242.337C35.4899 241.186 34.8701 239.769 34.8701 238.087C34.8701 236.183 35.6283 234.612 37.1445 233.372C38.6719 232.121 40.653 231.496 43.0879 231.496C44.748 231.496 46.2256 231.817 47.5205 232.459C48.8265 233.101 49.8337 233.986 50.542 235.115C51.2614 236.244 51.6211 237.478 51.6211 238.817H48.417C48.417 237.356 47.9521 236.211 47.0225 235.381C46.0928 234.54 44.7812 234.119 43.0879 234.119C41.5163 234.119 40.2878 234.468 39.4023 235.165C38.528 235.851 38.0908 236.809 38.0908 238.037C38.0908 239.022 38.5059 239.858 39.3359 240.544C40.1771 241.219 41.5993 241.839 43.6025 242.403C45.6169 242.968 47.1885 243.593 48.3174 244.279C49.4574 244.954 50.2985 245.746 50.8408 246.653C51.3942 247.561 51.6709 248.629 51.6709 249.857C51.6709 251.816 50.9072 253.388 49.3799 254.572C47.8525 255.745 45.8105 256.332 43.2539 256.332C41.5938 256.332 40.0443 256.017 38.6055 255.386C37.1667 254.744 36.0544 253.869 35.2686 252.763C34.4938 251.656 34.1064 250.4 34.1064 248.994H37.3105C37.3105 250.455 37.8473 251.612 38.9209 252.464C40.0055 253.305 41.4499 253.726 43.2539 253.726C44.9362 253.726 46.2256 253.382 47.1221 252.696C48.0186 252.01 48.4668 251.075 48.4668 249.891C48.4668 248.706 48.0518 247.793 47.2217 247.151C46.3916 246.498 44.8864 245.856 42.7061 245.226ZM62.4951 253.825C63.5908 253.825 64.5482 253.493 65.3672 252.829C66.1862 252.165 66.64 251.335 66.7285 250.339H69.6338C69.5785 251.368 69.2243 252.348 68.5713 253.277C67.9183 254.207 67.0439 254.949 65.9482 255.502C64.8636 256.055 63.7126 256.332 62.4951 256.332C60.0492 256.332 58.1012 255.519 56.6514 253.892C55.2126 252.254 54.4932 250.018 54.4932 247.185V246.67C54.4932 244.921 54.8141 243.366 55.4561 242.005C56.098 240.644 57.0166 239.587 58.2119 238.834C59.4183 238.081 60.8405 237.705 62.4785 237.705C64.4928 237.705 66.1641 238.308 67.4922 239.515C68.8314 240.721 69.5452 242.287 69.6338 244.213H66.7285C66.64 243.051 66.1973 242.099 65.4004 241.357C64.6146 240.605 63.6406 240.229 62.4785 240.229C60.918 240.229 59.7061 240.793 58.8428 241.922C57.9906 243.04 57.5645 244.661 57.5645 246.786V247.367C57.5645 249.437 57.9906 251.031 58.8428 252.148C59.695 253.266 60.9124 253.825 62.4951 253.825ZM84.1768 256C83.9997 255.646 83.8558 255.015 83.7451 254.107C82.3174 255.59 80.613 256.332 78.6318 256.332C76.861 256.332 75.4056 255.834 74.2656 254.838C73.1367 253.831 72.5723 252.558 72.5723 251.02C72.5723 249.149 73.2806 247.699 74.6973 246.67C76.125 245.63 78.1283 245.109 80.707 245.109H83.6953V243.698C83.6953 242.625 83.3743 241.772 82.7324 241.142C82.0905 240.5 81.1442 240.179 79.8936 240.179C78.7979 240.179 77.8792 240.455 77.1377 241.009C76.3962 241.562 76.0254 242.232 76.0254 243.018H72.9375C72.9375 242.121 73.2529 241.258 73.8838 240.428C74.5257 239.587 75.389 238.923 76.4736 238.436C77.5693 237.949 78.7702 237.705 80.0762 237.705C82.1458 237.705 83.7673 238.225 84.9404 239.266C86.1136 240.295 86.7223 241.717 86.7666 243.532V251.8C86.7666 253.449 86.9769 254.76 87.3975 255.734V256H84.1768ZM79.0801 253.659C80.043 253.659 80.9561 253.41 81.8193 252.912C82.6826 252.414 83.3079 251.767 83.6953 250.97V247.284H81.2881C77.5251 247.284 75.6436 248.385 75.6436 250.588C75.6436 251.551 75.9645 252.303 76.6064 252.846C77.2484 253.388 78.0729 253.659 79.0801 253.659ZM94.918 256H91.8467V230.5H94.918V256ZM107.303 256.332C104.868 256.332 102.887 255.535 101.359 253.941C99.832 252.337 99.0684 250.195 99.0684 247.517V246.952C99.0684 245.17 99.4059 243.582 100.081 242.188C100.767 240.782 101.719 239.686 102.937 238.9C104.165 238.104 105.493 237.705 106.921 237.705C109.256 237.705 111.071 238.474 112.366 240.013C113.661 241.551 114.309 243.754 114.309 246.62V247.898H102.14C102.184 249.669 102.699 251.103 103.684 252.198C104.68 253.283 105.941 253.825 107.469 253.825C108.553 253.825 109.472 253.604 110.225 253.161C110.977 252.718 111.636 252.132 112.2 251.401L114.076 252.862C112.571 255.175 110.313 256.332 107.303 256.332ZM106.921 240.229C105.681 240.229 104.641 240.682 103.8 241.59C102.959 242.486 102.438 243.748 102.239 245.375H111.237V245.143C111.149 243.582 110.728 242.376 109.976 241.523C109.223 240.66 108.205 240.229 106.921 240.229ZM136.688 249.193H132.305L130.977 256H128.603L129.931 249.193H125.963V246.919H130.362L131.508 241.042H127.225V238.734H131.956L133.317 231.828H135.691L134.33 238.734H138.713L140.074 231.828H142.465L141.104 238.734H144.49V241.042H140.655L139.51 246.919H143.245V249.193H139.078L137.75 256H135.359L136.688 249.193ZM132.736 246.919H137.119L138.265 241.042H133.882L132.736 246.919ZM154.883 246.853C154.883 245.093 155.226 243.51 155.912 242.104C156.609 240.699 157.572 239.614 158.801 238.851C160.04 238.087 161.451 237.705 163.034 237.705C165.48 237.705 167.456 238.552 168.961 240.245C170.477 241.938 171.235 244.191 171.235 247.002V247.218C171.235 248.966 170.898 250.538 170.223 251.933C169.559 253.316 168.601 254.395 167.351 255.17C166.111 255.945 164.683 256.332 163.067 256.332C160.632 256.332 158.657 255.485 157.141 253.792C155.635 252.099 154.883 249.857 154.883 247.068V246.853ZM157.971 247.218C157.971 249.21 158.43 250.809 159.349 252.016C160.278 253.222 161.518 253.825 163.067 253.825C164.628 253.825 165.868 253.216 166.786 251.999C167.705 250.771 168.164 249.055 168.164 246.853C168.164 244.882 167.694 243.289 166.753 242.071C165.823 240.843 164.584 240.229 163.034 240.229C161.518 240.229 160.295 240.832 159.365 242.038C158.436 243.244 157.971 244.971 157.971 247.218ZM176.598 256V240.411H173.759V238.037H176.598V236.194C176.598 234.269 177.112 232.78 178.142 231.729C179.171 230.677 180.626 230.151 182.508 230.151C183.216 230.151 183.919 230.245 184.616 230.434L184.45 232.924C183.93 232.824 183.377 232.774 182.79 232.774C181.794 232.774 181.025 233.068 180.482 233.654C179.94 234.23 179.669 235.06 179.669 236.145V238.037H183.504V240.411H179.669V256H176.598ZM210.515 247.218C210.515 249.951 209.889 252.154 208.639 253.825C207.388 255.496 205.695 256.332 203.559 256.332C201.378 256.332 199.663 255.64 198.412 254.257V262.906H195.341V238.037H198.146L198.296 240.029C199.547 238.48 201.284 237.705 203.509 237.705C205.667 237.705 207.371 238.519 208.622 240.146C209.884 241.772 210.515 244.036 210.515 246.936V247.218ZM207.443 246.869C207.443 244.844 207.012 243.244 206.148 242.071C205.285 240.898 204.101 240.312 202.596 240.312C200.736 240.312 199.342 241.136 198.412 242.785V251.368C199.331 253.006 200.736 253.825 202.629 253.825C204.101 253.825 205.269 253.244 206.132 252.082C207.006 250.909 207.443 249.171 207.443 246.869ZM213.619 246.853C213.619 245.093 213.962 243.51 214.648 242.104C215.346 240.699 216.309 239.614 217.537 238.851C218.777 238.087 220.188 237.705 221.771 237.705C224.216 237.705 226.192 238.552 227.697 240.245C229.214 241.938 229.972 244.191 229.972 247.002V247.218C229.972 248.966 229.634 250.538 228.959 251.933C228.295 253.316 227.338 254.395 226.087 255.17C224.847 255.945 223.42 256.332 221.804 256.332C219.369 256.332 217.393 255.485 215.877 253.792C214.372 252.099 213.619 249.857 213.619 247.068V246.853ZM216.707 247.218C216.707 249.21 217.166 250.809 218.085 252.016C219.015 253.222 220.254 253.825 221.804 253.825C223.364 253.825 224.604 253.216 225.522 251.999C226.441 250.771 226.9 249.055 226.9 246.853C226.9 244.882 226.43 243.289 225.489 242.071C224.56 240.843 223.32 240.229 221.771 240.229C220.254 240.229 219.031 240.832 218.102 242.038C217.172 243.244 216.707 244.971 216.707 247.218ZM233.076 246.869C233.076 244.113 233.729 241.9 235.035 240.229C236.341 238.546 238.051 237.705 240.165 237.705C242.268 237.705 243.934 238.424 245.162 239.863V230.5H248.233V256H245.411L245.262 254.074C244.033 255.579 242.323 256.332 240.132 256.332C238.051 256.332 236.352 255.48 235.035 253.775C233.729 252.071 233.076 249.846 233.076 247.102V246.869ZM236.147 247.218C236.147 249.254 236.568 250.848 237.409 251.999C238.25 253.15 239.412 253.726 240.896 253.726C242.843 253.726 244.266 252.851 245.162 251.103V242.852C244.243 241.158 242.832 240.312 240.929 240.312C239.424 240.312 238.25 240.893 237.409 242.055C236.568 243.217 236.147 244.938 236.147 247.218ZM263.474 251.235C263.474 250.405 263.158 249.763 262.527 249.31C261.908 248.845 260.817 248.446 259.257 248.114C257.707 247.782 256.473 247.384 255.555 246.919C254.647 246.454 253.972 245.901 253.529 245.259C253.098 244.617 252.882 243.853 252.882 242.968C252.882 241.496 253.502 240.251 254.741 239.232C255.992 238.214 257.586 237.705 259.522 237.705C261.559 237.705 263.208 238.231 264.47 239.282C265.743 240.334 266.379 241.678 266.379 243.316H263.291C263.291 242.475 262.931 241.75 262.212 241.142C261.504 240.533 260.607 240.229 259.522 240.229C258.405 240.229 257.53 240.472 256.899 240.959C256.269 241.446 255.953 242.082 255.953 242.868C255.953 243.61 256.246 244.169 256.833 244.545C257.42 244.921 258.477 245.281 260.004 245.624C261.542 245.967 262.787 246.377 263.739 246.853C264.691 247.328 265.394 247.904 265.848 248.579C266.312 249.243 266.545 250.057 266.545 251.02C266.545 252.624 265.903 253.914 264.619 254.888C263.335 255.851 261.67 256.332 259.622 256.332C258.183 256.332 256.91 256.077 255.804 255.568C254.697 255.059 253.828 254.351 253.197 253.443C252.577 252.525 252.268 251.534 252.268 250.472H255.339C255.394 251.501 255.804 252.32 256.567 252.929C257.342 253.526 258.36 253.825 259.622 253.825C260.784 253.825 261.714 253.593 262.411 253.128C263.119 252.652 263.474 252.021 263.474 251.235Z" fill="black"/>
<path d="M338.717 413.325H328.573V424H325.386V399.828H340.36V402.451H328.573V410.719H338.717V413.325ZM350.786 424.332C348.351 424.332 346.37 423.535 344.843 421.941C343.315 420.337 342.552 418.195 342.552 415.517V414.952C342.552 413.17 342.889 411.582 343.564 410.188C344.251 408.782 345.202 407.686 346.42 406.9C347.648 406.104 348.977 405.705 350.404 405.705C352.74 405.705 354.555 406.474 355.85 408.013C357.145 409.551 357.792 411.754 357.792 414.62V415.898H345.623C345.667 417.669 346.182 419.103 347.167 420.198C348.163 421.283 349.425 421.825 350.952 421.825C352.037 421.825 352.955 421.604 353.708 421.161C354.461 420.718 355.119 420.132 355.684 419.401L357.56 420.862C356.054 423.175 353.797 424.332 350.786 424.332ZM350.404 408.229C349.165 408.229 348.124 408.682 347.283 409.59C346.442 410.486 345.922 411.748 345.723 413.375H354.721V413.143C354.632 411.582 354.212 410.376 353.459 409.523C352.706 408.66 351.688 408.229 350.404 408.229ZM365.528 401.688V406.037H368.882V408.411H365.528V419.551C365.528 420.27 365.678 420.812 365.977 421.178C366.275 421.532 366.785 421.709 367.504 421.709C367.858 421.709 368.345 421.643 368.965 421.51V424C368.157 424.221 367.371 424.332 366.607 424.332C365.235 424.332 364.2 423.917 363.503 423.087C362.806 422.257 362.457 421.078 362.457 419.551V408.411H359.187V406.037H362.457V401.688H365.528ZM379.689 421.825C380.785 421.825 381.743 421.493 382.562 420.829C383.381 420.165 383.834 419.335 383.923 418.339H386.828C386.773 419.368 386.419 420.348 385.766 421.277C385.113 422.207 384.238 422.949 383.143 423.502C382.058 424.055 380.907 424.332 379.689 424.332C377.243 424.332 375.296 423.519 373.846 421.892C372.407 420.254 371.688 418.018 371.688 415.185V414.67C371.688 412.921 372.008 411.366 372.65 410.005C373.292 408.644 374.211 407.587 375.406 406.834C376.613 406.081 378.035 405.705 379.673 405.705C381.687 405.705 383.358 406.308 384.687 407.515C386.026 408.721 386.74 410.287 386.828 412.213H383.923C383.834 411.051 383.392 410.099 382.595 409.357C381.809 408.605 380.835 408.229 379.673 408.229C378.112 408.229 376.9 408.793 376.037 409.922C375.185 411.04 374.759 412.661 374.759 414.786V415.367C374.759 417.437 375.185 419.031 376.037 420.148C376.889 421.266 378.107 421.825 379.689 421.825ZM393.353 408.212C394.714 406.541 396.485 405.705 398.665 405.705C402.461 405.705 404.376 407.847 404.409 412.13V424H401.338V412.113C401.327 410.818 401.028 409.861 400.441 409.241C399.866 408.621 398.964 408.312 397.735 408.312C396.739 408.312 395.865 408.577 395.112 409.108C394.36 409.64 393.773 410.337 393.353 411.2V424H390.281V398.5H393.353V408.212ZM416.694 414.869C416.694 412.113 417.347 409.9 418.653 408.229C419.959 406.546 421.669 405.705 423.783 405.705C425.886 405.705 427.552 406.424 428.78 407.863V398.5H431.852V424H429.029L428.88 422.074C427.651 423.579 425.941 424.332 423.75 424.332C421.669 424.332 419.97 423.48 418.653 421.775C417.347 420.071 416.694 417.846 416.694 415.102V414.869ZM419.766 415.218C419.766 417.254 420.186 418.848 421.027 419.999C421.868 421.15 423.031 421.726 424.514 421.726C426.462 421.726 427.884 420.851 428.78 419.103V410.852C427.862 409.158 426.451 408.312 424.547 408.312C423.042 408.312 421.868 408.893 421.027 410.055C420.186 411.217 419.766 412.938 419.766 415.218ZM447.723 424C447.546 423.646 447.402 423.015 447.291 422.107C445.863 423.59 444.159 424.332 442.178 424.332C440.407 424.332 438.951 423.834 437.812 422.838C436.683 421.831 436.118 420.558 436.118 419.02C436.118 417.149 436.826 415.699 438.243 414.67C439.671 413.63 441.674 413.109 444.253 413.109H447.241V411.698C447.241 410.625 446.92 409.772 446.278 409.142C445.636 408.5 444.69 408.179 443.439 408.179C442.344 408.179 441.425 408.455 440.684 409.009C439.942 409.562 439.571 410.232 439.571 411.018H436.483C436.483 410.121 436.799 409.258 437.43 408.428C438.072 407.587 438.935 406.923 440.02 406.436C441.115 405.949 442.316 405.705 443.622 405.705C445.692 405.705 447.313 406.225 448.486 407.266C449.66 408.295 450.268 409.717 450.312 411.532V419.8C450.312 421.449 450.523 422.76 450.943 423.734V424H447.723ZM442.626 421.659C443.589 421.659 444.502 421.41 445.365 420.912C446.229 420.414 446.854 419.767 447.241 418.97V415.284H444.834C441.071 415.284 439.189 416.385 439.189 418.588C439.189 419.551 439.51 420.303 440.152 420.846C440.794 421.388 441.619 421.659 442.626 421.659ZM459.294 401.688V406.037H462.647V408.411H459.294V419.551C459.294 420.27 459.443 420.812 459.742 421.178C460.041 421.532 460.55 421.709 461.27 421.709C461.624 421.709 462.111 421.643 462.73 421.51V424C461.923 424.221 461.137 424.332 460.373 424.332C459.001 424.332 457.966 423.917 457.269 423.087C456.571 422.257 456.223 421.078 456.223 419.551V408.411H452.952V406.037H456.223V401.688H459.294ZM477.34 424C477.163 423.646 477.019 423.015 476.908 422.107C475.48 423.59 473.776 424.332 471.795 424.332C470.024 424.332 468.569 423.834 467.429 422.838C466.3 421.831 465.735 420.558 465.735 419.02C465.735 417.149 466.444 415.699 467.86 414.67C469.288 413.63 471.291 413.109 473.87 413.109H476.858V411.698C476.858 410.625 476.537 409.772 475.896 409.142C475.254 408.5 474.307 408.179 473.057 408.179C471.961 408.179 471.042 408.455 470.301 409.009C469.559 409.562 469.188 410.232 469.188 411.018H466.101C466.101 410.121 466.416 409.258 467.047 408.428C467.689 407.587 468.552 406.923 469.637 406.436C470.732 405.949 471.933 405.705 473.239 405.705C475.309 405.705 476.93 406.225 478.104 407.266C479.277 408.295 479.885 409.717 479.93 411.532V419.8C479.93 421.449 480.14 422.76 480.561 423.734V424H477.34ZM472.243 421.659C473.206 421.659 474.119 421.41 474.982 420.912C475.846 420.414 476.471 419.767 476.858 418.97V415.284H474.451C470.688 415.284 468.807 416.385 468.807 418.588C468.807 419.551 469.128 420.303 469.77 420.846C470.411 421.388 471.236 421.659 472.243 421.659ZM332.475 464V448.411H329.636V446.037H332.475V444.194C332.475 442.269 332.989 440.78 334.019 439.729C335.048 438.677 336.503 438.151 338.385 438.151C339.093 438.151 339.796 438.245 340.493 438.434L340.327 440.924C339.807 440.824 339.254 440.774 338.667 440.774C337.671 440.774 336.902 441.068 336.359 441.654C335.817 442.23 335.546 443.06 335.546 444.145V446.037H339.381V448.411H335.546V464H332.475ZM341.971 454.853C341.971 453.093 342.314 451.51 343 450.104C343.697 448.699 344.66 447.614 345.889 446.851C347.128 446.087 348.539 445.705 350.122 445.705C352.568 445.705 354.544 446.552 356.049 448.245C357.565 449.938 358.323 452.191 358.323 455.002V455.218C358.323 456.966 357.986 458.538 357.311 459.933C356.646 461.316 355.689 462.395 354.438 463.17C353.199 463.945 351.771 464.332 350.155 464.332C347.72 464.332 345.745 463.485 344.229 461.792C342.723 460.099 341.971 457.857 341.971 455.068V454.853ZM345.059 455.218C345.059 457.21 345.518 458.809 346.437 460.016C347.366 461.222 348.606 461.825 350.155 461.825C351.716 461.825 352.955 461.216 353.874 459.999C354.793 458.771 355.252 457.055 355.252 454.853C355.252 452.882 354.782 451.289 353.841 450.071C352.911 448.843 351.672 448.229 350.122 448.229C348.606 448.229 347.383 448.832 346.453 450.038C345.523 451.244 345.059 452.971 345.059 455.218ZM370.857 448.793C370.393 448.715 369.889 448.677 369.347 448.677C367.332 448.677 365.965 449.535 365.246 451.25V464H362.175V446.037H365.163L365.213 448.112C366.22 446.507 367.648 445.705 369.496 445.705C370.094 445.705 370.548 445.783 370.857 445.938V448.793ZM385.019 446.037L385.102 448.029C386.419 446.48 388.195 445.705 390.431 445.705C392.943 445.705 394.653 446.668 395.561 448.594C396.158 447.73 396.933 447.033 397.885 446.502C398.848 445.971 399.982 445.705 401.288 445.705C405.228 445.705 407.231 447.791 407.298 451.964V464H404.227V452.146C404.227 450.863 403.933 449.905 403.347 449.274C402.76 448.632 401.775 448.312 400.392 448.312C399.252 448.312 398.305 448.655 397.553 449.341C396.8 450.016 396.363 450.929 396.241 452.08V464H393.153V452.229C393.153 449.618 391.875 448.312 389.318 448.312C387.304 448.312 385.926 449.169 385.185 450.885V464H382.113V446.037H385.019ZM419.4 464.332C416.965 464.332 414.984 463.535 413.457 461.941C411.93 460.337 411.166 458.195 411.166 455.517V454.952C411.166 453.17 411.504 451.582 412.179 450.188C412.865 448.782 413.817 447.686 415.034 446.9C416.263 446.104 417.591 445.705 419.019 445.705C421.354 445.705 423.169 446.474 424.464 448.013C425.759 449.551 426.406 451.754 426.406 454.62V455.898H414.237C414.282 457.669 414.796 459.103 415.781 460.198C416.777 461.283 418.039 461.825 419.566 461.825C420.651 461.825 421.57 461.604 422.322 461.161C423.075 460.718 423.733 460.132 424.298 459.401L426.174 460.862C424.669 463.175 422.411 464.332 419.4 464.332ZM419.019 448.229C417.779 448.229 416.739 448.682 415.897 449.59C415.056 450.486 414.536 451.748 414.337 453.375H423.335V453.143C423.246 451.582 422.826 450.376 422.073 449.523C421.321 448.66 420.302 448.229 419.019 448.229ZM434.143 441.688V446.037H437.496V448.411H434.143V459.551C434.143 460.27 434.292 460.812 434.591 461.178C434.89 461.532 435.399 461.709 436.118 461.709C436.472 461.709 436.959 461.643 437.579 461.51V464C436.771 464.221 435.985 464.332 435.222 464.332C433.849 464.332 432.814 463.917 432.117 463.087C431.42 462.257 431.071 461.078 431.071 459.551V448.411H427.801V446.037H431.071V441.688H434.143ZM449.781 448.793C449.316 448.715 448.813 448.677 448.271 448.677C446.256 448.677 444.889 449.535 444.17 451.25V464H441.099V446.037H444.087L444.137 448.112C445.144 446.507 446.572 445.705 448.42 445.705C449.018 445.705 449.471 445.783 449.781 445.938V448.793ZM455.957 464H452.886V446.037H455.957V464ZM452.637 441.272C452.637 440.774 452.786 440.354 453.085 440.011C453.395 439.668 453.849 439.496 454.446 439.496C455.044 439.496 455.498 439.668 455.808 440.011C456.118 440.354 456.272 440.774 456.272 441.272C456.272 441.771 456.118 442.186 455.808 442.518C455.498 442.85 455.044 443.016 454.446 443.016C453.849 443.016 453.395 442.85 453.085 442.518C452.786 442.186 452.637 441.771 452.637 441.272ZM468.093 461.825C469.188 461.825 470.146 461.493 470.965 460.829C471.784 460.165 472.238 459.335 472.326 458.339H475.231C475.176 459.368 474.822 460.348 474.169 461.277C473.516 462.207 472.642 462.949 471.546 463.502C470.461 464.055 469.31 464.332 468.093 464.332C465.647 464.332 463.699 463.519 462.249 461.892C460.81 460.254 460.091 458.018 460.091 455.185V454.67C460.091 452.921 460.412 451.366 461.054 450.005C461.696 448.644 462.614 447.587 463.81 446.834C465.016 446.081 466.438 445.705 468.076 445.705C470.09 445.705 471.762 446.308 473.09 447.515C474.429 448.721 475.143 450.287 475.231 452.213H472.326C472.238 451.051 471.795 450.099 470.998 449.357C470.212 448.605 469.238 448.229 468.076 448.229C466.516 448.229 465.304 448.793 464.44 449.922C463.588 451.04 463.162 452.661 463.162 454.786V455.367C463.162 457.437 463.588 459.031 464.44 460.148C465.293 461.266 466.51 461.825 468.093 461.825Z" fill="black"/>
<path d="M627.911 232.829C627.092 234.002 625.947 234.882 624.475 235.469C623.014 236.044 621.309 236.332 619.361 236.332C617.391 236.332 615.643 235.873 614.115 234.954C612.588 234.024 611.404 232.707 610.562 231.003C609.732 229.299 609.306 227.323 609.284 225.076V222.968C609.284 219.326 610.131 216.504 611.824 214.501C613.529 212.498 615.919 211.496 618.996 211.496C621.52 211.496 623.55 212.144 625.089 213.438C626.627 214.722 627.568 216.549 627.911 218.917H624.724C624.126 215.718 622.222 214.119 619.013 214.119C616.877 214.119 615.255 214.872 614.148 216.377C613.053 217.871 612.499 220.04 612.488 222.885V224.86C612.488 227.572 613.108 229.73 614.348 231.335C615.587 232.929 617.264 233.726 619.378 233.726C620.573 233.726 621.619 233.593 622.516 233.327C623.412 233.062 624.154 232.613 624.74 231.982V226.554H619.146V223.964H627.911V232.829ZM640.213 236.332C637.778 236.332 635.797 235.535 634.27 233.941C632.742 232.337 631.979 230.195 631.979 227.517V226.952C631.979 225.17 632.316 223.582 632.991 222.188C633.677 220.782 634.629 219.686 635.847 218.9C637.075 218.104 638.403 217.705 639.831 217.705C642.166 217.705 643.981 218.474 645.276 220.013C646.571 221.551 647.219 223.754 647.219 226.62V227.898H635.05C635.094 229.669 635.609 231.103 636.594 232.198C637.59 233.283 638.852 233.825 640.379 233.825C641.464 233.825 642.382 233.604 643.135 233.161C643.887 232.718 644.546 232.132 645.11 231.401L646.986 232.862C645.481 235.175 643.223 236.332 640.213 236.332ZM639.831 220.229C638.591 220.229 637.551 220.682 636.71 221.59C635.869 222.486 635.349 223.748 635.149 225.375H644.147V225.143C644.059 223.582 643.638 222.376 642.886 221.523C642.133 220.66 641.115 220.229 639.831 220.229ZM654.955 213.688V218.037H658.309V220.411H654.955V231.551C654.955 232.27 655.104 232.812 655.403 233.178C655.702 233.532 656.211 233.709 656.931 233.709C657.285 233.709 657.772 233.643 658.392 233.51V236C657.584 236.221 656.798 236.332 656.034 236.332C654.662 236.332 653.627 235.917 652.93 235.087C652.232 234.257 651.884 233.078 651.884 231.551V220.411H648.613V218.037H651.884V213.688H654.955ZM673.233 218.037L673.316 220.029C674.633 218.48 676.41 217.705 678.646 217.705C681.158 217.705 682.868 218.668 683.775 220.594C684.373 219.73 685.148 219.033 686.1 218.502C687.062 217.971 688.197 217.705 689.503 217.705C693.443 217.705 695.446 219.791 695.513 223.964V236H692.441V224.146C692.441 222.863 692.148 221.905 691.562 221.274C690.975 220.632 689.99 220.312 688.606 220.312C687.466 220.312 686.52 220.655 685.768 221.341C685.015 222.016 684.578 222.929 684.456 224.08V236H681.368V224.229C681.368 221.618 680.09 220.312 677.533 220.312C675.519 220.312 674.141 221.169 673.399 222.885V236H670.328V218.037H673.233ZM707.615 236.332C705.18 236.332 703.199 235.535 701.672 233.941C700.145 232.337 699.381 230.195 699.381 227.517V226.952C699.381 225.17 699.718 223.582 700.394 222.188C701.08 220.782 702.032 219.686 703.249 218.9C704.478 218.104 705.806 217.705 707.233 217.705C709.569 217.705 711.384 218.474 712.679 220.013C713.974 221.551 714.621 223.754 714.621 226.62V227.898H702.452C702.496 229.669 703.011 231.103 703.996 232.198C704.992 233.283 706.254 233.825 707.781 233.825C708.866 233.825 709.785 233.604 710.537 233.161C711.29 232.718 711.948 232.132 712.513 231.401L714.389 232.862C712.883 235.175 710.626 236.332 707.615 236.332ZM707.233 220.229C705.994 220.229 704.953 220.682 704.112 221.59C703.271 222.486 702.751 223.748 702.552 225.375H711.55V225.143C711.461 223.582 711.041 222.376 710.288 221.523C709.535 220.66 708.517 220.229 707.233 220.229ZM722.357 213.688V218.037H725.711V220.411H722.357V231.551C722.357 232.27 722.507 232.812 722.806 233.178C723.104 233.532 723.614 233.709 724.333 233.709C724.687 233.709 725.174 233.643 725.794 233.51V236C724.986 236.221 724.2 236.332 723.437 236.332C722.064 236.332 721.029 235.917 720.332 235.087C719.635 234.257 719.286 233.078 719.286 231.551V220.411H716.016V218.037H719.286V213.688H722.357ZM737.996 220.793C737.531 220.715 737.028 220.677 736.485 220.677C734.471 220.677 733.104 221.535 732.385 223.25V236H729.313V218.037H732.302L732.352 220.112C733.359 218.507 734.786 217.705 736.635 217.705C737.232 217.705 737.686 217.783 737.996 217.938V220.793ZM744.172 236H741.101V218.037H744.172V236ZM740.852 213.272C740.852 212.774 741.001 212.354 741.3 212.011C741.61 211.668 742.063 211.496 742.661 211.496C743.259 211.496 743.713 211.668 744.022 212.011C744.332 212.354 744.487 212.774 744.487 213.272C744.487 213.771 744.332 214.186 744.022 214.518C743.713 214.85 743.259 215.016 742.661 215.016C742.063 215.016 741.61 214.85 741.3 214.518C741.001 214.186 740.852 213.771 740.852 213.272ZM756.308 233.825C757.403 233.825 758.361 233.493 759.18 232.829C759.999 232.165 760.452 231.335 760.541 230.339H763.446C763.391 231.368 763.037 232.348 762.384 233.277C761.731 234.207 760.856 234.949 759.761 235.502C758.676 236.055 757.525 236.332 756.308 236.332C753.862 236.332 751.914 235.519 750.464 233.892C749.025 232.254 748.306 230.018 748.306 227.185V226.67C748.306 224.921 748.627 223.366 749.269 222.005C749.91 220.644 750.829 219.587 752.024 218.834C753.231 218.081 754.653 217.705 756.291 217.705C758.305 217.705 759.977 218.308 761.305 219.515C762.644 220.721 763.358 222.287 763.446 224.213H760.541C760.452 223.051 760.01 222.099 759.213 221.357C758.427 220.605 757.453 220.229 756.291 220.229C754.73 220.229 753.519 220.793 752.655 221.922C751.803 223.04 751.377 224.661 751.377 226.786V227.367C751.377 229.437 751.803 231.031 752.655 232.148C753.507 233.266 754.725 233.825 756.308 233.825ZM776.844 236V220.411H774.005V218.037H776.844V216.194C776.844 214.269 777.358 212.78 778.388 211.729C779.417 210.677 780.872 210.151 782.754 210.151C783.462 210.151 784.165 210.245 784.862 210.434L784.696 212.924C784.176 212.824 783.623 212.774 783.036 212.774C782.04 212.774 781.271 213.068 780.729 213.654C780.186 214.23 779.915 215.06 779.915 216.145V218.037H783.75V220.411H779.915V236H776.844ZM786.34 226.853C786.34 225.093 786.683 223.51 787.369 222.104C788.066 220.699 789.029 219.614 790.258 218.851C791.497 218.087 792.909 217.705 794.491 217.705C796.937 217.705 798.913 218.552 800.418 220.245C801.934 221.938 802.692 224.191 802.692 227.002V227.218C802.692 228.966 802.355 230.538 801.68 231.933C801.016 233.316 800.058 234.395 798.808 235.17C797.568 235.945 796.14 236.332 794.524 236.332C792.09 236.332 790.114 235.485 788.598 233.792C787.092 232.099 786.34 229.857 786.34 227.068V226.853ZM789.428 227.218C789.428 229.21 789.887 230.809 790.806 232.016C791.735 233.222 792.975 233.825 794.524 233.825C796.085 233.825 797.325 233.216 798.243 231.999C799.162 230.771 799.621 229.055 799.621 226.853C799.621 224.882 799.151 223.289 798.21 222.071C797.28 220.843 796.041 220.229 794.491 220.229C792.975 220.229 791.752 220.832 790.822 222.038C789.893 223.244 789.428 224.971 789.428 227.218ZM815.227 220.793C814.762 220.715 814.258 220.677 813.716 220.677C811.701 220.677 810.335 221.535 809.615 223.25V236H806.544V218.037H809.532L809.582 220.112C810.589 218.507 812.017 217.705 813.865 217.705C814.463 217.705 814.917 217.783 815.227 217.938V220.793ZM582.489 266.869C582.489 264.113 583.142 261.9 584.448 260.229C585.754 258.546 587.464 257.705 589.578 257.705C591.681 257.705 593.347 258.424 594.575 259.863V250.5H597.646V276H594.824L594.675 274.074C593.446 275.579 591.736 276.332 589.545 276.332C587.464 276.332 585.765 275.48 584.448 273.775C583.142 272.071 582.489 269.846 582.489 267.102V266.869ZM585.561 267.218C585.561 269.254 585.981 270.848 586.822 271.999C587.663 273.15 588.826 273.726 590.309 273.726C592.257 273.726 593.679 272.851 594.575 271.103V262.852C593.657 261.158 592.245 260.312 590.342 260.312C588.837 260.312 587.663 260.893 586.822 262.055C585.981 263.217 585.561 264.938 585.561 267.218ZM609.882 276.332C607.447 276.332 605.466 275.535 603.938 273.941C602.411 272.337 601.647 270.195 601.647 267.517V266.952C601.647 265.17 601.985 263.582 602.66 262.188C603.346 260.782 604.298 259.686 605.516 258.9C606.744 258.104 608.072 257.705 609.5 257.705C611.835 257.705 613.65 258.474 614.945 260.013C616.24 261.551 616.888 263.754 616.888 266.62V267.898H604.719C604.763 269.669 605.278 271.103 606.263 272.198C607.259 273.283 608.521 273.825 610.048 273.825C611.132 273.825 612.051 273.604 612.804 273.161C613.556 272.718 614.215 272.132 614.779 271.401L616.655 272.862C615.15 275.175 612.892 276.332 609.882 276.332ZM609.5 260.229C608.26 260.229 607.22 260.682 606.379 261.59C605.538 262.486 605.018 263.748 604.818 265.375H613.816V265.143C613.728 263.582 613.307 262.376 612.555 261.523C611.802 260.66 610.784 260.229 609.5 260.229ZM635.631 267.218C635.631 269.951 635.006 272.154 633.755 273.825C632.504 275.496 630.811 276.332 628.675 276.332C626.494 276.332 624.779 275.64 623.528 274.257V282.906H620.457V258.037H623.263L623.412 260.029C624.663 258.48 626.4 257.705 628.625 257.705C630.783 257.705 632.488 258.519 633.738 260.146C635 261.772 635.631 264.036 635.631 266.936V267.218ZM632.56 266.869C632.56 264.844 632.128 263.244 631.265 262.071C630.401 260.898 629.217 260.312 627.712 260.312C625.853 260.312 624.458 261.136 623.528 262.785V271.368C624.447 273.006 625.853 273.825 627.745 273.825C629.217 273.825 630.385 273.244 631.248 272.082C632.122 270.909 632.56 269.171 632.56 266.869ZM642.886 276H639.814V250.5H642.886V276ZM647.003 266.853C647.003 265.093 647.346 263.51 648.032 262.104C648.729 260.699 649.692 259.614 650.921 258.851C652.16 258.087 653.572 257.705 655.154 257.705C657.6 257.705 659.576 258.552 661.081 260.245C662.597 261.938 663.355 264.191 663.355 267.002V267.218C663.355 268.966 663.018 270.538 662.343 271.933C661.679 273.316 660.721 274.395 659.471 275.17C658.231 275.945 656.803 276.332 655.188 276.332C652.753 276.332 650.777 275.485 649.261 273.792C647.756 272.099 647.003 269.857 647.003 267.068V266.853ZM650.091 267.218C650.091 269.21 650.55 270.809 651.469 272.016C652.398 273.222 653.638 273.825 655.188 273.825C656.748 273.825 657.988 273.216 658.906 271.999C659.825 270.771 660.284 269.055 660.284 266.853C660.284 264.882 659.814 263.289 658.873 262.071C657.943 260.843 656.704 260.229 655.154 260.229C653.638 260.229 652.415 260.832 651.485 262.038C650.556 263.244 650.091 264.971 650.091 267.218ZM672.818 271.501L677.002 258.037H680.289L673.067 278.772C671.95 281.761 670.173 283.255 667.738 283.255L667.157 283.205L666.012 282.989V280.499L666.842 280.565C667.882 280.565 668.69 280.355 669.266 279.935C669.852 279.514 670.334 278.745 670.71 277.627L671.391 275.801L664.982 258.037H668.336L672.818 271.501ZM685.934 258.037L686.017 260.029C687.334 258.48 689.11 257.705 691.346 257.705C693.858 257.705 695.568 258.668 696.476 260.594C697.073 259.73 697.848 259.033 698.8 258.502C699.763 257.971 700.897 257.705 702.203 257.705C706.143 257.705 708.146 259.791 708.213 263.964V276H705.142V264.146C705.142 262.863 704.848 261.905 704.262 261.274C703.675 260.632 702.69 260.312 701.307 260.312C700.167 260.312 699.22 260.655 698.468 261.341C697.715 262.016 697.278 262.929 697.156 264.08V276H694.068V264.229C694.068 261.618 692.79 260.312 690.233 260.312C688.219 260.312 686.841 261.169 686.1 262.885V276H683.028V258.037H685.934ZM720.315 276.332C717.881 276.332 715.899 275.535 714.372 273.941C712.845 272.337 712.081 270.195 712.081 267.517V266.952C712.081 265.17 712.419 263.582 713.094 262.188C713.78 260.782 714.732 259.686 715.949 258.9C717.178 258.104 718.506 257.705 719.934 257.705C722.269 257.705 724.084 258.474 725.379 260.013C726.674 261.551 727.321 263.754 727.321 266.62V267.898H715.152C715.197 269.669 715.711 271.103 716.696 272.198C717.692 273.283 718.954 273.825 720.481 273.825C721.566 273.825 722.485 273.604 723.237 273.161C723.99 272.718 724.648 272.132 725.213 271.401L727.089 272.862C725.584 275.175 723.326 276.332 720.315 276.332ZM719.934 260.229C718.694 260.229 717.654 260.682 716.812 261.59C715.971 262.486 715.451 263.748 715.252 265.375H724.25V265.143C724.161 263.582 723.741 262.376 722.988 261.523C722.236 260.66 721.217 260.229 719.934 260.229ZM733.796 258.037L733.896 260.295C735.268 258.568 737.061 257.705 739.274 257.705C743.071 257.705 744.985 259.847 745.019 264.13V276H741.947V264.113C741.936 262.818 741.637 261.861 741.051 261.241C740.475 260.621 739.573 260.312 738.345 260.312C737.349 260.312 736.474 260.577 735.722 261.108C734.969 261.64 734.382 262.337 733.962 263.2V276H730.891V258.037H733.796ZM753.817 253.688V258.037H757.171V260.411H753.817V271.551C753.817 272.27 753.967 272.812 754.266 273.178C754.564 273.532 755.074 273.709 755.793 273.709C756.147 273.709 756.634 273.643 757.254 273.51V276C756.446 276.221 755.66 276.332 754.896 276.332C753.524 276.332 752.489 275.917 751.792 275.087C751.095 274.257 750.746 273.078 750.746 271.551V260.411H747.476V258.037H750.746V253.688H753.817ZM784.381 267.218C784.381 269.951 783.756 272.154 782.505 273.825C781.254 275.496 779.561 276.332 777.425 276.332C775.244 276.332 773.529 275.64 772.278 274.257V282.906H769.207V258.037H772.013L772.162 260.029C773.413 258.48 775.15 257.705 777.375 257.705C779.533 257.705 781.238 258.519 782.488 260.146C783.75 261.772 784.381 264.036 784.381 266.936V267.218ZM781.31 266.869C781.31 264.844 780.878 263.244 780.015 262.071C779.151 260.898 777.967 260.312 776.462 260.312C774.603 260.312 773.208 261.136 772.278 262.785V271.368C773.197 273.006 774.603 273.825 776.495 273.825C777.967 273.825 779.135 273.244 779.998 272.082C780.872 270.909 781.31 269.171 781.31 266.869ZM787.485 266.853C787.485 265.093 787.828 263.51 788.515 262.104C789.212 260.699 790.175 259.614 791.403 258.851C792.643 258.087 794.054 257.705 795.637 257.705C798.083 257.705 800.058 258.552 801.563 260.245C803.08 261.938 803.838 264.191 803.838 267.002V267.218C803.838 268.966 803.5 270.538 802.825 271.933C802.161 273.316 801.204 274.395 799.953 275.17C798.714 275.945 797.286 276.332 795.67 276.332C793.235 276.332 791.259 275.485 789.743 273.792C788.238 272.099 787.485 269.857 787.485 267.068V266.853ZM790.573 267.218C790.573 269.21 791.033 270.809 791.951 272.016C792.881 273.222 794.12 273.825 795.67 273.825C797.23 273.825 798.47 273.216 799.389 271.999C800.307 270.771 800.767 269.055 800.767 266.853C800.767 264.882 800.296 263.289 799.355 262.071C798.426 260.843 797.186 260.229 795.637 260.229C794.12 260.229 792.897 260.832 791.968 262.038C791.038 263.244 790.573 264.971 790.573 267.218ZM806.942 266.869C806.942 264.113 807.595 261.9 808.901 260.229C810.207 258.546 811.917 257.705 814.031 257.705C816.134 257.705 817.8 258.424 819.028 259.863V250.5H822.1V276H819.277L819.128 274.074C817.899 275.579 816.189 276.332 813.998 276.332C811.917 276.332 810.218 275.48 808.901 273.775C807.595 272.071 806.942 269.846 806.942 267.102V266.869ZM810.014 267.218C810.014 269.254 810.434 270.848 811.275 271.999C812.117 273.15 813.279 273.726 814.762 273.726C816.71 273.726 818.132 272.851 819.028 271.103V262.852C818.11 261.158 816.699 260.312 814.795 260.312C813.29 260.312 812.117 260.893 811.275 262.055C810.434 263.217 810.014 264.938 810.014 267.218ZM837.34 271.235C837.34 270.405 837.024 269.763 836.394 269.31C835.774 268.845 834.684 268.446 833.123 268.114C831.574 267.782 830.34 267.384 829.421 266.919C828.513 266.454 827.838 265.901 827.396 265.259C826.964 264.617 826.748 263.853 826.748 262.968C826.748 261.496 827.368 260.251 828.607 259.232C829.858 258.214 831.452 257.705 833.389 257.705C835.425 257.705 837.074 258.231 838.336 259.282C839.609 260.334 840.245 261.678 840.245 263.316H837.157C837.157 262.475 836.798 261.75 836.078 261.142C835.37 260.533 834.473 260.229 833.389 260.229C832.271 260.229 831.396 260.472 830.766 260.959C830.135 261.446 829.819 262.082 829.819 262.868C829.819 263.61 830.113 264.169 830.699 264.545C831.286 264.921 832.343 265.281 833.87 265.624C835.409 265.967 836.654 266.377 837.605 266.853C838.557 267.328 839.26 267.904 839.714 268.579C840.179 269.243 840.411 270.057 840.411 271.02C840.411 272.624 839.769 273.914 838.485 274.888C837.201 275.851 835.536 276.332 833.488 276.332C832.049 276.332 830.777 276.077 829.67 275.568C828.563 275.059 827.694 274.351 827.063 273.443C826.444 272.525 826.134 271.534 826.134 270.472H829.205C829.26 271.501 829.67 272.32 830.434 272.929C831.208 273.526 832.227 273.825 833.488 273.825C834.65 273.825 835.58 273.593 836.277 273.128C836.986 272.652 837.34 272.021 837.34 271.235Z" fill="black"/>
</svg>
